<?xml version="1.0" encoding="UTF-8"?>
<svg viewBox="0 0 197 120" xmlns="http://www.w3.org/2000/svg">
	<g fill="currentColor" fill-rule="evenodd">
		<path
			d="m122.26 65.8-10.6-8.57-.5.16c-3.53 1.15-5.98 4.3-6.26 7.96h-1.23v-6.45h.05c.17 0 4.15-.11 7.75-3.53 3.58-3.4 4.15-7.56 4.17-7.73l.15-1.17-1.17.09c-.18.01-4.36.36-7.94 3.76-.09.08-.16.16-.24.25 0-4.65-2.95-7.41-3.07-7.52l-.65-.6-.65.6c-.13.12-3.07 2.87-3.07 7.52-.08-.08-.16-.16-.24-.25-3.58-3.39-7.76-3.74-7.94-3.76l-1.17-.09.15 1.17c.02.18.59 4.34 4.17 7.73 3.6 3.42 7.58 3.53 7.75 3.53h.05v6.45h-1.24c-.2-2.58-1.46-4.93-3.53-6.53l-.57-.44-2.95 2.13c-.25-1.54-.9-3.01-1.88-4.24l-.6-.75-9.74 7.87v7.53l11.62 14.87v5.94h1.92v-6.6l-10.34-13.23 3.35-4.91 8.55-6.19c1.28 1.2 2.08 2.8 2.25 4.54h-3.09c-3.18 0-5.77 2.59-5.77 5.77s2.59 5.77 5.77 5.77h14.42c3.18 0 5.77-2.59 5.77-5.77s-2.59-5.77-5.77-5.77h-3.07c.26-2.65 1.95-4.95 4.43-5.96l9.06 7.32v6.01l-9.7 12.41v6.6h1.92v-5.94l9.7-12.41v-7.59zm-35.87-.17-3.2 4.69-.04-.05v-5.95l7.47-6.04c.65 1.07.99 2.28 1.02 3.56l-5.25 3.8zm21.61-13.92c1.91-1.81 4.05-2.62 5.4-2.97-.42 1.33-1.34 3.43-3.25 5.24-1.91 1.82-3.97 2.54-5.24 2.82.35-1.25 1.17-3.27 3.09-5.08zm-12.73 2.26c-1.91-1.81-2.83-3.91-3.25-5.24 1.35.35 3.49 1.16 5.4 2.97 1.92 1.82 2.74 3.83 3.09 5.08-1.27-.28-3.32-1-5.24-2.82zm5.64-3.42c0-2.51 1.08-4.37 1.8-5.35.73.97 1.8 2.83 1.8 5.35s-1.06 4.49-1.8 5.57c-.74-1.08-1.8-3.06-1.8-5.57zm9.01 16.72c2.12 0 3.84 1.72 3.84 3.84s-1.72 3.84-3.84 3.84h-14.42c-2.12 0-3.84-1.72-3.84-3.84s1.72-3.84 3.84-3.84z" />
		<path
			d="m106.31 112.49c-.02-.29-.26-2.9-3.3-3.82l-.74-.22.73-.24c.81-.26 1.52-.55 2.15-.89 1.75-1.03 2.6-2.37 2.6-4.13-.19-2.37-1.57-3.88-4.31-4.75-2.53-.69-5.93-1.05-9.82-1.05h-14.7v22.21h9.88v-8.12l6.04.13c.17 0 1.62.11 1.69 1.72.03.67.21 4.13 1.31 6.1l.09.16h10.62s-.22-.44-.22-.44c-.02-.03-1.67-3.45-2.02-6.66zm-13.53-5.77h-3.98v-4.59h3.61c1.8 0 3.03.2 3.79.63.8.36 1.22.84 1.3 1.52-.03 1.62-1.61 2.44-4.72 2.44z" />
		<path
			d="m57.56 111.5h6.79v3.46l-.2.03c-1.25.2-2.63.29-3.84.37l-.36.02c-3.09-.05-5.03-.82-5.28-.92-2.71-.83-4.39-3.17-4.28-5.98.15-3.72 2.87-6.48 6.48-6.54.05 0 .48-.04 1.1-.04.98 0 2.43.07 3.75.43 1.34.32 2.16 1 2.59 2.16l.08.22h9.94s-.01-.33-.01-.33c-.1-2.78-1.69-4.84-4.6-5.96-2.92-.96-6.79-1.43-11.82-1.43-3.04 0-5.78.34-8.38 1.05-2.54.77-4.37 1.66-5.61 2.71-1.59 1.36-2.49 2.5-3.01 3.81-.57 1.32-.87 2.8-.87 4.26 0 2.34.7 4.32 2.15 6.05 1.46 1.66 3.42 2.93 5.99 3.88 2.23.86 5 1.25 8.97 1.25h1.23c4.24 0 9.7-.33 15.79-.94l.29-.03v-12.32h-16.87v4.8z" />
		<path
			d="m15.78 97.41-15.44 22.18h10.6l2.4-4.1 14.84-.02 2.32 4.11h10.96l-15.51-22.19h-10.16zm.24 13.24 4.7-7.77 4.72 7.76h-9.42z" />
		<path
			d="m186.62 97.85c-.13-.03-3.26-.81-6.64-.85h-.55c-3.98 0-6.71.58-6.74.59-7.08 1.27-11.2 5.18-11.3 10.74l-.02.34c0 5.21 4.09 9.53 10.18 10.75.1.02 2.57.59 7.65.59s7.85-.68 7.89-.69c4.61-1.04 9.58-4.8 9.58-10.59v-.22c0-5.27-3.66-9.15-10.04-10.65zm-7.17 17.46h-1.07c-4.24 0-6.77-2.53-6.77-6.77 0-3.98 2.78-6.77 6.77-6.77h1.07c4.68 0 6.77 3.4 6.77 6.77 0 4.3-2.47 6.77-6.77 6.77z" />
		<path
			d="m151.13 97.91c-2.38-.64-5.24-.95-8.75-.95-3.68 0-6.7.62-8.6 1.15-2.38.86-4.25 2.13-5.72 3.89-1.31 1.81-1.95 4-1.95 6.69v.65c.11 2.51 1.12 4.47 1.96 5.68 1.34 1.73 3.18 3 5.61 3.87 2.25.72 5.05 1.06 8.79 1.06h.94c3.63 0 6.47-.28 8.66-.86 2.15-.63 3.8-1.55 4.87-2.72 1.04-1.25 1.5-2.45 1.5-3.91v-.32h-10.12l-.07.26c-.42 2-2.07 2.97-5.04 2.97h-.72c-3.85-.07-5.89-1.91-5.89-5.33v-2.88c0-3.29 2.26-5.33 5.9-5.33h.72c2.05 0 4.41.73 4.89 2.78l.06.25h10.29v-.51c0-1.46-.64-2.86-1.79-3.91-1.52-1.28-3.33-2.11-5.54-2.54z" />
		<path d="m112.57 97.38h9.98v22.21h-9.98z" />
		<path
			d="m73.93 65.01 29.26-45.06h33.18l-2.79-3.99h-27.8l2.59-3.99h22.42l-2.79-3.99h-17.04l2.59-3.99h11.66l-2.79-3.99h-38.45l-64.22 91.74h59.69c-8.45-6.56-10.66-18.8-5.51-26.73z" />
		<path d="m135.16 75.79h40.3l-2.79-3.99h-37.7c.2 1.31.26 2.64.19 3.99z" />
		<path d="m133.2 83.76h47.85l-2.79-3.99h-43.68c-.33 1.36-.79 2.7-1.38 3.99z" />
		<path d="m132.45 65.01c.57.88 1.04 1.83 1.43 2.8h36l-2.79-3.99h-35.41z" />
		<path d="m155.92 47.86h-34.6l2.59 3.99h34.8z" />
		<path d="m126.94 91.74h59.69l-2.79-3.99h-53c-1.1 1.47-2.4 2.82-3.9 3.99z" />
		<path d="m129.09 59.83h35.21l-2.8-3.99h-35z" />
		<path d="m108.37 27.92h33.59l-2.79-3.99h-33.39z" />
		<path d="m113.55 35.9h33.99l-2.79-3.99h-33.79z" />
		<path d="m118.73 43.88h34.4l-2.79-3.99h-34.2z" />
	</g>
</svg>