<?xml version="1.0" encoding="UTF-8"?>
<svg viewBox="0 0 797 120" xmlns="http://www.w3.org/2000/svg">
    <g fill="currentColor" fill-style="evenodd">
        <path
            d="m739.82 48.67c4 0 6.8 1.16 10.78 4.68l2.95-11.6c-4.73-4.04-10.79-6.16-17-5.97-16.29 0-27.19 12.3-27.19 30.57s10.19 29.64 26.37 29.64c4.69.09 9.32-.99 13.48-3.16 1.54-.79 2.99-1.74 4.34-2.81l-2.55-10.78c-3.35 2.62-7.46 4.1-11.71 4.22-7.51 0-11.41-5.86-11.41-16.86 0-12.07 3.97-17.93 11.94-17.93z" />
        <path
            d="m796.85 49.13v-12.51h-13.31v-19.58h-13.84l-2.85 19.58h-9.01v12.07h8.31v27.76c0 13.31 4.92 19.56 15.7 19.56 3.61-.04 7.19-.55 10.66-1.52 1.06-.27 2.08-.66 3.04-1.16v-11.75c-1.87.38-3.79.54-5.7.48-4.79 0-6.31-2-6.31-7.97v-24.96z" />
        <path
            d="m630.67 44.33h-.82v-7.72h-16.63v58.56h17.7v-39.01c1.34-1.35 2.95-2.42 4.72-3.12 1.78-.71 3.67-1.04 5.58-.98 2.44.03 4.85.46 7.15 1.29v-16.16c-1.68-.63-3.47-.96-5.26-.95-4.58 0-8.92 2.81-12.44 8.1z" />
        <path
            d="m679.38 35.55c-16.4 0-27.3 12.41-27.3 31.16s10.44 29.28 27.77 29.28c5.84.09 11.63-1.06 16.98-3.38 1.71-.82 3.35-1.76 4.93-2.81l-3.38-10.78c-4.3 3.01-9.42 4.6-14.66 4.56-9.37 0-13.31-3.8-13.82-13h33.52v-3.4c0-21.08-8.1-31.62-24.03-31.62zm6.67 24.13h-16.04c.11-7.97 3.04-12.19 8.56-12.19 5.04 0 7.49 3.8 7.49 11.84v.34z" />
        <path
            d="m592.14 15.74c-6.56 0-10.55 3.16-10.55 8.44s3.99 8.42 10.55 8.42 10.55-3.16 10.55-8.54-3.99-8.33-10.55-8.33z" />
        <path d="m583.39 95.17h17.68l.08-58.55h-17.76z" />
        <path
            d="m559.95 22.07c-5.38-3.52-11.12-4.92-21.56-4.92h-25.49v78.04h21.79c10.55 0 16.65-1.27 22.81-4.9 3.56-2.05 6.68-4.81 9.14-8.1 5.15-6.67 7.6-15.21 7.6-25.89 0-15.68-5.15-28.12-14.3-34.22zm-22.91 59.39-5.74.02v-50.74h6.56c5.7 0 9.71 1.63 12.19 5.15 3.27 4.45 4.92 11.6 4.92 20.63 0 16.27-6.22 24.94-17.93 24.94z" />
        <path
            d="m49.6 18.61c-1.52-1.15-3.42-1.68-5.31-1.5h-29.22v6.79h2.47c3.04 0 4.7 1.18 4.7 3.52-.17 2.15-.7 4.26-1.58 6.24l-20.51 61.51h19.03l5.7-18.86h22.22l5.27 18.86h20.65l-20.52-71.86c-.34-1.87-1.38-3.55-2.9-4.7zm-21.85 44.91 8.8-28.71 7.74 28.71z" />
        <path
            d="m95.26 18.63c-.55-.56-1.22-1-1.95-1.28-.74-.28-1.52-.39-2.31-.34h-18.06v6.79h1.18c3.04 0 4.33 1.29 4.33 4.35v67.01h18.35v-72.23c.07-.78-.03-1.57-.29-2.32-.26-.74-.69-1.42-1.24-1.98z" />
        <path
            d="m126.57 18.57c-.56-.57-1.24-1.01-1.99-1.29s-1.55-.39-2.35-.32h-18.04v6.79h1.14c3.06 0 4.35 1.29 4.35 4.35v67.07h18.42v-72.24c.08-.79-.02-1.6-.29-2.35s-.69-1.44-1.26-2.01z" />
        <path
            d="m149.67 15.72c-6.75 0-10.57 3.17-10.57 8.42s4.01 8.44 10.57 8.44 10.55-3.14 10.55-8.44-3.8-8.42-10.55-8.42z" />
        <path
            d="m158.32 38.22c-.56-.57-1.24-1-1.98-1.28-.75-.28-1.54-.39-2.34-.32h-17.83v6.67h1.05c3.06 0 4.33 1.41 4.33 4.45v47.53l18.33-.09v-52.62c.07-.79-.03-1.59-.3-2.34s-.7-1.43-1.26-1.99z" />
        <path
            d="m217.84 83.65v-27.85c0-14.87-5.15-20.06-20.08-20.06-4.73.02-9.45.58-14.05 1.67-4.35.96-8.53 2.53-12.43 4.68l4.18 11.25c5.63-2.79 11.79-4.34 18.06-4.56 4.94 0 6.69 1.75 6.69 6.88v1.29c-7.49 1.2-9.85 1.67-14.07 2.6-2.37.53-4.7 1.28-6.94 2.22-7.4 2.95-10.89 8.67-10.89 17.45 0 11.12 4.81 16.5 14.77 16.5 3.38 0 6.73-.65 9.87-1.9 2.85-1.3 5.5-3 7.87-5.04v.82c-.1.75-.03 1.5.21 2.22s.64 1.36 1.17 1.89 1.18.93 1.89 1.17 1.47.31 2.22.21h16.77v-6.31h-.91c-3.16 0-4.34-1.43-4.34-5.15zm-17.66-5.21c-2.54 2.91-6.1 4.72-9.94 5.06-3.31 0-4.47-1.62-4.47-6.01s.91-6.31 4.2-7.6c3.29-1.33 6.71-2.28 10.21-2.85v11.41z" />
        <path
            d="m274.04 36.66c-1.91-.71-3.94-1-5.97-.86-7.17 0-12.21 2.21-19.01 8.54v-2.34c0-3.65-1.9-5.51-5.7-5.51h-17.38v6.67h1.05c3.06 0 4.35 1.41 4.35 4.45v47.53l18.38.04v-39.54c1.17-1.5 2.67-2.73 4.38-3.58s3.58-1.31 5.49-1.35c3.8 0 4.81 1.52 4.81 7.41v37.05h18.29v-39.92c0-9.28-.67-12.21-3.61-15.34-1.44-1.43-3.18-2.54-5.08-3.24z" />
        <path
            d="m335.93 48.65v-12.03h-38.21c-4.35 0-6.35 1.9-6.35 6.33v10.65h6.81v-1.05c0-2.68 1.41-3.97 4.32-3.97h13.16l-24.72 34.58v12.05h46.08l.02-12.34h-25.49l24.39-34.22z" />
        <path d="m390.79 42.09v51.56h17.24v-58.59h-10.21c-5.06 0-7.03 1.9-7.03 7.03z" />
        <path d="m450.87 35.06h-10.06l-.15 58.59h17.26v-51.56c0-5.17-2-7.03-7.05-7.03z" />
        <path
            d="m424.38 0c-34.37 0-60.06 25.7-60.06 60.02s25.68 59.98 60.06 59.98 60.15-25.63 60.15-59.98h-.09c0-34.22-25.68-60.02-60.06-60.02zm49.81 60c0 29.18-20.91 50.38-49.87 50.38s-49.85-21.2-49.85-50.38 21.06-50.38 49.91-50.38 49.87 21.29 49.87 50.4z" />
        <path
            d="m426.06 20.4h-15.51v7.4h.93c3.54 0 4.22.8 4.22 5.06v60.84l17.36-.04v-66.21c0-5.29-1.9-7.05-7-7.05z" />
    </g>
</svg>