<?xml version="1.0" encoding="UTF-8"?>
<svg viewBox="0 0 277 120" xmlns="http://www.w3.org/2000/svg">
	<g fill="currentColor" fill-rule="evenodd">
		<path
			d="m62.87 46-11.28 28.2h5.81l2.34-6.2h12.54l2.34 6.2h6.03l-11.28-28.2h-6.51zm-1.43 17.31 4.51-11.89h.09l4.51 11.89z" />
		<path
			d="m107.69 52.25c-3.04 0-5.42 1.3-6.72 3.64-1.3-2.43-3.38-3.64-6.16-3.64-2.47 0-4.38 1.21-5.47 3.43h-.09v-2.91h-5.03v21.43h5.38v-11.89c0-3.47 1.39-5.38 3.86-5.38s3.73 1.65 3.73 5.21v12.06h5.38v-11.89c0-3.51 1.35-5.38 3.86-5.38s3.73 1.69 3.73 5.21v12.06h5.38v-12.97c0-6.03-2.56-8.98-7.85-8.98z" />
		<path
			d="m127.95 56.59c1.61 0 3.08.74 4.17 2.08l3.08-3.08c-1.43-2.17-3.99-3.34-7.29-3.34-4.9 0-8.2 2.69-8.2 6.64s2.82 5.47 5.73 6.33c2.65.82 4.47 1.13 4.47 2.86 0 1.43-1.26 2.3-3.34 2.3-1.74 0-3.3-.74-4.47-2.13l-3.08 3.08c1.56 2.21 4.25 3.38 7.59 3.38 5.12 0 8.59-2.78 8.59-6.81s-2.82-5.47-5.73-6.33c-2.65-.82-4.47-1.13-4.47-2.86 0-1.3 1.13-2.13 2.95-2.13z" />
		<path
			d="m146.21 46.96h-4.6v3.34c0 1.78-.69 2.47-2.47 2.47h-1.95v4.47h3.69v9.28c0 5.16 2.52 7.85 7.38 7.85.95 0 2.17-.13 2.82-.3v-4.51c-.43.13-1.17.22-1.78.22-2 0-3.08-1.17-3.08-3.25v-9.28h5.21v-4.47h-5.21v-5.81z" />
		<path
			d="m164.91 52.25c-6.38 0-10.85 4.6-10.85 11.24s4.6 11.24 11.19 11.24c3.9 0 7.29-1.34 9.24-3.86l-3.25-3.17c-1.35 1.56-3.38 2.43-5.73 2.43-3.17 0-5.64-1.95-6.03-4.86h16.05c.09-.56.17-1.39.17-1.91 0-6.55-4.43-11.11-10.8-11.11zm-5.42 9.07c.3-2.82 2.47-4.73 5.38-4.73s5.08 1.91 5.42 4.73z" />
		<path
			d="m185.35 56.33h-.09v-3.56h-5.08v21.43h5.38v-11.28c0-3.21 1.78-5.29 4.51-5.29.87 0 2.04.13 2.65.3v-5.12c-.35-.13-1.26-.22-1.91-.22-2.52 0-4.43 1.3-5.47 3.73z" />
		<path
			d="m211.6 55.81h-.09c-1.48-2.3-3.82-3.56-6.68-3.56-6.2 0-10.59 4.69-10.59 11.32s4.38 11.15 10.59 11.15c2.99 0 5.6-1.43 6.99-3.86h.09v3.34h5.08v-31.46h-5.38v13.06zm-5.9 14.1c-3.56 0-5.94-2.6-5.94-6.42s2.39-6.42 5.94-6.42 5.9 2.56 5.9 6.42-2.39 6.42-5.9 6.42z" />
		<path
			d="m239.8 68.87v-8.5c0-4.99-3.64-8.11-9.37-8.11-3.69 0-6.68 1.26-8.55 3.56l3.25 3.17c1.17-1.34 2.86-2.08 4.77-2.08 2.91 0 4.51 1.3 4.51 3.82v.69l-4.16.04c-5.73.04-9.15 2.52-9.15 6.64s3.08 6.64 7.59 6.64c2.69 0 4.9-1.08 6.25-3.04h.09c.43 1.56 1.82 2.52 3.86 2.52h2.52v-4.21h-.39c-.87 0-1.21-.35-1.21-1.13zm-5.38-2.65c0 2.69-1.95 4.56-4.77 4.56-1.82 0-3.12-1.17-3.12-2.82 0-1.87 1.52-2.86 4.34-2.91l3.56-.04v1.21z" />
		<path
			d="m269.09 52.25c-3.04 0-5.42 1.3-6.72 3.64-1.3-2.43-3.38-3.64-6.16-3.64-2.47 0-4.38 1.21-5.47 3.43h-.09v-2.91h-5.03v21.43h5.38v-11.89c0-3.47 1.39-5.38 3.86-5.38s3.73 1.65 3.73 5.21v12.06h5.38v-11.89c0-3.51 1.35-5.38 3.86-5.38s3.73 1.69 3.73 5.21v12.06h5.38v-12.97c0-6.03-2.56-8.98-7.85-8.98z" />
		<path
			d="m66.93 32.23c8.03 0 13.62-5.08 13.62-12.28v-4.38h-12.54v4.73h6.81v.74c0 3.77-3.17 6.38-7.72 6.38-4.99 0-8.46-4.04-8.46-9.85s3.56-9.68 8.68-9.68c2.73 0 5.03 1.04 6.64 2.82l3.73-3.56c-2.56-2.78-6.16-4.17-10.46-4.17-8.46 0-14.45 6.03-14.45 14.58s5.86 14.67 14.14 14.67z" />
		<path
			d="m95.39 32.23c3.9 0 7.29-1.34 9.24-3.86l-3.25-3.17c-1.34 1.56-3.38 2.43-5.73 2.43-3.17 0-5.64-1.95-6.03-4.86h16.05c.09-.56.17-1.39.17-1.91 0-6.55-4.43-11.11-10.8-11.11s-10.85 4.6-10.85 11.24 4.6 11.24 11.19 11.24zm-.39-18.14c2.91 0 5.08 1.91 5.42 4.73h-10.8c.3-2.82 2.47-4.73 5.38-4.73z" />
		<path
			d="m141.64 31.71v-12.97c0-6.03-2.56-8.98-7.85-8.98-3.04 0-5.42 1.3-6.72 3.64-1.3-2.43-3.38-3.64-6.16-3.64-2.47 0-4.38 1.21-5.47 3.43h-.09v-2.91h-5.03v21.43h5.38v-11.89c0-3.47 1.39-5.38 3.86-5.38s3.73 1.65 3.73 5.21v12.06h5.38v-11.89c0-3.51 1.35-5.38 3.86-5.38s3.73 1.69 3.73 5.21v12.06z" />
		<path
			d="m157.09 32.23c3.9 0 7.29-1.34 9.24-3.86l-3.25-3.17c-1.35 1.56-3.38 2.43-5.73 2.43-3.17 0-5.64-1.95-6.03-4.86h16.05c.09-.56.17-1.39.17-1.91 0-6.55-4.43-11.11-10.8-11.11s-10.85 4.6-10.85 11.24 4.6 11.24 11.19 11.24zm-.39-18.14c2.91 0 5.08 1.91 5.42 4.73h-10.8c.3-2.82 2.47-4.73 5.38-4.73z" />
		<path
			d="m181.86 32.23c3.9 0 7.29-1.34 9.24-3.86l-3.25-3.17c-1.35 1.56-3.38 2.43-5.73 2.43-3.17 0-5.64-1.95-6.03-4.86h16.05c.09-.56.17-1.39.17-1.91 0-6.55-4.43-11.11-10.8-11.11s-10.85 4.6-10.85 11.24 4.6 11.24 11.19 11.24zm-.39-18.14c2.91 0 5.08 1.91 5.42 4.73h-10.8c.3-2.82 2.47-4.73 5.38-4.73z" />
		<path
			d="m202.17 19.91c0-3.56 1.48-5.47 4.21-5.47s4.04 1.69 4.04 5.34v11.93h5.38v-12.97c0-5.9-2.78-8.98-8.16-8.98-2.52 0-4.69 1.3-5.68 3.43h-.09v-2.91h-5.08v21.43h5.38z" />
		<path
			d="m222.69 24.03c0 5.16 2.52 7.85 7.38 7.85.95 0 2.17-.13 2.82-.3v-4.51c-.43.13-1.17.22-1.78.22-2 0-3.08-1.17-3.08-3.25v-9.29h5.21v-4.47h-5.21v-5.81h-4.6v3.34c0 1.78-.69 2.47-2.47 2.47h-1.95v4.47h3.69v9.29z" />
		<path
			d="m247.07 32.23c3.9 0 7.29-1.34 9.24-3.86l-3.25-3.17c-1.35 1.56-3.38 2.43-5.73 2.43-3.17 0-5.64-1.95-6.03-4.86h16.05c.09-.56.17-1.39.17-1.91 0-6.55-4.43-11.11-10.8-11.11s-10.85 4.6-10.85 11.24 4.6 11.24 11.19 11.24zm-.39-18.14c2.91 0 5.08 1.91 5.42 4.73h-10.8c.3-2.82 2.47-4.73 5.38-4.73z" />
		<path
			d="m28.28 84.73-10.58 10.58-10.58-10.58-7.06 7.05 10.58 10.58-10.58 10.59 7.06 7.05 10.58-10.58 10.58 10.58 7.05-7.05-10.58-10.59 10.58-10.58z" />
		<path
			d="m28.28 0-10.58 10.58-10.58-10.58-7.06 7.05 10.58 10.59-10.58 10.58 7.06 7.05 10.58-10.58 10.58 10.58 7.06-7.05-10.59-10.58 10.59-10.59z" />
		<path
			d="m28.28 42.4-10.58 10.58-10.58-10.58-7.06 7.05 10.58 10.59-10.58 10.58 7.06 7.05 10.58-10.58 10.58 10.58 7.06-7.05-10.59-10.58 10.59-10.59z" />
	</g>
</svg>