<?xml version="1.0" encoding="UTF-8"?>
<svg xmlns="http://www.w3.org/2000/svg" viewBox="0 0 616 120">
    <g fill="currentColor" fill-rule="evenodd">
        <path
            d="M23.58 117.53c8.74 0 17.54-4.43 23.2-8.8v3.51c0 1.97 1.6 3.57 3.63 3.57l8.92-.43v-2.89l-6.95-.49c-1.42-.31-1.48-.68-1.48-1.54V67.2c0-14.89-5.97-20.43-21.97-20.43-9.11 0-15.63 1.72-19.51 3.14l-.74.25v4.18l1.54-.55c2.95-1.11 9.17-2.89 18.03-2.89 14.21 0 18.34 3.82 18.34 17.11v6.77l-23.81 2.09C11.7 77.85.32 80.81.32 95.64s11.69 21.91 23.26 21.91Zm23.08-38.46v20.25c0 2.65-1.23 5.11-3.32 6.65-2.4 1.72-10.83 7.32-19.81 7.32s-19.01-4.62-19.01-17.6c0-10.71 7.45-13.54 18.65-14.52l23.51-2.09Zm394.38 38.4c8.74 0 17.54-4.43 23.2-8.8v3.51c0 1.97 1.6 3.57 3.63 3.57l8.92-.43v-2.89l-6.95-.49c-1.42-.31-1.48-.68-1.48-1.54V67.14c0-14.89-5.97-20.43-21.97-20.43-9.11 0-15.63 1.72-19.51 3.14l-.74.25v4.18l1.54-.55c2.95-1.11 9.17-2.89 18.03-2.89 14.21 0 18.34 3.82 18.34 17.11v6.77l-23.81 2.09c-11.14.98-22.52 3.94-22.52 18.77.06 15.14 11.75 21.91 23.32 21.91Zm23.08-38.46v20.25c0 2.65-1.23 5.11-3.32 6.65-2.4 1.72-10.83 7.32-19.81 7.32s-19.01-4.62-19.01-17.6c0-10.71 7.45-13.54 18.65-14.52l23.51-2.09ZM354.65 26.09v90.03h3.2l.62-5.48c4.98 4.62 11.94 6.83 21.17 6.83 19.26 0 30.28-12.98 30.28-35.63S399.46 46.4 379.64 46.4c-9.11 0-16 2.15-20.98 6.52V24.43c0-1.85-1.54-3.38-3.38-3.38l-8.25.43v2.77l6.4.49c1.29.25 1.29.62 1.23 1.35Zm24.98 24.37c17.41 0 26.28 10.58 26.28 31.38 0 11.81-3.38 31.57-26.28 31.57-8.12 0-14.09-1.85-18.34-5.72-1.66-1.54-2.65-3.75-2.65-6.15V62.22c0-2.46.98-4.74 2.65-6.22 4.31-3.69 10.28-5.54 18.34-5.54Zm183.32-24.25v84.67c0 .86 0 1.23-1.35 1.48l-7.02.55v3.32h21.11v-3.32l-6.95-.49c-1.42-.31-1.48-.68-1.48-1.54V80.67h6.95c.8 0 1.54.37 2.03.92l20.8 24.55c6.89 8.18 9.97 11.2 14.71 11.2 2.34 0 3.2-.37 3.51-.62l.43-.37v-2.77h-1.11c-5.23 0-6.28-.74-14.03-9.78l-21.29-25.05 25.78-24.31q2.77-2.65 9.29-3.45l1.23-.12v-3.2h-22.83v3.14l9.23.74c.06 0 .12.12.06.12l-25.6 24.12c-.43.43-1.35.62-2.03.62h-7.2V24.49c0-1.91-1.72-3.57-3.75-3.57l-8.92.43v2.95l6.95.49c1.54.31 1.48.68 1.48 1.42ZM91.27 113.1c-5.6 0-10.71-1.42-15.08-4.18-1.97-1.23-3.38-3.32-3.88-5.66l-1.23-5.72h-3.63l1.17 17.78.06.74 3.26.06.12-.86c.25-1.54.43-2.71.49-3.51 4.06 2.71 10.4 5.72 18.65 5.72 13.17 0 23.51-8.31 23.51-18.89 0-12.68-11.14-16.06-24.06-20h-.06c-11.32-3.32-17.91-6.77-17.91-14.21 0-3.14 1.54-6.34 4.18-8.74 2.22-2.03 6.4-4.49 13.41-4.49 4.92 0 9.66 1.23 14.09 3.57 1.35.74 2.15 1.78 2.22 3.02l.49 7.94.06.74h3.63l.37-16.68h-3.45l-.18.55-.18.55c-2.4-1.42-8.31-4.25-16.98-4.25-10.58 0-21.85 6.15-21.85 17.6 0 10.46 7.75 14.77 21.05 18.58 11.45 3.32 20.98 6.77 20.98 15.69-.06 8.12-8.68 14.65-19.26 14.65Zm52.31-.25-6.95-.49c-1.42-.31-1.48-.68-1.48-1.54V63.99c0-2.58 1.17-4.98 3.26-6.58 5.91-4.55 12.68-6.71 21.23-6.71 14.4 0 17.11 4.55 17.23 17.48v42.71c0 .86 0 1.23-1.35 1.48l-7.02.55v3.32h21.11v-3.32l-6.95-.49c-1.42-.31-1.48-.68-1.48-1.54V67.2c0-7.38-1.29-12.12-4.25-15.32-3.32-3.57-8.8-5.29-17.29-5.29-12.8 0-20.61 4.62-24.49 7.88v-3.45c0-1.97-1.6-3.51-3.57-3.51l-7.88.37-.8.06v2.89l6.71.49c1.35.25 1.35.62 1.35 1.35l-.12 58.27c0 .86 0 1.23-1.35 1.48l-7.02.55v3.32h21.11v-3.45Zm361.59-.06-6.95-.49c-1.42-.31-1.48-.68-1.48-1.54V63.93c0-2.58 1.17-4.98 3.26-6.58 5.91-4.55 12.68-6.71 21.23-6.71 14.4 0 17.11 4.55 17.23 17.48v42.71c0 .86 0 1.23-1.35 1.48l-7.02.55v3.32h21.11v-3.32l-6.89-.55c-1.42-.31-1.48-.68-1.48-1.54V67.08c0-7.38-1.29-12.12-4.25-15.32-3.32-3.57-8.8-5.29-17.29-5.29-12.8 0-20.61 4.62-24.49 7.88V50.9c0-1.97-1.6-3.51-3.57-3.51l-7.88.37-.8.06v2.89l6.71.49c1.35.25 1.35.62 1.35 1.35l-.12 58.27c0 .86 0 1.23-1.35 1.48l-7.02.55v3.32h21.11l-.06-3.38Zm-275.8-42.64c.8-3.69 2.03-7.2 3.75-10.46.98-1.91 1.78-4 2.28-6.09.18-.98.37-1.97.37-2.83 0-8.86-7.2-16-16-16-6.65 0-12.37 4.06-14.77 9.85-.74-2.89-1.11-5.91-1.11-9.05C204 15.81 219.94 0 239.7 0s34.89 15.08 35.81 34.09c.37 8.12-2.46 15.57-6.83 22.28-5.72 8.8-12.18 17.05-12.18 28 0 15.94 10.4 29.41 24.8 34.03-3.82 1.11-7.82 1.66-12 1.6-21.78-.31-39.81-17.72-40.74-39.57-.18-3.51.12-6.95.8-10.28" />
        <circle cx="288.62" cy="51.87" r="3.51" />
        <path
            d="M302.4 93.17c-.31-6.15 3.26-11.57 8.49-13.97v-.12c-1.48-.31-3.02-.43-4.55-.43-13.11 0-23.75 10.65-23.75 23.75 0 5.11 1.66 9.85 4.37 13.78 7.38-3.38 13.54-8.92 17.78-15.81-1.35-2.03-2.22-4.49-2.34-7.2Zm4.98-56.24c.92-2.34 1.42-4.92 1.42-7.63 0-3.88-1.05-7.45-2.89-10.58-.68 4.92-2.65 9.35-5.54 13.11-.06.12-.12.25-.18.31-1.23-.68-2.58-1.29-4.06-1.97-1.11-.55-2.03-1.11-2.89-1.72-3.63-2.15-6.4-5.66-7.51-9.85-.68 2.28-1.05 4.68-1.05 7.2 0 8.31 4.06 15.63 10.28 20.12l.06.06c1.29.98 2.52 2.03 3.69 3.14 4.62 4.49 8.12 10.03 10.28 16.25 2.15-2.89 3.63-6.34 4.25-10.09.18-1.17.31-2.4.31-3.63-.12-6.4-1.91-10.89-6.15-14.71Z" />
    </g>
</svg>