<?xml version="1.0" encoding="UTF-8"?>
<svg viewBox="0 0 209 120" xmlns="http://www.w3.org/2000/svg">
	<g fill="currentColor" fill-rule="evenodd">
		<path d="m9.44 106.58h-5.44v-5.29h-3.38v13.97h3.38v-5.84h5.44v5.84h3.38v-13.97h-3.38z" />
		<path
			d="m23.89 106.54c-.43-.46-.95-.81-1.56-1.06-.61-.24-1.27-.37-1.99-.37s-1.45.13-2.09.38-1.2.6-1.68 1.06c-.47.45-.85 1.01-1.12 1.66-.28.65-.41 1.38-.41 2.18s.14 1.57.42 2.21.67 1.19 1.16 1.63 1.07.78 1.73 1.01 1.36.35 2.09.35c1 0 1.88-.18 2.63-.54.76-.36 1.37-.88 1.83-1.55l-2.25-1.42c-.22.3-.51.55-.87.74s-.79.29-1.3.29c-.29 0-.57-.05-.84-.14s-.51-.22-.73-.38-.39-.36-.53-.58-.22-.47-.25-.75h7.13c.01-.12.02-.24.02-.37v-.39c0-.84-.12-1.59-.36-2.25s-.58-1.22-1.02-1.68zm-5.76 2.68c.01-.25.08-.49.2-.72s.28-.43.47-.6c.2-.17.43-.31.69-.4.26-.1.55-.15.87-.15.64 0 1.13.18 1.45.55s.48.81.48 1.32z" />
		<path
			d="m30.8 102.85h-3.18v2.59h-1.56v2.41h1.58v4.16c0 .53.06 1.01.18 1.43.12.43.31.8.58 1.11s.63.55 1.08.71 1 .25 1.66.25c.34 0 .68-.03 1.03-.09.34-.06.62-.13.85-.21l-.04-2.37c-.12.05-.27.09-.44.12-.18.03-.35.04-.5.04-.46 0-.78-.12-.96-.35s-.27-.58-.27-1.04v-3.76h2.31v-2.41h-2.31v-2.59z" />
		<path
			d="m48.49 112.14c-.5.26-1.09.39-1.76.39-.58 0-1.11-.11-1.6-.32s-.9-.5-1.25-.88-.62-.83-.82-1.35c-.2-.53-.3-1.11-.3-1.74s.1-1.19.3-1.71.47-.97.83-1.35.78-.68 1.27-.9 1.04-.33 1.63-.33c.54 0 1.07.11 1.58.32s.93.53 1.24.97l2.29-2.29c-.59-.67-1.37-1.18-2.32-1.53s-1.92-.52-2.91-.52c-1.07 0-2.06.17-2.98.51s-1.72.83-2.41 1.47c-.68.64-1.22 1.41-1.61 2.32s-.58 1.92-.58 3.04.19 2.09.57 3 .91 1.69 1.58 2.34 1.46 1.15 2.38 1.51c.91.36 1.91.53 2.99.53 1.18 0 2.23-.21 3.14-.62s1.67-.98 2.29-1.69l-2.35-2.21c-.3.42-.7.76-1.2 1.03z" />
		<path
			d="m60.68 106.37c-.36-.43-.82-.74-1.39-.95-.57-.2-1.27-.31-2.1-.31s-1.59.14-2.36.41c-.77.28-1.44.69-2.02 1.24l1.64 1.76c.3-.28.67-.51 1.1-.71s.87-.3 1.33-.3c.5 0 .92.12 1.26.35s.51.59.51 1.08v.16c-.71 0-1.44.04-2.19.12s-1.43.24-2.04.47c-.61.24-1.11.57-1.5 1.01-.39.43-.58 1.01-.58 1.72 0 .58.11 1.07.34 1.46.22.39.51.71.86.95s.73.41 1.15.51c.42.11.83.16 1.22.16.59 0 1.14-.11 1.65-.34.51-.22.88-.54 1.14-.95h.06v1.05h2.96v-4.95c0-.89-.08-1.67-.25-2.32-.16-.65-.42-1.19-.78-1.62zm-1.93 4.94c0 .62-.17 1.11-.52 1.47s-.85.54-1.51.54c-.16 0-.32-.02-.49-.05s-.32-.09-.45-.17-.24-.18-.33-.32c-.09-.13-.13-.29-.13-.47 0-.29.09-.52.28-.7.18-.18.42-.31.7-.4s.6-.15.97-.19c.36-.03.72-.05 1.08-.05h.41v.34z" />
		<path
			d="m79.12 106.47c-.28-.39-.64-.7-1.1-.95-.45-.24-1.02-.37-1.69-.37-.74 0-1.36.15-1.87.45s-.93.71-1.26 1.22c-.28-.54-.66-.95-1.15-1.24s-1.1-.43-1.81-.43c-.37 0-.71.05-1.02.14s-.59.21-.84.37c-.25.15-.46.33-.64.52-.18.2-.33.4-.44.61h-.04v-1.36h-3.14v9.83h3.26v-5.33c0-.59.14-1.09.42-1.5s.68-.61 1.19-.61c.49 0 .84.16 1.07.49.22.33.34.78.34 1.34v5.61h3.24v-5.31c0-.28.03-.54.1-.8s.17-.48.31-.68.31-.36.51-.47c.2-.12.44-.18.72-.18s.52.06.7.17.32.26.42.44c.11.18.18.4.22.66s.06.52.06.8v5.37h3.24v-6.08c0-.46-.06-.93-.19-1.41s-.33-.91-.6-1.3z" />
		<path
			d="m92.04 106.7c-.4-.47-.89-.85-1.47-1.12-.58-.28-1.22-.41-1.93-.41s-1.35.15-1.88.44c-.53.3-.95.64-1.25 1.04h-.06v-1.2h-3.08v14.57h3.24v-5.82h.04c.3.42.72.75 1.26 1 .54.24 1.11.37 1.72.37.74 0 1.39-.15 1.97-.43.58-.29 1.07-.67 1.47-1.15s.71-1.04.92-1.67.32-1.29.32-1.97-.11-1.34-.33-1.96-.53-1.17-.93-1.65zm-2.03 4.55c-.1.31-.24.58-.43.82s-.43.43-.72.57-.63.22-1.01.22-.7-.07-.99-.22c-.29-.14-.54-.34-.74-.57-.2-.24-.36-.51-.47-.81s-.17-.61-.17-.93.06-.62.17-.93c.11-.3.27-.57.47-.81s.45-.43.74-.57.62-.22.99-.22.72.07 1.01.22.53.33.72.56.34.5.43.8c.1.3.15.61.15.93s-.05.63-.15.94z" />
		<path
			d="m103.06 106.37c-.36-.43-.82-.74-1.39-.95-.57-.2-1.27-.31-2.1-.31s-1.59.14-2.36.41c-.77.28-1.44.69-2.02 1.24l1.64 1.76c.3-.28.67-.51 1.1-.71s.87-.3 1.33-.3c.5 0 .92.12 1.26.35s.51.59.51 1.08v.16c-.71 0-1.44.04-2.19.12s-1.43.24-2.04.47-1.11.57-1.5 1.01c-.39.43-.58 1.01-.58 1.72 0 .58.11 1.07.34 1.46.22.39.51.71.86.95s.73.41 1.15.51c.42.11.83.16 1.22.16.59 0 1.14-.11 1.65-.34.51-.22.88-.54 1.13-.95h.06v1.05h2.96v-4.95c0-.89-.08-1.67-.25-2.32-.16-.65-.42-1.19-.78-1.62zm-1.93 4.94c0 .62-.17 1.11-.52 1.47s-.85.54-1.51.54c-.16 0-.32-.02-.49-.05s-.32-.09-.45-.17-.24-.18-.33-.32c-.09-.13-.13-.29-.13-.47 0-.29.09-.52.28-.7.18-.18.42-.31.7-.4s.61-.15.97-.19c.36-.03.72-.05 1.08-.05h.41v.34z" />
		<path
			d="m113.86 106.7h-.04c-.34-.53-.8-.91-1.36-1.16-.57-.25-1.16-.37-1.78-.37-.74 0-1.4.14-1.97.42-.58.28-1.07.66-1.47 1.13s-.71 1.02-.92 1.64-.32 1.27-.32 1.95.11 1.33.32 1.94.52 1.15.92 1.61.89.83 1.47 1.1 1.24.4 1.99.4c.66 0 1.24-.12 1.76-.36.51-.24.92-.55 1.22-.95h.06v.59c0 .83-.23 1.49-.68 1.99s-1.15.75-2.1.75c-.55 0-1.12-.1-1.69-.31-.57-.2-1.1-.52-1.57-.94l-1.62 2.31c.67.5 1.46.88 2.38 1.14.91.26 1.81.39 2.67.39s1.66-.12 2.38-.35 1.33-.58 1.83-1.05.89-1.06 1.16-1.77c.28-.71.41-1.55.41-2.51v-8.9h-3.06v1.26zm-.19 4.56c-.11.3-.27.57-.47.79s-.45.4-.75.54-.63.21-1 .21-.69-.07-.98-.21c-.28-.14-.52-.32-.72-.55s-.35-.5-.45-.8c-.11-.3-.16-.62-.16-.95s.05-.66.16-.97c.11-.3.26-.57.45-.79.2-.22.44-.4.72-.53s.61-.2.98-.2.7.07.99.2.54.31.75.54.37.5.48.8.17.62.17.95-.06.66-.17.97z" />
		<path
			d="m128.39 106.43c-.28-.37-.65-.68-1.12-.92-.46-.24-1.02-.36-1.68-.36-.34 0-.66.05-.97.14-.3.09-.58.21-.84.36s-.48.32-.67.52-.35.41-.46.62h-.04v-1.36h-3.14v9.83h3.26v-5.33c0-.28.04-.54.11-.8s.18-.48.33-.68c.14-.2.33-.35.54-.46.22-.11.47-.17.76-.17s.53.06.72.17.34.26.44.45c.11.19.18.41.23.66s.07.51.07.79v5.37h3.26v-6.08c0-.49-.06-.97-.19-1.46s-.33-.92-.61-1.29z" />
		<path
			d="m140.01 106.54c-.43-.46-.95-.81-1.56-1.06-.61-.24-1.27-.37-1.99-.37s-1.45.13-2.09.38-1.2.6-1.68 1.06c-.47.45-.85 1.01-1.13 1.66s-.41 1.38-.41 2.18.14 1.57.42 2.21.67 1.19 1.16 1.63 1.07.78 1.73 1.01 1.36.35 2.09.35c1 0 1.88-.18 2.63-.54.76-.36 1.36-.88 1.83-1.55l-2.25-1.42c-.22.3-.51.55-.87.74s-.79.29-1.3.29c-.29 0-.57-.05-.84-.14s-.51-.22-.73-.38-.39-.36-.53-.58-.22-.47-.25-.75h7.13c.01-.12.02-.24.02-.37v-.39c0-.84-.12-1.59-.37-2.25-.24-.66-.58-1.22-1.02-1.68zm-5.76 2.68c.01-.25.08-.49.2-.72s.28-.43.47-.6c.2-.17.43-.31.69-.4.26-.1.55-.15.87-.15.64 0 1.13.18 1.45.55s.48.81.48 1.32z" />
		<path
			d="m153.11 106.7c-.4-.47-.89-.85-1.46-1.12-.57-.28-1.21-.41-1.92-.41s-1.34.14-1.84.41c-.5.28-.89.58-1.16.91h-.04v-6.14h-3.24v14.92h2.98v-1.28h.04c.32.5.77.89 1.35 1.15.59.27 1.21.4 1.87.4.74 0 1.39-.15 1.97-.43.58-.29 1.07-.67 1.47-1.15s.71-1.04.92-1.67.32-1.29.32-1.97-.11-1.34-.33-1.96-.53-1.17-.93-1.65zm-2.01 4.55c-.1.31-.25.58-.44.82s-.44.43-.73.57-.63.22-1.01.22-.7-.07-.99-.22c-.29-.14-.54-.34-.74-.57-.2-.24-.36-.51-.47-.81s-.17-.61-.17-.93.06-.62.17-.93c.11-.3.27-.57.47-.81s.45-.43.74-.57.62-.22.99-.22.72.07 1.01.22.53.33.73.56.35.5.44.8c.1.3.15.61.15.93s-.05.63-.15.94z" />
		<path
			d="m162.77 110.74c0 .57-.15 1.06-.44 1.48-.3.42-.73.63-1.29.63-.3 0-.55-.06-.73-.17s-.33-.27-.44-.46c-.11-.2-.19-.42-.23-.67s-.06-.51-.06-.79v-5.33h-3.26v6.08c0 .5.06.99.19 1.47.12.48.33.91.61 1.28.28.38.65.68 1.11.92s1.01.36 1.67.36c.34 0 .67-.05.98-.14s.59-.21.85-.36c.26-.14.48-.32.67-.51.19-.2.35-.41.46-.63h.04v1.36h3.12v-9.83h-3.24v5.31z" />
		<path
			d="m174.35 105.16c-.61 0-1.14.16-1.6.48s-.82.73-1.07 1.23h-.04v-1.42h-3.12v9.82h3.24v-5.04c0-.2.04-.43.12-.69s.21-.51.38-.73c.18-.22.41-.41.71-.57s.66-.24 1.1-.24c.13 0 .27 0 .4.02.14.01.28.04.42.08l.14-2.86c-.08-.03-.18-.05-.31-.06s-.25-.02-.38-.02z" />
		<path
			d="m184.36 106.54c-.43-.46-.95-.81-1.56-1.06-.61-.24-1.27-.37-1.99-.37s-1.45.13-2.09.38-1.2.6-1.68 1.06c-.47.45-.85 1.01-1.13 1.66s-.41 1.38-.41 2.18.14 1.57.42 2.21.67 1.19 1.16 1.63 1.07.78 1.73 1.01 1.36.35 2.09.35c1 0 1.88-.18 2.63-.54.76-.36 1.36-.88 1.83-1.55l-2.25-1.42c-.22.3-.51.55-.87.74s-.79.29-1.3.29c-.29 0-.57-.05-.84-.14s-.51-.22-.73-.38-.39-.36-.53-.58-.22-.47-.25-.75h7.13c.01-.12.02-.24.02-.37v-.39c0-.84-.12-1.59-.37-2.25-.24-.66-.58-1.22-1.02-1.68zm-5.76 2.68c.01-.25.08-.49.2-.72s.28-.43.47-.6c.2-.17.43-.31.69-.4.26-.1.55-.15.87-.15.64 0 1.13.18 1.45.55s.48.81.48 1.32z" />
		<path
			d="m195.37 106.37c-.36-.43-.82-.74-1.39-.95-.57-.2-1.27-.31-2.1-.31s-1.59.14-2.36.41c-.77.28-1.44.69-2.02 1.24l1.64 1.76c.3-.28.67-.51 1.1-.71s.87-.3 1.33-.3c.5 0 .92.12 1.26.35s.51.59.51 1.08v.16c-.71 0-1.44.04-2.19.12s-1.43.24-2.04.47-1.11.57-1.5 1.01c-.39.43-.58 1.01-.58 1.72 0 .58.11 1.07.34 1.46.22.39.51.71.86.95s.73.41 1.15.51c.42.11.83.16 1.22.16.59 0 1.14-.11 1.65-.34.51-.22.88-.54 1.13-.95h.06v1.05h2.96v-4.95c0-.89-.08-1.67-.25-2.32-.16-.65-.42-1.19-.78-1.62zm-1.93 4.94c0 .62-.17 1.11-.52 1.47s-.85.54-1.51.54c-.16 0-.32-.02-.49-.05s-.32-.09-.45-.17-.24-.18-.33-.32c-.09-.13-.13-.29-.13-.47 0-.29.09-.52.28-.7.18-.18.42-.31.7-.4s.61-.15.97-.19c.36-.03.72-.05 1.08-.05h.41v.34z" />
		<path
			d="m205.16 110.74c0 .57-.15 1.06-.44 1.48-.3.42-.73.63-1.29.63-.3 0-.55-.06-.73-.17s-.33-.27-.44-.46c-.11-.2-.19-.42-.23-.67s-.06-.51-.06-.79v-5.33h-3.26v6.08c0 .5.06.99.19 1.47.12.48.33.91.61 1.28.28.38.65.68 1.11.92s1.01.36 1.67.36c.34 0 .67-.05.98-.14s.59-.21.85-.36c.26-.14.48-.32.67-.51.19-.2.35-.41.46-.63h.04v1.36h3.12v-9.83h-3.24v5.31z" />
		<path d="m115.07 7.32c0 7.29-4.51 16.41-4.51 16.41l21.78-23.73h-22.93s5.66 1.27 5.66 7.31z" />
		<path
			d="m126.97 81.3h14.3c-6.91-3.45-15.64-14.68-19-20.63-2.13-3.76-17.37-30.13-17.37-30.13l-10.08 10.08 19 32.34s4.51 8.35 13.15 8.35z" />
		<path d="m73.04 0h13.35v81.29h-13.35z" />
		<path d="m153.21 0h13.35v81.29h-13.35z" />
		<path
			d="m188.26 15.67c1.34 11.13-6.52 18.71-6.52 18.71s21.31-6.28 18.14-21.59c-2.79-13.44-23.14-12.79-23.14-12.79s10.21 4.84 11.51 15.66z" />
		<path
			d="m194.21 58.56c0 15.93-15.74 22.74-15.74 22.74 15.06 0 28.92-9.96 29.94-21.97 1.92-22.65-26.7-23.15-26.7-23.15s12.5 6.65 12.5 22.38z" />
		<path d="m.5 0h13.35v81.29h-13.35z" />
		<path
			d="m35.54 15.67c1.34 11.13-6.52 18.71-6.52 18.71s21.31-6.28 18.14-21.59c-2.79-13.44-23.13-12.79-23.13-12.79s10.21 4.84 11.51 15.66z" />
		<path
			d="m41.49 58.56c0 15.93-15.74 22.74-15.74 22.74 15.06 0 28.92-9.96 29.94-21.97 1.92-22.65-26.7-23.15-26.7-23.15s12.5 6.65 12.5 22.38z" />
		<path d="m.5 91.09h208v3.45h-208z" />
	</g>
</svg>