<?xml version="1.0" encoding="UTF-8"?>
<svg viewBox="0 0 459 120" xmlns="http://www.w3.org/2000/svg">
	<g fill="currentColor" fill-rule="evenodd">
		<path
			d="m56.8 75.56c-.62.57-1.22 1.15-1.84 1.71-1.47 1.34-2.97 2.65-4.48 3.96-.52.45-1.04.89-1.56 1.33-.04 0-.09.01-.13.02-.04-.07-.08-.14-.13-.22 2.76-2.46 8.31-7.54 8.38-7.48s-.13.49-.25.67zm-42.59 33.64c.14-.11.28-.22.41-.33.03.05.06.11.09.17-.17.05-.34.11-.51.16zm-.34.45c-.4.59-.96 1.01-1.75 1.3 0-.25 0-.41 0-.56.66-.37 1.32-.74 1.98-1.1-.07.13-.15.25-.23.37zm43.02-90.51c-1.05.43-2.07.94-3.15 1.27-.58.18-1.09.42-1.57.76-.1 0-.25.08-.3 0-.05-.07.87-1.06 1.31-1.59.26-.44.51-.88.77-1.32.2-.34.45-.67.74-.93 1.98-1.85 1.75-3.87-.07-5.58-.23-.22-.73-.56-.71-.64.01-.07.3 0 .46 0 2.51-.06 5.03.09 7.54.25 2.48.16 4.91.63 7.5 1.24-.27.34-.35.51-.48.58-1.67.91-3.28 1.94-5.04 2.7-1.6.69-3.11 1.57-4.68 2.33-.75.36-1.55.63-2.32.94zm-27.66 22.94c-.09-.44.22-.59.53-.74.02.4-.27.56-.53.74zm-1.18 2.68c-.19.41-.42.79-.75 1.4-.04-.34-.1-.47-.06-.54.56-1.1 1.12-2.19 1.7-3.27.04-.08.15-.13.24-.19-.38.87-.75 1.75-1.14 2.61zm65 11.81c.09-.27.09-.56.11-.84.04-.6.12-1.2.07-1.8-.07-.85-.2-1.7-.37-2.53-.12-.55-.37-1.06-.56-1.59-.08-.23-.13-.5-.27-.7-.82-1.19-1.64-2.39-2.51-3.54-.44-.58-1.01-1.05-1.47-1.61-1.36-1.67-3.15-2.82-4.86-4.04-.91-.65-1.89-1.26-2.74-1.98-2.09-1.79-4.42-3.12-6.99-4.06-.61-.23-1.27-.35-1.86-.62-1-.46-2.04-.8-3.11-1.04-2.27-.51-4.53-1.02-6.94-1.56.34-.2.55-.39.8-.48.74-.27 1.51-.45 2.23-.76.89-.38 1.78-.8 2.61-1.3 1.13-.67 2.21-1.43 3.32-2.13.21-.13.47-.18.7-.26.39-.13.77-.26 1.16-.39.44-.15.89-.29 1.33-.45.15-.05.29-.11.42-.2.64-.41 1.24-.87 1.9-1.22 1.16-.62 2.26-1.41 3.67-1.43.2 0 .41-.15.59-.28 1.27-.93 2.39-2.03 3.55-3.1 1.06-.99 1.48-3.42.83-4.79-.43-.91-.93-1.77-1.48-2.62-1.05-1.65-2.65-2.67-4.04-3.95-.05-.04-.11-.06-.16-.1-1.35-.86-2.83-1.53-4-2.66-.16-.15-.35-.27-.54-.38-1.42-.76-2.9-1.36-4.46-1.77-2.89-.74-5.86-1.01-8.82-1.06-3.24-.05-6.49.19-9.73.32-.48.02-.97.07-1.38.32-.43.02-.85.04-1.28.06-.6.02-1.24.08-1.67.55-.4.44-.9.51-1.43.62-1.04.22-2.12.27-3.12.65-.02 0-.04 0-.06.01-.5.04-1 .13-1.49.09-1.32-.11-2.62-.12-3.91.24-.1.03-.2.06-.3.09-.79 0-1.58.08-2.36.3-1.25.35-2.5.67-3.73 1.06-2.25.7-4.51 1.39-6.74 2.18-1.87.66-3.7 1.43-5.54 2.18-1.19.49-2.38.99-3.55 1.53-1.51.7-2.99 1.46-4.49 2.19-.74.36-1.5.67-2.23 1.03-.64.31-.9.74-.81 1.25.07.46.54.87.84.65.68-.48 1.04-.11 1.29.31 1.01-.06 1.92-.11 2.83-.17.81-.05 1.49.23 2.01.86.37.45.86.65 1.42.63 1.23-.05 2.45-.12 3.68-.21.53-.04 1.12 0 1.58-.21.13-.06.26-.09.39-.13.23-.02.46-.02.69-.04.53-.04 1.12 0 1.58-.21 1.35-.6 2.91-.59 4.17-1.43.18-.12.41-.16.62-.21.73-.18 1.46-.35 2.2-.52.83-.2 1.66-.39 2.48-.59.61-.15 1.22-.29 1.82-.48.87-.29 1.72-.68 2.62-.85.07-.01.14-.03.21-.04.3-.04.6-.06.91-.04.2.02.4-.07.61-.13.24-.02.46-.04.71-.06.69-.16 1.42-.26 2.23-.26h.07c.1-.05.21-.09.31-.13h.05c0 .02-.01.03-.02.05-.1.15-.2.3-.28.46-.69 1.42-1.35 2.85-2.02 4.28-.25.54-.51 1.08-.76 1.62-.52 1.11-.93 2.29-1.59 3.31-.89 1.36-1.51 2.83-2.18 4.29-.29.63-.62 1.16-1.38 1.28-.21.03-.41.16-.62.23-1.25.42-2.5.83-3.75 1.23-.14.05-.32.03-.47 0-.6-.13-.87.19-1.01.73.13.18.37.36.38.54.02.93.49 1.67.88 2.46.19.37.08.72-.34.96-.36.19-.68.46-1.01.7-.7.51-.8 1.05-.2 1.65.4.39.7.82 1 1.29.28.44.35.79.11 1.22-.35.63-.74 1.25-1.07 1.9-1.14 2.21-2.27 4.42-3.41 6.63-.07.14-.2.26-.23.41-.28 1.36-1.36 2.29-1.88 3.54-.41 1.01-1.14 1.89-1.68 2.85-.55.99-1.02 2.03-1.53 3.04-.33.65-.66 1.29-.99 1.93-.36.69-.7 1.4-1.09 2.08-.47.81-1.02 1.57-1.47 2.39-.49.9-.88 1.86-1.35 2.78-.99 1.92-2.16 3.74-2.87 5.82-.42 1.24-.81 2.44-.78 3.76.02.7.18 1.31.67 1.82.19.2.43.42.51.67.19.58.61.92 1.11 1.09.76.26 1.22.68 1.34 1.49.07.46.41.74.86.76.7.03 1.4.02 2.1 0 .15.14.35.23.58.24.78.04 1.57.03 2.35 0 .19 0 .42-.17.54-.34.43-.62.84-1.24 1.21-1.9.62-1.1 1.2-2.23 1.78-3.35.83-1.59 1.66-3.19 2.48-4.79.38-.73.74-1.47 1.12-2.2.09-.17.22-.31.34-.45.28-.34.58-.65.83-1.01.31-.44.53-.95.88-1.35.56-.63.89-1.37 1.19-2.14.23-.58.42-1.24.83-1.65.51-.5.88-1.05 1.22-1.66.4-.71.74-1.51 1.32-2.05.65-.61.9-1.28 1-2.1.02-.17.19-.33.29-.49.36-.59.77-1.16 1.09-1.77.95-1.81 1.86-3.65 2.81-5.47.58-1.12 1.22-2.21 1.8-3.33.63-1.23 1.2-2.5 1.83-3.73 0-.01.01-.02.02-.03.14.02.28.03.42 0 1.44-.19 2.88-.39 4.32-.19.63.09 1.14-.27 1.73-.28.81-.02 1.63-.05 2.44-.08.03-.12.06-.24.1-.36.44 0 .87.06 1.3.22.25.09.57.1.84.05 1.47-.24 2.93-.11 4.4.05 1.85.2 3.71.32 5.56.49.72.06 1.44.13 2.15.24 1.09.16 2.17.37 3.27.52 1.18.16 2.38.21 3.55.41 1.11.19 2.2.51 3.3.77.12.03.23.09.35.13.53.19 1.06.38 1.6.56.26.09.52.17.86.28-.06.48-.05.94-.18 1.34-.29.9-.58 1.82-1.01 2.66-1.26 2.5-2.9 4.74-4.7 6.87-1.49 1.76-3.05 3.46-4.6 5.17-1.15 1.26-2.29 2.53-3.49 3.74-2.55 2.59-5.12 5.17-7.72 7.7-1.72 1.68-3.5 3.29-5.27 4.91-1.47 1.34-2.97 2.65-4.48 3.96-1.48 1.28-2.97 2.56-4.47 3.81-.77.65-1.58 1.26-2.37 1.89-1.72 1.39-3.44 2.78-5.17 4.16-1.01.81-2.05 1.58-3.08 2.37-.11.09-.26.28-.23.36.21.5-.25.51-.47.65-.26.16-.6.2-.85.37-.8.55-1.58 1.13-2.36 1.71-1.22.9-2.41 1.85-3.66 2.71-1.25.85-2.32 1.91-3.58 2.76-1.2.8-2.44 1.62-3.41 2.74-.11.13-.32.16-.48.26-.54.33-1.19.54-1.58 1.24.28.04.47.13.62.08.41-.15.88-.28 1.18-.57.76-.73 1.88-1.05 2.4-2.06.04-.07.15-.11.23-.15 1.15-.47 2.05-1.33 3.04-2.02.89-.62 1.69-1.36 2.67-1.87.52-.27.96-.71 1.42-1.08.74-.59 1.47-1.19 2.2-1.79.21-.18.4-.38.6-.57.11-.1.2-.25.33-.29 1.25-.37 1.86-1.69 3.08-2.1.3-.62.93-.81 1.45-1.16.67-.46 1.38-.91 1.93-1.5.6-.65 1.31-1.15 1.98-1.69 1.31-1.07 2.72-2.01 4.04-3.08 1.28-1.03 2.48-2.15 3.72-3.21.34-.29.7-.6 1.37-.55-.79.67-1.57 1.35-2.36 2.01-.77.65-1.58 1.26-2.37 1.89-1.72 1.38-3.44 2.78-5.17 4.16-1.01.8-2.05 1.58-3.08 2.37-.11.08-.26.28-.23.36.04.1.04.16.03.22-.24.15-.44.34-.67.49-.23.1-.48.16-.68.3-.8.55-1.58 1.13-2.36 1.71-1.22.9-2.41 1.85-3.66 2.71-1.25.85-2.32 1.91-3.58 2.76-1.15.77-2.32 1.56-3.27 2.6-.13.1-.27.2-.4.3-.08.03-.16.06-.22.1-.52.32-1.13.53-1.52 1.17-.56.4-1.11.8-1.68 1.18-.08.05-.14.13-.21.19-.66.47-1.24 1.19-2.22.74-.12-.05-.37.17-.56.27-.44.23-.88.47-1.33.69-.38.18-.99.32-1.16.49s.26.45.4.63c-.3.04-.6.06-.88.15-.29.09-.35.52-.13.7.24-.02.48-.03.72-.04-.35.17-.6.49-.85.8-.36.2-1.08.73-1.06.75s.47-.17.49-.13-.56.33-.98.27c-.71 1.13-1.51 1.64-2.75 1.89-.45.09-.91.26-1.29.51-1.57 1.06-3.1 2.17-4.65 3.26-.08.05-.11.17-.16.26.04.04.07.07.11.11 1.21-.74 2.42-1.49 3.63-2.23l.11.15c-.46.38-.91.76-1.38 1.13-.45.35-.9.71-1.38 1-1 .61-1.01.6-1.21 1.05.38-.08.86-.34 1.19-.21.63.25 1.07.07 1.51-.23-.01.02-.02.04-.03.06.38-.08.86-.34 1.19-.21.76.3 1.24-.02 1.79-.43.04-.03.08-.05.12-.08-.1.17-.23.38-.41.67.19.32.43.27.72.14.75-.36 1.5-.7 2.26-1.04-.09.15-.19.31-.32.52.19.32.43.28.72.14.52-.25 1.05-.48 1.57-.72.39-.09.75-.26 1.09-.46.09-.01.19-.01.26.02.96.35 1.83-.05 2.57-.49 1.21-.73 2.38-1.54 3.67-2.14.47-.22.9-.39 1.44-.34.26.02.56-.09.79-.23.47-.31.88-.72 1.36-1.03 1.21-.78 2.44-1.53 3.66-2.3.61-.38 1.18-.9 1.84-1.12.92-.3 1.7-.8 2.49-1.32.63-.42 1.26-.87 1.94-1.17 1.21-.53 2.38-1.12 3.47-1.88.31-.22.71-.34.94-.61.53-.63 1.3-.85 1.96-1.26 1.26-.77 2.59-1.42 3.84-2.2.95-.6 1.78-1.28 2.92-1.64 1.18-.38 2.28-1.19 3.27-2 2.34-1.92 4.76-3.7 7.3-5.33.13-.08.32-.19.43-.15.5.17.75-.16 1.06-.44.56-.51 1.1-1.05 1.98-.89.19.04.47-.17.65-.32.6-.5 1.19-1.03 1.77-1.55 1.29-1.15 2.57-2.32 3.87-3.46.9-.79 1.85-1.51 2.73-2.32 1.08-.99 2.1-2.04 3.15-3.06.2-.19.44-.41.7-.46.48-.09.78-.39 1.09-.71 1.28-1.32 2.55-2.64 3.85-3.94 1.27-1.26 2.69-2.07 4.55-2.71.17-.06.33-.19.46-.32.62-.68 1.23-1.36 1.83-2.06 1.76-2.02 3.27-4.26 5.21-6.13.07-.06.16-.14.17-.22.13-.76.69-1.21 1.15-1.76.91-1.09 1.62-2.32 2.05-3.7.24-.79.57-1.55.83-2.33zm145.5-24.81c.2.13.4.28.6.43.22.16.45.39.66.48.66.27 1.24.71 1.75 1.4.1.14.24.3.38.39 1.16.75 2.24 1.22 3 .55.31-.28.7-.48 1.12-.6 1.17-.34 2.01-1.15 3.22-1.43.06-.01.1-.05.14-.09 1.25-.95 2.51-1.9 3.75-2.87.18-.14.27-.4.41-.6.23-.37.37-.86.71-1.08.65-.42 1.21-.93 1.77-1.46.4-.38.87-.67 1.31-.99.33-.23.69-.42 1-.68.25-.21.45-.48.67-.73.51-.59 1.3-.9 1.25-2.04 0-.15.09-.28.19-.34.33-.19.27-.65.29-1.11-.28 0-.5.01-.88.02.1-.3.14-.48.22-.62.08-.17.19-.31.3-.49-.41-.43-.59-.78-.68-1.24-.12-.58.45-.42.43-.88-.12-.12-.26-.26-.4-.4.02-.09.01-.17.05-.21.39-.38.81-.75 1.19-1.14.24-.24.55-.44.28-1.21-.69.38-1.39.63-1.94 1.08-.6.49-1.32.8-2.04 1.12-.52.23-.96.61-1.38.99-.19.17-.23.5-.69.19-.08-.05-.24 0-.26.07-.09.48-.54.47-.87.6-.65.24-1.09.77-1.74 1.03-1.08.44-2.07 1.04-3.06 1.62-1.7.99-3.38 2-5.05 3.03-1.75 1.07-3.43 2.23-4.92 3.63-.48.45-.92.94-1.37 1.43-.07.07-.06.24-.07.37-.02.15 0 .33-.02.47-.11.5.14.96.7 1.32zm-90.07 18.92c-.12 1.41-.49 2.75-.93 4.06-.73 2.19-1.59 4.32-2.58 6.42-1.1 2.32-2.38 4.53-3.79 6.67-.7 1.06-1.51 2.07-2.32 3.05-.99 1.2-2.03 2.35-3.07 3.51-.24.27-.53.49-.79.73l-.17-.11c.11-.38.19-.78.34-1.14.68-1.64 1.41-3.26 2.07-4.91.3-.74.49-1.53.73-2.3.11-.35.19-.72.34-1.05.55-1.22 1.08-2.45 1.69-3.64.35-.68.85-1.29 1.27-1.94.18-.28.35-.58.49-.88.08-.16.03-.46.14-.52.89-.55.8-1.61 1.28-2.37.49-.76.88-1.58 1.37-2.34.75-1.18 1.55-2.33 2.32-3.49.22-.34.42-.69.65-1.03.25-.38.51-.75.86-1.26.2.97.16 1.73.09 2.53zm-32.08-.23c-.45 2.97-1.6 5.68-2.61 8.45-.94 2.61-2.27 5-3.59 7.39-.68 1.22-1.41 2.43-2.25 3.54-.9 1.2-1.84 2.37-3.04 3.27-.7.52-1.34 1.13-2.15 1.46-.12.05-.23.08-.56.2.03-.53 0-.92.1-1.26.23-.86.47-1.73.79-2.56.42-1.06.92-2.08 1.39-3.12.08-.17.19-.33.23-.52.2-.82.32-1.67.6-2.45.24-.65.67-1.22 1-1.84.48-.9.96-1.81 1.43-2.72.02-.05.03-.11.06-.15.68-.75.93-1.76 1.4-2.64.15-.29.36-.54.51-.82.37-.65.75-1.3 1.08-1.97.54-1.12 1.35-2 2.08-2.96.42-.55.85-1.09 1.26-1.66.62-.86 1.46-1.33 2.47-1.76.09.79-.1 1.45-.2 2.11zm72.47.32c.46-.62 1.12-1.18 1.31-1.87.23-.82.66-1.36 1.25-1.87.21-.18.42-.34.62-.53.4-.38.8-.76 1.18-1.17.63-.68.71-1.66 1.46-2.33 1.16-1.03 2.08-2.32 3.21-3.38 1.82-1.71 3.67-3.38 5.74-4.79.74-.5 1.34-1.21 2.05-1.75.42-.32.53-.85.86-1.18.46-.45 1-.83 1.56-1.15 1.83-1.06 3.65-2.14 5.53-3.11 1.4-.72 2.77-1.54 4.36-1.82.23-.04.5-.17.63-.35.29-.4.7-.48 1.11-.62.43-.15.86-.33 1.27-.55.4-.21.77-.48 1.17-.73.15-.33.37-1.02.46-1.06s.93.16 1.06.16c.44 0 .13-1.06-.26-1.45-.29-.29-.65-.5-.91-.8-.47-.54-1.04-.62-1.69-.54-.31.04-.62.09-.93.06-3.01-.27-5.96.06-8.87.89-2.92.83-5.7 1.99-8.39 3.37-2.6 1.34-5.15 2.79-7.52 4.52-1.18.86-2.42 1.66-3.55 2.59-1.63 1.35-3.22 2.75-4.75 4.21-1.49 1.42-2.89 2.93-4.33 4.4-.56.57-1.14 1.13-1.64 1.63-1.58-.81-2.96-1.52-4.34-2.21-.22-.11-.48-.13-.72-.2-.73-.2-1.54-.27-2.18-.63-.78-.45-1.49-.36-2.24-.15-.72.2-1.39.52-2.11.73-.61.18-.99.55-1.08 1.15-.06.4-.28.62-.59.78-.62.34-1.23.73-1.89.98-1.07.4-2.18.71-3.27 1.04-1.56.47-3.16.61-4.78.58-.78-.01-1.51-.12-2.27-.31-1.36-.34-2.77-.51-3.66-1.8-.05-.07-.14-.12-.21-.18-.59-.49-1.18-1-1.78-1.48-.21-.16-.49-.37-.71-.34-.67.1-1.21-.17-1.79-.41-.57-.23-1.16-.43-1.74-.64-.53-.19-1.08-.33-1.57-.58-.33-.17-.57-.34-1-.31-.48.03-.74.2-.99.55-.09.12-.23.2-.36.29-1.36.91-2.84 1.59-4.2 2.53-1.66 1.15-3.57 1.89-5.6 2.23-.68.12-1.37.3-2.06.32-1.48.04-3.52-.83-3.93-1-.91-.39-1.83-.2-2.61-.9-.24-.21-.52-.36-.79-.55-.87.52-1.53 0-2.2-.51-.37-.28-.79-.68-1.2-.69-1.26-.04-3.73.04-3.79.12s-.03.34 0 .43c.24.83.18.9-.61.82-.82-.09-1.59-.28-2.29-.78-.36-.26-.78-.41-1.19-.59-.13-.06-.33-.09-.44-.03-.97.49-2.01.83-2.72 1.79-1.31 1.79-2.75 3.47-3.98 5.32-1.5 2.24-2.88 4.58-4.25 6.92-1.1 1.9-2.09 3.87-3.14 5.8-.38.71-.42 1.58-.93 2.24-.31.4-.45.94-.74 1.36-.64.94-.45 2.27-1.27 3.13-.05.06-.07.2-.05.28.19.69-.21 1.2-.45 1.76-.15.36-.33.7-.47 1.07-.54 1.36-.62 2.8-.62 4.26 0 1.68.14 3.31 1.21 4.69.18.23.31.5.44.77.4.8.89 1.5 1.63 2.01.25.17.47.44.63.71.7 1.17 1.6 2.15 2.59 3.02.56.5 1.27.84 1.94 1.17.45.22.97.26 1.43.45 1.61.63 3.26.68 4.87.21 2.1-.61 4.03-1.65 5.8-3 1.39-1.06 2.69-2.23 3.84-3.55.9-1.04 1.68-2.19 2.45-3.34.62-.94 1.19-1.92 1.72-2.92.77-1.46 1.52-2.94 2.21-4.45.69-1.53 1.35-3.08 1.76-4.75.42-1.72 1.08-3.37 1.64-5.05.14-.43.16-.8-.06-1.23-.15-.29-.23-.73-.14-1.03.38-1.25.68-2.5.73-3.82 0-.1.06-.19.07-.28.16-1.19.39-2.38.46-3.58.04-.74 1.33-1.28 2.77-.94v.03c.16 0 .35.05.61.14 1.2.42 2.38.87 3.63 1.32-.37.75-.74 1.53-1.13 2.31-1.7 3.4-3.56 6.72-4.58 10.42-.32 1.17-.92 2.25-1.01 3.49-.02.26-.15.58-.33.76-.04.04-.07.1-.11.14-.21.62-.43 1.23-.66 1.84-.21.91-.4 1.82-.55 2.74-.32 1.89-.4 3.77-.03 5.69.25 1.3.86 2.32 1.71 3.26.77.86 1.57 1.69 2.28 2.6.42.53.87.95 1.45 1.28.8.45 1.71.7 2.41 1.35.36.33.85.34 1.33.26.39-.06.8-.15 1.19-.11 2.19.23 4.04-.72 5.75-1.85 1.18-.78 2.16-1.88 3.18-2.89 2.07-2.05 3.86-4.32 5.53-6.71 1.23-1.75 2.1-3.69 3.08-5.56.06-.11.14-.25.12-.35-.21-1.05.51-1.84.77-2.76.39-1.36 1.03-2.64 1.5-3.98.36-1.03.62-2.09.94-3.14.18-.6.45-1.17.57-1.78.24-1.25.41-2.52.6-3.79.05-.31-.02-.66.11-.92.34-.66.3-1.31.21-2.01-.08-.67.21-1 .87-1.02.24 0 .5.04.73.12 2.45.77 4.95.84 7.48.52.51-.07 1.02-.13 1.6-.21-.22.9-.47 1.76-.65 2.64-.18.92-.48 1.79-.83 2.66-1.07 2.63-2.1 5.28-3.09 7.94-.85 2.28-1.77 4.55-2.41 6.89-.5 1.83-1.13 3.56-1.9 5.28-.3.69-.3 1.52-.4 2.28-.02.14.12.35.25.45.63.53 1.09 1.24 1.84 1.65.21.11.31.45.44.7.34.65 1.03 1.05 1.26 1.77.02.05.11.06.15.11.32.33.64.67.96 1 .17.17.31.37.51.5.71.49 1.43.97 2.17 1.43.26.16.55.31.85.38.59.14 1.49-.26 1.57-.73.13-.8.23-1.61.2-2.41-.02-.4.02-.73.18-1.07.14-.28.28-.56.41-.84.8-1.75 1.5-3.56 2.42-5.24.41-.76.71-1.56 1.16-2.31.74-1.22 1.23-2.58 1.93-3.82.59-1.04 1.01-2.2 1.9-3.05.13-.12.16-.34.26-.5.37-.61.63-1.37 1.16-1.78.78-.61 1.19-1.45 1.62-2.23.54-.97 1.55-1.64 1.71-2.83.95-.95 1.4-2.24 2.29-3.25 1.23-1.4 2.26-2.97 3.38-4.47.09-.12.2-.24.29-.37zm98.09 19.19c-.75-.74 2.18-8.19 2.81-8.88.69-.77 3.33-4.91 4.11-5.85 1.3-1.58 2.97-3.76 4.34-5.28 1.46-1.62 3.57-1.41 5.07-2.99.18-.19.43-.33.74-.4-4.3 6.36-16.31 24.14-17.06 23.4zm-28.17-24.41c-.35.69-4 9.25-4.81 10.92 0-.02.02-.04 0-.05.12-.3.24-.61.37-.91.07-.17.14-.33.17-.51.31-1.51 1.05-2.91 1.64-4.31.99-2.29 2.09-4.54 3.03-6.85.03-.09.1-.16.15-.25.19-.33.96-1.58 1.94-3.18-1.12 2.3-2.23 4.6-2.5 5.14zm199-3.47c-.02-.06-.6.07-.72 0 .44-.42 1.55-1.55 1.51-1.59-.04-.05-.99.38-1.44.78-.61.55-1.23 1.09-2.01 1.3-.03.04-.05.09-.09.12-1 .73-2.01 1.47-3.02 2.19-.13.09-.31.09-.46.14-.18.06-.37.11-.53.22-1.06.69-2.11 1.38-3.16 2.08-.77.51-1.53 1.03-2.29 1.57-1.3.93-2.6 1.88-3.9 2.83-.63.47-1.25.96-1.89 1.43-.79.58-1.58 1.16-2.37 1.73.07-.12.13-.25.15-.43-.84.62-1.03.79-1.18 1.18-.14.11-.29.21-.44.32-1 .75-1.97 1.54-2.95 2.31-.38.3-.77.58-1.15.88-2.12 1.67-4.22 3.38-6.36 5-1.58 1.2-3.2 2.33-4.83 3.43-1.14.78-2.34 1.46-3.5 2.2-.36.23-.7.52-1.05.79-.19.07-.39.14-.58.21v-.02c-.03.02-.06.03-.09.05-.02 0-.04.01-.06.02 0 0-.01.02-.02.03-1.36.93-2.91 1.27-3.66 1.24.16-.48.34-2.15.82-2.32.14-.05.27-.32.33-.52.26-.83.48-1.67.73-2.54.55 0 .84-.4 1-1.05s.39-1.27.58-1.91c.13-.45.34-.75.72-.77.42-.03.63-.33.79-.82.52-1.58 1.08-3.14 1.62-4.71.05-.13.09-.29.17-.36.55-.46.73-1.24 1-1.94.31-.8.65-1.59 1.01-2.35.18-.37.52-.63.67-1.01 1.07-2.68 2.14-5.37 3.15-8.09.73-1.97 1.41-3.96 2.47-5.68.14-.22.28-.48.33-.75.25-1.62 1.05-2.89 1.68-4.25 1.13-2.46 2.36-4.84 3.13-7.53.41-1.45 1.01-2.87.72-4.54-.09-.5.07-1.06.08-1.59.03-1.17.19-2.36-.37-3.43-.11-.21-.09-.54-.13-.81-.1-.85-.12-1.73-.32-2.54-.3-1.21-.81-2.34-.79-3.68 0-.16-.09-.33-.17-.47-.87-1.54-1.77-3.02-3.12-3.96-.6-.41-1.1-1.06-1.67-1.55-.75-.65-1.52-1.25-2.4-1.97 0-.03 0-.17-.03-.3-.12-.54-.33-.7-.73-.59-.7.2-1.37 1.38-1.33 2.29.02.35.05.75-.05 1.07-.35 1.21-.7 2.42-1.14 3.58-.47 1.24-1.08 2.41-1.57 3.64-.73 1.82-1.42 3.66-2.11 5.5-.2.53-.54 1.01-.41 1.7.02.12-.12.3-.19.45-.27.59-.55 1.17-.81 1.76-.3.68-.24.86.34 1.17.07.04.14.09.21.14-.25.66-.44 1.27-.7 1.82-.25.54-.29 1.29-.91 1.68.15-.74.27-1.35.42-2.07.59-.4.63-.55.28-1.16-.68.84-1.23 1.8-1.66 2.9-.56 1.44-1.18 2.85-1.77 4.28-.68 1.65-1.32 3.32-2.01 4.96-.94 2.24-1.86 4.49-2.86 6.68-.55 1.2-.74 2.65-1.56 3.64-.02.02-.02.07-.03.1-1 2.24-2 4.49-3 6.73-.06.13-.11.27-.17.4-.78 1.23-1.55 2.47-2.35 3.69-1.17 1.81-2.37 3.6-3.57 5.38-.25.37-.57.7-.89 1.02-.36.36-.8.66-1.14 1.04-.64.74-1.21 1.54-1.85 2.29-.72.84-1.35 1.77-2.42 2.23-.07.03-.15.16-.13.21.12.39-.18.5-.4.68-.58.46-1.16.93-1.71 1.43-.33.31-.7.65-.84 1.05-.29.81-.88 1.35-1.55 1.68-.84.41-1.5 1-2.18 1.6-.6.53-1.25.99-1.87 1.48.26-.95.65-1.78 1.05-2.61.38-.78.72-1.58 1.18-2.31.56-.88 1.23-1.68 1.83-2.54.68-.99 1.36-1.97 1.96-3.01.37-.64.47-1.45.9-2.03.44-.58.61-1.2.79-1.85.2-.74.56-1.37 1.06-1.94.68-.79 1.38-1.56 1.98-2.41.46-.65.71-1.44 1.22-2.1.61-.8 1.19-1.61 1.99-2.25.25-.2.41-.5.63-.74.34-.39.69-.78 1.05-1.14.28-.27.62-.48.89-.75.53-.52 1.14-.85 1.84-1.07.43-.13.86-.31 1.25-.53.62-.33.82-.85.71-1.56-.2-1.23-1.82-2.69-3.2-2.94-.63-.11-1.23-.37-1.83-.6-.78-.3-1.53-.71-2.33-.94-.23-.07-.47-.11-.7-.14-.29.06-.61.09-.91.13-.12.05-.23.1-.34.18-.15.11-.41.08-.65.12-.01-.07-.02-.15-.05-.18s-.25 0-.38 0c-.65.26-1.34.47-2.07.64-.8.93-1.63 1.85-2.55 2.67-.82.73-1.54 1.57-2.25 2.42-.27.33-.3.87-.58 1.19-1.36 1.57-2.57 3.25-3.79 4.94-1.03 1.42-2.11 2.81-3.17 4.22-.35.47-.65.98-1.02 1.44-1.15 1.4-2.48 2.64-3.64 4.04-1 1.2-2.1 2.32-3.2 3.44-.12.13-.21.25-.27.37-.13.11-.25.22-.38.32-1.32 1.04-2.68 2.02-4.14 2.85-1.94 1.12-3.9 2.22-5.85 3.31-.14.08-.32.06-.59.11.36-.87.62-1.65 1-2.36 1.12-2.1 2.29-4.17 3.44-6.26 1.32-2.39 2.63-4.79 3.93-7.18.3-.54.5-1.16.88-1.64.81-1.04 1.1-2.35 1.8-3.45.39-.62.7-1.31.98-2 .62-1.5.88-3.01.57-4.67-.27-1.45-.32-2.93-1.56-3.97-.1-.08-.15-.21-.22-.32-.39-.66-.94-1.12-1.65-1.47-1.97-.98-3.97-1.88-5.7-3.27-.5-.4-1.82-.24-2.13.35-.29.56-.78.75-1.21 1.08-.65.49-1.37.9-1.94 1.47-1.68 1.69-3.3 3.44-4.95 5.15-.17.17-.43.42-.61.39-.84-.12-1.24.43-1.66.98-.17.23-.27.55-.62.59.25-.96.45-1.89.74-2.78.29-.86.3-1.65-.3-2.37-.24-.29-.44-.66-.74-.86-.59-.39-1.23-.72-1.88-1.03-.46-.22-.96-.37-1.43-.55-.84-.33-1.69-.63-2.51-1-.51-.23-1.2-.24-1.64.15-.39.35-.77.7-1.1 1.1-.53.65-.95 1.41-1.55 2-.61.6-.95 1.59-1.68 1.91-.14.06-1.22 1.9-1.95 2.76-.48.56-.78 1.26-1.23 1.85-1.51 1.96-3.06 3.89-4.56 5.86-1.18 1.55-2.28 3.16-3.48 4.7-.99 1.28-2.08 2.48-3.12 3.72-.63.75-1.21 1.53-1.86 2.26-1.13 1.26-2.3 2.49-3.45 3.74-.79.86-1.53 1.78-2.37 2.58-.95.89-1.99 1.68-3.02 2.48-.39.3-.87.49-1.41.79-.03-.37-.1-.57-.06-.74.3-1.05.18-2.24 1.09-3.07.12-.11.1-.38.19-.54.48-.87.53-1.93 1.37-2.65.36-.31.58-.82 1.06-1.08.17-.09.26-.37.35-.57.59-1.27 1.17-2.55 1.75-3.83 1.71-3.74 3.44-7.48 5.13-11.23.2-.44.35-.94.33-1.41-.04-.95.24-1.84.32-2.76.09-1.07.17-2.14.25-3.22 0-.12-.05-.26-.1-.38-.43-.86-.91-1.7-1.8-2.12-.79-.37-1.4-1.19-2.41-1.08-.07 0-.18-.08-.24-.15-.84-.99-2.08-1.32-3.14-1.94-1.03-.6-1.68-.47-2.52.38-.5.51-.94 1.13-1.53 1.5-.7.44-1.15 1.04-1.61 1.67-.92 1.27-1.15 1.3-2.14.06-.31-.39-.62-.62-1.15-.56-.61.07-1.13-.17-1.6-.58-.29-.25-.65-.42-1-.59-1.16-.57-2.33-1.12-3.5-1.69-.4-.2-1.23-.78-1.31-.68 0 .75-.33 1.19-.91 1.43-.14.06-.26.2-.37.31-1.59 1.59-3.26 3.07-4.65 4.86-2.18 2.8-4.59 5.43-6.81 8.19-1.83 2.28-3.55 4.65-5.3 7-.19.25-.38.5-.58.75v-.02c-.69 1.16-2.79 2.97-3.88 3.84-1.88 1.5-3.9 3.46-5.76 4.99-1.98 1.63-3.54 2.14-5.94 3.56.11-.88.14-1.59.3-2.27.19-.79.47-1.55.74-2.31.34-.94.49-1.92.93-2.84.49-1.04.55-2.27 1.33-3.22.15-.18.13-.5.24-.73.17-.38.3-.84.59-1.1 1.03-.89 1.36-2.09 1.55-3.34.11-.74.24-1.42.94-1.84.1-.06.21-.16.27-.26.3-.57.6-1.15.86-1.74.25-.55.6-1.1.66-1.68.13-1.35.57-2.58 1.19-3.76.42-.8.83-1.62 1.23-2.44.26-.53.5-1.06.73-1.6.27-.66.51-1.33.79-1.98.33-.78.83-1.52.96-2.33.12-.79.37-1.51.62-2.25.12-.37.26-.75.28-1.13.07-1.17.42-2.23.99-3.24.34-.6.69-1.19.96-1.82.18-.4.35-.89.28-1.29-.06-.32.06-.55.06-.82 0-1.05.85-1.7 1.15-2.63.42-1.28 1.22-2.43 1.82-3.66.27-.55.48-1.14.64-1.73.14-.53.13-1.07.42-1.58.22-.38.24-.94.19-1.4-.05-.43.05-.74.25-1.1.78-1.36 1.53-2.74 2.29-4.11.12-.23.29-.48.27-.72-.05-.84.34-1.5.71-2.19.64-1.21 1.27-2.42 1.9-3.63.21-.41.46-.85.14-1.29-.41-.57-.83-1.17-1.56-1.4-.46-.15-.91-.29-1.36-.45-.7-.25-1.39-.54-2.09-.75-.81-.23-1.65-.34-2.44-.6-.57-.18-1.1-.37-1.44-.17-.37.64-.62 1.08-.88 1.51-.07.11-.16.21-.23.32-1.08 1.89-2.17 3.79-3.24 5.69-.37.65-.69 1.33-1.04 1.99-.55 1.03-1.03 2.1-1.67 3.07-.32.48-.59.99-.88 1.49-.59 1.03-1.21 2.04-1.82 3.07-.27.45-.55.89-.78 1.36-.4.82-.73 1.67-1.14 2.48-.45.87-.96 1.69-1.44 2.54-1.17 2.07-4.58 9.95-4.88 10.53.69-.28 3.69-7.5 4.68-9.22.75-1.29 1.62-2.49 2.3-3.84.74-1.48 1.67-2.85 2.51-4.28.21-.35.46-.41.87-.15-.88 1.56-1.74 3.08-2.6 4.61s-1.74 3.06-2.58 4.61-1.69 3.09-2.43 4.69c-.04.09-.08.18-.11.27-1.58 2.39-5.5 10.33-6.47 12.3-.66 1.34-1.3 2.7-1.9 4.06-.56 1.25-1.05 2.52-1.59 3.77-.44 1.02-.96 2-1.34 3.03-.27.74-.53 1.49-.79 2.25-.04.34-.15.67-.31.97-.04.13-.09.25-.14.37-.07.21-.14.42-.21.63 0 0 0 0-.01 0-.66.59-4.86 4.75-5.15 5.07-2.56 2.82-3.63 3.13-6.5 5.66-1.12.99-2.49 2.11-3.58 3.14-1.16 1.09-1.42.99-2.62 2.03-.3.26-.95.53-1.54.6.14-.42.41-1.57.59-1.81.44-.6.64-1.28.79-1.99.04-.19.12-.38.21-.55 1.13-2.35 2.29-4.7 3.41-7.05.27-.58.54-1.19.65-1.82.09-.54.3-.97.57-1.43.37-.63.83-1.24.74-2.06-.02-.17.06-.41.17-.54.29-.32.35-.68.34-1.09 0-.15.05-.32.12-.46.47-.97.98-1.92 1.41-2.91.4-.93.74-1.88 1.07-2.84.21-.61.29-1.28.56-1.86.45-.97.96-1.93 1.52-2.84.64-1.05.86-2.05.34-3.24-.23-.53-.49-.83-1-.88-.68-.08-1.22-.37-1.75-.78-.21-.16-.52-.2-.79-.28-.92-.28-1.9-.44-2.73-.87-.64-.33-1.22-.48-1.83-.38-.4.82-.76 1.63-1.18 2.4-.62 1.14-1.35 2.23-1.91 3.4-.61 1.25-1.45 2.31-2.35 3.35-1.02 1.17-2.19 2.22-2.91 3.63-.09.17-.23.32-.36.46-1.11 1.18-2.22 2.36-3.34 3.54-1.01 1.06-2 2.14-3.04 3.17-2.13 2.11-4.29 4.19-6.45 6.26-1.19 1.15-2.37 2.32-3.64 3.38-1.24 1.04-2.57 1.98-3.89 2.93-1.88 1.34-3.75 2.71-5.84 3.71-1.29.62-2.6 1.18-3.92 1.74-.24.1-.54.06-.91.1.01-.81.05-1.49.03-2.16-.07-2.29.64-4.37 1.57-6.4.12-.27.23-.54.37-.8.36-.69.7-1.39 1.1-2.06.37-.61.81-1.18 1.22-1.76.37-.52.76-1.03 1.14-1.54.56.13 1 .1 1.44.06.29-.03.58-.06.87-.1 1.28-.19 2.56-.37 3.83-.57.51-.08 1.02-.21 1.53-.31.98-.19 1.98-.32 2.95-.56 1.64-.42 3.18-1.08 4.65-1.93.56-.33 1.1-.78 1.71-.92 1.25-.29 1.89-1.23 2.53-2.16.58-.84.98-1.76.83-2.84-.13-.99-.2-1.99-.33-2.99-.03-.28-.18-.54-.27-.82-.07-.21-.21-.42-.22-.63-.05-1.06-.62-1.86-1.33-2.54-.79-.76-1.66-1.44-2.5-2.15-.29-.25-.65-.44-.89-.74s-.49-.33-.84-.35c-.47-.03-1.02-.07-1.38-.32-1.3-.91-2.83-1.26-4.25-1.88-1.11-.49-3.37-1.32-3.4-1.31-.03 0-.21.31-.33.4-.16.11-.36.15-.53.23-2.28 1.13-4.14 2.82-5.95 4.57-.14.13-.24.4-.22.59.06.47-.19.74-.49 1-2.13 1.84-3.93 3.98-5.69 6.16-.51.64-1.08 1.24-1.49 1.94-.84 1.43-1.62 2.9-2.4 4.36-.91 1.7-1.7 3.45-2 5.39-.06.42-.24.81-.34 1.23-.13.56-.29 1.12-.35 1.69-.2 1.99.1 3.92.71 5.8.47 1.45 1.34 2.68 2.12 3.96.31.52.79.94 1.21 1.4.35.38.79.71 1.06 1.14.6.96 1.41 1.72 2.29 2.39 1.03.78 2.03 1.72 3.38 1.86 1.37.14 2.75.15 4.13.18.24 0 .5-.15.71-.29.56-.37 1.16-.55 1.83-.63.39-.05.76-.32 1.13-.51.17-.09.29-.28.46-.33 1.91-.55 3.45-1.78 5.08-2.81 1.7-1.08 3.27-2.37 4.9-3.55 1.42-1.02 2.73-2.18 3.66-3.65.38-.61.86-1.05 1.4-1.76 0 .57 0 .92-.02 1.27-.06 1.63.12 3.21.86 4.68.42.84.93 1.64 1.42 2.45.23.38.44.9.8 1.07.82.4 1.29 1.06 1.77 1.76.29.43.66.81 1.05 1.15.61.53 1.31.97 1.89 1.53.98.92 2.13 1.18 3.4 1.06.25-.02.57-.08.71-.24.44-.49 1.02-.55 1.59-.65.38-.06.69-.18.87-.54.39-.78 1.01-1.3 1.83-1.57.09-.03.17-.1.24-.16 2.01-1.85 4.3-3.35 6.09-5.46 1.04-1.23 2.28-2.31 3.42-3.45.3-.3.62-.58.9-.9.56-.63 1.11-1.25 1.67-1.88v-.02c.33-.15 1.06 2.05 1.32 2.48.4.69.98 2.14 1.6 2.64.63.51 1.29.99 1.94 1.48.31.24.63.47.9.75 1.42 1.52 2.94 2.94 4.64 4.15 1.11.79 2.19 1.6 3.57 1.87.86.17 1.17.09 1.58-.68.39-.73.91-1.43 1.13-2.21.2-.71.69-.97 1.2-1.29.27-.17.59-.29.84-.49.19-.15.42-.42.41-.61-.08-.81.46-1.24.93-1.73.41-.42.82-.85 1.24-1.26.22-.45.45-.91.68-1.37.5 1.08.96 2.08 1.42 3.06.11.23.21.5.39.67.79.73 1.41 1.57 2.04 2.45.85 1.19 1.88 2.3 3.11 3.16 1.72 1.21 3.48 1.53 5.35.36.63-.39 1.33-.69 1.97-1.07.72-.42 1.51-.79 2.13-1.35 2.1-1.9 4.16-3.86 6.2-5.84.38-.37.63-.9.83-1.4.37-.91.65-1.86 1.54-2.43.15-.09.23-.31.33-.47.2-.29.38-.6.59-.87.76-.96 1.89-1.61 2.32-2.83 0-.02.11 0 .22 0 .01.15.04.31.04.46 0 1.17.07 2.32.38 3.48.46 1.72 1.37 3.23 2.02 4.85.06.15.16.31.28.39 1.13.73 1.88 1.8 2.73 2.81.71.85 1.78 1.39 2.71 2.05.21.14.49.26.73.24.94-.05 1.88-.11 2.8-.27.29-.05.66-.38.77-.67.21-.57.64-.78 1.1-1.02.28-.15.56-.32.78-.54.85-.84 1.69-1.69 2.53-2.55.34-.35.93-.54.77-1.23-.02-.09.18-.24.29-.36.24-.26.51-.5.73-.78.58-.7 1.13-1.44 1.72-2.13.58-.68.94-1.39.5-2.24.82-1.01 1.61-1.95 2.38-2.9.29-.35.55-.63.14-1.18-.22-.29-.12-1.06.12-1.42.87-1.33 1.85-2.6 2.82-3.86 1.95-2.56 3.93-5.1 5.89-7.65.38-.49.76-.98 1.16-1.46.1-.12.28-.17.43-.25.05.04.11.08.16.12-.16.34-.3.69-.48 1.02-1.82 3.31-3.73 6.58-5.46 9.93-1.46 2.84-2.79 5.76-4.06 8.69-.69 1.58-1.23 3.25-1.35 5-.03.47.05.98.19 1.43.16.54.45 1.05.68 1.56.31.21.76.37.96.69.45.73 1.15 1.3 1.34 2.19.13.59.81.62 1.15 1 .92 1.04 2.1 1.21 3.36 1.08.28-.03.59-.25.78-.47.74-.82 1.44-1.67 2.15-2.52.57-.67 1.15-1.33 1.7-2.02.16-.2.25-.45.37-.68.21-.39.39-.81.65-1.18.65-.92 1.48-1.74 1.99-2.73s1.57-1.6 1.75-2.78c.01-.08.15-.12.21-.2.54-.75 1.31-1.31 1.69-2.2.15-.35.43-.65.68-.95.94-1.07 1.94-2.09 2.83-3.21 1.27-1.6 2.32-3.38 3.69-4.91.6-.67 1.16-1.39 1.74-2.09-.79 1.92-1.68 3.77-2.48 5.66-.66 1.57-1.17 3.19-1.38 4.89-.29 2.3.12 4.45 1.41 6.37 1.1 1.64 2.27 3.25 3.53 4.76.94 1.13 1.92 2.23 3.45 2.77 1.75.62 2.89.72 4.66.01.24-.1.89-.12 1.14-.17 1.71-.37 2.7-1.39 3.94-2.47.73-.63 2.1-2.04 2.74-2.75.38-.42.96-1.15 1.62-1.98.29.42 1.2 2 1.38 2.24.48.65.95 1.32 1.45 1.96.34.43.81.78 1.08 1.25.62 1.08 1.49 1.89 2.45 2.63.74.57 1.49 1.15 2.28 1.66.43.27.98.34 1.44.58.48.25.92.19 1.41.04.87-.27 1.74-.55 2.63-.71 1.48-.27 2.78-.91 3.96-1.79.91-.67 1.7-1.56 2.68-2.09 1.49-.81 2.54-2.11 3.81-3.15 1.43-1.17 2.66-2.58 3.91-3.95.63-.69 1.1-1.53 1.68-2.27.51-.66 1.05-1.33 1.57-1.99.77.36 2.31 1.72 2.64 2.51.6 1.46 1.2 2.93 2.12 4.12.33.43.64.89.94 1.36.69 1.08 1.41 2.13 2.35 2.86.52.4 1.17.6 1.61 1.1.1.11.21.18.31.28.03.09.04.18.07.27.14.06.27.11.41.17.85.65 1.79 1 2.75 1.26.5.16 1.01.24 1.55.27 1.28.07 2.58-.31 3.85.04.14.04.32-.05.48-.09.4-.11.8-.2 1.18-.36.37-.16.72-.41 1.07-.63s.69-.46 1.04-.69c.18-.13.36-.26.55-.39.37-.26.74-.51 1.1-.78.25-.18.52-.36.7-.61.38-.52.67-1.14 1.08-1.64.56-.68 1.15-1.33 1.84-1.87.66-.52 1.24-1.17 1.85-1.77.04-.04.09-.09.1-.14.11-.68.64-.93 1.08-1.28.17-.14.46-.41.48-.46.01-.05-.25-.48-.33-.64.42-.52.77-1.01 1.18-1.44.63-.67 1.28-1.31 1.95-1.93.48-.45.99-.86 1.49-1.29.02-.02.05-.15.01-.17-.03-.03-.5.08-.58.06-.09-.02-.38-.79.2-1.34.37-.35.69-.78 1.02-1.18.19-.22.33-.51.55-.67.92-.66 1.79-1.36 2.35-2.44.07-.15.23-.25.36-.36.35-.29.72-.56 1.06-.86.12-.1.28-.27.28-.4 0-.37.24-.5.45-.7.23-.22.47-.44.63-.71.38-.65.92-1.09 1.45-1.57.81-.72 1.68-1.4 2.38-2.24.9-1.07 1.82-2.09 2.94-2.87.23-.16.43-.38.63-.59.1-.1.26-.27.23-.34-.15-.45.18-.55.41-.74.2-.16.48-.28.58-.5.27-.57.73-.88 1.18-1.22.75-.59 1.48-1.21 2-2.22-1.23.45-2.09 1.57-3.3 1.83.21-.31.45-.54.72-.75.61-.47 1.22-.92 1.83-1.39.45-.34.47-.55.07-1.05-.19.63-.74.5-1.13.72-1.92 1.08-3.73 2.38-5.66 3.46-1.01.57-1.91 1.36-2.7 2.3-.07.09-.18.14-.27.2-.42.25-.86.46-1.25.74-1.7 1.22-3.42 2.39-4.95 3.89-.11.11-.27.16-.42.22-.1.04-.24-.02-.31.04-.57.49-1.14 1-1.7 1.51-.12.11-.22.24-.35.32-.39.27-.8.51-1.19.78-.26.18-.59.53-.75.58s-.27-.01-.1-.17c.17-.15.99-.84 1.49-1.25.95-.77 1.88-1.59 2.87-2.28s1.8-1.62 2.82-2.27c1.25-.81 2.46-1.72 3.59-2.73.65-.58 1.32-1.05 2.06-1.42.07-.04.13-.1.2-.15 1.68-1.2 3.36-2.41 5.04-3.61.67-.48 1.75-1.36 2.44-1.84-.09-.19-.56.11-.65-.09.43-.13.63-.87 1.26-.47.07.04.38-.13.38-.22.06-.7.61-.87 1.02-1.19.48-.38 1.35-.98 1.33-1.04zm-25.36 16.47c.38-.26.76-.7.72-.76q-.44.17-.72.76zm3.72-3.45c-.67.46-1.4.88-2.01 1.68 1.06-.26 1.4-1.16 2.01-1.68zm-7.92 6.46c1.53-.77 2.56-1.99 3.77-2.94-1.06.39-3.39 2.25-3.77 2.94zm28.58-15.32c.43-.47 1.16-.55 1.28-1.42-1 .74-1.07.82-1.28 1.42z" />
	</g>
</svg>