<?xml version="1.0" encoding="UTF-8"?>
<svg viewBox="0 0 530 120" xmlns="http://www.w3.org/2000/svg">
    <g fill="currentColor" fill-rule="evenodd">
        <path
            d="m.22,119.68l6.89-25.88h5.73l6.87,25.88h-4.72l-1.53-5.93h-6.97l-1.53,5.93H.22Zm7.42-10.61h4.65l-2.32-9.34-2.32,9.34Zm15.93,10.61v-25.88h4.86l4.81,11.66,4.72-11.66h4.99v25.88h-4.7v-16.1l-3.48,8.78h-2.98l-3.53-8.82v16.13h-4.69Zm25.19,0v-25.88h8.07c1.04,0,1.95.13,2.72.38s1.44.59,1.99,1c.55.41,1,.88,1.36,1.41s.64,1.06.84,1.61.35,1.08.43,1.6.12.97.12,1.38v1.7c0,.41-.04.88-.12,1.41s-.22,1.06-.42,1.61-.48,1.09-.83,1.62-.8,1.01-1.34,1.42c-.54.41-1.19.75-1.94,1s-1.64.38-2.66.38h-3.5v9.34h-4.72Zm4.72-14.04h3.32c.26,0,.55-.03.88-.09s.63-.19.91-.38.52-.48.71-.84.28-.86.28-1.47v-1.6c0-.6-.1-1.09-.3-1.45s-.45-.64-.74-.83-.6-.33-.93-.39-.63-.1-.89-.1h-3.25v7.15Zm15.34,14.04v-25.88h4.72v21.19h10.22v4.69h-14.94Zm18.4,0v-25.88h4.72v25.88h-4.72Zm10.53,0v-25.88h14.98v4.69h-10.26v5.27h9.49v4.69h-9.49v11.23h-4.72Zm17.37-25.88h5.16l4.01,10.36,4.03-10.36h5.13l-6.8,16.5v9.37h-4.74v-9.44l-6.8-16.43Zm30.56,4.69v-4.69h16.29v4.69h-5.79v21.19h-4.72v-21.19h-5.79Zm20.14,21.19v-25.84h4.72v10.03h6.58v-10.03h4.72v25.84h-4.72v-11.13h-6.58v11.13h-4.72Zm21.84,0v-25.88h14.98v4.69h-10.26v5.24h9.49v4.69h-9.49v6.58h10.26v4.69h-14.98Zm29.69-7.21v-11.55c0-.4.05-.86.14-1.38s.26-1.04.49-1.58.54-1.07.93-1.59.87-.98,1.45-1.39,1.26-.74,2.05-.98c.79-.25,1.71-.37,2.75-.37s1.88.13,2.65.39c.77.26,1.45.61,2.02,1.05s1.06.94,1.46,1.5.72,1.14.96,1.73.42,1.18.52,1.76.16,1.11.16,1.6h-4.72c0-.72-.12-1.3-.35-1.75s-.51-.78-.83-1.01-.65-.38-1-.46-.64-.12-.88-.12c-.25,0-.55.03-.91.09s-.7.18-1.02.36-.6.45-.83.81-.34.83-.34,1.42v11.57c0,.6.11,1.09.34,1.46s.5.64.83.83.67.31,1.02.37.66.09.91.09.53-.03.88-.09.68-.18,1-.37.59-.47.83-.83.35-.85.35-1.46v-3.46h-3.82v-4.61h8.54v8.04c0,.41-.05.88-.16,1.41s-.28,1.07-.52,1.62-.56,1.1-.95,1.63-.88,1.01-1.46,1.42c-.59.41-1.27.75-2.05,1s-1.68.38-2.7.38-1.91-.13-2.69-.38-1.45-.59-2.01-1.01-1.05-.9-1.44-1.43-.7-1.08-.94-1.63-.41-1.1-.51-1.64-.15-1.01-.15-1.43Zm20.69,0v-11.52c0-.4.05-.86.14-1.38s.26-1.04.49-1.59.54-1.08.92-1.6.86-.99,1.44-1.4c.57-.41,1.26-.75,2.06-.99s1.72-.37,2.76-.37,1.88.12,2.64.37,1.44.58,2.02.99c.58.41,1.06.88,1.46,1.4s.71,1.06.96,1.61.43,1.09.53,1.61.16.98.16,1.38v11.54c0,.41-.05.88-.15,1.41s-.27,1.07-.51,1.62-.55,1.1-.93,1.63-.87,1.01-1.45,1.42c-.58.41-1.26.75-2.05,1s-1.69.38-2.72.38-1.92-.13-2.7-.38-1.46-.59-2.03-1.01-1.06-.9-1.45-1.44-.7-1.09-.94-1.64-.41-1.1-.51-1.63-.15-1.01-.15-1.42Zm4.72,0c0,.62.11,1.11.34,1.48s.5.66.83.87.67.35,1.02.42.66.11.91.11.53-.04.88-.11.68-.21,1-.42.59-.5.83-.87.35-.87.35-1.48v-11.45c0-.6-.12-1.09-.35-1.45s-.51-.64-.83-.83-.65-.32-1-.38-.64-.09-.88-.09c-.25,0-.55.03-.91.09s-.7.19-1.02.38-.6.47-.83.83-.34.84-.34,1.45v11.45Zm15.97,0v-11.52c0-.4.05-.86.14-1.38s.26-1.04.49-1.59.54-1.08.92-1.6.86-.99,1.44-1.4c.57-.41,1.26-.75,2.06-.99s1.72-.37,2.76-.37,1.88.12,2.64.37,1.44.58,2.02.99c.58.41,1.06.88,1.46,1.4s.71,1.06.96,1.61.43,1.09.53,1.61.16.98.16,1.38v11.54c0,.41-.05.88-.15,1.41s-.27,1.07-.51,1.62-.55,1.1-.93,1.63-.87,1.01-1.45,1.42c-.58.41-1.26.75-2.05,1s-1.69.38-2.72.38-1.92-.13-2.7-.38-1.46-.59-2.03-1.01-1.06-.9-1.45-1.44-.7-1.09-.94-1.64-.41-1.1-.51-1.63-.15-1.01-.15-1.42Zm4.72,0c0,.62.11,1.11.34,1.48s.5.66.83.87.67.35,1.02.42.66.11.91.11.53-.04.88-.11.68-.21,1-.42.59-.5.83-.87.35-.87.35-1.48v-11.45c0-.6-.12-1.09-.35-1.45s-.51-.64-.83-.83-.65-.32-1-.38-.64-.09-.88-.09c-.25,0-.55.03-.91.09s-.7.19-1.02.38-.6.47-.83.83-.34.84-.34,1.45v11.45Zm16.32,7.21v-25.88h8.07c1.04,0,1.95.13,2.72.38s1.44.59,1.99,1c.55.41,1,.88,1.36,1.41s.64,1.06.84,1.61.35,1.08.43,1.6.12.97.12,1.38v11.07c0,.4-.04.87-.12,1.39s-.22,1.06-.42,1.61-.48,1.09-.83,1.61-.8,1-1.34,1.41c-.54.41-1.19.75-1.94,1s-1.64.38-2.66.38h-8.22Zm4.72-4.69h3.35c.25,0,.53-.03.85-.1s.62-.2.89-.39.5-.47.69-.83.28-.84.28-1.45v-10.93c0-.62-.09-1.11-.28-1.47s-.43-.65-.71-.84-.59-.33-.91-.39-.62-.1-.88-.1h-3.28v16.5Zm26.61,4.69v-25.88h4.72v25.88h-4.72Zm10.53,0v-25.88h4.69l6.3,14.98v-14.98h4.72v25.88h-4.77l-6.21-14.68v14.68h-4.72Zm29.91-21.19v-4.69h16.29v4.69h-5.79v21.19h-4.72v-21.19h-5.79Zm20.14,21.19v-25.84h4.72v10.03h6.58v-10.03h4.72v25.84h-4.72v-11.13h-6.58v11.13h-4.72Zm21.84,0v-25.88h14.98v4.69h-10.26v5.24h9.49v4.69h-9.49v6.58h10.26v4.69h-14.98Zm28.08-25.88h4.88l3.19,17,3.89-16.97h3.46l3.89,16.97,3.19-17h4.92l-5.38,25.88h-4.51l-3.78-15.74-3.9,15.74h-4.45l-5.4-25.88Zm30.91,18.67v-11.52c0-.4.05-.86.14-1.38s.26-1.04.49-1.59.54-1.08.92-1.6.86-.99,1.44-1.4c.57-.41,1.26-.75,2.06-.99s1.72-.37,2.76-.37,1.88.12,2.64.37,1.44.58,2.02.99c.58.41,1.06.88,1.46,1.4s.71,1.06.96,1.61.43,1.09.53,1.61.16.98.16,1.38v11.54c0,.41-.05.88-.15,1.41s-.27,1.07-.51,1.62-.55,1.1-.93,1.63-.87,1.01-1.45,1.42c-.58.41-1.26.75-2.05,1s-1.69.38-2.72.38-1.92-.13-2.7-.38-1.46-.59-2.03-1.01-1.06-.9-1.45-1.44-.7-1.09-.94-1.64-.41-1.1-.51-1.63-.15-1.01-.15-1.42Zm4.72,0c0,.62.11,1.11.34,1.48s.5.66.83.87.67.35,1.02.42.66.11.91.11.53-.04.88-.11.68-.21,1-.42.59-.5.83-.87.35-.87.35-1.48v-11.45c0-.6-.12-1.09-.35-1.45s-.51-.64-.83-.83-.65-.32-1-.38-.64-.09-.88-.09c-.25,0-.55.03-.91.09s-.7.19-1.02.38-.6.47-.83.83-.34.84-.34,1.45v11.45Zm16.32,7.21v-25.88h8.11c1.04,0,1.95.13,2.73.38s1.45.59,2.01.99,1.01.88,1.38,1.4.64,1.06.85,1.61.35,1.08.43,1.6.12.98.12,1.37v1.12c0,.46-.05,1-.16,1.61s-.3,1.24-.59,1.87-.68,1.24-1.19,1.81-1.16,1.05-1.95,1.43l5.08,10.68h-5.24l-4.61-9.99h-2.25v9.99h-4.72Zm4.72-14.68h3.46c.25,0,.53-.03.85-.09s.62-.19.91-.38.52-.48.71-.84.28-.85.28-1.46v-.98c0-.6-.1-1.09-.3-1.45s-.45-.64-.74-.83-.6-.33-.92-.39-.61-.1-.86-.1h-3.39v6.51Zm16.18,14.68v-25.88h4.72v21.19h10.22v4.69h-14.94Zm18.4,0v-25.88h8.07c1.04,0,1.95.13,2.72.38s1.44.59,1.99,1c.55.41,1,.88,1.36,1.41s.64,1.06.84,1.61.35,1.08.43,1.6.12.97.12,1.38v11.07c0,.4-.04.87-.12,1.39s-.22,1.06-.42,1.61-.48,1.09-.83,1.61-.8,1-1.34,1.41c-.54.41-1.19.75-1.94,1s-1.64.38-2.66.38h-8.22Zm4.72-4.69h3.35c.25,0,.53-.03.85-.1s.62-.2.89-.39.5-.47.69-.83.28-.84.28-1.45v-10.93c0-.62-.09-1.11-.28-1.47s-.43-.65-.71-.84-.59-.33-.91-.39-.62-.1-.88-.1h-3.28v16.5ZM1.77,73.42V.5h22.76c2.93,0,5.48.35,7.63,1.05s3.99,1.61,5.53,2.73,2.78,2.4,3.73,3.85c.95,1.45,1.7,2.93,2.25,4.45s.93,2.99,1.13,4.43.3,2.72.3,3.85v1.25c0,1.07-.16,2.23-.48,3.5s-.78,2.52-1.4,3.75-1.38,2.4-2.3,3.5-1.98,2.05-3.18,2.85c1.27.83,2.43,1.81,3.48,2.93s1.95,2.31,2.7,3.58,1.33,2.6,1.73,4,.6,2.78.6,4.15v2.35c0,1.1-.12,2.38-.35,3.83s-.65,2.94-1.25,4.48-1.41,3.04-2.43,4.53-2.32,2.81-3.9,3.98-3.47,2.11-5.65,2.83-4.73,1.08-7.63,1.08H1.77Zm13.3-13.2h9.75c.7,0,1.52-.08,2.45-.25s1.82-.52,2.65-1.05,1.54-1.3,2.13-2.3.88-2.33.88-4v-2.15c0-1.7-.25-3.07-.75-4.1-.5-1.03-1.13-1.83-1.88-2.4s-1.57-.95-2.45-1.15-1.73-.3-2.53-.3h-10.25v17.71Zm0-30.86h9.95c.73,0,1.5-.08,2.3-.25s1.53-.52,2.18-1.05,1.19-1.29,1.63-2.28.65-2.28.65-3.88v-.95c0-1.63-.25-2.93-.75-3.9s-1.13-1.7-1.88-2.2-1.55-.82-2.4-.95-1.63-.2-2.33-.2h-9.35v15.65Zm42.21,44.06V.5h22.86c2.93,0,5.5.36,7.7,1.08s4.08,1.65,5.65,2.8,2.86,2.47,3.88,3.95c1.02,1.48,1.82,2.99,2.4,4.53s.99,3.03,1.23,4.5.35,2.75.35,3.85v3.15c0,1.3-.15,2.82-.45,4.55s-.85,3.49-1.65,5.28-1.92,3.48-3.35,5.1-3.27,2.96-5.5,4.03l14.3,30.11h-14.75l-13-28.16h-6.35v28.16h-13.3Zm13.3-41.36h9.75c.7,0,1.5-.08,2.4-.25s1.75-.53,2.55-1.08,1.47-1.34,2-2.38.8-2.4.8-4.1v-2.75c0-1.7-.28-3.06-.85-4.08s-1.26-1.8-2.08-2.35-1.68-.92-2.6-1.1-1.73-.28-2.43-.28h-9.55v18.36Zm42.01,41.36V.5h13.3v72.92h-13.3Zm25.11-20.31V20.56c0-1.13.13-2.43.4-3.88s.73-2.93,1.38-4.45,1.53-3.01,2.63-4.48,2.46-2.78,4.08-3.93,3.54-2.08,5.78-2.78,4.82-1.05,7.75-1.05,5.29.37,7.48,1.1,4.08,1.72,5.7,2.95,2.98,2.64,4.1,4.23,2.02,3.21,2.7,4.88,1.18,3.32,1.48,4.95.45,3.13.45,4.5h-13.3c0-2.03-.33-3.68-.98-4.93s-1.43-2.2-2.33-2.85-1.84-1.08-2.83-1.3-1.81-.33-2.48-.33c-.7,0-1.55.08-2.55.25s-1.96.51-2.88,1.03c-.92.52-1.69,1.28-2.33,2.28s-.95,2.33-.95,4v32.61c0,1.7.32,3.07.95,4.1s1.41,1.82,2.33,2.35,1.88.88,2.88,1.05,1.85.25,2.55.25,1.49-.08,2.48-.25,1.93-.52,2.83-1.05,1.68-1.32,2.33-2.35.98-2.4.98-4.1v-9.75h-10.75v-13h24.06v22.66c0,1.17-.15,2.49-.45,3.98s-.79,3.01-1.48,4.58-1.58,3.1-2.68,4.6-2.48,2.83-4.13,4-3.58,2.11-5.78,2.83-4.73,1.08-7.6,1.08-5.39-.36-7.58-1.08-4.08-1.67-5.68-2.85-2.95-2.53-4.05-4.03-1.98-3.03-2.65-4.6-1.14-3.11-1.43-4.63-.43-2.86-.43-4.03Zm55.72,20.31V.6h13.3v28.26h18.56V.6h13.3v72.82h-13.3v-31.36h-18.56v31.36h-13.3Zm52.42-59.72V.5h45.91v13.2h-16.3v59.72h-13.3V13.7h-16.3ZM293.46.5h13.45l12.9,53.37L333.02.5h13.3l-18.01,72.92h-16.5L293.46.5Zm60.17,72.92V.5h13.3v72.92h-13.3Zm26.11,0V.5h22.76c2.93,0,5.48.35,7.63,1.05s3.99,1.61,5.53,2.73c1.53,1.12,2.78,2.4,3.73,3.85.95,1.45,1.7,2.93,2.25,4.45s.93,2.99,1.13,4.43.3,2.72.3,3.85v1.25c0,1.07-.16,2.23-.48,3.5s-.78,2.52-1.4,3.75-1.38,2.4-2.3,3.5-1.98,2.05-3.18,2.85c1.27.83,2.43,1.81,3.48,2.93s1.95,2.31,2.7,3.58,1.33,2.6,1.73,4,.6,2.78.6,4.15v2.35c0,1.1-.12,2.38-.35,3.83s-.65,2.94-1.25,4.48-1.41,3.04-2.43,4.53-2.32,2.81-3.9,3.98c-1.58,1.17-3.47,2.11-5.65,2.83s-4.73,1.08-7.63,1.08h-23.26Zm13.3-13.2h9.75c.7,0,1.52-.08,2.45-.25s1.82-.52,2.65-1.05,1.54-1.3,2.13-2.3.88-2.33.88-4v-2.15c0-1.7-.25-3.07-.75-4.1-.5-1.03-1.13-1.83-1.88-2.4s-1.57-.95-2.45-1.15-1.73-.3-2.53-.3h-10.25v17.71Zm0-30.86h9.95c.73,0,1.5-.08,2.3-.25s1.53-.52,2.18-1.05,1.19-1.29,1.63-2.28.65-2.28.65-3.88v-.95c0-1.63-.25-2.93-.75-3.9s-1.13-1.7-1.88-2.2-1.55-.82-2.4-.95-1.63-.2-2.33-.2h-9.35v15.65Zm42.21,44.06V.5h42.21v13.2h-28.91v14.75h26.76v13.2h-26.76v18.56h28.91v13.2h-42.21Zm48.41-22.76h13.35c0,1.73.23,3.26.7,4.58s1.11,2.43,1.93,3.33,1.8,1.58,2.95,2.05,2.43.7,3.83.7c1.53,0,2.92-.19,4.15-.58s2.29-.93,3.18-1.65,1.56-1.57,2.03-2.55.7-2.08.7-3.28c0-1-.13-1.87-.38-2.6s-.6-1.39-1.05-1.98-.98-1.1-1.6-1.55c-.41-.3-.85-.59-1.31-.87l-.71-.41c-1.37-.8-2.63-1.49-3.78-2.08l-1.71-.86-2.82-1.39-2.37-1.14c-1.22-.58-2.58-1.28-4.08-2.08-1.6-.83-3.09-1.83-4.48-3s-2.58-2.51-3.6-4.03-1.82-3.22-2.4-5.1-.88-3.99-.88-6.33c0-2.9.53-5.57,1.58-8s2.52-4.53,4.4-6.28c1.88-1.75,4.13-3.12,6.75-4.1s5.51-1.48,8.68-1.48,6.26.56,8.98,1.68,5.05,2.68,7,4.68,3.47,4.38,4.55,7.13,1.63,5.76,1.63,9.03h-13.35c0-1.53-.23-2.89-.68-4.08s-1.07-2.18-1.85-2.98-1.71-1.41-2.78-1.83-2.23-.63-3.5-.63c-1.13,0-2.19.17-3.18.5s-1.84.81-2.58,1.43-1.31,1.35-1.73,2.2-.63,1.79-.63,2.83c0,1.5.33,2.77.98,3.8s1.69,1.92,3.13,2.65l2.16,1.09,5.03,2.48,5.06,2.53c1.13.57,2.1,1.07,2.9,1.5,3.93,2.1,6.9,4.71,8.9,7.83s3,6.93,3,11.43c0,3.03-.61,5.84-1.83,8.4s-2.89,4.79-5.03,6.68-4.63,3.35-7.48,4.4-5.89,1.58-9.13,1.58c-3.5,0-6.64-.61-9.43-1.83s-5.16-2.88-7.13-5-3.48-4.62-4.53-7.5-1.58-5.99-1.58-9.33Z" />
    </g>
</svg>