<?xml version="1.0" encoding="UTF-8"?>
<svg viewBox="0 0 387 120" xmlns="http://www.w3.org/2000/svg">
	<g fill="currentColor" fill-rule="evenodd">
		<path
			d="m48.3 19.24c16.88 0 24.05 5.73 27.4 21.9l.91-.16 17.22-2.66c-5.06-22.99-22.8-35.52-45.53-35.52-26.63 0-48.21 19.31-48.21 47.94s21.57 47.95 48.21 47.95c22.73 0 40.47-12.54 45.53-35.52l-17.68-2.73-.45-.09c-3.35 16.17-10.52 21.9-27.4 21.9-20.96 0-29.51-9.17-29.51-31.64s8.83-31.37 29.51-31.37z" />
		<path d="m101.66 4.13h16.92v93.23h-16.92z" />
		<path
			d="m179.13 46.75c-4.13-10.26-12.25-15.98-23.44-15.98-18.25 0-28.9 13.59-28.9 34.1s11.05 33.83 29.7 33.83c10.79 0 18.65-5.59 22.64-15.58v14.25h16.91v-65.27h-16.91zm-17.58 36.63c-12.25 0-17.71-5.73-17.71-18.51s5.46-18.78 17.71-18.78 18.11 5.73 18.11 18.78-5.46 18.51-18.11 18.51z" />
		<path
			d="m225.02 50.61v-18.51h-16.91v65.26h16.91v-27.04c0-16.51 7.46-23.71 18.11-23.71h8.79v-14.52l-7.86-.07c-12.52 0-17.31 8.73-19.05 18.58z" />
		<path d="m258.64 32.1h16.91v65.26h-16.91z" />
		<path
			d="m267.03 0c-7.19 0-11.05 3.73-11.05 10.39s4 10.79 11.05 10.79 11.05-3.86 11.05-10.79-3.99-10.39-11.05-10.39z" />
		<path
			d="m368.53 32.1-12.65 38.62-4.26 14.52-3.86-14.52-12.52-38.62h-18.38s-12.01 0-12.01 0v-16.65h18.91v-14.92h-15.58c-12.12 0-20.24 8.12-20.24 20.24v76.58h16.91v-50.34h17.59l21.72 58.07h-22.64v14.92h13.59c14.12 0 20.11-5.06 24.11-15.45l27.7-72.45h-18.38z" />
	</g>
</svg>