<?xml version="1.0" encoding="UTF-8"?>
<svg viewBox="0 0 600 120" xmlns="http://www.w3.org/2000/svg">
	<g fill="currentColor" fill-rule="evenodd">
		<path
			d="m281.2 57.9c-3.7-2.8-8.3-5.1-13.7-7-5.4-2-11.4-3.6-18-5-4-.8-7.3-1.8-9.9-2.5-2.6-.8-4.7-1.7-6.2-2.5s-2.5-1.8-3.2-2.7c-.7-1-.9-2.1-.9-3.4v-.4c0-2.1.9-3.8 2.9-5.3 2-1.4 4.8-2.1 8.7-2.1 5.2 0 10.5.9 16.1 2.9s11 4.8 16.3 8.5l16-22.8c-6.1-5.1-13.1-9-20.9-11.6-7.7-2.7-16.6-4-26.5-4-7 0-13.2.9-18.7 2.7-5.5 1.9-10.3 4.4-14.2 7.7s-6.9 7.2-9 11.7c-2.1 4.6-3.1 9.5-3.1 14.9v.4c0 6 1.1 10.9 3.4 15 2.2 4 5.3 7.4 9.3 10.1 3.9 2.7 8.6 4.9 13.8 6.6 5.3 1.7 11 3.3 17.2 4.8 4 .8 7.2 1.8 9.7 2.6s4.5 1.7 6 2.5 2.5 1.8 3.1 2.7.8 2.1.8 3.3v.3c0 2.5-1.1 4.5-3.4 5.9-2.2 1.4-5.6 2.1-9.9 2.1-12.6 0-27.5-.6-42.8-9l-34.1-81.1h-31l-29.5 69.7c.7-3.5.9-7.3.9-11.1v-.4c0-8.4-1.5-16.1-4.4-23.1s-7.2-13.1-12.8-18.2c-5.4-5.2-12.2-9.1-20.3-11.9s-17.4-4.2-27.8-4.2h-44.8v116h44.1 45.2 20.9 12.9l17.7-45.6 13.1-33 13 33 9.3 24.9 8.5 20.7h6.6 27.9 28.1v-.1c6.4-.1 12.3-.9 17.6-2.5 5.8-1.7 10.6-4.2 14.7-7.5s7.3-7.2 9.5-11.8 3.4-9.9 3.4-15.9v-.4c0-5.4-1-10.1-3-14-2-3.7-4.9-7.1-8.6-9.9zm-203.4 4.3c0 9.4-3 16.6-8.9 21.7s-13.6 7.6-23.3 7.6h-13.1v-.1-59h13.1c9.6 0 17.4 2.6 23.3 7.7s8.9 12.3 8.9 21.6z" />
		<path
			d="m593.4 69.4c-4.2-4.4-9.8-7.7-16.9-10.1 5.1-2.2 9.4-5.4 12.8-9.5s5-9.6 5-16.3v-.4c0-4-.7-7.6-2-10.6-1.3-3.1-3.2-5.8-5.5-8.1-3.4-3.4-7.7-6.1-12.9-7.8-5.2-1.8-11.4-2.6-18.7-2.6h-59.2v82l-35.1-82.8h-31l-37.4 88.6h-42.9v-88.3h-32.5v116.4h63.5 12.9 20.9l17.7-45.6 13.1-33 13 33 9.2 24.9 8.5 20.7h34.5 45.4c13.9 0 24.7-2.8 32.4-8.5 7.6-5.7 11.6-13.5 11.6-23.5v-.3c-.1-7.8-2.2-13.9-6.4-18.2zm-66.2-39.6h21c4.8 0 8.5.8 10.9 2.6 2.4 1.7 3.6 4.2 3.6 7.4v.3c0 3.4-1.3 6-3.9 7.6-2.6 1.7-6.3 2.5-11.4 2.5h-20.2zm36.4 61.6c-2.6 1.9-6.4 2.7-11.5 2.7h-24.9v-21.4h24.5c5.4 0 9.4.9 11.9 2.8s3.8 4.4 3.8 7.6v.4h.1c.1 3.5-1.2 6.1-3.9 7.9z" />
	</g>
</svg>