<?xml version="1.0" encoding="UTF-8"?>
<svg viewBox="0 0 378 120" xmlns="http://www.w3.org/2000/svg">
    <g fill="currentColor" fill-style="evenodd">
    	<path d="m261.883 27h-6.75v17.28h-8.775v6.75h8.775v29.97h6.75v-29.97h8.775v-6.75h-8.775z"/>
    	<path d="m324.346 76.95c0 2.237-1.814 4.05-4.05 4.05-2.238 0-4.049-1.813-4.049-4.05s1.811-4.05 4.049-4.05c2.236 0 4.05 1.813 4.05 4.05z"/>
    	<path d="m370.576 44.28h6.75v36.72h-6.75z"/>
    	<path d="m302.838 48.419c-3.163-2.586-7.204-4.139-11.61-4.139-10.14 0-18.358 8.22-18.358 18.36s8.218 18.36 18.358 18.36c4.406 0 8.447-1.552 11.61-4.138v4.138h6.749v-36.72h-6.749zm-11.61 25.831c-6.412 0-11.611-5.198-11.611-11.61s5.199-11.61 11.611-11.61c6.413 0 11.61 5.198 11.61 11.61s-5.197 11.61-11.61 11.61z"/>
    	<path d="m233.697 48.419c-3.163-2.586-7.205-4.139-11.61-4.139-10.139 0-18.359 8.22-18.359 18.36s8.22 18.36 18.359 18.36c4.405 0 8.447-1.552 11.61-4.138v4.138h6.751v-36.72h-6.751zm-11.611 25.831c-6.412 0-11.61-5.198-11.61-11.61s5.198-11.61 11.61-11.61 11.61 5.198 11.61 11.61-5.198 11.61-11.61 11.61z"/>
    	<path d="m364.533 81v-36.72h-6.749v4.139c-3.166-2.586-7.207-4.139-11.612-4.139-10.141 0-18.359 8.22-18.359 18.36s8.218 18.36 18.359 18.36c4.405 0 8.446-1.552 11.612-4.138v4.138zm-18.361-6.75c-6.413 0-11.609-5.198-11.609-11.61s5.196-11.61 11.609-11.61c6.412 0 11.609 5.198 11.609 11.609v.002c0 6.411-5.197 11.609-11.609 11.609z"/>
    	<path d="m191.969 48.419c-3.164-2.587-7.205-4.139-11.61-4.139-10.14 0-18.36 8.22-18.36 18.36s8.22 18.36 18.36 18.36c4.405 0 8.446-1.553 11.61-4.138v4.138h6.75v-54h-6.75zm-11.611 25.831c-6.412 0-11.61-5.198-11.61-11.61s5.198-11.61 11.61-11.61 11.61 5.198 11.61 11.61-5.198 11.61-11.61 11.61z"/>
    	<path d="m378 31.05c0 2.237-1.814 4.05-4.052 4.05-2.235 0-4.049-1.813-4.049-4.05s1.814-4.05 4.049-4.05c2.238 0 4.052 1.813 4.052 4.05z"/>
    	<path d="m47.507 0-47.507 48.432 70.116 71.481.085.087 70.116-71.484.083-.084-47.507-48.432zm4.15 48.986 18.545-18.966 18.541 18.966-18.541 56.89zm-40.43 2.354h34.604l17.304 52.683zm83.301 0h34.295l-51.441 52.68zm-19.944-25.31 17.706-17.86 36.881 37.2h-35.414zm-26.55-17.86 17.782 17.971-19.022 19.229h-35.565zm6.529-2.2h31.157l-15.578 15.472z"/>
    </g>
</svg>