<?xml version="1.0" encoding="UTF-8"?>
<svg viewBox="0 0 198 120" xmlns="http://www.w3.org/2000/svg">
    <g fill="currentColor" fill-rule="evenodd">
        <path
            d="m7.03 99.85h-4.19v15.36h7.38c2.59-1.2 4.29-3.89 4.29-7.28 0-4.69-3.29-8.08-7.48-8.08zm2.59 13.57h-4.69v-11.67h2.19c2.79 0 5.39 2.79 5.39 6.18 0 3.19-1.9 4.89-2.89 5.49z" />
        <path
            d="m20.2 109.83c0 3.19 2.49 5.79 5.59 5.79 2.39 0 3.69-1.6 3.69-1.6l-1.4-1.3s-.7 1.1-2.29 1.1c-1.9 0-3.29-1.4-3.59-3.19h7.28v-5.09c-1.1-.9-2.29-1.5-3.69-1.5-3.09 0-5.59 2.59-5.59 5.79zm7.38-.8h-5.39c.3-1.8 1.6-3.29 3.59-3.29.9 0 1.4.2 1.8.6z" />
        <path
            d="m40.75 109.23-2-.8c-.5-.2-1.1-.5-1.1-1.3 0-.9.5-1.4 1.6-1.4 1.5 0 2 1.3 2 1.2l1.5-.7s-.8-2.39-3.49-2.39c-2.19 0-3.39 1.7-3.39 3.19 0 1.6 1.2 2.49 2.19 2.89l1.7.7c1.4.6 1.6 1.1 1.6 1.8s-.8 1.3-1.9 1.3c-1.9 0-2.59-1.6-2.59-1.6l-1.6.8s1.2 2.59 4.09 2.59c2.09 0 3.79-1.1 3.79-3.29 0-1.6-1.2-2.49-2.39-2.99z" />
        <circle cx="50.52" cy="100.75" r="1.5" />
        <path d="m49.62 104.24h1.9v10.97h-1.9z" />
        <path
            d="m62.69 103.94c-2.49 0-4.29 1.3-4.29 3.89 0 1.4.6 2.49 1.5 3.09-.9.7-1.2 2-.2 2.89 0 0-1.6.8-1.6 2.49 0 2.09 1.9 3.69 4.59 3.69 2.19 0 3.89-.5 4.89-1.7v-3.79c-.9-1.1-2.39-1.5-4.49-1.5h-.6c-1.6 0-2-.8-1.4-1.5.4.2.9.2 1.4.2 2.49 0 4.29-1.3 4.29-3.89 0-.7-.1-1.4-.4-1.9h1.4v-1.7h-3.09c-.6-.2-1.3-.3-2-.3zm-1.8 10.57s.2.2 2.09.2c1.1 0 2.09.2 2.69.5v2.29c-.5.4-1.4.8-2.59.8-2.79 0-3.19-1.5-3.19-2.39 0-1.1 1-1.4 1-1.4zm1.6-4.49c-1.4 0-2.49-.8-2.49-2.19s1.1-2.29 2.49-2.29c1.5 0 2.59.9 2.59 2.29 0 1.3-1.1 2.19-2.59 2.19z" />
        <path
            d="m79.25 103.94c-1.6 0-2.69.7-3.29 1.7l-.2-1.4h-1.7v10.97h1.8v-6.08c0-1.4.8-3.39 2.89-3.39 1 0 1.8.4 2.19.9v8.58h1.9v-9.38c-.8-1.1-1.9-1.9-3.59-1.9z" />
        <path
            d="m97.8 108.03v-3.69h-1.8v2.89c-1 1.2-2.39 2.09-4.09 2.49v-10.17h-1.8v15.66h1.8v-3.69c.9-.3 1.8-.6 2.69-1l2.59 4.69h2l-3.09-5.69c.6-.4 1.2-.9 1.7-1.5z" />
        <path
            d="m114.36 112.32-2.19-8.08h-1.7l-2.09 8.08-2.5-8.08h-1.99l3.59 10.97h1.69l2.2-7.78 2.19 7.78h1.7l3.59-10.97h-1.99z" />
        <path
            d="m132.72 112.52v-4.79c0-2.39-1.8-3.79-4.49-3.79-1.9 0-3.39 1.1-4.29 2.59l1.7 1s.8-1.7 2.79-1.7c1.6 0 2.49.9 2.49 1.6 0 .8-.8 1-3.09 1.4-1.1.2-2.79.5-3.49 1.4v3.69c1.1 1.1 2.09 1.8 3.99 1.8 1.3 0 2.39-.6 3.09-1.5.4.7 1 1.1 2 1.1h.7v-1.7h-.3c-.6 0-1.1-.5-1.1-1.1zm-1.7-1.4c0 1.5-.8 2.59-2.69 2.69-1.2 0-1.9-.4-2.19-1v-1.7c.9-.8 3.69-.6 4.89-1.5v1.5z" />
        <path
            d="m142.19 105.84-.2-1.6h-1.6v10.97h1.8v-5.69c0-2.19 1.2-3.49 3.39-3.49h.5v-1.8h-1c-1.3 0-2.29.7-2.89 1.6z" />
        <path
            d="m154.36 101.25h-1.7v2c0 .7-.2 1.1-1 1.1h-.3v1.8h1.2v5.89c0 1.6.7 3.29 2.69 3.29h1.1v-1.8h-.5c-1.4 0-1.4-1.2-1.4-1.9v-5.49h2.29v-1.8h-2.39v-3.09z" />
        <circle cx="164.14" cy="100.75" r="1.5" />
        <path d="m163.14 104.24h1.9v10.97h-1.9z" />
        <path
            d="m171.52 109.83c0 3.19 2.49 5.79 5.59 5.79 2.39 0 3.69-1.6 3.69-1.6l-1.4-1.3s-.7 1.1-2.29 1.1c-1.9 0-3.29-1.4-3.59-3.19h7.28v-5.09c-1.1-.9-2.29-1.5-3.69-1.5-3.09 0-5.59 2.59-5.59 5.79zm7.38-.8h-5.39c.3-1.8 1.7-3.29 3.59-3.29.9 0 1.4.2 1.8.6z" />
        <path
            d="m189.47 105.84-.2-1.6h-1.6v10.97h1.8v-5.69c0-2.19 1.2-3.49 3.39-3.49h.5v-1.8h-1c-1.3 0-2.29.7-2.89 1.6z" />
        <path
            d="m197.35 42.99-22.54-42.39c-.3-.4-.7-.6-1.1-.6h-130.97c-11.37.3-22.04 4.99-29.93 13.17-7.97 8.18-12.36 19.05-12.36 30.42s4.39 22.14 12.37 30.32 18.55 12.87 29.93 13.27h131.07c.5 0 .8-.2 1.1-.6l22.64-42.39v-.1c0-.4 0-.8-.2-1.1zm-155.71 41.7c-21.75-1.3-38.7-19.35-38.7-41.1-.1-21.84 16.96-39.8 38.7-41.1v82.19zm2.49 0v-82.2h82.29l-21.65 40.5v.1l-22.14 41.6zm41.2 0 20.55-38.5 20.55 38.5zm87.58 0h-43.79l-21.95-41.1 21.95-41.1v-.1h43.79l21.95 41.2z" />
    </g>
</svg>