<?xml version="1.0" encoding="UTF-8"?>
<svg viewBox="0 0 343 120" xmlns="http://www.w3.org/2000/svg">
    <g fill="currentColor" fill-style="evenodd">
        <path
            d="m83.55 29.92c.12-3.9-.88-10.9-8.76-13.88l-3.78-1.3c-10.36-3.54-34.62-11.85-41.5-14.04-1.38-.46-2.76-.7-4.12-.7-6.71 0-12.23 5.82-16.74 11.52-1.23 1.55-2.48 3.18-3.69 4.76-1.68 2.19-3.3 4.3-4.81 6.13-.25.31-.04.65.24.54 3.38-1.14 7.05-1.72 10.95-1.72 9.81 0 18.78 3.67 22.62 5.25.43.17.8.33 1.11.45l.74.29v-.02l.72.28 21.48 8.42.34.13v56.16l-.7-.22c-5.4-1.72-10.88-2.7-15.05-2.7-2.71 0-4.88.39-6.44 1.18l-.77.38v-.86s.4-62.01.4-62.01v-.46s-.66.38-.66.38c-.21.12-20.73 11.84-24.94 14.66-.02 4.28-.29 55.57-.01 73.29 6.78-3.11 13.62-4.68 20.36-4.68 8.19 0 16.3 2.23 24.78 6.84 6.84-16.53 23.23-24.2 30.76-27.59-.92-2.17-2.07-6.74-2.07-10.6 0-.43-.63-43.05-.47-49.87z" />
        <path
            d="m158.84 92.02-1.03-33.53c-.12-7.7-1.59-10.88-10.48-15.47l-17.81 14.14c2.09 1 4.74 4.02 4.74 12.81l.26 31.84v.62s-.61-.09-.61-.09c-10.44-1.5-11.96-9.19-12.06-16.5l-.26-24.5c0-9.84-1.51-12.43-10.66-17.87l-17.03 13.4c3.51 2.35 4.9 5.64 4.9 11.43l.4 29.5c.29 7.6 6.18 11.25 13.01 15.48 1.65 1.02 3.37 2.09 5.04 3.23l17.51-11.07.41-.26.29.39c3.67 4.84 7.78 7.88 14.14 10.45l15.72-13.38c-2.44-1.59-6.48-4.24-6.48-10.6z" />
        <path
            d="m334.78 86.66-1.09-66.7c.18-7.08-4.43-13.63-11.01-15.67-1.44 1.12-10.83 9.06-17.47 14.72 3.51 2.06 5.15 9.72 5.15 23.89l-.26 47.21c0 11.14 5.94 20.11 17.67 26.69l15.19-16.24c-7.03-5.28-8.18-8.04-8.18-13.89z" />
        <path
            d="m278.2 81.87c6.82-2.58 21.1-11.48 23.74-13.15l-16.47-29.42-40.46 11.24c.55.99 1.4 3.17 1.4 7.16 0 5.6-.48 34.58-.48 34.87v.38s0 .47 0 .47c0 8.19 5.71 15.05 15.67 18.83 2.88 1.09 6.35 1.64 10.3 1.64 9.99 0 20.08-3.47 23.44-4.74l.15-17.58c-2.04.52-8.31 2.11-13.15 3.14-.65.14-1.34.27-2.04.38-1.03.16-2 .23-2.88.23-2.99 0-5.27-.88-6.8-2.66-1.35-1.79-2.08-4.44-2.23-8.08l-.02-.5.49-.05c3.54-.41 5.95-.86 9.35-2.15zm-10.27-9.78c.03-1.23.13-3.55.23-5.97.14-3.47.29-7.04.29-8.15 0-4.89-.45-7.44-.45-7.44l12.72 21.54.26.44-.42.27c-.13.09-3.22 2.13-5.97 2.99-1.32.41-2.39.61-3.27.61-1.05 0-1.87-.29-2.43-.88-.68-.71-1-1.83-.96-3.43z" />
        <path
            d="m232.17 44.26h-24.97c.57 1.39 1.64 4.55 1.64 8.7 0 5.41.36 47.79.37 48.22v.63s-.62-.1-.62-.1c-7.82-1.33-11.91-8.37-11.91-14.64l-.37-28.26c.18-6.85-1.39-11.19-10.35-15.68l-17.75 13.99c2.17 1.07 5.25 3.36 5.25 11.26l.3 27.61c.08 8.08 8.03 14.24 14.01 18.17 2.9 1.91 6.57 4.08 11.83 5.84 1.35-2.63 9.33-16.24 33-21.87l.5-.09c.12-.03.23-.04.35-.06-.44-.96-1.11-2.92-1.11-5.98 0-1.7-.16-42.6-.18-47.75z" />
    </g>
</svg>