<?xml version="1.0" encoding="UTF-8"?>
<svg xmlns="http://www.w3.org/2000/svg" viewBox="0 0 306 120">
    <g fill="currentColor" fill-rule="evenodd">
        <path
            d="M171.48 81.08c-.4-.27-1.28-.4-2.38.09-1.31.58-2.81 1.62-3.26 1.92-2.74 1.8-4.85 2.29-5.4 2.32-.49.03-4.24.49-3.96-2.23.3-3.05 1.98-4.73 3.72-6.31.73-.64 2.56-1.98 3.08-2.16.73-.24 1.49-.3 2.17-.37 1.4-.15 3.51-1.1 3.54-3.02.03-1.83-.43-3.57-1.19-4.97-.64-1.13-1.43-2.56-3.42-2.56-.88 0-2.29.12-3.26.4-.34.06-8.05 2.53-9.15 3.66-.98 1.01-.52 1.92.15 2.59.73.73 2.44 1.07 3.81.82 2.41-.46 5.37-2.26 6.95-2.96.46-.18 1.04-.55 1.31-.37.49.34.43 1.46.12 2.04-.21.4-1.43 1.68-2.93 2.9-2.01 1.65-4.51 3.32-5.55 4.18-1.59 1.31-2.9 2.77-3.66 3.81-.73 1.01-1.98 3.6-1.25 5.79.61 1.83 2.47 2.74 3.75 2.87 5 .37 9.76-2.32 11.77-2.96 2.23-.7 4.73-1.13 5.58-2.41.95-1.4.4-2.44-.55-3.08ZM141.05 64.03c-3.66-3.02-12.26-5.58-23.45-6.07-11.16-.49-16.1.46-21.56.88-3.51.24-1.95-1.34-1.71-1.62 2.89-3.4 7.43-8.75 15.96-15.34l-.29 1.86h1.46l.38-3.04c.24-.18.5-.37.75-.55.01.04.02.08.04.11l1.16 3.48h1.43l1.19-3.78c.18-.58.3-1.1.4-1.59h.03c.06.52.12 1.1.24 1.8l.52 3.57h1.46l-1.13-7.32c1.39-.92 2.82-1.85 4.36-2.81 4.74-2.92 8.97-5.18 12.68-6.95v.79h5.49v-3.22c3.07-1.24 5.6-2.06 7.56-2.59v5.81h5.58v-6.69c1.78.19 3.99.94 6.18 1.59.37 3.15 2.09 5.55 6.39 5.55 3.57 0 6.07-1.77 7.38-4.36l.03.03c-.24 1.13-.27 2.84-.27 3.84v.03h5.31V5.73h-5.61v10.49c0 3.19-1.54 5.96-3.7 6.79.04-.04.1-.07.13-.11.67-.95.37-1.86-2.68-3.42-.41-.21-.92-.43-1.49-.63V5.73h-5.55v11.64c-2.58-.53-5.03-.85-6.1-.82v-4.02c0-4.94-2.32-7.26-6.53-7.26-3.66 0-6.07 2.23-7.07 4.36-.52-2.1-2.13-4.36-5.98-4.36-3.23 0-5.85 1.71-7.17 4.36h-.09c.21-1.28.3-2.9.3-3.9h-5.28v21.74h2.6c-1.81 1.07-3.65 2.18-5.52 3.32-5.19 3.14-10.33 6.93-14.81 10.56.03-1.42.52-2.05 1.52-1.84l.09-1.4c-.98-.09-1.49.52-1.77 1.22h-.03c.06-.37.09-.82.09-1.1h-1.34v4.3c-5.42 4.48-9.71 8.58-11.65 10.73-2.35 2.62-4.76 4.7-5.82 6.04-.58.73-2.53 1.62-3.57 1.89-2.47.61-19.82 3.38-43.51 12.68-24.61 9.65-34 18.15-36.81 22.42-.98 1.49-1.1 3.32 0 4.36 1.01.98 3.26 2.29 5.73 3.14 3.87 1.34 6.43 1.83 7.71 1.62.95-.15 1.13-.73 1.31-1.34.24-.95-.4-1.31-.58-1.92-.27-.95-1.83-1.52-4.27-2.16-1.31-.34-5.58-2.13-1.62-5.4 6.86-5.67 13.05-9.91 30.16-16.71C64.93 67.85 74.87 67.27 77.4 66.84c2.44-.4 1.52.7.49 2.13-4.27 6.68-5.34 9.36-6.16 15.37-3.78 27.14 17.93 34.3 24.97 35.31 9.27 1.31 16.37-1.4 18.33-2.59.95-.58.95-1.49.64-2.71-.12-.55-.27-1.13-1.92-.37-.43.18-1.31.49-3.42 1.16-2.32.73-8.45 1.4-13.36.4-4.91-.98-24.73-7.44-19.94-31.8 2.07-10.49 8.35-17.96 21.92-20.37 6.19-1.1 11.4-1.68 17.72-1.59 6.37.09 13.57 1.31 20.03 4.48.55.27 1.25.91 1.86 1.19s2.1.09 3.02-.88c.52-.88.46-1.71-.55-2.53Zm4.39-54.09c2.07 0 2.59 1.43 2.59 3.75v3.57c-2.55.5-5.06 1.23-7.56 2.16v-2.34c0-4.24 2.53-7.14 4.97-7.14Zm-18.02 7.14c0-4.09 2.38-7.14 4.97-7.14 2.16 0 2.59 1.62 2.59 3.75v8.07c-2.5 1.18-5.01 2.52-7.56 3.97v-8.65Zm-12.47 23.05c-.18.55-.3.98-.43 1.56h-.03c-.09-.55-.21-1.07-.4-1.59l-.27-.83c.59-.42 1.21-.85 1.84-1.28l-.71 2.15ZM233.68 51.44c-1.13-1.28-4.76-2.56-7.44.15-2.81 2.81-7.75 14.15-8.87 15.86-5.85.82-8.32 6.98-12.32 10-1.28.98-3.02 1.16-4.3-.37-.95-1.13-.34-4.6-.82-7.14-.27-1.43-3.32-1.16-3.96-1.13-.88.03-1.49-.79-2.99-1.1-1.19-.24-4.09.7-5.58 1.92-1.16.95-3.38 2.93-5.24 5.82-1.4 2.2.03 4.67.95 5.52 2.01 1.83 5.73 1.65 7.17 1.01 1.19-.55 1.8-2.2 2.41-3.75.49-1.25 1.74-2.53 2.62-2.5.76.06 1.04 1.86 1.28 2.59.3.85 1.07 3.11 3.87 3.63 5.03.91 7.38-2.9 8.9-4.57 1.01-1.13 2.29-1.04 2.23-.55-.15 1.46-2.93 14.88-2.9 16.16.09 2.77 3.2 1.28 3.66.95.3-.21.43-.73.55-1.1 1.71-4.88 2.2-9.21 3.9-14.24 2.23-6.56 4.82-11.43 9.36-17.01 1.65-2.01 3.26-3.45 5.79-4.24 2.93-.95 4.18-3.14 1.74-5.92Zm-46.35 26.31c-4.09-.58.4-4.51 1.86-5.24.73-.37 3.02-.55 3.2-.09.46 1.1-3.35 5.61-5.06 5.34ZM305.09 69.03c-.24-1.25-.85-4.45-3.6-5.52-1.16-.46-3.51-.61-5.4.06-5.12 1.77-3.42 9.42-7.14 10.67-1.62.55-3.45.18-5.34.95-3.48 1.43-6.89 2.87-8.81 1.74-1.55-.88-1.25-3.35-1.34-5.09-.09-1.74-1.19-3.75-2.84-4.39-1.59-.61-4.48.34-5.64 1.8-1.04 1.34-5.43 8.6-9.12 7.99-1.22-.21-1.46-1.65-1.52-3.26-.09-1.98.76-4.48.79-5.58.06-2.07-.91-3.17-2.53-3.23-.88-.03-2.5.82-4.09 2.41-1.25 1.28-2.44 3.14-3.75 4.51-3.2 3.29-6.53 6.16-8.08 5.82-1.98-.43-1.46-4.94-2.1-6.53-.27-.64-1.07-1.13-2.44-.91-.67.12-4.06 1.1-4.15 3.51-.06 1.68.91 4.94 5.52 8.23 1.89 1.34 4.03 1.46 5.24.61 1.22-.85 3.66-3.45 5.03-4.67 1.37-1.19 4.67-4.33 6.37-3.63 2.01.82.46 5.76 3.99 6.56 3.45.76 4.7-1.13 8.23-3.87 1.98-1.56 3.78-1.95 5.18-1.8 1.92.21 2.35 2.35 2.96 3.54 1.19 2.32 2.29 3.63 5.73 3.35 3.45-.27 4.82-2.81 7.2-3.6 2.53-.82 4.76.4 6.92.64.4.03 1.13.3 1.8-.06 3.51-1.92 2.38-6.74 4.15-9.79.52-.88 1.59-1.68 2.44-1.68.98 0 1.65 1.01 1.8 1.56 1.49 4.94-.27 8.63-3.23 12.65-2.44 3.32-4.02 4.6-6.74 6.22-2.62 1.56-3.6 2.16-7.35 3.38-1.74.58-2.62 3.11-.91 3.96 2.23 1.1 5.49-.79 8.39-2.47 5.4-3.17 8.32-6.01 10.92-10.03 5.37-8.39 3.63-13.17 3.45-14.06Z" />
        <path
            d="M33.29 101.97c-.7-.24-2.26.18-2.56.4-.4.27-.64.67-.49 1.16.24.73.3 1.4 1.28 1.4l.58.06c.76 0 .7-.15 1.4-.52.88-.49.88-.98.73-1.74-.09-.43-.58-.64-.95-.76ZM119.25 111.54c-.79.34-2.13.4-2.41 1.22-.24.73.12.91.27 1.4.34 1.13 1.86 1.16 3.32.34.61-.34 1.59-1.43 1.28-2.29-.49-1.28-1.77-.95-2.47-.67ZM24.11 102.24c-1.13.15-2.93-.06-4.09-.27-.79-.15-2.74.61-2.5 1.52.37 1.25.95 1.22 1.46 1.74.55.58 1.19.98 2.13.98s2.26-.09 2.9-.12c1.8-.03 3.51-.3 4.21-1.1.88-1.04.61-1.43-.03-2.13-.76-.79-2.16-.88-4.09-.61ZM135.44 104.83c-3.26.34-11.53 4.21-12.32 4.73-1.22.76-1.01 2.01-.09 2.77.55.46 2.04.37 3.72-.37 1.1-.49 1.83-1.62 3.2-2.1 1.01-.37 2.29-1.34 3.51-1.74 3.38-1.16 4.3-3.54 1.98-3.29ZM179.5 36.16l-1.43.37v1.71h-.95v1.1h.95v2.81c0 1.28.37 1.74 1.59 1.74.4 0 .79-.06 1.19-.15v-1.16c-.21.06-.46.09-.7.09-.49 0-.64-.21-.64-.91v-2.41h1.34v-1.1h-1.34v-2.07ZM99.09 38.24h1.43v5.52h-1.43zM211.94 38.3c0-1.52-1.07-2.1-2.71-2.1-.85 0-1.56 0-2.17.03v7.5h1.43v-3.11h.06l2.1 3.11h1.75l-1.78-2.5c-.18-.24-.4-.55-.61-.82 1.13-.18 1.92-.98 1.92-2.1Zm-2.9 1.34c-.21 0-.43 0-.52-.03v-2.16c.15-.03.37-.03.58-.03.88-.03 1.34.34 1.34 1.07s-.52 1.16-1.4 1.16ZM169.19 40.58c0-1.37-.7-2.47-2.32-2.47s-2.59 1.25-2.59 2.93c0 1.95.98 2.84 2.74 2.84.7 0 1.4-.12 1.98-.37l-.12-1.1c-.49.21-1.07.34-1.62.34-1.04 0-1.52-.49-1.52-1.52h3.42c.03-.24.03-.46.03-.64Zm-3.45-.34c.09-.67.49-1.1 1.07-1.1.61 0 1.01.43.98 1.1h-2.04ZM212.43 43.73h-.02l.02.03v-.03zM191.82 43.76v-5.52h-1.43v2.65c0 .98-.55 1.8-1.28 1.8-.55 0-.7-.34-.7-.91v-3.54h-1.4v3.87c0 .98.4 1.77 1.65 1.77.91 0 1.56-.46 1.89-1.1-.06.27-.06.73-.06.98h1.34ZM99.82 37.51c.49.03.88-.37.88-.85s-.4-.85-.88-.85-.88.4-.88.85c0 .49.4.85.88.85ZM111.13 21.22c0 1.43-1.4 2.32-3.54 2.32-1.65 0-3.32-.3-4.67-.64l-.12 4.57c1.4.21 2.96.4 4.54.4 5.95 0 9.7-2.87 9.7-7.2 0-7.01-8.93-5.46-8.93-9 0-1.34 1.04-2.23 3.23-2.23 1.37 0 2.81.24 4.02.58l.18-4.42c-1.31-.21-2.68-.4-3.96-.4-6.13 0-9.24 3.14-9.24 6.95 0 7.41 8.78 5.21 8.78 9.06ZM183.95 41.5c0-1.52.49-2.2 1.52-1.98l.09-1.4c-.98-.09-1.49.52-1.77 1.22h-.03c.06-.37.09-.82.09-1.1h-1.34v5.52h1.43V41.5ZM192.12 21.22c0 1.43-1.4 2.32-3.54 2.32-1.65 0-3.32-.3-4.67-.64l-.12 4.57c1.4.21 2.96.4 4.54.4 5.95 0 9.7-2.87 9.67-7.2 0-7.01-8.9-5.46-8.9-9 0-1.34 1.04-2.23 3.23-2.23 1.37 0 2.81.24 4.02.58l.18-4.42c-1.31-.21-2.71-.4-3.96-.4-6.13 0-9.24 3.14-9.24 6.95 0 7.41 8.78 5.21 8.78 9.06ZM134.52 35.8c-.49 0-.88.4-.88.85 0 .49.4.85.88.85.49.03.88-.37.88-.85s-.4-.85-.88-.85ZM195.14 39.21h-.03c.06-.3.09-.73.09-.98h-1.34v5.52h1.43V41.1c0-1.01.61-1.8 1.28-1.8.55 0 .67.4.67.95v3.51h1.4v-2.65c0-1.07.67-1.8 1.28-1.8.52 0 .64.37.64.95v3.51h1.37v-3.81c0-1.25-.58-1.83-1.65-1.83-.95 0-1.56.55-1.8 1.1-.12-.52-.55-1.1-1.52-1.1-.82 0-1.49.43-1.83 1.1ZM223.44 39.33v-1.1h-1.34v-2.07l-1.43.37v1.71h-.95v1.1h.95v2.81c0 1.28.37 1.74 1.59 1.74.4 0 .79-.06 1.19-.15v-1.16c-.21.06-.46.09-.7.09-.49 0-.64-.21-.64-.91v-2.41h1.34ZM255.36 27.81c2.56 0 5-.49 7.01-1.22l-.61-4.67c-1.4.64-3.63 1.13-5.28 1.13-5.49 0-7.96-3.29-7.96-9.24 0-5.28 2.5-9.12 7.59-9.12 1.86 0 3.72.27 5.49.79l.55-4.76c-1.77-.49-3.84-.73-5.76-.73-9.12 0-13.63 6.07-13.63 14.7 0 6.77 3.08 13.11 12.59 13.11ZM251.61 43.76c-.03-.46-.03-.98-.03-1.43v-2.29c0-1.19-.49-1.92-2.29-1.92-.7 0-1.43.15-1.98.34l.12 1.19c.46-.27 1.13-.43 1.65-.43.79 0 1.07.3 1.07.88v.3c-1.89 0-3.2.7-3.2 2.01 0 .88.58 1.46 1.59 1.46.82 0 1.49-.43 1.77-1.07-.03.27-.06.61-.06.95h1.37Zm-2.65-.98c-.4 0-.67-.24-.67-.58 0-.46.34-.88 1.83-.88v.12h.03c0 .67-.49 1.34-1.19 1.34ZM242.19 43.88c.85 0 1.46-.43 1.74-1.04h.03c-.03.3-.06.67-.06.91h1.31v-8.11h-1.4v2.53c-.24-.03-.46-.03-.7-.03-1.83 0-2.93 1.28-2.93 3.14 0 1.59.67 2.59 2.01 2.59Zm.88-4.63c.24 0 .49.03.73.09v1.56c0 .95-.46 1.8-1.19 1.8-.64 0-.95-.52-.95-1.56 0-1.37.58-1.89 1.4-1.89ZM133.79 38.24h1.43v5.52h-1.43zM260.36 43.76h1.37v-3.81c0-1.25-.58-1.83-1.65-1.83-.95 0-1.56.55-1.8 1.1-.12-.52-.55-1.1-1.52-1.1-.82 0-1.49.43-1.83 1.1h-.03c.06-.3.09-.73.09-.98h-1.34v5.52h1.43v-2.65c0-1.01.61-1.8 1.28-1.8.55 0 .67.4.67.95v3.51h1.4v-2.65c0-1.07.67-1.8 1.28-1.8.52 0 .64.37.64.95v3.51ZM228.16 39.33v-1.1h-1.34v-2.07l-1.43.37v1.71h-.95v1.1h.95v2.81c0 1.28.37 1.74 1.59 1.74.4 0 .79-.06 1.19-.15v-1.16c-.21.06-.46.09-.7.09-.49 0-.64-.21-.64-.91v-2.41h1.34ZM236.12 38.24v5.52h1.43V41.5c0-1.52.49-2.2 1.52-1.98l.09-1.4c-.98-.09-1.49.52-1.77 1.22h-.03c.06-.37.09-.82.09-1.1h-1.34ZM234.35 40.58c0-1.37-.7-2.47-2.32-2.47s-2.59 1.25-2.59 2.93c0 1.95.98 2.84 2.74 2.84.7 0 1.4-.12 1.98-.37l-.12-1.1c-.49.21-1.07.34-1.62.34-1.04 0-1.52-.49-1.52-1.52h3.42c.03-.24.03-.46.03-.64Zm-3.45-.34c.09-.67.49-1.1 1.07-1.1.61 0 1.01.43.98 1.1h-2.04ZM212.79 14.94c.34-2.38.61-4.54.76-6.95h.09c.34 2.16 1.01 4.63 1.74 6.86l4.15 12.62h5.21l4.33-13.69c.7-2.13 1.13-4.06 1.49-5.79h.09c.21 1.89.46 3.9.85 6.49l1.95 12.99v.03h5.49L234.72.27h-6.1l-4.67 14.09c-.67 2.01-1.13 3.54-1.52 5.64h-.09c-.37-1.95-.85-3.78-1.49-5.73l-4.57-14h-6.13l-4.21 27.23h5.34l1.52-12.56ZM131.69 43.76v-8.11h-1.4v2.53c-.24-.03-.46-.03-.7-.03-1.83 0-2.93 1.28-2.93 3.14 0 1.59.67 2.59 2.01 2.59.85 0 1.46-.43 1.74-1.04h.03c-.03.3-.06.67-.06.91h1.31Zm-1.4-2.87c0 .95-.46 1.8-1.19 1.8-.64 0-.95-.52-.95-1.56 0-1.37.58-1.89 1.4-1.89.24 0 .49.03.73.09v1.56ZM213.28 41.07c0 1.95 1.01 2.77 2.59 2.77 1.65.03 2.84-1.22 2.84-2.96 0-1.89-1.01-2.77-2.59-2.77-1.68 0-2.84 1.25-2.84 2.96Zm3.96-.09c0 1.13-.52 1.68-1.22 1.68-.82 0-1.22-.58-1.22-1.71s.61-1.62 1.25-1.62c.79 0 1.19.58 1.19 1.65ZM59.05 22.69h-9.57v-6.9h9.09v-4.75h-9.06V4.82h9.51V.21H44.05v27.23h15v-4.75zM59.05 38.24h1.43v5.52h-1.43zM73.08 40.58c0-1.37-.7-2.47-2.32-2.47s-2.59 1.25-2.59 2.93c0 1.95.98 2.84 2.74 2.84.7 0 1.4-.12 1.98-.37l-.12-1.1c-.49.21-1.07.34-1.62.34-1.04 0-1.52-.49-1.52-1.52h3.42c0-.24.03-.46.03-.64Zm-3.48-.34c.09-.67.49-1.1 1.07-1.1.64 0 1.01.43.98 1.1h-2.04ZM56.95 43.76v-3.87c0-.98-.4-1.77-1.65-1.77-.91 0-1.56.43-1.89 1.1.06-.27.09-.73.09-.98h-1.34v5.52h1.43v-2.65c0-.98.55-1.8 1.28-1.8.52 0 .67.34.67.91v3.54h1.4ZM59.76 37.54c.49 0 .88-.37.88-.85s-.4-.85-.88-.85-.88.4-.88.85.4.85.88.85ZM65.34 43.76l2.1-5.52h-1.52l-.88 2.53c-.12.4-.24.82-.34 1.19h-.03c-.09-.4-.24-.85-.37-1.22l-.88-2.5h-1.56l2.04 5.52h1.43ZM161.29 37.51c.52 0 1.04.06 1.52.21l.15-1.31c-.49-.15-1.07-.21-1.59-.21-2.5 0-3.75 1.68-3.75 4.06 0 1.86.85 3.6 3.48 3.6.7 0 1.37-.12 1.89-.34l-.15-1.28c-.4.18-1.01.3-1.46.3-1.52 0-2.2-.88-2.2-2.53 0-1.43.7-2.5 2.1-2.5ZM125.31 40.58c0-1.37-.7-2.47-2.32-2.47s-2.59 1.25-2.59 2.93c0 1.95.98 2.84 2.74 2.84.7 0 1.4-.12 1.98-.37l-.12-1.1c-.49.21-1.07.34-1.62.34-1.04 0-1.52-.49-1.52-1.52h3.42c0-.24.03-.46.03-.64Zm-3.45-.34c.09-.67.49-1.1 1.07-1.1.61 0 .98.43.95 1.1h-2.01ZM46.95 43.88c1.98 0 3.11-.98 3.11-3.02v-4.57h-1.43v4.67c0 1.28-.49 1.74-1.59 1.74-1.25 0-1.56-.67-1.56-1.62v-4.82h-1.43v4.91c0 1.43.52 2.71 2.9 2.71ZM144.92 42.57c-.95 0-1.31-.64-1.31-1.59 0-1.04.43-1.71 1.34-1.71.37 0 .7.09 1.01.21l.15-1.22c-.37-.09-.76-.15-1.13-.15-1.95 0-2.87 1.34-2.87 3.05 0 1.89.98 2.68 2.5 2.68.58 0 1.13-.09 1.52-.3l-.12-1.22c-.3.15-.73.24-1.1.24ZM151.17 40.22v3.54h1.43v-3.87c0-.98-.4-1.77-1.65-1.77-.85 0-1.46.43-1.8 1.04h-.03c.06-.34.09-.79.09-1.13v-2.38h-1.43v8.11h1.43v-2.65c0-.98.55-1.8 1.28-1.8.52 0 .67.34.67.91ZM97.05 43.76c-.03-.46-.03-.98-.03-1.43v-2.29c0-1.19-.52-1.92-2.29-1.92-.7 0-1.43.12-1.98.34l.12 1.19c.49-.27 1.16-.43 1.65-.43.79 0 1.07.3 1.07.88v.3c-1.89 0-3.2.7-3.2 2.01 0 .88.58 1.46 1.59 1.46.82 0 1.49-.46 1.77-1.07-.06.3-.06.61-.06.95h1.37Zm-1.43-2.32c0 .67-.49 1.34-1.19 1.34-.43 0-.67-.21-.67-.58 0-.46.34-.88 1.83-.88h.03v.12ZM89.85 43.88c.4 0 .82-.06 1.22-.15v-1.16c-.21.06-.46.09-.7.09-.52 0-.67-.21-.67-.91v-2.41h1.34v-1.1H89.7v-2.07l-1.43.37v1.71h-.95v1.1h.95v2.81c0 1.28.37 1.74 1.59 1.74ZM174.1 38.11c-.91 0-1.55.43-1.89 1.1.06-.27.09-.73.09-.98h-1.34v5.52h1.43V41.1c0-.98.55-1.8 1.28-1.8.52 0 .67.34.67.91v3.54h1.4v-3.87c0-.98-.4-1.77-1.65-1.77ZM138.33 42.78c-.43 0-.85-.06-1.19-.15l-.03 1.16c.37.06.76.09 1.16.09 1.49 0 2.47-.73 2.47-1.8 0-1.8-2.26-1.37-2.26-2.29 0-.37.27-.58.82-.58.37 0 .73.06 1.04.15l.03-1.13c-.34-.06-.67-.09-1.01-.09-1.56 0-2.35.79-2.35 1.77 0 1.86 2.23 1.31 2.23 2.29 0 .37-.37.58-.91.58ZM79.36 22.14c0 3.51 2.29 5.73 6.22 5.73 3.23 0 5.92-1.71 6.95-4.15l.03.03c-.18 1.13-.21 2.41-.21 3.66h5.24c-.09-1.79-.12-3.82-.12-5.58V12.8c0-4.73-1.98-7.56-8.96-7.56-2.81 0-5.61.58-7.78 1.34l.49 4.67c1.83-1.04 4.45-1.71 6.43-1.71 3.14 0 4.24 1.19 4.24 3.45v1.19c-7.38 0-12.53 2.74-12.53 7.96Zm12.5-3.78c0 2.62-1.89 5.24-4.63 5.24-1.62 0-2.59-.91-2.59-2.32 0-1.74 1.31-3.45 7.23-3.45v.52ZM76.1 39.33h-.03c.06-.37.09-.82.09-1.1h-1.34v5.52h1.43v-2.26c0-1.52.49-2.2 1.52-1.98l.09-1.4c-.98-.09-1.49.52-1.77 1.22ZM70.76 18.57c0-6.04 2.01-8.66 6.04-7.84l.24-5.49c-3.78-.3-5.88 2.1-6.92 4.85h-.09c.27-1.52.4-3.26.4-4.36h-5.28v21.71h5.61v-8.87ZM84.48 38.24h1.43v5.52h-1.43zM85.22 35.83c-.49 0-.88.4-.88.85s.4.85.88.85.88-.37.88-.85-.4-.85-.88-.85ZM81.25 42.2c0 .37-.37.58-.91.58-.43 0-.85-.06-1.19-.15l-.03 1.16c.37.06.76.09 1.16.09 1.49 0 2.47-.73 2.47-1.8 0-1.8-2.26-1.37-2.26-2.29 0-.37.27-.58.82-.58.37 0 .73.06 1.04.15l.03-1.13c-.34-.06-.67-.09-1.01-.09-1.55 0-2.35.79-2.35 1.77 0 1.86 2.23 1.31 2.23 2.29Z" />
    </g>
</svg>