<?xml version="1.0" encoding="UTF-8"?>
<svg viewBox="0 0 437 120" xmlns="http://www.w3.org/2000/svg">
    <g fill="currentColor" fill-rule="evenodd">
		<path d="m3.83 20.89v-2.79c.05-.95.28-1.88.67-2.75.44-.94 1.1-1.76 1.93-2.39.8-.62 1.78-.95 2.79-.93 1.37-.14 2.73.36 3.68 1.36.77 1.12 1.15 2.46 1.07 3.82v13.8l3.65.14v-14.32c.14-2.13-.54-4.22-1.89-5.87-1.47-1.5-3.52-2.27-5.61-2.12-.64 0-1.29.1-1.91.26-.65.14-1.28.35-1.89.62-.6.3-1.15.7-1.62 1.17-.48.48-.88 1.03-1.17 1.65l-.29-3.25h-3.09v21.7h3.68z"/>
		<path d="m26.17 28.19c.84 1.01 1.89 1.83 3.08 2.39 1.28.63 2.7.96 4.13.95 1 0 2-.14 2.96-.43.91-.27 1.78-.67 2.58-1.19.9-.63 1.67-1.45 2.24-2.39.59-.92.98-1.97 1.12-3.06h-3.58c-.11.48-.28.94-.5 1.38-.22.36-.48.69-.79.98-1.09 1.01-2.55 1.53-4.03 1.41-1.48.06-2.92-.49-3.99-1.53-.68-.68-1.21-1.49-1.55-2.39-.36-.95-.54-1.96-.55-2.98h15.42v-2.36c0-1.41-.25-2.81-.74-4.13-.46-1.24-1.14-2.38-2.03-3.37-.79-.89-1.76-1.6-2.84-2.1-1.19-.52-2.47-.78-3.77-.76-1.73-.04-3.43.4-4.92 1.29-1.35.8-2.47 1.92-3.27 3.27-.6 1.01-1.04 2.1-1.29 3.25-.26 1.22-.39 2.46-.38 3.7-.01 1.5.21 2.99.67 4.42.42 1.34 1.11 2.59 2.03 3.65zm1.53-12.27c.23-.75.6-1.45 1.1-2.05.56-.64 1.25-1.15 2.03-1.5.81-.38 1.69-.57 2.58-.55.88-.03 1.76.15 2.55.53.67.37 1.24.89 1.67 1.53.44.59.78 1.25 1 1.96.22.78.33 1.58.33 2.39l-11.67.1c0-.81.15-1.62.41-2.39z"/>
		<path d="m49.61 25.42c0 .73.1 1.46.29 2.17.18.68.51 1.32.95 1.86.49.58 1.11 1.04 1.81 1.34.9.35 1.85.52 2.82.5.86.02 1.71-.04 2.55-.19.6-.1 1.2-.23 1.79-.41l.05-3.08-1.29.21-1.19.12c-.42.02-.84.02-1.27 0-.79.07-1.58-.18-2.2-.69-.54-.63-.8-1.45-.72-2.27v-12.58h6.45v-3.13h-6.45v-6.38l-3.65.86v5.54h-4.2v3.13h4.25v13.01z"/>
		<path d="m68.92 20.89v-2.79c.05-.95.27-1.87.64-2.75.45-.93 1.11-1.75 1.93-2.39 1.99-1.39 4.68-1.21 6.47.43.79 1.11 1.18 2.46 1.1 3.82v13.8l3.65.02v-14.32c.13-2.13-.55-4.23-1.91-5.87-1.48-1.51-3.55-2.29-5.66-2.12-1.25.01-2.49.32-3.6.88-1.14.58-2.09 1.46-2.75 2.55v-12.15h-3.65v30.98h3.77v-10.1z"/>
		<path d="m91.34 28.19c.84 1.01 1.89 1.83 3.08 2.39 1.32.65 2.78.98 4.25.95 1 0 2-.14 2.96-.43.91-.27 1.78-.67 2.58-1.19.9-.63 1.67-1.45 2.24-2.39.59-.92.98-1.97 1.12-3.06h-3.7c-.11.48-.28.94-.5 1.38-.22.36-.48.69-.79.98-1.09 1.01-2.55 1.53-4.03 1.41-1.48.06-2.92-.49-3.99-1.53-.68-.68-1.21-1.49-1.55-2.39-.36-.95-.54-1.96-.55-2.98h15.42v-2.36c.03-1.41-.2-2.8-.67-4.13-.46-1.24-1.14-2.38-2.03-3.37-.81-.9-1.81-1.61-2.91-2.1-1.18-.52-2.46-.78-3.75-.76-1.74-.05-3.45.4-4.94 1.29-1.35.8-2.47 1.92-3.27 3.27-.6 1.01-1.03 2.1-1.29 3.25-.26 1.22-.39 2.46-.38 3.7-.01 1.5.21 2.99.67 4.42.42 1.34 1.11 2.59 2.03 3.65zm1.62-12.25c.23-.75.6-1.45 1.1-2.05.52-.61 1.15-1.1 1.86-1.46.81-.38 1.7-.57 2.6-.55.87-.02 1.74.16 2.53.53.69.34 1.29.84 1.74 1.46.44.59.78 1.25 1 1.96.22.78.33 1.58.33 2.39l-11.58.12c0-.81.15-1.62.41-2.39z"/>
		<path d="m117.64 21.39v-1.79c.03-.64.11-1.28.24-1.91.13-.61.34-1.21.62-1.77.26-.55.61-1.05 1.05-1.48.5-.52 1.1-.93 1.77-1.22.75-.35 1.56-.52 2.39-.5.33-.02.67-.02 1 0l1.03.12v-3.6c-.57-.09-1.14-.14-1.72-.14-1.35 0-2.67.36-3.84 1.03-1.21.65-2.15 1.71-2.65 2.98l-.29-3.82h-3.22v21.65h3.63v-9.55z"/>
		<path d="m134.93 31.27c.65.02 1.3-.03 1.93-.14l.62-.12v-2.98c-.09.03-.19.03-.29 0h-1.19c-.57.07-1.15-.13-1.55-.55-.32-.5-.47-1.08-.43-1.67v-25.81h-3.65v25.95c-.09 1.4.29 2.78 1.07 3.94.88.99 2.17 1.5 3.49 1.38z"/>
		<path d="m142.9 29.43c.68.67 1.5 1.19 2.39 1.53 1.04.4 2.15.6 3.27.57 1.46.03 2.9-.3 4.2-.95 1.18-.62 2.16-1.56 2.82-2.72-.03.87.27 1.72.84 2.39.6.67 1.49 1.02 2.39.95.41.04.83.04 1.24 0 .4-.09.78-.23 1.15-.41v-2.58h-.93c-.32.02-.64-.09-.88-.31-.26-.32-.38-.73-.33-1.15v-10.5c.02-1.15-.2-2.3-.64-3.37-.54-1.24-1.45-2.28-2.6-2.98-1.53-.87-3.28-1.28-5.04-1.19-1.29-.01-2.57.19-3.8.6-1.1.32-2.09.92-2.89 1.74-.56.56-1.02 1.21-1.36 1.93-.35.82-.53 1.71-.53 2.6h3.58c-.01-.99.38-1.94 1.1-2.63.43-.41.94-.72 1.5-.91.77-.27 1.57-.4 2.39-.38.74-.02 1.47.09 2.17.31.54.16 1.03.44 1.46.81.48.42.8.98.93 1.6.08.57.1 1.15.05 1.72v1.6l-6.61.38c-1.28.04-2.53.32-3.7.84-.9.38-1.71.94-2.39 1.65-.58.6-1.01 1.33-1.27 2.12-.23.71-.35 1.45-.36 2.2 0 .82.16 1.63.45 2.39.32.8.8 1.53 1.41 2.15zm2.36-6.42c.28-.47.66-.87 1.12-1.17.47-.31.98-.54 1.53-.69s1.12-.25 1.69-.29l5.82-.33-.07 1.19c0 .9-.14 1.8-.43 2.65-.28.89-.76 1.71-1.41 2.39-.57.6-1.27 1.06-2.05 1.34-.77.27-1.57.41-2.39.41-1.22.13-2.43-.28-3.32-1.12-.62-.73-.95-1.65-.93-2.6-.02-.62.13-1.23.43-1.77z"/>
		<path d="m170.73 20.89v-2.79c.06-.95.29-1.88.67-2.75.45-.93 1.11-1.75 1.93-2.39 1.99-1.39 4.68-1.21 6.47.43.78 1.12 1.17 2.46 1.1 3.82v13.8l3.65.14v-14.32c.13-2.13-.55-4.23-1.91-5.87-1.47-1.5-3.52-2.27-5.61-2.12-.64 0-1.27.1-1.89.26-.65.13-1.28.34-1.89.62-.61.3-1.16.7-1.65 1.17-.48.48-.86 1.03-1.15 1.65l-.31-3.25h-3.17v21.7h3.75v-10.1z"/>
		<path d="m193.51 29.19c.76.73 1.66 1.29 2.65 1.65 1.13.43 2.33.64 3.53.62 1.28 0 2.55-.31 3.7-.88 1.16-.48 2.14-1.32 2.79-2.39l.26 2.82 3.06.02v-31.03h-3.65v11.82c-.3-.5-.69-.95-1.15-1.31-.48-.39-1.01-.71-1.58-.95-.57-.27-1.16-.47-1.77-.62-.6-.14-1.22-.21-1.84-.21-1.17-.02-2.33.19-3.41.62-.94.37-1.8.9-2.55 1.58-1.09 1.14-1.91 2.51-2.39 4.01-.57 1.7-.85 3.48-.84 5.28-.01 1.72.25 3.43.79 5.06.48 1.48 1.3 2.83 2.39 3.94zm.93-12.03c.17-.95.5-1.86.98-2.7.46-.79 1.1-1.46 1.89-1.93.92-.51 1.96-.76 3.01-.72.7-.01 1.39.12 2.03.41.54.26 1.04.59 1.48 1 .91.8 1.57 1.86 1.89 3.03.36 1.27.54 2.58.53 3.89.02 1.36-.15 2.71-.53 4.01-.31 1.17-.97 2.22-1.89 3.01-.44.41-.94.75-1.48 1.03-.65.24-1.34.34-2.03.29-1.05.05-2.1-.21-3.01-.74-.79-.46-1.44-1.13-1.89-1.93-.48-.83-.81-1.73-.98-2.67-.19-.98-.29-1.98-.29-2.98s.1-2 .29-2.98z"/>
		<path d="m229.1 27.19c-.53.47-1.17.81-1.86.98-.7.15-1.41.22-2.12.21-.71.01-1.41-.06-2.1-.21-.66-.1-1.28-.36-1.81-.76-.5-.4-.92-.88-1.24-1.43-.32-.6-.49-1.27-.5-1.96h-3.65c0 .92.19 1.83.55 2.67.36.89.88 1.7 1.55 2.39.88.89 1.97 1.55 3.17 1.91 2.57.73 5.29.73 7.85 0 1.18-.34 2.25-.99 3.1-1.86.52-.56.94-1.21 1.24-1.91.33-.8.49-1.66.48-2.53.02-1.53-.61-2.99-1.72-4.03-1.07-1.05-2.44-1.73-3.91-1.96-1.19-.21-2.2-.45-3.06-.45l-2.2-.29c-.77-.1-1.51-.39-2.15-.84-.56-.51-.84-1.25-.76-2.01 0-.61.21-1.2.57-1.69.42-.55.98-.97 1.62-1.22.45-.2.92-.32 1.41-.36h1.22c1.29-.08 2.56.34 3.56 1.17.34.32.62.7.84 1.12.25.49.38 1.03.41 1.58h3.68c.02-.81-.11-1.63-.41-2.39-.28-.67-.67-1.29-1.15-1.84-.78-.95-1.8-1.67-2.96-2.08-1.28-.47-2.63-.71-3.99-.69-1.26-.02-2.52.2-3.7.64-1.02.39-1.94.99-2.7 1.77-.52.55-.95 1.17-1.27 1.86-.36.74-.55 1.56-.55 2.39-.07 1.47.44 2.9 1.43 3.99 1.06 1.02 2.43 1.67 3.89 1.86l1.27.17 1.41.17 1.31.17.93.14c.93.06 1.82.42 2.53 1.03.54.5.85 1.2.86 1.93 0 .48-.09.95-.29 1.38-.18.39-.45.72-.79.98z"/>
		<path d="m259.87 78.85c.61-.63 1.33-1.15 2.12-1.53.93-.43 1.94-.65 2.96-.62 1.14-.03 2.27.23 3.29.74.83.45 1.55 1.1 2.08 1.89.27.46.49.95.67 1.46.18.57.29 1.15.33 1.74h8.24c-.09-1.37-.36-2.73-.81-4.03-.43-1.26-1.06-2.45-1.86-3.51-1.31-1.61-2.93-2.93-4.77-3.89-2.22-1.12-4.68-1.67-7.16-1.6-4.65-.07-9.09 1.94-12.1 5.49-1.31 1.7-2.29 3.62-2.89 5.68-1.24 4.6-1.24 9.46 0 14.06.6 2.06 1.58 3.98 2.89 5.68 1.37 1.6 3.05 2.91 4.94 3.84 2.22 1.13 4.68 1.69 7.16 1.65 2.48.08 4.95-.47 7.16-1.6 1.84-.96 3.47-2.28 4.77-3.89.81-1.06 1.44-2.25 1.86-3.51.45-1.31.72-2.68.81-4.06l-8.21-.07c-.04.59-.16 1.18-.33 1.74-.18.51-.4 1.01-.67 1.48-.53.79-1.24 1.43-2.08 1.86-1.02.53-2.15.78-3.29.74-1.02.03-2.04-.19-2.96-.64-.8-.39-1.51-.91-2.12-1.55-1.02-1.11-1.69-2.5-1.93-3.99-.27-1.58-.4-3.17-.41-4.77 0-1.6.14-3.2.41-4.77.23-1.5.89-2.89 1.91-4.01z"/>
		<path d="m346.69 73c-1.02-1.12-2.28-2-3.68-2.58-1.58-.65-3.28-.96-4.99-.93-2.02 0-4.01.44-5.85 1.29-1.87.84-3.41 2.26-4.39 4.06l-.6-4.49h-6.99v34.83h8.35v-14.18c0-1.46.05-3.06.14-4.77.04-1.55.38-3.09 1-4.51.54-1.23 1.35-2.32 2.39-3.17 1.03-.85 2.34-1.29 3.68-1.24 1.72-.22 3.43.43 4.56 1.74.86 1.44 1.28 3.1 1.19 4.77v21.34h8.38v-23.23c0-1.7-.27-3.38-.81-4.99-.51-1.46-1.33-2.81-2.39-3.94z"/>
		<path d="m374.28 98.09h-2.39c-1.06.09-2.11-.24-2.94-.91-.69-.8-1.03-1.86-.93-2.91v-16.92h8.76v-6.9h-8.76v-10.91l-8.38 2.08v8.74h-6.35v6.8h6.35v17.66c-.16 2.86.78 5.68 2.63 7.88 2.1 2.03 4.97 3.07 7.88 2.84 2.42 0 4.83-.32 7.16-.95l-.12-6.76c-1.15.14-2.12.26-2.91.26z"/>
		<path d="m434.22 69.8c-2.03 0-4.03.46-5.85 1.36-1.87.89-3.31 2.47-4.01 4.42l-.74-5.23h-7.16v34.8h8.43v-17.55c-.06-2.55.79-5.03 2.39-7.02 1.66-1.94 4.14-2.98 6.68-2.82.97.01 1.94.13 2.89.33v-8.09c-.87-.14-1.75-.21-2.63-.21z"/>
		<path d="m5.5 78.18c-.61-.64-1.35-1.15-2.17-1.48-1.02-.37-2.09-.55-3.17-.53v8.09h7.5c.06-2.23-.7-4.39-2.15-6.09z"/>
		<path d="m131.11 76.7c-1-.36-2.06-.54-3.13-.53-1.18-.03-2.35.22-3.41.74-.93.46-1.74 1.12-2.39 1.93-.58.71-1.04 1.52-1.34 2.39-.28.98-.43 1.99-.45 3.01h15.06c.06-2.23-.7-4.39-2.15-6.09-.62-.64-1.37-1.13-2.2-1.46z"/>
		<path d="m228.05 78.85c-.59.71-1.04 1.51-1.34 2.39-.29.98-.44 1.99-.45 3.01h7.5v-8.07c-1.14 0-2.27.25-3.29.74-.94.45-1.76 1.12-2.41 1.93z"/>
		<path d="m228.84 97.18c.65.61 1.38 1.13 2.17 1.53.85.39 1.78.61 2.72.62v-9.07h-7.42c-.03 1.33.18 2.66.62 3.91.37 1.15 1.03 2.18 1.91 3.01z"/>
		<path d="m219.5 47.69h-219.35v21.79h.19c2.47-.01 4.92.53 7.16 1.58 2.25 1.04 4.15 2.69 5.49 4.77 1.19 1.76 2.01 3.75 2.39 5.85.34 1.93.51 3.89.53 5.85v2.72h-15.76v9.07h.26c1.01.02 2.01-.1 2.98-.36.8-.26 1.52-.71 2.1-1.31.81-.81 1.38-1.83 1.67-2.94h7.97c-.14 1.18-.5 2.32-1.05 3.37-.54 1.1-1.21 2.12-2.01 3.06-1.4 1.69-3.22 2.99-5.28 3.75-2.05.76-4.23 1.15-6.42 1.15h-.24c.19 7.77 6.55 13.97 14.32 13.96h219.28v-13.99c-2.02 0-4.01-.39-5.87-1.17-1.76-.74-3.38-1.79-4.77-3.1-1.76-1.71-3.12-3.79-3.99-6.09-.92-2.49-1.37-5.13-1.31-7.78-.02-2.65.4-5.29 1.24-7.81.77-2.3 2.07-4.4 3.8-6.11 1.36-1.38 2.99-2.47 4.77-3.22 1.97-.81 4.08-1.22 6.21-1.19v-7.52c0-7.91-6.41-14.32-14.32-14.32zm-163.16 49.11c-.7 1.53-1.66 2.93-2.84 4.13-1.85 1.85-4.14 3.2-6.66 3.91-2.7.8-5.51 1.21-8.33 1.19-2.56 0-5.1-.38-7.54-1.12-2.48-.73-4.76-2.02-6.66-3.77-1.47-1.35-2.67-2.97-3.53-4.77-.96-1.94-1.44-4.09-1.41-6.25h8.83c-.03 1.1.17 2.2.6 3.22.44.96 1.05 1.83 1.79 2.58 1.01 1.03 2.3 1.74 3.7 2.05 2.94.72 6.01.72 8.95 0 1.34-.32 2.56-1 3.53-1.98.52-.55.97-1.17 1.34-1.84.4-.84.59-1.77.55-2.7.08-1.51-.55-2.97-1.72-3.94-1.11-.88-2.42-1.49-3.82-1.77-1.74-.32-3.51-.55-5.28-.67-1.93-.14-3.68-.33-5.23-.6-1.61-.25-3.17-.71-4.65-1.38-1.42-.65-2.72-1.54-3.82-2.65-1.08-1.15-1.94-2.49-2.51-3.96-.71-1.68-1.08-3.49-1.07-5.32-.03-1.75.33-3.49 1.07-5.08.76-1.57 1.77-3 3.01-4.23 1.71-1.65 3.77-2.91 6.02-3.68 4.92-1.72 10.27-1.78 15.23-.17 2.2.7 4.22 1.88 5.92 3.44 1.41 1.31 2.58 2.85 3.46 4.56.87 1.73 1.33 3.63 1.36 5.56h-8.74c-.06-.87-.27-1.73-.62-2.53-.37-.8-.86-1.53-1.46-2.17-.9-.87-2-1.51-3.2-1.86-1.3-.44-2.66-.66-4.03-.67-1.39 0-2.76.18-4.11.53-1.37.33-2.61 1.06-3.58 2.08-.48.52-.87 1.1-1.17 1.74-.3.72-.45 1.49-.43 2.27-.1 1.33.39 2.64 1.34 3.58.97.87 2.19 1.42 3.49 1.58 1.5.24 3.22.43 5.11.6s3.63.38 5.18.62c1.74.25 3.45.73 5.06 1.43 1.54.66 2.94 1.59 4.15 2.75 1.2 1.17 2.16 2.57 2.82 4.11.7 1.72 1.04 3.56 1 5.42.05 1.98-.32 3.95-1.1 5.78zm14.08-4.32c.24 1.49.91 2.87 1.93 3.99.62.64 1.33 1.17 2.12 1.58 1.99.9 4.27.9 6.25 0 .84-.44 1.55-1.08 2.08-1.86.27-.47.49-.97.67-1.48.18-.57.29-1.15.33-1.74h8.24c-.09 1.38-.36 2.75-.81 4.06-.43 1.26-1.06 2.45-1.86 3.51-1.31 1.61-2.93 2.93-4.77 3.89-2.22 1.12-4.68 1.67-7.16 1.6-2.49.04-4.94-.52-7.16-1.65-1.89-.93-3.57-2.24-4.94-3.84-1.31-1.7-2.29-3.62-2.89-5.68-1.24-4.6-1.24-9.46 0-14.06.6-2.06 1.58-3.99 2.89-5.68 3.01-3.55 7.45-5.56 12.1-5.49 2.48-.08 4.95.47 7.16 1.6 1.84.96 3.47 2.28 4.77 3.89.81 1.06 1.44 2.25 1.86 3.51.45 1.3.72 2.66.81 4.03h-8.24c-.04-.58-.16-1.16-.33-1.72-.17-.51-.4-1.01-.67-1.48-.53-.79-1.24-1.43-2.08-1.89-1.02-.51-2.15-.77-3.29-.74-1.02-.02-2.03.19-2.96.62-.79.38-1.51.9-2.12 1.53-1.02 1.12-1.7 2.51-1.93 4.01-.27 1.58-.4 3.17-.41 4.77 0 1.58.14 3.16.41 4.73zm35.62 12.68h-8.5v-34.8h8.5zm.19-39.63h-8.98v-8.69h8.98zm37.45 24.73h-23.25c-.02 1.3.19 2.59.62 3.82.39 1.14 1.04 2.17 1.91 3.01.65.61 1.38 1.12 2.17 1.53.93.43 1.95.65 2.98.62 1.01.02 2.01-.1 2.98-.36.8-.26 1.52-.71 2.1-1.31.81-.81 1.38-1.83 1.67-2.94h8.04c-.14 1.18-.5 2.32-1.05 3.37-.51 1.09-1.15 2.12-1.91 3.06-1.4 1.69-3.22 2.99-5.28 3.75-2.05.76-4.23 1.15-6.42 1.15-2.15.05-4.29-.36-6.28-1.19-4.04-1.73-7.18-5.06-8.69-9.19-.92-2.46-1.39-5.06-1.38-7.69-.02-2.65.4-5.29 1.24-7.81.78-2.3 2.08-4.39 3.8-6.11 1.36-1.38 2.99-2.47 4.77-3.22 2.03-.84 4.21-1.24 6.4-1.19 2.47-.01 4.92.53 7.16 1.58 2.25 1.04 4.15 2.69 5.49 4.77 1.19 1.76 2.01 3.75 2.39 5.85.34 1.93.51 3.89.53 5.85v2.67zm35.5 14.9h-8.43v-21.34c.08-1.67-.33-3.34-1.19-4.77-1.14-1.3-2.84-1.95-4.56-1.74-1.34-.05-2.64.39-3.68 1.24-1.03.86-1.85 1.95-2.39 3.17-.62 1.42-.97 2.96-1 4.51-.1 1.72-.14 3.31-.14 4.77v14.18h-8.33v-34.83h7.16l.6 4.49c.98-1.79 2.53-3.22 4.39-4.06 1.77-.82 3.69-1.26 5.63-1.29 1.71-.03 3.41.28 4.99.93 1.4.58 2.65 1.46 3.68 2.58 1.05 1.14 1.86 2.48 2.39 3.94.57 1.6.87 3.29.88 4.99zm14.13-12.68h.05c.24 1.49.91 2.87 1.93 3.99.61.65 1.33 1.18 2.12 1.58 1.99.9 4.27.9 6.25 0 .84-.44 1.55-1.08 2.08-1.86.27-.47.49-.97.67-1.48.18-.57.29-1.15.33-1.74h8.24c-.09 1.38-.36 2.75-.81 4.06-.43 1.27-1.07 2.45-1.89 3.51-2.92 3.57-7.32 5.6-11.94 5.49-4.65.04-9.07-1.97-12.1-5.49-1.32-1.69-2.3-3.62-2.89-5.68-1.24-4.6-1.24-9.46 0-14.06.59-2.06 1.57-3.99 2.89-5.68 3.01-3.55 7.45-5.56 12.1-5.49 4.61-.11 9.02 1.92 11.94 5.49.82 1.06 1.46 2.24 1.89 3.51.44 1.27.71 2.58.81 3.91h-8.28c-.04-.58-.16-1.16-.33-1.72-.17-.51-.4-1.01-.67-1.48-.53-.79-1.24-1.43-2.08-1.89-1.02-.51-2.15-.77-3.29-.74-1.02-.02-2.03.19-2.96.62-.8.37-1.52.89-2.12 1.53-1.02 1.12-1.7 2.51-1.93 4.01-.27 1.58-.4 3.17-.41 4.77 0 1.62.13 3.24.41 4.85z"/>
		<path d="m314.51 87.61c-.01-1.96-.19-3.92-.53-5.85-.38-2.09-1.19-4.09-2.39-5.85-1.34-2.08-3.24-3.74-5.49-4.77-2.24-1.04-4.69-1.58-7.16-1.58-2.19-.05-4.37.36-6.4 1.19-1.79.75-3.41 1.85-4.77 3.22-1.71 1.72-3.01 3.81-3.77 6.11-.85 2.51-1.27 5.15-1.24 7.81-.04 2.67.43 5.33 1.38 7.83 1.49 4.14 4.64 7.47 8.69 9.19 1.98.83 4.11 1.24 6.25 1.19 2.19 0 4.37-.38 6.42-1.15 2.06-.77 3.89-2.06 5.3-3.75.76-.94 1.4-1.96 1.91-3.06.54-1.05.89-2.19 1.03-3.37h-8.04c-.3 1.11-.87 2.12-1.67 2.94-.59.6-1.32 1.05-2.12 1.31-.96.26-1.96.38-2.96.36-1.03.03-2.05-.18-2.98-.62-.8-.4-1.53-.91-2.17-1.53-.88-.83-1.54-1.86-1.91-3.01-.44-1.23-.65-2.52-.64-3.82h23.37l-.1-2.82zm-23.42-3.34c.03-1.02.19-2.03.48-3.01.29-.87.75-1.68 1.34-2.39.64-.82 1.46-1.48 2.39-1.93 1.06-.52 2.23-.77 3.41-.74 1.06-.02 2.11.16 3.1.53.83.33 1.57.83 2.17 1.48 1.45 1.69 2.21 3.86 2.15 6.09l-15.04-.02z"/>
		<path d="m410.92 87.61c-.01-1.96-.19-3.92-.53-5.85-.37-2.1-1.19-4.09-2.39-5.85-1.33-2.09-3.24-3.75-5.49-4.77-2.24-1.05-4.69-1.59-7.16-1.58-2.19-.05-4.37.36-6.4 1.19-1.79.75-3.41 1.84-4.77 3.22-1.72 1.72-3.01 3.81-3.77 6.11-.85 2.51-1.27 5.15-1.24 7.81-.03 2.67.43 5.33 1.36 7.83.87 2.26 2.21 4.31 3.94 6.02 1.4 1.3 3.02 2.35 4.77 3.1 1.98.83 4.11 1.24 6.25 1.19 2.19 0 4.37-.38 6.42-1.15 2.06-.77 3.89-2.06 5.3-3.75.75-.94 1.39-1.97 1.91-3.06.54-1.05.89-2.19 1.03-3.37h-8.02c-.3 1.11-.87 2.12-1.67 2.94-.59.6-1.32 1.05-2.12 1.31-.97.26-1.98.39-2.98.36-1.02.02-2.03-.19-2.96-.62-.8-.4-1.53-.91-2.17-1.53-.88-.82-1.54-1.86-1.91-3.01-.44-1.23-.65-2.52-.64-3.82h23.37l-.12-2.75zm-23.42-3.34c.03-1.02.19-2.03.48-3.01.29-.87.75-1.68 1.34-2.39.64-.82 1.46-1.48 2.39-1.93 1.06-.52 2.23-.77 3.41-.74 1.06-.02 2.11.16 3.1.53.83.33 1.57.83 2.17 1.48 1.45 1.69 2.21 3.86 2.15 6.09l-15.04-.02z"/>
	</g>
</svg>