<?xml version="1.0" encoding="UTF-8"?>
<svg viewBox="0 0 56 120" xmlns="http://www.w3.org/2000/svg">
    <g fill="currentColor" fill-rule="evenodd">
		<path d="m55.51 2.72c-.08-1.51-1.34-2.72-2.88-2.72h-3.85c-1.52.09-2.72 1.34-2.73 2.88l-.02 38.09v.36c-.09 8.01-3.29 12.76-9.67 12.93h-15.5s-.46 0-.46 0c-3.84.08-7.31 1.11-10.26 2.99.7-6.62 6.46-11.8 13.48-11.8h10.21c1.53-.09 2.75-1.33 2.75-2.86v-11.92c-.06-.7-.36-1.37-.86-1.86-.55-.54-1.29-.85-2.06-.84h-10.42c-12.61.21-22.76 10.4-22.76 22.96v25.76s0 40.43 0 40.43v.16c.09 1.51 1.35 2.72 2.89 2.72h3.85c1.52-.09 2.72-1.34 2.73-2.88l.02-40.11v-.34c.11-7.71 3.93-12.77 10.5-12.95h15.5s.47 0 .47 0c3.46-.07 6.57-.92 9.24-2.49-1.22 6.06-6.72 10.61-13.29 10.61h-10.21c-1.53.09-2.75 1.33-2.75 2.86v11.92c.06.7.36 1.36.86 1.86.55.54 1.29.85 2.06.84h10.43c12.6-.21 22.75-10.4 22.75-22.96v-63.64zm-53.18 46.82.02-.33c.88-10.88 10.06-19.43 21.26-19.43h10.17c.25.03.48.14.66.32l.08.09.07.1c.11.17.17.38.17.58v4.82h-11.54s-.4.01-.4.01c-9.12.3-16.9 5.84-20.39 13.68l-.12.27v-.11zm-.04 9.11v-.56c.02-.56.06-1.12.12-1.67 1.12-10.4 10.19-18.52 21.21-18.52h11.16v4.81c-.06.53-.53.95-1.11.95h-10.34s-.3.01-.3.01c-8.1.3-14.6 6.71-14.76 14.65v.26s-.23.19-.23.19l-.35.3c-2.29 2.05-4.09 4.65-5.31 7.63l-.08.21v-8.26zm33.68 3.27h-15.82c-7.61.38-11.98 6.43-11.98 15.1l-.02 40.1v.11c-.06.54-.52.96-1.08.96h-3.8c-.55-.06-.97-.52-.97-1.08v-40.53c.11-7 2.77-13.08 7.35-16.75 3.06-2.46 6.87-3.77 11.22-3.77h15.82c7.46-.37 11.15-6.12 11.15-15.1l.02-38.08v-.11c.06-.54.52-.96 1.08-.96h3.8c.55.06.97.52.97 1.08v38.52c-.1 7.4-2.72 13.62-7.33 17.18-2.82 2.18-6.33 3.33-10.41 3.33zm17.7 5.84-.02.33c-.88 10.88-10.06 19.43-21.26 19.43h-10.17c-.25-.03-.48-.14-.66-.32l-.08-.09-.07-.1c-.11-.17-.17-.38-.17-.58v-4.82h11.55c9.28-.16 17.24-5.74 20.78-13.69l.12-.27v.11zm.04-9.11v.55c-.02.54-.06 1.08-.11 1.62-1.09 10.44-10.17 18.59-21.22 18.59h-11.16v-4.81c.06-.53.53-.95 1.11-.95h10.35c7.91-.15 14.41-6.14 15-13.8l.12-.09c2.61-2.12 4.6-5 5.9-8.4v7.3z"/>
	</g>
</svg>