<?xml version="1.0" encoding="UTF-8"?>
<svg xmlns="http://www.w3.org/2000/svg" viewBox="0 0 472 120">
    <g fill="currentColor" fill-rule="evenodd">
        <path
            d="M226.27 89.1c-1.6-.24-3.21.57-4.01 1.98-1.32 2.22-2.17 4.67-2.59 7.21-.42-2.64-.38-6.18-.85-7.73-.19-.61-.47-1.13-1.32-1.13-.9 0-1.08.57-.94 1.51.09.94.85 6.79 1.04 8.82 0 1.08.24 2.12.66 3.11.28.47.75.75 1.27.75.66.05 1.08-.14 1.13-1.13.24-2.26.71-4.48 1.46-6.6.85-2.55 1.79-3.77 2.45-3.77.8.05.71.57.57 1.23-.09.38-.09.71.52.66.57 0 1.18-.42 1.6-1.6.52-1.41.38-3.02-.99-3.3Zm39.14-3.87c-1.18-.38-1.65.05-1.79.57-.14.61.42 1.13 1.18 1.32.75.19 1.6.14 1.79-.38s-.33-1.23-1.18-1.51Zm-52.48 11.69c-.05-1.08.05-2.83.14-4.72.05-1.08-.14-1.98-.94-2.07-1.08-.09-1.41.9-1.7 1.98-.9 2.45-2.12 4.81-3.58 6.98-1.04 1.46-1.32 1.23-1.93-.14-.99-2.26-1.65-4.62-2.03-7.07-.14-1.65-.99-1.89-1.65-1.84-1.46.09-1.23 1.32-.99 2.31.9 3.63 2.64 9.62 5.71 10.14 2.12.33 3.73-3.82 4.81-6.41.09 2.26.33 4.53.71 6.74.09.57.28 1.08.75 1.23.61.19 1.6.28 1.37-1.13-.38-1.89-.57-3.91-.66-5.99Zm82.75-.24c-.09-1.04-.71-1.27-1.65-1.32-.8-.05-1.04.57-.99 1.32.05.38-.05.8-.28 1.13-.52.71-1.08 1.37-1.65 2.03-1.84 2.12-3.82 3.49-5.28.33-1.6-3.49 2.73-6.7 5.71-7.64 1.23-.38 1.7-.05 1.7-.99 0-.33-.85-.99-3.3-.47-3.44 1.13-5.99 4.01-6.74 7.54-.05 2.69 2.07 4.9 4.76 4.95h.24c2.36-.05 4.48-1.41 5.52-3.58.24 2.03.75 6.98 1.04 9.9.38 2.31.19 4.62-.57 6.84-.66 1.65-1.74 2.12-2.97 1.84-.66-.14-.85.38-.47.9 1.13.75 2.64.71 3.73-.14 4.06-2.45 2.12-11.88 1.84-15.56-.28-3.68-.52-6.04-.61-7.07Zm-14.85-1.93c0-2.22 0-3.44-1.41-3.58s-2.26.66-3.54 2.22c-1.37 1.7-3.63 5.8-4.62 6.79-.38.38-.42.28-.52-.09-.24-2.17-.24-4.39 0-6.55.28-1.18-.24-1.27-.9-1.46-.99-.28-1.46-.09-1.56.94-.19 2.73-.09 5.52.28 8.25.09.8.57 1.46 1.27 1.79.71.57 1.74.57 2.45-.05.75-.85 2.83-5.23 4.86-8.11.57-.8 1.13-.75 1.18.14.19 3.21.09 6.46-.19 9.67-.19.9.19 1.84.99 2.36.33.24.8.24 1.13 0 .33-.33.57-.52.24-.99-.33-1.18-.47-2.45-.28-3.68.09-1.56.61-5.42.61-7.64Zm-85.25-3.25c-.52-.14-1.04.14-1.23.61 0 .05 0 .09-.05.09-.09.33.19.71.85.94 1.23.47 2.4 2.31 1.27 5.71-1.13 3.39-3.63 4.43-5.19 3.87-1.46-.57-1.98-3.21-1.13-5.94.99-3.25 2.31-4.67 3.63-5.09 1.04-.38 1.37-1.7.38-1.93-.8-.14-1.6.05-2.26.47-1.98 1.27-3.44 3.21-4.06 5.52-1.13 3.58-.8 7.64 2.55 8.77 3.54.9 7.17-1.18 8.11-4.76 1.7-4.29-.09-7.59-2.88-8.25Zm69.31 1.6c.09-1.46-.75-1.98-1.41-2.03-.94-.09-1.32.33-1.41 1.74-.19 3.77.09 7.59.85 11.27.47 1.6 1.46 1.74 2.12 1.56.47-.14.61-.52.38-1.08-.85-3.73-1.04-7.64-.52-11.46Zm-8.58-1.79c-1.98-.24-3.49 1.89-5.94 7.4-.47-4.86-.24-9.71.66-14.48.28-.85-.24-1.79-1.08-2.03-.09-.05-.24-.05-.38-.05-.75 0-.9.66-1.04 1.79-.57 5.56-.57 11.18 0 16.74.19 1.23.66 1.56 1.27 1.6.66.05 1.27-.38 1.46-1.04.9-2.26 2.03-4.39 3.35-6.37.71-.94 1.51-1.08 1.89.33.75 3.36.94 6.81.57 10.23-.05.94.47 1.27.99 1.27.66 0 1.04-.42 1.08-1.23 1.08-9.1-.61-13.91-2.83-14.19Zm-25.56-6.27c-.19.85.75 1.13 1.51 1.08.71-.05 1.37-.28 1.41-.75.05-.42-.52-1.08-1.41-1.13-1.08-.05-1.41.33-1.51.8Zm2.55 12.54c-.14-1.84-.14-3.73-.05-5.61.05-.85-.24-1.41-1.23-1.51-1.18-.09-1.65.57-1.65 1.93-.05 3.11.38 6.18 1.18 9.15.57 1.51 1.51 1.74 2.4 1.51.75-.19.57-.75.24-1.18-.61-1.32-.94-2.78-.9-4.29Zm9.01-2.97c-1.32-1.13-2.5-2.36-3.63-3.68-.61-.9-.38-1.84.42-2.07 1.08-.42 2.31.09 2.78 1.18l.05.09c.05.61.61 1.04 1.23.99.09 0 .19-.05.28-.09.75-.14 1.27-1.18.61-2.36-.94-1.46-2.64-2.17-4.34-1.89-2.73.09-3.96 1.41-3.96 2.92s1.18 3.02 3.68 5.33c2.5 2.26 4.34 3.68 4.2 5.66-.38 2.26-2.17 4.01-4.43 4.34-.94-.09-1.79-.66-2.17-1.51-.09-.28-.42-.42-.71-.33s-.42.38-.33.66c.05.85.42 1.65 1.04 2.26 1.13.9 2.69 1.04 3.96.33 1.7-.61 5.09-3.06 5.09-6.18-.05-1.93-1.27-3.39-3.77-5.66Zm-57.15 8.06c-.05-1.65-.42-8.2-.66-9.57-.24-1.32-.75-2.4-2.03-2.69-1.27-.28-2.22.94-3.06 2.07-1.51 2.5-2.83 5.05-4.01 7.73-.71-2.55-.94-5.23-.61-7.87.24-.61-.09-1.32-.75-1.56-.09-.05-.14-.05-.24-.05-.71-.14-1.37.33-1.51.99v.09c-.47 3.06-.19 6.18.8 9.05.42 1.41 1.08 2.26 2.22 2.26s1.56-.99 1.98-2.03c.94-2.26 2.07-4.48 3.35-6.6.38-.61.66-.99.94-.94.28 0 .57.33.71 1.04.52 2.69.75 5.42.85 8.11 0 .9.19 1.74.61 2.55.38.75 1.32 1.04 2.07.66.38-.24.52-.75.28-1.18-.05-.05-.05-.09-.09-.14-.61-.38-.94-1.18-.85-1.93Zm196.25-1.46c-.47-3.21-.8-7.45-.99-10.94.75-.14 1.56-.28 2.31-.47 1.93-.47 4.48-.8 5.66-.94 1.13-.14 1.84-.57 1.41-1.04-.28-.33-.61-.61-.94-.9-2.83.19-5.71.52-8.53.9-.05-.9-.05-1.74-.05-2.64 0-2.88-.19-3.39-1.18-3.58-.9-.19-1.65.19-1.6 2.03 0 .57.14 2.31.33 4.57-.57.09-1.18.14-1.74.14-1.23-.05-1.51.61-1.27 1.32.28.71 1.27 1.04 2.4.99.24 0 .52-.05.8-.05.42 4.95.99 10.99 1.27 12.73.24 1.46.61 2.69 1.46 2.69 1.08 0 2.5-1.79 2.5-4.34.05-1.7-1.27-.85-1.84-.47Zm16.17-7.78c.24-2.03-.09-2.59-.75-2.73-1.08-.24-1.32 1.08-1.46 3.25-.57 2.88-1.93 5.47-3.96 7.59-.8.75-1.51.8-2.12-.47-.75-2.07-1.23-4.29-1.41-6.51-.28-2.17-.19-2.97-1.27-2.97-1.51 0-1.51.8-1.46 1.98.24 3.02 1.08 5.99 2.45 8.68.71 1.6 2.55 2.31 4.15 1.6.57-.24 1.04-.66 1.37-1.18.85-1.04 1.6-2.17 2.17-3.35.09 1.89.52 3.68 1.27 5.42.57.94 1.84.8 2.03-.52 0-.52-.19-.99-.57-1.32-.71-3.11-.8-6.32-.42-9.48Zm-36.92 6.88c-.19-2.69-.24-6.37-.33-7.64-.05-.94-.42-1.27-2.17-1.74-1.23-.33-1.79-.14-2.26.33-2.17 2.92-4.01 6.04-5.56 9.34-.28-2.26-.42-4.57-.42-6.88.09-1.56 0-2.59-.99-2.83-.75-.19-1.08.42-1.13 1.74-.05 3.35.14 6.7.52 10 .28 1.27.33 1.37 1.23 1.74.99.42 1.65 0 1.79-.52 1.08-3.82 2.88-7.36 5.33-10.42.61-.75.8-.75.99.05.57 2.73.8 10.47.94 12.07.09 1.46.42 1.65 1.56 1.89 1.04.24 1.32-.19 1.08-1.51-.28-1.89-.47-3.77-.57-5.61Zm13.91-4.81c-.24-.42-.28-.8-1.46-1.04s-1.13 1.13-1.13 2.73c-1.79 1.65-6.6 3.82-7.31 2.5-.85-1.56 2.31-5.66 6.84-7.4.8-.94.09-1.6-.75-1.7-.85-.05-2.69.09-5.56 2.83s-3.68 5.75-1.93 7.83c1.74 2.07 5.89.42 9.01-1.7.09 2.12.57 4.24 1.37 6.22.75 1.32 1.89.94 1.89-.24-.71-3.3-1.04-6.7-.94-10.04Zm48.94-3.21c-2.31-1.89-5.56-.52-7.92 1.84-1.13 1.08-1.93 2.45-2.31 3.96-.28-.05-.61-.09-.9-.19-.94.38-.66.99-.33 1.6.28.33.66.52 1.08.61.05.9.33 1.74.8 2.5 2.12 2.64 5.75 3.54 8.86 2.17.61-.24 1.27-1.37 1.08-1.74-.24-.52-.8-.28-1.46-.05-3.21 1.13-6.04.09-6.7-2.17-.05-.19-.09-.38-.14-.52.42 0 .85-.05 1.37-.09 2.97-.38 6.7-2.36 7.5-4.39.47-1.23.09-2.69-.94-3.54Zm-3.63 4.57c-1.37.71-2.88 1.18-4.39 1.32.33-1.08.94-2.03 1.79-2.83 1.04-1.13 3.73-2.83 4.67-1.98.75.71.05 2.45-2.07 3.49Zm-10.04-6.84c-3.21.19-4.43 2.83-5.38 5.28-.24-1.51-.57-3.49-.75-4.29-.09-.52-.57-.9-1.08-.85h-.09c-.47 0-.85.33-.85.8v.09c.14 4.48.8 8.91 2.07 13.2.19.61.75 1.04 1.41.99.8.05.94-.14.71-1.79-.33-1.84-.42-3.68-.19-5.52.71-3.82 2.4-6.18 3.54-5.99 1.13.19.52 2.5.38 2.88s-.14.8.33.9c1.56.28 2.26-1.51 2.26-3.35-.05-1.98-.85-2.4-2.36-2.36Zm-73.75.85c-.75-.09-1.23.33-1.7 2.31-1.04 2.59-2.36 5.09-3.96 7.4-1.23 1.79-2.03 1.7-2.45-.24-.38-1.74-.66-3.49-.8-5.28-.09-1.23-.52-1.7-1.08-1.84-.94-.24-1.13.99-.99 2.45.24 2.17.71 4.29 1.41 6.32.33.8.99 1.41 1.84 1.65.99.52 2.22.19 2.83-.71 1.56-2.17 2.88-4.43 3.96-6.88-.94 4.81-1.79 8.06-2.31 10.75-.66 3.25-.75 6.65-.24 9.95.14.61.14 1.27.05 1.89-.09.57.33.85.85.99s.8.05 1.04-.99c-.05-1.08-.14-2.12-.38-3.16-.42-2.73-.33-5.56.33-8.25.99-4.57 2.78-9.67 3.02-12.87.09-3.25-.71-3.44-1.41-3.49Zm-17.02-.28c-3.35.85-6.18 3.16-7.64 6.27-.9-4.86-1.46-9.76-1.74-14.71-.05-.85-.75-1.46-1.56-1.46s-1.23.61-1.13 1.7c.42 4.34 1.89 12.02 2.12 13.72.28 1.46.42 2.92.33 4.43-.14.8.14 1.46.99 1.46s1.32-.42 1.6-1.37c.85-3.44 3.16-6.37 6.37-7.97 1.08-.47 1.65-.42 1.89.52.8 3.06 0 6.37-2.12 8.72-.66.66-1.65.85-2.5.47-.47-.19-.75.19-.47.75.28.52.75.94 1.98.75 2.4-.61 4.34-2.45 5.05-4.86 1.23-2.92 1.13-6.51-.19-7.78-.9-.47-1.93-.75-2.97-.66ZM373.24 44.02c1.74.42 3.54-.66 3.91-2.45.42-1.74-.66-3.54-2.45-3.91-1.74-.42-3.54.66-3.91 2.45-.09.47-.09.94 0 1.41.28 1.23 1.23 2.22 2.45 2.5ZM202.08 67.64c1.74.05 3.49-.61 4.76-1.79.14.52.33 1.04.61 1.51h4.72V46c-2.4-.71-4.9-1.08-7.4-1.13-6.51 0-13.3 4.72-11.41 14.1 1.08 5 4.76 8.68 8.72 8.68Zm2.22-18.11c.52 0 1.18.05 1.6.09v12.26c-.71.66-1.6.99-2.55.99-1.23 0-3.11-1.08-3.68-4.43-.94-5.52 1.93-8.91 4.62-8.91Zm-87.14-2.5.05 20.32h6.27l-.05-17.02c1.23-.38 2.5-.57 3.73-.57.33 0 .61.05.94.09v-4.72h-.33c-3.58-.05-7.21.61-10.61 1.89Zm-11.08-9.76c-6.79.61-8.91 2.4-8.91 2.4v27.68h6.65V55.09h9.57v-5.14h-9.57v-6.7c1.6-.85 3.35-1.23 5.14-1.08 2.22-.19 4.48.19 6.55 1.04l1.37-4.72c-3.39-1.37-7.12-1.74-10.8-1.23Zm82.14 30.79c1.23 0 2.5-.14 3.68-.52l-1.32-5.05c-.24.05-.47.05-.75.05-1.27 0-1.89-.61-1.89-2.69V38.16c-1.04-.28-2.07-.38-3.16-.28-1.04-.05-2.07.05-3.11.28v21.97c0 6.79 3.91 7.92 6.55 7.92ZM469.77 45.8c-1.23-.71-2.59-.99-3.96-.94-.52 0-1.04 0-1.51.05-2.07.14-4.15.57-6.13 1.27v14.9h4.81V49.9c.75-.14 1.51-.24 2.26-.28.42-.05.85.05 1.23.28.19.14.28.33.28.85-.05.66-.14 1.32-.38 1.93-.38 1.23-.8 2.4-1.23 3.58v4.76h3.35c.05-.09 2.45-6.41 2.88-8.25.24-.9.33-1.84.38-2.78.09-1.6-.66-3.21-1.98-4.2Zm-17.45-1.79c1.74.42 3.54-.66 3.91-2.45.42-1.74-.66-3.54-2.45-3.91-1.74-.42-3.54.66-3.91 2.45-.09.47-.09.94 0 1.41.28 1.23 1.23 2.22 2.45 2.5Zm-1.89 2.26v14.81h5.23V46.27c-.85-.14-1.74-.19-2.59-.19-.9.05-1.79.09-2.64.19ZM278.51 68.2c2.4-.09 4.76-.52 7.03-1.32l-2.45-4.86c-1.41.52-2.92.8-4.43.85-4.34 0-5.99-4.34-5.99-9.81 0-5.19 1.27-9.9 5.75-9.9 1.65-.09 3.25.52 4.48 1.65l3.21-4.24c-2.07-1.93-4.86-2.88-7.64-2.64-6.88 0-12.54 4.53-12.54 15.14-.05 10.85 5.09 15.14 12.59 15.14Zm92.42-20.37v19.52h6.13V47.83c-2.03.42-4.15.42-6.13 0Zm-238.73 0v19.52h6.13V47.83c-2.03.42-4.1.42-6.13 0Zm308.76 8.49c-.42-1.18-.85-2.4-1.23-3.58-.19-.61-.33-1.27-.38-1.93 0-.52.14-.71.28-.85.38-.24.8-.33 1.23-.28.75.05 1.51.14 2.26.28v11.18h4.86v-14.9c-1.98-.71-4.01-1.13-6.13-1.27-.52-.05-1.04-.05-1.51-.05-1.37-.09-2.78.24-3.96.94-1.37.99-2.12 2.59-1.98 4.29 0 .94.14 1.84.38 2.78.42 1.84 2.83 8.11 2.88 8.25h3.35v-4.86h-.05Zm-210.54-.9V67.4h6.22V56.65c.05-1.51-.05-2.97-.28-4.43-.71-4.43-4.67-7.64-9.15-7.31-3.39.09-6.74.71-9.9 1.89v20.65h6.27V50.24c.94-.38 1.98-.57 2.97-.57 1.74-.24 3.35.94 3.58 2.69v.09c.24.9.33 1.93.28 2.97Zm123.54 11.51c1.13.38 2.31.61 3.54.71 4.57-.09 8.35-3.49 8.86-8.02 2.07-10.37-4.9-14.71-11.22-14.71-2.5 0-4.95.33-7.36.94v31.83h6.27l-.09-10.75Zm0-17.31c.57-.05 1.13-.09 1.65-.09 2.69 0 5.47 3.39 4.62 8.91-.9 6.04-5.71 4.76-6.32 4.29l.05-13.11Zm38.05-4.81c-3.39.05-6.74.71-9.9 1.89v20.65h6.27l.05-17.21c.94-.38 1.98-.57 3.02-.57 1.74-.24 3.35.94 3.58 2.69v.05c.19 1.04.24 2.03.19 3.06v11.98h6.27V56.6c.05-1.51-.09-2.97-.33-4.43-.71-4.43-4.67-7.64-9.15-7.36Zm-49.13 7.36c-.71-4.43-4.67-7.59-9.1-7.31-2.55 0-5.05.57-7.31 1.7-1.65-1.18-3.68-1.74-5.71-1.7-3.39.05-6.74.71-9.9 1.89V67.4h6.22V50.19c.94-.38 1.98-.57 2.97-.57 1.7-.24 3.3.9 3.54 2.59v.05c.19 1.04.28 2.12.24 3.16V67.4h6.32V55.23c0-1.6-.24-3.21-.71-4.72 1.13-.57 2.4-.9 3.68-.9 1.74-.24 3.39.99 3.68 2.73.14 1.04.19 2.07.14 3.11v11.93h6.27V56.63c0-1.51-.09-3.02-.33-4.48Zm-88.93-14.05V45c-.52-.05-1.18-.19-1.7-.19-6.41 0-13.06 4.1-10.99 14.43 1.04 5.05 4.72 8.68 9.1 8.68 1.65-.09 3.25-.71 4.53-1.79l.61 1.23h4.81V38.13c-1.04-.28-2.17-.38-3.25-.28-1.04 0-2.07.09-3.11.28Zm-2.83 24.94c-1.27 0-3.06-1.08-3.68-4.48-.8-3.11.14-6.37 2.4-8.63 1.23-.71 2.73-.85 4.06-.33v12.26c-.71.75-1.7 1.18-2.78 1.18Zm-73.18-2.78c-.71-2.59-2.5-4.76-4.95-5.85-2.4-1.32-3.96-2.07-4.15-3.02-.19-1.08.52-2.12 1.56-2.36.19-.05.33-.05.52-.05 1.84.05 3.58.61 5.05 1.65v-4.62c-1.84-.8-3.82-1.23-5.8-1.23-4.2 0-7.69 2.31-6.74 6.93.47 2.26 1.89 4.2 3.91 5.28 2.12 1.32 4.48 2.55 4.76 4.1.24 1.18-.47 2.83-3.21 2.83-1.79-.19-3.54-.85-5.05-1.79v4.81c1.79.71 3.73 1.04 5.61 1.04 5.61 0 9.57-2.36 8.49-7.73Zm-26.12-15.47h-.05c-5.52.09-9.52 3.39-9.52 11.51v.09c.24 8.35 3.91 11.51 9.85 11.65h.05c2.4 0 4.72-.57 6.88-1.6v-4.62c-1.89 1.13-4.1 1.7-6.32 1.6-2.36.14-4.34-1.65-4.48-4.01v-.66h5.94c1.23 0 2.92-.05 4.01-.09l1.37-.05c.28-1.37.42-2.73.42-4.1-.09-7.54-3.68-9.57-8.16-9.71ZM155.21 55h-6.84s-.52-5.61 3.73-5.85h.09c1.6-.14 2.97 1.74 3.06 4.57l-.05 1.27ZM438.5 67.35h29.09v-4.24H438.5v4.24Zm-303.24-29.8c-1.79 0-3.25 1.46-3.25 3.25s1.46 3.25 3.25 3.25 3.25-1.46 3.25-3.25-1.46-3.25-3.25-3.25Zm151.6 21.41c.99 5 4.72 8.63 8.68 8.63 1.74.05 3.49-.61 4.76-1.79.14.52.33 1.04.61 1.51h4.76V45.95c-2.4-.71-4.9-1.08-7.4-1.13-6.55.05-13.3 4.81-11.41 14.15Zm12.45 2.88c-.71.66-1.6.99-2.55.99-1.23 0-3.11-1.08-3.68-4.43-.9-5.47 1.93-8.91 4.62-8.91.52 0 1.18.05 1.6.09v12.26Zm106.52-2.88c.99 5 4.72 8.63 8.68 8.63 1.74.05 3.49-.61 4.76-1.79.14.52.33 1.04.61 1.51h4.72V45.95c-2.4-.71-4.9-1.08-7.4-1.13-6.46.05-13.25 4.81-11.36 14.15Zm12.5 2.88c-.71.66-1.6.99-2.55.99-1.23 0-3.11-1.08-3.68-4.43-.9-5.47 1.93-8.91 4.62-8.91.52 0 1.18.05 1.6.09v12.26ZM50.15 1.87c-1.89 4.95-3.49 10-4.76 15.14-.42 1.7-.61 3.44-.61 5.19-.19 2.78 1.79 5.23 4.57 5.56 2.36.38 4.76.52 7.17.28 2.73-.14 5.85-.42 9.01-.85 4.48-.57 13.3-1.93 17.59-2.64-6.6.99-13.25 1.6-19.9 1.84-2.45.05-4.9-.09-7.31-.42-2.12-.24-4.1-1.08-5.75-2.4-1.08-.99-1.84-2.31-2.26-3.68-.42-1.32-.61-2.73-.61-4.1.09-3.58.66-7.12 1.74-10.52.33-1.08.71-2.22 1.13-3.39l.14-.42-.14.42Z" />
        <path
            d="M47.28 15.78c0 1.41.19 2.78.61 4.1.42 1.41 1.23 2.69 2.26 3.68 1.65 1.37 3.68 2.17 5.75 2.4 2.4.38 4.86.52 7.31.42 6.65-.24 13.3-.85 19.9-1.84.42-.05.9-.09 1.32-.19-.09-.47-.24-.94-.38-1.41-.47-1.6-1.18-3.11-2.03-4.53-3.49.47-7.12.9-10.75 1.37-7.97 1.08-15.14 1.23-17.59-1.23-2.31-2.31-.66-10.04.94-15.7-1.23-.94-2.59-1.7-4.06-2.17-.05.14-.09.24-.14.38-.42 1.18-.94 2.59-1.41 4.1-1.08 3.49-1.65 7.03-1.74 10.61ZM20.69 72.46c2.69-7.21 6.13-14.15 10.18-20.65 1.27-1.93 2.78-3.73 4.53-5.28.9-.8 1.98-1.37 3.11-1.74.71-.19 1.41-.28 2.17-.28 1.84.05 3.63.57 5.23 1.56 1.7.94 3.25 2.07 4.67 3.39 3.02 3.06 5.8 6.32 8.39 9.71 0 0-5.47-7.5-8.77-11.03-1.56-1.79-3.3-3.49-5.14-5-.85-.66-1.74-1.23-2.73-1.7-.99-.52-2.12-.75-3.21-.8-.42 0-.9.05-1.32.14-1.27.38-2.36 1.18-3.21 2.22-1.56 2.03-2.88 4.15-3.96 6.46-3.73 7.4-7.03 15.09-9.95 23.01Z" />
        <path
            d="M53.78 60.2c1.74-.09 3.49-.52 5.09-1.13-2.59-3.44-5.38-6.65-8.39-9.71-1.41-1.27-3.02-2.4-4.67-3.39-1.56-.99-3.39-1.51-5.23-1.56-.71 0-1.46.09-2.17.28-1.13.33-2.22.94-3.11 1.74-1.74 1.56-3.25 3.35-4.53 5.28-4.06 6.55-7.45 13.49-10.18 20.65 2.03.61 4.15.9 6.22.75.19-.52 8.68-22.35 14.38-23.25 4.48-.61 11.32 8.53 12.59 10.33Zm12.07-30.84c6.18-1.56 12.45-2.73 18.77-3.63-2.97.38-14.15 2.03-24.24 4.06-10.09 1.98-15.04 4.06-12.73 10.52 2.17 6.04 11.13 16.6 12.35 18.01-2.59-3.35-4.86-6.88-6.79-10.66-5.33-11.32 3.16-15.89 12.64-18.3Z" />
        <path
            d="M84.62 30.68c.33-1.65.33-3.3.05-4.95h-.05c-6.32.9-12.59 2.12-18.77 3.63-9.48 2.4-17.97 6.98-12.64 18.25 1.93 3.77 4.2 7.31 6.79 10.66l.14.14c1.74-1.13 3.21-2.59 4.34-4.29l.09-.14c.19.24-7.21-9.57-6.46-13.91.75-4.72 20.18-8.35 26.5-9.38ZM14.08 4.27l.14.14c2.59 3.21 5.23 6.37 7.97 9.43 1.98 2.26 4.06 4.34 6.32 6.27.94.8 2.03 1.51 3.11 2.12 2.4 1.51 5.52 1.27 7.64-.66 1.56-1.41 2.83-3.06 3.73-4.95 1.56-3.16 2.92-6.37 4.01-9.71.71-1.98 1.37-3.96 1.98-5.71-.85 2.03-1.7 4.2-2.73 6.32-1.37 3.21-3.39 6.13-5.94 8.53-1.84 1.65-4.15 2.69-6.6 2.92-.24 0-.47.05-.66.05-2.31-.14-4.57-.94-6.46-2.31-2.12-1.46-4.1-3.11-5.89-4.95-2.17-2.17-4.48-4.81-6.6-7.36l-.05-.05.05-.09Z" />
        <path
            d="M26.67 16.77c1.89 1.37 4.1 2.17 6.46 2.31.24 0 .47 0 .66-.05 2.45-.28 4.76-1.27 6.6-2.92 2.55-2.4 4.57-5.33 5.94-8.53.99-2.12 1.93-4.29 2.73-6.32.14-.33.19-.47.28-.8-.14-.05-.28-.09-.42-.09-1.98-.47-4.06-.47-6.04-.05-1.13 2.73-4.76 12.59-9.76 13.3-4.29.66-9.95-6.04-15.61-12.73-1.65.38-3.21 1.08-4.57 2.03l.14.14c2.45 3.02 5.09 6.08 7.73 8.72 1.74 1.89 3.73 3.54 5.85 5Zm.85 7.78c-.8-1.79-1.79-3.49-2.92-5.09-1.04-1.51-2.12-3.02-3.25-4.48-2.4-3.16-4.95-6.18-7.59-9.1-.61-.66-1.23-1.37-1.89-2.03l-.05-.05c4.24 4.48 7.78 9.62 10.47 15.14.9 1.98 3.3 7.64-.9 11.36-4.34 3.82-12.97 5.05-21.08 6.22 3.82-.42 7.64-.9 11.41-1.41 2.73-.38 5.47-.85 8.16-1.46 2.36-.38 4.57-1.27 6.51-2.59.99-.75 1.6-1.89 1.79-3.06.09-1.23-.14-2.4-.66-3.44Z" />
        <path
            d="M8 8.61c3.68 3.68 6.7 7.92 9.01 12.59 2.4 4.81-.24 6.18-3.49 7.5-4.2 1.18-8.44 2.07-12.73 2.73-.52 1.65-.66 3.39-.42 5.09 8.11-1.18 16.74-2.4 21.08-6.22 4.2-3.73 1.79-9.38.9-11.36-2.69-5.56-6.22-10.66-10.47-15.14l-.05-.05c-.9.71-1.7 1.51-2.36 2.45-.57.71-1.08 1.51-1.46 2.4m19.33 29.8c-1.27-1.13-2.88-1.89-4.57-2.07-1.6-.24-3.25-.33-4.9-.28-5.8.19-11.55.75-17.26 1.65H.56c3.87-.52 7.73-.8 11.6-.85 2.4-.09 4.76.19 7.07.9.14.05.24.09.38.14l.19.09.09.05c4.24 1.65 5.38 5.09 5.47 9.24-.24 4.81-1.08 9.62-2.45 14.24-.99 3.58-2.07 7.07-3.25 10.56 1.46-3.82 2.97-7.59 4.34-11.46 1.51-4.06 2.83-8.2 3.91-12.4.47-1.84.75-3.73.85-5.61.05-1.51-.42-3.02-1.41-4.2Z" />
        <path
            d="M25.35 47.28c-.05-4.2-1.23-7.64-5.47-9.24l-.09-.05-.19-.09c-.14-.05-.24-.09-.38-.14-2.31-.66-4.67-.99-7.07-.9-3.87.05-7.78.33-11.6.9.28 2.07 1.08 4.1 2.31 5.85 3.06-.38 6.18-.61 9.29-.66 8.53-.05 8.77 2.45 8.35 9.15-.94 5.99-2.64 11.88-5.14 17.4.52.47 1.04.9 1.65 1.27.85.52 1.7.94 2.59 1.27 1.08-3.16 2.26-6.84 3.25-10.56 1.41-4.62 2.22-9.38 2.5-14.19Z" />
    </g>
</svg>