<?xml version="1.0" encoding="UTF-8"?>
<svg viewBox="0 0 265 120" xmlns="http://www.w3.org/2000/svg">
    <g fill="currentColor" fill-rule="evenodd">
        <path
            d="M76.8428115,35.7801448 L100.622296,0.960284039 C101.032391,0.359452839 101.71304,0 102.440478,0 L169.167695,0 C169.895133,0 170.575782,0.359452839 170.985877,0.960284039 L194.765361,35.7801448 L264.612608,35.7801448 L264.612608,72.6612171 L171.208815,72.6612171 L137.601075,119.071808 L137.521258,119.177717 L137.39878,119.317865 L137.300247,119.414857 L137.147493,119.544188 L137.014831,119.638538 C136.947675,119.68285 136.878041,119.723282 136.806756,119.75964 L136.770426,119.777805 L136.577763,119.860843 L136.404642,119.917733 C136.231797,119.966945 136.055373,119.994055 135.879775,120 L135.728398,120 C135.5528,119.994083 135.376376,119.967 135.20353,119.917733 L135.091511,119.882889 L134.966831,119.835907 L134.801417,119.75964 C134.730132,119.723227 134.660498,119.68285 134.593341,119.638538 L134.517102,119.586024 L134.361871,119.463408 L134.222879,119.332095 L134.091594,119.183635 L134.007097,119.071808 L100.399358,72.6612171 L0.39,72.6612171 L0.39,35.7801448 L76.8428115,35.7801448 Z M116.677122,40.1838549 L135.804086,109.519445 L154.931051,40.1838549 L116.677122,40.1838549 Z M168.560809,40.1838549 L159.49935,40.1838549 L141.166704,106.639584 L189.289898,40.1838549 L168.560809,40.1838549 Z M82.3182746,40.1838549 L112.108823,40.1838549 C112.108823,40.1838549 130.441468,106.639584 130.441468,106.639584 L82.3182746,40.1838549 Z M79.9953175,68.5765007 C81.073676,68.4443894 81.9051515,68.1306251 82.4889183,67.6352077 C83.0721347,67.1397903 83.3641557,66.4734539 83.3641557,65.636749 L80.3586236,65.636749 L80.3586236,58.0406242 L88.0210792,58.0406242 L88.0210792,64.0847164 C88.0210792,65.4501417 87.8336463,66.5835466 87.4596061,67.4865824 C87.0850156,68.3890678 86.5678548,69.11568 85.9072983,69.666419 C85.2467418,70.2166075 84.464808,70.618446 83.5623227,70.8719346 C82.6592869,71.1248727 81.6684521,71.2734979 80.5898183,71.3178103 L79.9953175,68.5765007 Z M237.991354,66.2645529 C236.383725,66.2645529 234.858665,65.9783117 233.416725,65.4058294 C231.97451,64.8336223 230.703214,64.0186607 229.602286,62.9617703 C228.501084,61.9048799 227.625571,60.6390884 226.976299,59.1635703 C226.326752,57.6888779 226.001978,56.0589547 226.001978,54.2754521 L226.001978,54.2093964 C226.001978,52.4919495 226.316018,50.8958798 226.943271,49.4203617 C227.571075,47.945394 228.440533,46.6683181 229.552745,45.5891338 C230.664406,44.5107753 231.96873,43.6682905 233.466542,43.0625052 C234.963528,42.4572703 236.571158,42.1542399 238.288605,42.1542399 C239.565405,42.1542399 240.737893,42.3028652 241.805793,42.6003908 C242.873417,42.8976413 243.842234,43.3104891 244.712517,43.8389343 C245.581974,44.3671043 246.352624,45.0004128 247.024189,45.7377591 C247.695755,46.475931 248.273742,47.2848375 248.75815,48.1653043 L242.38378,51.8974486 C241.943134,51.0610189 241.39845,50.3839485 240.749178,49.8662373 C240.099355,49.3490766 239.246412,49.0903586 238.189521,49.0903586 C237.528689,49.0903586 236.934464,49.2221947 236.406018,49.4864173 C235.877298,49.7506399 235.425918,50.113946 235.051602,50.5763356 C234.677287,51.0390004 234.385266,51.5787301 234.17664,52.194699 C233.967189,52.8114937 233.862876,53.4610409 233.862876,54.1433408 L233.862876,54.2093964 C233.862876,54.9583024 233.967189,55.6461068 234.17664,56.2736355 C234.385266,56.9011642 234.682792,57.440894 235.068116,57.891999 C235.453166,58.3436545 235.910326,58.6959513 236.438771,58.9488894 C236.967216,59.202378 237.550433,59.3287094 238.189521,59.3287094 C239.290173,59.3287094 240.171191,59.0592574 240.831472,58.5195277 C241.492304,57.9800732 242.064511,57.2809842 242.549194,56.4222608 L248.923565,60.0222938 C248.438881,60.8810173 247.866399,61.690199 247.205842,62.4501142 C246.545561,63.209479 245.769407,63.8700355 244.877656,64.4315085 C243.985629,64.9929816 242.973051,65.4388572 241.838821,65.7691355 C240.70459,66.0994138 239.422285,66.2645529 237.991354,66.2645529 Z M19.840472,66.2645529 C18.0346756,66.2645529 16.3447519,65.9783117 14.7707007,65.4058294 C13.1960991,64.8336223 11.8199397,64.0186607 10.6422225,62.9617703 C9.46395481,61.9048799 8.53917568,60.6390884 7.86788512,59.1635703 C7.19604409,57.6888779 6.86053643,56.0589547 6.86053643,54.2754521 L6.86053643,54.2093964 C6.86053643,52.4919495 7.17953018,50.8958798 7.81834338,49.4203617 C8.45660612,47.945394 9.34835742,46.6683181 10.4935973,45.5891338 C11.6382867,44.5107753 12.9871981,43.6682905 14.539506,43.0625052 C16.0918138,42.4572703 17.7814623,42.1542399 19.6092772,42.1542399 C21.6124149,42.1542399 23.4127066,42.4627749 25.0093268,43.0790191 C26.6053965,43.6958137 28.0312628,44.5545372 29.2863201,45.6551895 L24.959785,50.873586 C24.1888605,50.2353233 23.3851834,49.7399059 22.5487538,49.3876091 C21.7117736,49.0353123 20.8092883,48.8588886 19.840472,48.8588886 C19.0915661,48.8588886 18.3979817,48.9967798 17.759719,49.2717364 C17.1209058,49.5475188 16.5707173,49.9273388 16.1083277,50.4111964 C15.6459381,50.8958798 15.2875862,51.4680869 15.0349233,52.1289186 C14.7814348,52.7891999 14.6551033,53.5160873 14.6551033,54.3087551 L14.6551033,54.3745355 C14.6551033,55.1894972 14.7924441,55.9381279 15.0679512,56.6204277 C15.3429078,57.3030028 15.7230031,57.8870448 16.2074112,58.3709025 C16.6915441,58.8555858 17.269531,59.229626 17.941372,59.4938486 C18.6129378,59.7580712 19.3557887,59.8901825 20.1707503,59.8901825 C20.8313068,59.8901825 21.359752,59.8464206 21.7560859,59.7580712 C22.1524198,59.6702722 22.5044414,59.5384361 22.8129764,59.3617373 L22.8129764,57.0500647 L18.8496372,57.0500647 L18.8496372,52.1289186 L30.0459601,52.1289186 L30.0459601,62.8051634 C28.7909028,63.8375581 27.3047607,64.6726117 25.5873137,65.309223 C23.8698668,65.9458344 21.9542529,66.2645529 19.840472,66.2645529 Z M250.070181,65.7691355 L257.732636,65.7691355 L257.732636,58.1727355 L250.070181,58.1727355 L250.070181,65.7691355 Z M192.330385,65.7691355 L200.058896,65.7691355 L200.058896,42.6496573 L192.330385,42.6496573 L192.330385,65.7691355 Z M201.607351,42.6496573 L208.840444,42.6496573 L217.064373,52.8552556 L217.064373,42.6496573 L224.726829,42.6496573 L224.726829,65.7691355 L217.857041,65.7691355 L209.270081,55.1011477 L209.270081,65.7691355 L201.607351,65.7691355 L201.607351,42.6496573 Z M31.5993689,42.6496573 L51.316981,42.6496573 L51.316981,48.9909999 L39.1957689,48.9909999 L39.1957689,51.3359756 L50.4912853,51.3359756 L50.4912853,56.9176781 L39.1957689,56.9176781 L39.1957689,59.4277929 L51.4821201,59.4277929 L51.4821201,65.7691355 L31.5993689,65.7691355 L31.5993689,42.6496573 Z M52.8739677,42.6496573 L60.9327573,42.6496573 L65.8869312,50.7745025 L70.8411051,42.6496573 L78.8998946,42.6496573 L78.8998946,65.7691355 L71.2044111,65.7691355 L71.2044111,54.3084799 L65.8704173,62.5324086 L65.7383059,62.5324086 L60.4043121,54.3084799 L60.4043121,65.7691355 L52.8739677,65.7691355 L52.8739677,42.6496573 Z M159.448982,35.7801448 L149.794673,4.40371013 L168.005116,4.40371013 C168.005116,4.40371013 189.432744,35.7801448 189.432744,35.7801448 L159.448982,35.7801448 Z M121.813499,4.40371013 L112.159191,35.7801448 C112.159191,35.7801448 82.1754292,35.7801448 82.1754292,35.7801448 C82.1754292,35.7801448 103.603057,4.40371013 103.603057,4.40371013 L121.813499,4.40371013 Z M154.841325,35.7801448 L116.766847,35.7801448 L126.421156,4.40371013 L145.187016,4.40371013 L154.841325,35.7801448 Z" />
        </g>
    </svg>