<?xml version="1.0" encoding="UTF-8"?>
<svg viewBox="0 0 280 120" xmlns="http://www.w3.org/2000/svg">
	<g fill="currentColor" fill-rule="evenodd">
		<path
			d="m106.75 64.1v22.66c.05.28.08.56.08.85 0 .84-.22 1.66-.65 2.39-.42.73-1.03 1.33-1.77 1.74l-20.73 11.79 20.6 11.71 48.6-27.62v-49.73l-46.12 26.22zm-27.98-50.35 23.1-13.13c.73-.41 1.56-.62 2.4-.62s1.67.21 2.4.62l48.6 27.63c.73.42 1.34 1.02 1.76 1.75s.64 1.55.64 2.39c0 .27-.02.54-.07.81v54.42c0 .82-.22 1.63-.64 2.34s-1.01 1.3-1.73 1.7l-48.6 27.63c-.72.41-1.54.63-2.37.63s-1.65-.22-2.37-.63l-22.96-13.05-23.12 13.14c-.73.41-1.56.63-2.4.63s-1.67-.22-2.4-.64l-48.6-27.63c-.73-.42-1.34-1.02-1.76-1.75s-.65-1.55-.65-2.39c0-.29.03-.57.08-.85v-54.4c0-.82.22-1.63.64-2.34s1.01-1.3 1.73-1.71l48.61-27.6c.72-.4 1.54-.61 2.37-.61s1.64.21 2.37.61l22.98 13.06zm-4.74 2.69-20.6-11.71-48.6 27.62v49.75l46.1-26.2v-22.68c-.05-.27-.07-.55-.07-.83 0-.84.22-1.66.65-2.39.42-.73 1.03-1.33 1.76-1.75l20.76-11.8zm-18.34 21.44v17.89s.09.05.13.07l46.2 26.26v-17.89s-.09-.05-.14-.08zm51.07 20.58s-2.48 1.4-2.48 1.4l-2.27-1.29s-46.12-26.21-46.12-26.21l48.39-27.49 48.37 27.5-45.9 26.1zm133.64-51.83c.78 0 2.19 1.26 2.19 2.04s-1.41 2.04-2.19 2.04-2.12-1.3-2.12-2.04 1.38-2.04 2.12-2.04zm1.73 24.1c0 .1-.02.2-.05.3-.04.1-.1.18-.17.25s-.16.13-.26.17-.2.06-.3.05h-1.84c-.1 0-.2-.02-.3-.06-.09-.04-.18-.1-.25-.17s-.13-.16-.16-.25c-.04-.09-.06-.19-.05-.29v-16.01c0-.1.01-.2.05-.29s.09-.18.16-.25.15-.13.25-.17c.09-.04.19-.06.3-.06h1.84c.1 0 .21.01.3.05.1.04.18.09.26.17.07.07.13.16.17.25.04.1.06.2.05.3v16.02zm-53.33-12.25c-.15.14-.24.34-.25.55v1.53c.03.2.12.4.27.54s.35.22.56.22h1.95v4.36c0 1.16-2.31 2.92-3.4 2.92s-3.43-1.72-3.43-2.92v-11.46c0-1.23 2.37-2.92 3.43-2.92.96 0 2.69.88 3.96 1.55.2.12.44.16.67.11s.43-.19.56-.39l.6-1.16c.1-.2.13-.43.06-.65-.06-.22-.21-.4-.41-.51-1.66-1.02-3.93-2.18-5.44-2.18-2.33 0-6.92 3.27-6.92 5.69v12.36c0 2.35 4.56 5.69 6.92 5.69s6.89-3.34 6.89-5.69v-6.77c-.06-.27-.2-.52-.4-.71s-.46-.32-.73-.38h-4.31c-.21 0-.41.08-.56.23zm20.01 5.36c.63 0 1.45-.81 1.45-1.3v-3.89c0-2.32-4.01-5.03-6.04-5.03s-6.18 2.67-6.18 5.06v8.08c0 2.39 3.99 5.06 6.18 5.06 1.52 0 3.53-1.02 4.98-1.93.18-.11.32-.29.38-.5s.04-.43-.06-.62l-.57-1.09c-.06-.11-.14-.21-.23-.28-.1-.08-.21-.13-.33-.16s-.25-.03-.37-.01-.24.07-.34.14c-1.06.58-2.58 1.33-3.46 1.33-.99 0-2.79-1.26-2.79-2.35v-2.5h7.38zm-7.38-2.56v-2.14h-.02c0-1.09 1.89-2.39 2.81-2.39s2.76 1.26 2.76 2.39v2.14zm11.89-4.43c-.1 0-.21-.02-.3-.05-.1-.04-.18-.1-.26-.17-.07-.07-.13-.16-.17-.25-.04-.1-.06-.2-.05-.3v-1.37c0-.1.02-.2.05-.3.04-.1.09-.18.17-.25.07-.07.16-.13.26-.17s.2-.06.3-.05h2.01v-3.58c0-.1.02-.2.05-.3.04-.1.1-.18.17-.25s.16-.13.26-.17.2-.06.3-.05h1.84c.1 0 .21.02.3.05.1.04.18.1.25.17s.13.16.17.25c.04.1.06.2.05.3v3.58h3.29c.1 0 .2.02.3.05.1.04.18.09.25.17.07.07.13.16.17.25.04.1.06.2.05.3v1.37c0 .1-.02.2-.05.3s-.1.18-.17.25-.16.13-.25.17c-.1.04-.2.06-.3.05h-3.29v10.33c0 .7 1.24 1.5 1.7 1.5.47-.04.95-.11 1.41-.21.1-.04.22-.05.32-.04.11.01.22.05.31.1.1.06.18.13.24.23.06.09.1.19.12.3l.14 1.33c.07.49-.11.77-.63.95-.72.24-1.47.4-2.23.45-1.84 0-4.77-2.11-4.77-4.11v-10.86h-2.01zm12.24-.04c.1.04.2.06.3.05h1.99s0 10.84 0 10.84c0 2 2.93 4.11 4.77 4.11.76-.06 1.51-.21 2.22-.45.53-.18.71-.46.64-.95l-.14-1.33c-.02-.11-.06-.21-.12-.3s-.14-.17-.24-.23-.2-.09-.31-.1-.22 0-.32.04c-.47.1-.94.17-1.42.21-.46 0-1.7-.8-1.7-1.5v-10.33h3.29c.1 0 .2-.02.29-.06s.18-.1.25-.17.13-.16.16-.25c.04-.09.05-.19.05-.29v-1.37c0-.1-.02-.2-.05-.29-.04-.09-.09-.18-.16-.25s-.16-.13-.25-.17-.19-.06-.29-.06h-3.29v-3.58c0-.1-.02-.2-.05-.29-.04-.09-.09-.18-.16-.25s-.16-.13-.25-.17-.19-.06-.3-.06h-1.84c-.1 0-.21.01-.3.05-.1.04-.18.09-.26.17-.07.07-.13.16-.17.25-.04.1-.06.2-.05.3v3.58h-2.01c-.1 0-.21.02-.3.05-.1.04-.18.09-.26.17-.07.07-.13.16-.17.25-.04.1-.06.2-.05.3v1.37c0 .1.02.2.05.3.04.1.1.18.17.25s.16.13.26.17zm27.5-.05c.92 0 2.72 1.26 2.72 2.39v11.59c-.02.1 0 .2.04.3s.1.18.17.25.16.13.26.17.2.06.3.05h1.84c.1 0 .2-.02.3-.05.1-.04.18-.1.25-.17s.13-.16.17-.25c.04-.1.06-.2.05-.3v-12.05c0-2.35-4.1-5.06-6.11-5.06s-6.14 2.71-6.14 5.03v12.09c0 .1.02.2.05.3.04.1.1.18.17.25s.16.13.25.17c.1.04.2.06.3.05h1.85c.1 0 .21-.01.3-.05.1-.04.18-.09.26-.17.07-.07.13-.16.17-.25.04-.1.06-.2.05-.3v-11.59c0-1.12 1.84-2.39 2.75-2.39zm22.15 16.87c0 2.35-4.14 4.95-6.33 4.95-1.45 0-3.25-.91-4.73-1.72-.1-.05-.2-.13-.27-.22-.08-.09-.13-.19-.17-.3-.03-.11-.05-.23-.04-.34.01-.12.04-.23.1-.33l.53-1.16c.05-.11.11-.2.2-.28s.19-.14.3-.17c.11-.04.23-.05.34-.03.12.01.23.05.33.11.13.06.27.14.43.22.94.48 2.27 1.15 2.99 1.15.96 0 2.93-1.3 2.93-2.35v-2.85c-.92.84-2.05 1.54-2.97 1.54-2.27 0-5.97-2.74-5.97-4.99v-8.2c0-2.39 4.21-5.03 6.18-5.03s6.15 2.63 6.15 5.03zm-8.95-7.24c0 1.06 1.87 2.32 2.79 2.32s2.75-1.3 2.75-2.32v-7.27c0-1.05-1.87-2.35-2.75-2.35s-2.79 1.27-2.79 2.35zm-84.67 29c.09.04.2.05.3.05h2.01s0 10.85 0 10.85c0 2 2.93 4.11 4.77 4.11.76-.06 1.51-.21 2.23-.45.11-.02.21-.05.3-.11s.17-.13.23-.22.1-.19.12-.3.02-.21-.01-.32l-.14-1.34c-.02-.11-.06-.21-.12-.3s-.14-.17-.24-.22c-.09-.06-.2-.09-.31-.11-.11-.01-.22 0-.32.03-.47.1-.94.17-1.41.21-.46 0-1.7-.8-1.7-1.5v-10.33h3.29c.1 0 .2-.02.3-.05.09-.04.18-.09.25-.16s.13-.15.17-.25c.04-.09.06-.19.06-.29v-1.37c0-.1-.02-.2-.05-.3s-.1-.18-.17-.25-.16-.13-.26-.17-.2-.06-.3-.05h-3.29v-3.59c0-.1-.01-.2-.05-.3s-.09-.18-.17-.25c-.07-.07-.16-.13-.25-.17-.1-.04-.2-.06-.3-.05h-1.84c-.1 0-.2.02-.3.05-.1.04-.18.1-.25.17s-.13.16-.17.25c-.04.1-.06.2-.05.3v3.59h-2.01c-.1 0-.21.01-.3.05-.1.04-.18.09-.26.17-.07.07-.13.16-.17.25-.04.1-.06.2-.05.3v1.37c0 .1.02.2.06.29s.1.18.17.25.16.12.25.16zm17.18 13.93c0 .1-.02.2-.05.3-.04.1-.1.18-.17.25s-.16.13-.26.17-.2.06-.3.05h-1.84c-.1 0-.2-.01-.3-.05s-.18-.09-.26-.17c-.07-.07-.13-.16-.17-.25s-.06-.2-.05-.3v-23.12c0-.1.02-.2.05-.3.04-.1.1-.18.17-.25s.16-.13.26-.17.2-.06.3-.05h1.84c.1 0 .21.01.3.05.1.04.18.09.26.17.07.07.13.16.17.25.04.1.06.2.05.3v7.62c.85-.88 2.15-1.62 3.21-1.62 1.73 0 5.73 2.67 5.73 4.99v12.12c0 .1-.02.2-.06.3s-.1.18-.17.25-.16.13-.26.17-.2.06-.3.05h-1.84c-.1 0-.21-.01-.3-.05-.1-.04-.18-.09-.26-.17-.07-.07-.13-.16-.17-.25s-.06-.2-.05-.3v-11.63c0-1.02-1.73-2.36-2.72-2.36s-2.83 1.3-2.83 2.36v11.63zm23.42-6.89c.63 0 1.45-.81 1.45-1.3v-3.91c0-2.32-4.02-5.03-6.05-5.03s-6.18 2.67-6.18 5.06v8.09c0 2.39 3.99 5.06 6.18 5.06 1.52 0 3.53-1.02 4.98-1.93.18-.12.32-.3.38-.5.06-.21.04-.43-.06-.62l-.57-1.09c-.06-.11-.14-.2-.24-.28s-.21-.13-.33-.16-.25-.03-.37-.01-.24.07-.34.14c-1.06.59-2.58 1.34-3.46 1.34-.99 0-2.79-1.27-2.79-2.36v-2.49h7.4zm-7.38-2.57v-2.14h-.01c0-1.09 1.89-2.39 2.81-2.39s2.75 1.26 2.75 2.39v2.14zm-29.78 51.43c0 .1-.02.2-.05.3-.04.09-.1.18-.17.25s-.16.13-.26.17-.2.06-.3.05h-1.84c-.1 0-.2-.02-.3-.05-.1-.04-.18-.09-.25-.17-.07-.07-.13-.16-.17-.25s-.06-.2-.05-.3v-18.87c0-2.32 4.16-4.99 6.18-4.99s6.14 2.63 6.14 4.99v8.27c0 2.32-3.88 4.95-6 4.95-.99 0-2.19-.77-2.93-1.48v7.12zm5.55-18.38c0-1.06-1.84-2.35-2.76-2.35-.99 0-2.79 1.3-2.79 2.35v7.27c0 1.02 1.84 2.32 2.79 2.32.88 0 2.76-1.3 2.76-2.32zm11.67-10.44c0-.77-1.41-2.04-2.19-2.04s-2.12 1.3-2.12 2.04 1.34 2.04 2.12 2.04 2.19-1.26 2.19-2.04zm-.51 22.36c.04-.1.06-.2.05-.3v-16.02c0-.1-.02-.2-.05-.3-.04-.09-.1-.18-.17-.25s-.16-.13-.25-.17c-.1-.04-.2-.06-.3-.05h-1.84c-.1 0-.2.01-.3.05s-.18.09-.26.17c-.07.07-.13.16-.17.25s-.06.2-.05.3v16.02c0 .1.02.2.05.3.04.1.1.18.17.25s.16.13.26.17.2.06.3.05h1.84c.1 0 .2-.02.3-.05.1-.04.18-.1.26-.17s.13-.16.17-.25zm4.17-4.23v-8.12c0-2.39 4.16-5.06 6.14-5.06 1.24 0 3.11.88 4.21 1.5.22.11.38.3.46.53s.07.48-.03.7l-.5 1.05c-.13.22-.35.38-.6.45s-.52.03-.74-.1c-.76-.42-2.05-1.02-2.75-1.02-.92 0-2.79 1.3-2.79 2.39v7.2c0 1.09 1.89 2.36 2.75 2.36.81 0 2.12-.67 2.86-1.06.1-.07.22-.11.35-.13.12-.02.25-.01.37.02s.23.09.33.17.18.18.23.29l.5 1.09c.09.19.11.42.05.62-.06.21-.19.39-.37.51-1.31.77-3.08 1.62-4.31 1.62-2.05 0-6.14-2.74-6.14-5.02zm14.46-10c.1.04.2.06.3.05h2.01s0 10.85 0 10.85c0 2 2.93 4.11 4.77 4.11.76-.06 1.5-.21 2.22-.46.53-.18.71-.45.64-.95l-.14-1.33c-.02-.11-.06-.21-.12-.3s-.14-.17-.23-.22c-.1-.06-.2-.09-.31-.1s-.22 0-.33.03c-.47.1-.94.17-1.41.21-.46 0-1.7-.8-1.7-1.5v-10.33h3.28c.1 0 .21-.01.3-.05.1-.04.18-.09.26-.17.07-.07.13-.16.17-.25.04-.1.06-.2.05-.3v-1.37c0-.1-.02-.2-.05-.3-.04-.1-.1-.18-.17-.25s-.16-.13-.26-.17-.2-.06-.3-.05h-3.28v-3.59c0-.1-.02-.2-.06-.3-.04-.09-.1-.18-.17-.25s-.16-.13-.26-.17-.2-.06-.3-.05h-1.84c-.1 0-.21.02-.3.05-.1.04-.18.09-.25.17-.07.07-.13.16-.17.25s-.06.2-.05.3v3.59h-2.01c-.1 0-.21.01-.3.05-.1.04-.18.09-.26.17-.07.07-.13.16-.17.25s-.06.2-.05.3v1.37c0 .1.02.2.05.3.04.1.1.18.17.25s.16.13.26.17zm17.1 9.5c0 1.13 1.84 2.39 2.72 2.39s2.72-1.27 2.72-2.39v-11.6c0-.1.02-.2.06-.3.04-.09.1-.18.17-.25s.16-.13.26-.17.2-.06.3-.05h1.84c.1 0 .21.01.3.05s.18.09.26.17c.07.07.13.16.17.25s.06.2.05.3v12.06c0 2.32-3.99 5.06-6.11 5.06s-6.11-2.71-6.11-5.06v-12.06c0-.1.02-.2.05-.3.04-.09.1-.18.17-.25s.16-.13.26-.17.2-.06.3-.05h1.86c.1 0 .2.01.3.05s.18.09.26.17c.07.07.13.16.17.25s.06.2.05.3l-.02 11.6zm20.43-9.41c.57.07.92-.18.99-.6l.23-1.33c.06-.21.03-.43-.08-.62-.1-.19-.28-.33-.49-.4-.62-.15-1.25-.24-1.89-.28-2.09 0-5.86 2.71-5.86 5.03v12.05c0 .1.01.2.05.3s.1.18.17.25.16.13.26.17.2.06.3.05h1.84c.1 0 .21-.01.3-.05.1-.04.18-.09.26-.17.07-.07.13-.16.17-.25.04-.1.06-.2.05-.3v-11.53c0-1.02 1.73-2.46 2.65-2.46.36.01.71.06 1.06.14zm15.54 5.65c0 .49-.81 1.3-1.45 1.3h-7.38v2.49c0 1.09 1.8 2.36 2.79 2.36.88 0 2.4-.75 3.46-1.33.1-.07.22-.12.34-.14s.25-.02.37.01.23.08.33.16.18.17.23.28l.57 1.09c.1.19.11.42.06.62-.06.21-.19.39-.38.5-1.45.91-3.46 1.93-4.98 1.93-2.19 0-6.18-2.67-6.18-5.06v-8.08c0-2.39 4.16-5.06 6.18-5.06s6.05 2.7 6.05 5.02v3.9zm-8.84-3.38v2.12h5.55v-2.12c0-1.13-1.84-2.39-2.75-2.39s-2.79 1.28-2.79 2.39zm15.4 10.53c0-.77-1.33-2.04-2.08-2.04-.71 0-2.05 1.27-2.05 2.04s1.31 2.04 2.05 2.04 2.08-1.26 2.08-2.04zm-274.95-15.89 48.37 27.5 48.37-27.5-48.37-27.5z"
		/>
	</g>
</svg>