<?xml version="1.0" encoding="UTF-8"?>
<svg viewBox="0 0 639 120" xmlns="http://www.w3.org/2000/svg">
    <g fill="currentColor" fill-rule="evenodd">
        <path
            d="m77.8254.198c0 4.557-1.6269 8.123-4.1646 11.161-7.4832-7.198-18.1551-11.359-30.909-11.359s-23.5558 4.161-31.039 11.359c-2.6028-3.038-4.1645-6.604-4.1645-11.161h-7.5483c0 7.265 2.7981 12.68 6.8325 17.039-4.2947 6.4064-6.6373 14.3977-6.6373 23.4454v38.3709c0 24.5682 17.0487 40.9467 42.6217 40.9467h42.4266v-79.2516c0-9.0477-2.4078-17.039-6.6375-23.5114 4.0344-4.359 6.8325-9.774 6.8325-17.039zm432.3996 49.1352c-.324.4623-.651.9909-.975 1.5192-1.368-1.5852-2.994-2.8398-4.947-3.8307-2.796-1.3869-5.985-2.1132-9.564-2.1132s-6.573.7263-9.24 2.1132c-2.667 1.4532-4.749 3.3684-6.246 5.9439-1.497 2.5098-2.214 5.4156-2.214 8.7177v3.2361c0 3.3021.78 6.2082 2.343 8.7837.846 1.4529 1.953 2.7078 3.189 3.7644-.912.1983-1.821.4623-2.604.8586-2.016.8586-3.513 2.1135-4.554 3.8307-1.041 1.6509-1.563 3.6321-1.563 5.9436 0 3.4344 1.173 6.1422 3.516 8.0574.585.5283 1.299.9246 2.016 1.2549-.846.396-1.626.8583-2.343 1.3869-2.733 2.0472-4.164 5.019-4.164 8.8497 0 3.8304 1.302 6.8685 3.903 8.9817 2.604 2.1135 6.378 3.2361 11.259 3.2361h15.291c3.384 0 6.378-.5283 8.784-1.6509 2.409-1.1229 4.296-2.7078 5.598-4.8213 1.302-2.1132 1.887-4.689 1.887-7.6608 0-2.9721-.651-5.2176-1.887-7.2648-1.236-2.0475-3.123-3.5664-5.598-4.623-2.472-1.0566-5.4-1.5852-8.784-1.5852h-15.225c-2.214 0-3.972-.4623-5.208-1.3869s-1.821-2.2452-1.821-3.8304c0-1.5849.585-2.9058 1.821-3.8304s2.928-1.3869 5.208-1.3869h6.702c3.579 0 6.765-.7266 9.564-2.1135 2.799-1.4529 4.947-3.4341 6.507-6.0099 1.563-2.5755 2.343-5.5476 2.343-8.8497v-5.2173c0-2.4438.39-4.293 1.17-5.6136.783-1.3209 2.085-1.9155 3.906-1.9155h3.903v-6.1419h-4.554c-3.255 0-5.727 1.0566-7.419 3.2361zm-27.72 51.6456c1.563-1.2546 3.774-1.8492 6.507-1.8492h13.014c3.06 0 5.466.6606 7.158 1.9152 1.692 1.2549 2.538 3.0381 2.538 5.2836s-.846 4.0947-2.538 5.3493c-1.692 1.2549-4.035 1.9155-7.158 1.9155h-13.014c-2.796 0-4.944-.6606-6.507-1.9155-1.56-1.2546-2.343-3.1038-2.343-5.4153s.783-3.9627 2.409-5.2176zm-474.8266-22.0575v-8.7177c1.2364 1.7172 2.6679 3.3681 4.2297 4.8213 7.2229 6.9345 17.374 10.9629 29.4772 11.2272.7809 0 1.3665.5943 1.4316 1.3209.3255 2.8398 1.4316 9.8403 5.5962 16.1145 2.0172 2.9718 4.6851 5.9439 8.2641 8.5194h-13.9254c-10.5414 0-19.4563-3.1701-25.7031-9.18-6.1167-5.8779-9.3703-14.1993-9.3703-24.1056zm68.2597 32.6253c-9.7605-1.5192-16.8534-5.5476-21.213-12.0858-3.0585-4.6233-4.0347-9.7746-4.2948-12.2181-.0651-.7926.4554-1.5189 1.2363-1.6512 8.7846-1.4529 16.2678-5.1513 21.864-10.5666 1.4967-1.4532 2.9283-3.1041 4.1646-4.8213v39.8238c0 .9246-.846 1.6512-1.7571 1.5192zm335.4429-53.9559c-3.318-1.7832-7.221-2.7078-11.778-2.7738l-6.375-.132c-3.06-.066-5.727-.5943-7.941-1.6512-2.211-1.0566-3.903-2.5095-5.139-4.4247-1.173-1.9155-1.758-4.1607-1.758-6.7365s.717-5.3496 2.082-7.4628c1.431-2.1795 3.384-3.8304 5.856-4.9533 2.538-1.1887 5.403-1.7831 8.721-1.7831s6.573.6604 9.24 1.9152c2.604 1.3208 4.686 3.104 6.117 5.5475 1.431 2.3778 2.148 5.1516 2.148 8.3214v3.1701h7.806v-3.3681c0-4.623-1.041-8.6517-3.057-12.0198-2.082-3.3682-4.944-6.0099-8.784-7.8591-3.774-1.8492-8.265-2.7738-13.404-2.7738-5.142 0-9.177.8585-12.885 2.6417s-6.639 4.2928-8.655 7.5949c-2.082 3.2361-3.057 7.0005-3.057 11.2935 0 4.2927.846 7.6608 2.601 10.6989 1.758 2.9718 4.23 5.2833 7.485 6.9345 3.252 1.6509 7.092 2.5095 11.517 2.5755l6.441.1323c3.123.066 5.856.7263 8.133 1.9152 2.28 1.1886 4.035 2.8398 5.271 5.0193 1.239 2.1792 1.824 4.689 1.824 7.5288 0 3.1701-.783 5.9439-2.214 8.3214s-3.513 4.1607-6.18 5.4156c-2.67 1.2549-5.727 1.9152-9.24 1.9152-3.516 0-6.963-.7266-9.828-2.2455-2.862-1.5189-4.944-3.5664-6.507-6.3402-1.497-2.7078-2.277-5.8776-2.277-9.576v-3.2361h-7.872v3.4341c0 5.0853 1.041 9.5103 3.186 13.2087 2.148 3.7644 5.208 6.6042 9.177 8.6514 3.969 2.0475 8.589 3.0381 13.989 3.0381 5.403 0 9.696-.9246 13.536-2.7738s6.831-4.491 8.913-7.9911c2.085-3.5004 3.126-7.5951 3.126-12.2841s-.846-8.1234-2.604-11.2932c-1.758-3.2361-4.296-5.6799-7.614-7.4631zm-196.779 23.6418c0 2.3115-.455 4.359-1.366 6.1419-.911 1.7172-2.213 3.0381-3.84 3.9627-1.626.9246-3.579 1.3869-5.726 1.3869s-4.229-.4623-5.921-1.3869-2.993-2.2455-3.905-3.9627c-.911-1.7169-1.366-3.7644-1.366-6.1419v-5.0853c0-.8586.26-1.5189.716-1.9812.455-.4623 1.171-.7266 2.017-.7266h26.809v-10.5006c0-3.7647-.781-7.0008-2.277-9.7083-1.562-2.7738-3.709-4.8873-6.442-6.3402s-5.987-2.2455-9.631-2.2455-6.897.7263-9.826 2.1795c-2.863 1.4529-5.14 3.5001-6.702 6.1419-1.562 2.5758-2.408 5.6136-2.408 8.9817v20.3412c0 3.4344.781 6.4722 2.408 9.114s3.774 4.623 6.637 6.0099c2.863 1.4529 6.117 2.1135 9.826 2.1135s6.832-.7266 9.565-2.1135c2.799-1.3869 4.946-3.4341 6.443-6.0099 1.496-2.5755 2.277-5.6136 2.277-9.114v-3.1038h-7.418v1.9812zm339.741 0c0 2.3115-.456 4.359-1.365 6.1419-.912 1.7172-2.214 3.0381-3.84 3.9627s-3.579 1.3869-5.727 1.3869-4.23-.4623-5.922-1.3869-2.991-2.2455-3.903-3.9627c-.912-1.7169-1.368-3.7644-1.368-6.1419v-5.0853c0-.8586.261-1.5189.717-1.9812s1.17-.7266 2.016-.7266h26.811v-10.5006c0-3.7647-.78-7.0008-2.277-9.7083-1.563-2.7738-3.711-4.8873-6.444-6.3402s-5.985-2.2455-9.63-2.2455-6.897.7263-9.825 2.1795c-2.865 1.4529-5.142 3.5001-6.702 6.1419-1.563 2.5758-2.409 5.6136-2.409 8.9817v20.3412c0 3.4344.78 6.4722 2.409 9.114 1.626 2.6418 3.774 4.623 6.636 6.0099 2.865 1.4529 6.117 2.1135 9.825 2.1135 3.711 0 6.834-.7266 9.567-2.1135 2.799-1.3869 4.944-3.4341 6.441-6.0099 1.497-2.5755 2.277-5.6136 2.277-9.114v-3.1038h-7.416v1.9812zm-295.814-34.4049c-2.733-1.3869-5.922-2.0472-9.631-2.0472s-6.832.7263-9.63 2.1792-5.011 3.5004-6.508 6.1422c-1.561 2.6415-2.277 5.6796-2.277 9.1137v2.3778h7.613v-2.2455c0-2.1135.456-3.9627 1.367-5.6139.911-1.6509 2.147-2.9058 3.774-3.8304 1.627-.8586 3.514-1.3209 5.661-1.3209s3.97.3963 5.596 1.2549c1.627.8586 2.863 2.0472 3.775 3.5664.91 1.5189 1.301 3.3021 1.301 5.2173v1.7172c0 1.1886-.391 2.1132-1.171 2.9058-.781.7926-1.757 1.1889-2.994 1.1889h-9.5c-3.254 0-6.052.6603-8.524 2.0472-2.408 1.3869-4.295 3.2361-5.662 5.6796-1.301 2.4438-2.017 5.2176-2.017 8.3214 0 3.1041.651 5.8779 1.952 8.2554 1.302 2.3775 3.124 4.2267 5.466 5.4816 2.343 1.3209 5.076 1.9152 8.199 1.9152h2.408c2.212 0 4.164-.3963 5.921-1.1226 1.757-.7266 3.254-1.8492 4.49-3.3681.521-.6606 1.041-1.3869 1.432-2.1795v6.0759h7.613v-37.1823c0-3.3021-.715-6.2079-2.277-8.7174-1.562-2.5098-3.644-4.425-6.377-5.7459zm198.665 0c-2.733-1.3869-5.985-2.0472-9.63-2.0472s-6.834.7263-9.63 2.1792c-2.799 1.4529-5.01 3.5004-6.507 6.1422-1.563 2.6415-2.277 5.6796-2.277 9.1137v2.3778h7.611v-2.2455c0-2.1135.456-3.9627 1.368-5.6139.909-1.6509 2.148-2.9058 3.774-3.8304 1.626-.8586 3.513-1.3209 5.661-1.3209s3.969.3963 5.595 1.2549c1.629.8586 2.865 2.0472 3.774 3.5664.846 1.5189 1.302 3.3021 1.302 5.2173v1.7172c0 1.1886-.39 2.1132-1.17 2.9058-.783.7926-1.758 1.1889-3.06 1.1889h-9.501c-3.252 0-6.051.6603-8.523 2.0472-2.409 1.3869-4.296 3.2361-5.661 5.6796-1.302 2.4438-2.016 5.2176-2.016 8.3214 0 3.1041.648 5.8779 1.95 8.2554s3.123 4.2267 5.466 5.4816c2.343 1.3209 5.076 1.9152 8.199 1.9152h2.409c2.211 0 4.164-.3963 5.922-1.1226 1.755-.7266 3.252-1.8492 4.488-3.3681.522-.6606 1.041-1.3869 1.431-2.1795v6.0759h7.614v-37.1823c0-3.3021-.78-6.2079-2.277-8.7174-1.497-2.5098-3.645-4.425-6.378-5.7459zm-149.277-1.2558c-.39-.396-.519-.9246-.519-1.5849v-10.3686h-7.549v10.3686c0 .7266-.195 1.2549-.52 1.5849-.326.3303-.911.5286-1.562.5286h-5.791v6.1419h5.791c.716 0 1.236.198 1.562.5283.39.3303.52.9246.52 1.5849v44.1168h7.549v-44.1168c0-.7263.195-1.2546.519-1.5849.327-.3963.912-.5283 1.563-.5283h8.784v-6.1419h-8.784c-.717 0-1.236-.1983-1.563-.5286zm-141.596-4.5597c0 1.1889-.391 2.1795-1.171 2.9721-.781.7926-1.757 1.1886-2.863 1.1886h-28.111c-1.172 0-2.148-.396-2.929-1.1886-.78-.7926-1.171-1.7832-1.171-2.9721v-19.4826h-7.808v76.9401h7.808v-42.3336c0-1.1886.391-2.1795 1.171-2.9718.781-.7926 1.757-1.1889 2.929-1.1889h28.111c1.171 0 2.082.3963 2.863 1.1889.78.7923 1.171 1.7832 1.171 2.9718v42.3336h7.873v-76.9401h-7.873zm421.793-19.4826-22.125 76.9401h7.938l2.994-10.1046c.261-.8586.717-1.5849 1.431-2.3115.717-.6603 1.758-.9906 3.123-.9906h26.094c.912 0 1.692.198 2.343.5943s1.107.8586 1.431 1.3209c.327.5283.522.9906.651 1.3869l3.123 10.1046h8.331l-22.905-76.9401zm43.074 76.9401h7.809v-76.9401h-7.809zm-277.521-51.3153c-2.409-1.4529-5.208-2.1135-8.265-2.1135-3.06 0-6.051.7266-8.526 2.1135-1.821 1.0566-3.381 2.4435-4.62 4.0947v-29.7195h-7.548v76.9401h7.548v-35.6631c0-2.2455.456-4.227 1.368-5.8779.912-1.6512 2.148-2.9721 3.774-3.9627s3.513-1.4529 5.661-1.4529 3.969.4623 5.595 1.4529c1.629.9906 2.865 2.2455 3.774 3.9627.846 1.6509 1.302 3.6324 1.302 5.8779v35.6631h7.548v-36.72c0-3.3021-.651-6.2739-2.016-8.7837-1.302-2.5095-3.189-4.4907-5.595-5.8776zm-76.009 51.3153h7.5483v-76.9401h-7.5483zm180.772-15.5826c0 1.9152-.39 3.5664-1.17 5.0193s-1.887 2.5758-3.255 3.3681c-1.431.7926-3.057 1.1889-4.944 1.1889h-3.255c-1.887 0-3.579-.3963-5.076-1.1889-1.494-.7923-2.601-1.9152-3.447-3.3681s-1.236-3.1041-1.236-5.0193.39-3.3681 1.236-4.755c.846-1.3209 1.953-2.3775 3.447-3.1701 1.497-.7926 3.189-1.1889 5.076-1.1889h8.85c1.173 0 2.082.3303 2.799.9909.714.6603 1.041 1.5849 1.041 2.7738v5.2833zm-198.73 0c0 1.9152-.39 3.5664-1.171 5.0193s-1.887 2.5758-3.254 3.3681c-1.431.7926-3.058 1.1889-4.945 1.1889h-3.254c-1.887 0-3.579-.3963-5.075-1.1889-1.497-.7923-2.603-1.9152-3.449-3.3681s-1.236-3.1041-1.236-5.0193.39-3.3681 1.236-4.755c.846-1.3209 1.952-2.3775 3.449-3.1701 1.496-.7926 3.188-1.1889 5.075-1.1889h8.85c1.171 0 2.082.3303 2.798.9909.716.6603 1.041 1.5849 1.041 2.7738v5.2833zm-191.375-13.4097c-6.1818 6.0099-15.0315 9.1797-25.5732 9.1797-10.5414 0-19.4563-3.1698-25.7031-9.1797-6.1167-5.8779-9.3703-14.1993-9.3703-24.1059v-4.4907c0-6.2742 1.3665-11.8879 3.9043-16.6429.5206-.9907 1.7569-1.2549 2.6028-.6605 2.2775 1.6511 4.6852 3.1701 7.0277 4.6891 9.5005 6.0758 17.6995 11.2934 17.6995 21.596v8.7837h7.5483v-8.7837c0-10.3026 8.199-15.5202 17.6994-21.596 2.3424-1.453 4.7502-3.038 7.0275-4.6891.9111-.6604 2.0823-.3302 2.6028.6605 2.538 4.755 3.9045 10.3027 3.9045 16.6429v4.5567c0 9.9066-3.2535 18.228-9.3054 24.1059zm539.376 7.3302c-.39.9906-1.497 1.5189-3.189 1.5189h-20.109c-1.689 0-2.733-.4623-3.123-1.4529s-.453-2.0472-.195-3.1041l11.91-42.8619c.195-.9245.651-1.3868 1.299-1.3868.651 0 .651.1321.846.3963s.393.5945.456.9905l12.429 42.8619c.261 1.0569.195 2.1135-.195 3.1041zm-101.964-12.1521c0 2.1132-.456 4.0284-1.368 5.6796-.912 1.6509-2.211 2.9058-3.84 3.8304-1.626.9246-3.579 1.3869-5.661 1.3869s-3.903-.4623-5.466-1.3869c-1.56-.9246-2.796-2.1795-3.708-3.8304-.846-1.6512-1.302-3.5004-1.302-5.6796v-2.5758c0-2.0472.456-3.8964 1.302-5.5476s2.082-2.9058 3.708-3.8304c1.563-.9246 3.384-1.3869 5.466-1.3869s4.035.4623 5.661 1.3869c1.629.9246 2.928 2.1792 3.84 3.8304s1.368 3.5004 1.368 5.5476zm-313.259-1.7166c0-2.2455.455-4.227 1.366-6.0099.912-1.7172 2.213-3.1041 3.905-4.0287s3.644-1.3869 5.921-1.3869c2.278 0 4.034.4623 5.661 1.3869s2.929 2.3115 3.839 4.0287c.912 1.7829 1.432 3.7644 1.432 6.0099v1.5849c0 .9246-.26 1.5849-.716 2.0472-.455.4623-1.106.6606-2.017.6606h-16.723c-.911 0-1.562-.1983-2.017-.6606-.456-.4623-.716-1.1226-.716-2.0472v-1.5849zm339.677 0c0-2.2455.453-4.227 1.431-6.0099.912-1.7172 2.211-3.1041 3.903-4.0287s3.645-1.3869 5.922-1.3869 4.035.4623 5.661 1.3869 2.928 2.3115 3.84 4.0287c.912 1.7829 1.431 3.7644 1.431 6.0099v1.5849c0 .9246-.261 1.5849-.714 2.0472-.456.4623-1.107.6606-2.019.6606h-16.722c-.912 0-1.563-.1983-2.019-.6606s-.714-1.1226-.714-2.0472zm-508.6662-22.3224c-3.5789 0-6.6372 2.9058-6.6372 6.4722s2.9933 6.6045 6.6372 6.6045c3.644 0 6.4421-2.9061 6.4421-6.6045s-2.9282-6.4722-6.4421-6.4722zm38.3907 0c-3.579 0-6.6372 2.9058-6.6372 6.4722s2.9931 6.6045 6.6372 6.6045c3.6438 0 6.4419-2.9061 6.4419-6.6045s-2.928-6.4722-6.4419-6.4722zm-19.1277-32.8234c10.4766 0 19.0659 3.17 25.1175 8.784-2.4075 1.783-5.0103 3.434-7.8084 5.2172-5.7264 3.6323-11.8431 7.5288-16.0077 12.9443-.7158.9246-2.0823.9246-2.7981 0-4.2294-5.4155-10.3461-9.312-16.0074-13.0104-2.733-1.7831-5.401-3.4341-7.7435-5.2171 6.1167-5.614 14.7713-8.784 25.3127-8.784z"
        />
    </g>
</svg>