<?xml version="1.0" encoding="UTF-8"?>
<svg xmlns="http://www.w3.org/2000/svg" viewBox="0 0 669 120">
    <g fill="currentColor" fill-rule="evenodd">
        <path
            d="M156.2 81.58c9.03-3.34 17.12-7.56 19.59-9.16 4.48-3.01 5.22-7.16 3.21-11.7-6.35-14.24-20.66-29.16-44.47-24.61-18.93 3.61-32.5 20.66-32.5 40.19 0 24.14 14.58 38.25 33.1 42.66 17.12 4.08 37.92-4.28 46.21-18.72 1.2-3.41-2.14-9.5-8.69-8.89-4.08 4.61-11.03 9.83-16.72 11.64-5.28 1.74-20.53 3.01-24.94-9.5-1.07-2.94-.2-3.81 2.27-4.28 1.2-.33 13.04-3.95 22.94-7.62Zm-9.16-9.03-6.82 2.27c-6.62 2.27-9.83 2.74-11.37-1.54-1.87-5.15-.07-21.33 8.36-23.87 8.89-2.67 14.58 1.67 17.25 10.83 1 3.34.8 6.95-.33 8.29-1.67 1.94-4.55 3.14-7.09 4.01Zm400.03 9.03c9.03-3.34 17.12-7.56 19.59-9.16 4.55-3.01 5.22-7.16 3.14-11.7-6.29-14.24-20.66-29.16-44.47-24.61-18.92 3.61-32.5 20.66-32.5 40.19 0 24.14 14.58 38.25 33.1 42.66 17.12 4.08 37.92-4.28 46.21-18.72 1.27-3.41-2.14-9.5-8.69-8.89-4.08 4.61-11.03 9.83-16.72 11.64-5.28 1.74-20.53 3.01-24.94-9.5-1.07-2.94-.2-3.81 2.27-4.28 1.27-.33 13.11-3.95 23-7.62Zm-9.16-9.03-6.89 2.27c-6.62 2.27-9.83 2.74-11.37-1.54-1.87-5.15-.07-21.33 8.36-23.87 8.89-2.67 14.58 1.67 17.25 10.83 1 3.34.8 6.95-.33 8.29-1.6 1.94-4.48 3.14-7.02 4.01Zm-159.96 9.03c9.03-3.34 17.12-7.56 19.59-9.16 4.48-3.01 5.22-7.16 3.14-11.7-6.29-14.24-20.66-29.16-44.47-24.61-18.92 3.61-32.5 20.66-32.5 40.19 0 24.14 14.58 38.25 33.1 42.66 17.12 4.08 37.92-4.28 46.21-18.72 1.2-3.41-2.14-9.5-8.69-8.89-4.08 4.61-11.03 9.83-16.72 11.64-5.28 1.74-20.53 3.01-24.94-9.5-1.07-2.94-.2-3.81 2.27-4.28 1.27-.33 13.11-3.95 23-7.62Zm-9.16-9.03-6.82 2.27c-6.62 2.27-9.9 2.74-11.37-1.54-1.87-5.15-.07-21.33 8.36-23.87 8.89-2.67 14.58 1.67 17.25 10.83 1 3.34.8 6.95-.33 8.29-1.67 1.94-4.48 3.14-7.09 4.01Zm-150 22.47v-53.3c0-1.81-1.07-2.88-2.88-2.88h-26.68c-2.07 0-2.47.4-2.94 2.34-.4 1.74-.2 3.08-.33 5.22-.13 2.07 1.07 2.21 2.67 3.01.74.33 1.2.87 1.74 1.14 1.74.94 2.61 4.21 2.61 9.5v34.97c0 7.22-2.34 9.7-4.48 10.63-.67.33-1.27.8-2.14 1.14-1.94.8-2.27 1.74-2.01 3.74.13.94-.07 3.48.4 5.22.53 1.94 1.14 2.34 3.61 2.34h34.91c2.47 0 3.01-.4 3.61-2.34.47-1.74.4-4.28.53-5.22.33-2.07-.07-3.01-2.01-3.81-.87-.33-1.47-.8-2.14-1.14-1.94-.87-4.48-3.34-4.48-10.57Zm-14.98-60.85c7.82 0 14.18-6.09 14.18-13.64s-6.35-13.64-14.18-13.64-14.18 6.09-14.18 13.64 6.35 13.64 14.18 13.64Zm63.8 32.5c0-7.96 4.41-12.51 9.83-13.17 3.54-.47 8.09 2.07 8.09 8.09v41.26c0 11.7 9.96 16.25 17.79 16.25 8.29 0 15.38-3.81 18.52-10.43.94-2.01-.13-3.74-1.2-4.81-1.34-1.34-2.21-2.41-4.15-1.47-2.34 1.14-5.95 5.22-5.95-1.14s-.13-26.41-.13-42.53c0-13.71-6.49-19.66-13.71-21.87-8.56-2.67-18.92 1.74-24.14 4.21-2.67 1.27-4.01 1.94-4.01 1.94s-.74-1.14-1-1.87c-.87-1.94-1.14-3.14-3.48-3.14h-25.61c-2.07 0-2.54.4-2.94 2.34-.4 1.74-.2 3.14-.33 5.22-.13 2.07 1.07 2.14 2.67 2.94.74.33 1.2.87 1.74 1.14 1.74 1 2.88 4.21 2.88 9.5v35.84c0 7.22-2.61 9.7-4.68 10.63-.74.33-1.34.8-2.14 1.14-1.94.8-2.34 1.74-2.01 3.74.13.94-.07 3.48.4 5.22.53 1.94 1.14 2.34 3.61 2.34h34.64c2.54 0 3.08-.4 3.61-2.34.47-1.74.4-4.28.53-5.22.27-2.07-.07-3.01-2.01-3.81-.8-.33-1.47-.8-2.14-1.14-2.07-1-4.61-3.48-4.61-10.63V66.68h-.07Zm341.65 0c0-7.96 4.41-12.51 9.83-13.17 3.48-.47 8.09 2.07 8.09 8.09v41.26c0 11.7 9.96 16.25 17.79 16.25 8.29 0 15.45-3.81 18.52-10.43.94-2.01-.13-3.74-1.27-4.81-1.34-1.34-2.21-2.41-4.15-1.47-2.34 1.14-5.88 5.22-5.88-1.14s-.13-26.41-.13-42.53c0-13.71-6.49-19.66-13.71-21.87-8.56-2.67-18.92 1.74-24.14 4.21-2.74 1.27-4.01 1.94-4.01 1.94s-.74-1.14-1-1.87c-.87-1.94-1.14-3.14-3.41-3.14h-25.68c-2.07 0-2.47.4-2.94 2.34-.4 1.74-.2 3.14-.33 5.22-.13 2.07 1.07 2.14 2.67 2.94.67.33 1.2.87 1.74 1.14 1.74 1 2.88 4.21 2.88 9.5v35.84c0 7.22-2.61 9.7-4.75 10.63-.67.33-1.27.8-2.14 1.14-1.94.8-2.27 1.74-2.01 3.74.13.94-.07 3.48.4 5.22.53 1.94 1.14 2.34 3.61 2.34h34.71c2.54 0 3.08-.4 3.61-2.34.47-1.74.4-4.28.53-5.22.33-2.07-.07-3.01-2.01-3.81-.8-.33-1.47-.8-2.14-1.14-2.07-1-4.61-3.48-4.61-10.63V66.68h-.07Z" />
        <path
            d="M493.04 106.8c-.8-.33-6.09-1.14-9.23-6.95l-19.19-35.11 11.7-11.3s3.08-2.88 5.28-4.41c2.27-1.54 5.08-2.54 6.15-2.74.94-.13 1.74-1 1.47-5.62-.27-4.01-1-4.28-1.94-4.41-.47-.07-2.21-.07-2.21-.07s-7.89.13-14.31.13-15.38-.13-15.38-.13-1.74.07-2.21.07c-1 .13-1.74.4-2.01 4.41-.27 3.61 0 4.61.87 5.02s1.81.74 3.08 1.6c1.67 1.14 2.21 2.54.67 4.08s-8.02 8.23-8.02 8.23l-7.82 6.49V14.91c-.27-4.21-1.4-6.09-6.02-6.09h-24.48c-2.07 0-2.81.4-3.28 2.34-.4 1.74-.33 2.67-.47 4.75-.2 2.07 1.07 2.21 2.67 3.01.67.33 2.01 1.07 2.61 1.4 2.74 1.6 3.61 3.21 3.61 9.76v64.87c0 7.22-2.34 9.7-4.41 10.63-.67.33-1.27.8-2.14 1.14-1.94.8-2.34 1.74-2.01 3.74.13.94-.07 3.48.4 5.22.53 1.94 1.14 2.34 3.61 2.34h34.64c2.54 0 3.08-.4 3.61-2.34.47-1.74.4-4.28.53-5.22.33-2.07-.07-3.01-2.01-3.81-.8-.33-1.47-.8-2.14-1.14-4.08-1.87-4.88-5.95-4.88-12.57v-4.68l7.02-5.75 18.32 33.3c.94 1.81 1.2 2.14 3.74 2.14h21.93c2.54 0 3.08-.4 3.61-2.34.53-1.74.4-4.28.53-5.22.33-1.81 0-2.81-1.94-3.61Zm144.64-91.22c0 8.63 6.95 15.58 15.58 15.58s15.58-6.95 15.58-15.58S661.89 0 653.27 0s-15.58 6.95-15.58 15.58Zm15.58 12.24c-6.75 0-12.24-5.48-12.24-12.24s5.48-12.24 12.24-12.24 12.24 5.48 12.24 12.24-5.48 12.24-12.24 12.24Z" />
        <path
            d="M646.85 23.14h3.81v-6.55s.2.07 1.54.13c1.94.07 2.94.4 3.48 2.21.4 1.2.6 2.41 1.4 4.21 1.67.07 2.14.07 3.95.07-.4-1.07-1.07-2.34-1.34-4.08-.33-1.81-.94-2.88-2.27-3.81 1.27-.47 2.54-2.01 2.54-4.28 0-3.54-3.74-4.68-5.08-4.68h-8.02v16.79Zm6.95-9.9h-3.08V9.43h2.67c1.2 0 2.61.53 2.61 1.81 0 1.2-.87 2.01-2.21 2.01ZM91.2 93.15V33.17c0-8.49.74-11.17 3.68-12.3 1.67-.67 4.35-1.94 5.22-2.34.8-.33 1.34-1.47.94-4.41-.33-2.81-.6-4.41-1.34-4.68-.33-.13-1.27-.2-2.67-.2-3.81-.07-37.05 0-37.05 0s-2.61 0-3.08.13c-.67.13-1.07 1.27-1.34 4.41-.33 3.61 0 4.41.87 4.75.87.4 2.74 1.6 4.01 2.34 2.27 1.14 3.21 3.81 3.21 12.3l-.13 14.85c0 1.27-1.07 2.34-2.34 2.34H40.25c-1.27 0-2.34-1.07-2.34-2.34l-.13-14.85c0-8.49.94-11.17 3.21-12.3 1.34-.67 3.28-1.87 4.08-2.34 1.6-.94.53-7.96-.27-8.89-.6-.74-3.08-.47-3.08-.47H4.4s-2.34.2-2.61.33c-1.34.53-2.47 8.36-.8 9.09.87.4 3.54 1.6 5.22 2.34 2.94 1.14 4.15 3.81 4.15 12.3v59.98c0 9.5-2.14 10.83-4.95 12.3-2.01 1.07-3.68 1.14-4.75 2.67-1.07 1.47-.13 9.23 1.2 9.9.53.27 3.21.27 3.21.27h38.18s2.54-.13 3.21-.27c1.4-.4 2.21-8.43 1.14-9.9-1.07-1.54-2.74-1.6-4.75-2.67-2.81-1.47-4.95-2.81-4.95-12.3l.13-23.94c0-1.27 1.07-2.34 2.34-2.34h21.06c1.27 0 2.34 1 2.34 2.34l.13 23.94c0 9.5-2.21 10.77-4.95 12.3-1.07.6-4.61 1.67-5.28 2.61-.74 1.07.2 9.3 1.6 9.9.6.27 2.34.33 2.34.33h39.86s2.27-.13 2.54-.27c1.34-.6 2.21-8.43 1.2-9.9-1.07-1.54-2.74-1.6-4.75-2.67-3.08-1.54-5.28-2.88-5.28-12.37Z" />
    </g>
</svg>