<?xml version="1.0" encoding="UTF-8"?>
<svg viewBox="0 0 375 120" xmlns="http://www.w3.org/2000/svg">
	<g fill="currentColor" fill-rule="evenodd">
		<path
			d="m95.08 0-8.92 9.18v35.15h-55.68v-35.15l-8.91-9.18h-12.62l-8.92 9.18v101.64l8.92 9.18h12.62l8.91-9.18v-35.15h55.68v35.15l8.92 9.18h12.61l8.91-9.18v-101.64l-8.91-9.18z" />
		<path
			d="m224.26 0-64.6 66.49v-57.31l-8.91-9.18h-12.62l-8.91 9.18v101.64l8.91 9.18h12.62l36.75-37.84 36.76 37.84h12.61l8.91-9.18v-12.99l-36.75-37.83 36.75-37.84v-12.98l-8.91-9.18z" />
		<path
			d="m366.05 0h-12.61l-8.92 9.18v79.48h-55.67v-79.48l-8.92-9.18h-12.61l-8.92 9.18v101.64l8.92 9.18h98.73l8.92-9.18v-101.64z" />
	</g>
</svg>