<?xml version="1.0" encoding="UTF-8"?>
<svg viewBox="0 0 288 120" xmlns="http://www.w3.org/2000/svg">
    <g fill="currentColor" fill-rule="evenodd">
        <path
            d="m9.48 114.14c-.24-.27-.53-.48-.87-.65s-.71-.29-1.12-.34v-.04c.65-.2 1.17-.53 1.56-1s.59-1.05.59-1.76-.14-1.23-.41-1.64-.62-.73-1.06-.96-.93-.38-1.47-.46c-.55-.08-1.09-.11-1.63-.11h-4.66v12.51h5.12c.55 0 1.11-.06 1.67-.18s1.06-.31 1.51-.58.81-.63 1.1-1.07c.28-.44.42-.99.42-1.65 0-.4-.06-.78-.19-1.13s-.32-.66-.56-.93zm-6.32-4.64h1.87c.21 0 .43.02.65.06s.42.11.6.2.32.23.43.4.17.39.17.65-.05.46-.15.64-.23.32-.4.42-.35.18-.56.23-.42.07-.63.07h-2v-2.67zm4.14 7.07c-.11.19-.26.34-.43.46-.18.12-.37.2-.59.25s-.43.07-.64.07h-2.47v-2.84h2.08c.22 0 .47.02.72.05.26.04.5.1.73.19.22.09.41.23.56.41s.22.42.22.72c0 .27-.06.5-.17.69z" />
        <path
            d="m20.9 113.23c.46-.62.69-1.37.69-2.25 0-.73-.13-1.34-.38-1.83s-.6-.88-1.02-1.17c-.43-.29-.93-.49-1.5-.62-.57-.12-1.17-.19-1.81-.19h-4.84v12.51h2.76v-5h1.36l2.61 5h3.3l-3.18-5.28c.88-.16 1.55-.56 2.01-1.17zm-2.39-1.47c-.15.19-.33.33-.56.41-.22.09-.47.14-.75.16s-.54.03-.79.03h-1.63v-2.84h1.8c.25 0 .5.02.76.05s.49.1.69.2.37.24.49.43c.13.19.19.44.19.76 0 .34-.07.61-.22.8z" />
        <path
            d="m28.17 107.18-5.41 12.51h3.04l1.04-2.65h4.86l1.08 2.65h3.11l-5.44-12.51zm-.46 7.53 1.52-3.89 1.54 3.89z" />
        <path d="m46.22 115.87h-.03l-5.32-8.69h-3.75v12.5h2.76v-8.9h.04l5.45 8.9h3.61v-12.5h-2.76z" />
        <path
            d="m60.89 108.6c-.67-.5-1.46-.86-2.36-1.09-.9-.22-1.85-.34-2.85-.34h-4.13v12.51h4.5c.93 0 1.82-.14 2.67-.41s1.6-.67 2.24-1.19c.65-.52 1.16-1.17 1.55-1.94.38-.77.57-1.66.57-2.68 0-1.14-.2-2.11-.59-2.91s-.93-1.45-1.6-1.95zm-1.02 6.52c-.23.49-.54.88-.95 1.18s-.87.52-1.42.65-1.14.19-1.77.19h-1.43v-7.42h1.63c.58 0 1.13.07 1.65.22s.98.37 1.37.66.7.67.93 1.12.34.99.34 1.6c0 .71-.11 1.3-.34 1.79z" />
        <path
            d="m78.56 107.96c-.43-.29-.93-.49-1.51-.61s-1.19-.18-1.84-.18h-4.65v12.51h2.76v-4.88h2.01c.66 0 1.27-.06 1.84-.19.57-.12 1.05-.33 1.47-.63.41-.29.74-.69.97-1.18s.35-1.11.35-1.84-.13-1.36-.38-1.85-.59-.88-1.02-1.17zm-1.63 3.74c-.11.19-.26.35-.44.46s-.39.19-.62.24-.47.07-.71.07h-1.84v-2.97h1.41c.26 0 .53.01.81.04s.54.1.77.2c.23.11.42.26.57.45s.22.45.22.77c0 .29-.06.54-.17.73z" />
        <path d="m84.23 114.59h5.42v-2.54h-5.42v-2.33h5.74v-2.54h-8.5v12.5h8.82v-2.54h-6.06z" />
        <path
            d="m101.35 113.23c.46-.62.69-1.37.69-2.25 0-.73-.13-1.34-.38-1.83s-.59-.88-1.02-1.17-.93-.49-1.5-.62c-.57-.12-1.17-.19-1.81-.19h-4.84v12.51h2.76v-5h1.36l2.61 5h3.3l-3.18-5.28c.88-.16 1.55-.56 2.01-1.17zm-2.39-1.47c-.15.19-.33.33-.56.41s-.47.14-.75.16-.54.03-.79.03h-1.63v-2.84h1.8c.25 0 .5.02.76.05.26.04.49.1.69.2s.36.24.49.43.19.44.19.76c0 .34-.07.61-.22.8z" />
        <path d="m104.07 119.68h2.75v-4.87h5.21v-2.55h-5.21v-2.54h5.64v-2.54h-8.39z" />
        <path
            d="m125.08 108.63c-.6-.57-1.31-1.01-2.14-1.32-.82-.31-1.73-.46-2.7-.46s-1.88.15-2.7.46-1.54.75-2.14 1.32-1.07 1.26-1.4 2.08c-.34.81-.5 1.72-.5 2.72s.17 1.91.5 2.72.8 1.5 1.4 2.08c.6.57 1.31 1.01 2.14 1.32.82.31 1.73.46 2.7.46s1.88-.15 2.7-.46 1.54-.75 2.14-1.32 1.07-1.26 1.4-2.08.5-1.72.5-2.72-.17-1.91-.5-2.72c-.34-.81-.8-1.5-1.4-2.08zm-1.23 6.41c-.18.49-.44.91-.79 1.27-.34.36-.75.64-1.23.84s-1.01.3-1.6.3-1.12-.1-1.6-.3-.89-.48-1.23-.84-.6-.78-.79-1.27c-.18-.49-.27-1.03-.27-1.62s.09-1.11.27-1.61c.18-.49.44-.92.79-1.28.34-.36.75-.64 1.23-.84s1.01-.3 1.6-.3 1.12.1 1.6.3.89.48 1.23.84.6.79.79 1.28c.18.49.27 1.03.27 1.61s-.09 1.13-.27 1.62z" />
        <path
            d="m137.74 113.23c.46-.62.69-1.37.69-2.25 0-.73-.13-1.34-.38-1.83s-.59-.88-1.02-1.17-.93-.49-1.5-.62c-.57-.12-1.17-.19-1.81-.19h-4.84v12.51h2.76v-5h1.36l2.61 5h3.3l-3.18-5.28c.88-.16 1.55-.56 2.01-1.17zm-2.39-1.47c-.15.19-.33.33-.56.41-.22.09-.47.14-.75.16s-.54.03-.79.03h-1.63v-2.84h1.8c.25 0 .5.02.76.05.26.04.49.1.69.2s.37.24.49.43c.13.19.19.44.19.76 0 .34-.07.61-.22.8z" />
        <path
            d="m147.49 115.34h-.04l-2.88-8.16h-4.16v12.5h2.75v-9.59h.04l3.16 9.59h2.1l3.29-9.59h.03v9.59h2.76v-12.5h-4.15z" />
        <path
            d="m161.18 107.18-5.41 12.51h3.04l1.04-2.65h4.86l1.08 2.65h3.11l-5.44-12.51zm-.46 7.53 1.52-3.89 1.54 3.89z" />
        <path d="m179.23 115.87h-.04l-5.32-8.69h-3.74v12.5h2.75v-8.9h.04l5.46 8.9h3.6v-12.5h-2.75z" />
        <path
            d="m191.75 117.1c-.44.24-.94.35-1.5.35-.49 0-.96-.1-1.39-.3s-.8-.48-1.12-.84-.57-.78-.75-1.27-.27-1.03-.27-1.62.09-1.11.27-1.61c.18-.49.43-.92.76-1.28.32-.36.71-.64 1.15-.84s.92-.3 1.44-.3.97.09 1.37.27c.39.18.73.43 1 .76l2.12-1.73c-.27-.34-.58-.63-.92-.87s-.7-.42-1.07-.57c-.37-.14-.75-.24-1.13-.31-.38-.06-.75-.1-1.1-.1-.98 0-1.88.15-2.7.46s-1.54.75-2.14 1.32-1.07 1.26-1.4 2.08c-.34.81-.5 1.72-.5 2.72s.17 1.91.5 2.72.8 1.5 1.4 2.08 1.31 1.01 2.14 1.32c.82.31 1.73.46 2.7.46.86 0 1.7-.18 2.51-.53s1.48-.9 2.01-1.64l-2.3-1.71c-.28.42-.64.75-1.08.99z" />
        <path d="m199.28 114.59h5.42v-2.54h-5.42v-2.33h5.74v-2.54h-8.49v12.5h8.81v-2.54h-6.06z" />
        <path
            d="m217.28 107.18-5.41 12.51h3.04l1.04-2.65h4.86l1.08 2.65h3.11l-5.44-12.51zm-.46 7.53 1.52-3.89 1.54 3.89z" />
        <path
            d="m232.03 114.81h2.24v2.03c-.26.14-.61.28-1.04.41-.44.14-.95.2-1.55.2s-1.12-.1-1.6-.3-.89-.48-1.23-.84-.6-.78-.79-1.27c-.18-.49-.27-1.03-.27-1.62s.09-1.11.27-1.61c.18-.49.44-.92.79-1.28.34-.36.75-.64 1.23-.84s1.01-.3 1.6-.3c.71 0 1.3.1 1.77.3s.89.49 1.27.88l1.94-2.12c-.64-.59-1.38-1-2.22-1.25s-1.76-.36-2.76-.36-1.88.15-2.7.46-1.54.75-2.14 1.32-1.07 1.26-1.4 2.08c-.34.81-.5 1.72-.5 2.72s.17 1.91.5 2.72.8 1.5 1.4 2.08 1.31 1.01 2.14 1.32c.82.31 1.73.46 2.7.46.92 0 1.82-.09 2.7-.28s1.73-.49 2.54-.92v-6.54h-4.89v2.54z" />
        <path d="m242.16 114.59h5.43v-2.54h-5.43v-2.33h5.75v-2.54h-8.5v12.5h8.81v-2.54h-6.06z" />
        <path d="m259.52 115.87h-.04l-5.32-8.69h-3.74v12.5h2.75v-8.9h.04l5.46 8.9h3.6v-12.5h-2.75z" />
        <path
            d="m272.04 117.1c-.44.24-.94.35-1.5.35-.49 0-.96-.1-1.39-.3s-.8-.48-1.12-.84-.57-.78-.75-1.27-.27-1.03-.27-1.62.09-1.11.27-1.61c.18-.49.44-.92.76-1.28s.71-.64 1.15-.84.92-.3 1.44-.3.97.09 1.37.27c.39.18.73.43 1 .76l2.12-1.73c-.27-.34-.58-.63-.92-.87s-.7-.42-1.07-.57c-.37-.14-.75-.24-1.13-.31-.38-.06-.75-.1-1.1-.1-.98 0-1.88.15-2.7.46s-1.54.75-2.14 1.32-1.07 1.26-1.4 2.08c-.34.81-.5 1.72-.5 2.72s.17 1.91.5 2.72.8 1.5 1.4 2.08c.6.57 1.31 1.01 2.14 1.32.82.31 1.73.46 2.7.46.86 0 1.7-.18 2.51-.53s1.48-.9 2.01-1.64l-2.3-1.71c-.28.42-.64.75-1.08.99z" />
        <path d="m281.51 111.86-2.65-4.68h-3.43l4.7 7.17v5.33h2.76v-5.33l4.7-7.17h-3.27z" />
        <path
            d="m275.6 93.71c6.62 0 11.99-5.37 11.99-11.99s-5.37-11.99-11.99-11.99-11.99 5.37-11.99 11.99 5.37 11.99 11.99 11.99z" />
        <path
            d="m137.78 44.23h-.01v-8.23h.27l36.82 57.7h21.71v-74.46h26.51v74.46h21.84v-74.46h26.66v-19.24h-75.01s-21.71 0-21.71 0v57.98h-.28l-36.81-57.98h-21.85v43.67h.02v16.08c0 8.52-4.67 17.72-17.59 17.72-13.6 0-17.31-10.03-17.31-21.84v-55.63h-21.84v35.72h-36.95v-35.72h-21.84v93.7h21.84v-39.43h37s0 .92 0 .96c.37 15 2.71 23.85 10.93 31.32 3.85 3.57 11.68 9.48 28.44 9.48 20.88 0 39.16-10.03 39.16-38.88z" />
    </g>
</svg>