<?xml version="1.0" encoding="UTF-8"?>
<svg xmlns="http://www.w3.org/2000/svg" viewBox="0 0 507 120">
    <g fill="currentColor" fill-rule="evenodd">
        <path
            d="M205.26 5.07s-.71-3.35-4.11-3.35h-17.54c-3.35 0-4.11 3.35-4.11 3.35l-28.39 109.96c-.96 3.35 3.35 3.35 3.35 3.35h14.45c2.64 0 3.35-3.35 3.35-3.35l19.97-77.47 19.97 77.47s.71 3.35 3.35 3.35H230s4.56 0 3.35-3.35L205.26 5.07ZM17.38 73.87H3.64s-3.6 0-3.6 3.6v37.77c0 3.35 3.6 3.35 3.6 3.35h13.74c3.35 0 3.35-3.35 3.35-3.35V77.22s0-3.35-3.35-3.35Zm324.82 0h-13.74s-3.6 0-3.6 3.6v37.77c0 3.35 3.6 3.35 3.6 3.35h13.74c3.35 0 3.35-3.35 3.35-3.35V77.22s0-3.35-3.35-3.35Zm158.07-10.34V49.79c0-3.35-3.35-3.6-3.35-3.6h-51.76v20.68h51.71c3.4 0 3.4-3.35 3.4-3.35Zm3.4-61.85h-58.5v20.68h58.45c3.35 0 3.35-3.35 3.35-3.35V5.27c0-3.4-3.3-3.6-3.3-3.6Zm-367.66 0h-12.98c-1.67 0-3.14 0-4.82 3.35L99.65 38.24 87.84 59.43 76.08 38.49 57.58 5.02c-1.67-3.35-3.14-3.35-4.82-3.35H39.78c-3.35 0-3.35 3.35-3.35 3.35s-.25 3.85 1.93 7.71 37.72 67.88 37.72 67.88l1.42 2.64c1.93 3.35 5.07 3.35 5.07 3.35h10.34s3.14 0 5.07-3.35l1.42-2.64s35.59-63.98 37.77-67.83c2.18-3.85 1.93-7.71 1.93-7.71s.25-3.4-3.09-3.4Zm225.45 64.49v48.82c0 3.35 3.35 3.35 3.35 3.35h13.74c3.35 0 3.6-3.35 3.6-3.35v-7.45c-5.07-12.02-11.56-27.43-17.54-41.37-.25 0-3.14-8.16-3.14 0ZM17.38 1.67H3.64s-3.6 0-3.6 3.6v44.77c0 3.35 3.6 3.35 3.6 3.35h13.74c3.35 0 3.35-3.35 3.35-3.35V5.07s0-3.4-3.35-3.4ZM309.7 53.18h-31.03c-1.22 0-2.18.46-2.64 1.22-.96.96-.96 2.38-.96 2.38v13.74c0 3.35 3.6 3.35 3.6 3.35h10.09v12.02s0 2.89-1.22 5.78c-.25.71-.46 1.42-.96 1.93-1.42 2.64-4.11 6.03-11.56 6.03s-10.09-3.14-11.56-6.03c-1.93-3.6-2.18-7.71-2.18-7.96v-8.42c0-3.35-3.35-3.35-3.35-3.35h-13.74c-3.35 0-3.35 3.35-3.35 3.35v8.42c0 .96 0 8.67 4.11 16.58 1.67 3.6 4.11 6.74 6.74 9.13 6.03 5.53 13.94 8.67 23.57 8.67 13.74 0 24.54-6.24 30.32-17.79.96-1.93 1.67-3.6 2.18-5.27 1.93-5.78 1.93-10.85 1.93-11.31V53.2Zm32.49-51.51h-13.74s-3.6 0-3.6 3.6v44.77c0 3.35 3.6 3.35 3.6 3.35h13.74c3.35 0 3.35-3.35 3.35-3.35V5.07s0-3.4-3.35-3.4Zm161.47 96.27h-58.5v20.68h58.45c3.35 0 3.35-3.35 3.35-3.35v-13.74c.05-3.4-3.3-3.6-3.3-3.6ZM36.14 57.74v57.49c0 3.35 3.6 3.35 3.6 3.35h13.74c3.35 0 3.35-3.35 3.35-3.35V89.02L39.49 57.74s-3.35-6.03-3.35 0Zm99.87 0-17.34 31.03v26.21s0 3.35 3.6 3.35h13.74s3.35 0 3.35-3.35V57.49c0-5.78-3.35.25-3.35.25ZM426.4 1.67h-13.74c-3.35 0-3.6 3.6-3.6 3.6V65.9l-25.5-60.84c-1.67-3.35-3.6-3.35-5.27-3.35h-13.74c-3.35 0-3.85 2.38-2.64 5.53l45.48 108.04c1.67 3.35 3.6 3.35 5.27 3.35h13.74c3.35 0 3.35-3.35 3.35-3.35V5.07c.05-3.4-3.35-3.4-3.35-3.4ZM275.53 0c-13.74 0-24.54 6.24-30.32 17.79-4.11 7.96-4.11 15.87-4.11 16.58v15.41s0 3.35 3.35 3.35h13.74s3.35 0 3.35-3.35V34.37c0-.25.25-4.31 2.18-7.96 1.42-2.64 4.11-6.03 11.56-6.03s10.09 3.14 11.56 6.03c1.93 3.85 2.18 7.96 2.18 7.96v1.67s0 3.35 3.35 3.35h13.74s3.6 0 3.6-3.35v-1.67c0-.96-.25-8.67-4.11-16.58C300.07 6.23 289.28 0 275.54 0Z" />
    </g>
</svg>