<?xml version="1.0" encoding="UTF-8"?>
<svg viewBox="0 0 520 120" xmlns="http://www.w3.org/2000/svg">
	<g fill="currentColor" fill-rule="evenodd">
		<path
			d="m7.1 63.3c3.8 0 6.8-3 6.8-6.8s-3-6.8-6.8-6.8c-3.8 0-6.8 3-6.8 6.8s3.1 6.8 6.8 6.8z" />
		<path
			d="m94.9 39.7-32-18.5c-.2-.1-.3-.2-.5-.3-.1 0-.1-.1-.2-.1l-30.2-17.3s-.1-.1-.1-.1c-8.9-6.1-21-3.8-27.1 5.1-2.1 3.1-3.3 6.8-3.4 10.6v.4 13.6.3c0 3.1 2.5 5.6 5.6 5.6s5.6-2.5 5.6-5.6v-13.9c0-.1 0-.3 0-.4.2-4.3 3.8-7.7 8.2-7.7.8 0 1.7.1 2.5.4.8.2 1.5.6 2.2 1.1l31.4 18.2.7.3 31.5 18.2c1.9 1.1 3.2 2.9 3.8 4.9.6 2.1.3 4.3-.8 6.2-.7 1.3-1.8 2.3-3 3l-31.9 18.4-.7.4c-.2.1-.3.2-.5.3l-.1.1-30.9 17.8c-1.9 1.1-4.1 1.3-6.2.8-2.1-.6-3.8-1.9-4.9-3.8-.1-.1-.1-.2-.2-.4-.6-1.1-.9-2.4-.9-3.7v-14c0-3.1-2.5-5.6-5.6-5.7s-5.6 2.5-5.7 5.6v.5 13.6c0 1.6.2 3.1.5 4.6l.1.4c.4 1.5 1 3 1.8 4.4.1.1.1.2.2.3 5.3 9.3 17.1 12.5 26.4 7.2 0 0 .1 0 .1-.1l30.9-17.9.1-.1c11.3-5.8 21.9-13 33-19 9.4-5.3 12.7-17.1 7.4-26.5-1.6-2.9-4.1-5.4-7.1-7.2z" />
		<path
			d="m35.1 72.9c.7 0 1.4-.2 2-.5l21.6-12.5c.6-.4 1.1-.9 1.5-1.5 1.1-1.9.4-4.3-1.5-5.4l-9.7-5.6c-4-2.1-8-4.6-12-6.9-.7-.4-1.4-.6-2.2-.5-2.2.1-3.8 2-3.7 4.2v24.7c.1 2.3 1.9 4 4 4z" />
		<path
			d="m212.8 44.5c-1.2-1.1-2.7-2-4.2-2.5-2.1-.6-4.3-.9-6.4-.8-2.2 0-4.4.2-6.5.8-1.6.4-3.1 1.2-4.3 2.3-1.1 1-1.9 2.2-2.4 3.6-.5 1.5-.8 3-.8 4.6h7.9c.2-1.3.7-2.5 1.6-3.5 1.2-1 2.7-1.5 4.2-1.3 1.4-.1 2.7.2 4 .9.3.2.6.4.8.7 1 1.3.8 3.2-.5 4.2-1.3.7-2.8 1.1-4.3 1.2-2.1.3-4.1.6-5.9 1-1.6.3-3.2.9-4.7 1.7-1.3.8-2.4 1.9-3.1 3.2-.8 1.7-1.2 3.6-1.1 5.5-.1 2.4.9 4.7 2.6 6.4 2.3 1.8 5.2 2.7 8.1 2.5 2 0 3.9-.3 5.8-1 1.5-.6 2.9-1.5 4-2.7.1 1 .2 1.9.5 2.9h7.9v-20.3c0-1.8-.2-3.6-.7-5.4-.7-1.5-1.5-2.9-2.5-4zm-6.2 20.2c-.8 1.7-2.3 3.1-4.1 3.7-1 .4-2 .6-3 .6-2.7 0-4.1-1.2-4.1-3.6-.1-1.2.4-2.4 1.4-3.2 1.5-1 3.2-1.6 5-1.8 1.2-.2 2.4-.5 3.6-.9.7-.2 1.4-.5 1.9-1l-.1 3.5c0 .9-.2 1.9-.6 2.7z" />
		<path
			d="m287.3 74.2h8.6v-22.3c0-1.6-.2-3.1-.8-4.6-.5-1.3-1.3-2.4-2.2-3.4-1-.9-2.1-1.6-3.4-2.1-1.4-.5-2.8-.7-4.3-.7-2.2-.1-4.4.4-6.4 1.4-1.7 1-3.1 2.4-4 4.2v-4.7h-8.1v32.2h8.5v-18.4c0-4.9 2.2-7.4 6.6-7.4 1.5-.2 3.1.3 4.3 1.3 1 1.5 1.4 3.3 1.2 5z" />
		<path
			d="m177.9 42c-1.4-.6-2.9-.8-4.4-.8-1.8-.1-3.6.4-5.2 1.2-1.5.9-2.7 2.3-3.5 3.9-.5-.8-1.2-1.6-1.8-2.4-.6-.6-1.2-1.2-1.9-1.6s-1.5-.7-2.3-.9c-1-.2-1.9-.3-2.9-.3-1.9-.1-3.8.4-5.5 1.2-1.7 1-3.1 2.5-3.9 4.4v-4.7h-8v32.2h8.5v-19.5c0-4.2 1.7-6.3 5.2-6.3.8 0 1.6.1 2.4.3.6.2 1.2.5 1.6 1 .5.6.8 1.2.9 2 .2 1.1.3 2.1.3 3.2v19.4h8.5v-19.3c-.1-1.8.5-3.5 1.5-4.9.9-1.2 2.4-2 3.9-2 1.4 0 2.8.6 3.7 1.8 1 1.4 1.5 3.1 1.4 4.8v19.5h8.3v-22.3c0-2.8-1.1-5.6-3.1-7.6-1.2-1-2.4-1.8-3.7-2.3z" />
		<path
			d="m329.1 64.7h-8.8c-.3 1.1-1 2.1-2.1 2.7s-2.4 1-3.7.9c-1.9.1-3.8-.7-5.1-2.2-1.4-1.6-2.1-3.7-2.1-5.8h22.2c0-6.4-1.3-11.2-3.8-14.4-2.8-3.3-7-5.1-11.3-4.8-2.3 0-4.5.3-6.6 1.1-1.9.7-3.5 1.8-4.9 3.3s-2.4 3.3-3 5.2c-.7 2.2-1.1 4.4-1 6.7 0 11.7 5.4 17.5 16.1 17.5 3.2.1 6.3-.9 8.9-2.7 2.6-1.7 4.4-4.4 5.2-7.5zm-19.3-14.9c1.2-1.2 2.7-1.9 4.4-1.9.8 0 1.6.1 2.4.4s1.5.7 2.1 1.3 1.1 1.4 1.5 2.2c.4 1 .6 2 .6 3.1h-13.1c0-1.8.8-3.7 2.1-5.1z" />
		<path
			d="m241.9 46c-1.9-3.2-5.4-5-9-4.8-1.9 0-3.8.4-5.5 1.2s-3.2 2-4.4 3.4c-1.3 1.6-2.3 3.4-3 5.3-.8 2.2-1.1 4.5-1.1 6.8 0 2.1.3 4.1.8 6.1.5 1.9 1.3 3.7 2.4 5.3s2.7 2.8 4.4 3.7c2.1 1 4.4 1.5 6.7 1.4 1.9 0 3.8-.4 5.5-1.2 1.5-.7 2.6-1.9 3.3-3.3v5.3c.1 2-.8 3.9-2.4 5.1-1.6 1.3-3.7 1.9-5.8 1.9-1.8.1-3.7-.5-5.1-1.6-1.3-1.1-2-2.8-1.9-4.5h-7.9c0 1.9.4 3.9 1.2 5.6.8 1.6 1.9 3.1 3.2 4.2 1.5 1.2 3.1 2.1 4.9 2.7 4.1 1.3 8.4 1.3 12.5 0 1.9-.6 3.6-1.6 5.1-2.8 1.5-1.3 2.6-2.9 3.4-4.6.9-2 1.3-4.2 1.2-6.4v-32.8h-8.5zm-1.7 19.4c-1.3 1.5-3.2 2.4-5.2 2.4-2 0-4-.9-5.2-2.5-1.5-2-2.2-4.4-2.1-6.9 0-6.5 2.4-9.8 7.3-9.8 4.8 0 7.3 3.4 7.3 10.3 0 2.4-.7 4.7-2.1 6.5z" />
		<path
			d="m254.4 42h8.5v32.2h-8.5z" />
		<path d="m126.1 42h8.5v32.2h-8.5z" />
		<path
			d="m452.1 67.4c2.9 6.4 10.4 9.3 16.8 6.5 11.3-4.1 12-27.9-.7-32.3-8.9-3.1-14.1 2.6-16.2 6.5l-.1-6.5h-4.3v47.8l4.4-.1zm8.1-22.4c14.6-3.7 17.6 23 4.6 25.6-15.1 3-17.8-22.2-4.6-25.6z" />
		<path
			d="m375.6 57.1c-.5-20.6-22.4-19.5-25.4-8.6l-.1-6.9h-4.3v48h4.4v-22c1.4 2.8 3.8 4.9 6.6 6.1 8.4 3.6 19.2-1 18.8-16.6zm-25.3 3.4c-1-8.2 1.5-13.7 8-15.4 15.1-4 17.1 22.3 5.6 25.3-8.3 2.1-12.8-3.2-13.6-9.9z" />
		<path
			d="m400.8 68.7c-3.6 3.7-16.9 4.9-17.1-10.1h24.9c-.3-24.6-27.2-22-29.3-4.5-3.1 25.2 24.7 26.2 28.7 10.3-7.5 0-3.5.5-7.2 4.3zm3.1-13.1h-20.2c1.2-14.7 19.1-15.1 20.2 0z" />
		<path
			d="m511.8 68.7c-3.6 3.7-16.9 4.9-17.1-10.1h24.9c-.3-24.6-27.2-22-29.3-4.5-3.1 25.3 24.7 26.2 28.7 10.3-7.4 0-3.4.5-7.2 4.3zm3.2-13.1h-20.2c1.2-14.7 19-15.1 20.2 0z" />
		<path
			d="m424 41.3c-20 4.5-14.5 38.2 7.6 33.1 18.6-4.3 14.9-38.2-7.6-33.1zm-7.3 19.4c-2.6-20.4 20.6-20.8 22.1-5.2 1.8 19-20.2 20.3-22.1 5.2z" />
		<path
			d="m486.3 31.9-4.5.2v41.8l4.5.1z" />
		<path
			d="m130.3 29.3c-2.6 0-4.7 2.1-4.7 4.7s2.1 4.7 4.7 4.7 4.7-2.1 4.7-4.7-2.1-4.7-4.7-4.7z" />
		<path
			d="m258.6 38.6c2.6 0 4.7-2.1 4.7-4.7s-2.1-4.7-4.7-4.7-4.7 2.1-4.7 4.7 2.1 4.7 4.7 4.7z" />
		<path
			d="m267.1 101.6c-1.9 0-3.8.4-5.5 1.3v12h1.9v-10.9c1.1-.3 2.3-.5 3.4-.5.6 0 1.3.1 1.9.3.4.1.8.4 1.1.7.2.3.4.6.4.9.1.3.1.6.1 1v8.5h1.9v-8.5c.1-1.3-.4-2.6-1.4-3.5s-2.4-1.4-3.8-1.3z" />
		<path
			d="m436.1 101.9c-.7.2-1.4.5-1.9 1-.7.5-1.2 1.3-1.5 2.1-.4 1.1-.6 2.2-.6 3.4 0 1 .1 1.9.4 2.9.2.7.5 1.4 1 2 .4.5.9.9 1.4 1.2s1.1.5 1.6.6c.6.1 1.1.2 1.7.2 1.3 0 2.6-.2 3.9-.7v-1.8c-1.2.5-2.4.8-3.7.8-1.2.1-2.5-.3-3.4-1.2-1.4-2.3-1.4-5.3 0-7.6.9-.9 2.1-1.3 3.4-1.2 1.3 0 2.5.2 3.7.7v-1.8c-1.2-.5-2.6-.7-3.9-.7-.7-.2-1.4-.1-2.1.1z" />
		<path
			d="m255.5 101.8h1.9v13.1h-1.9z" />
		<path
			d="m282 107.8c-.7-.3-1.4-.5-2.1-.7-.6-.2-1.2-.4-1.8-.7-.4-.2-.7-.6-.7-1.1 0-1.3 1-2 3-2 1.1 0 2.2.3 3.2.9v-1.9c-1-.5-2.2-.8-3.4-.8-1.3-.1-2.5.3-3.5 1.1-.7.7-1.2 1.7-1.1 2.7 0 .7.2 1.5.7 2s1.1.9 1.8 1.1 1.4.4 2.1.6c.6.2 1.2.4 1.8.8.5.4.7.9.7 1.5 0 1.2-1 1.8-3 1.8-1.4 0-2.7-.4-3.9-1.2v2c1.2.7 2.6 1 4 1 1.3.1 2.5-.3 3.5-1 .8-.6 1.3-1.6 1.3-2.7 0-.8-.2-1.7-.7-2.3-.5-.3-1.2-.8-1.9-1.1z" />
		<path
			d="m328.7 101.6c-1.9 0-3.8.4-5.5 1.3v12h1.9v-10.9c1.1-.3 2.3-.5 3.4-.5.6 0 1.3.1 1.9.3.4.1.8.4 1.1.7.2.3.4.6.5.9s.1.6.1 1v8.5h1.9v-8.5c.1-1.3-.4-2.6-1.4-3.5-1.2-.9-2.5-1.4-3.9-1.3z" />
		<path
			d="m374.5 101.9h1.9v13.1h-1.9z" />
		<path d="m365.6 112.6-4-10.7h-2l5 13.1h1.9l5-13.1h-2z" />
		<path
			d="m388.9 102.1c-1-.3-2.1-.5-3.2-.5-.7 0-1.4.1-2.1.3s-1.3.5-1.9.9c-.7.5-1.2 1.2-1.5 2-.4 1.1-.6 2.2-.5 3.3 0 1 .1 2.1.4 3 .2.7.5 1.4 1 2 .4.5.9.9 1.4 1.2s1 .5 1.5.6 1 .1 1.4.1c1 0 2-.1 2.9-.5.7-.2 1.3-.7 1.7-1.2.3-.4.5-.8.6-1.3.1-.3.1-.7.2-1.1v-14h-1.9zm0 9c0 1.5-1.2 2.3-3.5 2.3-.4 0-.9-.1-1.3-.2s-.8-.4-1.2-.7c-.5-.4-.8-1-1-1.6-.3-.9-.4-1.8-.4-2.8-.1-1.3.2-2.6 1-3.7.8-.8 2-1.3 3.1-1.2 1.1 0 2.2.2 3.2.7v7.2z" />
		<path
			d="m418.5 102.9c-.6-.4-1.2-.8-1.9-1s-1.4-.3-2.2-.3c-.7 0-1.5.1-2.2.3s-1.3.5-1.9 1c-.7.5-1.2 1.3-1.5 2.1-.7 2.2-.7 4.6 0 6.8.3.8.8 1.6 1.5 2.1.6.4 1.2.8 1.9 1s1.4.3 2.2.3c.7 0 1.5-.1 2.2-.3s1.4-.5 1.9-1c.7-.5 1.2-1.3 1.5-2.1.7-2.2.7-4.6 0-6.8-.3-.9-.8-1.6-1.5-2.1zm-.9 9.3c-.8.9-2 1.3-3.2 1.2-1.2.1-2.4-.3-3.2-1.2-1.4-2.4-1.4-5.3 0-7.7.8-.9 2-1.3 3.2-1.2 1.2-.1 2.4.3 3.2 1.2 1.4 2.4 1.4 5.3 0 7.7z" />
		<path
			d="m514.4 98.1h-1.9v3.7h-2.3v1.7h2.3v7.9c0 .7.1 1.4.4 2 .2.5.6.9 1 1.1s.7.4 1.1.5c.3.1.7.1 1 .1h.1c.6 0 1.1-.1 1.7-.3v-1.8c-.5.2-1 .3-1.5.3-.5.1-1-.1-1.5-.4-.3-.4-.5-.9-.4-1.4v-8h3.4v-1.7h-3.4z" />
		<path
			d="m465.1 101.6c-1.9 0-3.8.4-5.5 1.3v12h1.9v-10.9c1.1-.3 2.3-.5 3.4-.5.6 0 1.3.1 1.9.3.4.1.8.4 1.1.7.2.3.4.6.5.9s.1.6.1 1v8.5h1.9v-8.5c.1-1.3-.4-2.6-1.4-3.5-1.2-.9-2.5-1.4-3.9-1.3z" />
		<path
			d="m405 105.6c-.2-.5-.4-1-.6-1.4-.3-.5-.6-1-1-1.3-.5-.4-1-.7-1.5-.9-.7-.3-1.4-.4-2.2-.4-3.8 0-5.7 2.3-5.7 6.8v.2c0 1.1.1 2.3.5 3.3.3.8.8 1.5 1.4 2 .6.4 1.2.7 1.9.9s1.4.3 2.1.3h.1c1.6 0 3.1-.3 4.6-.9v-2c-1.4.7-2.9 1.1-4.5 1-1.1.1-2.2-.2-3-.9-.8-.8-1.2-1.8-1.2-2.9h9.5v-.9-.5c0-.1 0-.5-.1-1s-.2-.9-.3-1.4zm-9.2 2.2c0-1.2.3-2.4 1-3.4.7-.7 1.8-1.1 2.8-1 .7 0 1.5.2 2.1.6.5.3.9.9 1.2 1.4.2.5.3.9.4 1.4.1.3.1.7.1 1z" />
		<path
			d="m347.3 103.3c-.4-.6-1-1-1.6-1.2-.9-.3-1.9-.5-2.8-.5-.6 0-1.2.1-1.8.2-.6.2-1.2.5-1.8.9-.7.5-1.2 1.3-1.5 2.1-.4 1.1-.6 2.3-.6 3.5 0 .9.1 1.8.4 2.7.2.7.5 1.3.9 1.8s.8.9 1.4 1.1c.5.3 1 .5 1.5.6s1.1.2 1.6.1c1 0 2.1-.2 3.1-.5v1.3c0 .3 0 .7-.1 1s-.3.6-.5.8c-.3.3-.8.5-1.2.6-.7.2-1.4.2-2.1.2-1.2 0-2.4-.2-3.5-.5v1.8c1.2.3 2.5.5 3.7.5 1 0 1.9-.1 2.9-.4.7-.2 1.3-.6 1.8-1.1.4-.4.6-.9.8-1.4s.3-1.1.2-1.6v-9.9c0-.4-.1-.7-.2-1.1-.1-.2-.3-.6-.6-1zm-1.1 9c-1 .4-2 .6-3.1.6-.5 0-1 0-1.4-.2-.4-.1-.9-.3-1.2-.6-.4-.4-.8-.9-.9-1.4-.2-.8-.3-1.6-.3-2.4 0-.9.1-1.8.3-2.6.1-.6.5-1.1.9-1.5.3-.3.7-.5 1.2-.6.4-.1.8-.2 1.3-.2 2.2 0 3.3.7 3.3 2.2v6.7z" />
		<path
			d="m476.8 98.1h-1.9v3.7h-2.3v1.7h2.3v7.9c0 .7.1 1.4.4 2 .2.5.6.9 1 1.1s.7.4 1.1.5c.3.1.7.1 1 .1h.1c.6 0 1.1-.1 1.7-.3v-1.8c-.5.2-1 .3-1.5.3-.5.1-1-.1-1.5-.4-.3-.4-.5-.9-.4-1.4v-8h3.4v-1.7h-3.4z" />
		<path
			d="m302.3 101.8h1.9v13.1h-1.9z" />
		<path
			d="m308 114.9h1.9v-10.8c1.5-.4 3-.6 4.5-.7v-1.8c-2.2 0-4.3.4-6.4 1.2z" />
		<path
			d="m297.4 103.5c-.4-.5-.9-.9-1.4-1.2s-1-.5-1.5-.6-1-.1-1.4-.1c-1 0-2 .1-2.9.5-.7.2-1.3.7-1.7 1.3-.3.4-.5.9-.6 1.3-.1.3-.2.7-.2 1.1v14.1h1.9v-5.2c1.1.3 2.1.5 3.2.5.7 0 1.4-.1 2.1-.3s1.3-.5 1.9-.9c.7-.5 1.2-1.2 1.5-2.1.4-1.1.6-2.2.5-3.3 0-1-.1-2-.4-3-.2-.8-.6-1.5-1-2.1zm-1.5 8.7c-.8.8-2 1.2-3.1 1.1-1.1 0-2.2-.2-3.2-.7v-7c0-1.6 1.2-2.3 3.5-2.3.4 0 .9.1 1.3.2s.9.4 1.2.7c.5.4.8 1 1 1.6.3.9.4 1.8.3 2.8.1 1.2-.2 2.5-1 3.6z" />
		<path
			d="m317.1 101.8h1.9v13.1h-1.9z" />
		<path
			d="m454.5 102.9c-.6-.4-1.2-.8-1.9-1s-1.4-.3-2.2-.3c-.7 0-1.5.1-2.2.3s-1.3.5-1.9 1c-.7.5-1.2 1.3-1.5 2.1-.7 2.2-.7 4.6 0 6.8.3.8.8 1.6 1.5 2.1.6.4 1.2.8 1.9 1s1.4.3 2.2.3c.7 0 1.5-.1 2.2-.3s1.4-.5 1.9-1c.7-.5 1.2-1.3 1.5-2.1.7-2.2.7-4.6 0-6.8-.3-.9-.8-1.6-1.5-2.1zm-.9 9.3c-.8.9-2 1.3-3.2 1.2-1.2.1-2.4-.3-3.2-1.2-1.4-2.4-1.4-5.3 0-7.7.8-.9 2-1.3 3.2-1.2 1.2-.1 2.4.3 3.2 1.2 1.4 2.4 1.4 5.3 0 7.7z" />
		<path
			d="m493.5 105.6c-.2-.5-.4-1-.6-1.4-.3-.5-.6-1-1-1.3-.5-.4-1-.7-1.5-.9-.7-.3-1.4-.4-2.2-.4-3.8 0-5.7 2.3-5.7 6.8v.2c0 1.1.1 2.3.5 3.3.3.8.8 1.5 1.4 2 .6.4 1.2.7 1.9.9s1.4.3 2.1.3h.1c1.6 0 3.1-.3 4.6-.9v-2c-1.4.7-2.9 1.1-4.5 1-1.1.1-2.2-.2-3-.9-.8-.8-1.2-1.8-1.2-2.9h9.5v-.9-.5c0-.1 0-.5-.1-1s-.2-.9-.3-1.4zm-9.2 2.2c0-1.2.3-2.4 1-3.4.7-.7 1.8-1.1 2.8-1 .7 0 1.5.2 2.1.6.5.3.9.9 1.2 1.4.2.5.3.9.4 1.4.1.3.1.7.1 1z" />
		<path
			d="m502.6 101.6c-1.9 0-3.8.4-5.5 1.3v12h1.9v-10.9c1.1-.3 2.3-.5 3.4-.5.6 0 1.3.1 1.9.3.4.1.8.4 1.1.7.2.3.4.6.5.9s.1.6.1 1v8.5h1.9v-8.5c.1-1.3-.4-2.6-1.4-3.5-1.1-1-2.5-1.4-3.9-1.3z" />
	</g>
</svg>