<?xml version="1.0" encoding="UTF-8"?>
<svg viewBox="0 0 651 120" xmlns="http://www.w3.org/2000/svg">
	<g fill="currentColor" fill-rule="evenodd">
		<path
			d="m251.65 38.27 23.89-5.96c2.55 0 4.99 1.03 6.79 2.86s2.81 4.3 2.81 6.88v40.11c0 1.28-.25 2.55-.73 3.73s-1.19 2.26-2.08 3.16-1.95 1.62-3.12 2.11-2.42.74-3.68.74l-23.87-5.97v14.46c-.01 5.2-2.05 10.18-5.68 13.85s-8.55 5.74-13.67 5.74h-127.55c-5.13 0-10.05-2.07-13.68-5.74s-5.68-8.66-5.69-13.85v-80.76c0-5.21 2.04-10.2 5.68-13.88 3.62-3.68 8.54-5.75 13.68-5.75h127.53c2.54 0 5.06.51 7.41 1.49 2.35.99 4.49 2.43 6.29 4.26 1.8 1.82 3.23 3.99 4.2 6.37s1.48 4.93 1.48 7.51v18.64zm-96.9 15.55c2.36.94 4.5 2.35 6.32 4.13 1.83 1.79 3.28 3.95 4.25 6.33.98 2.41 1.48 4.99 1.48 7.6.03 3.69-.97 7.32-2.9 10.45-1.96 3.15-4.75 5.69-8.05 7.33-3.6 1.77-7.56 2.67-11.56 2.61-4.5.11-8.94-1.04-12.83-3.33-3.72-2.33-6.63-5.77-8.33-9.84-2-4.93-2.97-10.23-2.84-15.57-.06-4.5.51-8.99 1.69-13.33.97-3.63 2.67-7.01 5-9.94 2.12-2.62 4.83-4.68 7.89-6.02 3.3-1.38 6.84-2.06 10.41-2.01 3.44-.07 6.85.63 10 2.03 2.6 1.12 4.87 2.88 6.63 5.12 1.41 1.75 2.22 3.91 2.31 6.16 0 .7-.16 1.39-.44 2.02-.28.64-.69 1.2-1.2 1.67-1.11.97-2.5 1.54-3.96 1.61s-2.9-.35-4.1-1.21c-1.21-.81-2.14-1.98-2.67-3.36-.54-1.31-1.47-2.42-2.65-3.18-1.22-.77-2.63-1.2-4.08-1.23-1.44-.03-2.87.34-4.12 1.07-1.32.7-2.47 1.68-3.37 2.88-1.61 2.13-2.67 5.81-3.17 10.96 1.34-1.14 2.83-2.08 4.43-2.8 5.08-2.07 10.74-2.12 15.85-.15zm-13.87 27.79c1.14.53 2.38.79 3.63.77 1.17.04 2.34-.19 3.41-.67s2.03-1.2 2.79-2.1c1.75-2.11 2.65-4.81 2.5-7.56.06-1.9-.34-3.79-1.16-5.5-.7-1.42-1.8-2.59-3.15-3.39-1.36-.79-2.89-1.2-4.46-1.18-1.56 0-3.1.39-4.48 1.14-1.41.74-2.6 1.87-3.42 3.25-.88 1.52-1.33 3.27-1.29 5.04-.11 2.88.84 5.69 2.68 7.89.79.98 1.8 1.77 2.93 2.3zm73.65-37.62c-1.19-2.42-2.79-4.6-4.73-6.45-1.92-1.77-4.18-3.13-6.63-4-2.66-.93-5.46-1.39-8.28-1.36-4.18-.1-8.3.96-11.93 3.07-3.41 2.12-6.1 5.25-7.69 8.97-1.09 2.66-1.82 5.45-2.2 8.3-.48 3.52-.71 7.07-.68 10.63-.02 2.86.19 5.72.62 8.56.38 2.52 1.05 4.99 2.01 7.35 1.69 3.96 4.51 7.32 8.08 9.66 3.61 2.32 7.81 3.53 12.09 3.49 3.71.04 7.38-.85 10.67-2.6 3.21-1.73 5.93-4.29 7.87-7.41 1.62-2.64 2.73-5.57 3.28-8.63.62-3.66.9-7.36.86-11.07 0-7.87-1.13-14.1-3.34-18.48zm-10.51 17.72c.07 3.94-.22 7.89-.87 11.78-.35 2.38-1.33 4.63-2.84 6.49-1.4 1.32-3.25 2.07-5.16 2.08-1.92.01-3.77-.7-5.19-2-1.51-1.83-2.49-4.05-2.84-6.42-.69-3.83-1-7.73-.95-11.62 0-6.91.7-12.07 2.08-15.35.5-1.37 1.42-2.54 2.63-3.33s2.63-1.17 4.07-1.08c.96-.07 1.93.07 2.83.4.91.33 1.74.85 2.44 1.52 1.5 1.76 2.48 3.91 2.84 6.21.69 3.73 1.01 7.53.96 11.33zm128.6-19.07c.29-.74.44-1.53.42-2.33 0-6.43-12.53-8.13-17.51-8.13-11.87 0-22.14 7.08-22.14 18.46s10.16 13.63 18.62 15.81c6.03 1.56 11.2 2.89 11.2 6.88s-3.31 6.99-9.11 6.99c-3.13 0-6.03-.93-8.7-1.78-2.27-.73-4.37-1.4-6.3-1.4-.77-.04-1.54.08-2.27.35-.72.27-1.39.69-1.95 1.23s-1.01 1.19-1.31 1.91-.46 1.49-.46 2.28c0 7.64 14.83 9.11 21.7 9.11 12.32 0 22.86-7.24 22.86-18.86 0-12.84-11.19-15.8-19.87-18.1-5.48-1.45-9.96-2.63-9.96-5.88s3.48-5.28 7.33-5.28c2.93 0 5.12.73 7.09 1.39 1.63.55 3.13 1.05 4.78 1.05.79.02 1.57-.12 2.31-.41.73-.29 1.4-.74 1.96-1.3s1-1.23 1.29-1.97zm15.48-9.49c-4.73 0-6.97 3-6.97 7.07v44.73c0 3.66 2.95 6.1 6.88 6.1h23.04c4.19 0 6.33-2.77 6.33-5.61s-2.04-5.61-6.33-5.61h-16.53v-12.36h14.65c4.28 0 6.51-2.76 6.51-5.61s-2.14-5.61-6.51-5.61h-14.65v-11.87h15.72c4.19 0 6.34-2.76 6.34-5.61s-2.05-5.61-6.34-5.61h-22.15zm60.81-.98c6.51 0 19.19 1.92 19.19 9.11 0 .73-.14 1.45-.42 2.13-.28.67-.69 1.28-1.21 1.79s-1.13.91-1.8 1.17-1.39.39-2.11.36c-1.51 0-2.82-.49-4.36-1.06-2.21-.82-4.89-1.82-9.3-1.82-11.07 0-16.8 8.54-16.8 18.46s5.81 17.97 16.8 17.97c4.41 0 7.28-1.18 9.64-2.16 1.65-.68 3.05-1.26 4.56-1.26 1.48 0 2.91.58 4 1.6s1.76 2.42 1.88 3.92c0 7.81-13.48 9.59-20.08 9.59-18.14 0-30.72-13.09-30.72-29.92s12.5-29.89 30.72-29.89zm50.26 0c-18.22 0-30.71 13.01-30.71 29.93s12.59 29.92 30.71 29.92 30.71-13.09 30.71-29.92-12.73-29.93-30.71-29.93zm0 11.22c11.11 0 16.79 8.86 16.79 18.71 0 9.93-5.46 18.7-16.8 18.7s-16.79-8.85-16.79-18.7 5.68-18.71 16.79-18.71zm33.64-4.39c0-4.07 2.84-6.34 6.7-6.34 2.14.16 4.14 1.12 5.62 2.69l28.31 34.4h.18v-30.75c0-4.07 2.84-6.34 6.7-6.34s6.69 2.27 6.69 6.34v46.2c0 4.07-2.84 6.34-6.69 6.34-2.15-.17-4.17-1.12-5.68-2.69l-28.26-33.99h-.13v30.34c0 4.07-2.84 6.34-6.7 6.34s-6.7-2.27-6.7-6.34zm65.74-5.84c-4.03 0-6.87 2.52-6.87 6.26l-.03 45.51c0 4.64 4.11 6.1 7.05 6.1h15.57c18.39 0 30.54-11.06 30.54-28.14 0-18.02-11.43-29.73-31.44-29.73zm15.54 46.68h-9.02v-35.46h8.13c12.32 0 17.68 7.57 17.68 17.97 0 9.76-5.27 17.48-16.79 17.48zm72.03-39.53c.02.8-.13 1.59-.43 2.33s-.74 1.41-1.3 1.97-1.23 1-1.96 1.3c-.73.29-1.52.43-2.31.41-1.66 0-3.15-.5-4.78-1.05-1.97-.66-4.16-1.39-7.09-1.39-3.84 0-7.33 1.92-7.33 5.28s4.47 4.43 9.96 5.88c8.67 2.29 19.87 5.25 19.87 18.1 0 11.62-10.53 18.86-22.86 18.86-6.88 0-21.69-1.47-21.69-9.11 0-.78.15-1.55.46-2.27s.75-1.37 1.31-1.9 1.22-.96 1.95-1.23c.72-.27 1.49-.39 2.26-.35 1.93 0 4.03.67 6.3 1.4 2.67.85 5.56 1.78 8.7 1.78 5.8 0 9.11-3.01 9.11-6.99s-5.17-5.33-11.2-6.88c-8.46-2.18-18.62-4.8-18.62-15.81s10.27-18.46 22.14-18.46c5.01 0 17.51 1.71 17.51 8.13zm-639.1-7.9c-3.89 0-6.79 2.31-6.79 6.43v46.77c0 4.11 2.85 6.43 6.79 6.43s6.78-2.31 6.78-6.43v-46.77c0-4.11-2.89-6.43-6.78-6.43zm12.12 6.43c0-4.11 2.9-6.43 6.78-6.43 2.16.17 4.18 1.14 5.68 2.72l28.66 34.83h.21v-31.13c0-4.11 2.9-6.43 6.79-6.43s6.78 2.31 6.78 6.43v46.77c0 4.11-2.9 6.43-6.78 6.43-2.15-.19-4.17-1.15-5.68-2.72l-28.69-34.42h-.18v30.69c0 4.11-2.9 6.43-6.79 6.43s-6.78-2.31-6.78-6.43v-46.75z"
		/>
	</g>
</svg>