<?xml version="1.0" encoding="UTF-8"?>
<svg xmlns="http://www.w3.org/2000/svg" viewBox="0 0 135 120">
    <g fill="currentColor" fill-rule="evenodd">
        <path
            d="M123.58 41.51c-5.01 2-13.68 9.89-26.16 23.68L78.74 88.87h-1.26v-1.21c14.37-19.36 26-37.21 34.89-53.57 0-2.79-2.06-4.84-6.2-6.26-12.24 9.14-22.48 19.21-30.7 30.15l-7.08 5.86-2.58-2.53v-2.58l5.15-7.68v-2.53l-3.79-3.79h-3.89L51.17 58.21v1.16c-1.42.86-3.4 1.86-5.93 3-5.48-22.78-11.1-34.2-16.89-34.2-4.82-.05-7.39.89-7.8 2.84v2.95c3.26 0 5.84 1.63 7.79 4.84 3.05 0 6.63 9.06 10.68 27.15-16.79 7.41-25.2 13.89-25.2 19.42 0 14.47 5.15 22.83 15.47 25.2h3.94c7.1 0 11.63-9.37 13.52-28.15l-.94-9.69v-3.89c2.71-1.08 4.84-2.16 6.38-3.23l.3.28 3.11 1.74c0 2.58 3.42 4.32 10.21 5.15 5.1-.94 9.15-3.42 12.26-7.41l-.22-2.19 17.16-16.7c0 2.79-1.26 5.68-3.74 8.73-26.05 36.47-39.1 56.84-39.1 61.05 0 1.63 2.95 2.89 8.84 3.74 2.1 0 6.78-5.84 14.05-17.47 26.21-32.2 42.41-49.63 48.58-52.3h1.26v1.21c0 3.89-3.31 9.31-10 16.21v5.05l3.74 3.69h3.74c2.42 0 6.11-3.11 11.1-9.37v-6.26l1.26-4.47.05-2.37v-2.48c0-6.63-3.74-9.94-11.21-9.94ZM39.95 82.42c-1.59 14.84-4.16 22.26-7.74 22.26h-1c-7.1-4.27-10.68-9.42-10.68-15.47 0-5.05 5.84-10.9 17.47-17.47l1.95 2v8.68Zm36.3 7.63v1.21c0 3.36-1.21 5.05-3.58 5.05v-1.26l2.37-5.01h1.21Z" />
        <path
            d="M76.09 34.27c8.53-2.1 12.78-4.21 12.78-6.36v-2.58c0-1.68-2.58-2.95-7.68-3.79-8.41 3.27-12.68 5.79-12.78 7.68v1.26l3.79 3.79h3.89ZM10.95 0h-1C3.43.79.21 2.06.21 3.85v1c0 2.58 4.52 3.89 13.58 3.89l2.89-2.95L10.95 0Z" />
    </g>
</svg>