<?xml version="1.0" encoding="UTF-8"?>
<svg xmlns="http://www.w3.org/2000/svg" viewBox="0 0 264 120">
    <g fill="currentColor" fill-rule="evenodd">
        <path
            d="M40.45 120c-18.79 0-35.2-13.2-39.21-31.59C-.89 78.66.5 69.39 5.32 60.66c.26-.47.26-.82 0-1.29C1.68 52.86 0 45.88.34 38.45 1.08 22.32 11.25 8.33 26.35 2.58 32.43.26 38.76-.5 45.21.32c16.52 2.08 29.88 13.7 34.07 29.83 2.66 10.2 1.4 19.97-3.72 29.22-.26.47-.26.82 0 1.29 3.72 6.8 5.45 14.04 4.95 21.77-1.11 17.13-13.12 31.73-29.7 36.21-3.4.92-6.88 1.37-10.38 1.37Zm0-79.87c-3.64.05-7.3.5-10.86 1.5C19.52 44.5 11.7 50.33 6.3 59.36c-.29.47-.24.79.03 1.24 1.53 2.42 3.21 4.72 5.24 6.75 9.88 9.91 21.74 14.18 35.6 11.83 11.94-2 21.03-8.54 27.51-18.74.18-.29.26-.53.05-.87-8.04-12.46-19.5-18.89-34.28-19.45Zm74.78 1.58c-.79.63-1.53 1.19-2.24 1.82-.16.13-.24.45-.24.69-.03 4.32 0 8.64 0 12.94v.63c-.05 1.26-.71 1.95-2 1.98-.84.03-1.66 0-2.5 0h-4.82c-1.55 0-2.21-.66-2.21-2.19v-47.3c0-1.58.66-2.21 2.24-2.24h6.9c1.84 0 2.42.58 2.42 2.45v19.45c.08.05.16.13.24.18.08-.18.13-.4.26-.53 3.32-3.35 6.67-6.64 9.96-9.99.71-.74 1.5-1.08 2.53-1.05 2.92.05 5.88.03 8.8.03.66 0 1.29.03 1.61.74.32.69.13 1.74-.37 2.29-.63.66-1.26 1.29-1.92 1.92l-10.25 10.25c-.29.29-.32.47-.08.84 4.85 7.27 9.7 14.55 14.55 21.79.11.16.24.32.34.47.58.66.5 1.55-.26 1.98-.42.24-.92.4-1.4.4-2.82.03-5.64.03-8.43.03-.95 0-1.69-.37-2.27-1.21-3.5-5.32-7.04-10.62-10.57-15.92-.08-.16-.18-.29-.29-.45Zm81.34-24.14c11.54 0 21.08 9.59 21.05 21.11-.03 11.57-9.57 21.08-21.11 21.08s-21.08-9.57-21.05-21.16c.03-11.52 9.59-21.03 21.11-21.03Zm-.05 11.07c-5.51 0-10.04 4.53-10.01 10.04 0 5.51 4.56 10.04 10.04 10.01 5.53-.03 10.01-4.53 10.01-10.04s-4.51-10.04-10.04-10.01Zm-83.74 43.08c.08-.05.16-.08.24-.11 3.21-2.03 6.75-2.85 10.51-2.79 2.29.03 4.53.37 6.67 1.26 3.95 1.66 6.25 4.72 7.11 8.83.32 1.55.47 3.16.47 4.74.05 8.33.03 16.63.03 24.95 0 .18 0 .4-.03.58-.08 1.08-.71 1.77-1.79 1.79-2.66.03-5.3.03-7.96 0-1.05 0-1.69-.69-1.77-1.77-.03-.26-.03-.53-.03-.79 0-7.17.03-14.33-.03-21.5 0-1.29-.08-2.61-.4-3.82-.69-2.61-1.92-3.56-4.43-3.72-3.43-.24-6.03 1.32-7.43 4.43-.87 1.92-1.21 3.95-1.24 6.03-.05 4.14-.03 8.27-.03 12.41v5.96c0 1.63-.63 2.27-2.24 2.27h-7.11c-1.53 0-2.19-.66-2.19-2.21V71.53c0-1.58.66-2.24 2.24-2.24h6.9c1.77 0 2.29.47 2.42 2.27 0 .03.03.08.05.16Zm66.67 14.12h-4.19c-.79 0-1.34-.32-1.79-1-1.71-2.58-3.98-4.43-7.11-4.9-4.87-.76-9.62 2.32-11.01 7.06-1.9 6.48 2.98 12.96 9.72 12.89 2.85-.03 5.16-1.29 7.09-3.35.5-.55.95-1.16 1.37-1.77.4-.58.92-.92 1.63-.92h8.64c.58 0 1.21.58 1.24 1.16 0 .42 0 .87-.13 1.26-2.71 8.04-8.22 13.04-16.52 14.73-12.28 2.48-23.69-6.4-25.32-18.34-1.58-11.41 6.01-21.87 17.39-24.06 10.59-2.03 21.26 4.4 24.45 14.7.05.18.11.37.21.55.55.97.03 1.92-1.11 1.98-.82.03-1.66 0-2.5 0h-2.06Zm63.79 7.96c.37-1.03.69-1.95 1-2.87 2.29-6.59 4.56-13.15 6.85-19.74l.08-.24c.4-1.29.87-1.66 2.24-1.66H261c.61 0 1.11.18 1.5.63.4.42.9.79 1.11 1.26.18.42.16 1.05 0 1.5-1.48 3.95-3 7.91-4.51 11.83-3.06 8.01-6.14 15.99-9.2 24.01-.53 1.4-1.32 1.92-2.82 1.92h-7.38c-1.32 0-2.19-.58-2.66-1.84-1.98-5.14-3.93-10.25-5.9-15.39-2.61-6.8-5.22-13.6-7.8-20.4-.24-.63-.21-1.42-.13-2.13.08-.79.66-1.21 1.42-1.34.29-.05.55-.05.84-.05h7.17c1.55 0 2.13.42 2.66 1.9 1.66 4.74 3.29 9.49 4.93 14.23.92 2.61 1.82 5.24 2.74 7.85.08.13.16.29.26.53Zm-40.61-23.06c1.98-1.16 4.06-1.98 6.27-2.29 3.37-.5 6.64.08 9.75 1.37.97.4 1.5 1.24 1.48 2.37-.03 2.37 0 4.74-.03 7.11 0 1.08-.47 1.48-1.55 1.53-.66.03-1.24-.11-1.82-.4-2.4-1.16-4.9-1.79-7.59-1.55-3.4.32-5.48 2.06-6.17 5.43-.29 1.37-.4 2.79-.42 4.22-.05 6.56-.03 13.12-.03 19.68 0 1.63-.63 2.24-2.24 2.24h-7.11c-1.53 0-2.19-.66-2.19-2.21V71.4c0-1.53.61-2.11 2.13-2.11h7.17c.18 0 .34 0 .53.03 1.05.11 1.48.42 1.82 1.42Zm-46.69-50.7c1.58-.9 3.19-1.61 4.93-2.03 3.79-.92 7.48-.37 11.04 1.05 1 .4 1.5 1.29 1.53 2.37.03 2.32.03 4.64 0 6.96-.03 1.55-1.32 2.29-2.77 1.61-1.55-.74-3.14-1.4-4.85-1.69-1.45-.24-2.9-.29-4.32-.03-2.87.55-4.48 2.45-5.11 5.16-.32 1.37-.47 2.82-.47 4.24-.05 6.46-.03 12.91-.03 19.37v.47c-.03 1.53-.69 2.19-2.24 2.19h-7.01c-1.42 0-2.32-.87-2.32-2.32v-36.6c0-1.61.63-2.24 2.27-2.24h7.43c1.03.08 1.58.5 1.92 1.5Z" />
    </g>
</svg>