<?xml version="1.0" encoding="UTF-8"?>
<svg viewBox="0 0 312 120" xmlns="http://www.w3.org/2000/svg">
    <g fill="currentColor" fill-style="evenodd">
        <path d="m100.69 119.67h4.06v-7.31h5.22v-3.31h-5.22v-3.84h5.57v-3.33h-9.63z" />
        <path
            d="m125.17 106.81c0-3.22-1.75-4.93-5.18-4.93h-6.01v17.79h4.03v-7.28h.88c1.56 0 1.99.55 1.99 2.66v.61c0 1.74.07 3.32.28 4.01h3.96c-.11-.78-.19-1.9-.19-3.88v-.62c0-2.56-.66-3.7-2.05-4.32 1.07-.42 2.28-1.58 2.28-4.04zm-6.2 2.52h-.95v-4.4h1.21c1.34 0 1.86.64 1.86 2.11 0 1.74-.59 2.29-2.12 2.29z"
            />
        <path
            d="m136.35 114.35c0 1.32-.26 2.45-1.65 2.45s-1.69-1.31-1.69-2.46v-12.45h-4.09v12.3c0 3.68 1.56 5.82 5.68 5.82s5.85-2.16 5.85-5.78v-12.34h-4.11v12.47z"
            />
        <path d="m144.78 101.88h4.09v17.79h-4.09z" />
        <path d="m152.53 105.22h3.5v14.45h4.08v-14.45h3.49v-3.34h-11.07z" />
        <path d="m171.27 112.13h5.38v-3.33h-5.38v-3.58h5.63v-3.34h-9.64v17.79h9.63l.47-3.3h-6.09z" />
        <path
            d="m186.7 108.66c-1.93-.97-2.33-1.49-2.33-2.51s.41-1.58 1.32-1.58c1.16 0 1.39 1.06 1.46 2.3h3.93c-.03-2.73-1.22-5.32-5.36-5.32-3.52 0-5.38 1.99-5.38 5.04 0 2.61 1.17 3.96 4.26 5.56 2.09 1.07 2.71 1.79 2.71 3.03 0 1.01-.38 1.81-1.57 1.81s-1.64-1.01-1.74-2.47h-4.03c.09 3.02 1.41 5.48 5.73 5.48 3.99 0 5.71-2.34 5.71-5.28s-1.4-4.39-4.7-6.05z" />
        <path
            d="m201.5 108.66c-1.93-.97-2.33-1.49-2.33-2.51s.41-1.58 1.32-1.58c1.16 0 1.39 1.06 1.46 2.3h3.93c-.03-2.73-1.22-5.32-5.36-5.32-3.52 0-5.38 1.99-5.38 5.04 0 2.61 1.17 3.96 4.26 5.56 2.09 1.07 2.71 1.79 2.71 3.03 0 1.01-.38 1.81-1.57 1.81s-1.64-1.01-1.74-2.47h-4.03c.09 3.02 1.41 5.48 5.73 5.48 3.99 0 5.71-2.34 5.71-5.28s-1.4-4.39-4.7-6.05z" />
        <path d="m214.11 112.13h5.38v-3.33h-5.38v-3.58h5.63v-3.34h-9.64v17.79h9.63l.47-3.3h-6.09z" />
        <path
            d="m298.77 37.17c4.93 0 6.02 7.99 3.28 8.77.35 2.42 2.04 3.71 4.32 3.71 2.78 0 5.16-3.06 5.16-7.34 0-6.22-5.57-9.96-10.89-9.96-17.4 0-18.6 18.04-13.36 29.21 4.91 10.46 19.21 29.51 11.52 39.1-5.64 7.05-19.16 2.13-34.57-1.77-16.11-4.08-30.39-2.53-28.85 13.84 2.1-8.43 17.05-5.07 32.3-2.62 19.58 3.15 42.14.71 42.21-23.94.05-16.39-16.93-28.27-16.93-41.92 0-4.48 2.28-7.1 5.82-7.1z" />
        <path
            d="m81.46 32.41c-15.81 0-18.94 19.27-18.94 29.53 0 13.32 4.93 27.55 18.94 27.54 11.6 0 16.93-8.98 14.34-14.12-1.11 4.18-6.24 7.84-11.35 7.84-11.15 0-10.81-16.14-10.81-20.61 0-7.5-.05-25.91 7.82-25.91 6.85 0 6.26 11.13 5.25 14.75-1.21 4.34-5 12.34-11.98 11.13 1.9 4.23 20.28 5.22 22.52-10.26 1.48-10.18-4.11-19.89-15.8-19.89z" />
        <path
            d="m15.72 94.13c10.59-9.58 13.44-25.36 12.27-43.83-2.66-42.06 4.94-46.71 9.31-46.71 6.97 0 7.77 15.52 3.49 16.74.95 3.81 3.17 5.46 6.72 5.46 4.33 0 7.08-4.51 7.08-9.81 0-9.72-8.96-15.99-17.28-15.99-10.32.01-24.54 6.64-22.9 39.13 3 59.13-10.11 55.65-13.93 64.6 20.54-16.23 75.5 26.28 86.34-3.38-13.03 11.08-42.89-15.82-71.1-6.21z" />
        <path
            d="m53.63 32.77-13.81 1.75s2.7 2.08 2.7 6.22v40.92c0 7.39 6.03 10.31 14.16 5.45 0 0-3.04-1.47-3.04-7.6v-46.74z" />
        <path
            d="m190.65 87.1s-3.05-1.47-3.05-7.6v-32.64c0-9.56-5-14.52-10.46-14.52-4.57 0-9.15 2.3-12.69 10.66 0-5.91-3.79-10.65-9.25-10.65-4.57 0-9.35 2.29-12.89 10.66 0 0 .35-8.92-12.25-8.92h-11.97v-1.74c.28-14.97.53-19.44 4.36-19.44 4.46 0 4.97 9.26 2.23 10.05.61 2.44 2.03 3.49 4.31 3.49 2.78 0 4.54-2.88 4.54-6.28 0-6.23-5.75-10.24-11.07-10.24-8.43 0-14.76 4.77-15.34 24.18-4.01.45-7.92 1.8-7.23 7.19.41-.57 3.21-1.88 7.09-1.88v39.29c0 12.78-5.82 13.13-5.82 13.13 8.76 2.62 16.93-.49 16.93-13.27v-39.12h8.32c2.89 0 5.41.72 5.41 4.58v38.57c0 2.27-.14 4.27-1.72 6.41h14.57c-1.59-2.14-1.72-4.14-1.72-6.41v-27.09c0-9.67 3.64-14.79 7.61-14.79 2.8 0 3.62 3.47 3.62 7.06v34.82c0 2.27-.13 4.27-1.72 6.41h14.57c-1.58-2.14-1.74-4.14-1.74-6.41v-27.15c0-9.67 3.63-14.8 7.59-14.8 2.81 0 3.62 3.48 3.62 7.06v33.91c0 7.39 6.03 10.32 14.17 5.45z" />
        <path
            d="m244.34 43 .04 39.61c0 2.27-.14 4.27-1.72 6.41h14.56c-1.59-2.14-1.72-4.14-1.72-6.41v-27.15c0-9.67 3.57-14.79 7.52-14.79 2.82 0 3.6 3.48 3.6 7.07v33.92c-.01 7.39 6.03 10.32 14.17 5.45 0 0-3.05-1.47-3.05-7.6v-32.77c0-9.58-5.25-14.39-10.16-14.39-5.23 0-10.51 3.41-12.77 10.64.07-1.89-.07-13.85-13.53-6.59 0 0 3.05 1.51 3.05 6.59z" />
        <path
            d="m233.49 79.52v-26.36c0-6.41-1.63-20.8-18.24-20.8-8.81 0-17.35 5.71-17.35 13.68 0 3.57 1.77 6.76 5.25 6.76 2.84 0 4.62-1.53 5.38-4.58-3.42-.98-2.13-11.07 5.71-11.07 5.85 0 8.14 5.1 8.14 11.24v3.91c-9.7 0-27.28 7.89-27.28 22.85 0 7.97 4.49 14.34 13.38 14.34 8.07 0 12.89-5.82 13.89-7.83 0 7.39 6.03 10.32 14.17 5.45 0 0-3.05-1.47-3.05-7.59zm-11.12-10.36c0 8.06-4 14.36-9.1 14.36-7.21 0-7.7-6.89-7.7-9.9 0-12.07 9.84-18.12 16.81-18.12v13.66z" />
    </g>
</svg>