<?xml version="1.0" encoding="UTF-8"?>
<svg viewBox="0 0 607 120" xmlns="http://www.w3.org/2000/svg">
	<g fill="currentColor" fill-rule="evenodd">
		<path
			d="m131.45 73.73c2.51 0 5.02-2.04 5.49-4.71l13.02-64.47c.47-2.51-1.1-4.55-3.61-4.55h-41.25c-1.88 0-3.61 1.41-4.71 3.14l-20.86 32.47-7.53-32.47c-.47-1.73-1.73-3.14-3.61-3.14h-41.25c-2.51 0-4.86 2.04-5.33 4.55l-13.18 64.47c-.47 2.51 1.1 4.71 3.61 4.71h41.25c2.35 0 4.86-2.04 5.33-4.71l6.43-31.53 6.43 28.08h3.61l17.73-27.92-6.27 31.37c-.63 2.51.94 4.71 3.45 4.71z" />
		<path
			d="m236.24 38.9.78-3.92c.47-2.51-.94-4.71-3.29-4.71h-27.61l3.14-15.06h42.04c2.51 0 4.86-2.04 5.49-4.71l.94-5.96c.63-2.51-1.1-4.55-3.61-4.55h-86.9c-2.51 0-4.86 2.04-5.33 4.55l-13.18 64.47c-.47 2.51 1.1 4.71 3.61 4.71h40.63c2.35 0 4.86-2.04 5.33-4.71l5.33-25.57h27.45c2.35 0 4.71-2.04 5.18-4.55z" />
		<path
			d="m266.04 11.29h36.55c2.04 0 3.92-1.73 4.39-3.76l.78-3.76c.47-2.04-.78-3.76-2.82-3.76h-36.55c-1.88 0-3.76 1.57-4.24 3.76l-.78 3.76c-.47 2.04.78 3.76 2.67 3.76z" />
		<path
			d="m301.96 14.75h-36.55c-2.04 0-3.92 1.57-4.24 3.76l-9.25 45.49c-1.1 5.33 3.76 9.88 10.82 9.88h26.35c2.35 0 4.86-2.04 5.33-4.71l10.35-51.45c0-1.73-1.1-2.98-2.82-2.98z" />
		<path
			d="m349.49 69.02 11.14-54.27c0-.16.16-.63.31-1.41l2.04-9.88c.47-1.88-.94-3.45-2.82-3.45h-36.55c-2.04 0-3.92 1.57-4.39 3.76l-12.24 60.08c-1.1 5.33 3.76 9.88 10.82 9.88h26.35c2.35 0 4.86-2.04 5.33-4.71z" />
		<path
			d="m450.2 63.84c-1.1 5.33 3.76 9.88 10.82 9.88h25.26c2.35 0 4.86-2.04 5.33-4.71l9.1-44.55c.94-5.33-3.76-9.73-10.98-9.73h-33.1c-4.39 0-8.47 1.57-11.29 4.24-1.73-2.51-5.33-4.24-9.57-4.24h-13.33c-3.61 0-6.9 1.1-9.73 2.82l-2.2-2.82h-35.45c-2.04 0-3.92 1.57-4.24 3.76l-10.51 51.61c-.31 2.04.78 3.76 2.82 3.76h34.51c2.35 0 4.86-2.04 5.33-4.71l2.98-14.27 5.02-24.47c.78-3.92 4.08-7.06 7.37-7.06s5.33 3.14 4.55 7.06l-7.37 35.61c-.31 2.04.78 3.76 2.82 3.76h15.53c2.04 0 3.92-1.57 4.39-3.76l7.22-35.29.31-2.04c1.25-3.14 4.08-5.33 6.9-5.33 3.29 0 5.33 3.14 4.55 7.06l-7.06 33.41z" />
		<path
			d="m596.08 14.75h-70.75c-5.49 0-13.49 3.14-14.9 9.88l-1.25 6.43c-1.73 8.78 1.73 12.55 10.67 13.65l34.2 4.55c4.55.63 4.55 4.86 3.76 8.94-.78 3.61-3.61 6.43-7.22 6.43s-5.33-2.82-4.55-6.43c.47-2.51.78-5.33-2.51-5.33h-35.45c-2.04 0-3.92 1.57-4.24 3.76l-1.57 7.37c-1.25 6.59 5.49 9.88 10.82 9.88h71.06c5.49 0 13.65-3.14 14.9-9.88l1.25-6.43c1.88-9.1-1.73-12.55-10.67-13.65l-34.2-4.55c-4.55-.63-4.55-5.02-3.76-9.1.78-3.61 3.61-6.27 7.22-6.27s4.86 2.51 5.49 6.27c.94 4.24 2.82 5.33 9.88 5.33h25.88c2.35 0 4.86-2.04 5.33-4.71l1.41-6.75c.94-6.27-5.49-9.41-10.82-9.41z" />
		<path
			d="m559.53 98.35c-.63-1.57-2.51-2.82-4.71-2.82-4.55 0-8.47 3.61-9.41 8.47-.94 4.71.78 8.94 5.65 8.94 2.2 0 4.71-1.25 6.12-2.98-.16.47-.16 1.88-.16 2.51h2.51c0-1.41.16-2.51.78-5.02l2.51-11.45h-2.35zm-1.25 5.8c-.78 3.92-3.61 6.59-6.59 6.59-2.82 0-4.39-2.67-3.61-6.59s3.61-6.59 6.59-6.59c2.82 0 4.39 2.67 3.61 6.59z" />
		<path
			d="m576.32 95.53c-2.51 0-5.33 1.57-7.22 4.24.31-1.73.47-3.14.47-4.08h-2.51c0 1.41-.31 2.51-.78 5.02l-2.51 11.76h2.82l1.41-6.74c1.25-5.49 5.02-7.84 7.22-7.84 1.73 0 3.14 1.25 2.51 4.39l-2.2 10.04h2.82l2.2-10.35c.94-4.08-1.25-6.43-4.24-6.43z" />
		<path
			d="m142.75 95.53c-2.2 0-4.71 1.25-6.12 2.98.16-.47.16-1.88.16-2.51h-2.51c0 1.41-.16 2.51-.78 5.02l-4.08 18.82h2.82l2.2-9.73c.47 1.41 2.35 2.82 4.55 2.82 4.55 0 8.47-3.61 9.41-8.47.94-4.71-.78-8.94-5.65-8.94zm2.82 8.63c-.78 3.92-3.61 6.59-6.59 6.59-2.82 0-4.39-2.67-3.61-6.59.94-3.92 3.76-6.59 6.59-6.59s4.39 2.67 3.61 6.59z" />
		<path
			d="m162.83 95.69c-2.51 0-5.18 1.41-6.9 3.92l2.2-10.04h-2.82l-5.02 22.9h2.82l1.41-6.74c1.25-5.49 5.02-7.84 7.22-7.84 1.73 0 3.14 1.25 2.51 4.39l-2.2 10.2h2.82l2.2-10.35c.94-4.08-1.25-6.43-4.24-6.43z" />
		<path
			d="m201.41 95.53c-2.51 0-5.33 1.57-7.22 4.24.31-1.73.47-3.14.47-4.08h-2.51c0 1.41-.31 2.51-.78 5.02l-2.51 11.76h2.82l1.41-6.74c1.25-5.49 5.02-7.84 7.22-7.84 1.73 0 3.14 1.25 2.51 4.39l-2.2 10.04h2.82l2.2-10.35c.94-4.08-1.25-6.43-4.24-6.43z" />
		<path
			d="m179.77 95.37c-4.71 0-8.63 3.61-9.73 8.47-.94 4.71 1.73 9.26 7.06 9.26 4.71 0 8.63-3.61 9.73-8.47 1.1-4.71-1.57-9.25-7.06-9.25zm4.39 9.25c-.78 3.61-3.76 6.27-6.74 6.27-3.29 0-5.33-2.82-4.39-7.22.78-3.76 3.76-6.27 6.75-6.27 3.29 0 5.33 2.82 4.39 7.22z" />
		<path d="m35.61 88.31-5.33 4.4.47.78 6.12-2.98z" />
		<path
			d="m32 95.22c-4.71 0-9.25 4.08-9.41 9.73.16 4.39 2.67 8 7.22 8 2.82 0 4.55-.78 5.49-1.57l.63-2.67c-1.41 1.1-3.29 1.88-5.49 1.88-3.29 0-5.02-2.51-5.02-5.49 0-.31.16-.94.16-1.41h11.29c.47-.94.78-2.2.78-3.14.16-2.98-2.2-5.33-5.65-5.33zm3.29 6.59h-8.78c1.1-2.67 3.14-4.24 5.65-4.24 2.35 0 3.45 1.41 3.45 2.82 0 .63-.16 1.25-.31 1.41z" />
		<path
			d="m131.45 96h-3.76l.94-4.55h-2.67l-.94 4.55h-3.76l-.32 1.88h3.77l-3.3 14.59h2.83l3.14-14.59h3.76z" />
		<path
			d="m11.3 89.57h-6.27l-5.03 22.9h6.75c8.47 0 12.71-4.71 14.12-11.14 1.41-6.27-.94-11.76-9.57-11.76zm6.74 11.45c-.94 4.55-3.92 8.94-10.82 8.94h-3.76l3.92-17.88h3.76c6.9 0 8 4.39 6.9 8.94z" />
		<path
			d="m81.57 95.69c-2.35 0-5.18 1.41-6.9 4.08-.16-2.35-1.41-4.08-4.08-4.08-2.35 0-5.02 1.41-6.9 4.24.31-1.41.47-3.14.47-4.08h-2.51c0 1.41-.31 2.51-.78 5.02l-2.51 11.61h2.82l1.41-6.74c1.26-5.49 4.86-7.84 6.9-7.84 1.73 0 2.67 1.41 2.04 4.08l-2.2 10.51h2.82l1.57-6.9c1.25-5.33 4.86-7.69 6.9-7.69 1.73 0 2.67 1.41 2.04 4.08l-2.51 10.51h2.82l2.35-10.67c.78-3.76-.78-6.12-3.76-6.12z" />
		<path d="m588.24 109.33-2.35-13.33h-2.83l2.98 16.16-5.02 7.84h2.98v-.16l15.38-23.84h-2.83z" />
		<path
			d="m102.43 98.35c-.63-1.57-2.51-2.82-4.71-2.82-4.55 0-8.47 3.61-9.41 8.47-.94 4.71.94 8.94 5.8 8.94 2.2 0 4.71-1.25 6.12-2.98-.16.47-.16 1.88-.16 2.51h2.35c0-1.41.16-2.51.78-5.02l2.51-11.45h-2.04l-1.25 2.35zm-1.1 5.8c-.94 3.92-3.76 6.59-6.59 6.59s-4.39-2.67-3.61-6.59 3.61-6.59 6.59-6.59 4.39 2.67 3.61 6.59z" />
		<path
			d="m47.06 99.76c-.47 2.35.47 4.39 3.76 5.33 2.82.78 3.14 2.35 2.98 3.45-.31 1.41-1.88 2.35-3.61 2.35-2.67 0-4.08-1.1-4.86-1.73l-.94 1.88c.63.47 2.51 1.88 5.49 1.88s5.65-1.25 6.27-4.71c.47-2.35-.78-4.55-3.92-5.49-2.82-.78-2.98-2.04-2.67-2.98.31-1.1 1.41-2.04 3.29-2.04s3.14.63 4.08 1.25l.78-1.88c-.63-.47-2.51-1.41-4.71-1.41-3.14 0-5.33 1.73-5.96 4.08z" />
		<path
			d="m112 99.76c.31-1.73.47-2.98.31-3.92h-2.51c0 1.41-.31 2.51-.78 5.02l-2.35 11.61h2.82l1.41-6.74c1.25-5.96 4.39-7.06 6.43-7.06.47 0 .94 0 1.1.16l.78-3.29c-2.82 0-5.8 2.04-7.22 4.24z" />
		<path
			d="m242.04 96h-4.39l.16-.94c.78-3.29 2.2-4.08 4.08-4.08.47 0 .78 0 1.1.16l.47-1.88c-.31-.16-1.1-.31-1.57-.31-2.98 0-5.8 1.25-6.75 6.12l-.16.78h-2.98l-.31 1.88h2.98l-3.29 14.74h2.82l3.14-14.59h4.39z" />
		<path
			d="m487.22 95.37c-4.71 0-8.63 3.61-9.73 8.47-.94 4.71 1.73 9.26 7.06 9.26 4.71 0 8.63-3.61 9.73-8.47 1.1-4.71-1.57-9.25-7.06-9.25zm4.24 9.25c-.78 3.61-3.61 6.27-6.75 6.27-3.29 0-5.33-2.82-4.39-7.22.78-3.76 3.76-6.27 6.74-6.27 3.29 0 5.33 2.82 4.39 7.22z" />
		<path
			d="m397.02 98.35c-.47-1.41-2.35-2.82-4.55-2.82-4.55 0-8.47 3.61-9.41 8.47-.94 4.71.78 8.94 5.65 8.94 2.2 0 4.71-1.25 6.12-2.98-.16.47-.16 1.88-.16 2.51h2.51c0-1.41.16-2.51.78-5.02l3.92-17.88h-2.98zm-1.1 5.8c-.94 3.92-3.76 6.59-6.59 6.59s-4.39-2.67-3.61-6.59 3.61-6.59 6.59-6.59c2.82 0 4.39 2.67 3.61 6.59z" />
		<path
			d="m373.18 95.37c-4.71 0-8.63 3.61-9.73 8.47-1.1 4.71 1.73 9.26 7.06 9.26 4.71 0 8.63-3.61 9.73-8.47 1.1-4.71-1.57-9.25-7.06-9.25zm4.24 9.25c-.78 3.61-3.61 6.27-6.75 6.27-3.29 0-5.33-2.82-4.39-7.22.78-3.76 3.76-6.27 6.75-6.27 3.29 0 5.33 2.82 4.39 7.22z" />
		<path
			d="m519.53 95.69c-2.35 0-5.18 1.41-6.9 4.08-.16-2.35-1.41-4.08-4.08-4.08-2.35 0-5.02 1.41-6.9 4.24.31-1.41.47-3.14.47-4.08h-2.51c0 1.41-.31 2.51-.78 5.02l-2.51 11.61h2.82l1.41-6.74c1.25-5.49 4.86-7.84 6.9-7.84 1.73 0 2.67 1.41 2.04 4.08l-2.35 10.51h2.82l1.57-6.9c1.25-5.33 4.86-7.69 6.9-7.69 1.73 0 2.67 1.41 2.04 4.08l-2.35 10.51h2.82l2.35-10.67c.78-3.76-.78-6.12-3.76-6.12z" />
		<path
			d="m458.51 91.45h-2.82l-.94 4.55h-3.77l-.31 1.88h3.76l-3.13 14.59h2.82l3.14-14.59h3.76l.32-1.88h-3.77z" />
		<path
			d="m437.96 99.76c-.47 2.35.47 4.39 3.76 5.33 2.82.78 3.14 2.35 2.98 3.45-.31 1.41-1.88 2.35-3.61 2.35-2.67 0-4.08-1.1-4.86-1.73l-.78 2.04c.63.31 2.51 1.73 5.33 1.73 2.98 0 5.65-1.25 6.27-4.71.47-2.35-.78-4.55-3.92-5.49-2.82-.78-2.98-2.04-2.67-2.98.31-1.1 1.41-2.04 3.29-2.04s3.14.63 4.08 1.25l.78-1.88c-.63-.47-2.51-1.41-4.71-1.41-3.14 0-5.33 1.73-5.96 4.08z" />
		<path
			d="m355.14 95.53c-2.2 0-4.71 1.25-6.12 2.98.16-.47.16-1.88.16-2.51h-2.51c0 1.41-.16 2.51-.78 5.02l-4.08 18.82h2.82l2.2-9.73c.47 1.41 2.35 2.82 4.55 2.82 4.55 0 8.47-3.61 9.41-8.47.94-4.71-.78-8.94-5.65-8.94zm2.82 8.63c-.78 3.92-3.61 6.59-6.59 6.59-2.82 0-4.39-2.67-3.61-6.59.94-3.92 3.76-6.59 6.59-6.59s4.39 2.67 3.61 6.59z" />
		<path
			d="m433.41 96-.94 2.35c-.63-1.57-2.51-2.82-4.71-2.82-4.55 0-8.47 3.61-9.41 8.47-1.41 4.71.47 8.94 5.33 8.94 2.2 0 4.71-1.25 6.12-2.98-.16.47-.16 1.88-.16 2.51h2.51c0-1.41.16-2.51.78-5.02l2.51-11.45h-2.04zm-2.51 8.16c-.94 3.92-3.76 6.59-6.59 6.59s-4.39-2.67-3.61-6.59 3.61-6.59 6.59-6.59c2.82 0 4.39 2.67 3.61 6.59z" />
		<path
			d="m402.2 103.69c-1.1 4.71 1.41 9.25 6.43 9.25 2.51 0 3.92-.94 4.86-1.57l.63-2.67c-1.1.78-2.51 1.88-4.39 1.88-3.92 0-5.49-3.14-4.71-6.9.78-3.29 3.29-6.12 6.74-6.12 2.04 0 3.29.94 4.24 1.73l.47-2.2c-.78-.94-2.51-1.73-4.55-1.73-4.71 0-8.63 3.29-9.73 8.31z" />
		<path d="m285.96 104h7.53l.47-2.2h-7.53z" />
		<path d="m240.79 112.47h2.82l3.61-16.47h-2.82z" />
		<path
			d="m331.14 95.53c-2.51 0-5.33 1.57-7.22 4.24.31-1.73.47-3.14.47-4.08h-2.51c0 1.41-.31 2.51-.78 5.02l-2.51 11.76h2.82l1.41-6.74c1.25-5.49 5.02-7.84 7.22-7.84 1.73 0 3.14 1.25 2.51 4.39l-2.2 10.04h2.82l2.2-10.35c.94-4.08-1.25-6.43-4.24-6.43z" />
		<path
			d="m461.65 103.69c-.94 4.71 1.41 9.25 6.43 9.25 2.51 0 3.92-.94 4.86-1.57l.63-2.67c-1.1.78-2.51 1.88-4.39 1.88-3.92 0-5.49-3.14-4.71-6.9.78-3.29 3.29-6.12 6.74-6.12 2.04 0 3.29.94 4.24 1.73l.47-2.2c-.78-.94-2.51-1.73-4.55-1.73-4.71 0-8.63 3.29-9.73 8.31z" />
		<path d="m253.18 89.57-5.02 22.9h2.82l5.02-22.9z" />
		<path d="m245.81 89.41-.63 3.14h2.82l.63-3.14z" />
		<path
			d="m279.22 95.69c-2.35 0-5.18 1.41-6.9 4.08-.16-2.35-1.41-4.08-4.08-4.08-2.35 0-5.02 1.41-6.9 4.24.31-1.41.47-3.14.47-4.08h-2.51c0 1.41-.31 2.51-.78 5.02l-2.82 11.61h2.82l1.41-6.74c1.25-5.49 4.86-7.84 6.9-7.84 1.73 0 2.67 1.41 2.04 4.08l-2.2 10.51h2.82l1.57-6.9c1.25-5.33 4.86-7.69 6.9-7.69 1.73 0 2.67 1.41 2.04 4.08l-2.2 10.51h2.82l2.35-10.67c.78-3.76-.78-6.12-3.76-6.12z" />
		<path
			d="m537.1 95.53c-2.2 0-4.71 1.25-6.12 2.98.16-.47.16-1.88.16-2.51h-2.51c0 1.41-.16 2.51-.78 5.02l-4.08 18.82h2.82l2.2-9.73c.47 1.41 2.35 2.82 4.55 2.82 4.55 0 8.47-3.61 9.41-8.47.94-4.71-.78-8.94-5.65-8.94zm2.82 8.63c-.78 3.92-3.61 6.59-6.59 6.59-2.82 0-4.39-2.67-3.61-6.59.94-3.92 3.76-6.59 6.59-6.59s4.39 2.67 3.61 6.59z" />
		<path
			d="m311.06 95.22c-4.71 0-9.26 4.08-9.41 9.73.16 4.39 2.67 8 7.22 8 2.82 0 4.55-.78 5.49-1.57l.63-2.67c-1.41 1.1-3.29 1.88-5.49 1.88-3.29 0-5.02-2.51-5.02-5.49 0-.31.16-.94.16-1.41h11.29c.47-.94.78-2.2.78-3.14.16-2.98-2.2-5.33-5.65-5.33zm3.29 6.59h-8.78c1.1-2.67 3.14-4.24 5.65-4.24 2.35 0 3.45 1.41 3.45 2.82 0 .63-.16 1.25-.31 1.41z" />
		<path
			d="m217.89 95.22c-4.71 0-9.25 4.08-9.41 9.73 0 4.39 2.67 8 7.22 8 2.82 0 4.55-.78 5.49-1.57l.63-2.67c-1.41 1.1-3.29 1.88-5.49 1.88-3.29 0-5.02-2.51-5.02-5.49 0-.31.16-.94.16-1.41h11.29c.47-.94.78-2.2.78-3.14.16-2.98-2.2-5.33-5.65-5.33zm3.14 6.59h-8.78c1.1-2.67 3.14-4.24 5.65-4.24 2.35 0 3.45 1.41 3.45 2.82 0 .63-.16 1.25-.31 1.41z" />
	</g>
</svg>