<?xml version="1.0" encoding="UTF-8"?>
<svg xmlns="http://www.w3.org/2000/svg" viewBox="0 0 687 120">
    <g fill="currentColor" fill-rule="evenodd">
        <path
            d="M197.21 118.46V21.55h21.21v78.79h31.23v18.12h-52.44Zm265.06 0V21.55h58.82V38.3h-37.61v22.31h29.44v16.68h-29.44v23.88h37.68v17.23c0 .07-58.89.07-58.89.07ZM566.8 37.34h-8.58v27.32h9.47c8.92 0 12.49-5.77 12.49-14.14s-4.46-13.18-13.38-13.18m15.1 81.19L568.93 80.3h-10.78v38.23h-20.86V21.55h29.99c5.63-.34 11.26.27 16.68 1.85 11.19 4.32 18.19 15.51 17.09 27.45.14 5.9-1.3 11.74-4.19 16.88-2.26 3.57-5.49 6.45-9.27 8.3l17.71 42.42-23.4.07ZM152.74 81.88l-9.61-38.98-9.27 38.98h18.87Zm8.92 36.58-5.28-19.9h-26.84l-4.8 19.9h-19.56l29.03-96.91h21.55l27.59 96.91h-21.69ZM409.7 76.32h-10.43v25.12h10.43c8.99 0 14.48-3.02 14.48-12.77s-5.56-12.63-14.48-12.63m-1.99-39.05h-8.44v23.4h6.79c8.79 0 15.58-1.51 15.58-12.01 0-9.06-5.77-11.32-14-11.32m27.66 76.73c-7.14 3.91-15.31 5.49-23.4 4.53h-33.15V21.55h33.01c7.69-.89 15.44.55 22.24 4.19 6.18 5.22 9.61 12.97 9.27 21.07.21 5.28-1.37 10.57-4.53 14.82-2.4 2.95-5.63 5.15-9.27 6.25 3.84.89 7.28 2.88 9.88 5.83 4.39 4.87 6.73 11.19 6.52 17.71.27 8.72-3.71 16.95-10.64 22.24m241.52 4.8-2.4-9.2c-5.42 7.14-14 11.12-22.92 10.71-27.18 0-35.9-26.01-35.9-48.94 0-24.57 8.79-50.86 37.75-50.86 22.24 0 30.68 12.49 33.42 33.22l-19.35 3.02c-1.03-7.82-3.02-19.01-13.66-19.01-15.58 0-15.58 22.37-15.58 33.01s.48 32.26 16.4 32.26c11.19 0 12.63-10.43 12.97-19.22h-14.41V66.77h33.08v51.75h-9.4v-.07ZM60.63 21.55l-15.31 59.3h-.21l-13.59-59.3H.3v96.91h17.3V40.84h.14l17.57 77.62h15.85l19.42-77.14h.34v77.14h20.45V21.55H60.62ZM338.73 0 307.5 7.82v59.23l-26.29-52.44-32.74 8.3 23.4 95.74 18.39-4.67-17.64-73.16 35.21 68.43 15.24-3.84V27.38s13.59 51.68 15.58 58.48c2.81 11.19 8.51 14 17.91 11.53l7.07-1.78L338.73 0Z" />
    </g>
</svg>