<?xml version="1.0" encoding="UTF-8"?>
<svg viewBox="0 0 566 120" xmlns="http://www.w3.org/2000/svg">
	<g fill="currentColor" fill-rule="evenodd">
		<path
			d="m.42 76.93v-34.2h13.88l.34 4.37c3.04-3.58 7.29-5.37 12.74-5.37 3.04 0 5.61.49 7.71 1.46 2.14.97 3.87 2.43 5.16 4.37 1.59-1.89 3.62-3.37 5.9-4.31 2.37-1.02 5.05-1.53 8.05-1.53s5.59.49 7.91 1.46c2.33.97 4.14 2.43 5.43 4.37 1.34 1.9 2.01 4.2 2.01 6.89v22.46h-14.76v-20.41c0-1.68-.53-2.98-1.61-3.91-1.03-.93-2.35-1.39-3.96-1.39-1.22 0-2.41.29-3.48.86-1.06.56-1.95 1.41-2.55 2.45-.58 1.01-.87 2.19-.87 3.51v18.89h-14.76v-20.41c0-.97-.24-1.85-.74-2.65-.42-.81-1.07-1.48-1.88-1.92-.83-.49-1.78-.74-2.75-.73-1.26-.02-2.51.28-3.62.86-1.05.55-1.93 1.37-2.55 2.38-.6 1.09-.9 2.33-.87 3.58v18.89h-14.73zm97.51 1.2c-4.6 0-8.74-.71-12.4-2.12-3.62-1.46-6.48-3.56-8.59-6.29-2.06-2.74-3.09-6.03-3.09-9.87s1.03-6.94 3.09-9.68c2.1-2.74 4.92-4.84 8.45-6.29 3.58-1.46 7.51-2.19 11.8-2.19 4.56 0 8.63.79 12.21 2.38 3.58 1.55 6.37 3.8 8.38 6.76 2.05 2.91 3.09 6.36 3.09 10.34v1.73h-32.32c.36 2.3 1.32 4.04 2.88 5.23s3.71 1.79 6.44 1.79c1.88 0 3.45-.29 4.7-.86 1.25-.62 2.26-1.55 3.02-2.79l14.15.73c-1.61 3.75-4.36 6.56-8.25 8.42-3.89 1.81-8.41 2.72-13.55 2.72zm7.71-22.06c-.36-2.08-1.23-3.62-2.62-4.64-1.39-1.06-3.31-1.59-5.77-1.59-4.92 0-7.8 2.07-8.65 6.23zm51.93-26.31h14.76v47.18h-13.55l-.4-4.44c-3.04 3.89-7.69 5.83-13.95 5.83-4.03 0-7.53-.73-10.53-2.19-2.86-1.42-5.24-3.66-6.84-6.43-1.61-2.79-2.42-6.08-2.42-9.87s.87-7.2 2.62-9.94c1.73-2.73 4.19-4.91 7.11-6.3 3.07-1.43 6.41-2.15 9.79-2.12 5.67 0 10.15 1.52 13.41 4.57v-16.3zm-9.12 38.63c2.95 0 5.25-.73 6.91-2.19 1.7-1.5 2.55-3.69 2.55-6.56s-.85-5.06-2.55-6.56c-1.7-1.55-3.98-2.32-6.84-2.32-1.65 0-3.15.31-4.49.93-1.36.59-2.51 1.58-3.29 2.85-.8 1.32-1.2 3.03-1.2 5.1 0 3.09.82 5.32 2.48 6.69 1.7 1.37 3.84 2.05 6.44 2.05zm36.98-29.09c-1.31.02-2.6-.3-3.75-.93-1.11-.61-2.03-1.5-2.68-2.58-.63-1.18-.96-2.5-.94-3.84 0-1.37.31-2.59.94-3.65.67-1.1 1.56-1.97 2.68-2.58 1.11-.62 2.37-.93 3.75-.93s2.64.31 3.75.93 1.99 1.48 2.62 2.58c.67 1.06 1.01 2.28 1.01 3.65s-.34 2.69-1.01 3.84c-.61 1.09-1.52 1.98-2.62 2.58-1.15.63-2.44.95-3.75.93zm7.38 37.64h-14.76v-34.2h14.76v34.19zm35.78 0c-.4-1.06-.71-2.15-.94-3.25-1.66 1.55-3.72 2.7-6.17 3.45-2.46.8-5.39 1.2-8.79 1.2-5.32 0-9.25-.87-11.8-2.59-2.5-1.77-3.75-4.44-3.75-8.01 0-2.13.43-3.91 1.28-5.37.84-1.46 2.32-2.65 4.42-3.58 2.15-.97 5.1-1.63 8.85-1.99l10.87-1.06c1.3-.13 2.23-.27 2.81-.4.63-.17 1.03-.38 1.21-.6.19-.3.28-.64.27-.99v-.6c0-1.5-.51-2.58-1.54-3.24-.98-.71-2.66-1.06-5.03-1.06-2.19 0-3.89.39-5.09 1.19-1.21.75-1.9 2.1-2.08 4.04l-14.08-.53c.36-2.69 1.3-4.92 2.82-6.69 1.56-1.77 3.87-3.09 6.91-3.98s7-1.32 11.87-1.32c5.14 0 9.26.51 12.34 1.52 3.09 1.02 5.3 2.5 6.64 4.44 1.34 1.9 2.01 4.31 2.01 7.22v13.59c0 3.79.54 6.67 1.61 8.61h-14.62zm-11.94-6.36c1.97 0 3.75-.29 5.37-.86 1.61-.58 2.88-1.39 3.82-2.45s1.41-2.32 1.41-3.77v-2.12c-.22.09-.43.15-.6.2h-.4l-8.31.99c-1.7.18-3.02.46-3.96.86-.94.35-1.59.81-1.94 1.39-.38.61-.57 1.33-.54 2.05 0 1.24.43 2.16 1.28 2.78s2.14.93 3.89.93zm38.35 7.29c-1.43 0-2.75-.33-3.96-.99-1.18-.68-2.17-1.63-2.88-2.78-.67-1.19-1.02-2.54-1.01-3.91 0-1.37.34-2.65 1.01-3.84.7-1.18 1.7-2.16 2.88-2.85 1.2-.71 2.57-1.07 3.96-1.06 1.43 0 2.75.35 3.96 1.06 1.21.7 2.17 1.66 2.88 2.85s1.07 2.47 1.07 3.84-.36 2.65-1.07 3.84c-.7 1.18-1.7 2.16-2.88 2.85-1.21.66-2.57 1.01-3.96.99zm117.89 12.06-52.71 30.08-52.58-30.08v-60.05l52.57-29.88 52.71 29.88v60.03zm-93.21-6.83 40.5 23.13 40.58-23.13v-46.25l-40.57-23.13-40.51 23.13zm5.03-6.16v-34.72h14.28l.4 4.24c3.04-3.53 7.29-5.3 12.74-5.3 6.48 0 11.04 1.99 13.68 5.96 3.09-3.97 7.78-5.96 14.08-5.96 3.22 0 6.01.49 8.38 1.46 2.42.97 4.27 2.43 5.57 4.37 1.34 1.9 2.01 4.26 2.01 7.09v22.86h-15.15v-20.81c0-1.64-.51-2.92-1.54-3.84-1.03-.97-2.44-1.46-4.22-1.46-2.15 0-3.87.6-5.16 1.79-1.25 1.2-1.88 2.87-1.88 5.04v19.29h-15.29v-20.81c0-1.59-.49-2.87-1.47-3.84s-2.32-1.46-4.03-1.46c-2.32 0-4.11.62-5.37 1.86-1.25 1.19-1.88 2.85-1.88 4.97v19.29h-15.15zm116.04 1.26c-4.34 0-8.31-.71-11.94-2.12-3.62-1.46-6.5-3.56-8.65-6.29-2.14-2.74-3.22-5.98-3.22-9.74s1.07-7.16 3.22-9.94 5.03-4.88 8.65-6.29c3.62-1.46 7.6-2.19 11.94-2.19s8.38.73 12 2.19 6.48 3.58 8.59 6.36c2.14 2.78 3.22 6.08 3.22 9.87s-1.1 6.96-3.29 9.74c-2.14 2.74-5.03 4.84-8.65 6.29-3.62 1.41-7.58 2.12-11.87 2.12zm-.07-9.48c1.61 0 3.1-.4 4.49-1.19 1.39-.8 2.48-1.86 3.29-3.18 1.62-2.71 1.62-6.1 0-8.81-.79-1.36-1.92-2.48-3.29-3.25-1.36-.79-2.91-1.2-4.49-1.19-1.61 0-3.11.39-4.49 1.19-1.33.79-2.44 1.91-3.22 3.25-.76 1.33-1.15 2.84-1.14 4.37 0 1.59.38 3.07 1.14 4.44 1.61 2.73 4.55 4.39 7.71 4.37zm28.3 8.22v-34.2h13.81l.54 4.7c3.04-3.75 7.47-5.63 13.28-5.63 3 0 5.66.49 7.98 1.46 2.37.93 4.22 2.34 5.57 4.24 1.39 1.86 2.08 4.11 2.08 6.76v22.66h-14.76v-19.95c0-1.68-.53-3-1.61-3.98-1.07-.97-2.55-1.46-4.43-1.46-1.47 0-2.79.29-3.96.86s-2.08 1.39-2.75 2.45-1.01 2.34-1.01 3.84v18.22h-14.75zm94.65-34.19-16.9 13.78 18.38 20.41h-17.97l-7.24-9.21-3.15-4.11-3.56 2.65v10.67h-14.75v-47.19h14.75v17.29l-.13 7.22 6.1-5.7 6.71-5.83h17.77zm20.5 35.58c-12.96 0-19.96-3.89-20.99-11.66l14.01-.33c.31 1.41 1.03 2.47 2.15 3.18 1.16.67 3 .99 5.5.99s4.2-.26 5.37-.79c1.17-.58 1.75-1.39 1.75-2.45.02-.84-.45-1.62-1.21-1.99-.76-.49-1.92-.8-3.49-.93l-7.91-.73c-5.19-.49-9.01-1.59-11.47-3.31-2.41-1.77-3.62-4.17-3.62-7.22 0-3.62 1.63-6.45 4.89-8.48 3.31-2.08 8.27-3.12 14.89-3.12 6.12 0 10.86.91 14.21 2.71 3.4 1.77 5.41 4.4 6.04 7.89l-13.68.33c-.2-1.16-.95-2.14-2.01-2.65-1.03-.53-2.73-.79-5.1-.79-1.92 0-3.44.24-4.56.73-1.07.44-1.61 1.11-1.61 1.99s.4 1.48 1.21 1.92c.81.4 2.08.69 3.82.86l7.71.66c10.37.89 15.56 4.46 15.56 10.74 0 4.29-1.83 7.44-5.5 9.48-3.67 1.99-8.98 2.98-15.96 2.98z" />
	</g>
</svg>