<?xml version="1.0" encoding="UTF-8"?>
<svg viewBox="0 0 493 120" xmlns="http://www.w3.org/2000/svg">
	<g fill="currentColor" fill-rule="evenodd">
		<path
			d="m188.27 31.31.85-4.88h-11.55l-.84 4.88h1.59c.95 0 1.34.3 1.34 1.05 0 .25-.1.84-.2 1.34l-2.69 15.33c-1.54-4.43-7.07-17.17-10.45-22.59h-9.45l-.84 4.88h1.74c.95 0 1.34.3 1.34 1.05 0 .2-.1.84-.2 1.34l-3.68 21.05c-.2 1.19-.6 1.59-1.79 1.59h-1.79l-.85 4.83h12.49l.85-4.83h-1.84c-.95 0-1.34-.3-1.34-1.04 0-.2.1-.85.2-1.34l2.98-16.92c2.79 4.78 8.06 17.67 10.1 24.13h6.22l4.93-28.26c.2-1.19.65-1.59 1.84-1.59h1.04z" />
		<path
			d="m198.72 61.82c8.86 0 13.58-7.27 13.58-16.42 0-5.97-3.73-10.25-9.95-10.25-8.86 0-13.58 7.26-13.58 16.42 0 6.02 3.73 10.25 9.95 10.25zm3.04-21.3c2.49 0 3.68 2.29 3.68 5.28 0 4.88-1.84 10.65-6.12 10.65-2.49 0-3.68-2.29-3.68-5.27 0-4.88 1.84-10.65 6.12-10.65z" />
		<path
			d="m239.01 45.4c0-5.97-3.73-10.25-9.95-10.25-8.86 0-13.58 7.26-13.58 16.42 0 6.02 3.73 10.25 9.95 10.25 8.86 0 13.58-7.27 13.58-16.42zm-12.99 11.04c-2.49 0-3.68-2.29-3.68-5.27 0-4.88 1.84-10.65 6.12-10.65 2.49 0 3.68 2.29 3.68 5.28 0 4.88-1.84 10.65-6.12 10.65z" />
		<path
			d="m253.09 39.18v-.95c0-1.89-1.19-2.74-3.23-2.74s-4.53.25-5.57.5l-.75 4.43c.6-.05 1.29-.1 2.09-.1.6 0 .99.5.99 1.09 0 .45-.15 1.24-.4 2.54l-2.99 17.22h6.72l2.34-13.38c.75-4.28 2.39-6.27 5.57-6.27 1.29 0 2.24.3 3.04.65l1.14-6.67c-.45-.1-1.69-.25-2.54-.25-3.08 0-5.27 1.89-6.42 3.93z" />
		<path
			d="m271.2 61.82c2.78 0 6.12-2.14 7.36-3.98.25 2.74 1.49 3.58 4.68 3.58 1.44 0 2.98-.2 3.68-.4l.75-4.33h-1.24c-1.1 0-1.74-.35-1.74-1.64 0-.4.05-.9.2-1.74l3.88-21.6c.3-1.59.5-2.84.5-3.68 0-1.89-.95-3.18-3.68-3.18-1.94 0-4.73.25-5.77.5l-.75 4.43c.6-.05 1.29-.1 2.09-.1.6 0 .99.5.99 1.1 0 .4-.05.75-.2 1.59l-1.09 6.22c-.8-1.79-2.49-3.43-5.87-3.43-8.01 0-12.24 7.41-12.24 16.57 0 6.02 2.89 10.1 8.46 10.1zm4.58-21.2c2.59 0 3.58 2.09 3.58 5.17 0 5.03-1.89 10.65-6.17 10.65-2.59 0-3.63-2.04-3.63-5.17 0-5.08 1.99-10.65 6.22-10.65z" />
		<path
			d="m315.92 61.02.85-5.08h-1.04c-1.29 0-2.29-.4-3.58-2.54-.9-1.49-1.84-2.84-2.44-3.53 4.13-1.49 7.11-4.18 7.11-8.46 0-3.33-2.44-6.27-7.31-6.27-3.23 0-5.62 1.59-7.11 3.68l1.29-7.11c.3-1.59.5-2.84.5-3.68 0-1.89-.95-3.18-3.68-3.18-1.94 0-4.73.25-5.77.5l-.75 4.43c.6-.05 1.3-.1 2.09-.1.6 0 .99.5.99 1.1 0 .4-.05.75-.2 1.59l-5.08 28.81h6.72l.7-4.18c.45-2.74 1.09-4.73 2.98-5.32l1.39-.45c.55.9 1.44 2.74 2.78 5.62 1.49 3.33 2.39 4.68 5.87 4.68 1.19 0 2.94-.3 3.68-.5zm-10.15-14.53-2.64.7c-1.14.3-1.84.65-2.34 1.1l.1-.65c.65-4.28 3.29-7.12 6.72-7.12 1.44 0 2.29.9 2.29 2.04 0 1.94-1.49 3.23-4.13 3.93z" />
		<path
			d="m346.57 54c-.25-3.98-.95-11.25-2.14-18.21h-5.92c-2.19 7.02-4.68 14.23-6.87 18.21-.15-3.58-.5-7.86-1.49-13.88-.7-4.08-1.74-4.63-5.47-4.63-1.19 0-3.14.3-3.83.5l-.75 4.33h.9c1.49 0 2.49.25 2.98 2.54 1.69 7.56 2.64 14.28 2.99 18.31h6.22c2.99-4.93 5.97-12.24 7.12-15.52.6 3.18 1.64 10.55 1.84 15.52h6.12c4.38-5.97 9.4-16.52 12.29-25.38h-7.07c-1.74 6.96-4.63 14.23-6.92 18.21z" />
		<path
			d="m385.97 56.69h-1.24c-1.1 0-1.74-.35-1.74-1.64 0-.4.05-.9.2-1.74l3.08-17.51h-5.87c-.5.99-.7 1.84-.9 3.08-.75-1.79-2.49-3.73-6.22-3.73-8.01 0-12.24 7.41-12.24 16.57 0 6.02 2.89 10.1 8.46 10.1 2.78 0 6.12-2.09 7.36-3.98.25 2.79 1.49 3.58 4.68 3.58 1.44 0 2.98-.2 3.68-.4zm-14.48-.25c-2.59 0-3.63-2.04-3.63-5.17 0-5.08 1.99-10.65 6.22-10.65 2.59 0 3.58 2.09 3.58 5.17 0 5.03-1.89 10.65-6.17 10.65z" />
		<path
			d="m407.16 35.25c-3.08 0-5.27 1.89-6.42 3.93v-.95c0-1.89-1.19-2.74-3.23-2.74s-4.53.25-5.57.5l-.75 4.43c.6-.05 1.29-.1 2.09-.1.6 0 .99.5.99 1.09 0 .45-.15 1.24-.4 2.54l-2.99 17.22h6.72l2.34-13.38c.75-4.28 2.39-6.27 5.57-6.27 1.29 0 2.24.3 3.04.65l1.14-6.67c-.45-.1-1.69-.25-2.54-.25z" />
		<path
			d="m425.02 28.33c-3.78.35-6.32 1.39-7.02 1.74l-1.04 5.72h-3.48l-.85 4.68h3.53l-2.09 11.79c-.2 1.19-.45 2.74-.45 3.63 0 3.88 2.04 5.82 6.82 5.82 2.39 0 4.63-.45 5.22-.65l.95-5.67c-1.04.35-2.29.7-3.68.7-1.49 0-2.34-.35-2.34-1.94 0-.45.05-1.04.2-1.84l2.09-11.84h5.62l.8-4.68h-5.62z" />
		<path
			d="m439.69 55.05c0-.4.05-.9.2-1.74l1.94-10.95c.3-1.59.5-2.84.5-3.68 0-1.89-.95-3.18-3.68-3.18-1.94 0-4.73.25-5.77.5l-.75 4.43c.6-.05 1.29-.1 2.09-.1.6 0 .99.5.99 1.09 0 .4-.05.75-.2 1.59l-1.54 8.66c-.3 1.74-.6 3.48-.6 4.63 0 3.78 1.79 5.12 5.37 5.12 1.44 0 3.18-.2 3.88-.4l.75-4.33h-1.44c-1.14 0-1.74-.35-1.74-1.64z" />
		<circle cx="440.29" cy="28.23" r="4.43" />
		<path
			d="m460.48 35.15c-8.86 0-13.58 7.26-13.58 16.42 0 6.02 3.73 10.25 9.95 10.25 4.43 0 7.56-1.14 10.05-2.49l.99-5.87c-3.18 1.54-6.97 2.84-10.55 2.84-2.39 0-3.23-1.49-3.23-2.54 0-1.29.84-2.04 2.19-2.34l4.33-1c6.02-1.39 9.5-2.94 9.5-8.41 0-3.58-3.09-6.87-9.65-6.87zm-1.1 11.34-3.14.8c-1.14.3-1.79.6-2.24.95l.1-.65c.65-4.23 3.03-7.22 6.42-7.22 1.69 0 2.74 1.09 2.74 2.54 0 2.14-1.29 2.94-3.88 3.58z" />
		<path
			d="m490.04 35.25c-3.08 0-5.27 1.89-6.42 3.93v-.95c0-1.89-1.19-2.74-3.23-2.74s-4.53.25-5.57.5l-.75 4.43c.6-.05 1.29-.1 2.09-.1.6 0 .99.5.99 1.09 0 .45-.15 1.24-.4 2.54l-2.99 17.22h6.72l2.34-13.38c.75-4.28 2.39-6.27 5.57-6.27 1.29 0 2.24.3 3.04.65l1.14-6.67c-.45-.1-1.69-.25-2.54-.25z" />
		<path
			d="m153.17 86.74c.3-.33.67-.59 1.1-.77s.92-.27 1.46-.26c.52 0 .97.12 1.38.36.4.24.72.53.94.87l1.07-.81c-.46-.54-.98-.94-1.57-1.2-.58-.26-1.19-.39-1.82-.41-.75-.01-1.43.1-2.04.35s-1.13.59-1.56 1.02c-.43.44-.76.96-.98 1.56s-.34 1.25-.34 1.95.11 1.35.34 1.95.55 1.12.98 1.56.95.78 1.56 1.02 1.29.36 2.04.35c.63-.01 1.24-.15 1.82-.41s1.1-.66 1.57-1.2l-1.07-.81c-.22.34-.54.63-.94.87s-.86.36-1.38.36c-.54.01-1.03-.07-1.46-.26-.43-.18-.8-.44-1.1-.77s-.54-.72-.7-1.18-.24-.95-.24-1.48.08-1.02.24-1.48.39-.85.7-1.18z" />
		<path
			d="m166.29 84.52c-.3 0-.61.04-.92.13s-.61.21-.88.36c-.28.15-.53.33-.75.54-.23.21-.41.44-.56.69h-.04v-7.2h-1.31v14.99h1.31v-4.76c0-.85.13-1.51.4-1.98.26-.48.56-.83.9-1.07s.66-.38.96-.44c.3-.05.49-.08.56-.08.97 0 1.63.27 1.98.82.36.55.53 1.34.53 2.37v5.14h1.31v-5.89c0-1.16-.28-2.06-.85-2.69s-1.45-.94-2.64-.94z" />
		<path
			d="m177.11 84.69c-.32.11-.61.26-.85.45-.25.19-.45.39-.63.62-.17.23-.3.47-.4.72h-.04v-1.73h-1.29c.01.67.03 1.22.05 1.65.02.42.03.84.03 1.25v6.39h1.31v-5.24c0-.32.06-.65.17-.99s.29-.66.53-.96.53-.54.89-.73.79-.29 1.29-.29c.33 0 .58.03.75.1l.26-1.29c-.28-.08-.6-.12-.97-.12-.41 0-.78.06-1.1.17z" />
		<path d="m181.72 84.76h1.31v9.28h-1.31z" />
		<path
			d="m182.37 80.24c-.24 0-.46.09-.65.27-.2.18-.3.41-.3.68s.1.51.3.68c.2.18.42.27.65.27s.46-.09.65-.27c.2-.18.3-.41.3-.68s-.1-.51-.3-.68c-.2-.18-.42-.27-.65-.27z" />
		<path
			d="m191.32 88.88-1.33-.32c-.61-.15-1.06-.32-1.37-.52-.3-.2-.46-.52-.46-.95 0-.25.06-.46.17-.63s.26-.31.45-.43c.19-.11.39-.19.62-.25.23-.05.46-.08.68-.08.48 0 .88.11 1.21.34.33.22.6.53.79.91l1.17-.77c-.3-.61-.73-1.04-1.29-1.29s-1.16-.38-1.8-.38c-.44 0-.86.06-1.27.17s-.78.28-1.1.51c-.32.22-.58.52-.77.87-.19.36-.29.77-.29 1.25 0 .44.09.8.28 1.1.18.3.41.54.66.72.26.19.52.32.79.42.27.09.48.16.64.2l1.27.3c.49.12.91.28 1.25.49.34.2.52.54.52 1 0 .26-.06.5-.19.69-.13.2-.29.36-.49.49s-.44.22-.7.28c-.27.06-.53.09-.79.09-.56 0-1.03-.13-1.44-.38-.4-.25-.74-.59-1-1.01l-1.13.77c.44.66.96 1.13 1.58 1.4.61.27 1.28.41 1.99.41.45 0 .89-.05 1.33-.16s.82-.27 1.16-.51c.34-.23.61-.53.81-.89s.31-.8.31-1.3c0-.66-.22-1.21-.64-1.66-.43-.44-.97-.74-1.62-.88z" />
		<path
			d="m200.78 92.99c-.24.07-.47.1-.69.1-.2 0-.38-.02-.54-.07-.17-.05-.31-.13-.43-.25s-.21-.29-.28-.51-.1-.5-.1-.84v-5.47h2.68v-1.19h-2.68v-2.62h-1.31v2.62h-1.96v1.19h1.96v5.85c0 .52.07.93.22 1.25.14.32.33.57.56.75.22.18.47.31.74.38s.53.1.78.1c.69 0 1.28-.11 1.76-.34l-.06-1.21c-.2.11-.42.19-.66.26z" />
		<path
			d="m211.67 85.9c-.38-.42-.84-.75-1.4-1s-1.18-.38-1.88-.38c-.66 0-1.28.12-1.84.37-.57.25-1.06.59-1.49 1.02-.42.44-.75.95-.99 1.55-.24.59-.36 1.24-.36 1.94s.12 1.35.37 1.94c.24.59.58 1.11 1 1.55s.93.78 1.52 1.02 1.23.37 1.91.37c.77 0 1.48-.15 2.15-.46s1.28-.81 1.83-1.51l-1.01-.83c-.27.42-.65.8-1.16 1.12s-1.11.49-1.81.49c-.46 0-.89-.09-1.29-.26s-.75-.41-1.05-.7c-.3-.3-.55-.65-.73-1.06-.19-.41-.3-.85-.34-1.31h7.73v-.59c0-.63-.1-1.23-.3-1.79s-.49-1.05-.86-1.47zm-6.53 2.79c0-.38.09-.75.27-1.11s.42-.67.71-.95c.3-.28.64-.5 1.04-.66.4-.17.81-.25 1.23-.25.95 0 1.69.27 2.22.82s.79 1.27.79 2.15h-6.27z" />
		<path d="m216.5 79.05h1.31v14.99h-1.31z" />
		<path d="m222.25 84.76h1.31v9.28h-1.31z" />
		<path
			d="m222.91 80.24c-.24 0-.46.09-.65.27-.2.18-.3.41-.3.68s.1.51.3.68c.2.18.42.27.65.27s.46-.09.65-.27c.2-.18.3-.41.3-.68s-.1-.51-.3-.68c-.2-.18-.42-.27-.65-.27z" />
		<path
			d="m228.66 80.24c-.24 0-.46.09-.65.27-.2.18-.3.41-.3.68s.1.51.3.68c.2.18.42.27.65.27s.46-.09.65-.27c.2-.18.3-.41.3-.68s-.1-.51-.3-.68c-.2-.18-.42-.27-.65-.27z" />
		<path
			d="m228 95.66c0 .22-.01.45-.04.67s-.09.43-.18.62-.23.35-.43.47c-.19.12-.45.18-.76.18-.11 0-.22-.01-.35-.04s-.24-.05-.35-.08l-.06-.02-.18 1.13c.32.13.66.2 1.03.2.69 0 1.21-.13 1.58-.38.36-.25.62-.54.77-.87s.24-.66.25-.98.02-.55.02-.68v-11.13h-1.31v10.91z" />
		<path
			d="m241.11 84.76h-1.96l-4.39 4.18v-9.89h-1.3v14.99h1.3v-4.88l4.82 4.88h2.03l-5.12-5.04z" />
		<path
			d="m259.02 85.91c-.44-.44-.95-.78-1.56-1.02-.6-.24-1.27-.37-1.99-.37-.3 0-.62.03-.96.1s-.66.17-.98.32-.62.33-.91.56c-.29.22-.54.5-.75.81h-.04v-1.55h-1.31v14.99h1.31v-7.26h.04c.21.32.46.59.75.81s.6.41.91.56c.32.15.64.25.98.32s.66.1.96.1c.73 0 1.39-.12 1.99-.37.6-.24 1.12-.59 1.56-1.02s.78-.95 1.02-1.55c.24-.59.37-1.24.37-1.94s-.12-1.35-.37-1.94c-.24-.59-.59-1.11-1.02-1.55zm-.29 4.94c-.17.45-.4.84-.7 1.17s-.67.59-1.1.78-.92.29-1.46.29-1.04-.1-1.49-.29-.84-.45-1.17-.78-.59-.72-.77-1.17-.28-.93-.28-1.45.09-1 .28-1.45.44-.84.77-1.17.72-.59 1.17-.78.95-.29 1.49-.29 1.03.1 1.46.29.8.45 1.1.78.54.72.7 1.17.25.93.25 1.45-.08 1-.25 1.45z" />
		<path
			d="m266.88 84.69c-.32.11-.61.26-.85.45-.25.19-.45.39-.63.62-.17.23-.3.47-.4.72h-.04v-1.73h-1.29c.01.67.03 1.22.05 1.65.02.42.03.84.03 1.25v6.39h1.31v-5.24c0-.32.06-.65.17-.99s.29-.66.53-.96.53-.54.89-.73.79-.29 1.29-.29c.33 0 .58.03.75.1l.26-1.29c-.28-.08-.6-.12-.97-.12-.41 0-.78.06-1.1.17z" />
		<path
			d="m272.14 80.24c-.24 0-.46.09-.65.27-.2.18-.3.41-.3.68s.1.51.3.68c.2.18.42.27.65.27s.46-.09.65-.27c.2-.18.3-.41.3-.68s-.1-.51-.3-.68c-.2-.18-.42-.27-.65-.27z" />
		<path d="m271.49 84.76h1.31v9.28h-1.31z" />
		<path
			d="m287.3 84.52c-.62 0-1.22.17-1.8.52-.58.34-1 .81-1.26 1.41-.16-.4-.35-.72-.58-.97s-.48-.45-.74-.59c-.27-.14-.54-.23-.82-.29s-.55-.08-.8-.08c-.56 0-1.11.14-1.67.42s-1 .69-1.32 1.23h-.04v-1.41h-1.41c.03.34.05.69.07 1.03s.03.69.03 1.03v7.22h1.31v-4.76c0-.85.12-1.51.37-1.98.24-.48.52-.83.82-1.07s.6-.38.88-.44.47-.08.55-.08c.9 0 1.51.25 1.84.75s.5 1.22.5 2.16v5.41h1.31v-4.94c0-.44.05-.86.14-1.26s.24-.76.45-1.08c.2-.32.47-.57.8-.76s.74-.29 1.23-.29c.9 0 1.51.25 1.84.75s.5 1.22.5 2.16v5.41h1.31v-5.89c0-1.16-.28-2.06-.85-2.69s-1.45-.94-2.64-.94z" />
		<path
			d="m302.09 91.96v-4.14c0-.57-.09-1.06-.28-1.47-.18-.41-.43-.75-.73-1.02s-.66-.47-1.08-.61c-.42-.13-.85-.2-1.3-.2-1.75 0-3.05.45-3.93 1.35l.79.93c.81-.73 1.75-1.09 2.83-1.09 1.59 0 2.38.8 2.38 2.4v.24h-.65c-.56 0-1.17.03-1.83.08-.67.05-1.3.19-1.88.4-.59.21-1.08.53-1.47.96s-.59 1.02-.59 1.78c0 .45.09.84.27 1.18s.42.62.71.85.64.4 1.02.52c.38.11.78.17 1.19.17.75 0 1.39-.14 1.91-.41s.97-.72 1.36-1.34h.04c0 .25.01.51.03.77s.05.51.09.73h1.27c-.04-.25-.08-.57-.11-.96s-.05-.76-.05-1.12zm-1.31-1.86c0 .41-.06.8-.17 1.16s-.29.68-.53.95-.53.49-.88.64c-.35.16-.76.24-1.24.24-.27 0-.53-.03-.78-.09-.26-.06-.49-.16-.7-.3s-.38-.32-.51-.54-.19-.48-.19-.78c0-.46.16-.83.49-1.09.32-.26.71-.46 1.17-.58.46-.13.93-.21 1.43-.24.49-.03.91-.05 1.24-.05h.67v.67z" />
		<path d="m306.41 84.76h1.31v9.28h-1.31z" />
		<path
			d="m307.06 80.24c-.24 0-.46.09-.65.27-.2.18-.3.41-.3.68s.1.51.3.68c.2.18.42.27.65.27s.46-.09.65-.27c.2-.18.3-.41.3-.68s-.1-.51-.3-.68c-.2-.18-.42-.27-.65-.27z" />
		<path
			d="m315.13 84.69c-.32.11-.61.26-.85.45-.25.19-.45.39-.63.62-.17.23-.3.47-.4.72h-.04v-1.73h-1.29c.01.67.03 1.22.05 1.65.02.42.03.84.03 1.25v6.39h1.31v-5.24c0-.32.06-.65.17-.99s.29-.66.53-.96.53-.54.89-.73.79-.29 1.29-.29c.33 0 .58.03.75.1l.26-1.29c-.28-.08-.6-.12-.97-.12-.41 0-.78.06-1.1.17z" />
		<path
			d="m333.93 85.91c-.44-.44-.96-.78-1.56-1.02s-1.27-.37-1.99-.37-1.37.12-1.97.37-1.12.59-1.56 1.02c-.44.44-.78.95-1.02 1.55-.24.59-.37 1.24-.37 1.94s.12 1.35.37 1.94c.24.59.59 1.11 1.02 1.55.44.44.95.78 1.56 1.02.6.24 1.26.37 1.97.37s1.39-.12 1.99-.37 1.12-.59 1.56-1.02c.44-.44.78-.95 1.02-1.55.24-.59.37-1.24.37-1.94s-.12-1.35-.37-1.94-.59-1.11-1.02-1.55zm-.29 4.94c-.17.45-.4.84-.7 1.17s-.67.59-1.1.78-.92.29-1.46.29-1.03-.1-1.46-.29-.79-.45-1.09-.78-.53-.72-.69-1.17-.25-.93-.25-1.45.08-1 .25-1.45c.16-.45.4-.84.69-1.17.3-.33.66-.59 1.09-.78s.92-.29 1.46-.29 1.03.1 1.46.29.8.45 1.1.78.54.72.7 1.17.25.93.25 1.45-.08 1-.25 1.45z" />
		<path
			d="m343.15 84.52c-.3 0-.61.04-.92.13s-.61.21-.88.36c-.28.15-.53.33-.75.54-.23.21-.41.44-.56.69h-.04c0-.25 0-.5 0-.74s-.02-.49-.05-.74h-1.35c.03.34.05.71.07 1.09s.03.7.03.95v7.24h1.31v-4.76c0-.85.13-1.51.4-1.98.26-.48.56-.83.9-1.07s.66-.38.96-.44c.3-.05.49-.08.56-.08.97 0 1.63.27 1.98.82.36.55.53 1.34.53 2.37v5.14h1.31v-5.89c0-1.16-.28-2.06-.85-2.69s-1.45-.94-2.64-.94z" />
		<path
			d="m358.66 86.31h-.04c-.21-.32-.46-.59-.75-.81s-.59-.41-.91-.56-.64-.25-.98-.32-.66-.1-.96-.1c-.73 0-1.39.12-1.99.37s-1.12.59-1.56 1.02c-.44.44-.78.95-1.02 1.55-.24.59-.37 1.24-.37 1.94s.12 1.35.37 1.94c.24.59.58 1.11 1.02 1.55s.96.78 1.56 1.02 1.27.37 1.99.37c.3 0 .62-.03.96-.1s.66-.17.98-.32.62-.33.91-.56.54-.5.75-.81h.04v1.55h1.31v-14.99h-1.31zm-.22 4.54c-.19.45-.44.84-.77 1.17s-.72.59-1.18.78-.95.29-1.48.29-1.03-.1-1.46-.29-.8-.45-1.1-.78-.54-.72-.7-1.17-.25-.93-.25-1.45.08-1 .25-1.45.4-.84.7-1.17.67-.59 1.1-.78.91-.29 1.46-.29 1.02.1 1.48.29c.45.19.85.45 1.18.78s.59.72.77 1.17c.19.45.28.93.28 1.45s-.09 1-.28 1.45z" />
		<path
			d="m371.3 85.9c-.38-.42-.84-.75-1.4-1s-1.18-.38-1.88-.38c-.66 0-1.28.12-1.84.37-.57.25-1.06.59-1.49 1.02-.42.44-.75.95-.99 1.55-.24.59-.36 1.24-.36 1.94s.12 1.35.37 1.94c.24.59.58 1.11 1 1.55s.93.78 1.52 1.02 1.23.37 1.91.37c.77 0 1.48-.15 2.15-.46s1.28-.81 1.83-1.51l-1.01-.83c-.27.42-.65.8-1.16 1.12s-1.11.49-1.81.49c-.46 0-.89-.09-1.29-.26s-.75-.41-1.05-.7c-.3-.3-.55-.65-.73-1.06-.19-.41-.3-.85-.34-1.31h7.73v-.59c0-.63-.1-1.23-.3-1.79s-.49-1.05-.86-1.47zm-6.53 2.79c0-.38.09-.75.27-1.11s.42-.67.71-.95c.3-.28.64-.5 1.04-.66.4-.17.81-.25 1.23-.25.95 0 1.69.27 2.22.82s.79 1.27.79 2.15h-6.27z" />
		<path
			d="m379.1 84.69c-.32.11-.61.26-.85.45-.25.19-.45.39-.63.62-.17.23-.3.47-.4.72h-.04v-1.73h-1.29c.01.67.03 1.22.05 1.65.02.42.03.84.03 1.25v6.39h1.31v-5.24c0-.32.06-.65.17-.99s.29-.66.53-.96.53-.54.89-.73.79-.29 1.29-.29c.33 0 .58.03.75.1l.26-1.29c-.28-.08-.6-.12-.97-.12-.41 0-.78.06-1.1.17z" />
		<path
			d="m392.33 92.29h-.04l-2.48-7.53h-1.34l-2.48 7.53h-.04l-2.14-7.53h-1.55l2.93 9.28h1.47l2.46-7.62h.04l2.46 7.62h1.47l2.93-9.28h-1.55z" />
		<path
			d="m399.67 80.24c-.24 0-.46.09-.65.27-.2.18-.3.41-.3.68s.1.51.3.68c.2.18.42.27.65.27s.46-.09.65-.27c.2-.18.3-.41.3-.68s-.1-.51-.3-.68c-.2-.18-.42-.27-.65-.27z" />
		<path d="m399.02 84.76h1.31v9.28h-1.31z" />
		<path
			d="m405.42 80.24c-.24 0-.46.09-.65.27-.2.18-.3.41-.3.68s.1.51.3.68c.2.18.42.27.65.27s.46-.09.65-.27c.2-.18.3-.41.3-.68s-.1-.51-.3-.68c-.2-.18-.42-.27-.65-.27z" />
		<path
			d="m404.77 95.66c0 .22-.01.45-.04.67s-.09.43-.18.62-.23.35-.43.47c-.19.12-.45.18-.76.18-.11 0-.22-.01-.35-.04s-.24-.05-.35-.08l-.06-.02-.18 1.13c.32.13.66.2 1.03.2.69 0 1.21-.13 1.58-.38.36-.25.62-.54.77-.87s.24-.66.25-.98.02-.55.02-.68v-11.13h-1.31v10.91z" />
		<path
			d="m414.36 88.88-1.33-.32c-.61-.15-1.06-.32-1.37-.52-.3-.2-.46-.52-.46-.95 0-.25.06-.46.17-.63s.26-.31.45-.43c.19-.11.39-.19.62-.25.23-.05.46-.08.68-.08.48 0 .88.11 1.21.34.33.22.59.53.79.91l1.17-.77c-.3-.61-.73-1.04-1.29-1.29s-1.16-.38-1.8-.38c-.44 0-.86.06-1.27.17s-.78.28-1.1.51c-.32.22-.58.52-.77.87-.19.36-.29.77-.29 1.25 0 .44.09.8.28 1.1.18.3.41.54.66.72.26.19.52.32.79.42.27.09.48.16.64.2l1.27.3c.49.12.91.28 1.25.49.34.2.52.54.52 1 0 .26-.06.5-.19.69-.13.2-.29.36-.49.49s-.44.22-.7.28c-.27.06-.53.09-.79.09-.56 0-1.03-.13-1.44-.38s-.74-.59-1-1.01l-1.13.77c.44.66.96 1.13 1.58 1.4.61.27 1.28.41 1.99.41.45 0 .89-.05 1.33-.16s.82-.27 1.16-.51.61-.53.81-.89.31-.8.31-1.3c0-.66-.22-1.21-.65-1.66-.43-.44-.97-.74-1.62-.88z" />
		<path
			d="m78.47 111.74c-.35.68-.94 1.19-1.67 1.43-.01 0-.03 0-.04.01-.75.24-1.54.17-2.23-.19-.21-.11-.46-.03-.57.18s-.03.46.18.57c.89.46 1.91.55 2.88.25.02 0 .04-.01.06-.02.94-.31 1.7-.96 2.15-1.84.11-.21.03-.46-.18-.57s-.46-.02-.57.18z" />
		<path
			d="m73.65 114.68c-.21-.11-.46-.03-.57.18s-.03.46.18.57c1.42.73 3 .81 4.4.34 1.35-.45 2.53-1.41 3.24-2.77.11-.21.03-.46-.18-.57s-.46-.03-.57.18c-1.22 2.36-4.14 3.28-6.5 2.06z" />
		<path
			d="m76.31 111.91s.01 0 .02 0c.26-.09.47-.27.6-.51.13-.25.15-.53.07-.8s-.27-.49-.52-.61c-.51-.27-1.15-.06-1.41.45-.27.51-.06 1.15.45 1.41.25.13.53.15.8.07z" />
		<path
			d="m81.69 113.41c-1.66 3.21-5.62 4.47-8.83 2.8-.21-.11-.46-.03-.57.18s-.03.46.18.57c1.85.96 3.91 1.06 5.75.45 1.76-.59 3.31-1.83 4.23-3.61.11-.21.03-.46-.18-.57s-.46-.03-.57.18z" />
		<path
			d="m56.7 68.47c.03-.06.03-.14 0-.2-.03-.05-.09-.09-.15-.1.05 0 .08.03.08.02-.03-.03-.07-.08-.12-.11-.1-.07-.49-.24-.69-.17-.05.02-.09.05-.12.09-.51.92-1.58 1.46-2.65 1.33-.74-.09-1.4-.48-1.86-1.11-.45-.62-.65-1.39-.55-2.17.2-1.62 1.62-2.77 3.13-2.6 1.34.16 2.38 1.37 2.43 2.79 0 .06.03.12.08.16.17.12.66.26.86.1.05-.04.08-.1.08-.16.02-2.17-1.37-4.83-4.5-5.57-.05 0-.15-.04-.23-.14-.06-.08-.09-.18-.08-.3l.59-4.94c.03-.21-.02-.38-.15-.5-.12-.12-.32-.2-.56-.23-.17-.02-.41-.02-.6.09-.15.09-.24.24-.27.46l-.05.57s0 .05 0 .08l-.54 4.62c-.01.12-.11.2-.25.2-.06 0-.12-.04-.16-.09s-.06-.11-.05-.17l.54-4.63v-.06c.01-.18-.04-.32-.15-.43-.12-.12-.32-.2-.56-.23-.28-.03-.5 0-.65.12-.18.14-.2.34-.21.42l-.37 3.05-.36 2.69c-.02.12-.13.2-.26.2-.11-.02-.2-.11-.2-.26l.36-2.7c.02-.21-.03-.37-.15-.49s-.32-.2-.56-.23c-.28-.04-.51 0-.66.13-.12.09-.19.23-.21.41l-1.14 9.3c-.29 2.35-1.17 4.26-1.34 4.62-.01.03-.02.06-.02.09 0 .18.08.34.23.46l3.15 1.94c.17.14.35.21.49.21.05 0 .09 0 .13-.02.11-.04.17-.15.19-.31l.42-3.4c0-.07.05-.14.11-.17.07-.04.14-.04.21-.01 2.67 1.19 5.95 0 7.32-2.65z" />
		<path
			d="m103.17 87.46c-1.59 0-2.88 1.24-2.88 2.75v3.87h5.76v-3.87c0-1.52-1.29-2.75-2.88-2.75z" />
		<path
			d="m98.75 84.84c.1 0 .19-.01.29-.02.26-.02.54-.05.82-.08.15-.02.3-.04.46-.06l.78-.12c.21-.04.42-.08.63-.13.22-.05.45-.09.67-.15.43-.11.86-.24 1.27-.39.11-.04.22-.1.34-.14.32-.13.64-.27.95-.43.14-.07.28-.16.42-.24.15-.09.29-.19.43-.28-.81-.34-1.63-.48-2.44-.44-2.46.15-4.59 1-6.34 2.54h.37c.41 0 .86-.02 1.35-.06z" />
		<path
			d="m106.67 83.23c-.13.09-.27.16-.4.25-.25.16-.49.32-.75.46-.19.1-.38.19-.57.27-.26.12-.51.23-.77.34-.2.08-.4.15-.61.21-.27.09-.53.17-.8.24-.2.06-.41.11-.61.15-.27.06-.54.12-.81.17-.2.04-.39.07-.58.1-.28.04-.55.08-.82.11-.17.02-.35.04-.51.06-.29.03-.56.05-.83.06-.13 0-.27.02-.4.02-.3.01-.58.02-.86.02-.08 0-.16 0-.24 0-.02 0-.05 0-.07 0-.29 0-.55 0-.79-.01-.02 0-.04 0-.05 0-1.89 2.03-2.87 4.51-3.36 6.25-.16.58-.06 1.22.28 1.66.23.3.52.47.84.47h5.51v-3.87c0-1.97 1.65-3.56 3.69-3.56s3.69 1.6 3.69 3.56v3.87h2.74c.78 0 1.14-1.09 1.14-2.1.01-3.99-1.5-7.24-4.07-8.76z" />
		<path
			d="m29.27 93.54c.4-.63.58-1.76.13-2.71-.12-.26-.25-.51-.39-.75-.46.1-.91.18-1.34.24-.09.01-.17.02-.26.03-.42.05-.82.07-1.21.08-.06 0-.13.01-.18.01-.04 0-.08 0-.12 0-.56 0-1.1-.05-1.61-.13-.07-.01-.13-.02-.2-.04-.52-.09-1.01-.21-1.48-.36-.02 0-.04-.02-.06-.02-.48-.16-.92-.34-1.34-.55-.01 0-.03-.01-.04-.02-.41-.2-.78-.43-1.13-.66-.04-.03-.09-.06-.13-.09-.33-.23-.64-.46-.92-.7-.05-.04-.09-.08-.13-.11-.27-.24-.53-.48-.75-.71-.03-.03-.06-.06-.09-.1-.22-.24-.43-.47-.61-.69 0 0 0 0 0-.01-.11-.14-.21-.27-.31-.39-2.38.99-4.19 2.58-4.89 3.19-.48.42-.95.88-1.37 1.37-.65.74-.65 2.04-.27 2.87.11.24.42.8.94.8h16.99c.38 0 .64-.3.8-.54z" />
		<path
			d="m17.9 85.55c.06.07.12.15.18.23.03.03.05.07.08.1.11.13.23.27.36.4.13.14.27.28.41.42.05.05.11.1.16.15.1.09.2.18.3.27.07.06.15.13.23.19.09.08.18.15.28.22.09.07.18.14.28.2.09.07.19.13.29.2s.21.14.32.2c.1.06.2.12.3.17.12.07.24.13.37.2.1.05.2.1.31.15.14.06.27.13.41.18.1.04.2.08.31.12.15.06.31.11.47.17.09.03.19.05.28.08.6.17 1.25.29 1.95.34.13 0 .25.02.37.03h.54.48c.17 0 .35-.03.53-.04.19-.02.37-.04.56-.06.17-.02.34-.05.52-.08.11-.02.23-.05.34-.07-1.25-1.87-2.99-3.24-4.94-3.88-1.79-.59-3.71-.55-5.7.12z" />
		<path
			d="m5.3 69.72s0-.02 0-.03l-2.93-4.87 2.63-4.41 2.04 3.4c-.54-.04-1.11.13-1.6.51-.95.75-1.18 2.03-.53 2.87.33.41.81.65 1.38.67.54.02 1.08-.16 1.53-.52.44-.35.73-.82.84-1.3.12-.52.02-1.06-.28-1.49 0-.01 0-.02 0-.03l-4.14-6.88c-.07-.12-.2-.19-.34-.19s-.27.07-.34.19l-3.09 5.18c-.07.13-.07.28 0 .41l3.47 5.77s-.04 0-.06 0c-.54-.02-1.08.16-1.53.52-.95.75-1.18 2.03-.52 2.87.66.83 1.96.9 2.91.15.44-.35.73-.82.84-1.3.12-.52.02-1.06-.28-1.49z" />
		<path
			d="m95.14 107.78c-.87-1.6-2.9-2.36-4.73-1.78l-.76-.87c-.15-.15-.44-.21-.64-.04-.09.08-.15.19-.15.31s.03.24.11.33l.57.65c-.14.09-.28.18-.41.28l-.66-.76c-.14-.17-.45-.21-.64-.04-.09.08-.15.19-.15.31s.03.24.11.33l.71.8c-.26.34-.45.69-.57 1.05-.3.91-.21 1.87.26 2.72.14.26.32.5.52.72.21.23.45.43.7.6.1.07.22.09.34.07s.22-.09.29-.2c.14-.21.08-.48-.13-.63-.4-.26-.71-.59-.93-.99-.34-.62-.41-1.33-.19-2 .07-.21.17-.42.32-.63l1.35 1.54c.17.18.45.2.63.03.09-.08.15-.19.15-.31s-.03-.24-.11-.33l-1.4-1.6c.14-.11.28-.2.42-.27l1.49 1.71c.17.18.45.2.63.03.09-.08.15-.19.15-.31s-.03-.24-.11-.33l-1.25-1.42c1.31-.24 2.67.35 3.27 1.46.09.17.17.36.22.56.06.24.32.39.56.32s.39-.32.32-.56c-.07-.26-.17-.52-.3-.75z" />
		<path
			d="m73.87 13.2c.09 0 .17-.02.25-.07.5-.31 1.06-.34 1.71-.39.88-.06 1.97-.13 3.19-.93.22-.14.29-.44.14-.66-.14-.22-.44-.29-.66-.14-1.02.66-1.89.72-2.74.77-.34.02-.68.05-1.02.11.76-1.51 1.76-2.41 2.67-3.22 1.06-.95 1.98-1.77 1.98-3.21 0-1.09-.67-1.81-1.74-1.89-1.18-.07-2.67.65-2.83 1.73-.04.26.14.51.41.54.25.03.51-.14.54-.41.06-.43 1.01-.97 1.81-.91.57.04.85.35.85.93 0 1.01-.7 1.63-1.66 2.49-1.11 1-2.5 2.24-3.35 4.6-.07.19-.01.41.15.53.09.07.2.11.3.11z" />
		<path
			d="m81.68 11.4c.22 0 .45-.03.69-.09 1.08-.29 1.87-1.19 1.95-2.22.05-.66-.12-1.21-.53-1.63-.21-.21-.45-.37-.71-.48.25-.16.48-.36.65-.61.24-.37.3-.81.17-1.26-.19-.67-.65-1.1-1.28-1.17-.78-.08-1.67.39-2.08 1.11-.12.21-.04.48.17.6s.48.04.6-.17c.23-.41.79-.72 1.2-.67.27.03.45.21.54.54.06.21.04.39-.07.55-.32.5-1.3.75-1.64.8-.23.04-.39.25-.37.48s.26.4.46.39c.32-.03 1.27.04 1.73.51.22.23.32.54.28.94-.06.77-.7 1.28-1.31 1.44-.62.17-1.18 0-1.51-.46-.14-.2-.42-.25-.61-.11-.2.14-.25.41-.11.61.41.58 1.05.9 1.77.9z" />
		<path
			d="m70.93 9.11c.07-.06.49-.36.96-.69l-.99 5.87c-.04.25.12.48.37.52h.08c.22 0 .41-.16.45-.38l1.17-6.94c.03-.18-.05-.36-.21-.46-.15-.1-.35-.09-.5.01-1.86 1.31-1.92 1.38-1.96 1.42-.17.19-.17.49.02.65.19.17.46.17.62-.02z" />
		<path
			d="m27.03 31.27c-1.16.24-2.03 1.02-2.25 1.9-.06.25-.07.51-.02.77.16.76.83 1.32 1.7 1.52-.07.1-.12.19-.14.28-.02.1-.03.19-.02.25.05.52.64.98 1.37 1.06.21.02.69.05 1.32.07-.5.56-.53 1.13-.47 1.52.13.76.72 1.34 1.21 1.55.62.27 1.48.32 2.28.15.25.48.68.8 1.21.95 0 0-.02.02-.03.03-.25.28-.42.59-.5.92-.06.26-.07.52-.02.78.26 1.22 1.83 1.86 3.24 1.86.2 0 .37-.16.37-.37 0-.2-.17-.37-.37-.37-1.28 0-2.37-.54-2.52-1.27-.07-.35.05-.72.34-1.06.32-.36.8-.63 1.35-.74 1.1-.23 2.12.2 2.28.97.04.21.02.42-.07.64-.08.18 0 .4.19.48s.4 0 .48-.19c.15-.35.19-.72.12-1.08-.24-1.16-1.66-1.85-3.15-1.54-.32.07-.62.18-.9.33 0 0 0 0-.01 0-.72.03-1.1-.26-1.29-.54.49-.2.91-.5 1.18-.88.47-.68.35-1.22.07-1.5-.29-.29-.86-.39-1.49.03-.54.36-.81 1.12-.71 1.86-.63.12-1.3.08-1.76-.12-.32-.14-.7-.55-.78-1-.06-.37.08-.71.42-1.03.13-.12.26-.23.41-.33 2.2.04 5.18 0 6.12-.23.96-.24.97-.87.95-1.06-.06-.56-.65-1.04-1.31-1.06-.83-.03-3.98.3-5.98 1.61-1.01-.02-1.82-.05-2.1-.08-.42-.05-.71-.28-.72-.39 0-.02.09-.15.42-.25.13-.04.5-.17.94-.33.02 0 .04-.01.06-.02 1-.36 2.37-.87 2.46-.9.19-.07.29-.28.22-.47s-.28-.29-.47-.22c-.18.07-.4.15-.63.23.18-.37.24-.76.16-1.15-.24-1.16-1.66-1.85-3.15-1.54zm5.89 7.09c.27-.19.49-.18.55-.12.03.03.04.1.02.22-.02.09-.07.21-.17.35-.17.25-.46.45-.8.6-.02-.43.13-.86.4-1.04zm2.89-2.84c.34.01.59.25.61.4v.03c-.03.1-.22.19-.4.23-.71.18-2.73.23-4.61.22 1.73-.71 3.8-.91 4.4-.89zm-6.35-2.57c.03.15.03.3-.01.45-.05.21-.16.41-.33.6-.32.36-.8.63-1.35.74-1.1.23-2.12-.2-2.28-.97s.6-1.57 1.7-1.8 2.12.2 2.28.97z" />
		<path
			d="m34.23 60.41c.2.23.56.25.79.04.11-.1.18-.24.19-.39s-.04-.29-.14-.4l-1.07-1.19c-.17-.19-.45-.24-.68-.12-.04.02-1.01.53-2.24.73.24-1.05.54-2.29.81-3.34.98.47 2.41.76 3.51.12.52-.3 1.13-.92 1.11-2.18-.02-1.16-.99-2.24-2.21-2.45-1.2-.21-2.23.44-2.75 1.74-.1.25-.22.63-.37 1.13-2.95-1.38-4.5-.18-4.91.23-.91.91-1 2.35-.22 3.66.82 1.38 2.04 2.13 3.63 2.25-.01.07-.02.13-.04.19-.27 1.58.9 2.62 1.56 2.95.08.04.16.06.25.06.21 0 .4-.12.5-.31.07-.13.08-.29.03-.43s-.15-.26-.28-.32c-.05-.03-1.16-.62-.96-1.76.02-.12.05-.26.08-.41 1.1-.11 2.06-.46 2.6-.69l.79.88zm-1.63-7.03c.41-1.02 1.05-1.14 1.51-1.05.7.13 1.27.74 1.29 1.37.01.58-.17.97-.55 1.19-.6.35-1.73.24-2.65-.26.17-.57.3-1.01.4-1.26zm-2.68 5.77c-1.27-.07-2.25-.65-2.9-1.74-.52-.87-.5-1.75.05-2.3.35-.34.9-.53 1.55-.53.69 0 1.45.2 2.27.61-.33 1.24-.7 2.76-.97 3.96z" />
		<path
			d="m10.46 75.4c.09-.12.24-.19.39-.15.15.03.27.14.3.29.01.04 1.07 4.28 4.17 5.95 1.52.82 2.9 1.02 4.1.58 1.6-.59 2.53-2.19 2.92-3.02-1.46-.05-3.53-.63-3.68-2.64-.07-.86.15-1.56.63-2.08.46-.49 1.07-.71 1.52-.8-2.09-4.27.12-5.96 1.9-7.32 1.13-.86 2.11-1.61 2.05-2.86-.02-.5-.2-1.06-.55-1.7-.43-.07-.91-.11-1.44-.11-3.12 0-7.78 1.26-10.56 4.2-1.98 2.09-2.61 4.63-1.87 7.53.03.11 0 .24-.07.33s-.18.15-.3.15c-3.86.11-4.83 3.48-5.06 4.92-.59 3.6.97 8.25 4.22 9.84v-3.31c0-.19.13-.35.32-.38l2.82-.54c-4.63-4.81-1.83-8.85-1.8-8.89z" />
		<path
			d="m32.85 66.83c.06-.18.12-.52-.13-.82-.3-.36-1.24-.9-4.15-.45-.11.02-.22-.01-.3-.08-.84-.67-1.77-1.17-2.76-1.56-.2 1.3-1.28 2.12-2.32 2.92-1.87 1.43-3.63 2.77-1.43 6.84.07.12.06.27 0 .38-.07.12-.2.19-.33.19-.01 0-.99 0-1.56.62-.33.35-.47.85-.42 1.48.16 2.13 3.33 1.93 3.46 1.92.15 0 .26.05.33.15.08.1.1.24.06.36-.04.11-.81 2.39-2.71 3.59 3.35 1.01 6.8.28 9.18-2.04 1.53-1.49 2.45-3.49 2.62-5.69-2.06.58-3.13-.1-3.18-.13-.13-.08-.19-.23-.17-.38s.13-.27.28-.32c1.95-.55 2.73-1.53 2.93-1.84-.16-.85-.42-1.66-.77-2.43-.06-.13-.04-.29.05-.4.62-.79 1.17-1.79 1.34-2.3zm-9.42 3.58c.06.2-.05.42-.25.49-.04.01-.08.02-.12.02-.16 0-.32-.11-.37-.27-.27-.85-.04-1.78.6-2.4.57-.56 1.38-.78 2.16-.61.21.05.34.25.29.46s-.26.34-.46.29c-.52-.12-1.07.04-1.45.41-.43.42-.59 1.04-.41 1.61zm2.75-.13c-.15.15-.4.15-.55 0-.16-.16-.42-.17-.58 0-.16.16-.16.42 0 .58.15.15.15.4 0 .55-.08.07-.17.11-.27.11s-.2-.04-.28-.12c-.22-.23-.34-.53-.34-.84 0-.32.13-.61.36-.83.47-.46 1.22-.45 1.68.02.15.15.15.4 0 .55z" />
		<path
			d="m105.4 25.61c.89.33 2.05-.04 2.9-.42-.22.46-.4 1.04-.52 1.76-2.03-.4-3.41 1.18-3.43 3.01-.03 2.07 1.96 4.91 3.9 3.9 1.86.95 3.99-1.7 4.02-3.77.03-1.89-1.42-3.65-3.61-3.15.15-.84.39-1.49.68-1.81.16-.17.14-.44-.03-.6s-.44-.14-.6.03c-.11.12-.21.26-.3.42-.43-.8-1.17-1.72-2.05-2.04-1.11-.4-2.28-.24-3.21.34.36 1.05 1.16 1.93 2.27 2.33z" />
		<path
			d="m82.25 85.05c-.12.12-.17.29-.12.46.03.11.11.2.2.26.05.03.1.05.15.06 1.84.32 3.52.43 5.01.32 2.22-.17 3.76-.84 4.58-2 .44-.63.57-1.34.38-2.12-.18-.73-.58-1.31-1.19-1.75-.72-.51-1.49-.64-2.32-.42-.02-.27-.09-.55-.21-.84-.22-.51-.57-.94-1.02-1.26-.66-.48-1.39-.66-2.14-.54-.76.11-1.39.51-1.87 1.18-.47.66-.68 1.43-.63 2.32.08.65.16 1.31.24 1.93.03.68-.14 1.26-.52 1.79-.15.21-.33.42-.55.63z" />
		<path
			d="m2.79 49.5 7.13 10.11c.27.38.75.55 1.2.41s.76-.55.76-1.02l.07-4.31 5.88-4.15c.23-.17.39-.42.44-.7s-.02-.57-.18-.81l-7.13-10.11c-.17-.23-.42-.39-.7-.44s-.57.02-.81.18l-6.33 4.46s-.1.07-.14.12c-.01.01-.03.03-.04.05-.02.03-.05.05-.07.08-.02.02-.03.04-.04.07-.02.03-.03.05-.05.08-.01.02-.02.05-.03.07-.01.03-.02.06-.03.09 0 .02-.01.05-.02.07 0 .03-.02.06-.02.09v.08.07l-.08 4.86c0 .13.02.27.07.39.03.09.08.17.13.25zm8.1 8.16c-.18.12-.42.08-.54-.09l-5.88-8.34c-.05-.08-.08-.17-.07-.25 0-.11.06-.22.16-.29.18-.12.42-.08.54.09l5.88 8.34c.12.18.08.42-.09.54zm-1.06-16.6 5.88 8.34-4.56 3.22-5.88-8.34zm-5.38 5.05c.18-.12.42-.08.54.09l5.88 8.34c.12.17.08.42-.09.54-.18.12-.42.08-.54-.09l-5.88-8.34c-.05-.08-.08-.17-.07-.25 0-.11.06-.22.16-.29z" />
		<path
			d="m60.55 5.63 2.69.66.98 2.58c.05.13.16.22.3.25h.04c.15.01.3-.06.38-.19l1.45-2.35 2.76-.14c.15 0 .29-.1.35-.24s.04-.3-.06-.42l-1.79-2.11.73-2.67c.04-.15 0-.3-.12-.41-.12-.1-.28-.13-.42-.07l-2.56 1.05-2.31-1.51c-.13-.09-.29-.09-.42 0-.13.08-.21.22-.2.38l.21 2.76-2.15 1.73c-.12.1-.17.25-.14.4s.15.27.3.3z" />
		<path
			d="m27.03 19.14c.08 1.78.5 2.44.92 2.58.41.15 1.15-.09 2.34-1.42 2.47.1 4.83-1.4 5.7-3.86 1.08-3.02-.5-6.34-3.52-7.42s-6.34.5-7.42 3.52c-.87 2.45 0 5.1 1.98 6.59z" />
		<path
			d="m19.11 28.6c1.29.11 2.5-.32 3.46-1.12-.57-.5-.88-1.2-.88-1.2l1.62.45c.3-.37.56-.78.76-1.22.5-.02 1.11-.15 1.41-.27.48-.2.86-.93-.9-2.43-.12-2.68-2.03-4.89-4.56-5.11-2.77-.23-5.22 2.02-5.47 5.03s1.79 5.64 4.55 5.87zm1.61-6.99c.42.04.72.4.69.82-.04.42-.4.72-.82.69-.42-.04-.72-.4-.69-.82s.4-.72.82-.69z" />
		<path
			d="m33.15 31.68c2.51 1.15 5.55-.13 6.8-2.86s.23-5.87-2.28-7.02c-2.29-1.05-5.03-.07-6.44 2.19-2.25.44-2.28 1.26-1.96 1.66.2.25.66.66 1.09.92-.04.49-.02.97.06 1.43s1.62.4 1.62.4-.61.46-1.35.61c.44 1.16 1.28 2.12 2.45 2.66zm1.02-6.46c.17-.38.62-.54.99-.37.38.17.54.62.37.99-.17.38-.62.54-.99.37-.38-.17-.54-.62-.37-.99z" />
		<path
			d="m42.3 86.63c.4.82 1.39 1.16 2.21.76.29-.14.69-.43 1.07-.79-.08.52-.11 1.02-.06 1.33.13.9.96 1.54 1.87 1.41.9-.13 1.54-.96 1.41-1.87-.04-.31-.2-.79-.42-1.26.47.24.93.42 1.25.47.9.16 1.76-.44 1.92-1.34s-.44-1.76-1.34-1.92c-.31-.06-.81-.05-1.33.01.37-.37.68-.76.83-1.04.43-.81.12-1.81-.68-2.24s-1.81-.12-2.24.68c-.15.28-.3.75-.4 1.27-.24-.47-.51-.89-.73-1.11-.63-.66-1.68-.68-2.34-.04-.66.63-.68 1.68-.04 2.34.22.23.63.52 1.09.77-.52.08-1 .21-1.29.35-.82.4-1.16 1.39-.76 2.21zm4.59-3.15c.56.1.93.63.83 1.19s-.63.93-1.19.83-.93-.63-.83-1.19.63-.93 1.19-.83z" />
		<path
			d="m73.55 58.7c1.79-1.14 3.18-3.86 2.85-6.83-.3-2.71-1.84-4.88-3.59-5.83 0 0 .02-.65-.89-.81-.56-.1-.63-.66-1.22-.59-.58.06-.53.62-1.06.84-.85.36-.69.99-.69.99-1.49 1.31-2.52 3.76-2.22 6.48.33 2.98 2.29 5.32 4.28 6.04.08.03.23.08.25.31.03.23.72 6.49.72 6.49.09.8.4 1.07 1.17.99.76-.08 1.01-.42.92-1.22 0 0-.7-6.27-.72-6.49-.03-.23.11-.31.18-.36zm-1.07-2.56s-.02 0-.03.01c-.06.02-.12.04-.18.05s-.13.03-.2.04c-.02 0-.04 0-.06.01-.06 0-.12 0-.18 0-.04 0-.08 0-.12 0 0 0-.02 0-.03 0-1.48-.05-2.81-1.55-3.03-3.52-.24-2.13.87-4 2.48-4.19.1-.01.19-.02.29-.01.06 0 .11 0 .17.01h.09c1.28.17 2.4 1.41 2.74 3.07.03.14.05.29.07.43.04.37.04.72 0 1.07-.14 1.45-.93 2.64-2.02 3.01z" />
		<path
			d="m67.16 109.11c-.82.66-1.6.35-1.73-.39-.17-.97-.24-2.23-1.36-1.72-1.34.62-2.61 1.84-3.68 3.32-2.47 3.42-2.71 7.47-.54 9.04 2.18 1.58 5.95.08 8.42-3.34 2.04-2.81 2.55-6.05 1.47-7.99-.51-.92-1.75.41-2.58 1.07zm-7.02 6.46c-.37-.35-.23-1.09.3-1.65.53-.57 1.26-.75 1.63-.4s.23 1.09-.3 1.65c-.53.57-1.26.75-1.63.4zm2.93 2.55c-.53.57-1.26.75-1.63.4s-.23-1.09.3-1.65c.53-.57 1.26-.75 1.63-.4s.23 1.09-.3 1.65zm.53-6.55c-.53.57-1.26.75-1.63.4s-.23-1.09.3-1.65c.53-.57 1.26-.75 1.63-.4s.23 1.09-.3 1.65zm2.95 4.51c-.53.57-1.26.75-1.63.4s-.23-1.09.3-1.65c.53-.57 1.26-.75 1.63-.4s.23 1.09-.3 1.65zm1.82-3.6c-.53.57-1.26.75-1.63.4s-.23-1.09.3-1.65c.53-.57 1.26-.75 1.63-.4s.23 1.09-.3 1.65z" />
		<path
			d="m11.64 29.71c.86 1.3 1.85 2.54 2.74 3.82-1.43 1.11-1.45 2.89-.31 3.8.33.26.92.31 1.29.69.44.45.19 1.22.29 2.01.17 1.27.67 2.48 1.91 3.21 1.99 1.18 7.05-1.76 6.88-4.33.1-1.64-.92-2.93-2.63-3.61-.57-.23-1.42-.19-1.89-.69-.25-.26-.16-.73-.31-1.17-.14-.43-.57-1.21-1.11-1.47-1.15-.56-2.1.18-2.78.48-1.07-1.15-1.94-2.4-3-3.54.01-1.03-1.34-2.5-1.4-2.52-.64.21-1.2.57-1.62 1.19-.02 0-.13.24-.17.37.54.65 1.04 1.56 2.1 1.77zm5.49 4.66c.71 0 1.29.57 1.29 1.28s-.57 1.29-1.28 1.29-1.29-.57-1.29-1.28.57-1.29 1.28-1.29z" />
		<path
			d="m68.21 41.88c.18.12.43.06.54-.12.12-.2.06-.43-.12-.54-3.57-2.26-4.61-7-2.37-10.56 1.09-1.72 2.79-2.92 4.79-3.37s4.05-.09 5.77 1c.18.12.43.06.54-.12.13-.2.06-.43-.12-.54-1.9-1.2-4.16-1.6-6.37-1.1-2.2.49-4.08 1.81-5.28 3.72-.12.19-.23.37-.33.57-2.04 3.85-.8 8.71 2.94 11.08z" />
		<path
			d="m63.21 36.48-3.8.24c-.13 0-.25.08-.31.19v.01c-.06.11-.06.24 0 .35l3.17 6.57c.06.12.17.2.3.22s.26-.03.35-.13l2.55-2.82c.11-.12.13-.29.06-.43l-1.93-3.99c-.07-.14-.22-.23-.38-.22z" />
		<path
			d="m79.09 32.21c-.54-1.37-1.47-2.5-2.69-3.27-.67-.42-1.44-.73-2.28-.9-2.79-.58-5.69.64-7.21 3.03-.04.07-.08.13-.11.2-.06.12-.12.25-.18.37l-.08.17c-.31.66-.51 1.27-.61 1.86-.39 2.5.63 5.01 2.67 6.54s.09.08.14.11c.09.08.19.16.29.22 1.55.98 3.39 1.3 5.18.9s3.32-1.48 4.3-3.03c.46-.73.77-1.54.94-2.41.24-1.27.11-2.58-.38-3.8zm-.32 3.11-.46-.26c-.17-.1-.39-.05-.5.11l-.76 1.02-1.93.2c-.1.01-.2.06-.26.14s-.1.18-.09.29l.18 1.71-.35.04-.72-1.62c-.04-.09-.11-.16-.21-.2l-1.59-.67c-.11-.04-.22-.04-.33.01l-1.95.97c-.07.04-.13.1-.17.17-.04.07-.05.15-.04.23l.19 1.78-.84.24c-1.59-1.28-2.43-3.24-2.27-5.24l3.41 1.12c.17.06.36 0 .46-.16l1.6-2.57c.09-.13.08-.32-.02-.45l-1.56-1.98c-.13-.16-.36-.2-.53-.08l-2.14 1.46h-.36s.03-.05.05-.07c1.2-1.89 3.37-2.95 5.58-2.79l-1.81 1.65s-.06.07-.08.11v.03c-.04.09-.05.18-.02.27.02.07.07.14.13.18.06.05.13.08.21.08l1.89.19 1.49 2.66c.08.14.23.22.38.2l2.47-.26c.1-.01.19-.06.25-.13l.5-.56c.2.72.27 1.46.2 2.2z" />
		<path
			d="m66.96 19.07c-.67.6-.78 1.62-.3 2.6.7 1.41.22 2.08-.99 2.88-.17.12-.22.35-.1.52.11.17.35.22.52.1.26-.17.51-.35.73-.55.83-.74 1.29-1.72.51-3.29-.34-.68-.29-1.33.12-1.7.43-.39 1.14-.34 1.85.12.05.03.1.02.15.03-.13 1.28.61 2.53 1.87 2.97l3.87 1.36c1.47.52 3.1-.27 3.61-1.74.52-1.47-.27-3.1-1.74-3.61l-3.87-1.36c-1.45-.51-3.04.24-3.58 1.67-1.16-.71-2.13-.47-2.66 0zm3.85.49c.3-.84 1.22-1.29 2.06-.99s.4.91.1 1.75-.33 1.6-1.17 1.3-1.29-1.22-.99-2.06z" />
		<path
			d="m81.83 14.75s-.02.02-.02.04v11.28c0 .11.04.21.11.28.08.07.18.12.28.12h17.7s.09 0 .13-.02c.16-.05.27-.2.27-.38v-11.28s0-.05-.02-.08c0-.02 0-.04-.01-.06-.03-.07-.07-.13-.13-.18l-4.15-3.14c-.07-.05-.15-.08-.24-.08h-9.21c-.08 0-.17.02-.23.07l-4.33 3.14c-.09.07-.13.17-.14.28zm.78.44h16.9s0 10.49 0 10.49h-9.06s0-4.48 0-4.48h-6.44s0 4.48 0 4.48h-1.41s0-10.49 0-10.49z" />
		<path d="m83.99 16.35h2.51v2.86h-2.51z" />
		<path d="m87.87 16.35h2.51v2.86h-2.51z" />
		<path d="m91.75 21.07h2.51v2.86h-2.51z" />
		<path d="m91.75 16.35h2.51v2.86h-2.51z" />
		<path d="m95.62 21.07h2.51v2.86h-2.51z" />
		<path d="m95.62 16.35h2.51v2.86h-2.51z" />
		<path
			d="m95.63 79.58c2.4 1.2 5.19 1.19 7.75 0l-2.2-3.35c-.07-.11-.08-.24-.04-.36.05-.12.15-.2.27-.23.13-.03 3.13-.78 2.66-2.8-.14-.6-.42-1.03-.82-1.26-.71-.4-1.62-.12-1.63-.12-.13.05-.27.01-.38-.08-.1-.09-.15-.23-.12-.36.86-4.48-1.16-5.57-3.29-6.72-.9-.48-1.8-1-2.43-1.77-1.08.75-2.01 1.67-2.76 2.77-.06.09-.16.15-.26.17-2.84.44-3.55 1.22-3.73 1.64-.15.35.01.65.12.8.31.43 1.11 1.2 1.92 1.75.12.08.18.23.17.37-.1.82-.1 1.66 0 2.49.28.22 1.3.9 3.26.85.13 0 .29.08.36.22s.05.3-.05.42c-.04.04-.84.99-2.92 1.06.81 1.99 2.26 3.58 4.12 4.52zm2.28-9.88c-.07.14-.21.21-.35.21-.06 0-.12-.01-.17-.04-.19-.1-.27-.33-.17-.52s.02-.43-.17-.53-.43-.02-.52.17c-.1.19-.33.27-.52.17s-.27-.33-.17-.52c.29-.57.99-.81 1.57-.52s.81.99.52 1.57zm-2.02-3.23c.68-.39 1.5-.42 2.2-.07.79.4 1.28 1.19 1.28 2.07 0 .21-.17.39-.39.39-.21 0-.39-.17-.39-.39 0-.59-.33-1.11-.85-1.37-.46-.23-1.01-.22-1.46.04-.19.11-.42.04-.53-.14-.11-.19-.04-.42.14-.53z" />
		<path
			d="m109.94 75.55c1.89-3.93 1.33-8.06-1.49-11.03-.04-.04-.07-.1-.09-.16-1.25-4.19-4.44-4.16-7.82-4.18-1.77.02-3.6 0-5.1-.66-.13.95-.01 1.68.37 2.29.5.79 1.42 1.29 2.4 1.82 2.1 1.13 4.47 2.41 3.78 6.99.45-.05 1.07-.03 1.64.3.6.34 1.01.93 1.2 1.76.46 1.95-1.35 3.11-2.71 3.58l2.55 3.89s.01 0 .02 0c1.77 0 3.95-1.89 5.25-4.59z" />
		<path d="m71.89 100.28h.91v.91h-.91z" />
		<path d="m75.12 100.28h.91v.91h-.91z" />
		<path d="m73.51 98.67h.91v.91h-.91z" />
		<path d="m73.51 100.28h.91v.91h-.91z" />
		<path d="m73.51 101.9h.91v.91h-.91z" />
		<path
			d="m77.71 103.49v-8.35c0-.58-.48-1.06-1.07-1.06h-5.39c-.59 0-1.07.47-1.07 1.06v8.35c0 .58.48 1.06 1.07 1.06h5.39c.59 0 1.07-.47 1.07-1.06zm-6.41-8.19c.06-.06.14-.09.22-.09h4.82c.08 0 .16.03.22.09s.09.14.09.22v1.22c0 .08-.03.16-.09.22s-.14.09-.22.09h-4.82s-.08 0-.12-.02c-.11-.05-.19-.16-.19-.29v-1.22c0-.08.03-.16.09-.22zm5.09 8.22h-4.86s-.09 0-.14-.03c-.04-.02-.08-.04-.11-.08-.07-.07-.1-.16-.1-.25v-1.61s0 0 0 0v-1.61s0 0 0 0v-1.61c0-.2.16-.35.36-.35h1.61s0 0 0 0h1.61s0 0 0 0h1.61c.2 0 .35.16.35.35v1.62s0 0 0 0v1.62s0 0 0 0v1.62c0 .2-.16.35-.35.35z" />
		<path d="m75.12 98.67h.91v.91h-.91z" />
		<path d="m71.89 101.9h.91v.91h-.91z" />
		<path d="m75.12 101.9h.91v.91h-.91z" />
		<path d="m71.89 98.67h.91v.91h-.91z" />
		<path d="m91.78 46.58-2.78-.54-1.53 8.74 2.77.53z" />
		<path
			d="m85.33 58.2c-.08.44-.1.87-.04 1.33.32 2.61 2.9 4.36 3.01 4.43.01 0 .02.01.03.02.12.06.27.06.39-.01.13-.08.2-.22.18-.37-.12-1.04.28-1.59.78-2.29.21-.29.43-.6.62-.96s0 0 0 0c.19-.37.32-.73.4-1.12.32-1.67-.62-3.26-2.1-3.54s-2.94.84-3.26 2.51zm3.12-1.75c1.06.2 1.73 1.38 1.49 2.63-.04.22-.11.43-.19.64-.19-.05-.38-.09-.58-.14-.23-.06-.47-.12-.72-.18-.07-.02-.14-.03-.21-.04-.19-.04-.38-.08-.58-.12-.1-.02-.2-.03-.31-.04-.18-.03-.36-.05-.56-.07-.12-.01-.24-.01-.37-.02-.13 0-.25-.02-.39-.02 0-.25.01-.5.06-.74.24-1.25 1.3-2.1 2.35-1.89z" />
		<path
			d="m99.45 30.18c-.64.13-1.12.59-1.34 1.16-.12.32-.4.47-.68.37-.36-.14-.77-.17-1.17-.09-.41.08-.76.27-1.04.54-.21.2-.53.17-.77-.08-.43-.44-1.05-.68-1.69-.54-.75.15-1.3.75-1.43 1.46s-1.21 6.6-1.21 6.6c-.35 1.27 0 2.68 1.04 3.63 1.48 1.36 3.77 1.26 5.13-.22.75-.81 1.06-1.87.93-2.89-.03-.25.15-.33.26-.33.14 0 .29-.01.43-.04.15-.03.28-.07.42-.13.1-.04.3-.04.37.2.28.98.98 1.84 1.98 2.3 1.82.83 3.98.02 4.81-1.8.58-1.28.36-2.72-.46-3.75s-3.69-5.6-3.69-5.6c-.39-.61-1.13-.94-1.88-.79zm-5.42 12.45c-1.13.23-2.24-.5-2.47-1.63s.5-2.24 1.63-2.47 2.24.5 2.47 1.63-.5 2.24-1.63 2.47zm2.85-4.57c-.21.08-.45-.02-.53-.23l-1.6-4.08c-.08-.21.02-.45.23-.53s.45.02.53.23l1.6 4.08c.08.21-.02.45-.23.53zm1.6-.33c-.19.03-.37-.08-.44-.26-.01-.03-.02-.06-.02-.09l-.6-4.37c-.03-.22.13-.43.35-.46s.43.12.46.35l.6 4.37c.03.22-.13.43-.35.46zm3.29-.95c1.13-.23 2.24.5 2.47 1.63s-.5 2.24-1.63 2.47-2.24-.5-2.47-1.63.5-2.24 1.63-2.47z" />
		<path
			d="m29.31 50.6c1.53-1.46 1.59-3.88.13-5.41s-3.88-1.59-5.41-.13c-1.29 1.23-1.51 3.14-.67 4.63l-1.32 1.25s-.34-.35-.34-.35l-6.45 6.14 1.96 2.06 6.45-6.14-.34-.35 1.32-1.25c1.45.91 3.36.79 4.66-.44zm-4.14-4.34c.87-.83 2.25-.8 3.08.07s.8 2.25-.07 3.08-2.25.8-3.08-.07-.8-2.25.07-3.08z" />
		<path
			d="m109.4 38.65c-1.36 1.14-1.79 3.05-1.3 4.93-.34.18-.67.39-.98.65-1.99 1.67-2.4 4.46-.91 6.24s4.31 1.86 6.3.19c.05-.04.09-.08.14-.12l2.22.81 2.66 3.33c.13.16.36.19.52.06l2.11-1.63c.07-.05.12-.13.14-.21 0-.02 0-.05 0-.07 0-.11-.04-.22-.12-.29l-3.32-2.98-.1-1.72s0-.01 0-.02c.07-.05.14-.09.2-.15 2.04-1.71 2-5.11-.09-7.6s-5.43-3.11-7.47-1.4zm4.58 9.95c.33.01.65 0 .97-.05l-.15.65-1.03-.13c.08-.15.15-.31.21-.47zm-.63 1.13 1.69.24c.19.02.37-.1.41-.29s.29-1.3.29-1.3v-.05c.1-.03.19-.07.28-.12l.09 1.51c0 .1.05.19.12.26l3.1 2.79-1.46 1.13-2.5-3.13c-.04-.05-.1-.09-.16-.12l-2.01-.73c.05-.06.1-.13.15-.19z" />
		<path
			d="m34.1 100.02c-1.26-2.95-3.9-3.87-6.03-3.27-1.27-.83-3.66-1.66-5.21.24-.27.34-.47.71-.59 1.1-.65.12-1.29.45-1.82 1.1-.82 1.01-.97 2.3-.44 3.72 1 2.67 4.34 5.48 6.29 5.82v-.03s.09.19.09.19c.36.83.97 1.32 1.66 1.42.41.06 1.96.07 2.33.06.52 0 1.07-.23 1.56-.68l2.24-2.03c1.27-1.15 1.76-3.37 1.09-4.93l-1.16-2.72zm-12.85 2.44c-.37-.99-.29-1.78.23-2.43.2-.24.42-.4.66-.51.04.38.13.78.28 1.19.41 1.1 1.23 2.23 2.18 3.19.15.95.41 1.76.62 2.27l.39.91c-1.52-.79-3.66-2.75-4.36-4.63zm2.2-3.04c.56.12 1.08.39 1.39.58-.2.57-.31 1.17-.35 1.75-.35-.49-.65-.99-.83-1.5-.11-.3-.18-.57-.21-.83zm2.89-1.73c-.38.34-.68.71-.93 1.11-.48-.28-1.08-.54-1.72-.67.06-.1.12-.2.2-.3.78-.96 1.93-.72 2.74-.36-.1.07-.19.14-.28.22zm2.46 7.11 4.03-3.73.31.73-4.03 3.73zm1.32 3.08-.7-1.63 4.03-3.73.7 1.63z" />
		<path
			d="m116.67 58.38c-2.42-1.88-5.45-2.44-8.22-1.78.05 2.85 1.33 5.65 3.75 7.53s5.45 2.44 8.22 1.78c-.05-2.85-1.33-5.65-3.75-7.53zm-.63 3.9c-.64.83-1.83.98-2.66.34s-.98-1.83-.34-2.66 1.83-.98 2.66-.34.98 1.83.34 2.66z" />
		<path
			d="m119.48 70.12-1.11-.5c-.23-.11-.51 0-.61.23l-4.18 9.23c-.69-.03-1.38.18-1.95.66-.9.77-1.21 1.97-.87 3.04l2.18-1.84 1.19.43.22 1.24-2.18 1.84c.99.51 2.23.41 3.14-.36 1.2-1.02 1.35-2.81.33-4.01-.03-.04-.08-.07-.11-.11l4.18-9.23c.11-.23 0-.51-.23-.61z" />
		<path
			d="m45.12 24.4v1.78c0 .16.13.29.29.29h13.18c-.05.28-.12.45-.13.47-.05.13-.02.28.08.37.19.19.3.43.3.7 0 .41-.26.77-.64.91-.14.05-.23.18-.23.32v.83c0 .18.14.33.32.34l2.93.2c.1 0 .19-.03.26-.09.07-.07.11-.16.11-.25v-1.02c0-.15-.1-.28-.24-.33-.4-.13-.67-.5-.67-.92 0-.46.33-.86.79-.95.13-.02.23-.12.27-.24.1-.33.15-.68.15-1.07 0-1.21-.54-2.44-1.48-3.35-.99-.96-2.29-1.48-3.59-1.45-.14 0-.27.1-.32.23-.01.04-.02.08-.02.11 0 .1.04.2.12.26 1 .85 1.53 1.74 1.81 2.53h-13c-.16 0-.29.13-.29.29zm13.45.35c.09.45.11.7.09 1.04h-6.6s0-1.04 0-1.04z" />
		<path d="m51.01 16.29h8.91v2.84h-8.91z"
			transform="matrix(.95822279 -.28602287 .28602287 .95822279 -2.75 16.61)" />
		<path
			d="m62.96 14.38c.42-.13.86.03 1.12.35l2.58-.77-.12-.41c-1.55.46-2.59-1.02-4.36-.49-1.34.4-2.11 1.81-1.71 3.15s1.81 2.1 3.16 1.7c1.77-.53 1.83-2.33 3.38-2.79l-.12-.41-2.58.77c-.04.41-.32.79-.74.91-.55.16-1.14-.15-1.3-.71-.16-.55.15-1.14.71-1.3z" />
		<path
			d="m53.31 79.85.48 1.24.81 2.04c.73 1.84 2.48 2.97 4.35 3 .6 0 1.22-.1 1.81-.33 2.43-.96 3.63-3.73 2.67-6.16l-1.38-3.51s-.89-2.24-.89-2.24l-3.46 1.37 1.21 3.05 1.06 2.7c.1.25.1.53-.01.79-.11.25-.31.45-.57.55s-.54.1-.79-.01-.45-.31-.55-.57l-1.38-3.51-.89-2.24-3.46 1.37.89 2.24.09.23zm6.09-2.68-.56-1.43 1.83-.72.56 1.43zm-4.11-.02.56 1.43-.92.36-.92.36-.56-1.43 1.83-.72z" />
		<path
			d="m50.15 99.51c.84 0 1.53-.68 1.53-1.53s-.62-1.87-1.53-2.44c-.26.9-1.53 1.6-1.53 2.44s.68 1.53 1.53 1.53z" />
		<path
			d="m59.31 103.58c.43-.85.08-1.89-.77-2.32s-1.89-.08-2.32.77-.08 1.89.77 2.32 1.89.08 2.32-.77z" />
		<path
			d="m53.34 105.13c.63.32 1.4.06 1.71-.57s.06-1.4-.57-1.71-1.4-.06-1.71.57c-.32.63-.06 1.4.57 1.71z" />
		<path
			d="m66.73 92.76c-.33-.28-.7-.47-1.09-.56-.18-.87-.64-1.68-1.36-2.31-1.41-1.21-3.39-1.32-4.9-.41-.05-.05-.1-.1-.15-.14-1.29-1.11-3.25-.97-4.36.33s-.97 3.25.33 4.36c.12.1.25.19.38.28-.59 1.35.13 3.37 1.83 4.83 1.8 1.55 4.06 1.92 5.26.93.09.11.19.21.3.31.97.83 2.42.72 3.25-.24.75-.87.73-2.14 0-2.99.29-.15.56-.36.79-.62.96-1.11.83-2.79-.28-3.75zm-7.62 4.01c-.11.2-.32.31-.53.31-.1 0-.21-.03-.31-.08-.14-.08-.24-.21-.29-.37-.04-.16-.02-.32.06-.47.17-.29.55-.4.84-.23s.4.55.23.84zm4.96-2.38c-.34.59-.96.91-1.85.94l-.77.04c-.44.02-.97.2-1.58.54l-.07.03s-.09.01-.13.01c-.08 0-.15-.02-.22-.06l-.07-.05s-.04-.04-.06-.06c-.04-.03-.12-.15-.09-.36v-.05s.19-.23.19-.23c.5-.35 1.07-.56 1.68-.62l1.64-.15c.25-.05.44-.2.58-.44.12-.21.15-.42.1-.63-.06-.21-.18-.37-.4-.5-.26-.15-.52-.15-.81 0-.17.16-.21.18-.25.2-.17.11-.37.1-.54-.04l-.08-.12c-.05-.13-.05-.26-.01-.39l.05-.09c.26-.28.59-.46.98-.53.4-.07.76-.01 1.09.18.45.26.72.65.83 1.17.08.41 0 .81-.21 1.19z" />
		<path
			d="m97.62 47.26c-.99 1.53-1.41 3.44-1.02 5.36.39 1.93 1.53 3.51 3.04 4.53.95-.29 1.76-.83 2.37-1.54-1.76-.65-3.04-1.85-3.36-3.41s.39-3.16 1.75-4.46c-.84-.41-1.8-.6-2.78-.49z" />
		<path
			d="m102.44 55.04c.69-1.07.97-2.4.7-3.75-.28-1.35-1.06-2.46-2.11-3.17-1.29 1.15-1.97 2.57-1.69 3.95s1.46 2.42 3.1 2.97z" />
		<path
			d="m93.2 53.32c.13.63.37 1.2.7 1.71.24-.62.31-1.26.18-1.89s-.45-1.19-.91-1.67c-.1.6-.1 1.22.03 1.85z" />
		<path
			d="m93.36 50.7c.73.62 1.23 1.4 1.41 2.3s.03 1.81-.4 2.67c1.06 1.19 2.66 1.86 4.33 1.68-1.39-1.12-2.41-2.7-2.8-4.58-.38-1.88-.06-3.74.77-5.31-1.6.49-2.81 1.73-3.32 3.24z" />
		<path
			d="m96.71 97.96c-2.28-.75-4.65-.52-6.65.47-.12.06-.17-.06-.15-.23.31-2.2-.07-4.19-1.45-6.16-1.1-1.58-3.64-2.84-5.84-3.19-.61-.1-1.16.32-1.25.92-.31 2.2.33 4.19 1.76 6.12 1.32 1.78 3.34 2.88 5.35 3.33-1.35 1.74-3.39 3.81-9.31 8.15l1.51 1.85c6.18-4.7 8.04-7.99 8.85-9.17 3.96 4.49 9.64 5.16 11.63 4.18.55-.27.77-.93.49-1.48-1.02-1.98-2.67-4.02-4.95-4.77zm-8.8-.39c-.2 0-.36-.16-.35-.36.04-3.58-3.98-5.65-4.02-5.67-.18-.09-.25-.3-.16-.48s.3-.25.48-.16 4.46 2.29 4.42 6.32c0 .2-.16.35-.36.35zm11.93 5.44c-.07.07-.16.11-.26.11-.09 0-.18-.03-.25-.1-3.47-3.33-7.65-2.98-7.69-2.98-.2.03-.37-.13-.39-.32-.02-.2.13-.37.32-.39.18-.02 4.54-.4 8.26 3.17.14.14.15.36.01.51z" />
		<path
			d="m40.19 17.47 7.51-2.45c.37.07.71.11 1.02.11.21 0 1.36-.26 1.59-.39.25-.14.49-.32.73-.54l7.75-1.29-2.85-11.48-1.3.24-.3-1.21c-.05-.2-.23-.34-.44-.33-.68.02-1.36.07-2.01.15-.76.09-1.5.23-2.21.4-1.36.33-2.32.84-2.87 1.49-.2.24-.34.52-.43.8-.22-.21-.46-.39-.75-.51-.79-.32-1.88-.32-3.24.01-.7.17-1.42.4-2.14.67-.62.23-1.24.5-1.85.8-.19.09-.28.3-.23.5l.32 1.3-1.12.35zm7.29-14.73c.43-.51 1.24-.91 2.42-1.2.67-.16 1.38-.29 2.1-.38.51-.06 1.04-.11 1.58-.13l2.44 9.9c-.54.05-1.04.11-1.49.18-.75.11-1.39.22-1.92.36-1.38.34-2.49.83-3.33 1.46l-2.07-8.44s-.01-.03-.02-.05c-.16-.71-.07-1.24.3-1.68zm-6.92 1.22c.69-.26 1.37-.47 2.04-.64 1.17-.29 2.08-.31 2.7-.05.53.22.86.65 1.04 1.35v.06s.01.01.02.02l2.06 8.4c-1.04-.16-2.25-.07-3.63.26-.53.13-1.16.32-1.87.58-.43.15-.89.33-1.4.53l-2.43-9.9c.48-.22.97-.43 1.46-.61z" />
		<path
			d="m41.9 11.7c-.18.08-.25.29-.17.47.06.13.19.2.32.2.05 0 .1-.01.15-.03.89-.42 3.49-1.37 4.75-.76.18.09.39.01.47-.16.09-.18.01-.39-.16-.47-1.82-.89-5.22.69-5.36.76z" />
		<path
			d="m41.69 10.37c.89-.42 3.49-1.38 4.75-.76.17.09.39.01.47-.16.09-.18.01-.39-.16-.47-1.82-.89-5.22.69-5.36.76-.18.08-.25.29-.17.47.06.13.19.2.32.2.05 0 .1-.01.15-.03z" />
		<path
			d="m45.93 7.65c.17.09.39.01.47-.16.09-.18.01-.39-.16-.47-1.82-.89-5.22.69-5.36.76-.18.08-.25.29-.17.47.06.13.19.2.32.2.05 0 .1-.01.15-.03.89-.42 3.49-1.37 4.75-.76z" />
		<path
			d="m45.42 5.69c.17.09.39.01.47-.16.09-.18.01-.39-.16-.47-1.82-.89-5.22.69-5.36.76-.18.08-.25.29-.17.47.06.13.19.2.32.2.05 0 .1-.01.15-.03.89-.42 3.49-1.37 4.75-.76z" />
		<path
			d="m49.19 10.33c-.12.15-.1.38.06.5.15.12.38.1.5-.06.88-1.1 3.63-1.35 4.62-1.35.05 0 .1-.01.15-.03.12-.06.2-.18.2-.32 0-.2-.16-.35-.36-.35-.16 0-3.9.03-5.17 1.62z" />
		<path
			d="m48.81 8.34c-.12.15-.1.38.06.5.15.12.38.1.5-.06.88-1.1 3.63-1.35 4.62-1.35.05 0 .1-.01.15-.03.12-.06.2-.18.2-.32 0-.2-.16-.35-.36-.35-.16 0-3.9.04-5.17 1.62z" />
		<path
			d="m48.43 6.35c-.12.15-.1.38.06.5.15.12.38.1.5-.06.87-1.1 3.63-1.35 4.62-1.35.05 0 .1-.01.15-.03.12-.06.2-.18.2-.32 0-.2-.16-.35-.36-.35-.16 0-3.9.03-5.17 1.62z" />
		<path
			d="m48.6 4.8c.88-1.1 3.63-1.35 4.62-1.35.05 0 .1-.01.15-.03.12-.06.2-.18.2-.32 0-.2-.16-.35-.36-.35-.16 0-3.9.03-5.17 1.62-.12.15-.1.37.06.5.15.12.38.1.5-.06z" />
		<path
			d="m38.94 102.88c.27.46.91.9 1.44.97.49.07.97-.17 1.22-.59l3.23-5.57c.05-.09.13-.16.22-.22l4.33-2.49s0 0 0 0l-1.99-3.45s0 0 0 0l-4.33 2.49c-.09.05-.19.08-.29.08h-6.25s0 0 0 0c-.65 0-1.22.4-1.45 1.04-.15.42-.07.9.15 1.28l3.72 6.47zm3.82-7.86c.26-.01.53-.07.76-.2l3.52-2.03 1.06 1.84-3.52 2.03c-.23.13-.42.33-.56.56l-.38.66-5.02-2.86z" />
		<path
			d="m55.81 108.71-12.78-3.66c-.17-.05-.34.05-.39.22l-.31 1.16s-1.99-.56-1.99-.57c-.19-.05-.38.06-.43.24l-2.08 7.31c-.28.99-.07 1.6.09 1.86.16.28.39.48.65.55h.06s11.22 3.18 11.22 3.18c2.89.81 3.61-.91 3.86-1.71l2.32-8.21c.05-.16-.05-.34-.21-.38zm-4.91 2.89c.05-.19.24-.3.42-.25.19.05.3.24.25.42l-.34 1.31c-.05.19-.24.3-.42.25-.19-.05-.3-.24-.25-.42zm-1.02-.59c.05-.19.24-.3.42-.25.19.05.3.24.25.42l-.49 1.86c-.05.19-.24.3-.42.25-.19-.05-.3-.24-.25-.42zm-5.31-.39c.33-1.28 1.64-2.05 2.92-1.71.97.25 1.64 1.06 1.77 2l-1.71-.82c-.06-.03-.13-.03-.2 0-.06.03-.11.08-.13.15l-.53 2.01c-.02.07 0 .14.04.19.04.06.1.09.17.1l1.89.12c-.57.75-1.55 1.13-2.52.88-1.28-.33-2.05-1.64-1.71-2.92zm4.7.8c-.01.13-.03.27-.07.4s-.08.26-.14.39l-1.85-.12.38-1.47 1.67.8zm-9.89 3.68c-.28.14-.52.09-.62.06-.08-.02-.16-.11-.23-.22-.08-.14-.24-.56-.02-1.33l1.97-6.94 1.66.47-1.69 5.87c-.03.1-.53 1.82-1.07 2.08zm12 2.76-10.14-2.87c-.19-.05-.3-.25-.25-.44s.25-.3.44-.25l10.14 2.87c.12.03.21.13.24.24.02.06.02.13 0 .2-.05.19-.25.3-.44.25z" />
	</g>
</svg>