<?xml version="1.0" encoding="UTF-8"?>
<svg xmlns="http://www.w3.org/2000/svg" viewBox="0 0 547 120">
    <g fill="currentColor" fill-rule="evenodd">
        <path
            d="M200.53 25.17c2.51 3.99 4.7 7.75 6.72 11.3l.82 1.64.11-.16c-.05-.82-.11-2.46-.11-3.33-.05-1.42-.22-3.71-.22-5.9V.66h6.28v46.35h-6.66l-14.9-23.59c-1.31-2.02-3.6-5.9-5.35-8.9-.44-.6-2.4-3.93-2.57-4.53h-.16c0 1.04.05 2.95.16 3.88.05 1.31.16 2.73.16 4.2v28.94h-6.55V.66h6.77l15.51 24.51Zm20.31 5.95c0-9.5 7.26-16.49 16.43-16.49 9.72 0 16.32 7.81 16.32 16.49 0 9.72-7.81 16.6-16.16 16.6-9.5 0-16.6-7.15-16.6-16.6m26.04 0c0-6.06-4.15-10.92-9.55-10.92s-9.72 4.97-9.72 11.03 4.42 10.92 9.44 10.92c5.73 0 9.83-5.08 9.83-11.03m14.96-15.72 8.9 24.35 9.12-24.35h6.82l-12.99 31.56h-6.17L254.84 15.4h6.99Zm53.99 24.02c0 1.36.44 2.51 2.02 2.51.27 0 1.09 0 2.18-.49v5.19c-1.47.38-2.78.76-4.53.76-4.2 0-5.79-2.18-5.84-5.46h-.16c-1.31 1.97-3.93 5.79-9.72 5.79-5.24 0-11.14-3.82-11.14-10.1 0-8.68 10.37-10.05 20.91-11.14-.22-4.8-4.8-6.22-7.75-6.22-4.7 0-8.24 2.78-10.65 4.75v-6.77c2.24-1.31 6.61-3.6 11.9-3.6 8.68 0 12.78 6.17 12.78 11.79v12.99Zm-9.34-7.59c-7.97 1.04-11.14 2.18-11.14 5.62 0 2.84 2.73 4.91 5.73 4.91 1.15 0 8.08-.44 8.46-11.03-.38.05-2.02.27-3.06.49m64.2-20.09c-2.29-2.02-6.72-5.84-13.27-5.84-9.39 0-15.51 9.12-15.51 18.29 0 9.83 6.61 17.42 14.58 17.42 6.93 0 12.17-4.2 14.14-5.84v7.7c-2.57 1.47-7.53 4.37-14.36 4.37-11.52 0-21.18-9.5-21.18-23.59S344.56 0 357.17 0c6.33 0 10.59 2.46 13.43 4.15v7.59h.11Zm4.42 19.38c0-9.5 7.26-16.49 16.43-16.49 9.72 0 16.32 7.81 16.32 16.49 0 9.72-7.81 16.6-16.16 16.6-9.55 0-16.6-7.15-16.6-16.6m25.99 0c0-6.06-4.15-10.92-9.55-10.92s-9.72 4.97-9.72 11.03 4.42 10.92 9.44 10.92c5.73 0 9.83-5.08 9.83-11.03M414.5.65h6.22V47h-6.22V.66Zm16.32 0h6.28V47h-6.28V.66Zm19.87 30.41c.49 8.41 7.04 10.59 10.59 10.59 4.64 0 8.68-2.78 11.79-5.9v7.59c-2.02 1.36-6.39 4.37-12.88 4.37-10.21 0-16.21-8.13-16.21-16.6 0-9.72 7.59-16.49 15.89-16.49 2.89 0 8.3 1.04 11.57 5.84 2.73 4.04 2.78 8.24 2.78 10.59h-23.53Zm16.16-5.02c-.6-4.26-3.93-6.22-6.99-6.22-1.2 0-5.68.05-8.35 6.22h15.34Zm38.27-10.65h4.91v27.79c0 6.44-.6 11.08-4.75 15.01-3.93 3.82-8.9 4.37-11.46 4.37-5.84 0-10.1-2.78-12.23-4.15v-7.75c2.02 2.02 6.33 6.06 12.45 6.06 3.88 0 7.32-2.51 8.74-5.9.98-2.18.98-6.88 1.04-9.28l-.16-.16c-1.15 1.47-4.42 5.73-10.37 5.73-7.59 0-13.81-6.99-13.81-15.94s6.11-16.43 14.58-16.43c4.42 0 6.93 1.97 9.72 4.37l1.36-3.71Zm-1.26 9.12c-1.58-1.47-4.09-4.04-8.3-4.04-4.97 0-9.34 3.71-9.34 10.32 0 5.62 3.17 10.37 8.57 10.37s9.06-4.91 9.06-11.03v-5.62Zm19 6.55c.49 8.41 7.04 10.59 10.59 10.59 4.64 0 8.68-2.78 11.85-5.9v7.59c-2.02 1.36-6.39 4.37-12.88 4.37-10.21 0-16.21-8.13-16.21-16.6 0-9.72 7.59-16.49 15.89-16.49 2.95 0 8.3 1.04 11.57 5.84 2.73 4.04 2.78 8.24 2.78 10.59h-23.59Zm16.21-5.02c-.6-4.26-3.93-6.22-6.99-6.22-1.2 0-5.68.05-8.35 6.22h15.34ZM121.04 68.79 77.75 52.25l63.6 67.75-20.31-51.21Zm-2.13-21.62 2.18 21.51 101.71.16-103.89-21.67Zm0 0-18.4-13.38L.5 22.55l118.42 24.62ZM100.4 33.69l42.53 13.27L76.38 2.84l24.02 30.85Z" />
    </g>
</svg>