<?xml version="1.0" encoding="UTF-8"?>
<svg xmlns="http://www.w3.org/2000/svg" viewBox="0 0 120 120">
    <g fill="currentColor" fill-rule="evenodd">
        <path
            d="M61.8 16.17c-1.04-1.04-2.76-1.04-3.82 0l-4.04 4.04c-1.04 1.04-1.04 2.76 0 3.82l4.04 4.04c1.04 1.04 2.76 1.04 3.82 0l4.04-4.04c1.04-1.04 1.04-2.76 0-3.82l-4.04-4.04ZM43.25 34.72c-1.04-1.04-2.76-1.04-3.82 0l-4.04 4.04c-1.04 1.04-1.04 2.76 0 3.82L39 46.19l.43.43c1.04 1.04 2.76 1.04 3.82 0l4.04-4.04c1.04-1.04 1.04-2.76 0-3.82l-4.04-4.04Z" />
        <path
            d="M117.31 53.48 66.52 2.69c-3.59-3.59-9.44-3.59-13.03 0L2.69 53.48c-3.59 3.59-3.59 9.44 0 13.03l50.79 50.79c3.59 3.59 9.44 3.59 13.03 0l50.79-50.79c3.59-3.59 3.59-9.44 0-13.03ZM36.39 61.7c-1.04 1.04-2.76 1.04-3.8 0l-6.13-6.13-2.03-2.03c-1.04-1.04-2.76-1.04-3.82 0l-4.04 4.04c-1.04 1.04-1.04 2.76 0 3.82l2.03 2.03 6.13 6.13c1.04 1.04 1.06 2.76 0 3.8-1.04 1.04-2.76 1.04-3.8 0l-6.13-6.13-2.42-2.42-.07-.07c-2.88-2.88-2.88-7.61 0-10.49l4.98-4.98c2.88-2.88 7.61-2.88 10.49 0l.07.07 2.42 2.42 6.13 6.13c1.04 1.04 1.04 2.76 0 3.8Zm15.19-15.79-4.98 4.98c-.5.5-1.06.91-1.64 1.24l2.62 2.62c1.04 1.04 1.06 2.76 0 3.8-1.04 1.04-2.76 1.04-3.8 0l-7.66-7.66-.9-.9-4.08-4.08c-2.88-2.88-2.88-7.61 0-10.49l4.98-4.98c2.88-2.88 7.61-2.88 10.49 0l4.98 4.98c2.88 2.88 2.88 7.61 0 10.49Zm18.54-18.54-4.98 4.98c-2.88 2.88-7.61 2.88-10.49 0l-4.98-4.98c-2.88-2.88-2.88-7.61 0-10.49l4.98-4.98c2.88-2.88 7.61-2.88 10.49 0l4.98 4.98c2.88 2.88 2.88 7.6 0 10.49Z" />
    </g>
</svg>