<?xml version="1.0" encoding="UTF-8"?>
<svg viewBox="0 0 308 120" xmlns="http://www.w3.org/2000/svg">
	<g fill="currentColor" fill-rule="evenodd">
		<path
			d="m131.27 23.74c2.72 0 4.75 1.36 6.79 3.38l34.58 34.57c6.79 6.78 14.24 10.18 24.42 10.18h64.43l-23.74 23.74h-60.37c-3.39 0-5.41-.68-7.45-2.72l-34.6-34.57c-6.78-6.8-14.23-10.18-24.41-10.18h-64.41l23.74-24.4h61.03zm23.75-13.56c-6.78-6.8-14.93-10.18-23.75-10.18h-70.53l-60.36 59.65 60.36 60.35h33.91l-48.15-48.13h64.43c2.71 0 5.42.68 7.46 2.72l34.58 35.25c6.78 6.78 14.92 10.16 23.74 10.16h71.21l59.69-60.35-59.68-59.65h-34.58l48.15 48.13h-64.43c-2.72 0-4.74-1.36-6.78-2.7" />
	</g>
</svg>