<?xml version="1.0" encoding="UTF-8"?>
<svg xmlns="http://www.w3.org/2000/svg" viewBox="0 0 652 120">
    <g fill="currentColor" fill-rule="evenodd">
        <path
            d="M534.86 3.78 531.6 0l-3.26 3.78c-1.43 1.63-34.4 39.93-34.4 74.66 0 11.79 3.84 22.41 10.94 29.97 6.91 7.43 16.42 11.53 26.71 11.53s19.8-4.1 26.71-11.53c7.04-7.56 10.94-18.24 10.94-29.97-.07-34.72-33.03-73.03-34.4-74.66Zm7.04 64.69c-1.5-6.12-4.3-13.03-8.27-20.46l7.62-4.04c4.3 8.08 7.36 15.64 9.06 22.48l-8.4 2.02ZM614.08 120l-2.15-1.24c-1.43-.85-35.5-20.91-35.5-58.76s34.07-57.92 35.5-58.76L614.08 0l2.15 1.24c1.43.85 35.5 20.91 35.5 58.76s-34.07 57.92-35.5 58.76l-2.15 1.24Zm0-109.77c-7.04 4.82-28.99 22.15-28.99 49.77s21.95 44.95 28.99 49.77c7.04-4.82 28.99-22.15 28.99-49.77s-21.95-44.95-28.99-49.77Z" />
        <path
            d="m616.94 58.11 4.89-16.74c-2.35-.98-4.95-1.5-7.69-1.5-11.14 0-20.2 9.06-20.2 20.2s9.06 20.2 20.2 20.2 20.2-9.06 20.2-20.2c0-2.35-.39-4.56-1.11-6.64l-16.29 4.69ZM451.15 2.48 448.35 0l-2.8 2.48c-1.43 1.24-34.79 30.62-34.79 66.97 0 13.68 5.08 26.84 14.33 37 7.36 8.14 16.74 13.55 23.32 13.55s15.9-5.47 23.32-13.55c9.25-10.16 14.33-23.32 14.33-37-.13-36.35-33.55-65.73-34.92-66.97ZM421.9 52.97l22.08 22.08v13.81l-24.43-24.43c.39-3.91 1.24-7.75 2.35-11.47ZM452.65 49l14.01-14.01c1.69 2.87 3.32 5.93 4.76 9.06l-18.76 18.76V49Zm-8.66 13.81-18.7-18.7c1.43-3.19 3.06-6.19 4.76-9.06l13.94 13.94V62.8Zm8.66 12.25 22.08-22.08c1.11 3.71 1.95 7.56 2.35 11.53l-24.43 24.43V75.06Zm9.12-47.49-9.12 9.12V16.3c2.74 3 5.93 6.84 9.12 11.27ZM443.98 16.3v20.46l-9.12-9.12c3.19-4.5 6.38-8.34 9.12-11.34Zm-24.04 60.78 24.04 24.04v8.99c-8.01-3.52-21.04-15.05-24.04-33.03Zm45.28 23.45c-4.43 4.89-9.06 8.01-12.57 9.51v-8.93l24.04-24.04c-1.76 10.68-6.97 18.5-11.47 23.45ZM82.87 10.75c8.4 7.17 12.64 18.11 12.64 32.96s-4.3 25.67-12.96 32.51c-8.66 6.84-21.82 10.29-39.54 10.29H27.05V120H.27V0h42.41c18.37 0 31.79 3.58 40.2 10.75ZM63.26 57.92c3.19-3.58 4.82-8.86 4.82-15.77S66 30.29 61.83 27.36 51.15 23 42.35 23H27.04v40.33h18.05c8.93 0 14.98-1.76 18.18-5.41ZM224.57 0h26.78v119.93h-26.78l-57.13-75.18v75.18h-26.78V0h25.08l58.89 77.2V0h-.07Zm37.72 0h26.78v49.25L334.34 0h33.09l-47.69 53.03c4.1 5.73 11.73 16.42 22.8 31.99 11.07 15.64 19.41 27.23 24.89 34.92h-31.21l-35.18-47.36-11.99 13.36v34.01h-26.78V0ZM103.85 0h26.78v119.93h-26.78V0Zm271.86 93.22h26.78V120h-26.78V93.22Zm0-93.22h26.78v83.91h-26.78V0Z" />
    </g>
</svg>