<?xml version="1.0" encoding="UTF-8"?>
<svg viewBox="0 0 496 120" xmlns="http://www.w3.org/2000/svg">
    <g fill="currentColor" fill-rule="evenodd">
        <path
            d="m349.08 33.42c-5.54-4.41-11.98-5.99-18.96-6.14-2.82.42-5.72.56-8.45 1.31-9.1 2.52-15.31 8.4-18.44 17.24-2.65 7.48-2.71 15.19-.51 22.82 2.37 8.23 7.46 14.26 15.41 17.6 6.53 2.74 13.37 3.03 20.21 1.45 10.86-2.52 17.48-9.57 20.31-20.12 1.82-6.77 1.63-13.66-.37-20.42-1.64-5.51-4.67-10.14-9.2-13.74zm-3.17 36.2c-2.33 4.82-6.18 8.05-11.46 8.93-10.14 1.7-18.18-2.82-20.78-13.3-.57-2.31-.71-4.72-1.04-7.09.17-4.4.84-8.62 3.02-12.47 3.46-6.12 9.77-9.09 16.99-8.38 7.83.77 13.12 6.28 14.75 13.12 1.55 6.52 1.51 13-1.47 19.18z" />
        <path
            d="m187.76 33.08c-3.63-2.91-7.88-4.15-12.43-4.21-8.89-.12-17.79-.05-26.68-.06-.26 0-.52.04-.81.06v58.39h10.95v-1.4c0-5.98.02-11.97-.02-17.95 0-.89.24-1.18 1.16-1.17 4.66.04 9.32.08 13.97 0 2.05-.04 4.12-.22 6.12-.65 6-1.29 10.44-4.61 12.8-10.4 1.53-3.77 1.73-7.68 1.12-11.66-.68-4.42-2.64-8.12-6.16-10.95zm-5.56 19.28c-1.35 3.04-3.85 4.61-6.98 4.77-5.21.27-10.44.17-15.67.18-.26 0-.74-.45-.74-.69-.03-6.02-.01-12.03 0-18.05 0-.06.06-.13.13-.26.15-.02.33-.07.51-.07 5.11.04 10.22-.01 15.33.16 4.62.16 7.87 3.45 8.23 8.04.16 2.03.02 4.01-.82 5.91z" />
        <path
            d="m439.98 45.95c-4.21-2.04-8.71-2.42-13.28-1.74-7.05 1.05-12.11 4.85-15.1 11.3-2.36 5.08-2.62 10.45-1.68 15.87 1.03 5.95 4.01 10.69 9.2 13.93 4.11 2.56 8.67 3.24 13.39 2.92 6.79-.47 12.31-3.25 15.88-9.24.83-1.39 1.34-2.98 2.1-4.71-3.48 0-6.56-.02-9.65.03-.26 0-.55.42-.77.69-.82 1.03-1.48 2.24-2.46 3.09-2.44 2.1-5.42 2.43-8.5 2.12-5.91-.6-9.16-5.18-9.36-10.89h31.61c.15-3.96-.02-7.7-1.22-11.33-1.78-5.36-4.99-9.54-10.14-12.04zm-20.19 16.11c.42-6.1 4.94-10.3 10.69-10.16 6.43.16 10.03 4.9 10.48 10.16z" />
        <path
            d="m254.39 44.88c-2.79.03-5.57.04-8.36 0-.8-.01-1.06.24-1.05 1.04.04 2.51.02 5.03.01 7.55-.01 5.6.08 11.21-.09 16.81-.14 4.69-3.43 8.36-7.93 8.98-3 .41-5.92.13-7.99-2.5-1.31-1.67-1.52-3.69-1.52-5.74 0-8.23 0-16.47 0-24.7v-1.34h-10.23c-.04.32-.1.58-.1.84.01 9.57-.05 19.13.09 28.7.07 4.57 1.72 8.53 5.67 11.27 5.49 3.8 16.16 3.97 21.71-3.7.16-.22.36-.41.78-.88v6.09h9.9c.03-.27.07-.49.07-.71 0-13.57 0-27.14.02-40.71 0-.77-.27-.97-1-.97z" />
        <path
            d="m403.66 57.47c-.16-6.99-4.47-12.05-11.27-13.21-6.6-1.13-12.23.58-16.33 6.17-.07.1-.21.15-.5.35v-5.8h-9.88v42.28h10.21c0-.53 0-.98 0-1.43.02-7.74 0-15.47.06-23.21.05-5.47 3.58-9.36 9.02-9.73 4.88-.33 8.34 1.96 8.41 7.33.11 8.57.06 17.15.08 25.72v1.32h10.29v-1.21c0-3.93 0-7.85 0-11.78-.01-5.6.05-11.2-.08-16.8z" />
        <path
            d="m292.69 65.17c-2.95-1.6-6.16-2.35-9.43-2.96-3.02-.57-6.05-1.15-9.02-1.94-2.03-.54-3.04-2.23-2.99-4.22.06-1.99 1.19-3.52 3.16-4.14 2.88-.9 5.77-.83 8.67-.05 2.36.63 3.8 2.12 4.39 4.45.16.62.2 1.27.3 1.92h9.58c.01-.24.04-.42.03-.61-.29-6.06-3.49-10.66-9.81-12.53-4.42-1.31-8.95-1.45-13.49-.86-3.2.42-6.2 1.4-8.83 3.42-5.85 4.49-6.24 16.18 3.19 19.91 2.9 1.15 6.08 1.61 9.13 2.39 2.75.71 5.55 1.29 8.24 2.2 1.81.61 2.5 2.25 2.39 4.13-.11 2-1.19 3.33-3.05 4-3.1 1.13-6.29 1.06-9.47.42-2.09-.42-3.74-1.56-4.6-3.56-.43-.99-.62-2.09-.96-3.26h-9.74c-.25 4.49 2.22 9.86 6.82 11.98 7.88 3.63 15.99 3.57 23.97.42 4.32-1.71 6.82-5.12 7.21-9.87.4-4.9-1.21-8.83-5.7-11.26z" />
        <path d="m199.37 87.27h10.13v-58.38h-10.13z" />
        <path
            d="m494.24 40.64c-3.39-8.29-9.79-12.67-18.73-13.15-12.15-.64-21.97 8.58-21.93 22.48-.02 3.04 1.71 7.47 5.09 11.25 8.1 9.07 22.17 8.65 29.82 1.91 6.36-5.59 8.95-14.67 5.75-22.49zm-19.81 23.15c-9.22-.05-16.35-7.07-16.25-16.01.1-9.25 7.13-16.1 16.45-16.03 9.45.08 16.39 7.02 16.29 16.3-.1 9.06-7.14 15.79-16.48 15.74z" />
        <path
            d="m480.67 48.07c.15-.2.19-.33.28-.38 2.24-1.29 2.76-3.34 2.41-5.68-.34-2.29-1.77-3.79-3.96-4.38-4.23-1.14-8.55-.3-12.85-.6v20.98h4.55v-7.74h3.34c3.36 0 3.74.39 3.96 3.78.07 1.09.24 2.19.5 3.26.07.31.56.71.88.73 1.37.08 2.74.03 3.98.03-.22-1.43-.46-2.73-.6-4.03-.25-2.25-.13-4.63-2.48-5.98zm-4.04-1.83c-1.77.16-3.56.04-5.48.04v-5.05c1.86 0 3.68-.12 5.47.04 1.34.12 2.01 1.15 1.99 2.49-.01 1.4-.63 2.35-1.99 2.48z" />
        <path d="m83.55 47.97-20.79 12.03-20.79-12.03 20.79-12.03z" opacity=".5" />
        <path d="m.39 72.03 20.79-12.03v24.06z" opacity=".5" />
        <path d="m41.97 47.97v24.06l20.79 12.03v-24.06z" />
        <path d="m62.76 84.06-20.79 11.88-20.79-11.88 20.79-12.03z" opacity=".5" />
        <path d="m62.76 12.03-20.79-12.03v24.06z" />
        <path d="m104.35 35.94v72.03l-20.8-12.03v-47.97l-20.79-12.03v-23.91l20.79 12.03z" />
        <path d="m104.35 107.97-20.8 12.03-20.79-12.03 20.79-12.03z" opacity=".5" />
    </g>
</svg>