<?xml version="1.0" encoding="UTF-8"?>
<svg xmlns="http://www.w3.org/2000/svg" viewBox="0 0 485 120">
    <g fill="currentColor" fill-rule="evenodd">
		<path d="m.36 89.09v-87.27h36.85c.85 0 1.99.03 3.42.09s2.72.19 3.85.39c5.21.81 9.48 2.53 12.82 5.15 3.33 2.63 5.79 5.93 7.36 9.91 1.58 3.98 2.36 8.41 2.36 13.3s-.8 9.32-2.39 13.3c-1.6 3.98-4.06 7.28-7.39 9.91s-7.59 4.34-12.76 5.15c-1.13.16-2.42.28-3.88.36-1.45.08-2.59.12-3.39.12h-20.36v29.58h-16.49zm16.48-44.97h19.64c.85 0 1.78-.04 2.79-.12s1.94-.24 2.79-.49c2.22-.61 3.94-1.63 5.15-3.06s2.05-3.03 2.51-4.79.7-3.42.7-5-.23-3.24-.7-5-1.3-3.35-2.51-4.79c-1.21-1.43-2.93-2.45-5.15-3.06-.85-.24-1.78-.4-2.79-.49-1.01-.08-1.94-.12-2.79-.12h-19.64v26.91z"/>
		<path d="m104.36 90.91c-6.59 0-12.36-1.47-17.33-4.42s-8.84-7.02-11.61-12.21-4.15-11.16-4.15-17.91 1.41-12.84 4.24-18.03 6.73-9.24 11.7-12.15 10.69-4.36 17.15-4.36 12.37 1.47 17.36 4.42 8.88 7.02 11.67 12.21 4.18 11.16 4.18 17.91-1.4 12.78-4.21 17.97-6.71 9.25-11.7 12.18-10.76 4.39-17.3 4.39zm0-15.39c5.29 0 9.24-1.79 11.85-5.36s3.91-8.17 3.91-13.79-1.32-10.46-3.97-13.94c-2.65-3.47-6.58-5.21-11.79-5.21-3.6 0-6.54.81-8.85 2.42-2.3 1.62-4.01 3.86-5.12 6.73s-1.67 6.2-1.67 10c0 5.86 1.32 10.52 3.97 13.97s6.54 5.18 11.67 5.18z"/>
		<path d="m148.08 89.09v-89.09h16.49v89.09z"/>
		<path d="m225.85 23.64-17.09 44.54-17.21-44.54h-17.09l26.4 64.94-10.76 29.6h15.27l36.97-94.54z"/>
		<path d="m291.63 23.64v3.61c-.38-.3-.76-.6-1.15-.89-4.24-3.03-9.47-4.55-15.7-4.55s-11.72 1.49-16.36 4.48c-4.65 2.99-8.25 7.08-10.82 12.27s-3.85 11.12-3.85 17.79 1.26 12.43 3.79 17.64 6.05 9.33 10.58 12.36 9.8 4.55 15.82 4.55 11.39-1.39 15.64-4.12v6.55c.08 2.42-.54 4.45-1.85 6.09s-3.06 2.87-5.24 3.7-4.51 1.24-6.97 1.24c-2.3 0-4.43-.51-6.39-1.52s-3.47-2.48-4.51-4.42l-15.27 7.39c1.66 2.83 3.81 5.3 6.45 7.42 2.65 2.12 5.65 3.78 9 4.97s6.89 1.79 10.61 1.79c4.81 0 9.27-.64 13.39-1.91s7.61-3.2 10.46-5.79 4.8-5.88 5.85-9.88c.36-1.41.62-2.84.76-4.27s.21-2.96.21-4.58v-69.92h-14.42zm-1.45 43.15c-.97 2.99-2.56 5.31-4.76 6.97s-5.14 2.48-8.82 2.48-6.47-.89-8.73-2.67-3.94-4.17-5.03-7.18-1.64-6.35-1.64-10.03.57-6.96 1.7-9.97 2.88-5.41 5.24-7.21 5.38-2.7 9.06-2.7c3.43 0 6.21.83 8.33 2.48 2.12 1.66 3.67 3.98 4.64 6.97s1.45 6.47 1.45 10.42-.49 7.43-1.45 10.42z"/>
		<path d="m349.45 90.91c-6.59 0-12.36-1.47-17.33-4.42s-8.84-7.02-11.61-12.21-4.15-11.16-4.15-17.91 1.41-12.84 4.24-18.03 6.73-9.24 11.7-12.15 10.69-4.36 17.15-4.36 12.37 1.47 17.36 4.42 8.88 7.02 11.67 12.21 4.18 11.16 4.18 17.91-1.4 12.78-4.21 17.97-6.71 9.25-11.7 12.18-10.76 4.39-17.3 4.39zm0-15.39c5.29 0 9.24-1.79 11.85-5.36s3.91-8.17 3.91-13.79-1.32-10.46-3.97-13.94c-2.65-3.47-6.58-5.21-11.79-5.21-3.6 0-6.54.81-8.85 2.42-2.3 1.62-4.01 3.86-5.12 6.73s-1.67 6.2-1.67 10c0 5.86 1.32 10.52 3.97 13.97s6.54 5.18 11.67 5.18z"/>
		<path d="m424.44 90.91c-6.59 0-12.36-1.47-17.33-4.42s-8.84-7.02-11.61-12.21-4.15-11.16-4.15-17.91 1.41-12.84 4.24-18.03 6.73-9.24 11.7-12.15 10.69-4.36 17.15-4.36 12.37 1.47 17.36 4.42 8.88 7.02 11.67 12.21 4.18 11.16 4.18 17.91-1.4 12.78-4.21 17.97-6.71 9.25-11.7 12.18-10.76 4.39-17.3 4.39zm0-15.39c5.29 0 9.24-1.79 11.85-5.36s3.91-8.17 3.91-13.79-1.32-10.46-3.97-13.94c-2.65-3.47-6.58-5.21-11.79-5.21-3.6 0-6.54.81-8.85 2.42-2.3 1.62-4.01 3.86-5.12 6.73s-1.67 6.2-1.67 10c0 5.86 1.32 10.52 3.97 13.97s6.54 5.18 11.67 5.18z"/>
		<path d="m468.16 14.55v-14.55h16.49v14.55zm0 74.55v-65.46h16.49v65.45h-16.49z"/>
    </g>
</svg>