<?xml version="1.0" encoding="UTF-8"?>
<svg xmlns="http://www.w3.org/2000/svg" viewBox="0 0 324 120">
    <g fill="currentColor" fill-rule="evenodd">
    	<path d="m120.18 39v-38c0-.55-.45-1-1-1h-37.95c-.55 0-1 .45-1 1v38c0 .55.45 1 1 1h37.95c.55 0 1-.45 1-1z"/>
        <path d="m119.18 80h-37.95c-.55 0-1-.45-1-1v-38c0-.55-.45-1-1-1h-38c-.55 0-1-.45-1-1v-38c0-.55-.45-1-1-1h-38.05c-.56 0-1 .45-1 1v118c0 .55.45 1 1 1h118c.55 0 1-.45 1-1v-38c0-.55-.45-1-1-1z"/>
        <circle cx="100.22" cy="60" r="20"/>
        <path d="m145.16 65.09c-.02 3.95-.04 7.89-.06 11.84q-.05.41.12.5c1.27-.51 2.5-1.11 3.82-1.52 2.45-.78 4.95-1.01 7.49-.85 3.13.19 6.08 1.21 8.84 2.55 1.29.62 2.53 1.64 3.65 2.67 4.44 4.07 6.93 9.06 6.95 15.12.04 8.04 0 16.08 0 24.12 0 .16.04.33.06.49h-10.2c.03-.24.09-.49.09-.73 0-7.87-.01-15.73 0-23.6 0-.99-.21-1.94-.45-2.87-1.45-5.63-8.29-9.11-13.8-7.17-3.62 1.27-6.39 4.66-6.49 8.43-.12 4.73-.05 9.47-.04 14.21 0 3.91.04 7.82.06 11.73h-10.2c.03-1.23.07-2.47.07-3.7 0-14.62 0-29.25 0-43.87 0-2.36.03-4.73-.28-7.09-.01-.08.13-.18.2-.27.09-.06.19-.12.28-.18 3.22 0 6.44 0 9.67-.01.07.07.15.14.22.21z"/>
        <path d="m197.99 119.73c-2.39-.67-3.69-1.23-5.43-2.16-5.31-2.84-8.68-7.14-10.33-12.89-.56-1.97-.7-3.96-.7-5.99 0-7.5.02-15-.02-22.51 0-.91.2-1.21 1.15-1.19 2.65.06 5.31.06 7.96-.01 1.05-.03 1.35.31 1.34 1.32-.05 7.79.18 15.59-.14 23.37-.25 6.21 6.04 10.57 10.59 10.39 5.47-.21 10.02-4.31 9.98-9.96-.06-7.54-.02-15.09-.02-22.63q0-2.47 2.44-2.47c2.28 0 4.56.04 6.84-.03.89-.03 1.16.28 1.15 1.12-.04 3.13-.04 6.27-.04 9.4v33.88c0 .2-.03.41-.02.61h-10.36c0-.41-.03-.82 0-1.23.08-.89-.1-1.17-1.07-.75-1.42.63-4.21 1.9-7.7 1.98h-3.36c-.37 0-1.26 0-2.26-.27z"/>
        <path d="m259.89 119.71c-3.73-.47-6.15-2.12-8.72-4.04-2.93-2.18-4.58-5.16-5.33-8.7-.39-1.87-.36-1.98 1.47-1.98 2.69 0 5.39.02 8.08-.01 1.03-.01 1.52.25 1.8 1.42.63 2.62 2.6 4.22 5.15 4.61 2.01.31 4.18.45 6.18-.42 1.56-.68 2.97-1.98 2.81-4.08-.1-1.27-.83-2.01-1.8-2.57-2.49-1.44-5.31-1.99-8.04-2.74-4.02-1.11-8.14-1.99-11.39-4.89-3.56-3.17-4-7.14-3.03-11.46.6-2.68 2.28-4.71 4.42-6.32 4.41-3.32 9.46-3.85 14.8-3.35 2.45.23 4.79.63 7 1.68 4.35 2.07 7.04 5.46 8 10.18.5 2.48.51 2.44-1.97 2.44-2.44 0-4.88.06-7.33.11-.68.01-1.05-.03-1.21-.93-.57-3.17-3.28-4.76-6.26-4.76-1.27 0-2.54-.12-3.81.21-1.61.42-3.09 1.78-3.3 3.32-.14 1.04.37 2.63 2.15 3.63 2.8 1.58 5.92 2.12 8.94 2.99 3.2.92 6.37 1.84 9.15 3.86 2.75 1.99 4.06 4.68 4.35 7.89.54 6.06-3.69 11.1-8.8 12.98-1.16.61-4.02 1.28-6.54 1.24h-3.31c-1.07-.06-1.86-.1-3.43-.29z"/>
        <path d="m229.78 120c0-14.62.02-29.24.01-43.86 0-.81.17-1.19 1.1-1.16 2.65.06 5.3.06 7.95.01.89-.01 1.12.3 1.11 1.15-.04 14.33-.04 28.67-.05 43 0 .29.05.57.08.86z"/>
        <path d="m179.27 55.13c-3.48 0-6.96-.04-10.43.03-.97.02-1.52-.37-1.97-1.11-3.47-5.76-7.04-11.47-10.34-17.33-.85-1.51-1.77-1.85-3.27-1.78-2.48.11-4.96-.06-7.44.2-.24.02-.51-.05-.66.23q-.05.17-.03.28c.02 5.36.05 10.71.03 16.07 0 .74-.04 1.27-.01 2.24-.01.7-.02 1.27-1.11 1.22-2.56-.1-5.14-.06-7.7.01-.99.03-1.26-.26-1.26-1.24.04-7.05.02-14.09 0-21.14-.01-10.59-.03-21.18-.07-31.77 0-.79.27-1.01.99-1.01 7.29.02 14.59-.15 21.87.09 6.54.21 11.71 3.19 15.07 8.88 1.38 2.34 2.01 4.95 2.15 7.71.19 3.78-.61 7.23-2.74 10.38-1.39 2.06-3.06 3.81-5.18 5.11-.66.4-.89.58-.38 1.42 4.23 6.89 8.38 13.82 12.55 20.75-.03.25-.05.51-.08.76zm-34.14-37.44h.04c0 2.1.05 4.21-.03 6.3-.03.87.27 1.01 1.04 1.01 3.98-.03 7.96 0 11.93-.02.48 0 .96-.1 1.42-.23 4.13-1.21 5.89-4.66 5.52-7.69-.53-4.28-3.4-6.8-7.92-6.91-3.64-.08-7.29.01-10.94-.04-.92-.01-1.1.32-1.09 1.14.05 2.14.02 4.29.02 6.43z"/>
        <path d="m323.78.51c.02.33.02.66.02.99 0 17.36-.01 34.71.03 52.07 0 1.27-.36 1.64-1.6 1.59-2.44-.09-4.89-.05-7.33 0-.91.02-1.35-.14-1.32-1.21.07-2.36.04-2.3-2.17-1.28-2.53 1.16-5.14 1.94-7.95 2.32-5.8.78-10.81-1.02-15.55-4.04-1.38-.86-3.06-2.47-3.43-2.94-2.29-2.89-4.27-5.97-5.19-9.61-.76-2.98-.88-5.96-.53-9.03.43-3.77 1.95-7.05 4.06-10.06 3.4-4.85 8.24-7.7 13.99-8.86 3.74-.76 7.62-.54 11.25.57 1.82.55 3.66 1.47 5.35 2.51.54.18.42-.51.36-.87-.08-3.86.14-7.72-.14-11.57-.03-.47-.05-.83.66-.85 2.84-.08 5.67-.28 8.51-.13.23.05.98.1 1 .4zm-22.97 19.79c-6.96-.26-12.2 5.71-12.26 12.38-.05 6.37 5.56 12.71 13.04 12.38 6.22-.27 12.53-5.47 12.03-13.56-.32-5.29-5.48-11.66-12.81-11.2z"/>
        <path d="m263.62 9.98c3.02-.01 6.05 0 9.07-.05.92-.02 1.08.37 1.08 1.19-.03 7.34-.03 14.67-.03 22.01 0 5.73.08 11.46-.04 17.19-.03 1.42.15 2.85-.12 4.27-.09.48-.21.6-.67.6-2.86-.03-5.72-.05-8.58-.03-.77 0-.98-.3-1-1.02-.07-2.38-.12-2.45-2.33-1.37-3.93 1.92-8.11 2.7-12.4 2.33-4.22-.37-8.08-1.98-11.47-4.59-3.95-3.05-6.64-7.03-8.05-11.73-1.25-4.14-1.1-8.37.06-12.6.48-1.74 1.11-3.52 2.02-4.9 1.88-2.86 4.27-5.4 7.15-7.44 2.1-1.49 4.44-2.35 6.85-2.98 2.67-.69 5.4-.85 8.22-.54 2.4.27 4.61 1.04 6.9 1.63.78.2 1.42.89 2.14 1.34.6.37.97.32.95-.52-.02-.86.02-1.73.03-2.59.08-.06.15-.13.23-.19zm-.27 22.64c0-7.54-5.34-12.51-13.74-12.29-6.39.17-11.27 5.81-11.27 12.33 0 6.35 5.35 12.83 13.38 12.39 5.74-.31 12.06-5.58 11.64-12.43z"/>
        <path d="m222.75 54.06c.05.65-.06 1.17-1.08 1.13-2.77-.12-5.55-.09-8.32-.05-.79.01-.99-.25-.99-.99 0-.8.41-1.94-.19-2.32-.59-.37-1.4.56-2.11.9-3.8 1.84-7.82 2.78-11.99 2.39-4.73-.44-9-2.18-12.65-5.34-3.73-3.23-6.17-7.16-7.39-11.94-1.67-6.49-.35-12.4 3.26-17.86 3.41-5.16 8.31-8.3 14.36-9.51 2.76-.55 5.57-.4 8.4.07 2.96.49 5.59 1.63 8.34 3.16 0-1 .05-1.89-.02-2.76-.05-.68.22-.8.84-.8 2.77-.03 5.54-.06 8.3-.2 1.1-.05 1.3.36 1.3 1.34-.04 12.66-.04 25.32-.04 37.97 0 .49.04 3.91 0 4.82zm-22.88-33.77c-6.48-.56-12.99 5.7-12.39 13.44.42 5.51 5.66 11.35 12.37 11.36 6.15 0 13.2-5.15 12.58-13.52-.43-5.72-5.57-11.61-12.56-11.27z"/>
        <path d="m240.89 65.2c.04 3.59-2.73 6.01-6.29 6.05-3.06.04-5.89-2.84-5.85-6.07.04-3.25 2.71-5.98 5.92-6.03 3.3-.05 6.25 2.48 6.21 6.05z"/>
    </g>
</svg>