<?xml version="1.0" encoding="UTF-8"?>
<svg xmlns="http://www.w3.org/2000/svg" viewBox="0 0 649 120">
    <g fill="currentColor" fill-rule="evenodd">
        <path
            d="M384.32 77.32c-2.53 18.02-10.63 27.29-21.78 27.29-7.06 0-11.08-4.93-9.92-12.64l3.89-24.31c1.49-9.01 6.94-16.07 16.53-16.07 10.63.06 13.81 7.26 11.28 25.73Zm-36.62 35.71c1.49 0 5.12 6.29 16.79 6.29 24.89 0 39.15-18.02 43.1-41.29 4.93-28.65-9.01-41.74-26.57-41.74-8.23 0-13.81.78-18.34 3.18L369.42 0H348.1l-20.55 117.9h15.62s2.27-4.86 4.67-4.86h-.13Zm215.51-50.3c3.18-17.82-3.44-26.57-22.81-26.57-14.39 0-19.64 5.7-25.08 11.08l.78-9.33h-19.64l-1.94 14.84-11.08 65.07h21.26l6.74-42.26c2.4-14.58 12.44-25.67 21.91-25.67 10.5 0 9.92 6.03 8.23 15.17l-9.14 52.76h21.32l9.46-55.09Zm85.36-26.38h-22.36l-30.33 30.79h-.45L606.83.13h-20.42l-20.55 117.83h20.68l2.14-11.8 4.21-25.8c10.95 0 17.11 1.23 21.91 22.94l3.31 14.65h21.19s-5.25-22.3-8.69-30.98c-3.63-9.14-8.23-14.58-16.66-16.2l34.61-34.42ZM60.31 65.59c15.17-3.31 22.36-15.94 24.44-23.85 5.38-21.91-4.34-39.02-32.28-38.69l-31.95-.06L.42 117.9h21.45l8.23-46.15c4.34 0 6.16-.13 8.23.13 2.27.13 5.38.58 7.32 2.27 3.44 3.31 6.48 10.37 8.69 24.18l3.31 19.57h21.91c-2.53-11.86-4.21-23.01-6.29-32.02-2.27-9.46-5.38-16.07-13.22-20.29h.26Zm2.85-27.03c-1.81 10.18-9.01 16.66-18.73 16.66H32.12l6.35-36.3 11.21-.06c11.08-.26 15.1 9.53 13.48 19.7Zm95.02 21.06c2.98-17.44-6.29-23.4-25.08-23.4-20.87 0-33.64 11.08-33.64 11.08l7.19 12.12s9.72-8.88 24.89-8.88c4.93 0 6.29 3.31 5.57 8.88l-1.62 10.37c-30.14-.78-45.63 5.7-49.07 25.54-2.85 16.2 9.46 23.4 23.14 23.4 7.06 0 12.64-.45 19.51-6.48 1.36 3.89 3.63 5.7 6.29 6.16 4.34.91 11.99.13 14.26-1.49-.13-2.4 0-8.56 2.53-22.94l6.03-34.35Zm-24.82 21.13-2.07 11.73c-1.49 9.59-9.79 14.13-15.88 14.13-7.78 0-10.95-4.47-9.59-10.63 1.81-10.18 7.52-12.9 12.44-14.26 2.53-.84 10.76-.97 15.1-.97Zm64.56 38.56c24.89 0 39.15-18.02 43.1-41.29 4.93-28.65-9.01-41.74-26.57-41.74-8.23 0-13.81.78-18.47 3.18L202.71 0h-21.13l-20.55 117.9h15.62s2.27-4.86 4.47-4.86c1.49 0 5.06 6.29 16.79 6.29Zm8.69-67.67c10.63 0 13.81 7.19 11.28 25.67-2.53 18.02-10.63 27.29-21.91 27.29-7.06 0-11.08-4.93-9.72-12.64l3.89-24.31c1.49-9.01 6.87-16.07 16.33-16.07h.13v.06Zm70.71 68.25c-19.83-1.04-31.69-15.94-30.14-35.13 1.81-27.48 17.69-50.56 49.39-48.94 25.08 1.36 31.37 17.69 30.46 35.71-1.56 28.39-18.21 50.04-49.71 48.35Zm2.53-14.84c16.07.91 23.27-18.02 24.31-34.09.58-8.43 2.07-19.64-10.05-20.09-15.75-.91-23.85 19.19-24.89 34.48-.78 11.15 2.27 19.25 10.63 19.7Zm200.99-45.76c2.98-17.44-6.29-23.4-24.89-23.4-20.87 0-33.64 11.08-33.64 11.08l7.19 12.12s9.79-8.88 24.89-8.88c4.93 0 6.29 3.31 5.38 8.88l-1.62 10.37c-30.14-.78-45.63 5.7-49.07 25.54-2.85 16.2 9.46 23.4 23.14 23.4 7.06 0 12.64-.45 19.51-6.48 1.36 3.89 3.63 5.7 6.29 6.16 4.34.91 11.99.13 14.26-1.49-.13-2.4 0-8.56 2.53-22.94l6.03-34.35Zm-39.8 22.04c2.53-.78 10.82-.91 15.04-.91l-2.07 11.73c-1.49 9.59-9.79 14.13-15.75 14.13-7.78 0-10.95-4.47-9.72-10.63 1.81-10.18 7.52-12.9 12.44-14.26h.06v-.06Z" />
    </g>
</svg>