<?xml version="1.0" encoding="UTF-8"?>
<svg xmlns="http://www.w3.org/2000/svg" viewBox="0 0 463 120">
    <g fill="currentColor" fill-rule="evenodd">
        <path
            d="M98.45 81.13c-9.67 0-14.44-7.22-14.62-17.96s5.65-17.26 14.25-17.4c4.3.19 8.47 1.25 12.31 3.15l1.76-16.52c-5.6-1.62-11.43-2.45-17.26-2.45-10.04 0-17.96 3.7-23.23 9.67-5.28 5.97-7.91 14.44-8.1 23.6 0 9.67 2.64 18.14 8.1 24.3s13.37 9.67 23.74 9.67c7.03 0 13.88-.88 17.77-2.45l-.88-17.26c-4.12 1.57-8.7 3.66-13.84 3.66ZM37.92 45.77c-4.58-1.94-8.98-3.33-12.12-5.09-3.15-1.76-4.77-3.33-4.77-5.97-.32-3.01 1.02-5.97 3.52-7.73 2.31-1.25 4.91-1.9 7.54-1.94 5.46 0 11.43 1.76 18.28 4.4l1.94-17.59c-6.99-2.22-14.3-3.42-21.66-3.52-7.4-.19-14.72 1.9-20.92 5.97C4 18.65.11 25.55.11 35.22c0 14.62 10.04 20.41 19.16 24.11l12.12 5.28c6.66 3.33 5.65 11.11.69 13.37-2.68 1.43-5.74 2.22-8.79 2.27-5.97 0-12.12-1.76-20.04-6.16L1.12 93.43c7.5 2.27 15.23 3.52 23.05 3.7h.19c8.47 0 16.52-1.76 22.68-5.97s10.04-12.5 10.04-20.78c.05-14.07-10-20.92-19.16-24.62Zm387.3-6.85c-13.7-11.94-34.15-11.94-47.85 0-6.43 6.71-9.95 15.69-9.67 24.99-.14 8.7 3.01 17.12 8.79 23.6 5.78 5.97 14.25 9.67 24.81 9.67 9.26.37 18.23-3.15 24.81-9.67 5.78-6.48 8.93-14.9 8.79-23.6.28-9.3-3.19-18.33-9.67-24.99Zm-13.37 36.42c-3.7 5.83-11.43 7.54-17.22 3.89-1.62-.93-2.96-2.27-3.89-3.89-2.04-4.17-3.01-8.75-2.82-13.37 0-8.47 4.4-16.2 13.37-16.2s13.37 7.54 13.37 16.38c.23 4.54-.74 9.12-2.82 13.19ZM246.13 90.47c4.35 4.4 10.37 6.66 16.52 6.34 8.38.37 16.43-3.52 21.29-10.37 4.21-6.34 5.97-14.62 5.97-23.05s-1.76-16.71-5.97-22.86c-4.21-6.16-11.25-10.23-20.92-10.23-6.29-.19-12.4 2.22-16.89 6.66v-5.65h-18.84v88.67h13.19c3.1 0 5.65-2.5 5.65-5.65V90.45Zm21.43-14.95c-1.94 3.52-4.4 5.65-8.79 5.65-3.93.14-7.59-2.08-9.35-5.65-1.9-3.7-2.87-7.82-2.82-11.99-.19-4.21.88-8.33 3.01-11.99 1.94-3.33 5.46-5.46 9.35-5.65 3.84.05 7.27 2.31 8.79 5.78 1.71 3.7 2.55 7.73 2.45 11.8.05 4.17-.83 8.28-2.64 12.03Zm-59.1 20.22c3.1 0 5.65-2.5 5.65-5.65V31.33h-19.34v64.42h13.7Zm-8.28-87.1c-3.01.69-5.46 2.64-5.46 5.65v10.37h19.34V5.83l-13.88 2.82Zm248.84-5.83c-3.15.69-5.65 2.45-5.65 5.65v87.28h13.88c3.1 0 5.65-2.5 5.65-5.65V0l-13.88 2.82ZM162.36 61.09v34.66h13.74c3.1 0 5.65-2.5 5.65-5.65V55.44c0-7.03-1.57-13.37-5.28-18.14-3.7-4.77-9.49-7.54-17.08-7.54-6.53 0-12.82 2.45-17.59 6.85V.56l-13.74 2.82c-3.15.69-5.65 2.64-5.65 5.65V95.8h19.34V62.71c.09-3.7.93-7.36 2.45-10.74 1.62-3.89 5.46-6.34 9.67-6.16 4.4.19 5.97 1.76 7.22 4.77 1.02 3.38 1.43 6.94 1.25 10.51Zm177.71 0v34.66h13.88c3.05-.19 5.46-2.59 5.65-5.65V55.44c-.19-7.03-1.76-13.37-5.46-18.14-3.7-4.77-9.49-7.54-17.08-7.54-6.48 0-12.68 2.45-17.4 6.85V.56l-13.88 2.82c-3.15.69-5.65 2.64-5.65 5.65V95.8h19.53V62.71c0-3.7.88-7.4 2.45-10.74 1.67-3.75 5.41-6.16 9.49-6.16 4.4.19 5.97 1.76 7.22 4.77 1.06 3.38 1.48 6.94 1.25 10.51Z" />
    </g>
</svg>