<?xml version="1.0" encoding="UTF-8"?>
<svg xmlns="http://www.w3.org/2000/svg" viewBox="0 0 636 120">
    <g fill="currentColor" fill-style="evenodd">
        <path
            d="M635.13 83.34h-56.46c1.18 11.33 10.42 19.16 22.02 19.16 9.24 0 16.64-5.17 20.5-9.33l12.44 12.33c-7.91 9.33-20.84 14.5-33.44 14.5-24.36 0-42.68-16.67-42.68-42 0-22.5 15.46-42.17 39.66-42.17 22.52 0 38.48 18.83 38.48 41.34 0 2.17-.16 4.33-.5 6.17Zm-37.98-30c-9.08 0-16.47 6.83-17.48 14.17h33.61c-.67-7.17-7.23-14.17-16.13-14.17Zm-57.63 2.5c-9.58 0-17.15 6.83-19.84 11.67v50.83h-21.84V37.5h21v8.17c4.88-6 13.79-9.83 23.7-9.83 3.2 0 5.05.34 7.4.67l-2.52 20.17c-1.51-.5-4.71-.83-7.9-.83ZM436.02 120c-24.7 0-43.35-18.66-43.35-42s18.65-42.17 43.35-42.17S479.38 54.66 479.38 78s-18.65 42-43.36 42Zm0-64.16c-12.76 0-21.51 10-21.51 22.16s8.75 22 21.51 22 21.52-9.83 21.52-22-8.74-22.16-21.52-22.16Zm-81.97 18.83c0-7.33-1.52-11-4.04-13.84-3.36-3.66-8.07-5-12.27-5-9.41 0-16.8 6.5-19.66 10.67.34 2.67.67 5.67.67 9v42.83h-21.84V74.66c0-7.33-1.51-11-4.04-13.84-3.36-3.66-8.07-5-12.27-5-9.24 0-15.96 6.16-18.99 10v52.5h-21.84V37.5h21V44c6.39-5.66 14.12-8.17 22.02-8.17 11.09 0 21 5 27.39 12.67 6.56-6.83 16.8-12.67 28.91-12.67 11.26 0 22.01 5 28.56 13 5.22 6.33 8.24 14.67 8.24 26.67v42.83h-21.84V74.66ZM192.74 0h21.84v118.33h-21.84V0Zm-75.43 83.34c1.17 11.33 10.42 19.16 22.01 19.16 9.25 0 16.64-5.17 20.51-9.33l12.43 12.33c-7.9 9.33-20.84 14.5-33.44 14.5-24.37 0-42.68-16.67-42.68-42 0-22.5 15.46-42.17 39.66-42.17 22.52 0 38.48 18.83 38.48 41.34 0 2.17-.16 4.33-.5 6.17h-56.46Zm18.48-30c-9.07 0-16.47 6.83-17.48 14.17h33.61c-.67-7.17-7.22-14.17-16.13-14.17ZM42.89 120c-15.8 0-30.42-6.5-42.52-17.5l14.78-15.33C21.88 94.5 32.13 100 42.88 100c10.07 0 17.13-6.17 17.13-14.67 0-15-21.84-16.84-37.64-26C13.13 53.99 5.73 46 5.73 32.82 5.74 12 25.07 0 44.57 0c11.92 0 23.02 2.83 34.11 11L66.92 27.67C62.21 23.34 54.31 20 46.58 20c-8.57 0-18.15 3.67-18.15 12.67 0 18.83 54.28 13 54.28 52.33 0 20.66-18.65 35-39.82 35Z" />
    </g>
</svg>