<?xml version="1.0" encoding="UTF-8"?>
<svg xmlns="http://www.w3.org/2000/svg" viewBox="0 0 253 120">
    <g fill="currentColor" fill-style="evenodd">
        <path
            d="m85.9559439 0-34.0540561 58.3783759h19.4594558l5.1891922-8.9189159h21.7621674l2.2378328 8.9189159h19.459456l-14.594592-58.3783759zm.0648623 33.243244 5.7729694-9.891892 2.4648673 9.891892zm-14.6594626-13.7837882 3.2432483-19.4594558h-51.8918878l-3.2432483 19.4594558h16.2162244l-6.4864796 38.9189201h19.4594389l6.4864797-38.9189201h16.216216zm66.4864884 19.4594643 6.486479-38.9189201h-19.459455l-6.551351 39.3081021 4.767571 19.0702738h27.729723l3.243249-19.4594558zm82.702695-38.9189201h-24.324319l-15.859466 17.2864856 2.886498-17.2864856h-19.459456l-9.729745 58.3783759h19.459456l1.427021-8.6594584 6.713522-7.3297228 7.102697 15.9891812h22.054064l-14.918911-31.491887zm-126.4864793 61.6216157-3.2432399 19.4594642h-16.2162159l3.2432398-19.4594642h-19.4594558l-9.7297364 58.3783843h19.4594558l3.2432399-19.459456h16.216216l-3.2432314 19.459456h19.4594562l9.729736-58.3783843zm22.7027043 0-9.729728 58.3783763h19.459456l9.729728-58.3783763zm45.405399 38.9189203c-5.351347 0-9.016209-4.3783719-8.108103-9.7297282.908105-5.3513562 5.999995-9.7297279 11.351352-9.7297279 3.372972 0 6.064858 1.7189176 7.362154 4.3459406l18.000004-10.7999975c-3.924327-7.8486547-12-13.0054073-22.118918-13.0054073-16.118923 0-31.362154 13.0702696-34.054048 29.1891921-2.691894 16.1189142 8.205397 29.1891842 24.32432 29.1891842 10.118918 0 19.913508-5.156753 26.464859-13.005408l-14.399997-10.7999972c-2.17297 2.6270314-5.44865 4.3459492-8.821623 4.3459492zm90.810808-38.9189203h-24.324319l-15.859466 17.2864855 2.886489-17.2864855h-19.459455l-9.729728 58.3783763h19.459455l1.427021-8.659459 6.713523-7.329723 7.102696 15.989182h22.054056l-14.918911-31.4918874zm-201.0810712 19.4594642 3.2432482-19.4594642h-51.89189618l-3.24323982 19.4594642h16.216216l-6.48647966 38.9189121h19.45944736l6.4864881-38.9189121z" />
    </g>
</svg>