<?xml version="1.0" encoding="UTF-8"?>
<svg viewBox="0 0 109 120" xmlns="http://www.w3.org/2000/svg">
	<g fill="currentColor" fill-rule="evenodd">
		<path
			d="m8.48 102.04c3.36.03 6.71-.02 10.07-.02 2.81 0 5.67.38 8.41-.05 4.76-.73 7.03-2.84 7.19-8.05.15-5.03 0-10.07.02-15.11 0-.76-.2-1.03-.99-1.01-1.97.05-3.95.02-5.92.02-2.33 0-2.2 0-2.12 2.31.12 3.52.14 7.05.02 10.57-.07 2.13-1.3 2.96-2.47 3.03-3.14.2-6.28.21-9.42.01-1.4-.09-2.74-1.6-2.74-3.02 0-5.08 0-10.16 0-15.23h.02c0-4.99-.03-9.99.03-14.98.01-1.07-.31-1.33-1.34-1.29-2.22.08-4.45.05-6.67 0-.76-.02-1.02.19-1 .98.06 2.27.06 4.53.04 6.8-.1 9.3.22 18.6-.16 27.9-.14 3.41 3.49 7.1 7.02 7.13z" />
		<path
			d="m48.52 101.87c.37-.17.32-.64.32-.98 0-13.56-.02-27.11-.02-40.67 0-.75-.17-1.02-.97-1-2.35.05-4.7.04-7.05 0-.75-.01-1 .18-1 .97.03 13.56.04 27.11.02 40.67 0 .86.22 1.18 1.12 1.15 2.22-.06 4.45-.03 6.67-.03.3 0 .73-.03.9-.1z" />
		<path
			d="m4.86 29.06c2.27 2.2 5.4 2.92 8.35 1.72.34-.14.71-.21 1.06-.31 2.18 1.38 4.35 2.77 6.53 4.15-.47.67-1.21.81-1.77 1.22-.18 0-.33.11-.55-.04-3.09-1.99-6.09-1.61-9.15.19-1.67.98-2.59 2.52-3.68 3.98-.67.89-1.46 1.68-1.94 2.7-.77 1.64-.52 2.4 1.19 2.85 3.14.83 6.35 1.08 9.51.32 3.03-.72 6.04-3.84 5.71-7.1-.08-.75-.61-1.36-.49-2.13.43-.13.93-.16 1.29-.4 1.05-.7 1.89-.4 2.81.29 1.22.92 2.47 1.82 3.81 2.55.78.43.93.95.87 1.7-.23 2.59-.3 5.2-.77 7.76-.9 4.87-2.34 9.6-3.75 14.34-.6 2.03-1.56 3.92-1.34 6.23.42 4.47 5.88 7.98 10.33 5.51 3.08-1.71 4.73-5.02 3.82-8.05-1.02-3.36-2.26-6.65-3.19-10.03-1.28-4.69-2.33-9.44-2.33-14.35 0-2.1-.01-2.14 1.91-2.54.95-.2 1.84-.47 2.65.69.47.67.96 1.4 1.53 2.03-1.15 2.88-.66 5.38 1.59 7.58 1.29 1.26 2.85 1.93 4.48 2.49 1.33.46 2.67.83 4.11.8.62-.01.92-.22.93-.89.04-2.25-.23-4.4-1.01-6.57-.98-2.73-4.12-5.16-6.99-4.93-.7.06-1.39.19-2.08.29-.45-.41-.89-.84-1.36-1.23-.64-.52-.48-.86.22-1.04 1.45-.38 2.9-.73 4.36-1.09.1.08.23.13.29.23 1.57 2.53 3.95 3.24 6.76 3.1 2.7-.14 4.82-1.49 6.77-3.17 1.23-1.06 2.41-2.19 3.34-3.53.8-1.15.72-1.78-.44-2.41-3.57-1.9-7.33-3.15-11.4-2.21-3.01.7-5.42 3.02-5.61 6.24-2.97.41-5.95.82-8.92 1.22-.53.07-1.11.12-1.08-.62.02-.72-.2-1.39-.27-2.09-.08-.81.11-1.37.89-1.83 3.42-2.05 6.8-4.18 10.2-6.28 3.4 2.77 6.93 1.72 9.87-.75 2.13-1.78 3.63-4.13 4.54-6.83.53-1.54.21-2.14-1.4-2.49-2.61-.56-5.17-.45-7.8.02-3.83.68-7.96 4.96-5.95 9.07-1.31.92-2.72 1.65-4.21 2.25-.28-.86.16-1.74-.33-2.49.58-.56 1.42-.8 1.77-1.66.76-1.9-.01-4.86-1.64-6.15-.41-.33-.71-.32-1.08.03-.82.76-1.21 1.73-1.62 2.74-.84 2.06.06 4.24 2.08 5.02-.01.76-.07 1.51-.02 2.26.03.53-.14.92-.57 1.15-1.33.71-2.68 1.41-4.04 2.06-.51.24-.92.21-.95-.6-.13-3.45-.32-6.9-.49-10.35 4.03-.68 6.01-4.3 6.28-7.58.26-3.07-.88-5.8-2.21-8.49-.5-1.01-1.08-1.95-1.82-2.78-1.02-1.14-1.59-1.12-2.68-.07-.87.84-1.7 1.7-2.42 2.68-2.55 3.48-4.3 7.13-2.98 11.62.53 1.8 2.82 4.36 4.57 4.6v2.84c-2.8-1.72-5.43-3.33-8.05-4.94 1.39-2.13 1.14-5.42-1.73-7.72-2.75-2.2-6.16-2.45-9.54-2.52-.7-.02-1.18.48-1.09 1.35.38 3.79 1.9 7.04 4.92 9.35 2.31 1.78 5.01 1.41 6.93.05 2.45 1.69 4.89 3.4 7.35 5.08.67.45.96.94.97 1.8.01 3.09-.45 6.16-.29 9.26.02.46-.02.92 0 1.38.01.56-.17.8-.74.53-.79-.37-1.57-.73-2.37-1.08-.81-.36-1.2-.92-1.15-1.85.03-.64.21-1.34-.24-1.94 1.46-.63 2.23-1.72 2.28-3.32.08-2.45-1.3-4.07-3-5.56-.75-.66-1.26-.39-1.67.3-.72 1.21-1.23 2.52-1.36 3.92-.19 2.02 1.11 4.64 3.53 4.67-.57.82 0 1.84-.44 2.78-2.78-1.57-5.48-3.1-8.18-4.63 0-.76.5-1.37.56-2.14.14-1.93-.62-3.5-1.88-4.84-1.53-1.63-3.6-2.38-5.71-2.74-1.66-.28-3.41-.03-5.12-.02-2.09 0-2.88 1.09-2.06 2.98 1.01 2.33 2.18 4.55 4.06 6.37z" />
		<path
			d="m42.9 106.31c-1.02-.02-1.01.6-1 1.32.02 2.42 0 4.83 0 7.25-.61-1.01-.99-2.03-1.21-3.14-.32-1.57-.86-3.08-1.31-4.62-.29-1-1.12-.84-1.85-.78s-.61.68-.61 1.16v11.32c0 .61-.06 1.14.87 1.13.95-.01.98-.54.97-1.23-.01-2.18-.01-4.36 0-6.54 0-.28.05-.56.08-.85.85 2.49 1.56 4.96 2.11 7.46.26 1.18 1.01 1.1 1.87 1.13.97.03.94-.57.94-1.24 0-3.69 0-7.38 0-11.07 0-.62.14-1.29-.86-1.32z" />
		<path
			d="m104.17 66.52c-2.88-.3-4.4 1.68-4.46 3.73-.07 2.5 2.3 4.44 4.41 4.36 2.54-.1 4.4-1.74 4.4-4.1 0-2.68-1.43-3.99-4.35-3.99z" />
		<path
			d="m93.88 74.59c2.49 0 4.56-1.9 4.56-4.2 0-2.41-1.64-3.86-4.37-3.87-2.8 0-4.45 1.33-4.46 3.61-.01 2.47 1.88 4.45 4.26 4.45z" />
		<path
			d="m20.89 106.37c-.53 0-1.4-.43-1.59.88-.31 2.09-.78 4.16-1.18 6.23-.06.32-.06.81-.44.8-.37-.01-.42-.51-.47-.84-.32-2.15-.66-4.25-1-6.4-.17-1.08-.94-.61-1.52-.69-.37-.05-.67.24-.6.56.32 1.51.33 2.18.56 3.26.57 2.68 1.04 5.4 1.35 8.13.14 1.26.51 1.79 1.81 1.53 1.29.38 1.4-.36 1.57-1.46.53-3.61 1.31-7.18 1.79-10.81.06-.48.59-1.19-.27-1.19z" />
		<path
			d="m7.41 107.45c.02-.53.15-1.12-.74-1.1-1.76.04-3.52 0-5.28.01-.29 0-.56-.02-.7.36-.4 1.07.11 1.91 1.27 1.87.97-.04 1.21.33 1.16 1.24-.08 1.46-.02 2.93-.02 4.4 0 1.55.05 3.1-.01 4.65-.04.9.38.99 1.13 1.02.82.03.97-.3.96-1.03-.04-2.85.03-5.7-.04-8.54-.03-1.14.15-1.72 1.46-1.55 1 .13.8-.73.83-1.32z" />
		<path
			d="m95.39 77.74c-.99-.07-1.15.29-1.15 1.19-.01 4.02.18 8.05-.1 12.07-.11 1.66-1.19 2.69-2.88 2.73-3.02.06-6.04.03-9.06.1-.79.02-.99-.23-.98-1 .04-3.02.06-6.04-.02-9.06-.1-3.92-2.29-5.57-5.54-5.86-4.3-.39-8.64-.09-12.96-.13-1.62-.01-3.23-.02-4.84.34-2.17.48-3.97 2.49-4.01 4.66-.09 4.74-.04 9.48-.02 14.23 0 1.48.69 2.61 1.83 3.58 1.53 1.3 3.33 1.34 5.15 1.36 3.36.03 6.72.05 10.07-.01 1.02-.02 1.3.32 1.26 1.28-.06 1.55 0 3.11-.01 4.66-.02 1.88-.96 3.02-3.09 3.03-4.7.03-9.4.03-14.1 0-.83 0-1.19.14-1.15 1.09.08 1.97.07 3.95 0 5.92-.04.93.31 1.09 1.15 1.09 6.42-.04 12.84.02 19.26-.06 1.58-.02 3.07-.61 4.36-1.65 1.98-1.59 2.6-3.76 2.66-6.14.07-2.73.05-5.46 0-8.18-.02-.85.25-1.07 1.07-1.06 3.82.04 7.64.02 11.46.01 1.24 0 2.48-.07 3.7-.34 3.36-.74 5.09-3.22 5.51-5.71.36-2.11.25-4.25.25-6.38 0-3.57 0-7.13-.03-10.7 0-.48.04-1.09-.74-1.09l-7.05.06zm-23.3 13.95c-.05 1.44-.64 2.03-2.06 2.1-.96.05-1.93 0-2.89 0-.84 0-1.68-.04-2.51 0-1.23.07-1.74-.66-1.8-1.69-.09-1.5-.02-3.01-.05-4.52-.02-1.17.81-1.64 1.71-1.69 1.96-.11 3.93-.21 5.89.01 1.12.13 1.7.75 1.71 1.88.01 1.3.04 2.6 0 3.89z" />
		<path
			d="m35.21 114.06c-.48-2.33-.92-4.66-1.38-6.98-.26-1.33-1.31-.6-2.01-.73-.71-.13-.83.37-.93 1-.6 3.59-1.25 7.17-2.35 10.73-.14-.24-.32-.41-.35-.59-.35-3.03-1.33-5.93-1.8-8.93-.29-1.84-.72-2.21-2.52-2-.26.03-.7-.09-.7.33 0 .93-.46 1.74-.59 2.64-.43 3.08-1 6.14-1.75 9.16-.09.36-.66 1.01.25.93.57-.05 1.55.74 1.77-.6.31-1.95.34-1.93 2.36-1.9.56 0 .84.04.94.77.28 2.02.35 2.01 2.45 2.02.29 0 .59-.02.88.02.85.1 1.24-.22 1.19-1.13-.03-.56.04-1.45.43-1.56.81-.23 1.78-.22 2.59.02.3.09.71 1.05.35 1.75-.17.33.02.57.32.7.6.26 1.25.23 1.84.04.35-.11.12-.51.06-.78-.36-1.64-.73-3.27-1.07-4.92zm-9.96.78c-.09 0-1.26.24-1.55-.21-.04-.35.09-.47.05-.82.01-.18.02-.38.11-.48.3-1.17.39-2.32.72-3.76.04-.19.1-.06.16-.07.33 1.71.43 2.62.86 4.01.16.53.31 1.34-.35 1.33zm6.83.07c-.86.05-.69-.64-.62-1.04.21-1.26.52-2.5.8-3.75h.35c.2 1.23.39 2.47.59 3.7.14.88-.44 1.04-1.11 1.09z" />
		<path
			d="m13.8 116.83c-.46-3.16-1.4-6.23-1.92-9.37-.17-1.01-.61-1.27-1.22-1.16-.86.08-1.51-.18-1.7.8-.7 3.79-1.47 7.56-2.24 11.34-.12.58-.65 1.22.36 1.48 1.02.27 1.5-.13 1.69-1.28.14-.82.16-1.61 1.48-1.55 1.29.06 1.96.25 1.8 1.72-.1.94.59 1.15 1.41 1.13 1.02-.02.88-.75.8-1.34-.07-.6-.38-1.18-.46-1.78zm-2.98-1.95c-.49 0-.99 0-1.56 0 .48-1.7.4-3.4 1.06-5.02.92 1.37.72 2.94 1.17 4.34.13.43-.22.68-.67.68z" />
		<path
			d="m50.66 112.08c-.25-1.62-.76-3.19-1.07-4.8-.11-.57-.2-1.06-.86-.93-.67.13-1.62-.56-1.97.68-.29 1.04-.32 2.12-.57 3.15-.67 2.83-1.32 5.65-1.77 8.53-.13.82.16.95.64 1.13 1.39.52 1.37-.75 1.41-1.39.08-1.22.56-1.68 1.75-1.51 1.25-.3 1.58.41 1.56 1.5 0 .29-.03.6.04.88.22.91.98.57 1.56.61.45.03.78-.24.67-.69-.58-2.36-1.03-4.75-1.41-7.15zm-2.36 2.82c-.65.03-1.07-.16-1-.9.16-1.53.35-3.06.81-4.8.73 1.02.34 1.94.62 2.76.19.57.2 1.28.31 1.92.09.55-.04.99-.74 1.01z" />
	</g>
</svg>