<?xml version="1.0" encoding="UTF-8"?>
<svg viewBox="0 0 249 120" xmlns="http://www.w3.org/2000/svg">
	<g fill="currentColor" fill-rule="evenodd">
		<path
			d="m71.39 0c-22.67.05-45.34.03-68 .03-2.32 0-3.37 1.07-3.37 3.42v15.97c0 2.51-.01 5.02 0 7.54.01 1.68 1.07 2.8 2.74 2.97.38.04.76.06 1.1.08.06.13.1.19.1.24 0 7.69.01 15.37.03 23.06 0 .47-.19.6-.64.64-2.53.23-3.33 1.13-3.33 3.67v57.69c0 2.63 1 3.62 3.63 3.62h20.54c.77 0 1.55.09 2.32.19 4.93.69 9.89 1.16 14.84.66 6.94-.7 13.88-1.02 20.85-.87 2.42.05 4.84.01 7.27 0 .9 0 1.8.02 2.69-.03 1.51-.09 2.6-1.19 2.73-2.7.03-.3.02-.6.02-.9 0-19.23 0-38.46 0-57.69 0-.21 0-.42 0-.63-.07-1.79-1.19-2.99-2.98-3.03-.81-.02-1.05-.27-1.05-1.09.03-7.3.02-14.59.02-21.89v-.91c.23-.06.31-.1.4-.1 2.84-.22 3.61-1.04 3.61-3.87 0-7.51-.04-15.01.03-22.52.03-2.19-1.31-3.55-3.55-3.55zm-68.42 93.48c.01-.29.22-.7.47-.84 4.63-2.59 9.51-4.59 14.6-6.06.22-.06.46-.07.76-.12v17.69c-.57-.15-1.11-.26-1.64-.42-4.66-1.44-9.16-3.27-13.44-5.62-.58-.32-.82-.66-.79-1.32.05-1.1-.02-2.21.04-3.31zm5.21 22.47c-1.46 0-2.93-.02-4.39 0-.59.01-.87-.14-.84-.8.05-1.18.01-2.36.01-3.59 3.35 1.47 6.57 2.89 9.96 4.38-1.68 0-3.21 0-4.74 0zm63.7-.31c0 .11-.35.29-.55.29-3.04.02-6.08.01-9.32.01 3.39-1.49 6.58-2.88 9.89-4.34 0 1.34.01 2.68-.02 4.03zm.02-8.08c0 .24-.3.57-.54.7-4.66 2.55-9.53 4.56-14.64 6.01-8.35 2.37-16.86 3.14-25.48 2.39-9.77-.85-18.98-3.65-27.6-8.36-.25-.14-.58-.45-.59-.68-.05-2.08-.03-4.17-.03-6.33 22.98 11.25 45.86 11.26 68.9 0 0 2.16.02 4.22-.02 6.28zm-35.95-12.26c0 3.44-.03 6.88.02 10.31.01.9-.28 1.09-1.13 1.05-4.16-.2-8.27-.69-12.35-1.57-.52-.11-.68-.32-.68-.83.01-5.98.01-11.96 0-17.94 0-.56.2-.78.74-.89 4.17-.86 8.37-1.38 12.62-1.56.68-.03.79.25.79.83-.02 3.53 0 7.06 0 10.58zm18.02 8.67c0 .44 0 .8-.58.93-4.62 1.03-9.29 1.67-14.03 1.76-.11 0-.23-.04-.39-.07v-22.71c.77.04 1.51.03 2.24.13 3.96.52 7.92 1.08 11.89 1.6.66.09.89.37.88 1.05-.02 5.77-.02 11.54-.01 17.31zm17.96-6.95c-.02.34-.27.8-.55.96-4.28 2.43-8.81 4.28-13.5 5.72-.27.08-.57.11-.93.18v-17.25c1.04.31 2.01.57 2.96.89 3.96 1.36 7.8 3 11.45 5.06.29.16.55.62.57.95.07 1.16.07 2.33 0 3.49zm-.01-7.74c-22.99-11.24-45.86-11.26-68.91.01 0-2.26-.03-4.43.03-6.61 0-.28.39-.64.69-.81 3.71-2.09 7.61-3.76 11.65-5.08 4.38-1.44 8.86-2.46 13.45-3 4.92-.58 9.84-.68 14.77-.26 8.03.68 15.71 2.71 23.04 6.03 1.6.73 3.16 1.57 4.72 2.39.23.12.54.4.54.62.04 2.2.02 4.41.02 6.71zm-19.74-68.45h18.57q1.17 0 1.18 1.17v4.91c-.44.02-.79.05-1.14.05-7.83 0-15.67 0-23.5 0-1.73 0-2.17.45-2.12 2.2.31 13.15 9.61 24.43 22.43 27.19 1.4.3 2.82.45 4.28.68v21.68c-10.85-5.63-22.3-8.5-34.43-8.49-12.12 0-23.54 2.86-34.4 8.51v-21.58c2.08-.42 4.17-.66 6.15-1.26 10.48-3.19 17.18-10.11 19.94-20.72.51-1.98.66-4.06.83-6.11.13-1.62-.42-2.1-2.03-2.1-7.95 0-15.91-.02-23.86.02-.94 0-1.18-.28-1.13-1.16.07-1.31.07-2.63 0-3.95-.04-.83.22-1.07 1.05-1.06 6.34.03 12.68.02 19.02.02.42 0 .84 0 1.26-.01 1.07-.06 1.73-.67 1.72-1.56-.01-.9-.67-1.46-1.77-1.46-5.29 0-10.59 0-15.88 0-1.53 0-3.05-.03-4.57.01-.64.02-.83-.21-.82-.83.03-1.43.05-2.87 0-4.31-.03-.74.26-.9.94-.89 5.02.02 10.05.01 15.07 0 .38 0 .91.07 1.12-.15.41-.41.9-1.01.86-1.49s-.65-.97-1.12-1.31c-.27-.19-.75-.1-1.14-.1-4.84 0-9.69 0-14.53 0-.35 0-.7 0-1.17 0 0-1.84-.01-3.56.02-5.29 0-.15.27-.37.45-.41.28-.07.59-.03.89-.03h66.3q1.3 0 1.3 1.31v3.23c0 1.18 0 1.19-1.15 1.19-4.81 0-9.63 0-14.44 0-.3 0-.6-.01-.9.02-.96.1-1.5.68-1.48 1.58.02.89.59 1.45 1.58 1.45 2.75.02 5.5 0 8.25 0 2.39 0 4.78.02 7.18-.01.72-.01 1.01.16.98.94-.06 1.34-.06 2.69 0 4.04.04.81-.19 1.07-1.04 1.06-6.25-.04-12.5-.02-18.75-.02-1.52 0-2.2.45-2.22 1.46-.02 1.04.74 1.58 2.25 1.58zm15.79 31.58c0 .26-.03.53-.05.95-6.03-1.52-10.86-4.61-14.55-9.43-3.12-4.09-4.83-8.71-5.17-13.98h1.09c5.89 0 11.77.01 17.66-.01.74 0 1.05.13 1.04.97-.03 7.17-.02 14.34-.02 21.51zm-60.98.89v-23.27h19.88c-.25 10.55-8.71 21.2-19.88 23.27z" />
		<path
			d="m205.19 48.45c1.46.02 2.93.02 4.39 0 2.16-.03 3.29-1.19 3.29-3.36 0-2.54.03-5.08-.02-7.62-.01-.76.17-1.09.99-1.03.92.07 1.85.02 2.78.02q1.29 0 1.29 1.3v8.88c0 .78.19 1.43 1.01 1.71 1.06.37 1.95-.36 1.95-1.62.01-3.71 0-7.41 0-11.12 0-3.5 0-6.99 0-10.49-.01-3.88-2.55-6.95-6.36-7.48-1.61-.23-3.28-.11-4.92-.11-4.4 0-7.68 3.23-7.69 7.62-.02 6.66 0 13.33 0 19.99 0 2.08 1.19 3.28 3.28 3.31zm8.66-28c2.03.23 3.94 1.9 4.01 3.86.11 3.01.03 6.03.03 9.2-1.43 0-2.77 0-4.1 0-.26 0-.53-.03-.86-.05-.02-.34-.05-.63-.05-.92 0-3.73.02-7.47-.02-11.2 0-.79.27-.97.99-.89z" />
		<path
			d="m248.5 45.81c-2.85-3.95-5.68-7.91-8.57-11.83-.58-.79-.56-1.28.02-2.07 2.85-3.87 5.62-7.8 8.41-11.72.71-.99.67-1.81-.08-2.36-.78-.57-1.58-.34-2.34.68-.05.07-.11.14-.16.22-2.06 2.89-4.13 5.79-6.2 8.68-.18.25-.37.48-.72.91 0-2.71 0-5.13 0-7.55 0-2.11-1.16-3.24-3.29-3.25-1.46 0-2.93 0-4.39 0-2.05 0-3.24 1.17-3.24 3.22v24.49c0 2 1.16 3.18 3.16 3.22 1.52.03 3.05.03 4.57 0 2.06-.04 3.18-1.21 3.18-3.28 0-2.42 0-4.83 0-7.25l.21-.09c.19.25.39.5.58.76 2.16 2.97 4.31 5.95 6.47 8.93.69.95 1.52 1.18 2.27.65.77-.54.81-1.38.11-2.35z" />
		<path
			d="m119.24 48.05c1.83.43 3.79.37 5.69.38 4.86.03 7.96-3.11 7.97-7.95 0-6.94 0-13.87 0-20.81 0-.3.01-.6-.03-.89-.12-.79-.72-1.3-1.49-1.25-.79.05-1.26.5-1.38 1.28-.05.29-.02.6-.02.9v21.08c0 2.87-2.21 4.93-5.07 4.65 0-.41 0-.76 0-1.12 0-7.86 0-15.73 0-23.59 0-1.99-1.19-3.19-3.16-3.2-1.55 0-3.11-.01-4.66 0-1.85.02-3.09 1.18-3.09 3-.02 6.91-.04 13.81 0 20.72.02 3.19 2.16 6.08 5.26 6.81z" />
		<path
			d="m137.96 45.58c.11 1.58 1.14 2.75 2.71 2.82 1.85.09 3.71.09 5.55 0 1.55-.08 2.61-1.28 2.68-2.84.04-.81 0-1.61 0-2.42 0-2.18 0-4.35 0-6.62.43-.04.72-.08 1.02-.11 4.21-.43 6.93-3.43 6.95-7.66 0-1.31.02-2.63 0-3.94-.08-4.05-3.3-7.24-7.35-7.28-2.81-.02-5.62-.01-8.43 0-1.89 0-3.14 1.18-3.14 3.05-.02 8.28 0 16.55 0 24.83v.18zm11-24.97c1.92-.58 4.59 1.13 4.82 3.31.21 2 .2 4.06 0 6.07-.2 2.12-2.47 3.65-4.82 3.46z" />
		<path
			d="m109.19 17.51c-6.48.01-12.97 0-19.45 0-1.11 0-1.78.57-1.77 1.46 0 .89.66 1.43 1.79 1.45 1.11.02 2.21.05 3.32-.01.77-.04.95.26.94.98-.03 4-.01 8.01-.01 12.01v11.83c0 1.98 1.12 3.15 3.07 3.19 1.58.04 3.17.02 4.75 0 1.08 0 2.06-.37 2.57-1.35.33-.63.51-1.41.51-2.13.04-7.86.03-15.72 0-23.58 0-.73.19-1.01.95-.97 1.1.06 2.21.04 3.32 0 .4-.02.85-.11 1.17-.33.54-.37.72-.97.48-1.59-.27-.74-.87-.99-1.64-.99z" />
		<path
			d="m195.33 45.51c-2.09 0-4.18 0-6.41 0v-1.47c0-7.74 0-15.49 0-23.23 0-2.08-1.22-3.28-3.29-3.29-1.47 0-2.93 0-4.4 0-2.07 0-3.26 1.14-3.26 3.19-.01 8.19-.01 16.39 0 24.58 0 1.92 1.14 3.13 3.04 3.14 4.72.04 9.45.02 14.17 0 .34 0 .73-.08 1.02-.25.61-.36.82-.96.62-1.63-.22-.7-.75-1.05-1.5-1.05z" />
		<path
			d="m174.51 61.64c-3.04-.2-6.09-.1-9.14-.11-2.33-.01-3.44 1.12-3.44 3.48v11.93 12.19c0 1.94 1.13 3.28 2.91 3.31 3.02.05 6.04.1 9.05-.02 3.77-.15 6.92-3.32 6.96-7.02.07-5.65.07-11.3 0-16.95-.04-3.41-2.95-6.58-6.34-6.81zm-5.74 27.82c-1.22-.07-2.44-.02-3.78-.02v-24.93c1.52 0 3-.01 4.48.02.15 0 .34.26.42.43.07.18.02.41.02.62 0 7.59-.02 15.17.02 22.76 0 .95-.29 1.17-1.17 1.12zm9.18-4.78c0 2.8-1.97 4.83-4.59 4.8-.12 0-.23-.04-.41-.06v-24.87c2.3-.35 4.58 1.35 4.92 3.63.06.38.08.77.08 1.16 0 5.11.01 10.23 0 15.34z" />
		<path
			d="m220.88 68.91c-.05-4.11-3.24-7.31-7.35-7.38-1.37-.02-2.75-.02-4.13 0-4.17.05-7.42 3.19-7.47 7.36-.06 5.38-.05 10.76 0 16.14.03 3.48 2.28 6.41 5.7 7.12 1.84.38 3.8.29 5.71.28 4.35-.02 7.54-3.29 7.55-7.65 0-2.6 0-5.2 0-7.8 0-2.69.02-5.38 0-8.07zm-11.03 20.38c-2.3.61-4.86-1.55-4.9-4.17-.04-2.81-.01-5.62-.01-8.43 0-2.63-.03-5.26.01-7.89.04-2.57 2.44-4.63 4.9-4.19zm8.05-4.07c-.07 2.56-2.42 4.53-4.96 4.17v-24.84c2.56-.39 4.93 1.64 4.97 4.26.04 3.35.01 6.7.01 10.05 0 2.12.04 4.25-.02 6.37z" />
		<path
			d="m156.88 63.57c0-.24.01-.48-.01-.72-.08-.82-.69-1.35-1.51-1.32-.9.03-1.4.62-1.41 1.71v11.03c0 3.5.02 6.99 0 10.49-.02 2.9-2.26 5-5.03 4.61v-1.03c0-7.86 0-15.72 0-23.59 0-2.06-1.16-3.23-3.21-3.24-1.52-.01-3.05-.01-4.57 0-1.98.02-3.16 1.15-3.17 3.1-.02 6.82-.04 13.63 0 20.45.02 3.45 2.27 6.35 5.64 7.06 1.76.37 3.62.25 5.43.31 4.56.16 7.95-3.47 7.88-7.89-.11-6.99-.03-13.99-.03-20.98zm-11.07 25.8c-2.69.2-4.85-1.71-4.87-4.42-.05-6.57-.02-13.15-.03-19.72 0-.44.04-.75.61-.74 1.4.02 2.8 0 4.28 0v24.87z" />
		<path
			d="m101.99 64.45c1.73 0 3.47.01 5.2 0 1.09-.01 1.74-.62 1.72-1.52-.02-.87-.64-1.39-1.73-1.39-3.29-.01-6.58-.03-9.86 0-3.41.04-6.3 2.21-7.05 5.53-.34 1.51-.33 3.15-.2 4.71.22 2.74 1.7 4.77 4.2 5.91 1.11.51 2.38.67 3.67 1.01v10.8c-.37 0-.69 0-1.01 0-1.76 0-3.53-.01-5.29 0-.97 0-1.61.58-1.65 1.4-.04.88.6 1.54 1.61 1.54 3.41.01 6.82.06 10.22-.02 3.12-.08 5.89-2.16 6.7-5.17.39-1.44.4-3.01.39-4.52-.01-3.2-2.3-6.09-5.39-6.92-.82-.22-1.68-.3-2.54-.44v-10.91h1.03zm-4.08 10.95c-2.52.35-4.83-1.59-4.99-4.17-.05-.83-.05-1.68 0-2.51.15-2.59 2.46-4.54 4.99-4.18zm4.07 3.12c2.09.26 3.77 1.97 3.89 4.06.05.92.06 1.86 0 2.78-.17 2.47-2.39 4.3-4.93 3.98 0-2.05 0-4.04 0-6.04 0-1.29.05-2.57-.02-3.86-.04-.86.33-1.01 1.07-.92z" />
		<path
			d="m133.15 61.53c-4.99-.02-9.98-.02-14.97-.02-1.55 0-3.11 0-4.66.03-1.14.03-1.83.95-1.47 1.92.28.75.88 1 1.63 1h4.27v1.28 22.95c0 2.73 1.05 3.77 3.8 3.77h3.68c2.34 0 3.44-1.12 3.44-3.46 0-7.77 0-15.54 0-23.31 0-.38 0-.76 0-1.23h4.32c.67 0 1.24-.19 1.55-.85.5-1.09-.23-2.06-1.6-2.07zm-7.35 27.86h-4.78v-24.82h4.78z" />
		<path
			d="m165.54 48.44c1.22.03 2.45.02 3.68 0 2.35-.04 3.65-1.36 3.66-3.7.01-2.6 0-5.2 0-7.8 0-2.66.02-5.32 0-7.98-.02-2.08-1.38-3.41-3.44-3.43-1.26-.01-2.51 0-3.77 0-2.38 0-3.73 1.34-3.74 3.71-.01 5.17-.01 10.34 0 15.51 0 2.28 1.34 3.63 3.61 3.69z" />
		<path
			d="m196.88 64.63c0-1.9-1.16-3.07-3.07-3.09-1.61-.02-3.23-.03-4.84 0-1.83.03-3.02 1.22-3.03 3.06-.02 5.59-.02 11.18 0 16.77 0 1.81 1.22 3.03 3.04 3.08 1.61.04 3.23.04 4.84 0 1.88-.04 3.05-1.26 3.06-3.14.01-2.78 0-5.56 0-8.34s0-5.56 0-8.34zm-3.03 16.12c0 .24-.28.68-.44.68-1.45.05-2.91.03-4.4.03v-16.96c1.49 0 2.86.02 4.24 0 .73-.01.62.49.62.92v11.29c0 1.34.02 2.69-.02 4.03z" />
		<path
			d="m195.14 89.49c-1.25-.01-2.51 0-3.76 0s-2.51-.01-3.76 0c-1 .01-1.69.61-1.69 1.46 0 .86.66 1.49 1.66 1.49 2.53.02 5.07.02 7.6 0 1.04 0 1.66-.58 1.67-1.46.01-.92-.63-1.48-1.73-1.49z" />
		<path
			d="m163.51 20.42c2.6.03 5.2.03 7.8 0 1.01-.01 1.57-.58 1.56-1.45 0-.9-.6-1.43-1.67-1.44-1.25-.01-2.51 0-3.76 0-1.28 0-2.57-.01-3.85 0-.98.01-1.62.59-1.64 1.42s.61 1.47 1.57 1.48z" />
		<path
			d="m37.43 51.19s0-.01 0-.02c-2.09 0-4.19-.07-6.27.02-1.45.07-2.92.21-4.32.57-5.04 1.29-9.04 6.73-8.89 11.93.03 1 .61 1.64 1.51 1.64.87 0 1.56-.66 1.55-1.62-.07-4.94 4.2-9.64 9.92-9.51 4.33.09 8.67 0 13 .03.83 0 1.69.03 2.49.23 4.49 1.11 7.18 4.42 7.52 9.2.05.76.25 1.35 1.03 1.59 1.15.36 2.02-.42 2-1.79-.09-6.5-5.51-12.07-12.02-12.27-2.51-.08-5.02-.01-7.53-.01z" />
		<path
			d="m28.4 57.93c-2.48.03-4.56 2.16-4.51 4.62.05 2.45 2.13 4.48 4.58 4.46 2.52-.02 4.56-2.06 4.55-4.57 0-2.47-2.13-4.54-4.62-4.51z" />
		<path
			d="m46.51 57.94c-2.53-.03-4.54 1.96-4.55 4.51-.01 2.57 1.94 4.56 4.48 4.57 2.48 0 4.51-1.99 4.54-4.46.03-2.54-1.96-4.59-4.47-4.62z" />
		<path
			d="m21.52 38.73c-.01-2.45-2.1-4.51-4.54-4.48-2.49.03-4.46 2.07-4.42 4.56.04 2.51 2.06 4.47 4.56 4.41 2.45-.06 4.42-2.07 4.41-4.5z" />
		<path
			d="m57.89 34.25c-2.43 0-4.44 2-4.48 4.44-.05 2.46 1.98 4.53 4.45 4.54 2.5.01 4.5-1.97 4.52-4.46.01-2.47-2.02-4.52-4.49-4.52z" />
	</g>
</svg>