<?xml version="1.0" encoding="UTF-8"?>
<svg xmlns="http://www.w3.org/2000/svg" viewBox="0 0 500 120">
    <g fill="currentColor" fill-rule="evenodd">
        <path
            d="m371.58 39.87.05 1.55 1.1-.9c4-3.3 8.99-11.74 10.44-16.54l.55-1.75-.75.5-.8.45c-7.39 4.5-10.84 9.94-10.59 16.69ZM377.67 75.64l.55-1c1.35-2.5 2.4-10.64 2.25-17.04-.05-2.25-.3-4.15-.65-5.4l-.4-1.4-.5.6-.4.6c-3.1 4.6-4.65 9.29-4.55 13.59.1 3.2 1.1 6.24 3.05 9.09l.65.95ZM379.27 38.52l-.05-1.55-.6.5-.55.55c-1.9 1.8-7.99 8.29-7.49 16.34.1 1.25.35 2.55.85 3.95l.45 1.3.8-1.1c2.9-4.1 6.79-14.94 6.59-19.98ZM382.32 66.99c-.95 3-1.35 5.9-1.3 8.64.2 6.24 2.95 11.14 8.24 14.49l.9.55.2-1.2.05-.95c-.15-5.05-3.9-17.84-6.89-21.73l-.8-1.1-.2.65-.2.65ZM430.48 94.42c26.03 0 47.21-21.18 47.21-47.21S456.46 0 430.48 0s-47.21 21.18-47.21 47.21 21.18 47.21 47.21 47.21Zm36.82-73.59c-2.45 1.65-5 3.1-7.64 4.4-1.55-3.1-3.45-6.09-5.65-8.84 1.95-1.2 3.8-2.5 5.5-3.95 2.95 2.5 5.6 5.3 7.79 8.39ZM447.42 5.19c3.75 1.5 7.34 3.55 10.59 6.09-1.65 1.35-3.4 2.55-5.2 3.65-2.3-2.65-4.95-5.1-7.79-7.19.9-.8 1.65-1.65 2.4-2.55Zm3.7 10.69c-2.55 1.35-5.2 2.5-7.94 3.3-1.15-2.65-2.5-5.2-3.95-7.69 1.5-.65 2.95-1.5 4.3-2.5 2.75 2 5.3 4.35 7.59 6.89Zm-5.6-11.44c-.65.75-1.35 1.5-2.1 2.15-2.5-1.7-5.15-3.15-7.94-4.4 3.45.4 6.79 1.15 10.04 2.25Zm-3.7 3.4c-1.15.8-2.35 1.5-3.65 2-1.35-2.15-2.9-4.3-4.55-6.34 2.85 1.2 5.6 2.65 8.19 4.35Zm-10.39-4c1.75 2.1 3.35 4.35 4.9 6.69-1.6.5-3.25.8-4.9.85V3.85Zm5.94 8.39c1.45 2.4 2.75 4.9 3.85 7.49-3.2.85-6.49 1.3-9.79 1.35v-7.74c2.05-.1 4.05-.45 5.94-1.1Zm-7.89-8.29v7.44c-1.65-.1-3.25-.35-4.8-.85 1.4-2.3 3.05-4.5 4.8-6.59Zm-6.69 5.9c-1.3-.55-2.5-1.2-3.6-2 2.55-1.7 5.25-3.15 8.14-4.3-1.65 2-3.15 4.1-4.55 6.29Zm2.75-7.64c-2.8 1.25-5.45 2.7-7.94 4.4-.75-.65-1.45-1.4-2.1-2.15 3.2-1.15 6.59-1.9 10.04-2.25ZM413.5 5.05c.7.9 1.55 1.75 2.4 2.55-1.85 1.4-6 5.05-6 5.05l1.1.2c.35.1 1.15.35 1.15.35s3.6-3.1 5.3-4.3c1.35 1 2.75 1.85 4.3 2.5-.8 1.4-2.9 5.3-2.9 5.3s.5.25.9.55c.4.3.7.55.7.55s2.25-4.25 3.1-5.65c1.9.65 3.85 1 5.9 1.1v7.79c-1.15-.05-3.95-.15-5.15-.3l-.7-.05.4.6c.3.45.55.9.75 1.3l.1.15h.2c.85.1 3.45.15 4.4.2v14.14h1.95v-3.25c2.9-.15 5.3-.35 8.14-.6h.15l2.55-2.25-1.4.15c-3.05.4-5.75.6-8.19.7 0 0-.85.05-1.25.05v-8.84c3.55-.1 7.09-.55 10.59-1.5.95 2.35 2.75 7.99 2.75 7.99l1.85-.6s-1.8-5.65-2.7-7.94c2.95-.9 5.8-2.1 8.49-3.6 2.15 2.65 4.05 5.6 5.6 8.69-1.4.65-3.95 1.55-3.95 1.55 2.05.2 3.6.7 3.6.7s.7-.3 1.2-.5c.2.4.55 1.25.55 1.25l2.55 1.15-.3-.7s-.85-2-1.05-2.5c2.7-1.3 5.35-2.85 7.89-4.55 4.8 7.34 7.34 15.94 7.34 24.73-.05 14.69-7.04 27.73-17.94 36.02-6.24-3.45-6.39-8.24-6.04-9.99.3-1.8 1.55-1 2.35-1 4.15 0 8.44-1.25 13.84-6.69 6.04-6.14 7.94-19.83-1.35-28.78-9.99-9.64-20.63-7.94-27.48.7-1.4 1.75-4.85 3.1-7.79 2.95-4.4-.15-1.65 3.3-1.65 4 0 .75-.65 1.25-1.05 1.1-1.5-.4-.9 1.8-.9 2.45s-.6 1-.95 1c-1.85 0-1.35 1.65-1.3 2.1.05.45-.1 1.2-.7 1.55-.6.35-1.3 1.8-1.3 2.9 0 2 1.85 3.4 4.9 5.7 3.05 2.3 3.45 4.45 3.5 6.04.05 1.55.2 4.05.9 5.75.8 2 .7 5.7-3.55 5.85-5.2.2-14.39 4.35-15.19 4.65-2.9 1.05-6.74 1.4-9.79.65-1.65-1.15-3.2-2.4-4.65-3.75-.6-2.1.45-4.35 1.5-5.85 1.75 1.75 4.3 1.6 5.75 1.7 1.45.05 8.54-1.05 9.54-1.4 1-.35 1.45-.2 2.05 0 2.7 1 6.39 1.3 7.89-3.9s-2.05-3.75-2.5-3.5c-.45.2-1.05.15-.85-.3.65-1.3-.35-1.15-.9-1.25-1.45-.15-3.35 1.4-3.95 1.95-.6.55-1.25.5-1.45.4-1.95-.95-7.64.4-9.39-2.7.15-.85-1.45-13.44-2.3-15.64-.2-.45-.35-1.2.2-2.05 1.45-2.15 5.45.15 7.64.1 2.6-.05 3.05-1.15 3.75-2.05.7-.85 1.2-.4 1.55-.6.45-.3.05-.9.2-1.25.2-.35.35-.15.8-.55.45-.4-.05-1.25.15-1.55.65-.95 2.4-.2 1.35-2.75-.55-1.4.25-2.9 1-3.9 1.25-1.6 6.14-8.49-2.45-15.59-8.19-6.79-16.49-6.24-21.83-.45-5.35 5.8-2.65 14.24-2.1 16.49.55 2.25-1.05 4.25-2.9 5.15-1.45.7-4.8 2.9-7.29 5.1.4-18.18 11.44-34.17 28.38-40.97ZM380.97 86.73l1.35.45-.5-1.35c-1.85-5.05-11.39-16.84-17.54-20.73l-1.4-.9.2.85.15.8c1.4 6.74 7.79 17.74 17.74 20.88ZM395.86 99.82l1.05-.2-.6-.9c-2.35-3.5-17.64-12.14-23.08-13.04l-1.5-.25.4.7.4.65c4 6.64 10.69 15.24 23.33 13.04ZM370.83 67.64l1.1.75-.05-1.35c-.15-4.45-5.4-17.79-9.29-22.58l-1.1-1.35-.05.85-.05.9c-.35 4.8-.1 16.54 9.44 22.78ZM368.18 49.51l.45.6.6-3c.7-5.35-.2-16.49-2.15-21.43l-.65-1.7-.3.8-.3.85c-.45 1.2-1.25 3.7-1.7 6.99-.6 4.7-.45 11.29 3.6 16.29l.45.6ZM370.18 29.73l.3 1.4.9-.8c3.9-3.55 6.79-9.54 7.99-16.49l.35-1.95-.75.65-.75.65c-2.75 2.45-9.09 8.94-8.14 16.04l.1.5ZM481.74 50.81l-.4 1.4c-.4 1.3-.6 3.15-.65 5.45-.15 6.44.9 14.54 2.25 17.04l.5 1 .65-.95c1.95-2.85 2.95-5.9 3.05-9.09.1-4.35-1.45-9.04-4.55-13.59l-.4-.6-.45-.65ZM489.13 68.39l1.15-.75c9.54-6.24 9.79-18.03 9.44-22.78l-.05-.85-.05-.9-1.1 1.35c-3.9 4.8-9.14 18.13-9.29 22.58l-.1 1.35ZM489.23 59.55l.4-1.3c.5-1.4.75-2.7.85-3.95.55-8.04-5.6-14.54-7.44-16.34l-.55-.5-.6-.55-.05 1.55c-.2 5.05 3.65 15.89 6.59 19.98l.8 1.1ZM478.39 65.7l-.8 1.1c-2.95 3.9-6.74 16.69-6.89 21.73l.1.95.2 1.2.9-.55c5.3-3.4 8.04-8.24 8.24-14.49.05-2.75-.4-5.65-1.3-8.64l-.2-.65-.25-.65ZM492.43 50.06l.45-.6.45-.6c4.05-4.95 4.2-11.59 3.6-16.24-.4-3.3-1.25-5.8-1.65-6.99l-.3-.85-.3-.85-.65 1.7c-1.95 5-2.85 16.14-2.2 21.43l.6 3ZM494.68 23.93zM488.38 40.52l1.05.9.1-1.55c.4-6.74-2.95-12.24-10.24-16.89l-.8-.5-.75-.45.5 1.75c1.4 4.85 6.19 13.39 10.14 16.74ZM489.63 30.27l.9.8.3-1.4.1-.5c.95-7.09-5.35-13.59-8.09-16.04l-.75-.65-.7-.65.3 1.95c1.2 6.94 4.1 12.94 7.94 16.49ZM317.08 20.73v15.09h-12.09v9.29h12.09v61.15h13.34v-61.1h16.29v-9.29h-16.29V22.98c-.45-7.69 3.95-9.69 11.49-9.69 2.25 0 4.5.35 6.74.45V2.65c-3.25-.55-6.34-1.4-9.54-1.4-9.99 0-21.58 4.05-22.03 19.48ZM204.07 98.72c-12.74 0-17.64-11.09-17.64-27.63s4.9-27.63 17.64-27.63c9.54 0 13.74 6.14 14.44 14.99h13.29c-.65-15.29-11.89-24.68-26.73-24.68-22.28 0-32.67 17.24-32.67 37.87s8.94 36.72 31.52 36.72c15.59 0 27.33-9.64 28.48-25.48h-13.34c-.7 10.09-6.14 15.84-14.99 15.84ZM270.96 33.77c-22.28 0-32.67 17.24-32.67 37.87s8.99 36.72 31.57 36.72c16.79 0 29.18-7.99 31.27-23.98h-14.04c-1.5 10.24-6.69 14.29-17.09 14.29-13.59 0-18.63-12.74-17.64-25.08h49.56V67c0-19.48-9.94-32.77-30.97-33.22ZM288 64.34h-35.57c0-11.54 6.54-20.88 17.64-20.88 12.89 0 18.23 9.09 17.94 20.88ZM430.55 104.1c-8.46-3.52-22.18-5.83-39.78-1.09s-2 .55-2 .55l1.9.8c8.04 3.3 18.08 4.25 23.88 2.3 2.2-.75 3.55-1.95 5.15-3.55 2.76.28 5.48 1.11 8.08 2.31-2.37 1.32-9.68 5.7-14.62 12.13l-.35.45.4.45c.4.45 1.4 1.2 2 1.4l.45.15.3-.35c3.54-4.39 8.68-9.42 14.58-12.81 5.9 3.37 11.07 8.41 14.64 12.81l.3.35.45-.15c.65-.2 1.6-.95 2-1.4l.4-.45-.35-.45c-4.95-6.48-12.28-10.88-14.64-12.16 2.6-1.2 5.32-2.04 8.09-2.33 1.65 1.6 2.95 2.8 5.15 3.55 5.85 1.95 15.89 1 23.93-2.3l1.9-.75-2-.55c-17.66-4.75-31.36-2.47-39.85 1.09ZM464.75 98.77l-.6.9 1.05.2c12.59 2.2 19.33-6.39 23.33-13.04l.35-.65.45-.7-1.5.25c-5.4.9-20.73 9.49-23.08 13.04Z" />
        <path
            d="m452.11 97.92-.2.8.8.05c12.74 1.1 15.84-8.84 17.04-16.34l.1-.7.15-.7-1.25.65c-4.1 2.8-15.79 12.79-16.64 16.24ZM496.83 65.15c-6.14 3.9-15.69 15.69-17.54 20.73l-.5 1.35 1.35-.45c9.89-3.2 16.34-14.14 17.74-20.93l.15-.8.2-.8-1.4.9ZM147.72 4.6h15.94v14.54h-15.94zM392.31 81.63l-1.2-.65.1.75.1.7c1.2 7.54 4.25 17.44 17.04 16.34l.8-.1-.2-.8c-.85-3.45-12.59-13.39-16.64-16.24ZM47.7 35.72v36.42c0 1.7-.15 9.99-2.7 16.64-2.8 7.34-10.29 10.14-15.79 10.14-12.84 0-15.64-8.99-15.64-21.28V35.72H.19v47.41c0 14.24 8.44 25.53 23.28 25.53 9.89 0 18.93-3.65 24.28-12.54h.3v10.44h13.14V35.72H47.7ZM109.7 33.62c-7.04 0-16.94 3.65-21.43 12.54h-.25V35.72H74.88v70.84h13.39V68.04c0-13.79 3.7-16.89 5.65-18.88 5.65-5.6 12.99-5.2 12.99-5.2 11.29 0 16.24 6.34 16.24 18.03v44.56h13.39V57.59c0-22.73-21.88-23.98-26.83-23.98ZM148.97 35.67h13.39v70.79h-13.39z" />
    </g>
</svg>