<?xml version="1.0" encoding="UTF-8"?>
<svg viewBox="0 0 370 120" xmlns="http://www.w3.org/2000/svg">
	<g fill="currentColor" fill-rule="evenodd">
		<path d="m76.57 1.55-31.46 85.24-31.46-85.24h-13.32l44.78 118.45 44.78-118.45z" />
		<path
			d="m133.01 0c-23.59 0-43.13 19.46-43.13 43.48s19.53 43.25 43.13 43.25 43.13-19.13 43.13-43.25-19.54-43.48-43.13-43.48zm0 78.05c-18.77 0-33.91-15.78-33.91-34.68s14.92-34.69 33.91-34.69 33.91 15.68 33.91 34.69-15.14 34.68-33.91 34.68z" />
		<path
			d="m230.64 51.93h5.78l5.74-13.64h20.26l5.6 13.64h5.85l-21.32-50.38zm13.66-18.61 8.12-19.26 7.93 19.26z" />
		<path
			d="m219.5 17.11c0-10.85-8.37-13.27-17.37-13.27h-6.86v48.08h5.29v-21.11h1.32l14.35 21.11h6.49l-15.11-21.55c7.3-.64 11.9-5.87 11.9-13.26zm-18.94 8.99v-17.28h1.57c6.36 0 12.08.77 12.08 8.67 0 7.46-6.04 8.61-12.02 8.61z" />
		<path
			d="m361.8 9.65c-5.61-4.84-11.39-5.8-18.51-5.8h-8.93v48.08h8.81c7.43 0 13.09-.96 18.76-6.06 5.22-4.71 7.74-10.9 7.74-17.91s-2.45-13.58-7.86-18.31zm-3.34 32.33c-4.35 4.15-9.19 4.97-14.98 4.97h-3.84v-38.13h3.84c5.6 0 10.39.76 14.73 4.65 4.09 3.64 6.17 8.93 6.17 14.41s-2.02 10.4-5.92 14.1z" />
		<path
			d="m280.3 51.93h5.79l5.73-13.64h20.26l5.6 13.64h5.85l-21.32-50.38zm13.66-18.61 8.12-19.26 7.93 19.26z" />
	</g>
</svg>