<?xml version="1.0" encoding="UTF-8"?>
<svg viewBox="0 0 600 120" xmlns="http://www.w3.org/2000/svg">
    <g fill="currentColor" fill-rule="evenodd">
        <path d="m86.1673381 11.5409952-21.5514936 37.3397684s-21.551955-37.3397684-21.551955-37.3397684c-6.3669099-11.03074619-20.4918035-14.81719984-31.5225497-8.45029003-11.03074628 6.3669098-14.81766147 20.49134193-8.45075166 31.52254973l41.53837496 71.9666191c4.1219914 7.14137 11.7410525 11.541207 19.9868814 11.541207 8.2453675 0 15.8644285-4.399837 19.9864199-11.541207l41.5383746-71.9666191c6.36691-11.0312078 2.580457-25.15563993-8.450751-31.52254973-11.030746-6.36690981-25.1556401-2.58045616-31.5225499 8.45029003z"/>
        <path d="m185.938822 120c33.114855 0 59.999875-26.8850209 59.999875-59.999875 0-33.114854-26.88502-59.99987493-59.999875-59.99987493-33.114854 0-59.999874 26.88502093-59.999874 59.99987493 0 33.1148541 26.88502 59.999875 59.999874 59.999875zm0-46.15375c-7.641676 0-13.846125-6.2044486-13.846125-13.846125 0-7.6416763 6.204449-13.846125 13.846125-13.846125 7.642138 0 13.846125 6.2044487 13.846125 13.846125 0 7.6416764-6.203987 13.846125-13.846125 13.846125z"/>
        <path d="m353.97678 18.1155969c-10.8969-11.17613052-26.118869-18.11534683-42.961295-18.11534683-33.137008 0-59.999875 26.86286713-59.999875 59.99987493 0 33.1370079 26.862867 59.999875 59.999875 59.999875 16.842426 0 32.064395-6.939216 42.961295-18.115347 8.89152-9.1190578 8.706443-23.7414889-.412615-32.6330088-9.119057-8.8915199-23.741489-8.7064434-32.633008.4126145-2.514918 2.5795331-6.028142 4.1819913-9.915672 4.1819913-7.646753 0-13.846125-6.1989101-13.846125-13.846125 0-7.6472148 6.199372-13.846125 13.846125-13.846125 3.88753 0 7.400754 1.6024582 9.915672 4.1819913 8.891519 9.1190579 23.513951 9.3041345 32.633008.4126146 9.119058-8.89152 9.304135-23.513951.412615-32.633009z"/>
        <path d="m421.784485 120c33.114854 0 60.000798-26.8850209 60.000798-59.999875 0-33.114854-26.885944-59.99987493-60.000798-59.99987493s-59.999875 26.88502093-59.999875 59.99987493c0 33.1148541 26.885021 59.999875 59.999875 59.999875zm0-46.15375c-7.641677 0-13.846125-6.2044486-13.846125-13.846125 0-7.6416763 6.204448-13.846125 13.846125-13.846125 7.642138 0 13.846125 6.2044487 13.846125 13.846125 0 7.6416764-6.203987 13.846125-13.846125 13.846125z"/>
        <path d="m487.692963 23.5165088v71.3901589c0 12.7448963 10.333825 23.0768753 23.076875 23.0768753h64.61525c12.738435 0 23.076875-10.340286 23.076875-23.0768753 0-12.7365889-10.33844-23.076875-23.076875-23.076875h-41.538375v-48.3132839c0-12.7365889-10.33844-23.07687503-23.076875-23.07687503s-23.076875 10.34028613-23.076875 23.07687503z"/>
    </g>
</svg>