<?xml version="1.0" encoding="UTF-8"?>
<svg viewBox="0 0 15 15" xmlns="http://www.w3.org/2000/svg">
    <g fill="currentColor" fill-style="evenodd">
        <path d="m9.2843055 2.08859116.06924789.05785545 5.00000001 5c.1735663.17356635.1928515.44299075.0578554.63785889l-.0578554.06924789-5.00000001 5.00000001c-.19526215.1952621-.51184463.1952621-.70710678 0-.17356635-.1735664-.1928515-.4429908-.05785545-.6378589l.05785545-.0692479 4.14655339-4.1464466h-11.793c-.27614237 0-.5-.22385763-.5-.5 0-.24545989.17687516-.44960837.41012437-.49194433l.08987563-.00805567h11.793l-4.14655339-4.14644661c-.17356635-.17356635-.1928515-.44299075-.05785545-.63785889l.05785545-.06924789c.17356635-.17356635.44299075-.1928515.63785889-.05785545z" />
    </g>
</svg>