<?xml version="1.0" encoding="UTF-8"?>
<svg viewBox="0 0 15 15" xmlns="http://www.w3.org/2000/svg">
    <g fill="currentColor" fill-style="evenodd">
        <path d="m12.9114088 9.2843055-.0578554.06924789-5.00000001 5.00000001c-.17356635.1735663-.44299075.1928515-.63785889.0578554l-.06924789-.0578554-5-5.00000001c-.19526215-.19526215-.19526215-.51184463 0-.70710678.17356635-.17356635.44299075-.1928515.63785889-.05785545l.06924789.05785545 4.14644661 4.14655339v-11.793c0-.27614237.22385763-.5.5-.5.24545989 0 .44960837.17687516.49194433.41012437l.00805567.08987563v11.793l4.1464466-4.14655339c.1735664-.17356635.4429908-.1928515.6378589-.05785545l.0692479.05785545c.1735663.17356635.1928515.44299075.0578554.63785889z" />
    </g>
</svg>