<?xml version="1.0" encoding="UTF-8"?>
<svg viewBox="0 0 15 15" xmlns="http://www.w3.org/2000/svg">
    <g fill="currentColor" fill-style="evenodd">
        <path d="m2.2843055 1.58859116.06924789.05785545 5.14644661 5.14655339 5.1464466-5.14655339c.1952622-.19526215.5118446-.19526215.7071068 0 .1735663.17356635.1928515.44299075.0578554.63785889l-.0578554.06924789-5.1465534 5.14644661 5.1465534 5.1464466c.1952621.1952622.1952621.5118446 0 .7071068-.1735664.1735663-.4429908.1928515-.6378589.0578554l-.0692479-.0578554-5.1464466-5.1465534-5.14644661 5.1465534c-.19526215.1952621-.51184463.1952621-.70710678 0-.17356635-.1735664-.1928515-.4429908-.05785545-.6378589l.05785545-.0692479 5.14655339-5.1464466-5.14655339-5.14644661c-.19526215-.19526215-.19526215-.51184463 0-.70710678.17356635-.17356635.44299075-.1928515.63785889-.05785545z" />
    </g>
</svg>