<?xml version="1.0" encoding="UTF-8"?>
<svg viewBox="0 0 15 15" xmlns="http://www.w3.org/2000/svg">
    <g fill="currentColor" fill-style="evenodd">
        <path d="m13 1.5c.2761424 0 .5.22385763.5.5 0 .24545989-.1768752.44960837-.4101244.49194433l-.0898756.00805567h-11c-.27614237 0-.5-.22385763-.5-.5 0-.24545989.17687516-.44960837.41012437-.49194433l.08987563-.00805567zm0 5.5c.2761424 0 .5.22385763.5.5 0 .24545989-.1768752.44960837-.4101244.49194433l-.0898756.00805567h-11c-.27614237 0-.5-.22385763-.5-.5 0-.24545989.17687516-.44960837.41012437-.49194433l.08987563-.00805567zm0 5.5c.2761424 0 .5.2238576.5.5 0 .2454599-.1768752.4496084-.4101244.4919443l-.0898756.0080557h-11c-.27614237 0-.5-.2238576-.5-.5 0-.2454599.17687516-.4496084.41012437-.4919443l.08987563-.0080557z" />
    </g>
</svg>