<?xml version="1.0" encoding="UTF-8"?>
<svg viewBox="0 0 360 360" xmlns="http://www.w3.org/2000/svg">
    <g fill="#34b" fill-rule="evenodd">
        <path d="m254.881391 158.632611-.696654.476783c-1.596777 1.070783-1.545892 1.939258.152656 2.605425l.175346.065942c29.641957 11.123803 46.540285 33.604362 50.694985 67.441679 3.53514 28.7914-3.471635 51.721467-21.020324 68.790199-17.54869 17.068732-42.010453 27.529271-73.385291 31.381617l-113.917052 13.987255c-1.4661139.180016-2.776089-.186403-3.9299254-1.099256-1.1538363-.912854-1.8218663-2.111327-2.00409-3.59542l-36.9549633-300.9740235c-.1822237-1.4840928.1760261-2.8085774 1.0747492-3.9734536.8987232-1.1648763 2.0811417-1.8373225 3.5472557-2.0173387l110.3983788-13.5552164c69.4938-8.53276572 107.739394 15.6954335 114.736784 72.6845977 3.608029 29.3850375-6.015923 51.9787745-28.871855 67.7812105zm-132.080075-81.1142135c-1.497053.183815-2.156258 1.0031911-1.977614 2.4581282l8.360531 68.0910573c.178644 1.454938 1.016492 2.090499 2.513545 1.906684l52.546561-6.451907c14.072298-1.727861 24.607769-6.270572 31.606412-13.628133 6.998643-7.357562 9.819118-16.565103 8.461425-27.622626-1.393422-11.3485093-6.384419-19.8184536-14.972992-25.4098327s-19.919009-7.5231382-33.991307-5.7952772zm81.378926 194.7311555c13.750537-1.688353 24.077898-6.543739 30.982083-14.566158 6.904186-8.022419 9.599211-18.199445 8.085077-30.531079s-6.591152-21.554373-15.231052-27.668218-19.984581-8.308239-34.034042-6.583182l-55.599998 6.826821c-1.494624.183517-2.14961 1.027204-1.96496 2.531062l9.195596 74.892119c.184651 1.503858 1.024288 2.164028 2.518911 1.980512z"/>
    </g>
</svg>