<?xml version="1.0" encoding="UTF-8"?>
<svg viewBox="0 0 160 40" xmlns="http://www.w3.org/2000/svg">
    <g fill="currentColor" fill-style="evenodd">
        <path d="m46.3375854 3.28849292-.0634627-.29046165-.2941462.24753137-.1935514.14981569c-.5144493.3758693-1.0186843.53887986-1.5916403-.08084853-.0746722-.08065669-.2713248-.06193021-.4271674-.0264328l-.351618.09812832-1.4802904.44596771-.6872446.20971332.4725591.05871296 1.3379239.17636127c.8591172.10717351 1.6631369.17777786 2.4754598.11720621l.3273596-.02702143c.0317144-.00319846.0619232-.00655016.090674-.01014294l.1553872-.02515259c.2772989-.05890285.3582998-.17782635.3249938-.50859584l-.025799-.18374148c-.005761-.03380018-.0122208-.06924724-.019332-.10642904zm-11.017462 20.28465718c-1.8970875-.375399-3.8044936-.321579-5.7138934-.2166691l-1.5625121.0895651c-.1736244.0095138-.3472465.0185976-.52086.0269672 2.5693421 1.2082265 5.1716544.9925419 7.7972655.1001368zm-26.08369466 1.3082805c1.17056046.1156766 2.26290986-.0248577 3.32610226-.1895098l.9053114-.1416234c.6003061-.0911356 1.195668-.1684933 1.7952387-.1887672.4200843-.0141546.8396398-.0406019 1.259029-.0716058l1.2580307-.0989451c1.0485468-.0809517 2.0983183-.14203 3.1549758-.0623552 1.3506285.1017858 2.7060493.1686081 4.0612476.1196735l.8354631-.0447258c.2762715-.0211686.5956452-.0790235.6224934-.4159807.0259664-.3261691-.1666-.3987975-.3796287-.4162243l-.1428771-.0056164-.1358983-.0023198c-.0213436-.0008374-.041853-.0020817-.0612566-.0040047-3.4171502-.3396601-6.8239936-.3575165-10.1831855.5810565-.5961555.1665181-1.1731572.2241461-1.7867847.1236318-.5924522-.096924-1.2086017-.1615154-1.8006283-.09374l-.1668648.0171542-.508614.0423396c-.6844613.0609805-1.38903118.1810244-2.05215396.8515626zm22.85412486-20.52761644c-.0365379.01088045-.0738747.02597519-.1117055.04372388l-.1146694.05964756-.1735588.09884895-.1140738.05849814c-.2628703.12048601-.4976444.10341898-.5997195-.58639409-.0315286-.2131393-.4683824-.53089295-.8715976-.3189588-1.1744169.61699124-2.4280564.78032459-3.6888088.8765529l-1.0316491.07159982c-.5161499.03625185-1.0297418.09732006-1.5424252.16730746l-1.5369739.22082262c-.7687735.10789293-1.5392139.2000854-2.3168879.22292449 4.37108.63034577 8.724948.37105248 13.2454217-.15639157-.1169054-.05791967-.2406619-.08510135-.3619649-.10182289l-.3472446-.03906208c-.2677298-.04019782-.4619735-.14175643-.4373502-.62151739.7760434-.0753312 1.5458507-.00008833 2.3159679.09711891 1.6573896.20915686 3.3057236.14385727 4.9614796-.18027575-.4229433-.9509106-1.5772422-1.07758663-1.8828724-.87737764-.6287727.41227-1.1954037.34659962-1.7494735.21300717l-.6018409-.15296611c-.100271-.02341328-.2007228-.04414306-.3016534-.05972494-1.0845299-.16728526-1.9815618.10449619-2.7383998.96443936zm56.0382997 33.18338274c-.1905335.9213868-.5558596 1.059213-1.1688093.5112029-.1807832-.1617775-.3411149-.0808901-.4969693.0491924l-.1742897.1568946c-.9630795.8703181-1.7101846.8188625-2.4338026-.2079476l-.0985477-.1460702c-.2883929-.4455726-.5875671-.6974905-1.0728053-.4551954l-.0796165.0374479-.3314105.141617c-.2703695.1262237-.497353.3002903-.4644162.727092l.0178952.1358274c.0621242.3423072-.1301823.3936929-.3139972.3829163l-.1071665-.0120954c-.3387106-.0529001-.6738807-.1606353-.9989626-.28258l-.4255439-.1656092c-.2887486-.1051945-.5801824-.1750159-.8297785-.0597647-1.0452922.483103-2.1924751.2420984-3.2503215.585828l-.3144826.1219698c-.2553152.1164758-.5616461.1379722-.8439227.1364181l-.8626972-.0080823-1.7253373-.0231916c-1.15017-.0121946-2.3001909-.0093372-3.4498263.0596878l-.8621506.0649738c-.4332084.0397109-.8667611.0195965-1.2554708-.2367345-.4151657-.2740225-.8524096-.3102923-1.3285537-.2340438l-.2666574.0399941c-.2960737.033143-.5851493.0003389-.8043221-.3813875-.141997-.2470729-.387159-.2099175-.6241893-.1484614l-.174509.0465872c-.6161836.1565116-1.2306554.3238435-1.851854.4509254-.2474418.0507374-.5502686.0991762-.760778-.0084502-1.2885321-.6580115-2.6159413-.6592202-3.9470651-.568809l-1.2287605.0930146c-.4092557.0287028-.8178387.0496156-1.2247248.0462742l-.3048305-.0073109c-.2770438-.0112427-.5542277-.0157887-.8314154-.0175802l-1.2469102-.0027746c-.9691234-.008394-1.935789-.055485-2.8941536-.3102972-.1615932-.0429342-.3341859-.042992-.5078627-.0321379l-.3458616.0267866c-.170267.0112048-.3710575.1596844-.5015826.099464-.9401651-.432095-1.8535159-.2930047-2.7650057-.082979l-.7458553.17752c-.5805741.1345967-1.1631505.2426701-1.7541596.1953053-.5152004-.0412909-1.0315703-.0590207-1.5485565-.0681518l-1.5522536-.0165591c-.7764978-.0103435-1.553137-.0350047-2.3280501-.1244808-.9498195-.1094523-1.8670323-.3468669-2.7926169-.5694738l-.1281981-.0330356-.3848672-.1088917c-.4283263-.1154605-.8601451-.1782762-1.3071755.1536619-.2052352.152545-.4981646.0753029-.7465792-.0305059l-.0908106-.0406244c-1.2937378-.6036669-2.6186428-.5286491-3.9571445-.3188593l-.2870235.0468196c-1.0722626.1808657-2.1296119.2285363-3.0075367-.671688-.2221714-.2277347-.470458-.1856367-.7145431-.1028787l-.1818023.0661114c-1.2930684.4779735-2.5967706.3840707-3.9233203.1937907-1.2007071-.1720406-2.4095222-.1862204-3.6185431-.1678721l-2.9420393.058281-3.38745701.0817481c-2.25824886.0475146-4.51672817.0588383-6.77749021-.0993632-.99540342-.0695537-1.57623575-.6077236-2.14331347-1.3118581-.35362352-.4390083-.13206378-.7889935.14903735-1.0714648l.13208915-.1256558c.85229127-.7785697 1.84875898-1.2784149 2.89385821-1.6553061l.41626309-.1480191.82340548-.2831847 1.52043175-.510138-3.72010938-.0644409c-.6972083-.0101724-1.37145304-.1498016-2.0282832-.3975943-.55390707-.2088807-.82213657-.6323293-.84474386-1.2791751-.02072056-.6387022.37551072-.8660925.80698929-1.0849126 1.6446597-.8334723 3.39076334-1.0982275 5.16692849-1.1952214l.38104093-.0183627c.6849383-.0290394 1.35353581-.1513128 1.99632134-.4678842l-2.46540241.1355628-1.23165487.0837852c-.63729713.0497534-1.26325682.0431049-1.88668733-.1094502l-.18994829-.0499642c-.25016097-.0748049-.47478701-.1959987-.51642236-.5273259-.04438939-.3527383.14301277-.5462583.3715836-.6858937l.15638773-.0862633c.02638384-.013432.05275296-.0264878.07884588-.0393118.55813269-.2739521 1.1544914-.3725075 1.76453534-.3939661l1.46561079-.0589042 1.46517509-.0711219c.39074382-.0203913.79606312-.0250038 1.12189168-.4840109-.37606392-.2268429-.74178396-.2206826-1.09570195-.1818033l-.30043397.0366666-.64063744.0590561c-.32801098.0256818-.65517167.0380888-.98146432-.0028332l-.31197435-.0535791-.14459757-.0212603c-.19563481-.0312179-.38705106-.0893139-.38739879-.3590224-.00029647-.1821129.13993108-.2676942.297013-.3265612l.23280492-.076992c.63422804-.2202204 1.28358112-.2953946 1.93625685-.3388498l1.17585546-.0684417c.13048281-.0092381.26081527-.0199272.39090296-.0329741l.13565622-.0090829.42145833-.0049253c.29130385-.0076372.60790116-.0472548.97757315-.2584913-.1884253-.0294709-.36921603-.07285-.54443335-.1201608l-.51099284-.143751c-.49839485-.1355934-.96517914-.2167846-1.45600354.025789l-.16457485.0932187c-.19013746.1215967-.42609876.1176386-.56795441-.04595-.54536711-.6288899-1.22087841-.7937158-1.91534802-.8937206l-.57017732-.0754568c-.18996559-.02573-.37908584-.0547375-.56510529-.0951213-.3916784-.0850658-.7906105-.1899464-1.15218445-.3681871-.80224425-.3953532-.86019293-.9669252-.16035982-1.5564126.73625476-.6203149 1.6127125-.7312059 2.49107499-.768524l.52950473-.0155333.62609697-.0090604c.73849997-.0126127 1.51274862-.0478606 2.40214054-.2683622l-1.01389454-.2686124-.26747694-.0776148c-.19150895-.0582634-.41642429-.1316902-.38801233-.4160889.02531435-.2551116.23884524-.4014741.43105089-.3933633.3768242.015641.74844111-.0423773 1.11922011-.1119271l.55608624-.1052074c.46379181-.0819367.92968799-.1333541 1.40622253-.0329091l.1533092.0295658c.2597524.0415626.5430066.0254553.8845054-.3348399-2.3351412-.0667891-4.5242633-.1105672-6.75431215.0950021.60201738-.4250003 1.02985444-.9019018 1.38441596-1.633944-.82890222-.2279118-1.6603227-.2393691-2.53327409-.225565l-.7593248.0135593c-.38565773.0054135-.7809909.0054335-1.18907048-.0149903.91165353-.7567031 1.85361087-1.0923728 2.81540846-1.3684635l.87069217-.2421547c.19455201-.0545748.38977205-.111104.58557644-.1724791-.18670505-.0211792-.36999054-.0318539-.5510963-.0375505l-.8044472-.0106848c-.53206865-.009591-1.06125761-.0489866-1.6210426-.2674012.09239527-.0691635.18987992-.1276261.28658484-.1816145l.28190642-.1547689c.32734653-.1879768.56530285-.3995117.42454305-.9415496-.04045932-.1561274.30111905-.2487494.50298681-.260156.24887784-.0140508.49856144-.0126069.74776058-.0186313l.44156521-.0199131.22594665.0010615c.15004207-.0069081.28221754-.0466779.29639514-.225091.02894964-.3652209-.32055973-.5023605-.60530813-.5306495-.28060905-.0280269-.56991937.0674068-.85531276.0663659-.25845965-.0009462-.55996639-.0386162-.62265679-.3764847-.05898146-.3177564.16166911-.4694438.38456448-.5586082l.33901752-.1196977.53508186-.18089455c1.16558038-.38087861 2.36711809-.66325941 3.5153234-.32823449 1.49995071.43779834 2.93175551.30254398 4.37265901.07474649l.9999514-.16658573c.7483759-.1264792 1.4856117-.2203992 2.2435024-.15413058l.3261675.0385804c.6287068.0943431 1.2654595.08026925 1.9034517.04913593l1.0895966-.05515794.6471614-.02803449c1.6166016-.05943951 3.22136-.00977895 4.7674953.80709816.4738033.2503421 1.1537046.1707425 1.7016097-.24995255l.1340306-.11228636c.5234601-.4775397 1.1032955-.63341245 1.8010145-.59412094l.1932559.0154596c1.9669398.20115737 3.9426745.153917 5.8691057-.55522938l-.9465004-.01008978-1.8943721-.00223277c-.9471034-.00222755-1.893543-.01321531-2.8368898-.06488376l-.9422259-.06641093c-2.3398301-.20468275-4.6683498-.09911469-6.9950347.04929525l-1.7448178.11516205c-1.1631799.07655892-2.3264933.14711525-3.4911248.17824288-2.258785.06043818-4.5099346.10870599-6.78525039-.28168299-1.06389291-.18244522-2.2590134-.35470312-3.40856421-.21740998-.41594209.04966871-.853731.0747229-1.33664657-.10583988.14718608-.33317483.38533003-.45525062.6322113-.54331233l.31576105-.10841937c.10254371-.03918539.20022007-.08606293.2865569-.15457225.00788811-.12303326-.05588829-.19350154-.13907198-.24744211l-.19786709-.10867898c-.10362492-.06177495-.17633481-.13995652-.11606478-.30493.07709524-.21091454.26077587-.27987285.45374512-.33130828l.19246187-.05020312.09179638-.02936204c.17364754-.06345562.35084411-.11276113.53061044-.15591501l.82298929-.17966396c.37054446-.08539128.74549227-.19416707 1.11700921-.39031538-.17961052-.03413925-.34889096-.01786904-.51133148.01072781l-.31679528.06234542c-.20649576.03747556-.40496814.05172994-.60369015-.04750723-.04144979-.24441584.06922105-.31808125.19712155-.36562939l.11070236-.03773286c.01810493-.00634725.03577495-.01300484.05261679-.02039444.95939225-.42121128 1.9397368-.77146074 2.93708047-1.05903408l.799712-.2180524.1987624-.04710078c.3632196-.07411888.7180686-.06209759 1.0333453.34727365.127659.16579997.3246061.18592016.5261908.18346182l.2007362-.00542521.0970378.00019146c1.1859208.03561012 2.3453646-.14448048 3.489393-.63056329-.9769668.16711998-1.9304011.08278122-2.8845922-.04609193l-1.2291462-.1739449c-.4111291-.05530241-.8243092-.10249611-1.2414522-.12529257.0873921-.3068985.2359757-.36763965.386281-.37571081l.2193155.00320983c2.4446206-.0666684 4.8892072-.09679176 7.3334935-.04042033l1.5528059.04801124.0801214.0078875.3552114.00942876c.2384131.01034328.452973.05417021.4812956.28369322.0346469.28026979-.1148515.38041997-.3216151.43954912l-.1638274.03882883-.1734068.03648644c-.0871157.01983104-.1733631.04367386-.2520512.07886375l.7255719.02661063c.713083.02336821 1.3922605.02348646 2.0695801-.12134977l.1926706-.04373279c.2552452-.06550353.4912496-.17360331.5562714-.49018339.3066742-1.495578 1.2567389-1.96803296 2.5292877-2.11887618 3.5517184-.42104732 7.1133134-.54528623 10.6784502-.52521545 3.882899.02197514 7.7628944-.09597322 11.6424841-.23321587l4.6554728-.16623217c1.5518659-.05335096 3.1038268-.10206874 4.6560425-.13843306 2.3634794-.05540692 4.7264344-.00941175 7.0890577.05789466l2.8350012.08587127c2.9339828.08895684 5.8668021.04083925 8.7993592-.03572544l3.5190002-.09858008c1.7594948-.0491652 3.519025-.09292901 5.2787852-.10782794 6.013863-.05103713 12.015695.50234195 18.0301735.42575998 7.020803-.08918223 14.041578.35111021 21.055976.14331293 8.893556-.26341234 17.780465-.19277032 26.668977-.03952446l2.66661.04820043c.661601.01238601 1.32363.020047 1.970665.20538747.841344.2408804 1.16306.63561764.99154 1.47206863l-.037934.16208117c-.215662.82592717.058399 1.19379363.67604 1.37958569l.203486.05582098.442888.14103417c.555755.18261911 1.073176.43385915 1.030523 1.25881091-.046643.90227256-.694993 1.19493629-1.356953 1.37027976l-.247725.06121592c-.90116.21113253-1.824416.27251814-2.745886.25083196-.622464-.01462175-1.198398.16670872-1.767052.38538467l-.486551.19288307c-.163956.06545589-.327691.13810909-.317045.3806016.013536.30482338 1.276815 1.49558334 1.545311 1.40565207.395133-.13217852.670005.02090334.918767.23334162l.183147.16692829c.120796.11399874.240949.22871759.372229.31591856l.10073.0597999c.297229.1549615.04245.3600396-.149784.4431713l-.431845.1809255-1.000826.4019279c.48844.1772735.961482.2394431 1.419551.2798984l.67593.0560712c.332404.0315665.656507.0771846.972489.1762533.495783.1554226.997007.2957968 1.482195.4847287.412809.1609683.656595.4904726.638667 1.0067601-.015628.4500095-.021508.8964511.215185 1.2837215l.100586.1423441c.09737.120214.111799.2938674-.004705.4307666-.153342.1803589-.334817.1209468-.458002-.0141078l-.33007-.3761025-.655033-.7857268c-.103725.190002-.092097.3535194-.054724.5072194l.075718.269657c.007202.0295838.013282.0591749.017524.0889066.038794.2721396.033529.5260891-.254556.610565l-.153036.0484602-.139432.0556052c-.259398.1208851-.384423.3074089-.058614.6961863l.063946.0746451.132669.1415166c.294646.290085.63734.4497041 1.052986.0305026.104211-.1051234.169409-.2605294.280474-.3526599.147851-.1225293.326535-.1411582.464667.028044.174313.2135666-.231024 1.643616-.486321 1.6395073-.334938-.0055464-.435273.130418-.522477.4190423l-.028886.1018775c-.130142.482974-.356687.7078187-1.039506 1.0528297l-.348855.1691459c-.06398.0300723-.130986.0611999-.201184.0935552.404115.1744452.659785.4458536.593417.8978738-.043499.2972642-.216053.4118045-.417124.4938836l-.266321.0994718-.087551.0374739c-.24916.1166892-.510796.1974769-.777136.2660366l-.805365.1926681c-.669952.1694419-1.320751.4104161-1.830999 1.0928173.353838.1118745.721574.17564 1.096848.2261088l.854406.1058035c.76601.100212 1.543095.2516751 2.28038.7328893l-.080012.0459408-.231923.1216498-.13623.0800432c-.187502.1256411-.288747.2875539-.162504.6366482.10352.2867177-.128448.4001912-.356676.4673253l-.133773.035735c-1.120977.2818535-2.22139.4232285-3.403257.313105-1.248923-.1164133-2.567601-.1233114-3.799125.4000402-.217084.0923493-.435193.2039894-.527968.4562114-.07774.2115973.003571.4613895.217802.3144714.490294-.3359102.941541-.2356077 1.386761-.0814297l.266674.0959132.266812.0904912c.133705.0408313.268056.0727473.403945.0854249 2.031368.1897959 4.061224.4070139 6.085436.6708901.59038.077011 1.171114.312108 1.734903.5385781.562745.2263881.756677.667755.333545 1.1190649l-.086611.0846871c-.598482.5397789-.670103 1.1155097-.385287 1.8372098.165393.4193695.004508.7260489-.329633.95737-.544049.3764494-1.093459.7401484-1.697653.981628l-.363366.1299299-.172991.0708736c-.210941.0830282-.409725.1146837-.482504-.3251304-.0211-.1274393-.081542-.1331158-.147777-.1114604l-.118234.0481014-1.40166.4772006c.074158.2440821.213069.4281581.359479.6016704l.218084.258526c.069798.0876546.134315.1788486.186393.2797622l.257048.4907853c.083561.1647882.161726.3320845.224671.5058335.105615.2920549.171004.6634772-.179968.8199178-.275161.1224749-.355275.0059111-.397636-.1654178l-.027148-.1358858c-.020821-.1169965-.042255-.2373901-.102702-.3161922l-.34432.2599791-.263193.2188754c-.106139.0910221-.202881.196052-.156845.3567259.036838.1284257.133015.1721174.241392.1948103l.260228.0407896.202847.0121046c.181958.0127054.349765.0537675.355018.3085329.006421.3060062-.242575.4105967-.480091.4869456l-.153713.0486157c-1.844684.608001-3.743207.8849278-5.645481 1.1289139l-1.557286.1992835c-1.128391.1394106-2.25718.2267528-3.385563-.0789076l-.307731-.0933619c-.373439-.1258236-.719129-.0660824-1.051193.2680081l-.099224.1085463c-.388736.4600712-.882294.5423143-1.492541.3595287l-.155-.0511525c-.493162-.1771462-1.161582-.3240558-1.744198.037491-1.063025.6596718-1.493199.6995112-2.244202-.0286833l-.235879-.2416475c-.041236-.0441642-.083511-.0902855-.126947-.1383824-.278396-.3084061-.551776-.2767708-.844576-.1612115l-.178206.0773575c-.057968.0266788-.115129.0591107-.171834.094962l-.169101.1154787-.253138.1810593c-.339741.2301838-.694709.3734495-1.140815-.0742476-.028058-.0282573-.114995.0022696-.199338.0425175l-.116885.0615297c-1.246117.707853-2.281043.5177769-3.094665-1.0440603-.206138.9549975-.601722 1.324375-1.364315.9325582-.117352-.0603133-.322857.0251079-.485752.1144371l-.077291.0443337c-.476443.2852317-.914976.241546-1.34015-.0419613l-.115644-.0831992c-.342641-.2644185-.743499-.4973005-1.123139-.2508778-.690447.4481999-1.223619.1986683-1.751795-.2022386l-.484728-.386648c-.805775-.6328129-1.073925-.6710655-1.692468-.0355508l-.208013.223178-.28249.3220395-.093147.1105313c-.096767.1062288-.207355.1862735-.35839.1206446-.224502-.0972715-.054696-.4106089-.188487-.5812492l-.166987.2553265c-.498142.7354642-.728021.7786183-1.343291.1822162l-.207869-.2095355c-.479256-.4975304-.886125-.6623638-1.444137-.2387234l-.113684.0926502c-1.347026 1.1702457-2.716047 1.1590552-4.07314-.0382756l-.20684-.1815761-.140315-.1130442c-.353605-.265818-.729542-.3793336-1.154626.2525119-.17491.2599086-.423235.1282753-.645954-.0364428l-.347176-.2702594c-.140652-.102537-.286027-.1600364-.437548.0473901-.127927.175095-.070573.2635234.024005.3326106l.130455.0834686c.028367.0185357.054594.0378479.075226.059507.42971.4509339.260127.6210387-.000872.7096169l-.115973.0335517-.22999.0511001c-2.645665.5950392-5.302157.72894-7.965596.1579507l-.505431-.1205479-1.054756-.2713048-.548638-.1349367c-.9140022-.2129013-1.8303165-.3490628-2.8133145-.1568778l-.2969643.0677576c-.7186548.1878172-1.4678024.2348169-2.2230531.2523405l-.9076693.0140056c-.3024923.0047029-.6044001.0118154-.9041626.0284634-.6848775.0382129-1.294186-.2082314-1.8448892-.6063665l-.1634697-.1238582c-.41255-.3268498-.7440537-.4659759-1.2418645-.2027081l-.1280605.0743243c-.8799983.5541395-1.6285452.138907-1.879578-.9180194z" />
    </g>
</svg>