<?xml version="1.0" encoding="UTF-8"?>
<svg viewBox="0 0 160 40" xmlns="http://www.w3.org/2000/svg">
    <g fill="currentColor" fill-style="evenodd">
        <path d="m9.98177904 4.75015906-5.01742255-1.19868949c10.26510791-2.44014266 20.56961361-2.7456365 30.90376511-2.24711354 4.6659715.22576033 9.3270032.12921297 13.9870285-.03288755l6.213116-.23243946c1.035535-.03770068 2.0711067-.07300333 3.1067582-.10309035 1.4675472-.0428238 2.9362943-.03980755 4.4052896-.02311917l2.9380395.04207506c2.448172.03436842 4.8952708.04714476 7.3368898-.11059652.7687719-.04979616 1.5372863-.14497163 2.3061448-.25372072l1.538354-.22617242c1.282641-.18785229 2.5673518-.35450961 3.856917-.35272335l4.246293.00179939 12.7389013-.01348094c8.4926137-.00205692 16.9852547.03363341 25.4779387.25276971 2.453522.06316306 4.906635.10218936 7.359566.13401211l7.358473.0907908c1.226396.01717442 2.452803.03678126 3.67925.06093717 3.754729.07396038 7.362907 1.42971063 11.337734 3.2632234l1.045566.48861673c-.844861.72775762-1.615226.84503691-2.400461.87598782l-.793501.02158774c-.469628.01845523-.954453.06698701-1.472211.24963669.322806.06060979.627384.12979831.917042.20048715l1.086909.27397852c.596766.14491357 1.136331.24661143 1.660738.21517149l.22394-.02188772c1.37417-.18779544 2.260883.83195067 3.043714 2.08409337l.232116.38163956.681965 1.17007275.230198.37890601c.038742.0620377.077704.1234374.116934.1840773l.154732.2360794.07787.1403667c.013347.0262034.026798.0537386.040233.0824965l.079452.1863463c.27066.6974548.428005 1.837885-.64257 2.4109845-.357083.1915476-.556722.6566161-.711425 1.2071573l-.088329.3390771-.165906.7035894-.088378.3464596c-.247695.907115-.61077 1.647918-1.550055 1.4521641.19562 1.3643549.75324 1.9977833 1.275995 2.1853162l.091808.0285234c1.053766.2778298 1.188068 1.3630215 1.139422 2.3590995l-.019346.2952535-.079707.7998911c-.130534 1.3263352-.91357 2.4255654-1.939801 2.4599819-.549838.0185019-1.099761.0320342-1.654849.0430477l-3.433171.0554611 1.014999.2657214 1.988937.5293707c1.311295.3472767 2.598047.6769911 3.888951.9514145.986467.2104711 1.338408 1.0337039 1.455162 2.4662942l.049654.6443415.092071 1.2961655c.09404 1.2971243.207577 2.5890667.462897 3.8032988.733129 3.4878374-.334364 4.3207237-2.156212 4.3194295-3.146088-.0016975-6.291853.0436136-9.438215-.0301169l-14.245247-.3307118c-7.122701-.1691156-14.245498-.3518788-21.368285-.5843257-10.94369-.3573883-21.8808283-.206179-32.8166267.0300651l-13.1226481.2972016c-8.748448.1892015-17.4973721.3243931-26.2494404.1887108l-6.7543836-.1112403c-8.4417913-.1301699-16.8787561-.1635642-25.30671871.6138978-.46640885.0432861-.93686297-.0130707-1.4085526-.0866565l-.70810985-.1129986c-.23611135-.0351056-.47218035-.0642167-.70785579-.0770316-5.0316245-.27452-6.89401146-5.6067481-4.35235919-12.6854916l.12043865-.3279393c.69751196-1.8575006.71538415-3.3971615.44472531-5.4161738-.13553873-1.0125776-.0369026-2.021462.09558997-3.0374933l.11718428-.8728871c.17419703-1.3127144.30974979-2.6423629-.01909135-4.0119844l-.17266669-.6765061-.07558033-.3210373c-.13749102-.6425225-.1799621-1.3115845.10662226-2.43649759.81291526-3.19053236 2.13328665-4.13335787 3.6909165-4.48375051l.29477001-.05916017.29993495-.04769974.3047041-.03866403.46513251-.04635816c.05217858-.00462762.10451465-.00913133.15699996-.01356164 1.00319011-.08480706 2.01221948-.04763385 3.01842535-.06576529z" />
    </g>
</svg>