<?xml version="1.0" encoding="UTF-8"?>
<svg viewBox="0 0 160 40" xmlns="http://www.w3.org/2000/svg">
    <g fill="currentColor" fill-style="evenodd">
        <path d="m147.865132 37.9852459c-24.312997-1.446597-48.6691328-1.9370803-73.0569034-1.5204253 24.3302523 1.0072818 48.6700914 1.7404484 73.0569034 1.5204253m1.317169-8.5662811c.975277-.0102336 2.080111-1.2569058 0-1.3508394-27.712188-1.2514277-60.0965108-1.7229507-87.8241162-1.4679743-17.0771912.1571593-34.1524652.4239647-51.2267806.7119684-2.97657338.0497062-5.4441096-.1790886-6.18130283-2.8222896-1.84633829-6.6182361-4.75929984-12.1478733-3.75081184-19.1301344.49082305-3.39683492 2.62667026-5.18333471 6.92616519-5.19429932 13.71045188-.03362479 27.42090368.09721951 41.13135558.10818412 9.6688307.00730973 19.4028489-.63083033 28.991154.01754336 12.4421728.84208174 24.8191577-.26826735 37.2383237.25803373 12.407662.52557011 24.871883.2865417 37.31118.33990279 6.73923.02923895 8.876995 1.44440408 8.024765 6.55098655-.964391 5.77980927-.504244 11.68242217-2.531765 17.35624027-1.236644 3.4589676-.424677 7.0056522-.998902 10.4923969-.820594 4.9845098-.747738 4.8324673-7.109265 4.6416831-13.076791-.3918019-26.165087-.5855099-39.24763-.8822853-16.4339448-.3727966-33.0615344-1.9085724-49.2586953-.2521859-17.2296148 1.7623777-34.2186113-1.1227756-51.23157376.4758639-3.33798024.3135877-2.92193101-1.2777421-3.59297816-2.7221462-3.07627185-6.6248149-1.88564248-7.8279976 7.13994162-7.8879375 16.9199745-.111108 33.8418663-.7295117 50.7551303-.5935506 25.0597764.2017487 50.1128423.8866711 75.1687843 1.3406058 2.652873.0482443 6.075213.0516555 10.267021.0102336z" />
    </g>
</svg>