<?xml version="1.0" encoding="UTF-8"?>
<svg viewBox="0 0 160 40" xmlns="http://www.w3.org/2000/svg">
    <g fill="currentColor" fill-style="evenodd">
        <path d="m143.307558.14921944c4.698379.18354269 9.569037.3437598 14.436793.58200819 1.471762.07252234 2.156763 1.36537536 2.213225 3.82763432.05662 2.48706104.106523 4.92051092-.200518 7.40914475-.33206 2.692786-.921302 5.6497829-.246006 8.1196861.688672 2.5192661-1.308212 3.9470446-.526227 6.4338893.776984 2.4678645.122667 5.3441745-.10473 8.0590827-.30461 3.635351-1.391502 4.8680015-3.744969 4.9804413-23.067637 1.0968084-46.084947-.1652869-69.122852-.5137442-18.6882869-.282231-37.3936347.2508819-56.0910582.3808075-7.9144732.0552448-15.8316317.1517112-23.74058497-.0445442-5.81185708-.1451392-7.17106764-3.0317314-5.54100769-12.0921906.69154573-3.8449012.55730258-7.4891308.11087536-11.0335986-.59021525-4.6876905-.0445838-9.15969194.37511873-13.7192658.14867997-1.61193605.89703515-1.07926969 1.44802266-1.0337008 9.57900511.80099475 19.15827171.14505309 28.75087111-.83346575 5.7353847-.58594582 11.475085.09361895 17.2255709-.21447376 7.7565176-.41607178 15.5192606-.52383016 23.272138-.42008175 12.7122747.16899995 25.4162328.72388986 38.1280151.9086498 11.008723.15955621 22.023625.03157116 33.036198.02296628.299756-.00031224.601604-.09747221.902511-.14958545-.252441-.29088175-.504439-.58099483-.581386-.66965933" />
    </g>
</svg>