<?xml version="1.0" encoding="UTF-8"?>
<svg viewBox="0 0 160 40" xmlns="http://www.w3.org/2000/svg">
    <g fill="currentColor" fill-style="evenodd">
        <path d="m107.086316 5.47099064 16.560965.73075044.012112-.47767174c-3.250392-.6044026-6.516104-.60202744-9.784645-.48761947l-2.263135.09102409-1.508804.06255491c-1.005806.03919997-2.011425.07099131-3.016493.08096177zm39.851976 7.62212266c2.645786.6529276 5.191224.5911694 7.833138 1.0136137-.28755.4498923-.623718.6920371-.959849.8989159l-.334317.2015116c-.275584.1687772-.539879.3529903-.76473.6524549.190596.2082311.315868.1541376.42148.0396516l.076235-.0940328.109895-.1421009c.012359-.0138871.024857-.0267458.037582-.0381818.380591-.3415963.730708-.4961785.999338.123606l.0494.1254275c.105779.2945667.282733.4639533.486357.5409437.301978.1142057.606129.2155071.911064.3122585l.915773.2849589c.762795.2400148 1.521826.5038073 2.255422.9219145.024939.0142213.053576.0172367.083829.0162176l.093528-.0079895c.078512-.0047919.15412.0100214.194303.1564926.084542.3088105-.053811.5232309-.20325.6787001-.481817.5007406-1.038884.7006875-1.597899.7963583-.861677.1477656-1.725878.2560405-2.589831.3687365l-.986172.132741-.245241.0389588c-.368031.0692231-.736038.2041265-1.093434.6362052.194539.1709366.401783.2177714.610981.2389243l.251289.0193551c.292658.0228966.580721.072618.83469.4192289-.359998.4514774-.712334.5067479-1.066974.4479572l-.193728-.0416837-.370275-.1050506c-.237208-.0596797-.470679-.0477959-.516377.5002722-.049473.5918095.272053.7959829.563254.8390589 1.120798.1655658 2.246605.1533329 3.373431.0298369 1.38527-.1516694 2.638568.5344784 3.882796 1.334454-.334936.2403075-.664689.220103-.994415.160673l-.282735-.055385c-.235807-.0455574-.472351-.0788702-.71151-.0192948l1.063319.535523c.175422.0900777.349972.1818045.523692.2770364.193869.1063297.397384.2829569.398302.6460588.000411.4302407-.224675.650161-.45974.7258611-.491765.1577851-.991002.263723-1.488928.3658934-.146755.0301562-.369979-.045016-.35347-.2813649.097331-1.3978256-.342632-1.5664118-.839628-1.5602304l-.44973.0242796-.143306-.0004599c-.046578-.002272-.091806-.0070142-.135202-.0152811l-.063662-.0151757c-.43423-.126301-.940452-.0383571-1.374529.3343505.023531.195363.102022.2788863.190257.3400194l.107664.0683373c.017759.0115066.035184.0235487.051914.0368421l.04774.0443493c.039041.0430034.08244.0820025.128048.1190717l.28298.2158549c.206346.1694189.370444.383783.296569.8321453-.099943.6064047-.533463.7355331-.89021.7454262l-.080777.0003294c-1.671384-.0312123-3.303675.3973089-4.93025.8913291l-1.625905.501252c-1.265034.3841308-2.53334.7283886-3.820622.8472832-.430675.0397365-.857892.1889203-1.284195.4093295 1.12599.1863371 2.256945.2949196 3.394946.3896398l1.369115.1110994c2.059145.1689356 4.143811.3757619 6.266126.9930985-.444959.5888639-.851496.6554033-1.235896.6535454l-.309898-.0075741c-.169789-.0024556-.335921.0065352-.499925.0696028.365463.0916923.734565.0999745 1.109595.0919651l.453028-.0131356c.68425-.0185466 1.390675-.0028923 2.132632.4383984-.916792.6951723-1.722598.7879878-2.510965.7863908l-.544156-.009947c-2.200528-.0511356-4.390943.1486435-6.554626.826171l-.581549.1912962-.169492.0513927c-.169745.0575357-.335357.1475555-.452777.3965532.091343.1295546.195026.1484604.30465.1348203l.271223-.0552364c.161043-.0220195.323693.0146356.470386.3242789-1.333272.9158936-2.691675.9662664-4.069908.8695707l-.888687-.0753517c-1.287454-.1176826-2.591028-.2294282-3.906481.239996.494345.1966405.97248.2429551 1.435839.258789l.549031.0120401c.542122.0127495 1.063795.0506378 1.567499.3207571-.996549.5534598-2.025712.6990494-3.053436.7762633l-.56023.0373761c-8.693556.5384454-17.381464.3751656-26.066977.1224043l-13.8497221-.4185248c-8.2665451-.2446915-16.5335643-.4603019-24.8034383-.5212252-7.1109743-.0526003-14.2251539.0815652-21.3362097.4483666-6.7223505.3468974-13.4423291.8665802-20.1532206 1.6964415-5.4158435.6692797-10.7644341-.0508565-16.0933773-1.3871584-2.4456119-.613363-4.93513576-.8449254-7.39320832-1.3645568-2.05613908-.4345339-2.88210591-2.1143542-2.69223972-5.2254648l.04938392-.7070912.0150721-.3611891c.02276233-1.0138149-.16619291-1.423717-.82693007-1.8739297l-.23807587-.1524476c-.04271046-.0259514-.08696622-.0522481-.13281187-.0790005-.33026262-.192686-.67450829-.3376962-.99499318-.5610749-.3515977-.2452963-.50760467-.6309035-.64678978-1.1159387l-.15891379-.5854547c-.32644207-1.1927959-.36696159-1.827629.25431992-2.6697555.11622408-.157548-.09121818-.4822571-.26240175-.6509388l-.05522455-.0500051c-.77998916-.6404759-.96960093-1.660211-.90058946-2.8711914l.0158894-.2292541c.13964603-1.7203499.18225266-3.3633615-.61067019-4.855774-.28439385-.5352307-.29181166-1.2087691-.24474395-1.8955189l.07551191-.9125128.01523391-.2228528c.16723595-2.8407956.76328439-5.46766107 1.76282297-7.89783292.98727561-2.39979399 2.49341856-3.44741959 4.24601351-3.7726212 2.28347105-.42361538 4.56842556-.33199182 6.85095456-.1632289l1.1410443.0887815c1.2995847.10375816 2.5927403.36444146 3.892692.44681631 6.7487304.42766622 13.5022474.77337795 20.261811.61125619 2.4292064-.05822605 4.85838-.14909399 7.2875532-.25222624l7.287551-.32581211c2.4292049-.1072833 4.8584419-.20645334 7.2877435-.27713254 12.55274-.36486612 25.0985392-.16403273 37.6430497.11956937l12.5442906.29330534c1.045356.02376018 2.090717.04697726 3.136085.06937175l3.13613.06443623c4.472593.08779865 8.949525.18190177 13.41844.46322666 5.178512.32641374 10.356096.65497709 15.540122.80522567.674594.01961192 1.348328.08190159 2.021726.15406901l1.537612.16902558c.288881.03839097.587917.12659201.89959.54018134-.747876.70314641-1.521463.8207297-2.307003.85741506-.902435.0421496-1.782843-.15623735-2.659711-.39516591l-1.126905-.3137901c-.375955-.10154776-.752715-.1947989-1.131734-.26401038-1.881918-.34346692-3.754602-.19682062-5.627201.01999044l-.936335.11230838c-.082364.01001786-.165708.01434323-.250156.01607315l-.387884.00071792c-.440186.00455969-.912588.06037236-1.432602.55456839.815645.22540073 1.595909.2240909 2.383458.19996372l.791557-.02418135c.531431-.01112263 1.072421-.00217989 1.635612.08724101-.588189.6206451-1.090941.65851075-1.55727.6288775l-.343683-.02682972c-.037598-.00259814-.075029-.00477044-.11232-.0062187l-.461936-.00266238c-.576464.00279582-1.112055.07635695-1.565548.97398917-.212045.41991655-.552837.46763862-.909532.47314564l-.357816.0036568c-.078835.00311734-.156597.00958175-.232049.0230144l-.11129.0258278c-.186758.05462643-.377981.07140293-.58247.07850126l-.429272.0096396c-.075363.00223828-.152851.00548802-.232791.01079259 2.636304.72857128 5.205364.85567963 7.784978.79290367.335787-.00829842.671737.00157688 1.007444.01943021l.574363.03469717.147983.00626786c.173517.01414725.341377.0684332.412176.33313707.056306.21071352-.019952.29605796-.118716.36979416l-.122277.09019219c-.079328.06612107-.144887.15393565-.140326.32168927.585726.60768959 1.281474.62004169 1.950068.57667723 2.378557-.15461237 4.653854.45193629 6.853493 1.76625534 1.131806.6762936 2.287007.5976447 3.443814.3989202l1.156535-.2152362c.077031-.0138823.154036-.0273577.23101-.0402381.919376-.1537133 1.835017-.193504 2.742679.0554617l.130982.038192c.225639.073306.469718.2083926.458709.6080155-.007497.2719288-.149972.3530902-.309985.3967705l-.20615.0475736c-.021925.0056726-.043181.0119209-.063425.0191919-.753979.2709093-1.512556.4572607-2.290184.4475163-2.256202-.0282104-4.511292.0613446-6.763986.3049651l-1.038551.1216472-.227321.0209585c-.209407.0288333-.443031.1081391-.73796.4240212z" />
    </g>
</svg>