<?xml version="1.0" encoding="UTF-8"?>
<svg viewBox="0 0 160 40" xmlns="http://www.w3.org/2000/svg">
    <g fill="currentColor" fill-style="evenodd">
        <path d="m22.3251801 17.6379646c-1.2716263.117516-2.5196975.6383839-3.7895918.4369645-3.7630923-.5970736-7.5530304.1316282-11.3123124-.5478093-.22810294-.0413102-.52167506.0189873-.67097251-.1675501-.80312326-1.0045309-1.51808828-.3964241-2.21729221.2180974-.41030818.3605021-.74752642.3066192-1.11574726-.0782585-.42399089-.4433791-.87604-.8287701-1.29292973-1.2857482-.93683281-1.0263407-1.23750609-2.6305111-.80918523-4.1854172.08261588-.3002046.2509652-.4728864.43992519-.5824483.42849406-.248631.85231175-.5567898 1.29864529-.6886745 1.25257439-.3699958 2.23236052-1.08073673 2.720435-3.06157416.39368108-1.59698604 1.3913067-2.3428791 2.49822082-2.64282715 2.27531384-.61657414 4.58111074-.88470563 6.88482914-.90548903 4.6460603-.04207997 9.2888298-.15292475 13.9255373-.60785024 5.6675874-.55576346 11.3325767-1.17310735 17.0022425-1.67447476 3.1078809-.2748027 6.2152422-.47109035 9.3394038-.176274 3.1397495.29609927 6.2788062-.31944853 9.4185558-.52651275 2.4474735-.16139206 4.8888851-.480584 7.3474434-.25324955 2.9128589.26941442 5.8248519-.11571991 8.7352861-.2765988 5.156997-.28480953 10.3042949-.93396999 15.4765334-.46980743 2.9066238.26069052 5.8251983.27377636 8.7387503.30507975 5.88703.06337654 11.756394.53857225 17.625412 1.23237853 6.954975.82235543 13.882584 2.08911637 20.850548 2.69773637 2.502205.21835397 4.99419.68328628 7.49345.99016213.857508.10519991 1.447943.47981425 1.651972 1.89898677.116909.81209203.070665 1.33039405-.321977 1.93311259-1.120943 1.72091663-2.550527 2.42960483-4.063246 2.91532063-3.759629 1.20672-7.552338 1.3473286-11.360635.6948326-1.701506-.2914808-3.403878-.2735198-5.099842-.1103316-4.589597.4420962-9.168283.0343824-13.749047-.2553023-2.506535-.1585696-5.010644-.4182338-7.517871-.5313878-3.775736-.1706292-7.552684-.4998279-11.3304986-.0313034-1.748616.2168144-3.4967124.4251616-5.2216002 1.0237747 1.3561473.5159928 2.7523036.6596805 4.1247316.5837313 3.7232562-.2062945 7.4418372.1036604 11.1623222.0502907 6.959131-.1003248 13.889166.6291468 20.81868 1.4917861 5.744661.7148463 11.477891 1.6472767 17.247665 1.9308033 3.196039.1570301 6.396755.4964923 9.514335 1.7034689.611392.2368281 1.220359.5329274 1.795033.9180617.446853.2996915 1.025338.5860405.776451 1.6649811-.052652.2286174.048669.408227.183937.5216376.90635.7602619.330637 1.2842088-.160209 1.6883304-1.320641 1.0876645-2.813616 1.1915815-4.264676 1.5058983-1.596721.3456202-3.21665.4577479-4.790335 1.0317289-1.019795.3720485-1.097215.5511449-.706305 1.9913574.304657 1.1225601-.166098 1.3016566-.697472 1.328598-1.557751.0787716-3.116195.0654292-4.671694-.1247004-.401994-.0492643-.805721-.0839033-1.208928-.0905745-.219789-.0038488-.549214-.1170029-.604464.2814739-.065469.4713469.28751.5878366.514747.7189516 1.027069.5916854 2.103154.9116471 3.188418 1.1459093 2.540308.5488357 5.084427 1.0648284 7.522375 2.3308196.345358.179353.738693.2206632 1.081973.787973-1.79434 1.2582937-3.465363 2.7880544-5.496986 2.8814514-.634601.0292507-1.2718.0053883-1.90311.0864692-.480973.061837-.98325.1357335-1.161645 1.0448148-.089197.455182-.436807.5141966-.700936.6707136-2.012917 1.1938907-4.078314.9260158-6.14423.4474845-2.30597-.5342103-4.591157-1.2644517-6.941466-1.339118-.696432-.0220663-1.381954.0733834-2.071805.1095619-2.19772.1152067-4.377948-.2322096-6.564238-.4518465-2.602659-.2614603-5.184362.2663354-7.76797.6065673-1.619929.2132223-3.228081.1516419-4.831037-.196031-.421739-.0916009-.880716-.2450388-1.226248-.5850142-1.017717-1.0014519-2.133291-1.1474488-3.305847-1.1797785-5.371071-.1475365-10.7253415.4605703-16.08654.7405047-2.7666791.1444575-5.5316262.3681997-8.2962269.5837313-7.5176979.5860405-15.0431898.8811134-22.5631393 1.3637501-4.0320702.2586378-8.0624084.7443535-12.0967302.8231252-3.1679809.0620936-6.341331-.2714671-9.5094852-.5072689-3.6927735-.2748027-7.3845079-.2494008-11.0753763-.0254019-7.0038168.424905-14.0116172 1.1020332-20.96156911-.9447466-.66196617-.1947481-1.18052365.245552-1.74359325.5177889-.96142705.4649323-1.5475321-.0554224-1.68972839-1.5546495-.28993494-3.0559293.06131241-3.8454418 2.09120342-4.7055152.19034559-.0805678.37861278-.1711424.79948609-.3622983-1.09634899-.2763422-1.96026506-.4885381-2.82279554-.7127936-1.17896486-.3063627-1.87678319-1.3960798-2.22508617-3.0382248-.28664416-1.3514341-.52288745-2.7280135-.39593266-4.1523177.13093836-1.4717725.51249552-1.9000131 1.46405023-1.5880055.66421775.2178408 1.19455276.1624184 1.57281914-.7664199.15137583-.3715353.38848511-.4333724.66924052-.4451753 2.22352737-.0939101 4.41501295-.6686609 6.62139362-1.0178733.7059587-.1116145 1.3838592-.0076976 2.0582957.2116828 1.151253.3746143 2.2850129.2860924 3.425008-.097759 2.224913-.7492287 4.386262-1.7814708 6.4791974-3.1654911" />
    </g>
</svg>