<?xml version="1.0" encoding="UTF-8"?>
<svg viewBox="0 0 160 40" xmlns="http://www.w3.org/2000/svg">
    <g fill="currentColor" fill-style="evenodd">
        <path d="m2.27453848 13.5006559c-.60877497-.1990889-1.22280858-.3996748-2.01002666-.6568438.65943319-.9445499 1.35164521-1.0993303 1.97724782-1.4379312.64698774-.3502768 1.17881131-.7637232 1.33464228-2.05136467.10394574-.85892662.49694127-1.31997472.99142851-1.49960385.82437912-.29938188 1.64980997-.59008169 2.511876-.89784627-.35793795-.50116527-.90185639-.19549636-1.14182556-.94904056.17371034-.58289653.55513687-.52900779.81263483-.82988658.14443725-.168552.32919073-.30477075.30272225-.65834076-.02541675-.33770276-.20999494-.46523944-.37546674-.55565277-.6548757-.35746197-1.3342917-.14100887-2.00056111-.23261972-.4762573-.06586402-1.23209884.15986992-1.300987-.70444557-.07923014-.9897565.68747925-1.18525287 1.1660153-1.42865034 1.80721852-.91820424 3.68455222-1.03346626 5.547337-1.17148131 4.2666835-.31584788 8.5203956.17064767 12.7714784.76462133 1.424565.19908895 2.8568426.26405482 4.286491.33141574 12.0024902.56762805 24.0072592.48469927 36.0116775.28082021 4.6125266-.07843806 9.2248778-.32213491 13.8356514-.58199838 6.5075643-.36704219 13.0170568-.60505078 19.5249716-.92479063 9.4637957-.46523945 18.9265387-.29429239 28.3884057-.09161086 4.292626.09191024 8.587531-.01766353 12.878053.24369685 4.753634.28950228 9.512.44248642 14.255291 1.11759257.548476.07813867 1.090642.32902069 1.629827.54397688.245053.09759849.571264.17873098.56618.7550411-.004382.47571781-.29238.55415587-.509737.68438699-.188785.11346573-.378797.22124321-.585462.34129534.149871.72600107.66329.72450416.804221 1.37775542-.076601.47452029-.315693.3338108-.500622.3487799-.557766.04550604-1.103262-.12274658-1.652264-.27333566-.359691-.09879602-.854879-.27722763-.898175.66043643-.036811.79605642.430857.8741951.768111.89155924 1.050501.05448751 2.102404.04730234 3.153781.04400914.472225-.00149691.934109.09071271 1.379516.35147433.271345.15897178.515521.43021177.26521.97418865-.442076.96071645-.081684.99245093.370559 1.08316364 1.060317.21226176 2.124139.43380435 3.167278 1.17896587-.174237.6670228-.485899.6589395-.747253.7873743-.700626.3445886-1.404407.6703161-2.102053 1.0307719-.389489.201484-.686252.5909798-.682571 1.3693727.00596 1.2903359-.470297 1.8738312-1.10817 2.164531-.506232.2311228-1.033498.326925-1.54043.5538565-.415783.1859161-.893268.3359064-.829989 1.3957183.034357.5742145-.197023.7864762-.466266.9146117-.358288.1703483-.719031.3239312-1.258041.5646342 1.324826.693069 2.540272 1.1451357 3.493488 2.7135974-.453119.5861897-.880296.1688513-1.41282.4361994 1.535697.7849793 3.028975.6936678 4.661607 1.2241725-.889762.9861639-1.857527.4969739-2.513804 1.5579833.088169.1691508.137951.283814.198951.3778199.178969.2763295.583709.2550734.500623.8595254-.063455.4610481-.379499.5799027-.619293.7499516-1.172501.8304854-2.426686 1.0592131-3.660888 1.4364343-1.320795.4035668-2.660345.6816926-3.922067 1.5115791-.315168.2071723-.879946.2101661-.481867 1.3591938.179495.5179306-.291328.785578-.522884.9906546-1.321495 1.169685-2.770601 1.0463397-4.195166 1.0756791-.903609.0185617-1.808095-.1347218-2.71223-.1434039-.577398-.0056883-1.186874-.267348-1.52816 1.0825649-.156883.620918-.780732.5811002-1.208961.6505568-1.45191.2359129-2.905572.470329-4.361689.5924768-4.902453.4107519-9.809463.425721-14.715772.3520731-4.735404-.0712529-9.44504.7562386-14.168699 1.0747809-1.779698.1203515-3.562902.1107713-5.3445286.1092744-6.9820688-.0056883-13.9443299.7846799-20.9116745 1.4130825-4.9264671.4442827-9.8550378.9466455-14.7900941.9436517-3.3890168-.0020957-6.7724243.3311163-10.1595129.3228892-1.6026576-.0040475-3.2238956-.0133284-4.6747538-1.4904786-.2168311-.2209438-.4397974-.1694501-.6764361-.072151-3.001981 1.2328546-6.0467323.7020505-9.0750065.551162-2.653684-.1323267-5.3040374-.4757178-7.9547415-.7580349-5.3012327-.5643348-10.5993103-1.1912405-15.8639079-2.4552308-1.6385916-.3933878-2.9718315-1.4058973-3.5047068-4.3913334-.1851041-1.0370589-.7854652-1.286444-1.32710494-1.4987057-1.42211095-.5568503-2.85281101-1.0490342-4.2757984-1.5989987-.80860321-.3125547-1.52903659-.9433523-2.17847836-1.8414979-.66714585-.922695-1.40423158-1.5921129-2.29522012-1.6840231-.67257977-.0694566-.94795711-.912516-1.04173615-1.9061645-.09903768-1.0493335.13567286-2.0178338.74392197-2.2639258 1.03963269-.4203321 1.83140826-1.7543778 2.88856974-2.0813028.32182864-.0993948.7230627-.3984773.63314-1.1870492-.07852899-.6876801-.45574861-.6810937-.77722667-.709535-.46574002-.0410153-.93445994-.0179629-1.39774593-.0961016-.34882298-.0589782-.72358856-.1871137-.80246813-.9304789-.07274449-.6876802.26538592-.9217968.52113101-1.2412373.15600625-.1948976.39106736-.2526783.44330316-.8442569" />
    </g>
</svg>