<?xml version="1.0" encoding="UTF-8"?>
<svg viewBox="0 0 160 40" xmlns="http://www.w3.org/2000/svg">
    <g fill="currentColor" fill-style="evenodd">
        <path d="m149.825785 1.27589205c-.898764.09533035-1.798109.19063864-2.696852.28528449l.015113.32542946c2.111022.08032954 4.223041.1476754 6.333492.24580225 1.181287.05523104.96296.40124747 2.405833 1.74940171.860084.80374343 2.532045.40132983 4.116629.5699119-.878735 1.66210998-2.181474 1.2486184-3.169216 1.67501221 2.750954.81607048 2.341687 2.10265578.966535 5.50653183-1.361299 3.3701358-3.887871 3.5769168-5.750092 5.4058361 2.332287.4396468 4.099844 2.0537344 4.911277 4.9733481-4.147156 2.6288107-8.704506 2.859747-13.319068 3.0645191 1.925488.0732696 3.852851.106175 5.775622.2280007 4.219825.2661181 4.850597 2.4832302 3.503532 7.0032343-1.251547 4.202211-3.799844 4.3985705-6.43616 4.588154-14.260931 1.0267809-28.512231 2.2602178-42.799689 2.7562162-12.9525841.4501598-25.9010286.590015-38.8194613-.3696548-11.4763964-.8533957-22.9507774-1.6066541-34.4502787-1.5398229-8.0112204.0467364-16.0216405.5938064-24.03393546.8008731-6.85845938.1769555-6.8655646-1.3221683-5.96486987-8.2523888.65406836-5.0309145-.08173905-9.6582761-.20442808-14.4521481-.10056708-3.9082476.07923766-7.72564068.79848061-11.5478647.54844473-2.91241463 1.93918947-4.28501474 4.46449589-4.27116228 12.84544261.06731215 25.69909561-.19402974 38.53399631.22035209 12.161051.39285228 24.2944749 1.75647505 36.4556983 2.1801745 11.3795764.39669726 22.7788303.43296554 34.1690603-.19109854 10.800008-.59238107 21.600025-1.16694275 32.401352-1.70992863.926799-.04628932 1.863188.20591216 2.794732.31948921-.000614.14595551-.001206.2912265-.001798.4364975" />
    </g>
</svg>