<?xml version="1.0" encoding="UTF-8"?>
<svg viewBox="0 0 60 60" xmlns="http://www.w3.org/2000/svg">
    <g fill="currentColor" fill-rule="evenodd">
    	<path d="m54.950466 2.8673267.4818533.16386845 1.1359001.39765213.3976522 1.13590016c2.1905103 6.25723046 2.0321611 12.78292806-.4442556 19.47935386l-.1950652.5154448-.7619841 1.9686544-2.0684933-.4213736c-4.3943853-.8951822-8.1211952-2.5347687-11.1453775-4.9254627l-1.3390113 1.3389864c2.9393834 3.1741475 5.5728815 6.6513598 7.899573 10.4294979l.5152163.8499427-4.293819 2.5618584c-2.2395358-3.7535882-4.7923111-7.1870892-7.6594192-10.3030416l-2.3101112 2.3104094c3.4136507 3.8786091 6.0986035 8.4666169 8.0536623 13.7481513l.239537.6608611-4.7121387 1.6720492c-1.7249528-4.8612305-4.0993273-9.0345481-7.1243889-12.5367424l-2.430558 2.4292313c2.2839443 2.8220455 3.969469 6.2103548 5.058555 10.1420106l.1506145.5618406-4.8399845 1.2548107c-.8554626-3.2996413-2.1657789-6.0913903-3.9290256-8.3975035l-1.6612549 1.6617894c1.8816673 5.4759945 1.9592912 11.0619148.2312421 16.681564l-.1672947.5269386-.7367949 2.2499949-2.2867306-.6133572c-3.0923843-.8294533-4.7080115-2.5821446-6.6077115-6.114541l-.7476154-1.4175856-.259855-.4793856-.237836-.4230408-.2202545-.3731038-.2071108-.3295742c-.1515136-.2324589-.2956815-.4335962-.4409284-.6155761l-.1459185-.1760446-.1989129-.2195315-.2076269-.2076268-.2195365-.1989155c-.2122621-.1828168-.447931-.3596233-.7304837-.5466733l-.2210721-.1424622-.3506793-.2132018-.50489826-.2886676-.59053934-.3213942-1.42069821-.749251c-3.41451383-1.836354-5.1660977-3.4086656-6.02729516-6.3108653l-.08318041-.294712-.61335723-2.2867306 2.24999494-.7367949c5.79736045-1.8984335 11.56138317-1.8765219 17.20850257.0639474l1.6617891-1.6612552c-2.1821321-1.6684511-4.7990864-2.9313637-7.8697191-3.7871079l-.5277844-.1419177 1.2548108-4.8399844c4.1711145 1.0814 7.7475456 2.8167949 10.7029738 5.2084594l2.4301086-2.4298479c-3.3490477-2.8927795-7.3118072-5.190535-11.9029607-6.8943733l-.6337817-.2300156 1.6720492-4.7121388c5.5605259 1.9730899 10.3695069 4.7379401 14.4090125 8.2931993l2.3104083-2.3101122c-2.8965615-2.665238-6.0675293-5.0588487-9.5149427-7.1817103l-.7880989-.4777089 2.5618584-4.293819c4.1079773 2.4509781 7.8686755 5.2562888 11.2794407 8.4147893l1.3389866-1.339011c-2.2867507-2.8926961-3.8862879-6.4282499-4.8044776-10.57598555l-.120985-.56939195-.4213737-2.06849325 1.9686544-.76198418c6.5286665-2.52697502 12.897848-2.85702939 19.0173209-.96173854zm-36.2123478 37.8667295c-3.3554052-1.1417242-6.7269268-1.4525824-10.14649269-.9332575l-.51329922.0841251-.09732629.0170762.11045688.0845624c.44696375.3305438 1.00090355.6708177 1.6893234 1.0495256l.58720892.3155327.525358.2751234.6784908.3587987.6079167.3314092.5461183.3108774.2526273.1498823.4698755.2929381c.7474723.4835022 1.3288658.9528901 1.9270089 1.5510332.8281981.8281982 1.409552 1.6242847 2.1230435 2.8730679l.181345.3219076.3312531.6076184.799638 1.5154248c.3848986.7157559.7285146 1.2965218 1.058558 1.7689024l.1406971.1958906.0840806.1105053.018144-.0962586c.6023415-3.4244502.374534-6.7992596-.6841053-10.1563563l-.1650272-.5034356-.1370115-.3889495zm21.5431139-33.39587842-.5025092.13919257-.4737229.14062965.0986898.33453737c.8909308 2.95203893 2.2259187 5.40513143 4.0003288 7.38351583l.3176917.3442038.293718.3013814c1.972292 1.972292 4.4681902 3.4576915 7.516015 4.4507827l.513086.1609558.3334707.0976231.1416964-.4726562c1.2043705-4.1940874 1.297755-8.2248431.2933608-12.13418868l-.1257959-.46854138-.0692613-.23761374-.236547-.06819464c-3.7372124-1.04668731-7.5843881-1.08565667-11.5784238-.105284z"/>
    	<circle cx="47" cy="10" r="4"/>
    </g>
</svg>