<?xml version="1.0" encoding="UTF-8"?>
<svg viewBox="0 0 60 60" xmlns="http://www.w3.org/2000/svg">
    <g fill="currentColor" fill-rule="evenodd">
    	<path d="m29.0463234 2.49314744c1.7209169 3.53151447 1.0319576 7.1484018-1.8024628 10.43851616.3466183 1.0632635.607747 2.1491622.7812811 3.2568536.4598575 2.9353325-.0874866 5.1028667-1.5674901 8.043315l-1.0099275 1.9670244-.1328472.2878403-.1283251.3221658c-.1903205.4866484-.2743738.8639542-.2743738 1.1911373 0 .9958722.6940003 2.0474968 2.3235752 3.1494218.7664278-.5092174 1.6732008-.9363585 2.7731419-1.3605135l.8622814-.3281906c1.586462-.6251798 2.1315961-1.0602037 2.6511382-2.201897l.0778663-.1766661c.6758908-1.5801797.6222087-2.4225674-.2712651-4.1369282l-.2306141-.4290126-.691314-1.2295974-.321788-.5975381c-.0997747-.1911037-.1931102-.3764096-.2831532-.5627515-.6138127-1.2702703-1.0238275-2.4974898-1.2309377-3.8574831-1.0133072-6.65390444 3.7412017-13.4952523 10.7745621-14.95356743 1.3519567-.2803182 2.675177.58841646 2.9554952 1.94037319.2803182 1.35195672-.5884165 2.675177-1.9403732 2.9554952-4.4302515.9185798-7.4599224 5.27802744-6.8466735 9.30493974.1257085.8254678.3800033 1.5866.789882 2.4348339.0678819.14048.1399782.2834823.2189494.4345117l.3189337.5885275.4493015.7966414c.7410018-.6012226 1.0899813-1.2384265 1.2880179-2.0645191l.0668401-.3070485.0414623-.2294516.0950069-.626964.0294312-.2093597c.437306-3.1353878 1.1550422-4.7854275 3.5923071-6.38472259l.3718347-.23991617.3484648-.21532642.3347624-.19542591.3307276-.18021466c.1659663-.08708605.3340448-.17022635.5096735-.25205859l.3629357-.16270196.392737-.16390306.4322059-.16979341.4813422-.18037301 1.1487636-.41124178.5630776-.19836907.4288492-.16020592c1.7710699-.68944103 2.4346229-1.35115035 3.0467317-3.32940569l.1408234-.48050297.0706281-.25892672c.356284-1.33395164 1.7264908-2.12650781 3.0604424-1.77022376 1.3339517.35628405 2.1265078 1.7264908 1.7702238 3.06044243-1.1947402 4.4731881-3.0421036 6.26634476-6.810796 7.63798426l-1.3570422.4810975-.631807.2333916-.5200467.2059606-.1539642.0650699-.2858596.127994-.2642217.1287218-.2519281.1337559-.2489791.1430964-.2553744.1567434-.2711142.1746968c-.7730307.5072506-1.0374712.8943326-1.2509834 2.0526275l-.0662658.3924529-.1959098 1.3313628-.0290538.174002-.0594611.3204456-.066444.3104242-.0377824.1614753c-.5717151 2.3848593-1.8985934 4.241838-4.3848448 5.7335958.1206906 1.3822234-.1494728 2.7836973-.8592918 4.4431988-.0556495.1301041-.1119373.2566799-.1689766.3798889 2.2330354 1.2643129 3.6788586.7303975 4.9476973-2.0359576l.1873137-.4275482c.0930795-.2220423.1853489-.4565265.2770579-.7036308l.1827453-.5110879.0909513-.2682629c1.1930401-3.5792043 2.8989963-5.198188 6.0390705-6.6372286l.7963389-.3548673.436864-.2023913c1.9399901-.9284524 2.5297929-1.6758891 3.1023973-4.0713584.3209972-1.3428798 1.669836-2.1712793 3.0127158-1.8502822 1.3428797.3209972 2.1712793 1.669836 1.8502821 3.0127158-1.0254523 4.2899419-2.747168 6.0358044-6.3352081 7.6636461l-.5415254.2404569c-2.0802358.9204976-2.8420381 1.5740286-3.5374867 3.5468376l-.1462289.430545c2.4918691.8781343 4.5656293.4744892 6.5174026-1.1712188 1.0555597-.8900331 2.6327743-.7558474 3.5228075.2997123.8900331 1.0555597.7558474 2.6327743-.2997123 3.5228075-3.522917 2.9704742-7.6428719 3.5667985-11.9967921 1.8376692-2.8894087 3.8958898-7.0135363 4.3268461-11.4805497 1.4501612-.6354422.3622199-1.3622348.6872336-2.2059019 1.0124112l-.840374.3195451c-1.7485557.6868923-2.278941 1.1553991-2.8423586 2.562186-.6186737 1.5447547-.6029189 2.5627696-.0735803 4.4278209l.2380271.8022801c.905845 3.020507 1.018869 4.8855839-.1125585 7.4734409-.3210414.7343019-.6941854 1.3684458-1.1292638 1.9238433 1.096632.2159565 2.1449658-.1906198 3.6174168-1.2565916l.4093914-.3047612.432207-.337145.202684-.1643424c-1.0330835-6.3997928 1.0210725-10.0412361 6.3161708-12.0006936 1.3967693-.5168761 2.5100626-.6246353 4.1688956-.4352773l.5742867.0739701.6215202.095057.3306049.055148 1.0150296.180475.5811027.0966873.2723366.0409071.5109924.0662809c1.9585511.2226457 2.9272661-.072894 4.1726788-1.190782 1.0274981-.9222868 2.608111-.8369962 3.5303978.1905019s.8369963 2.608111-.1905018 3.5303979c-2.8579026 2.565266-5.2713026 2.9265749-9.3839815 2.2510559l-1.4867878-.2596484-.4537345-.0716147-.4043886-.0555893-.1854202-.0218125-.3407531-.0317159c-.6978388-.0515629-1.145689.0081737-1.5970222.1751901-2.1798992.8066743-3.2233076 1.7599131-3.3439599 3.812338.7561569-.3943163 1.4988195-.6556163 2.3352513-.8236421 1.7248076-.3464863 3.0378188-.1817477 5.3542954.5315141l.657709.2081537 1.4416794.4767519.4452743.1402351.4212215.1241665.3983992.1072895.1910256.0470631.3664722.0804578c2.0789637.415002 3.1500197-.1346102 4.3120874-2.3710898l.2003082-.4000557.2033216-.4339131.2075652-.4685792.1057584-.247542c.5374425-1.2718179 2.0041379-1.8671468 3.2759558-1.3297043s1.8671468 2.0041379 1.3297043 3.2759558c-2.8685203 6.7881411-6.5879407 8.1133932-12.3874919 6.4188228l-.5771993-.1763317-1.3694089-.4522689-.5063948-.1613057-.4565322-.1381097-.3493492-.0987231c.5747916 2.1135865 1.8095076 3.1372384 3.8990263 3.4230709 1.3679722.1871296 2.3252342 1.4477887 2.1381046 2.8157608-.1871297 1.3679722-1.4477887 2.3252342-2.8157609 2.1381045-4.2209889-.5774036-6.9858885-3.1093016-8.0721138-7.1935174l-.3367064.2636169-.4598068.3736943-1.0109526.8457497-.5786616.4765371-.5380119.4304043c-1.6460607 1.2931532-2.7764225 1.9387037-4.3006344 2.3766046-2.545227.7312351-5.1321372.2321895-7.7629204-1.572255l-1.7095699.5848001c-2.1527716.7427532-3.3927791 1.4311854-4.5764408 2.7160103-.9355144 1.0154694-2.5170993 1.0802857-3.5325687.1447712-1.0154693-.9355144-1.0802856-2.5170993-.1447712-3.5325686 1.6027694-1.7397522 3.2523927-2.7683406 5.5312043-3.655587-.186501-1.7850345-1.2207189-2.7489181-3.3415905-3.0791001-2.2919917 3.9647822-5.6971937 6.41542-10.0845276 7.2062153-1.3588155.2449198-2.65889983-.6580711-2.9038196-2.0168866-.24491978-1.3588155.65807112-2.6588999 2.01688663-2.9038196 2.35709417-.4248546 4.23147015-1.5241563 5.69198727-3.3750291-3.82071169-1.2251546-6.22661831-3.3705776-7.60951881-7.3426152-.45397952-1.3039432.23505219-2.7290211 1.5389954-3.1830007 1.3039432-.4539795 2.72902113.2350522 3.18300065 1.5389954.94660962 2.7189006 2.70680925 3.9805027 6.33364616 4.718492l.604664.1152316.6383861.106937.3321506.0506345.6908401.0961539c4.1418087.5432465 6.769545 2.8244651 7.6290677 6.1829192.5265055-.3702179.8602609-.8083102 1.1295811-1.4243128.4137604-.9463731.488678-1.6269885.245204-2.7562597l-.0144019-.0332326c-1.0389479-2.6865382-2.40123-3.8191268-4.8359372-4.506289l-.5438645-.1431159-.6071375-.1393774-1.0108941-.2120604c-.2365443-.0489661-.4650027-.0979051-.685828-.1472331l-.6400303-.1495667c-2.7811679-.6820446-4.2537851-1.5107875-5.5323657-3.5097495-.66985398-1.0472649-1.07464345-2.0867834-1.25651404-3.1638097-.67690074-3.0401575-2.47866226-4.7182457-5.75880255-5.3509362-1.35572256-.2614988-2.24276617-1.5725158-1.98126735-2.9282384.26149881-1.3557225 1.57251577-2.2427661 2.92823832-1.9812673 2.36489513.4561533 4.34594438 1.3542827 5.90979342 2.6646857.2072971-1.1818897.1408915-1.9642641-.2037194-2.8981208-.1592896-.431657-.40889149-.8036485-.867864-1.2332533l-.24748501-.2201464-.28568731-.2330064-.32719677-.2491241-.37201343-.2684994-.42013726-.2911327-.88675268-.5946978-.52268479-.3626592c-.08494527-.0603413-.16880434-.1206446-.25157455-.1809295l-.48353366-.3616422c-3.99861092-3.074716-5.15127172-6.2024588-3.10545753-11.96385464.46201406-1.30111809 1.89131507-1.98134631 3.19243316-1.51933226 1.3011181.46201406 1.98134632 1.89131507 1.51933226 3.19243317l-.08681413.2481868-.15701782.47312162c-.82628972 2.59609891-.5652105 3.78155801 1.20367063 5.24251781l.32789299.2610195c.11457202.0881886.23444693.1776737.35971029.2687985l.39204105.2786366.42488525.2905339.68060471.4543984.6071144.4157553c1.6884884 1.1789686 2.7017546 2.1053961 3.4075207 3.339137l-.0474232.0781375c.5447317-.8709893.6772233-1.3937879.5319499-2.0655966-.1709807-.7906902-.4872961-1.4170566-1.1822869-2.3595836l-.3989852-.5238942-.5804075-.7407697c-.8365687-1.0761402-1.3866996-1.8904598-1.887796-2.8873778-1.30749691-2.60123078-1.16356382-5.51315771.2956681-8.52744823.6016195-1.2427467 2.0967736-1.76248305 3.3395203-1.16086364 1.2427467.60161942 1.7624831 2.09677357 1.1608637 3.33952027-.8214593 1.69686315-.8856334 2.9951769-.3286535 4.10327383.2935896.58408882.6369814 1.1073381 1.1795013 1.81946117l.819557 1.0504828c1.3628602 1.7534391 2.0798747 3.0260097 2.4700632 4.8304134.4536616 2.0979319.0003422 3.8866841-1.1797979 5.7736486l-.1113298.1753341-.2362977.3562624-.4149857.5898407-.8602754 1.1761528-.2037694.2845872c-.8372305 1.1826487-1.3783321 2.1572777-1.738485 3.2477044l-.1642906.6223079-.2953352 1.1007193-.1153353.4981644-.0201555.0977093c-.2671688 1.3166216-.1688816 2.1442675.4418505 3.0990999.336816.5265857.7972848.8490489 1.8126464 1.1578239l.3821056.1087211.548852.1371374.6356658.1419021 1.5198957.3204354.3512173.0801843.5572681.1396344c1.0928961.2857066 2.0900603.6501679 2.997061 1.1162731.1264924-.4714235.291406-.9590881.4962732-1.4706171l.0520075-.1275843c-2.7597233-1.9579086-4.2640812-4.3249341-4.2640812-7.1066958 0-1.0141907.2165295-1.9861678.6178122-3.0122451.1391748-.3558692.2974546-.7118114.488286-1.1052814l.2231288-.4487004.5791028-1.1153951c1.1827859-2.281194 1.5429081-3.581328 1.2648852-5.3559858-.476088-3.0389343-1.8247413-5.8901314-4.0841639-8.58623017-.8868426-1.0582417-.7478962-2.63504407.3103455-3.52188666 1.0582417-.8868426 2.6350441-.74789617 3.5218867.31034553.6924132.82623512 1.3198112 1.67117308 1.8816327 2.53433446.378028-.97505141.3338138-1.89302784-.0797312-2.83471415l-.0837705-.18079868c-.6048333-1.24118571-.0889677-2.7376798 1.152218-3.34251308 1.2411857-.60483329 2.7376798-.08896773 3.3425131 1.15221799z"/>
    </g>
</svg>