<?xml version="1.0" encoding="UTF-8"?>
<svg viewBox="0 0 60 60" xmlns="http://www.w3.org/2000/svg">
    <g fill="currentColor" fill-rule="evenodd">
    	<path d="m17.3116657 8.448662c7.293458-5.43791309 14.1322882-7.72130596 19.3981534-6.71534554 4.2133535.8048947 6.9498903 3.68612218 7.4680903 7.47296099l.0332316.27201284.023859.25870971.3618288.06224588c4.8717906.89238432 9.4605758 4.16200452 12.078098 8.85274912l.1879835.3457475.1691412.3275338c3.4739963 6.9010211 2.4293454 15.4789455-3.6584265 24.122693-12.3853749 17.5854246-38.8415865 20.0772344-48.2628615 6.0603929-8.57319329-12.7550773-3.42499833-29.4092199 12.2009022-41.0597002zm18.4599484-1.80415715c-3.6850506-.70397075-9.2013482 1.13784637-15.4712797 5.81263055-1.5539423 1.1586004-2.9863792 2.3635559-4.2947449 3.6044395l.0446845.0405652c-3.7576305 4.0074244-3.0156943 8.5977554 1.0205016 10.654673 4.8719083 2.4828115 12.2185568.3341231 19.3185575-7.3348019l.3326215-.3635273 3.708431 3.3537351c-8.5925805 9.5013441-18.4408701 12.4631128-25.6298893 8.7994601-2.8813082-1.4683661-4.81354005-3.7678124-5.6769786-6.4119237-4.12836667 7.5148033-4.23034329 15.4217517.13698534 21.9194023 3.23231606 4.8089948 10.21364056 7.4030532 18.09930246 6.6603328 8.5419504-.8045338 16.6451117-5.3126201 21.9259306-12.8106121 5.0734295-7.2035294 5.8804488-13.8301933 3.2802755-18.9953833-2.1359376-4.2429954-6.4742413-6.9984611-10.5861633-7.0193891l-.2864804.0029924-3.0684011.080027.542591-3.0211065c.4787237-2.66549803-.7363637-4.46344327-3.3959437-4.97151405zm9.1197103 24.94171015 4.3379035 2.486482c-5.1909067 9.0560287-11.8251346 13.9091632-20.6921818 15.2149051l-.4606356.0643781-.655941-4.9567874c7.3553177-.973343 12.7397252-4.7605733 17.2227202-12.3816348zm-31.6259669 3.2767942c4.6861757 2.2076459 10.8341398 2.298448 15.725458.2800163l.4046426-.1730849 2.0256591 4.5712914c-6.1302668 2.7164819-13.7974029 2.7379059-19.8747653.033592l-.4118654-.1886092z"/>
    </g>
</svg>