<?xml version="1.0" encoding="UTF-8"?>
<svg viewBox="0 0 60 60" xmlns="http://www.w3.org/2000/svg">
    <g fill="currentColor" fill-rule="evenodd">
    	<path d="m54.8056454 1.24092826c5.0888507 1.08769457 5.7498332 8.51097845 2.3185105 11.52007564-.0399276 2.4608866-1.0581437 4.7203086-2.9774977 6.6778324.7042806 4.4183692-.3331325 7.9436145-3.1809673 10.2249882.6818477 10.3045803-5.1809427 18.3806355-15.3405493 19.2329693l-.7793459.056939c-4.1945234.3175797-6.2022174 1.0513408-8.4564203 2.6309304l-1.3662307.9808373c-1.0653907.7401962-1.9481844 1.2258665-3.033022 1.6023259l-.4749323.1543263-.4910326.1465306-.3659171.1006225-.3601471.0901103-.183145.0423374-.3829038.0816887-.4190161.0809721-.7328817.1286864-1.3864285.2297684-.2128168.0390328-.1970088.0386941-.3515943.0779438c-.5430211.1318335-.8850871.2776679-1.2345735.5029879-.4143921.2671659-.8434606.6676607-1.3213773 1.266859l-.1815753.2341413-1.2795171 1.694754-1.8794287-.9884851c-1.25789541-.6615898-2.85619701-1.0291514-4.81408533-1.0752192l-.42505837-.0049409h-4.46361933l2.33190618-3.8060624c.77894909-1.2713757 1.39230743-2.6977237 1.93657432-4.5156032l.13468317-.4627637.19013917-.6989023.18584166-.737129.09162483-.383673.18128875-.7991104.08991638-.4160562.17900789-.8666615.17874956-.9147899.17950103-.9653936.23701902-1.3352304.36424474-2.0956824.18316681-1.0305082.17892579-.972312.17604571-.9181674.17452652-.8680745.17436827-.8220332.08755006-.3950172.17668259-.760568.17992661-.7246557.0916051-.3501269.18734436-.6783842c.10580039-.3693429.21467777-.7267492.32768224-1.0753451l.17273329-.5166768.21656046-.6058688.22796998-.5942664c.11706419-.2949078.23891729-.5869841.36632484-.8785078 1.7325711-3.9643305 4.2734712-6.8065699 7.9407742-8.4447713 3.2737413-1.4623955 6.2158974-1.9366571 9.1990698-1.5553557 1.5844987-3.7445821 5.8099641-6.3075304 10.3636699-6.1901326 1.8694402-3.34144411 4.3423302-5.21367168 7.4158967-5.27233335 1.6680468-4.24603186 5.1607348-6.12010196 9.8512618-5.11754539zm-35.1012691 34.59536834-.2068258.3746525-.1026025.1959064-.2053649.4126865-.2079526.4454697c-.0350327.077307-.070292.1562276-.1058371.2368854l-.2171766.5057856-.2268876.5534233-.3647721.9324536-.4399926 1.1746629-.852335 2.316398-.3232609.8521488-.160885.4131281-.3209068.8006875c-.0534304.1306285-.1068477.2598546-.1602728.3876889l-.3208114.7503925c-1.0822954 2.4724793-2.1848737 4.3850931-3.4804924 5.8270452l.1852381-.1374253.2951692-.1990909c1.2169276-.7845746 2.2498458-1.1101822 4.0419069-1.4159522l1.5747941-.2620086.5440607-.1014946.4595051-.0990649.2839044-.0701927.2831387-.0773617.4554852-.136702c.7043089-.2197599 1.2540074-.5103417 2.0581266-1.0703929l.2492773-.1762981.7879704-.571166c1.2892575-.9288865 2.5400821-1.6622823 3.9454136-2.2308473l-.0041987-.0104027c6.787324-3.3902254 8.0845199-9.480313 4.1392314-12.6480938-3.5135346-2.8211136-8.9502596-1.6097069-11.6026469 3.0270788zm.310676-11.8947812c-3.2168431 1.4369789-5.036626 3.935097-6.4478742 8.8944268l-.1105836.3966648-.1879757.7122296-.1837632.7442121-.1801137.7769919-.2208676 1.0185512-.2171441 1.0725725-.1717733.8979998-.1706568.9343673-.5612364 3.2106127.0909763-.2241673.2895575-.7498915 1.1846295-3.2072525.4344375-1.1420093.2708334-.6838498.2601429-.6304477.1272259-.2974988.2510871-.5641493c.2914038-.6363284.5799818-1.2012073.8923344-1.7472483 4.1418551-7.2406071 13.1024829-9.237207 19.0731649-4.4431819 4.7409329 3.8066256 5.2632182 9.818998 2.0773669 14.8335842 6.0691685-1.0783089 9.5691407-5.9315287 9.5072838-12.6106986l-.006381-.3470926-.0107228-.2892407-.4411113-.1049058c-2.651057-.6585711-5.1104422-1.6102283-7.9473002-2.9768533l-.6138832-.2992442-.626683-.3122137-2.8016654-1.4329987-1.105449-.5544922-.6618528-.3187-.3115898-.1454074-.5933638-.2666968c-.1923433-.0840418-.3800292-.1635611-.5654198-.2395628-3.6813505-1.5091845-6.5584949-1.5854194-10.3216294.0955903zm12.0825297-4.7759072.135684.0539828c.5197258.2130636 1.0435409.4444681 1.6086612.709545l.4321664.2053608.7641745.3742322.4069041.2038461 2.7467788 1.405574.998959.5020091c3.1965787 1.5770046 5.7473919 2.5515976 8.618797 3.1575372 1.2917174-1.0442276 1.7982484-2.6600627 1.4663613-5.1273155l-.0150683-.1043799-.5178398-.1502578c-2.5502714-.7555772-5.2555102-1.7256075-8.1173719-2.9094378l-.7843922-.3281632c-3.0869261-1.3058538-6.4243878-.0404333-7.7438141 2.007467zm13.0061697-7.8085562c-.8273809 0-1.6482861.4674244-2.4636528 1.5503769 2.8906685 1.1930401 5.5915669 2.1464011 8.1017848 2.8624912.7414299-.7962312 1.1712085-1.6031928 1.3206331-2.4618279l.0354832-.2590922-.4259124-.0875132c-.6185187-.1365888-1.2201411-.3003339-1.8470058-.4962441l-.8232052-.2702312-1.0472612-.3530243c-1.0682906-.3463188-1.8136809-.4849352-2.8508637-.4849352zm4.9342534-4.09054293.8811329.2984433c1.1356385.37547937 2.0795154.60846329 3.2670907.76148703.1689098-.82826951.0098782-2.10285708-.4256808-2.19595377-1.8268155-.39046484-2.960861-.09752093-3.7225428 1.13602344z"/>
    </g>
</svg>