<?xml version="1.0" encoding="UTF-8"?>
<svg viewBox="0 0 60 60" xmlns="http://www.w3.org/2000/svg">
    <g fill="currentColor" fill-rule="evenodd">
    	<path d="m53.3264031 1.46233071 1.4686486 1.4866843c3.0192359 3.05631355 4.1021655 6.17261161 3.0086269 8.98766279-.5362267 1.3803863-1.5380737 2.4984211-2.8244106 3.3262876.8447852 3.4106203-.0262955 6.236541-2.5573253 8.0977753 1.0205915 5.7215557-.4628311 10.5589795-4.1512349 15.0623925l.0109371.0072277c-1.0922953 1.5277177-2.0880173 3.0212902-3.053043 4.5636774l-.6697966 1.0868037-.4801208.8071918-2.9601415 5.0763205-.7166215 1.2103666-.1509976.246051c-1.5652806 2.4967286-2.9600914 4.1172297-4.7958099 5.353504-1.5613804 1.0515197-3.3748301 1.7506169-5.5990992 2.1665031-4.0849947.7637982-6.9848167-.0003047-11.0525694-2.2336092l-1.37734-.7736874-.624345-.3445506c-1.7324371-.9407206-2.943738-1.4555773-4.1099601-1.6532366-1.3127914.0758481-2.634333.1224756-3.95755743.1410488l-1.32352362.009265h-3.36409481l.97035288-3.2211099c1.71374684-5.6888243 3.88537203-11.8964223 6.51472828-18.6247664 3.5835392-9.1700335 10.3448549-15.1143233 18.0115487-15.5134906 2.9388153-4.0122595 6.1338734-6.2258756 9.6467113-6.3888323l.5017269-.0168218.2463798-.0031917.4907405.0043049.3455943.0123908c.5242201-3.22457979 2.2914369-5.04290592 5.2155407-5.9256787.1508669-.04554596.3039359-.08886262.4637308-.13138926l.504086-.12664913.6750774-.15302292.7551663-.16525c.2088971-.04635577.4053415-.09194832.5907934-.1374277l.5248388-.13674866c.8246365-.22951536 1.4109671-.47245246 1.9415187-.81006672l.1576746-.10420584zm-16.9515928 46.70418949c-3.8726596 2.1734127-8.7867526 3.7151009-14.1784612 4.6791807 2.5691835 1.29636 4.319419 1.6329761 6.7407083 1.1802518 1.584702-.2963021 2.7615528-.7499861 3.7250951-1.3988887 1.1552455-.7780061 2.1258995-1.9057189 3.3524635-3.8621716zm-18.5442013-17.6036098c4.1976953 1.9625689 8.938526 3.7512276 14.22056 5.3648479l.9676681.2918535-1.4269107 4.7920691c-5.872214-1.7485402-11.1443987-3.7103912-15.8174548-5.8886268-.4887455 1.2665427-.9613818 2.5130501-1.417034 3.7398755 1.3694654.673771 2.7355588 1.2577098 4.0988109 1.7528815l.7067646.2488528-1.6136238 4.7324642c-1.6356963-.5577218-3.2681822-1.2259183-4.8973589-2.0040971-.4222385 1.2041259-.8258166 2.3874059-1.2113621 3.549951l-.3795579 1.1556375-.1787398.5537425c.7400531-.0424934 1.4328886-.026021 2.1111506.0531756 8.4033455-.546841 16.3573758-2.3418513 21.4871403-5.4200916l.3793998-.2332746.3531778-.2278954.8539885-.5725304.4157587-.2849959.8090279-.5676937c3.3235295-2.3701623 5.8583927-4.6682197 7.5948673-7.0210723-5.3926821-.5525554-10.4488924-1.7776067-15.1641925-3.6761271l-.6899549-.2836242 1.9345318-4.6105951c4.9859277 2.0920153 10.4237837 3.3470744 16.3237344 3.761483.3114476-1.1572106.4484382-2.3442217.4096815-3.5742755l-.0227744-.4633136-.0067077-.0832333-.3017988.0004893c-3.3774646-.0444093-7.3077171-.9783749-11.8173186-2.7652216l-.5667195-.2277953-.2854742-.1126047c-6.4521662-2.460309-12.8514741.832587-16.8692796 8.0197448zm22.3348257-15.2430383-.3724787.0006683-.3712951.0118983c-1.2344782.057266-2.5747669.7511269-4.0000462 2.1681727.3212935.1017822.6435829.2133519.966422.3349875l.4846149.1900375.510477.2052385c4.3007564 1.7049333 7.8522699 2.4936966 10.6197122 2.4143801l-.1722595-.525933c2.1553414-.7064822 2.8908904-1.690399 2.3177451-3.7168434l-.054123-.1802962-.217175.0135659c-.9628651.0490609-1.9670583.0023647-3.1707333-.1286412l-.747408-.0886291-.3940297-.0517307-.8334552-.1179504-1.4857482-.2231334-.6026162-.085175-.7933347-.100447-.468472-.0495229-.4307848-.0361845-.4022235-.0233731zm12.2669222-7.47503941-.0597726.02543404c-.7290638.29185983-1.5290051.52467832-2.482906.74814983l-1.5437895.34278383-.4093904.09738153c-.0624294.01559441-.1222237.03094635-.1797819.046169l-.321709.09068987c-1.0676398.32231525-1.5137918.66166818-1.7055199 1.74478481l.3791813.0541983.6392176.0830592.58864.0667448.544176.0503043c.1746606.014014.3429294.0252669.5058254.0337376l.4735884.017045c.7658463.0144278 1.4228448-.0412226 2.0983607-.1695776l.2033377-.0406902 1.5589444-.3275394c.2030014-.1902981.3470941-.3879279.4222234-.5813302.1877774-.48338752.0497382-1.19561543-.6395224-2.18188368z"/>
    </g>
</svg>