<?xml version="1.0" encoding="UTF-8"?>
<svg viewBox="0 0 60 60" xmlns="http://www.w3.org/2000/svg">
    <g fill="currentColor" fill-rule="evenodd">
    	<path d="m52.3729404 5.00202099.2383772.24594177.992604 1.04838682-.4119279 1.38372434c-1.8071565 6.07049498-4.0478432 11.39490238-6.5800484 15.97719748l-.3637114.6495656-.1702339.294163.3458279-.1979429c.8551327-.5021047 1.6573039-1.0382056 2.4068463-1.6080515l.4434126-.3459548.3700269-.3029696 1.8573292-1.5550981 1.6128742 1.8073845c3.7991707 4.2573453 5.8123969 8.6954779 5.9309219 13.271376l.0055575.4293928v1.035614l-.7323298.7322496c-2.2116012 2.2113592-4.4467521 3.9569235-6.8657051 5.3881887l-.5212187.3019442-.4285429.2368671.306548.2714094c1.1136698 1.0003564 2.2210211 2.0794605 3.3222785 3.2371183l.6600249.7040195.5645798.6184436 1.7788023 1.9721673-2.0760119 1.6564287c-3.1742282 2.5326843-7.4667676 4.372933-12.8653578 5.5640658l-.6043944.129679-1.1928977.2488116-.9308747-.7863743c-2.9993513-2.5337596-6.3274752-4.4155423-9.9989056-5.653156l-.6150864-.2003057-.371705-.1133072-.7413025.2847012c-3.9785591 1.545969-7.8668207 3.4375629-11.9740415 5.9030171l-.8244552.5008099-.7817841.4856931-1.2622143.7925579-1.2974625-.733433c-3.92021612-2.21603-6.97627076-5.6552109-9.15370793-10.2468525l-.22211735-.4791055-.8891397-1.9619967 1.80898407-1.1694345c5.30335911-3.4284055 7.79272671-7.1244024 7.79272671-11.1671342 0-1.6319527-.3155465-3.2433284-.97208344-5.1543562l-.15757319-.4464714-.09776963-.2665024-.26568709-.6935038-.30405282-.7542341-.27757721-.6654294-1.34605068-3.1500436c-1.76565559-4.2215326-2.7120448-7.3517916-3.12550595-11.1538094l-.05547144-.5479056-.09658468-1.02869533.65784313-.79673409c3.52439212-4.26849989 8.6799751-5.64733713 15.0516252-4.21955461l.3998078.09289011 1.5780086.37955146.2955511 1.59587587c.3797482 2.05051193.9725212 3.53197129 2.1949346 5.63900989l.2366828.4026924.4622934.7627186.5072671.8207286.4700794.7710754.4288776.7255061c.2046833.3528058.3951421.6917745.5732157 1.0217836l.1740134.3272032.0916706.1793819.3736602-.5475616c2.2788978-3.4084144 4.5188232-7.7835631 6.2627873-12.2247759l.2711746-.70166182.2122589-.56570454.4460249-1.20497938 1.2394225-.33874115c6.7588825-1.84724075 12.2824677-.8639098 16.208612 3.09244538zm-15.7594793 6.26640801-.0429544.0902402c-2.2284197 4.7120833-4.8619528 9.0415868-7.4611977 12.0625764l-.3278806.3743125-.3174113.3493045-3.0350027 3.2777479-1.2064783-4.3010792c-.4165818-1.4851084-.9117839-2.6580825-1.742614-4.1471501l-.2351045-.4144184-.4136757-.7027401-.4639925-.7617153-.7482578-1.2147795-.4497374-.7540133c-.1434463-.2451907-.2805435-.4846204-.4116425-.7194467-2.3810952 2.0876802-5.4569363 2.8761646-9.0776728 2.3787512.3425632 1.0344505.7539469 2.12126 1.2435437 3.3135555l.2146432.517597.2235949.5295845 1.0588493 2.4699173.48584 1.1705723.1314438.3277719.2446238.6285777.2248989.6055209c.9462453 2.6140064 1.4282092 4.897167 1.4282092 7.3027066 0 5.2282025-2.6825539 9.8407863-7.82678218 13.7839007l-.39770352.2982765.11614328.2066849c1.25713083 2.1827442 2.77052372 3.9347467 4.54408572 5.2751134l.3581825.2625905.1115885.0776112.3081335-.186887c4.3533528-2.6162177 8.4938891-4.6337742 12.7280478-6.2822692l.8481709-.3248462.8010469-.2971129.7494651-.273666.7694372.2110865c4.4514416 1.2212035 8.5076911 3.2208538 12.1562506 5.9933648l.518448.40133.4622732-.1103118c2.5914206-.6374438 4.8239529-1.4391928 6.6998753-2.3971971l.4265758-.223848.3482757-.1926431-.0891481-.0914129c-1.363063-1.3681002-2.7277343-2.5973597-4.0933505-3.6881231l-.58532-.4589917-.5203722-.3937606-3.5529908-2.6426002 4.0980882-1.6771262c1.6049298-.6568112 3.0834043-1.3972864 4.4910125-2.2711404-2.7236343-1.735889-4.09594-4.5042307-4.0836946-8.0935474-1.1863721.517871-2.4339522.9879783-3.7417465 1.4109017l-.7918943.2480965-.6320064.1869176-7.4268113 2.1405567 4.7664129-6.0844735c3.075763-3.9263065 5.9212788-8.8412871 8.3117596-14.7614906-3.1231608.4378025-6.2214786-.380478-9.1934774-2.4283769zm14.2275389 16.241571-.1262251.087328-.115844.4776687c-.9303712 4.1110681.1172364 6.2149581 3.2767783 7.1313989l.1292908-.1213956c-.2016616-2.2665732-1.0754191-4.5477086-2.6558882-6.863029l-.2699611-.3862067zm-41.12761009-16.3292461-.20734907.1884722-.06788371.0650253c3.84208167 1.1212471 6.38946727.4325174 8.11072867-2.02841949l-.1971789-.03051731c-3.2626233-.46570647-5.7500637.14784226-7.63831699 1.8054393zm29.69229649-4.89112809-.3941172.07652939-.3175692.0668448-.0483977.1239523c3.1366277 2.5266881 6.1005133 2.90649683 9.2787443 1.24176743l.0156534-.05071973-.1837024-.13679106c-2.0976011-1.50969714-4.8326226-1.96930895-8.3506112-1.32158313z"/>
    </g>
</svg>