<?xml version="1.0" encoding="UTF-8"?>
<svg viewBox="0 0 60 60" xmlns="http://www.w3.org/2000/svg">
    <g fill="currentColor" fill-rule="evenodd">
    	<path d="m36.9202278 1.00624788 3.1238122.20021752c6.4659718.41442979 10.506902 3.05686127 12.6009333 7.31527088l.1338119.28000716.2293151.52566616.1240739.31211388.150058.40715962.1342036.3973954.123242.3985002.1519608.5427462.0913985.3599773.1161609.4976808.1232918.5772284c.3347718 1.6259099.4429289 3.2782532.3259108 4.951143 4.1585253 3.6869176 5.5630452 8.0731502 3.8795696 12.7688147-1.1879323 3.3134612-3.6179406 5.4950067-7.107948 6.5694988 1.4564561 2.6872664 3.0026556 5.1144781 4.6370753 7.2834609l.4111577.5377887 3.1280837 4.0323508h-5.1034068c-3.5391884 0-6.9040058-.5752253-10.0820926-1.7219251.4273209 2.3869558.9003774 4.6500513 1.4196172 6.7881352l.2057956.8312834 1.107744 4.3897637-4.3052367-1.4007353c-5.9076405-1.9220873-10.1351058-5.2290551-12.5396939-9.862093-2.3420851 4.5162106-6.4181431 7.7723846-12.094129 9.7140494l-.4436963.1480436-4.3052367 1.4007353 1.107744-4.3897637c.6005518-2.3798641 1.1421343-4.9194885 1.624416-7.6185723-3.006844 1.0841727-6.17971266 1.6572871-9.50915282 1.7160451l-.57194301.0050337h-5.10340681l3.12808379-4.0323508c1.78702543-2.3036191 3.47058854-4.9104102 5.04904264-7.8209378-3.49111367-1.0750701-5.92089792-3.2565516-7.10875765-6.5698106-1.68344863-4.6955892-.27900075-9.0817564 3.87964685-12.7690758-.10376073-1.4879855-.02918384-2.9622614.2256584-4.4223418l.10401954-.5468638.13021363-.60696.11710905-.4974739.09546355-.3709405.15606008-.5509665.12296529-.3916383.13781029-.40253333.13979654-.37597778.05572969-.14141759.13033859-.31452399.17186119-.38622033c1.99249379-4.29069164 5.93824367-7.01559678 12.29899707-7.52658991l.4182604-.03018017 3.1238122-.20021752-.495415 3.09076909-.2839231 1.73026219-.1388148.80411158-.2020154 1.11694014-.1226039.64266912.2952863-.04513605.6662134-.09336942.6806856-.08656865.6951756-.07978894 4.1680259-.45337488-1.5826442 3.88242524c-.2279278.5591357-.4638413 1.1096302-.7077405 1.6514629 1.2380716-.2779202 2.5480666-.412042 3.9479979-.412042 1.4000123 0 2.7100778.1341373 3.9496313.4100762-.1636884-.3599113-.3231016-.7245459-.4787237-1.0933153l-.2306502-.5561818-1.5826442-3.88242524 4.1680259.45337488c.4682844.05093739.9268969.10638057 1.3758612.16635759l.6662134.09336942.2942863.04513605-.1258279-.66543355-.2012651-1.11384015-.1382393-.80160128-.2102221-1.27138748zm-15.5365121 43.65129692-.0944117.613364c-.2947713 1.8677706-.6155359 3.6706399-.9623813 5.4086874l-.1039227.5074038.1112377-.064931c2.1926726-1.321769 3.8473885-2.9879061 4.9955858-5.0113673-1.3896392-.3313344-2.7049284-.8163267-3.9461078-1.4531569zm17.2316953.0014543-.2187621.1092689c-1.176421.5825889-2.4184511 1.0305351-3.7253794 1.3417569 1.1468659 2.023898 2.8016623 3.6901799 4.9944928 5.0120441l.1102377.064931-.1029227-.5074038c-.38458-1.9271362-.7370956-3.9339657-1.0576663-6.0205971zm-24.5430026-6.6774461-.2436245.4735834c-.8311744 1.591041-1.6931845 3.1061237-2.5862332 4.5451786l-.2835507.448685.4392394-.0944731c1.8743385-.4241749 3.6747723-1.070406 5.4052309-1.9398859l.014572-.1068686c-.9824627-.9774569-1.8978278-2.0869192-2.7456339-3.3262194zm31.8545936.0021943-.2714629.3877682c-.770686 1.0832085-1.5952989 2.0624843-2.4733286 2.936334l.0145442.1069046c1.7303897.8694228 3.5307487 1.5156163 5.4050059 1.9397728l.4382394.0944731-.2825507-.448685c-.8173612-1.3170923-1.6087219-2.6978716-2.3742379-4.1422844zm-15.927002-20.2291391c-3.8364011 0-6.5274185 1.2917383-9.4016413 4.562842l-.7723862.897122c-1.5270114 1.7605004-3.0123105 3.3200382-4.4579589 4.6789081l-.5040136.4665197.096226.2719031c3.0820532 8.5540437 7.8150895 12.7261971 14.3618027 12.9927475l.3402413.0103066.33773.0033561c6.7859585 0 11.6894035-4.0245867 14.8815899-12.5751101l.1581841-.4313001.095226-.2719031-.5070294-.4702949c-1.2957951-1.2182831-2.623445-2.5977724-3.9844342-4.1386801l-.5119366-.5854073-.7299585-.8481675c-2.8742228-3.2711037-5.5652402-4.562842-9.4016413-4.562842zm22.200456 4.9198174-.0521202.0486565c-.9823068.9059292-2.0810658 1.6597352-3.2966665 2.2563835l.3722232.3277116.4182318.3582862 1.2698416 1.0709881-.4953814 1.5855947c-.4686954 1.5001793-.9863142 2.9115559-1.5524309 4.2328839l-.0148262.0022932c2.5046686-.5591965 3.9904028-1.8033548 4.6719853-3.704471.7902502-2.2042195.4135231-4.1894887-1.3208567-6.1783267zm-44.40011255.0010891c-1.73510838 1.9873754-2.1119807 3.9728107-1.32165613 6.1772376.68033935 1.8976487 2.16189959 3.1407338 4.65658848 3.7003751l.0085531.0190062c-.4748255-1.1056561-.9150583-2.2738755-1.32097739-3.5043411l-.23943602-.7457463-.49538139-1.5855947 1.2698416-1.0709881c.2612912-.2203738.5248988-.4492568.7908044-.6866464-1.23703347-.6063221-2.35296467-1.376109-3.34833665-2.3033023zm9.27065655-15.9925147-.112513.02949782c-2.5735146.70257372-4.1247974 2.03591438-5.0544148 3.88438878l-.1129933.2337339-.1378013.3095313-.0707355.1710002-.130675.3443516-.0949995.2770554-.0834845.2644363-.1204018.425123-.0679697.2642807-.0946284.4015703-.115603.5405811c-.2693423 1.3081332-.3366779 2.6421061-.2000487 4.0099253l.0531.4572043.0421685.28432.2475339.2538745c.9671389.954486 2.1139329 1.6646335 3.4867448 2.1335972l.3479385.1122181.1267828.0363102.3398031-.3700193c1.6555577-1.8436375 3.1306715-3.9028937 4.4253387-6.1806291l.3486172-.6266195.084241-.1597321-.5562408.1291638-.4908593.1227925-4.4359569 1.1525776 1.4325172-4.3536241.1247293-.4081346.099694-.3647277.1051659-.41630163.1098713-.46616022.1140671-.51477899.1179135-.56248116.1215131-.60949207zm25.858.001.1475022.78286903.1206976.60647849.1168514.55877632.1126554.51015756.10795.46029896.1024783.40872504.0958105.3547163.0989367.3337898 1.4741749 4.4837224-4.4359569-1.1525776-.4908593-.1227925-.5572408-.1291638.085241.1597321c1.2618588 2.3174825 2.7041643 4.4162258 4.3269139 6.2990903l.447042.5081583.3388031.3700193.1277828-.0363102c1.5283705-.4645207 2.7869495-1.2117888 3.8346833-2.2458153l.2380687-.2437138.0084652-.0101607.0431863-.2842352c.1618302-1.2222735.1626159-2.4157441.0048714-3.5806057l-.0665804-.4354824-.0814131-.4328027-.1086811-.5108494-.0936803-.4017773-.0639046-.2533174-.1163026-.4169027-.0837612-.2712982-.0913927-.2719174-.1139022-.3077256-.0941449-.2347531-.1368857-.3092044c-.8908777-1.9184408-2.3779801-3.30729765-4.8680635-4.06456712l-.3165137-.09136179z"/>
    </g>
</svg>