<?xml version="1.0" encoding="UTF-8"?>
<svg viewBox="0 0 60 60" xmlns="http://www.w3.org/2000/svg">
    <g fill="currentColor" fill-rule="evenodd">
    	<path d="m38.0898022 3.47389621.20499.18818572.198824.19725546c3.0508115-.53155954 6.0866104.95731212 7.5414128 3.66870629l.120789.23538054c3.0657551.43720946 5.4928848 2.79132398 6.0386172 5.81957178l.0421406.261186c2.7806012 1.3631814 4.3614774 4.3521017 3.9447197 7.400777l-.0406329.2614248c2.2195262 2.1520925 2.8011843 5.4756715 1.4714178 8.2435681l-.1261612.2500481c1.4458617 2.7326329.9720091 6.0732866-1.1480011 8.2947922l-.1972555.198824c.5315595 3.0508115-.9573121 6.0866104-3.6687063 7.5414128l-.2353805.120789c-.4372095 3.0657551-2.791324 5.4928848-5.8195718 6.0386172l-.261186.0421406c-1.3631814 2.7806012-4.3521017 4.3614774-7.400777 3.9447197l-.2614248-.0406329c-2.2173075 2.2867845-5.6781763 2.8349323-8.4936162 1.3452566-2.7326329 1.4458617-6.0732866.9720091-8.2947922-1.1480011l-.198824-.1972555c-3.0508115.5315595-6.0866104-.9573121-7.5414128-3.6687063l-.120789-.2353805c-3.0657551-.4372095-5.49288483-2.791324-6.03861721-5.8195718l-.04214057-.261186c-2.78060125-1.3631814-4.36147737-4.3521017-3.94471969-7.400777l.04063286-.2614248c-2.21952616-2.1520925-2.8011843-5.4756715-1.47141775-8.2435681l.12616111-.2500481c-1.44586167-2.7326329-.97200905-6.0732866 1.14800118-8.2947922l.19725546-.198824c-.53155954-3.0508115.95731212-6.0866104 3.66870629-7.5414128l.23538054-.120789c.43720946-3.0657551 2.79132398-5.49288483 5.81957178-6.03861721l.261186-.04214057c1.3631814-2.78060125 4.3521017-4.36147737 7.400777-3.94471969l.2614248.04063286c2.1520925-2.21952616 5.4756715-2.8011843 8.2435681-1.47141775l.2500481.12616111c2.6498258-1.40204768 5.871381-.99896457 8.0898022.95981546zm-12.6716899 38.15967229-.0842534.0610524c-3.978869 2.9546673-5.0884286 5.9307839-3.7989123 9.2773376l.0321739.082162 1.6265013-.2827621 1.9635235 1.9493608c.5952098.5680161 1.4566643.7430406 2.2182346.471678-1.8202947-3.0824387-1.946452-6.8299911-.45256-11.0744298-.3861162-.0974056-.7652642-.2130996-1.1363498-.3459169zm8.1901095.3376029-.0492813.0148976c-.4357714.1291937-.8814793.2352704-1.3357029.3168089-2.1506283 4.7377899-1.6692458 7.9728916 1.1919857 10.2838411l.1857173.1461474-.4425473.576391c.5783669.0513403 1.1647709-.1315143 1.6157368-.5258396l.1298424-.1233382 1.8010212-1.8574544 2.1489576.3354906c-2.7548153-1.8644454-4.5092254-4.9706563-5.2457295-9.1669444zm5.5542611-3.4680132-.0250285.0266762c-.2658708.2846885-.5448894.5569409-.8360882.8157895.380492 4.6782234 1.9456017 7.3111919 4.7441825 8.328851l2.4846708-.4007727c.861158-.1551926 1.5404839-.8154547 1.7272647-1.6628029l.0291735-.1609926.2135892-1.4986053c-3.0209135-.5121524-5.8241395-2.3604995-8.337764-5.4481432zm-19.1657181-1.0062475-.2904656.0353136c-4.3360561.5604089-6.6869398 2.2930463-7.4735418 5.2464716l.0547274.0264967.438813 2.7250269c.1551926.861158.8154547 1.5404839 1.6628029 1.7272647l.1609926.0291735 1.4868233.2119876c.2639736-3.174332 1.9739243-6.1221417 5.0218995-8.7633111-.2847362-.2913904-.5556761-.597059-.8114219-.9156185zm22.1718615-4.6301759-.0283751.1227949c-.0686832.2798658-.1467912.5560285-.2339685.8281324 2.9588616 4.4220512 5.9129221 5.9277529 9.2131013 4.9909041l-.3480256-2.002188 1.9493608-1.9635235c.4442591-.465528.6481181-1.0939226.5860305-1.7100134-3.0341311 1.4712041-6.6593603 1.4137137-10.7296194-.1089578zm-34.65663564-.32934-.14614738.1857172-.45172276-.3469915-.01933298.0391393c-.37668948.7840756-.24361924 1.7154489.32551393 2.3630943l.11961897.1256184 1.8574544 1.8010212-.18687865 1.1980648c1.82210791-2.6436985 4.80145061-4.3539363 8.80133981-5.1149434-.1147258-.5045636-.1992818-1.0217128-.2511401-1.5484635-4.6107126-2.0280862-7.7764433-1.5155884-10.04870524 1.2977432zm22.48800934-10.0373948c-4.1421356 0-7.5 3.3578644-7.5 7.5s3.3578644 7.5 7.5 7.5 7.5-3.3578644 7.5-7.5-3.3578644-7.5-7.5-7.5zm12.1848774 4.0972223-.1476813.0211178c.074038.2640854.1396191.5317063.1964328.8025521 5.1464287 2.6010629 8.6182773 2.3239356 11.0715171-.545547.0627883-.5913885-.1214879-1.1940133-.5254475-1.6536993l-.1196189-.1256184-1.8574544-1.8010212.1065633-.6806586c-1.9314888 2.0157238-4.7200664 3.3234926-8.275849 3.9129362zm-33.05812621-5.9401043-.21942598.0877622-.15184444-.3634138.00668057.0944229.0229665.1722472.44351378 2.5454853-1.94936082 1.9635235c-.38813711.4067191-.59277578.9377551-.59687966 1.4762905 3.15792519-1.9701645 7.03346086-2.1221808 11.43971376-.5381534.1478837-.4505867.320841-.8898619.5170909-1.3162006-3.0320803-4.2413381-6.0770875-5.4457022-9.51245461-4.1219638zm29.98446871.4954949-.1591708.1232265c.1800597.1847333.3544494.3750195.5228881.5705773 4.8717613-.2551832 7.6933926-1.6831519 8.8895657-4.3312301l-.6519877-.3203792-.438813-2.7250269c-.1551926-.861158-.8154547-1.5404839-1.6628029-1.7272647l-.1609926-.0291735-.6252268-.0888319c-.5142595 2.9872792-2.3359365 5.7613123-5.3712171 8.2524743zm-21.4999883-9.7138118-.4164242.8486837-2.7250269.438813c-.861158.1551926-1.5404839.8154547-1.7272647 1.6628029l-.0291735.1609926-.0863882.6112659c3.3140727.2842352 6.3807939 2.1454987 9.1088821 5.4607958.3002002-.265476.6136993-.5163996.9389945-.7520383-.3953877-4.8498539-2.0650598-7.500745-5.0635991-8.4313156zm16.3965843-4.65438288.0656199.13858302c1.4685656 3.14006476 1.3193485 6.90384836-.3787361 11.13224006.2681138.0826053.5329623.1744316.7936015.2747382 4.6828494-3.0707587 6.21727-6.1312185 5.1314278-9.57307147l-.0956183.00525331-.1722472.0229665-2.5454853.44351378-1.9635235-1.94936082c-.2424253-.23134945-.5290174-.3975062-.8350388-.49486258zm-8.781946.43216394-.1298424.12333828-1.7030898 1.75573598c2.1280623 1.98680858 3.4850246 4.90897378 4.0590946 8.66428518.3211326-.0666243.648966-.121145.9808432-.1626551 2.3109027-4.7033627 2.1674441-7.98545011-.2048477-10.36466493l-.5664225-.29904873c-.7972786-.42184758-1.7659069-.30268967-2.4357354.28300932z"/>
    </g>
</svg>