<?xml version="1.0" encoding="UTF-8"?>
<svg viewBox="0 0 60 60" xmlns="http://www.w3.org/2000/svg">
    <g fill="currentColor" fill-rule="evenodd">
    	<path d="m30 1c3.4719312 0 6.4576767 2.08160867 7.7772827 5.06487233 2.8203732-1.63803955 6.4595582-1.56717327 9.2684896.47363483 2.8089666 2.04083367 4.0009291 5.48006604 3.3148123 8.66933224 3.2441118.3317877 6.1470423 2.5282763 7.2200544 5.8306678 1.072918 3.3021022.0157406 6.7850777-2.4138869 8.9619637 2.4296275 2.1759442 3.4868049 5.6589197 2.4138869 8.9610219-1.0730121 3.3023915-3.9759426 5.4988801-7.2214383 5.8316214.6875007 3.1883126-.5044618 6.627545-3.3134284 8.6683786-2.8089314 2.0408081-6.4481164 2.1116744-9.2692522.4736644-1.2864025 2.9098943-4.1587942 4.9619504-7.5213598 5.0610862l-.2551603.0037566c-3.4719312 0-6.4576767-2.0816087-7.7772827-5.0648723-2.8203732 1.6380395-6.4595582 1.5671732-9.2684896-.4736349-2.8089666-2.0408336-4.0009291-5.480066-3.31481226-8.6693322-3.24470995-.3322403-6.14715293-2.5286165-7.22005441-5.8306678-1.07291807-3.3021022-.01574067-6.7850777 2.41388683-8.9619637-2.4296275-2.1759442-3.4868049-5.6589197-2.41388683-8.9610219 1.07290148-3.3020513 3.97534446-5.4984275 7.22043512-5.8315185-.68649755-3.1884155.50546495-6.62764787 3.31443155-8.66848154 2.8089314-2.0408081 6.4481164-2.11167438 9.2692522-.47366434 1.3188434-2.98323415 4.3045889-5.06484282 7.7765201-5.06484282zm0 46c-1.9329966 0-3.5 1.5670034-3.5 3.5s1.5670034 3.5 3.5 3.5 3.5-1.5670034 3.5-3.5-1.5670034-3.5-3.5-3.5zm-13.1998522-3.7204412-.0256185.0083741c-.6423063.2284355-1.224719.6464913-1.6556865 1.2396671-1.1361869 1.5638271-.789516 3.752621.7743111 4.8888079 1.5638272 1.1361869 3.752621.789516 4.8888079-.7743111.4368653-.6012936.6545031-1.294983.6680172-1.9857064-.9163666-.2658533-1.8021447-.6923875-2.6178988-1.2850675-.7138696-.5186566-1.3233019-1.1276315-1.8240115-1.7998683zm26.3995592-.0006759-.1121122.1615283c-.5180793.7242328-1.1596947 1.3787537-1.919675 1.9309117-.8157541.59268-1.7015322 1.0192142-2.6169613 1.2859968.0125766.6897941.2302144 1.3834835.6670797 1.9847771 1.1361869 1.5638271 3.3249807 1.910498 4.8888079.7743111 1.5638271-1.1361869 1.910498-3.3249808.7743111-4.8888079-.4367226-.601097-1.0289621-1.0223657-1.6814502-1.2487171zm-6.3689949-8.2216224-.1139251.1524914c-1.0177575 1.3102689-2.4104585 2.3147997-4.0170603 2.8525499-.1071701.850749.0970376 1.7416697.640459 2.489625 1.1361869 1.5638271 3.3249807 1.910498 4.8888078.7743111 1.5638272-1.1361869 1.910498-3.3249807.7743111-4.8888078-.5441748-.7489925-1.3298088-1.2187796-2.1725925-1.3801696zm-13.6624793.0010111-.1601124.0337826c-.781252.187913-1.5020999.6443499-2.011425 1.3453759-1.1361869 1.5638271-.7895161 3.7526209.7743111 4.8888078 1.5638271 1.1361869 3.7526209.789516 4.8888078-.7743111.5434214-.7479553.7476291-1.638876.6416937-2.4892171-1.5648809-.5237806-2.926041-1.4894001-3.9360081-2.7487052zm22.999728.1950173c-.5973288 1.838389.4087493 3.8129285 2.2471383 4.4102573s3.8129285-.4087493 4.4102573-2.2471383c.5973288-1.8383891-.4087493-3.8129285-2.2471383-4.4102573-1.8383891-.5973288-3.8129285.4087493-4.4102573 2.2471383zm-36.74617886-2.2471383c-1.83838904.5973288-2.84446714 2.5718682-2.24713833 4.4102573.59732881 1.838389 2.57186825 2.8444671 4.41025729 2.2471383 1.838389-.5973288 2.8444671-2.5718683 2.2471383-4.4102573s-2.5718682-2.8444671-4.41025726-2.2471383zm20.57821806-6.5061506c-1.9329966 0-3.5 1.5670034-3.5 3.5s1.5670034 3.5 3.5 3.5 3.5-1.5670034 3.5-3.5-1.5670034-3.5-3.5-3.5zm8.9045339-3.0733762c-.8804099.2860625-1.569931.8879856-1.9838695 1.6395485.9326799 1.30394 1.5046729 2.8824098 1.5725288 4.59052l.0048679.2665684c.7768377.365082 1.6888398.4469323 2.5695918.1607587 1.838389-.5973288 2.8444671-2.5718683 2.2471383-4.4102573-.5973288-1.8383891-2.5718682-2.8444672-4.4102573-2.2471383zm-22.2193251 2.2471383c-.5973288 1.838389.4087493 3.8129285 2.2471383 4.4102573.8803714.28605 1.7919659.2043939 2.5685846-.1602856.015678-1.8120006.5978716-3.4871739 1.5776592-4.8588499-.4138014-.7508048-1.1031027-1.3523236-1.9831248-1.6382601-1.8383891-.5973289-3.8129285.4087492-4.4102573 2.2471383zm31.7298903-5.3373083c-.7066442.2296026-1.2903146.6626877-1.707219 1.213308.5848014.7543987 1.0506359 1.6200388 1.3621937 2.5789153.3115713.9589178.4435118 1.9330886.4143755 2.8860981.6599337.2013721 1.3869153.2087448 2.0937688-.0209258 1.838389-.5973288 2.8444671-2.5718682 2.2471383-4.4102573-.5973288-1.838389-2.5718683-2.8444671-4.4102573-2.2471383zm-41.24045549 2.2471383c-.59732881 1.8383891.40874929 3.8129285 2.24713833 4.4102573.70685346.2296706 1.43383506.2222979 2.09492096.0217133-.0302721-.9539179.1016713-1.9280273.4132233-2.8868856.3115756-.958931.7774453-1.8246151 1.3611932-2.5784974-.4159039-.5510382-.9995743-.9841233-1.7062185-1.2137259-1.83838904-.5973288-3.81292848.4087493-4.41025729 2.2471383zm22.82535639-6.5835921c-1.9329966 0-3.5 1.5670034-3.5 3.5 0 .9250413.3588641 1.7662654.9449677 2.3920478.8063609-.2551646 1.6647112-.3920478 2.5550323-.3920478s1.7486714.1368832 2.5551538.3907525c.5859821-.6244871.9448462-1.4657112.9448462-2.3907525 0-1.9329966-1.5670034-3.5-3.5-3.5zm9.2180382-4.6420968c-1.1361869 1.5638272-.789516 3.752621.7743111 4.8888079s3.7526209.789516 4.8888079-.7743111c1.1361869-1.5638271.789516-3.752621-.7743111-4.8888079-1.5638272-1.13618687-3.752621-.78951599-4.8888079.7743111zm-23.3248843-.7743111c-1.5638271 1.1361869-1.910498 3.3249808-.7743111 4.8888079 1.136187 1.5638271 3.3249808 1.910498 4.8888079.7743111s1.910498-3.3249807.7743111-4.8888079c-1.1361869-1.56382709-3.3249807-1.91049797-4.8888079-.7743111zm14.1068461-4.5835921c-1.9329966 0-3.5 1.56700338-3.5 3.5 0 .7431588.2316173 1.4322206.6266026 1.9989358.8978701-.3233837 1.8651326-.4989358 2.8733974-.4989358s1.9755273.1755521 2.8728888.4977579c.3954939-.5655373.6271112-1.2545991.6271112-1.9977579 0-1.93299662-1.5670034-3.5-3.5-3.5z"/>
    </g>
</svg>