<?xml version="1.0" encoding="UTF-8"?>
<svg viewBox="0 0 60 60" xmlns="http://www.w3.org/2000/svg">
    <g fill="currentColor" fill-rule="evenodd">
    	<path d="m33.1401612.9041553 1.0941211 1.06627438c2.3085204 2.24976586 4.1759328 4.60922793 5.5947644 7.07226987l.6309343-.04731065c.3201208-.02180818.6309978-.04096474.9326962-.05745575l.8776247-.04146243.4182828-.01470757.7957514-.01731562c.6405332-.00769029 1.2247196.00149695 1.7535789.02777952l.3106844.01782272 1.1378758.07438723.6897782.90802022c.7324395.96417918 1.3491332 2.03343708 1.8522932 3.20519528l.0864534.2083475.5271478-.7331492.5754188-.7881939.609491-.8222395.9895493-1.32559873 7.1407551 1.74404073-.6805676 2.4800288c-.6691313 2.4383542-.7895439 4.6139484-.5267098 7.5513445l.0739087.755876.1547979 1.3534085.0974562.8045438c.0638079.5247421.1218794 1.038128.1737778 1.5414784l.0954364.9937116c.6955728 7.8489093-.2637398 13.3541569-4.6672029 21.9257125l-.981104 1.8817987h-1.5142659c-2.9964815 0-5.9406991.4555021-8.8411445 1.3688643l-.6208571.2027294-2.1774738.7363857-3.2412267-7.4569402c-.7024383-.1098352-1.4436812-.2756219-2.2182157-.486446l-.7483908-.2142845-.2105464-.0659156.4767892 1.3297152 1.239782 3.3964923.7711765 2.0571358.4470719 1.1554164 1.3466582 3.4167123h-3.6725211c-3.3663074 0-7.3634421.8452961-11.9743581 2.5589435l-.57956.2187302-1.735695.6649539-1.1366945-1.470621c-4.0827674-5.2821613-8.97021826-9.8725235-14.67054855-13.7758369l-.71677563-.4843361-1.74382082-1.1627522.84063206-1.9199586c2.07710763-4.7440028 4.65462578-8.9189009 7.73329762-12.5163168l-.20190042-.254766-.41965043-.5148377-.41391084-.4923345-.41070083-.4725264-.41002037-.4554138-.4118695-.4409963-.52129082-.535077-.53307308-.5220255-.43826175-.4117609-.45149392-.4094724-.58682878-.5127283-.61639706-.5186282-.25594463-.2102825-.80412434-.644934-.56948689-.4450641-.59916126-.4602951-1.89431884-1.4355113.8093385-1.8131284c1.57672139-3.5322656 4.64377442-6.4351934 9.10129228-8.7420662l.450383-.22870167 1.1960879-.59597267 1.4178645.81108964-2.3988821-5.99928465 3.831537.13407358 1.2313948.03823769 1.1806695.02626753c5.9614466.10348002 10.0210957-.29551053 14.0443143-1.58711039l.4161416-.13681388zm-25.37707401 39.758483-.10308719.2133617.43170491.3071254c4.80079659 3.4563313 9.05103739 7.3963753 12.74650589 11.8176882l.4807892.5821864.1851443-.0646611c2.9194873-1.0133383 5.6496243-1.709455 8.193743-2.0838433l.7001127-.0954956-1.1282093-3.0857038-.2197569-.6111409-1.2879828-.6501541c-5.1506136-2.6034661-8.1621488-5.3811369-11.6716316-10.2337705l-.3204891-.4469176-.6321617-.9021717-.3205149-.4634449-1.2013098-1.7267698-.6048997-.8579862c-1.989502 2.4661993-3.7389235 5.2322769-5.24795701 8.3016978zm36.37520031-26.6037487-.1142875-.1971784h-.1351228c-.3290379 0-.6814862.0062786-1.0571003.0180085l-.8264275.0341124c.7238426 2.2357665 1.1107635 4.5455882 1.1559755 6.9255468l.0041812.5964486.0013458.8026476c.0464471 5.5944587.8691338 10.9515561 2.4671924 16.0791493l.245524.7674187.439413 1.3386628-.9175845 1.0691774c-1.2526453 1.4595932-2.5050562 2.5612781-3.7788921 3.2661435l.9034953 2.0779732.5183515-.1355783c2.0544866-.5160239 4.1324101-.8388829 6.2319118-.9680609l.5577367-.0293608.1027489-.2041232c3.7199791-7.5144491 4.3046115-12.1424408 3.4938995-19.5519453l-.3546712-3.0254176-.0500488-.4793058c-.1912539-1.8858254-.257557-3.5474462-.1642547-5.1449876l.0253263-.3812205-.5543112.8087564-.2218566.3302009-.4120395.6273629-.1901508.2970854-.3484841.560787c-.0545401.0897424-.1073081.1776195-.1583014.263625l-.2846415.4935215c-.0438837.0784932-.0859873.1551019-.1263082.2298198l-3.9389062 7.5516212-.8640774-8.2592967c-.2425908-2.318808-.7985251-4.2322811-1.6496356-5.7615938zm-12.3612875-7.4578896-.283757.0825c-3.7158878 1.04107538-7.4821544 1.44017753-12.3618314 1.44785564l-.6724116-.00135564.54914 1.37020465 1.2431957 3.14181035 2.9256436 7.6330386-11.3379793-6.4850536-.3554106.2047119c-1.89868455 1.1085095-3.36192844 2.3201541-4.40978222 3.6282514l-.21818939.2817804-.10161779.1382563.48354436.3875001.57017322.466053.54602385.4582384.524513.4531947.50564064.4509218.48940679.45142.59294924.5691969.5768599.5797166.2273933.2360444.4508564.4811216.4478152.4954743.4474124.5125979.4496481.5324924.2264869.2745726.4579489.5675296.4667808.5943514.4782513.6239441.4923603.6563076.5091078.6914422.8008349 1.1091019.8533585 1.2037409.9147868 1.3077318 1.2933885 1.8641483c2.8543194 4.0732563 5.0906095 6.4245964 8.5388233 8.4716506l.5016356.2905069 3.4392165-2.8012786 1.3567709.5279186.3581412.1316556.55795.1912403.2918943.0944718.6038904.1833735c1.2408681.3598354 2.3507371.5730577 3.0966332.5730577.4769837 0 1.170668-.3471661 2.035847-1.1227125l.188004-.1727749.1546525-.1499515-.2825338-.9729479c-1.3658555-4.8509755-2.105679-9.8815201-2.2200213-15.0866465l-.0136853-.920363-.0011929-.8358274c.0253622-5.1522652-1.9460437-9.9261253-6.0076779-14.39807382zm-1.4993004 5.137141c2.7990248 4.9363051 4.2313146 10.7990349 4.3208078 17.5545958l.0044742.6785309h-5c0-6.0042536-1.1500939-11.0991956-3.4265078-15.3181886l-.2482103-.4486847z"/>
    </g>
</svg>