<?xml version="1.0" encoding="UTF-8"?>
<svg viewBox="0 0 60 60" xmlns="http://www.w3.org/2000/svg">
    <g fill="currentColor" fill-rule="evenodd">
    	<path d="m18.4917645 1.07653975 2.3909368.18867122c6.1102232.48216386 11.1421583 2.27584573 15.0269474 5.40950083l.3723639.30744096.1509874.13084724.1455458.02974815c5.8430277 1.22265127 9.6534926 3.90842395 14.3491435 9.22052555l.3452063.3933943.3404717.3933923 2.239275 2.6380186 2.4785763 2.8858792-2.3236632 1.5742593c-1.9118733 1.2952754-3.5648169 2.578963-4.9604749 3.8466814l-.4109805.3798321-.3361.3202691.3019091-.021697c1.510234-.1036715 3.0517354-.1657444 4.6244934-.1862994l1.1854289-.0076329.9968105.005527 3.7405088.0408434-1.4685002 3.4404333c-4.5622251 10.6884772-11.4881221 17.8777499-20.328386 20.4195325l-.4436064.1232109-.2276581.0580822-.2004934.1787713c-3.7172198 3.220498-8.5546178 5.1380258-14.444669 5.7782219l-.5732888.0579678-.5798475.049998-2.3909368.1886712-.2876798-2.3810536c-.2272351-1.8807685-.2498502-3.7288546-.0669794-5.540852l.0685687-.6026579.048326-.3500667-.1076351-.0678919c-1.9197224-1.244535-3.6489542-2.7841775-5.1286271-4.5609029l-.3646849-.4490869-.1920529-.2481183-.0893172.0362124c-2.0732185.8074768-4.43276273 1.3472062-7.0760905 1.6284421l-.61503514.0603162-.5831167.0480374-2.86637868.2149567.18458237-2.8684948c.36464052-5.666681 1.71190798-10.1430365 4.11255692-13.365483l.24357879-.3180626.12522014-.1559244-.12522014-.1559075c-2.39561315-3.0430799-3.7988843-7.2667628-4.27429135-12.6131057l-.04587283-.5570723-.03597153-.5133677-.18458237-2.8684948 2.86637868.2149567c2.92359627.2192477 5.5219902.7339087 7.79231254 1.5552622l.4814751.1807028.0907719.0350263.1915229-.2460182c1.4370742-1.8156498 3.1291627-3.3993472 5.017113-4.6930742l.4760338-.3173571.1073303-.0685505-.047792-.34935016c-.2056191-1.62005164-.2452723-3.26983572-.1196171-4.9467231l.0548683-.6300981.0626255-.56923533zm4.5242355 5.46946025-.0007082.12018373c.006571 1.17501086.1177764 2.32627235.3331768 3.45541557l.1163811.5627359.4154083 1.8631531-1.6879365.8915009c-2.5939286 1.3700098-4.8334875 3.408431-6.50413 5.9144465l-.2590265.3995432-1.2417256 1.9701189-2.0531159-1.0990752c-1.3482175-.7217286-2.95265058-1.2743335-4.81526794-1.6500758l-.5143893-.0980844-.07966626-.0138624.03945506.2549801c.6317648 3.9254763 1.91553182 6.766901 3.78947344 8.5798353l.2188397.2046236.2159651.1886879 2.2611521 1.9098815-2.2611521 1.9098815c-2.03565458 1.7194152-3.44151041 4.5406139-4.14859266 8.5255805l-.07568558.4475663-.03945506.2539633.07976447-.012897c1.74793412-.3145142 3.27887473-.7778442 4.59416453-1.3840249l.3881187-.1861337.3444158-.1781215 2.0530751-1.1004621 1.2425839 1.9703095c1.6118753 2.5558784 3.8025392 4.6536376 6.3575246 6.0925892l.4064151.2216988 1.6875475.8910775-.4145923 1.8627799c-.2497561 1.122164-.3955066 2.2658318-.4368098 3.432742l-.0119456.5854.000738.1180423.5731666-.0953499c3.904743-.6989867 7.0712374-2.1112746 9.5394559-4.2210368l.3179848-.2791405.2983042-.2758573.4948298-.4693889.6646457-.1530641c6.5341129-1.5047687 11.9927596-6.1644415 16.0684644-13.5184636l.2529281-.4631305.1802205-.3415684-.6595557.0266154c-2.0587035.0920637-4.0520932.2632988-5.9802004.5134697l-.9586136.1316623-.8298621.1259914-5.1467185.8166939 2.5838803-4.5254019c1.641646-2.8751749 4.2418813-5.6792752 7.7895504-8.4407135l.4896445-.376298.2428751-.1830193-1.4386917-1.6862903c-4.2846568-4.9182695-7.3512842-7.1019467-12.2711912-8.0649968l-1.1005759-.2007836-.5360963-.4953614c-2.524849-2.3330002-5.8340972-3.88197173-9.9751378-4.62732954l-.5009205-.08558434zm1.0482547 18.8601475c.5607123 5.6674953 2.7710447 9.5483111 6.6694872 11.8961149l.3032104.1775808-2.4742729 4.344879c-5.4587767-3.108603-8.6136025-8.3507059-9.4254922-15.4693751l-.0486404-.4569292z"/>
    	<circle cx="34" cy="22" r="4"/>
    </g>
</svg>