<?xml version="1.0" encoding="UTF-8"?>
<svg viewBox="0 0 60 60" xmlns="http://www.w3.org/2000/svg">
    <g fill="currentColor" fill-rule="evenodd">
    	<path d="m10.6834923 1.31249622 1.2974449.11356662c2.3157059.20269601 3.9003258.74908425 5.7712307 1.79784356l.3543979.20256827.9929771.57851776c1.0940674.61152168 1.7720633.8134214 2.9004571.8134214.9658623 0 1.7506219-.17647818 3.0094987-.68060901l.2992246-.12222301.5695285-.2431231 1.2594415-.55267467c2.5166768-1.06922804 4.2827827-1.43912729 6.5976607-1.06782743 2.1490416.34470016 3.6928188 1.19540634 6.1456014 3.04702986l1.5213462 1.15634776.3808663.27612591c1.1451947.81117647 1.9190494 1.16938615 2.5833558 1.2109937l.1314782.00414055.1568605-.00121069.3103203-.01021114.317439-.0217654.165759-.01565353.3543364-.04172467.3964141-.05678275.4524753-.07324237 1.5180265-.26913315c3.6792305-.62508456 6.0574134-.43063993 9.0519939 1.31781865l.3120616.1864486 1.1382568.69526882.0563407 1.33261124.0469767 1.2919643c.3418608 11.2803747-1.2525064 19.0768484-4.7084746 24.4596101-2.3143241 3.6046207-4.8218292 5.6760774-9.0967741 7.8615781l-.4334442.2189912-.8218801.4024953c-.3745598.1800479-.7617021.3618633-1.1622649.5463229l-.6110143.2787822-1.0736617.4856141-.7544894.3474831-.8651421.4100524-.7856008.3880046-.2936709.1502175-.5547541.2937587-.5145462.2871216c-1.287544.7394525-2.2076126 1.4392472-3.0669121 2.3136388l-.5187161.5432038c-9.4880673 9.8238464-25.0619152 11.3049339-30.69651747 2.140241-1.15290181-1.8751973-1.77844455-3.7671004-1.94889162-5.7665115l-.03277506-.4900816-.02386545-.5901173-.00589451-.4744146.00457406-.3075569.01205974-.3054453.02013059-.3075032.02878662-.3137301.03802782-.3241266.0478542-.3386921.05826573-.357427.06926245-.3803311.08084433-.4074046.0930114-.4386473.16361039-.7256714.2661935-1.1158245.64792732-2.6086931c1.05809354-4.3352811 1.36501689-7.2450439.88751926-11.0113809-.15347508-1.2105586-.2750943-2.3503031-.36267061-3.4295052l-.04844313-.6403383-.05711574-.9343419c-.40486094-7.8030119 1.24161796-12.37126664 5.91506506-18.28677133l.29604063-.37151471.57953583-.71057398.30044826-.36081107zm-2.6270161 33.74809758-.05692004.3548534c-.20160002 1.1967197-.47019403 2.4510827-.80334251 3.816691l-.47626432 1.9113548-.38312819 1.584933-.1461886.6442883-.15269168.7354719-.05968175.3237004-.07048373.4416649-.03522533.2709721-.02655728.256824-.01852611.2466434-.01113181.2404302-.00437438.2381848.00174617.2399067c.00306277.1613935.00978133.32658.01930651.5008496.07207679 1.3186934.45030722 2.5314546 1.24375823 3.8220044 2.76907907 4.5039131 10.29453282 4.9014604 17.03017482 1.3626965-2.5674537-8.7401195-9.2122951-16.0035693-16.05047-16.9914694zm.0452863-9.3183902.1462675 1.2064418c.12146809 1.0837135.1865952 2.1113837.19703819 3.1194156 8.71848111 1.0700504 16.55825981 9.1504864 19.97146871 19.0445609.4496772-.387261.8882546-.7963289 1.3136503-1.226596l.4209248-.4373109.2156485-.226818c1.4152838-1.4667079 2.8432855-2.5128843 4.929562-3.6331436l.4262236-.2251862.6858303-.3489257.3604686-.177921.3728477-.1807449.7848628-.3715174.8404702-.3874802 1.5467474-.7009239.8248343-.3834794.7764737-.3731964.7306837-.3652755c1.9636786-1.0033971 3.4295626-1.9427696 4.6437997-3.044289-5.6183215 2.0868601-10.3307496 2.6661209-14.1831058 1.667479-3.2762966-.8493106-5.5531257-2.1896901-8.6688778-4.8416424l-.7347487-.6356448-.3801123-.3359844-1.7013794-1.5281336c-.0715966-.0636735-.1423122-.1263609-.2121892-.1880911l-.6074012-.5304987c-.1956856-.168734-.3849723-.3296276-.5690078-.4834564l-.5375011-.4410672c-1.135427-.9130846-2.0974872-1.5604451-3.2013868-2.1550623-2.9531292-1.5907075-5.7268539-2.1806992-8.3920919-1.8155083zm-.01199308-8.3472287-.29894247.082202c-.07943014.8218926-.1133873 1.6900749-.1055372 2.6212767l.00969762.5664172.00336637.0875403c3.65917206-.4389898 7.40314896.37608 11.16664806 2.4032944 1.9057285 1.0265235 3.4052892 2.1269583 5.4617583 3.9199988l.7074371.6241809 1.2434714 1.118809.6809401.6061183.3382583.2953897.6483983.5528524c2.4187577 2.024992 4.1086871 2.9861306 6.4158663 3.584218 3.771319.9776347 9.4188865-.2957425 16.8331352-3.9928032l.7542049-.3805382c.5083154-1.5140263.9168627-3.20782 1.2210728-5.0996683-2.9863283-.7268148-4.7925234-.410839-7.4586402.7701691l-.8731267.3958871c-2.9361972 1.3281171-4.9743759 1.7651281-7.9831435 1.2637706-3.5801727-.5965718-6.8228619-2.0069555-11.1519478-4.5507568l-1.2598897-.7539981-3.6789366-2.2397015-.6439342-.3756932-.3038094-.1730128-.5745297-.3178341c-.1845869-.0998767-.3625378-.1938167-.5347129-.2822135l-.5000586-.2489547c-.2422261-.1165562-.4733926-.221526-.6964034-.3162378-2.4604033-1.0449235-5.4406143-1.1568796-8.99176101-.2717215zm4.71323058-10.8069749-.1550864.19497766c-1.4931803 1.8772361-2.6088138 3.54289184-3.40016937 5.24008144 3.77478947-.6512819 7.19109687-.354698 10.21718577.9304701 1.030839.4377932 2.1147389 1.0033908 3.4399154 1.7750758l.7734915.4583213 3.5899342 2.1889041c4.348563 2.6258142 7.3378309 3.9946412 10.4081923 4.5062621 1.764274.2939848 2.8646817.0934261 4.7746139-.7422275l.8798625-.3974484c3.6123276-1.6464838 6.4046192-2.1991517 10.3688474-1.3607326.1060241-1.7631144.1429399-3.6619327.1094561-5.7040465l-.015859-.7725245-.0113843-.381113-.1092015-.0469672c-1.2647532-.5202662-2.4496641-.5454555-4.3392501-.2448766l-.340931.0563905-.3201383.0563633-.6597843.1193582-.6318701.109531-.5590342.0889774-.5039457.0697733c-.6430896.0808282-1.1866025.1140445-1.8198429.1140445-1.9491551 0-3.5770775-.7038819-5.561097-2.1039304l-.3340833-.2397861-.3447485-.2547761-1.5818778-1.20262274-.4657872-.34165483-.2193774-.15625324-.4143941-.2846431-.3854753-.24920515c-.8690284-.54173344-1.5367962-.81084685-2.2476715-.92486923-1.1896289-.19081308-2.1469211.00718432-3.8676549.74000453l-.3117866.13490272-.9322544.41152952c-2.3790026 1.03541381-3.8067088 1.44312355-5.8317939 1.44312355-2.0953987 0-3.5435895-.44778209-5.3326983-1.44508526l-.3396943-.19345888-1.0499757-.61114772c-.7155497-.39955842-1.3255153-.67436751-1.9896076-.86211538l-.2883905-.07524297z"/>
    </g>
</svg>