<?xml version="1.0" encoding="UTF-8"?>
<svg viewBox="0 0 60 60" xmlns="http://www.w3.org/2000/svg">
    <g fill="currentColor" fill-rule="evenodd">
    	<path d="m59.409188 21.2285129c.2025834.8247384.2007428 1.6921907.0568148 2.6998073l-.0483755.2874151-.0738152.3735751-.2052369.9380302-.4464247 1.9015266-.4564692 1.9170102-.04489.2059404c-.7059615 3.5027109-.4581282 6.0279931 1.1562387 8.2786702l.1782158.2401252-3.9668863 3.0436513c-2.8071209-3.6586089-3.2581083-7.6427796-2.2690078-12.550318l.0997397-.4542809.8620949-3.6344196.1901732-.8542772.074884-.3996724.0202248-.1535664.025025-.2618657.0072373-.200657c-.0002726-.0848558-.0059653-.1463747-.0152028-.1839812-.0376362-.1532211-.0815038-.2930832-.13343-.4204294l-1.0750182.7348632c-.5631624.3846645-1.1251099.7188538-1.6850069 1.0008106.6359301 3.1409658.3956654 6.2856988-.7179991 9.3849432l-.1536246.4128557-.7071083 1.8371654-1.9517671-.2564835c-.4361081-.0573094-.864762-.1244298-1.2866204-.2015385-.1899187.6404176-.4092998 1.2845922-.6561838 1.9309867 2.3606435 3.4856998 3.7681689 7.6446086 4.2300987 12.4356448l.049931.5659227-4.9840254.3993621c-.2409602-3.0071741-.8988319-5.6653871-1.9702762-7.9913345l-.2895778.4725484-1.0967012 1.7611309-1.9331212-.7532451-.569486-.226941-.0289386.0488896c1.2912568 3.8997257 1.5414641 8.1817628.7672588 12.8117921l-.0982418.5595625-4.9175615-.9042066c.4667947-2.5386803.5726557-4.9095923.3223099-7.1222963-.2033206.2263009-.409524.4477736-.6187122.6660647l-.4679456.478022-1.2560425 1.2560425-1.7035123-.8243804c-.2629467 2.8437518-1.0351596 5.7358989-2.3076445 8.6694821l-.2413167.5436284-4.5527414-2.0670135c.972252-2.1414528 1.6197352-4.2203221 1.9483955-6.2412083-.7027265.2080155-1.3988481.3613592-2.088245.4620792-.3497095 1.6166588-.8794064 3.2846532-1.5860679 5.003869l-.2452268.5822116-.7762018 1.7997419-1.932983-.3242481c-4.8212054-.8087326-8.9935132-2.9588647-12.45100194-6.4163534-3.338265-3.338265-5.45778131-7.3429011-6.32790781-11.954574l-.08844562-.4964279-.32424803-1.932983 1.79974182-.7762019c1.92546775-.8304256 3.78746171-1.4422094 5.5867603-1.8315733.10407537-.716737.26575508-1.441027.48568797-2.1706159-1.79904552.3108428-3.64413941.874115-5.53836409 1.6934384l-.49540298.2196115-2.06701352-4.5527415c3.02525873-1.3735132 6.00705867-2.2174276 8.93780722-2.5219304l-.78080679-1.6125478 1.25604249-1.2560425c.39401668-.3940167.79887628-.7778793 1.21453848-1.1515808-2.04399488-.2247846-4.22354284-.1463513-6.54542426.239212l-.51496408.0901207-.90420652-4.9175615c4.8020216-.8829618 9.23564186-.6778692 13.26353276.6337343l-.2025893-.5052417-.7532451-1.9331212 1.7611309-1.0967012.4374937-.2678271c-2.1945474-1.0132893-4.6852216-1.6579535-7.4860723-1.9311827l-.52074207-.0462326.39936212-4.98402547c5.03205715.40321082 9.38266535 1.82800087 13.00669275 4.28339637.6608392-.254009 1.319583-.4791727 1.9761234-.6753947-.0494358-.2707357-.0949532-.5452633-.1363746-.8227858l-.0648913-.462602-.2564835-1.95176709 1.8371653-.70710829c3.2328276-1.24428604 6.517645-1.53577818 9.7989025-.87302072.21064-.41887496.4512814-.83968918.7207175-1.26150073l.2789895-.4221091.7346572-1.07510223c-.127291-.05188955-.2670849-.09573008-.4202234-.13334603-.0626774-.0153957-.1917783-.02094502-.3846381-.00796545l-.2618657.02502502-.1535664.0202248-.2392447.04230573-.3446608.0718414-.6700441.15091008-3.6344196.86209491-.4542809.09973965c-4.767323.96084052-8.6632885.56270821-12.2359117-2.03414618l-.3144063-.2348616 3.0436512-3.96688633c2.2319589 1.71250292 4.7134221 2.04373156 8.1472131 1.40642471l.4610289-.09087024 3.6730792-.86898448.7571466-.17055947.4428351-.09457678.373575-.07381524.2874152-.04837548c1.0076165-.14392798 1.8750689-.14576861 2.6998072.05681482 3.0187422.74150446 4.8433383 2.89008024 5.2615258 5.98568152 2.2259204.80140299 4.1771846 2.0291626 5.8300784 3.6820564 1.6530727 1.6530726 2.8809191 3.6045803 3.6823798 5.831263 3.0956351.4173063 5.2439153 2.24185 5.9853582 5.2603412zm-40.1125492 30.3859059c-2.5303512-.6242184-4.8799538-2.0071857-6.9527335-4.0799654-2.0749697-2.0749698-3.45866871-4.4273477-4.0800052-6.9514151-.4564043.1171915-.92095017.2536499-1.39340292.4081223l-.5320919.1800811.07085563.2490208c.79665482 2.7131635 2.18964644 5.104957 4.19391879 7.2043183l.3215462.3290521c2.1775359 2.1775359 4.6774088 3.6768809 7.5333704 4.5154649l.2483137.0701486.0061979-.0159186c.2280439-.6509609.4226283-1.287283.5840309-1.908909zm5.663631-4.9965241-.2527269-.1744939c-2.1924207-1.5290104-4.2382103-3.2327578-6.1390187-5.1335662-1.9734399-1.9734398-3.7344712-4.1031522-5.3080762-6.3909835-.97787 3.417307-.0057052 6.455372 2.6189912 9.0800684 2.6249763 2.6249762 5.6634093 3.5970686 9.0808306 2.6189752zm10.1544471-5.3134115-.2175773-.1233874c-2.672397-1.5488066-5.2299535-3.4466813-7.6714287-5.6903183l-.1308932-.1220541-.0268314.0279103-2.5859677-2.5859678.0269096-.027832-.121347-.130186c-2.3040495-2.5072148-4.2434659-5.1368463-5.8146693-7.8875507-1.2192191.7412303-2.3576831 1.5531248-3.4158064 2.4346411l-.4790828.4091953.1864261.3504315c1.8653533 3.456715 4.0831298 6.5516067 6.736898 9.3030586l.5027113.511877c2.8778808 2.8778808 6.1421759 5.2576714 9.8149355 7.2396092l.3497245.1857191.0155052-.0155052c1.0350845-1.1871557 1.9785188-2.4798541 2.8304936-3.8796406zm6.9360497-7.8131423c-3.2151388-1.3622591-6.128793-3.4979158-9.147313-6.5164358-3.0187159-3.018716-5.154454-5.9325526-6.5162768-9.1467176l-.0408607.01163c-1.4590037.4398339-2.9547128 1.0627444-4.4869126 1.871411l-.2177933.1167021.0990647.2120921c1.7020428 3.5777965 4.0989886 6.9608352 7.2016784 10.1531852l.3685371.3742605.3742605.368537c3.1923499 3.1026898 6.5753886 5.4996356 10.1531852 7.2016784l.211385.0983576.1174092-.2170861c.8161881-1.5464511 1.4431486-3.0557295 1.8836363-4.5276144zm4.7287966-8.6699223-.2015136-.0166102c-.3822293-.0395776-.7621387-.1080978-1.1394309-.206186-2.2309639-.5800051-4.3312271-1.8825687-6.3037704-3.855112-1.9725432-1.9725432-3.2751068-4.0728065-3.8551119-6.3037704-.1151422-.4428895-.189541-.8893855-.2242079-1.339007-1.5902543-.3108587-3.1669828-.3048073-4.7460431.016619l-.2080496.0453901.0807841.32195c.9002585 3.4517573 2.7607739 6.3815154 5.9024087 9.5962703l.3543589.3584088c3.3568606 3.3568606 6.3750789 5.3231663 9.9546791 6.2567677l.321243.080077.0460971-.2073425c.3214417-1.5791355.3274783-3.1559391.0185565-4.7474548zm-.5736471-11.148976c-1.3486904-1.3486904-2.993833-2.2889437-4.9743272-2.8226991l-.4005818-.1013316-.3266164-.0732715-.0408332.0875602c-.3575169.7942839-.4814669 1.4829636-.4082543 2.0833496l.0278422.1774843.0357276.1581288c.3389066 1.3035894 1.1718834 2.6466874 2.5515092 4.0263132 1.3796259 1.3796258 2.7227238 2.2126026 4.0263132 2.5515093.619561.1610732 1.3405197.0952075 2.1854397-.2450487l.2335231-.0996359.086853-.0415403-.0725643-.3259093c-.4509088-1.9043579-1.2610736-3.5099508-2.4321064-4.8491134l-.2564596-.2828972z"/>
    </g>
</svg>