<?xml version="1.0" encoding="UTF-8"?>
<svg viewBox="0 0 60 60" xmlns="http://www.w3.org/2000/svg">
    <g fill="currentColor" fill-rule="evenodd">
    	<path d="m30 .799377c3.5259458 0 6.524066 1.29373188 8.8535037 3.79547588l.2664963.29614712.2837944-.01181439c5.2438636-.17459832 9.1012778 2.15256307 11.1551877 6.77631279l.1520179.3555016.236518.0944824c4.2081621 1.7266161 6.487779 5.1997209 6.6460086 10.0338291l.0076917.3476029-.0002183.2540856.1912024.3637425c1.8404353 3.6189071 1.9866229 7.2401485.3672787 10.6476145l-.1622246.3290802-.1630639.309014c-.9988459 1.8338169-2.9115825 4.0129613-5.4752223 6.3342644l-.3706338.3325599-.7019304.6142796-.7300732.619527c-.2825637.2362491-.5709924.4734585-.8650272.7114281l-.1211875.7271425c-.1104381.6474407-.226362 1.2733384-.3480693 1.8777571l-.1869356.8905268c-1.2437588 5.683818-3.0514397 9.3288272-5.6988019 10.9943089-2.9453945 1.8529767-7.2611115 1.9665101-13.0178168.5929371l-.3184946-.0781826-.3184946.0781826c-5.6011187 1.3364494-9.8380877 1.2650903-12.7759967-.4465025l-.2418201-.1464346c-2.6473622-1.6654817-4.4550431-5.3104909-5.6988019-10.9943089l-.1869356-.8905268c-.1217073-.6044187-.2376312-1.2303164-.3480693-1.8777571l-.1211875-.7271425-.43681526-.3563593-.42821197-.3550688-.7300732-.619527-.70193037-.6142796c-2.75003594-2.4455424-4.79944607-4.7456828-5.84585613-6.6668243-1.95809549-3.5949373-1.91371067-7.4470516.04737463-11.2962866l.184818-.3531646.00078169-.2540856c.05710186-4.8986994 2.2401824-8.4455736 6.35639976-10.2551373l.29730057-.1262947.23551798-.0944824.15301787-.3555016c2.00826753-4.52099973 5.74077413-6.8463476 10.80765543-6.78424862l.3475323.00793583.2827944.01181439.2674963-.29614712c2.1630493-2.323048 4.9026666-3.60449371 8.1060742-3.7757051l.3716757-.01482418zm-13.2065318 46.9599392-.4408677-.2979392.119846.4244317c.0401589.138383.0806297.2742414.1213988.4075724l.1854305.58292c.7806425 2.3576687 1.6591205 3.8252755 2.5469037 4.3837887 1.3239979.8329401 3.7629144 1.0065038 7.2738603.3675404l-.7302226-.3909849-.7264159-.3967213-1.047865-.584633-1.0375706-.5931745-1.0262264-.6009047-1.0138323-.6078239-.5019402-.3062532-.9932724-.6166818-.4910697-.3102259-.9703502-.6237149c-.427657-.2780833-.8503974-.5572554-1.2678063-.8371959zm26.854425-.2991745-.2850838.1941614-.7071535.471967-.7169304.470242-.9703502.6237149-.4910697.3102259-.9932724.6166818-.5019402.3062532-1.0138323.6078239-1.0262264.6009047-1.0375706.5931745-.5227114.2934349-1.0526184.5800581c-.5285766.2876572-1.060423.5716551-1.5949487.8515375l.66862-.3521737c3.5094185.638352 5.947375.4646571 7.2710153-.368058.8877832-.5585132 1.7662612-2.02612 2.5469037-4.3837887l.1854305-.58292c.0818176-.2675753.1624333-.5453295.2417385-.8332394zm-13.6478932-41.6607647c-2.4268807 0-4.2869754.92768292-5.7852806 2.90780111l-.1780731.24267386-.8687689 1.22038273-1.4858625-.19054051c-4.2792528-.54875256-6.7127676.84680431-7.9968138 4.52920221l-.0877284.2606262-.4103402 1.263046-1.2762877.3670888c-3.19795973.9198047-4.59841774 2.9012173-4.51041849 6.5620088l.01039075.3005132.03355253.7483164-.38346554.643473c-1.61988067 2.7182347-1.75126103 5.0553009-.50419249 7.3448385.88112666 1.6176918 2.86847378 3.7366024 5.60382204 6.0585787l.3457885.2912832.686306.5656294.8959111.7159625.9361493.7242022.3852427.2915853.391197.2925011.7997041.587289.821863.5895713 1.0568049.7387716.2151183.1478515.8724223.5912507.4431384.2953307.8994406.5894972.4560256.2939364.4600449.2932415.9315949.5839381.7103153.4351493-.7477254-.9790913-.8255797-1.100188-.8393146-1.1363616-.8530654-1.1725477-.8668319-1.2087465-.8806145-1.2449576-.4454805-.636062-.9013178-1.299298-1.3778981-2.0169059-.9359027-1.3899282-.9497644-1.4262021-.9636419-1.4624887-.9775353-1.4987878 4.1941434-2.7219775 1.0222743 1.5669064 1.0062004 1.5256307 1.2351174 1.8489711 1.2099344 1.7844242.4769141.6956899.9417127 1.3603752.9255426 1.3190234 1.13416 1.5906048 1.1088267 1.5259388.2438462.3299784-.467226-1.7111973-.4865211-1.8226804-.4864002-1.8651184-.4862842-1.9075649-.486173-1.9500202-.486067-1.9924841-.4859657-2.0349568-.4858694-2.077438-.485778-2.119928-.4856917-2.1624266 4.8807516-1.0854789.2681482 1.1991046.5362166 2.3582687c.1787206.7772129.3574224 1.5455485.5361045 2.3050047l.5359855 2.2517287c.446603 1.8542388.8930749 3.652969 1.3393978 5.3961591l.5355147 2.0651669.2677016 1.0125852.5405553 2.0048987.5440775-2.0181357.5389647-2.052444.5391131-2.1064723.5392545-2.1604884.269678-1.1004963.5394534-2.2414892c.1798388-.7561613.3596982-1.52132.5395772-2.2954743l.5396939-2.349447.5098119-2.2684694 4.8807516 1.0854789-.4856917 2.1624266-.485778 2.119928-.4858694 2.077438-.4859657 2.0349568-.486067 1.9924841-.486173 1.9500202-.4862842 1.9075649-.4864002 1.8651184-.4865211 1.8226804-.2433074.8954287-.2267176.8187686.6985793-.9513143.8952975-1.2395191c.3011466-.4201008.6050062-.8471282.9115756-1.28108l.9278344-1.3226253.9440738-1.3641555c.3173957-.4616384.6374947-.930196.9602939-1.4056701l1.4708111-2.1863119 1.5071973-2.2796338.9916649-1.5202329 4.1941434 2.7219775-.9775353 1.4987878-.9636419 1.4624887-.9497644 1.4262021-.9359027 1.3899282-1.3778981 2.0169059-.9013178 1.299298-.8875115 1.263068-1.3054154 1.8266981-.8530654 1.1725477-.8393146 1.1363616-.8255797 1.100188-.7475244.9780913.7116704-.4351138.9317888-.5840829.4601384-.2933139.9080732-.5885968.4476582-.2950527 1.0994324-.7389085 1.0695418-.7392933 1.0374901-.7378793 1.0032771-.7346665.776536-.5842112.75215-.5800828.7266575-.5750333.7000584-.569063.7270969-.6086792c2.4862956-2.1148576 4.3492659-4.0595852 5.3174746-5.6082609l.1321994-.2185208.1094447-.1938108c1.2040662-2.210588 1.1231099-4.4654833-.3419238-7.0649879l-.1622687-.2798506-.3834655-.643473.0335525-.7483164c.1682307-3.7520199-1.1436434-5.8079645-4.2446666-6.7856046l-.2553611-.0769174-1.2762877-.3670888-.4103402-1.263046c-1.2309591-3.7889479-3.5951946-5.28308883-7.7889756-4.82495453l-.2955666.03512612-1.4858625.19054051-.8687689-1.22038273c-1.5284775-2.14709312-3.4393978-3.15047497-5.9633537-3.15047497z"/>
    </g>
</svg>