<?xml version="1.0" encoding="UTF-8"?>
<svg viewBox="0 0 60 60" xmlns="http://www.w3.org/2000/svg">
    <g fill="currentColor" fill-rule="evenodd">
    	<path d="m30 1c15.8560952 0 28.7400219 12.7253658 28.9961148 28.520432l.0038852.479568-.0035512.2961714-.010817.3115507-.0183279.3298064-.026084.3509385-.0542048.5723225-.101707.8639052-.0640196.4816282-.1131765.7926267-.2363956 1.5321725-.5696162 3.4817985c-.4152342 2.8573587-.2580114 6.7050523.4969518 11.5082308l.0934664.5809655.7130867 4.3341442-4.0906141-1.6000548c-6.1544518-2.4073306-10.005277-6.1531086-11.2730009-11.1568889l-.0859901-.3553174-.3493806-.1857744c-5.4846705-2.9766922-8.3514368-7.4481882-7.4433683-13.4751869l.0554394-.3428126.0433095-.2422261-.1930809-.0248133-.2526242-.0361646-.255667-.0394726-.5227281-.0892643-.2681938-.0499893-.5528791-.1111869-.5796321-.1270146c.673134 2.1999744 1.1009927 4.6952315 1.2936108 7.4837115l.035832.569369-4.991931.2839441c-.2401-4.2211208-1.0525614-7.5268856-2.3877117-9.9273695-.9403949-.1372776-1.8841067-.0641334-2.7688667.1868977 2.3021558 2.2743286 3.6697458 5.5159833 4.0883799 9.6040304l.037555.3983136-4.9814959.4297658c-.2976394-3.4499951-1.3321773-5.816662-3.1269211-7.2875901-.5054563.9435125-.7660726 2.0428936-.6825762 3.2443654.1405042 2.0217858.7139821 3.0407118 2.4515871 4.7050511l.2333061.2208834 1.1261188 1.0525025c1.5114445 1.4429797 2.6283526 2.8104204 3.4640142 4.4475463l.187904.3827428.0379999.0837416.3934668-.1125553c7.0281858-1.9347782 13.387112.2273834 18.1455241 6.8709896l.2446926.3476333.2340544.3440409 1.416979 2.117854-2.144504 1.3763131c-4.6319446 2.9727181-10.0224302 4.5777244-15.6442129 4.5777244-16.0162577 0-29-12.9837423-29-29s12.9837423-29 29-29zm-23.20365755 22.8434413-.0048463.0207135c-.5164199 1.9585458-.79149615 4.0150718-.79149615 6.1358452 0 13.254834 10.745166 24 24 24 3.4761933 0 6.8394841-.7389592 9.9153013-2.1365075l.483241-.2261268.1604577-.0793657-.2784419-.3024735c-3.5487405-3.7532996-7.7896542-4.4599355-12.8079153-2.5429491l-.3283809.1287362-.3173242.1305615-2.623385 1.1040091-.7564243-2.7438672c-.5659851-2.0530646-1.4032287-3.3499191-2.9680955-4.8920829l-.2676266-.2594705-1.3619703-1.2761102c-2.5670393-2.463233-3.7432032-4.5024026-3.9843357-7.9721817-.0778903-1.1208019.0045782-2.1899965.2234938-3.1953844-3.2676789-1.1076562-6.04305973-3.0844981-8.29225165-5.893346zm25.45965615-17.73880175-.0138304.23661968c-.3916231 7.94934047 2.9521136 13.33128107 10.228949 16.59455177l.3733992.1641053-.0725164.1670837.0126327.0006149-1.2385444 3.3638022c-2.0938337 5.6867094-.1868189 9.1027537 5.0965081 11.5941767l.2862617.1325922 1.2644752.5753694.1792199 1.3776167c.335989 2.5826584 1.6360833 4.7374597 4.0126413 6.4967453l.2903611.2092178.1444444.0988648-.0614013-.6733509c-.2518774-2.9343543-.2418939-5.5019615.0362727-7.711536l.0637142-.4680034.0635382-.4068172.5179555-3.1532702.2320751-1.5141313.1389894-.9986443.0841501-.6898524.0519518-.5098724.0397742-.5421558.0129801-.4483661c0-12.4940475-9.5470863-22.75825354-21.7440014-23.89536045zm-18.3076246 6.05347775-.1194988.1076701c-1.8920199 1.72624-3.5067991 3.7511917-4.76974296 6.0002602 2.04742466 3.6511635 4.76150906 5.9240225 8.23938786 6.9245808 1.0078519-1.2296462 2.2727151-2.2315101 3.6884561-2.9528743-2.9264265-2.4211681-5.2079783-5.619583-6.8306826-9.5612888zm13.2991617-6.00179217-.3762937.04576548c-3.1331698.40791029-6.0765102 1.42010525-8.7092531 2.91581665 2.0919857 6.21293774 5.7835961 10.21235504 11.1585621 12.19333094l.310449.1107618 1.9146353.5521868.6929531.1920287.5591488.1507274c-3.8861142-4.0041186-5.7606695-9.2675133-5.56902-15.66617586z"/>
    	<circle cx="47.5" cy="31" r="4"/>
    </g>
</svg>