<?xml version="1.0" encoding="UTF-8"?>
<svg viewBox="0 0 60 60" xmlns="http://www.w3.org/2000/svg">
    <g fill="currentColor" fill-rule="evenodd">
    	<path d="m33.7522899 1.89604153c7.3887107 1.97979907 13.1877462 6.93099196 16.4559429 13.22343547l.2673678.5219191c1.5607641 3.0410107 2.5346326 6.4699186 2.9799216 11.0221236.3270517 3.3434619 1.3820921 6.5197791 2.5001479 9.5429031l1.3007191 3.4769373.2241746.6177644.2167579.6133096.2079054.6088849.197617.6044903c.0639981.2007677.126042.4008079.1858927.6001258l.1727323.5957915c1.1873275 4.2543796 1.2501401 8.1771556-2.1900119 11.8182288-3.935193 4.1650269-9.4960192 4.4847388-14.3460547 3.1621054l-.5563322-.1597747c-.1843039-.0556042-.3674235-.1135125-.5492257-.1735997l-.5413218-.1866726c-.6266213-.2251182-1.2354768-.4753916-1.8208671-.7454463l-.4958836-.2361945-.4835929-.2451312-.2369381-.1256819-.4636612-.2571262c-.1522173-.0869267-.3020538-.1750294-.4493765-.2641829l-.4342941-.2704876c-.7108118-.4556486-1.3554572-.9344329-1.9173196-1.4206854l-.4056153-.365845-.3730139-.3671767c-.2374626-.244902-.4521524-.4897126-.6419923-.7324734-3.9548133.8655787-8.1705868.8237346-12.3514612-.2965273-13.9620384-3.7411169-22.2477324-18.0923599-18.50661547-32.0543984 3.74111692-13.9620384 18.09235987-22.2477324 32.05439837-18.50661547zm17.7535032 44.64876617c-.4218839.0182699-.8609634.0804031-1.35909.1970673l-.3853202.0978894c-.1325664.0361491-.2694773.0758731-.4113864.1193386l-.4413761.141788-.7268778.2569623-.8164248.3130989-.6005708.2415865-1.338187.5594287-.7724922.3251751-.7170587.296613-.6663763.2690346-.620445.2424399-.5792649.2168292c-.2801293.1021758-.5465977.1951165-.8020778.2793755l-.4971009.1571062c-.1613445.0486196-.3185971.0935445-.4725498.1349388l-.4527498.113755c-.7567434.1762158-1.4480418.2645851-2.1794398.2869626 1.5417182 1.1920132 3.9747355 2.3697349 6.4341572 2.8953445 3.6040855.7702387 6.5468761.1237783 8.5359075-1.9814219.4984909-.5276051.8787088-1.0468776 1.1392608-1.6132163l-.0114776-.0041495c.8345041-2.6438778-.0020969-3.6436855-2.2590596-3.5459464zm-44.97827244-24.8480554c-3.02640787 11.2947079 3.67637364 22.9042661 14.97108164 25.930674 3.1403982.8414672 6.3593573.9481236 9.4707907.3482855l.5175447-.1065097.1411512-.0454318.1240455-.0341385c5.0449828-1.2521858 9.1297748-5.4952456 11.0392067-11.3243447 3.0724993-9.3797024-.792917-18.209084-10.289786-20.1516446-3.2365331-.6620246-6.9698143-.220658-9.6621583 1.5545217l-.3624085.2493225-.0810035.0515913c-4.0530642 2.4746629-5.6610132 7.7598752-4.1949204 12.6297146 1.4558501 4.8358165 5.2638535 7.2957203 10.2937557 5.8969635 3.5443945-.9856545 5.0958393-3.9504117 4.4082743-7.1475435-.6031373-2.8045488-2.3930897-3.9422642-4.6098098-2.7439708l-.0292713.0382664-.0623777.1011538c-.0615997.108284-.1420251.2737734-.2021257.4757129-.129928.4365616-.1125483.8527634.0136244 1.1078315.6121835 1.2375769.1052018 2.737104-1.1323751 3.3492874-1.237577.6121834-2.7371041.1052018-3.3492875-1.1323752-1.4368584-2.9047224-.2422587-6.9186084 2.3841259-8.3383543 5.4797678-2.9622006 10.6331729.3133657 11.8757354 6.0911994 1.2175947 5.6617357-1.7238023 11.2826433-7.956905 13.0159961-7.8116156 2.1723186-14.2221946-1.9688037-16.4211016-9.2727914-2.0773057-6.9000709.2333501-14.5433566 6.3125321-18.2988778l-.0885071.0617056c3.9821087-2.8525315 9.2600046-3.5301109 13.8661944-2.5879264 8.0844322 1.6536502 13.1536072 7.1113383 14.7624469 13.9518341-.4031566-2.8077627-1.0681139-5.0514624-2.0437408-7.0536605l-.1794846-.3588429-.1122119-.2168784c-2.6298453-5.2742333-7.307231-9.23217476-13.0596579-10.89685873l-.4127028-.11499271c-11.294708-3.02640787-22.90426617 3.67637364-25.93067404 14.97108164zm42.28199714 7.8663559.0084612.2926351c.0469396 2.6460823-.3710638 5.4062718-1.2750685 8.1660104-.599123 1.828998-1.3781219 3.5456575-2.3150372 5.1190771l.773999-.3069001.6339247-.2383424c1.8429616-.6739145 3.1803684-.9822965 4.6536708-1.0460987.4577583-.0198235.9017049-.0099705 1.3300176.0281329l-.2312283-.6397399-.2757533-.7409599-.6155226-1.6357598-.3959427-1.0712244c-.0633796-.1738202-.1254678-.3453664-.1862856-.5147655l-.3498293-.9916439-.3203457-.9462036c-.5978322-1.8085326-1.0325594-3.3916821-1.3379917-4.9539531z"/>
    </g>
</svg>