<?xml version="1.0" encoding="UTF-8"?>
<svg viewBox="0 0 60 60" xmlns="http://www.w3.org/2000/svg">
    <g fill="currentColor" fill-rule="evenodd">
    	<path d="m30 1.33006622 1.8302174 1.96690578c3.3819585 3.63453754 6.0218247 8.5934229 7.9526348 14.8606517l.197211.6530004.0189368.0653759.7508443-.0158154c6.1049252-.0934486 11.3211828.7481063 15.6447277 2.5540127l.4767199.2046262.4693713.2125723 2.4362068 1.1328329-1.3050702 2.3484474c-2.411568 4.3395676-6.3119847 8.3826093-11.6758204 12.1555991l-.6169794.4267248.2476213.7100426c1.9754005 5.7772517 2.7869465 10.9982623 2.4054763 15.6682535l-.0472965.5166206-.0571246.5120871-.3245587 2.667035-2.6367952-.5154854c-4.8723895-.9525373-9.9228458-3.4126855-15.1686886-7.3480783l-.597634-.4544751-.597634.4544751c-4.8840606 3.6639864-9.5987552 6.0491936-14.1580616 7.1295005l-.5059508.1146628-.5046762.103915-2.6367952.5154854-.3245587-2.667035c-.5997344-4.928268.1793287-10.4917649 2.3010552-16.6969612l.2466213-.7100426-.6159794-.4267248c-4.99391597-3.5127836-8.71930351-7.259655-11.15563962-11.2619799l-.26539824-.4457551-.2547825-.4478641-1.30507028-2.3484474 2.43620683-1.1328329c4.50173326-2.0932998 10.03367701-3.0715819 16.59081891-2.9712112l.7498443.0158154.2171478-.7183763c1.7976508-5.8350061 4.2099293-10.53590718 7.2634972-14.08978691l.3419257-.39015462.3472119-.38071017zm0 7.62293378-.1860412.2629577c-2.1848072 3.1385701-3.9723542 7.2078122-5.3422116 12.2176232l-.1763066.6587885-.518863 1.9811448-2.0445181-.1187394c-5.2544904-.3051648-9.7433849.0785465-13.46978315 1.1286459l-.48172803.1407468-.30654832.0958325.19156855.2580388c2.21323068 2.9203059 5.35181675 5.757776 9.42959255 8.4980079l.561883.3730639.5494038.3563809 1.7238432 1.1056755-.7447187 1.9077598c-1.9139558 4.9030162-2.9361694 9.2907819-3.0889859 13.1592958l-.015004.5016437-.0035825.3211337.3046034-.1024292c3.4613019-1.2024833 7.1297727-3.3106295 10.9959901-6.3420465l.5284363-.4190995.5087135-.4123862 1.5842567-1.2977998 1.5842567 1.2977998c4.0716006 3.3353954 7.9287324 5.6634724 11.5606848 7.0042461l.4724551.1692861.3036034.1024292-.0025825-.3211337c-.0740285-3.6634814-.9453749-7.8038575-2.6336969-12.4176082l-.2352914-.6320816-.2350016-.6112497-.7447187-1.9077598 1.7238432-1.1056755c4.4303434-2.8416284 7.8363954-5.7905633 10.2338821-8.8304335l.3069972-.3970192.1905686-.2580388-.3055483-.0958325c-3.507054-1.0616728-7.7140465-1.5124197-12.6237043-1.3324574l-.6738544.0284515-.6539525.0346132-2.0445181.1187394-.518863-1.9811448c-1.3334979-5.0916184-3.0855737-9.2422374-5.2357979-12.46175426l-.2827203-.41465744zm-2.6450336 27.1875765c1.292551.9390932 1.6150142 2.7171265.7631857 4.0448056l-.0994905.1456011-1.1755705 1.618034c-.9738745 1.3404232-2.8499835 1.6375697-4.1904068.6636952-1.2925509-.9390932-1.6150142-2.7171265-.7631856-4.0448056l.0994904-.1456011 1.1755705-1.618034c.9738745-1.3404232 2.8499835-1.6375697 4.1904068-.6636952zm9.3727434.5240809.1077306.1396143 1.1755705 1.618034c.9738745 1.3404232.676728 3.2165322-.6636952 4.1904067-1.292551.9390933-3.0832078.6963316-4.0826762-.5240809l-.1077306-.1396143-1.1755705-1.618034c-.9738745-1.3404232-.676728-3.2165322.6636952-4.1904067 1.292551-.9390933 3.0832078-.6963316 4.0826762.5240809zm-15.0049148-10.0031162.1692191.0496278 1.902113.618034c1.575762.5119961 2.4381147 2.2044585 1.9261186 3.7802205-.4937106 1.5194848-2.0850741 2.3756081-3.6110014 1.9757464l-.1692192-.0496278-1.902113-.618034c-1.575762-.5119961-2.4381147-2.2044585-1.9261186-3.7802205.4937106-1.5194848 2.0850741-2.3756081 3.6110015-1.9757464zm20.1654115 1.9757464c.4937105 1.5194848-.290513 3.1474831-1.760047 3.7209058l-.1660716.0593147-1.902113.618034c-1.5757621.5119961-3.2682245-.3503565-3.7802206-1.9261186-.4937105-1.5194848.2905129-3.1474831 1.7600469-3.7209058l.1660717-.0593147 1.902113-.618034c1.5757621-.5119961 3.2682244.3503565 3.7802206 1.9261186zm-11.8882065-8.6372876c1.5976809 0 2.9036609 1.24892 2.9949073 2.8237272l.0050927.1762728v2c0 1.6568542-1.3431458 3-3 3-1.5976809 0-2.9036609-1.24892-2.9949073-2.8237272l-.0050927-.1762728v-2c0-1.6568542 1.3431458-3 3-3z"/>
    </g>
</svg>