<?xml version="1.0" encoding="UTF-8"?>
<svg viewBox="0 0 60 60" xmlns="http://www.w3.org/2000/svg">
    <g fill="currentColor" fill-rule="evenodd">
    	<path d="m30.0000395.70392314.6482175.17402604c5.8487352 1.57020154 8.6218643 5.96025964 8.6218643 12.27895092 0 1.2272343-.1503339 2.2557337-.5105207 3.6988118l-.1813576.6977069-.3756242 1.3585854-.1429665.539445-.0637821.2523441-.1119082.472044c-.3612317 1.6075945-.3184027 2.4397612.2111348 3.1847424.7657597-.8056492 1.3344982-1.7422189 1.7893011-2.8716167l.125562-.3243528c.1494015-.4014302.2468645-.6794532.3626823-1.0774653l.1307442-.4701193.297704-1.1519877.1751155-.6935503c2.3524366-9.33710695 6.3260064-12.50653548 12.9366566-11.89260697l.5493002.05893031c.5552803.06735173 1.1285634.1598206 1.7204134.2760827l.5980599.12414416 1.7458219.38128781.204351 1.77525077c1.07345 9.32534562-.5618756 16.81543792-4.7744658 21.94577222-2.3089916 2.8120225-5.9007374 4.1323494-9.5315993 3.6198033.0829643.8256871.0981449 1.6945449.0413233 2.6042655-.0579386.9276057-.1569791 1.8364036-.295446 2.7220818 5.1229735 1.7041917 7.9578426 4.6034094 7.9578426 8.7917196 0 5.9235563-5.0880342 9.7625502-11.8869195 11.4087816l-.3531749.0831939-1.2890964.2952711-.9694683-.899492c-1.3112854-1.2166366-2.5520962-2.87607-3.7462569-4.9812945-1.2127973.4078788-2.5106985.6250303-3.8835513.6250303-1.3728527 0-2.670754-.2171515-3.8837014-.6257098-1.1098575 1.9575603-2.2601795 3.5292616-3.4699437 4.718188l-.2761559.263786-.9694683.899492-1.2890964-.2952711c-6.9750982-1.5976658-12.24009445-5.4662889-12.24009445-11.4919755 0-4.1882097 2.83473315-7.0873888 7.95741065-8.7915056-.1380421-.8858922-.2370825-1.7946901-.2950212-2.7222958-.0568038-.9094362-.0416504-1.7780351.0404352-2.6047161-3.5362793.4994445-7.03524279-.7402021-9.34813169-3.4031711l-.18257232-.2161816c-4.12833838-5.0277276-5.7814719-12.3217668-4.83562327-21.38845798l.06115752-.55731424.20435094-1.77525077 1.74582193-.38128781.59805986-.12414416c.59185-.1162621 1.1651331-.20873097 1.72041341-.2760827l.54930026-.05893031c6.52009336-.60551853 10.47486026 2.46937632 12.83906586 11.51235617l.5704102 2.2257888.065328.2396591.0654162.2304602c.1158178.3980121.2132808.6760351.3626823 1.0774653.474946 1.2761429 1.0771491 2.3143892 1.91295 3.1963838.4076747-.5710682.5277225-1.1930345.3992036-2.1757564l-.0581152-.376608-.0799369-.4122476-.0480247-.2205447-.1119082-.472044-.1327152-.516133-.4496575-1.6342415-.1813577-.6977069-.151556-.6388318c-.2513292-1.1254114-.3589647-2.021551-.3589647-3.05998 0-6.20167848 2.6713717-10.54549324 8.3000969-12.18882208l.3217674-.09012884zm-12.9370682 42.53045766-.075969.0257259c-2.8842925 1.0154128-4.115466 2.3456213-4.115466 3.9181121 0 2.6560576 2.6810798 4.9211836 6.7626937 6.1901905l.23277.0705907.1429528-.172446c.5889638-.7354427 1.1896128-1.6414916 1.7961246-2.7174149-2.0458697-1.8228318-3.6575506-4.3401033-4.7431061-7.3147583zm25.8746329-.000614-.0327584.0882318c-1.0851175 2.9364752-2.6851687 5.4222133-4.7099917 7.2251497.6055803 1.0779141 1.2062293 1.983963 1.7951931 2.7194057l.1419528.172446.23377-.0705907c3.9795735-1.2372817 6.6277644-3.4214992 6.7576867-5.9917286l.005007-.1984619c0-1.5861243-1.2526146-2.9257469-4.1908595-3.944452zm-12.9375647 1.7901463c-2.0593645 0-4.1190522.1096813-6.1794151.3291424 1.6370824 2.1258581 3.7733455 3.3566537 6.179372 3.3566537 2.4061397 0 4.5424906-1.2309115 6.1792979-3.3535746-2.0602027-.2225402-4.1198904-.3322215-6.1792548-.3322215zm0-9.5239131c-3.1086521 0-6.2213571.4327556-9.3434301 1.3011652.1635299 1.3557202.4328137 2.6301777.7950792 3.8045353 2.8480768-.3883416 5.6979511-.5817874 8.5483509-.5817874 2.8502771 0 5.7000289.1934292 8.5485261.5800837.3624879-1.1728889.6316451-2.446727.7951107-3.8016993-3.1229444-.8696343-6.2353167-1.3022975-9.3436368-1.3022975zm-.0000395-8.7902908c-2.0985153 0-3.9302543.3625617-5.410497 1.0760168l-.1612255.1442684-.0387817-.0446289c-1.1058464.569233-2.0044502 1.3427975-2.658079 2.3154966l.0078679.0091181-.0313597.0260863c-.2668044.4026372-.4919671.8390507-.6728512 1.3088774 2.9837819-.6961951 5.9729447-1.0449439 8.9649657-1.0449439 2.9920209 0 5.9811837.3487488 8.9643411 1.0445302-.1809186-.4702025-.4062546-.9069561-.6733494-1.3098863l-.0303159-.0246637.0076697-.0092696c-.6532784-.9723098-1.5515947-1.7457284-2.6570586-2.3149198l-.039525.0442036-.1592974-.1432989c-1.4805934-.7140962-3.3130398-1.0769863-5.412504-1.0769863zm-23.54326458-16.86448382-.39373542.04977462-.0179542.235583c-.47918336 6.9020227.82282334 12.253027 3.65302651 15.8748696l.20981166.2619243c1.78864273 2.1783118 5.14644623 2.6453336 8.03322203.5725342.0545236-.0741423.1104303-.1453979.1671609-.2159279l.0285135.0319688c-1.1605994-1.2612634-2.0249718-2.7061843-2.6841981-4.361581l-.2430563-.6418142-.1988931-.567175-.1067047-.3346498-.1079825-.3670134-.1611682-.5914591-.459469-1.7992207c-1.118866-4.4409154-2.5299398-6.778727-4.1654724-7.6848725-.89422012-.49543096-1.97632165-.64341916-3.55310068-.46294092zm43.53342848.46294092c-1.585971.8786865-2.9608806 3.1035862-4.0629542 7.2869279l-.4681711 1.8377088-.1779421.6734704-.1850247.6444586-.1067047.3346498-.1142233.3322357-.1791972.4909905c-.6244871 1.6779484-1.4447762 3.1458659-2.5503408 4.4300977l-.2552403.2837035.1681702.214277.0807497.0602086c2.7984449 1.9579983 6.0192548 1.5504873 7.8202783-.4744257l.1325523-.1550922c2.9754427-3.623665 4.353709-9.0664291 3.8628382-16.1367939l-.0189542-.235583-.070693-.00930504c-1.7537062-.23913539-2.9213083-.10598835-3.8751431.42247134zm-19.6458609-4.2753317-.344303-.1278346-.097371.03456656c-1.6696103.6007157-2.7919016 1.59476723-3.4481697 3.06153259l.0455407-.00109915c2.209139 0 4 1.790861 4 4 0 2.1421954-1.6839685 3.8910789-3.8003597 3.9951047l-.2439884.0046545.2561602.9226586.213641.81413.1157386.4788755.0502758.2235497.0860528.4207826.067639.3929721c.0862898.5605655.1166524 1.0595061.1067529 1.6210469.8535665-.1082287 1.7386492-.1640654 2.6480878-.1640654.7276507 0 1.4397093.0357453 2.1332688.1066108l.5158468.0596031-.0026426-.154724c-.0021851-.5007323.0300476-.959167.1084466-1.4684714l.067639-.3929721.0860528-.4207826.0502758-.2235497.1157387-.4788755.136906-.528522.2474572-.9049769.2666257-.9591251.1457442-.5550723.120577-.4968696c.1988753-.863629.2781853-1.4837623.2781853-2.1350818 0-3.789351-1.1746343-6.033228-3.9258183-7.1240655z"/>
    </g>
</svg>