<?xml version="1.0" encoding="UTF-8"?>
<svg viewBox="0 0 60 60" xmlns="http://www.w3.org/2000/svg">
    <g fill="currentColor" fill-rule="evenodd">
    	<path d="m35.6576193 1.55722687 2.3480971 9.11526403 8.1058204-4.78510966-1.3189017 9.31998366 9.3199837-1.3189017-4.7851097 8.1058204 9.115264 2.3480971-7.522828 5.6576193 7.522828 5.6576193-9.115264 2.3480971 4.7851097 8.1058204-9.3199837-1.3189017 1.3189017 9.3199837-8.1058204-4.7851097-2.3480971 9.115264-5.6576193-7.522828-5.6576193 7.522828-2.3480971-9.115264-8.1058204 4.7851097 1.3189017-9.3199837-9.31998366 1.3189017 4.78510966-8.1058204-9.11526403-2.3480971 7.522828-5.6576193-7.522828-5.6576193 9.11526403-2.3480971-4.78510966-8.1058204 9.31998366 1.3189017-1.3189017-9.31998366 8.1058204 4.78510966 2.3480971-9.11526403 5.6576193 7.522828zm-1.7996193 9.04677313-3.858 5.1310393-3.859-5.1310393-1.5999641 6.2168948-5.5280359-3.2628948.9001496 6.3551496-6.3551496-.9001496 3.2628948 5.5280359-6.2168948 1.5999641 5.1310393 3.859-5.1310393 3.858 6.2168948 1.6009641-3.2628948 5.5270359 6.3551496-.8991496-.9001496 6.3541496 5.5280359-3.2618948 1.5999641 6.2158948 3.859-5.1300393 3.858 5.1300393 1.6009641-6.2158948 5.5270359 3.2618948-.8991496-6.3541496 6.3541496.8991496-3.2618948-5.5270359 6.2158948-1.6009641-5.1300393-3.858 5.1300393-3.859-6.2158948-1.5999641 3.2618948-5.5280359-6.3541496.9001496.8991496-6.3551496-5.5270359 3.2628948zm-2.858 22.396c2.209139 0 4 1.790861 4 4s-1.790861 4-4 4-4-1.790861-4-4 1.790861-4 4-4zm7-9c2.209139 0 4 1.790861 4 4s-1.790861 4-4 4-4-1.790861-4-4 1.790861-4 4-4zm-13-4c2.209139 0 4 1.790861 4 4s-1.790861 4-4 4-4-1.790861-4-4 1.790861-4 4-4z"/>
    </g>
</svg>