<?xml version="1.0" encoding="UTF-8"?>
<svg viewBox="0 0 60 60" xmlns="http://www.w3.org/2000/svg">
    <g fill="currentColor" fill-rule="evenodd">
    	<path d="m31.4411727 1.74939708c5.5990669 2.70792629 8.3479032 6.8106734 7.7104056 11.98559662-.2954966 2.3987109-1.2005001 4.0187278-3.1265793 6.3099042l-.3096496.3603624c.1363804-.0547184.2745948-.1086577.4146713-.1618836l.647011-.2373884.7652402-.2688541c.206718-.0723417.4026214-.1421595.5885424-.2099888l.5286483-.1980586.4737478-.1893424c1.3438864-.5581666 2.014031-1.0420507 2.6171656-1.8421376 1.7268489-2.2907475 1.5539265-4.9120828-.8193231-8.41088541-.7750619-1.14264792-.4770746-2.69725893.6655733-3.47232087 1.1426479-.77506193 2.6972589-.47707461 3.4723209.66557331 3.486799 5.14047127 3.8116725 10.06524007.6740646 14.22742697-1.352053 1.7935631-2.7286979 2.6966381-5.2109299 3.6587322l-.6442167.2423026-.7687456.2728144c.4133541.0469461.8394526.1063745 1.2802412.1772008l.7048176.1204846 1.4955672.2753358.5133067.0821172.3407041.0448354.114862.013285c1.2035456.1350488 2.0913125.0480877 2.9587065-.3199149 2.6408687-1.1204211 3.8017812-3.4770252 3.4958881-7.693702-.0998994-1.3770931.9354707-2.5744321 2.3125638-2.6743314 1.3770931-.0998994 2.5744321.9354707 2.6743314 2.3125638.4494209 6.1951782-1.7316148 10.6225899-6.5299564 12.6583455-1.7449347.7403101-3.4741981.9096998-5.46908.6858559l-.4384378-.0536238-.4368571-.0638315-.4934789-.0828661-1.1063717-.2043846c-.2099966-.039764-.4138178-.0769275-.6119182-.111324.5920161.398707 1.1901736.8526018 1.8072697 1.3610158l.6628738.5601971.4787872.4122992.4847062.4084407c1.4693443 1.2130933 2.3463169 1.6782158 3.4983474 1.8201342 2.8457103.3505624 5.0291831-1.1123621 6.8730632-4.9248765.6011503-1.2429737 2.0961082-1.7632743 3.3390819-1.1621239 1.2429737.6011503 1.7632743 2.0961082 1.1621239 3.3390819-2.7079263 5.5990669-6.8106734 8.3479032-11.9855966 7.7104056-2.3987109-.2954966-4.0187278-1.2005001-6.3099042-3.1265793l-.3166668-.271516.1385378.3562543.2373883.647011.2688541.7652402c.0723417.206718.1421595.4026214.2099888.5885424l.1980587.5286483.1893423.4737478c.5581666 1.3438864 1.0420507 2.014031 1.8421376 2.6171657 2.2907475 1.7268488 4.9120828 1.5539264 8.4108854-.8193232 1.1426479-.7750619 2.6972589-.4770746 3.4723209.6655733.7750619 1.142648.4770746 2.697259-.6655733 3.4723209-5.1404713 3.486799-10.0652401 3.8116725-14.227427.6740647-1.7935631-1.3520531-2.6966381-2.728698-3.6587322-5.21093l-.2423026-.6442167-.2727014-.7697408c-.0469638.4136654-.1064306.8400941-.1773137 1.2812364l-.1204847.7048176-.2753358 1.4955672-.0821172.5133067-.0448354.3407041-.013285.114862c-.1350488 1.2035456-.0480877 2.0913125.3199149 2.9587065 1.1204211 2.6408687 3.4770253 3.8017812 7.693702 3.4958881 1.3770931-.0998994 2.5744321.9354707 2.6743314 2.3125638.0998994 1.3770931-.9354707 2.5744321-2.3125638 2.6743314-6.1951782.4494209-10.6225899-1.7316148-12.6583455-6.5299563-.7403101-1.7449348-.9096998-3.4741982-.6858559-5.4690801l.0536238-.4384378.0638315-.4368571.0525842-.3191019.14101-.7826801.0936565-.4980686c.0407565-.2152378.078781-.423988.1138943-.6267403-.464285.6936567-1.004887 1.3955999-1.6203504 2.1260752l-.7360816.857961c-.144765.1688069-.2807468.3300384-.4084408.4847062l-.3587143.4453242c-.9487183 1.2116936-1.3344403 2.022259-1.4614199 3.0530232-.3505624 2.8457103 1.1123621 5.0291831 4.9248765 6.8730632 1.2429737.6011503 1.7632743 2.0961082 1.1621239 3.3390819-.6011503 1.2429737-2.0961082 1.7632743-3.3390819 1.1621239-5.5990669-2.7079263-8.3479032-6.8106734-7.7104056-11.9855966.2954966-2.3987109 1.2005001-4.0187278 3.1265793-6.3099042l.2887426-.3357072-.3531312.1372948-.71735.2623681-.6949012.2438743c-.206718.0723418-.4026214.1421595-.5885424.2099888l-.5286483.1980587-.4737478.1893423c-1.3438864.5581666-2.014031 1.0420507-2.6171656 1.8421376-1.7268489 2.2907475-1.5539265 4.9120828.8193231 8.4108854.7750619 1.1426479.4770746 2.697259-.6655733 3.4723209s-2.6972589.4770746-3.4723209-.6655733c-3.486799-5.1404713-3.8116725-10.0652401-.6740646-14.227427 1.352053-1.7935631 2.7286979-2.6966381 5.2109299-3.6587322l.6442167-.2423026.7687456-.2728144c-.4133541-.0469461-.8394526-.1063744-1.2802412-.1772007l-.7048176-.1204847-1.4955672-.2753358-.5133067-.0821172-.3407041-.0448354-.114862-.013285c-1.2035456-.1350487-2.0913125-.0480877-2.9587065.3199149-2.6408687 1.1204212-3.80178121 3.4770253-3.49588808 7.693702.09989938 1.3770931-.93547072 2.5744321-2.31256382 2.6743314-1.37709309.0998994-2.57443206-.9354707-2.67433142-2.3125638-.44942086-6.1951782 1.73161479-10.6225899 6.52995642-12.6583455 1.7449347-.7403101 3.4741981-.9096998 5.46908-.6858559l.4384378.0536238.4368571.0638315.3191019.0525842.7826801.14101 1.0554557.1954679c-.6776937-.4573942-1.3637799-.9869987-2.0770717-1.5879841l-.857961-.7360816-.4847062-.4084408c-1.4693443-1.2130933-2.3463169-1.6782158-3.4983474-1.8201342-2.8457103-.3505624-5.02918312 1.1123621-6.87306318 4.9248765-.60115035 1.2429737-2.09610824 1.7632743-3.33908191 1.1621239-1.24297367-.6011503-1.76327427-2.0961082-1.16212392-3.3390819 2.70792628-5.5990669 6.81067339-8.3479032 11.98559661-7.7104056 2.3987109.2954966 4.0187278 1.2005001 6.3099042 3.1265793l.3790327.3259777c-.0541655-.1350758-.1075677-.2719499-.1602706-.4106497l-.2373883-.647011-.2688541-.7652401c-.0723417-.2067181-.1421595-.4026215-.2099888-.5885425l-.1980587-.5286483-.1893423-.4737478c-.5581666-1.3438864-1.0420507-2.014031-1.8421376-2.6171656-2.2907475-1.7268489-4.9120828-1.5539265-8.41088542.8193231-1.14264792.7750619-2.69725893.4770746-3.47232086-.6655733-.77506194-1.1426479-.47707462-2.6972589.6655733-3.4723209 5.14047128-3.4867989 10.06524008-3.8116725 14.22742698-.6740646 1.7935631 1.3520531 2.6966381 2.7286979 3.6587322 5.2109299l.2423026.6442167.2727316.7694748c.046959-.4135822.1064156-.8399226.1772835-1.2809704l.1204847-.7048176.2753358-1.4955672.0821172-.5133067.0448354-.3407041.013285-.114862c.1350488-1.2035456.0480877-2.0913125-.3199149-2.9587065-1.1204211-2.6408687-3.4770253-3.80178121-7.693702-3.49588807-1.3770931.09989937-2.5744321-.93547072-2.6743314-2.31256382-.0998994-1.3770931.9354707-2.57443206 2.3125638-2.67433142 6.1951782-.44942087 10.6225899 1.73161479 12.6583455 6.52995641.7403101 1.7449347.9096998 3.4741981.6858559 5.46908l-.0536238.4384378-.0638315.4368571-.0525842.3191019-.14101.7826801-.0936565.4980686c-.0352407.1861087-.0684389.3673669-.0994787.5440913.4524373-.6670591.9743623-1.3421239 1.5653017-2.0434925l.9467037-1.1056162.3832059-.4642564c1.075771-1.3352137 1.500298-2.1797447 1.634747-3.271142.3505624-2.8457103-1.1123621-5.02918312-4.9248765-6.87306318-1.2429737-.60115035-1.7632743-2.09610825-1.1621239-3.33908191.6011503-1.24297367 2.0961082-1.76327427 3.3390819-1.16212393z"/>
    </g>
</svg>