<?xml version="1.0" encoding="UTF-8"?>
<svg viewBox="0 0 25 30" xmlns="http://www.w3.org/2000/svg">
    <g fill="currentColor" fill-style="evenodd">
        <path d="m2.5 2.5h5.75c.82842712 0 1.5.67157288 1.5 1.5v22c0 .8284271-.67157288 1.5-1.5 1.5h-5.75c-.82842712 0-1.5-.6715729-1.5-1.5v-22c0-.82842712.67157288-1.5 1.5-1.5zm14.25 0h5.75c.8284271 0 1.5.67157288 1.5 1.5v22c0 .8284271-.6715729 1.5-1.5 1.5h-5.75c-.8284271 0-1.5-.6715729-1.5-1.5v-22c0-.82842712.6715729-1.5 1.5-1.5z" />
    </g>
</svg>