<?xml version="1.0" encoding="UTF-8"?>
<svg viewBox="0 0 30 30" xmlns="http://www.w3.org/2000/svg">
    <g fill="currentColor" fill-style="evenodd">
        <path d="m16 4.55024628v20.89950742c0 .5522848-.4477153 1-1 1-.2231159 0-.4398233-.0746156-.615644-.2119756l-6.704356-5.2377781h-6.18c-.82842712 0-1.5-.6715729-1.5-1.5v-9c0-.82842712.67157288-1.5 1.5-1.5h6.18l6.704356-5.23777809c.4352138-.34001082 1.0636576-.26283351 1.4036684.17238033.1373599.17582077.2119756.39252814.2119756.61564404zm11.631728 5.85409352c.5491748.5491748.5834982 1.4182372.1029703 2.007398l-.1029703.1139224-2.475728 2.4743398 2.475728 2.4754076c.5857864.5857865.5857864 1.5355339 0 2.1213204-.5491748.5491748-1.4182372.5834982-2.0073979.1029703l-.1139225-.1029703-2.4754076-2.475728-2.4743398 2.475728c-.5857865.5857864-1.5355339.5857864-2.1213204 0-.5491748-.5491748-.5834982-1.4182372-.1029702-2.0073979l.1029702-.1139225 2.4746602-2.4754076-2.4746602-2.4743398c-.5857864-.5857865-.5857864-1.5355339 0-2.1213204.5491748-.54917476 1.4182372-.58349818 2.007398-.1029702l.1139224.1029702 2.4743398 2.4746602 2.4754076-2.4746602c.5857865-.58578641 1.5355339-.58578641 2.1213204 0z" />
    </g>
</svg>