<?xml version="1.0" encoding="UTF-8"?>
<svg viewBox="0 0 30 30" xmlns="http://www.w3.org/2000/svg">
    <g fill="currentColor" fill-style="evenodd">
        <path d="m16 4.55024628v20.89950742c0 .5522848-.4477153 1-1 1-.2231159 0-.4398233-.0746156-.615644-.2119756l-6.704356-5.2377781h-6.18c-.82842712 0-1.5-.6715729-1.5-1.5v-9c0-.82842712.67157288-1.5 1.5-1.5h6.18l6.704356-5.23777809c.4352138-.34001082 1.0636576-.26283351 1.4036684.17238033.1373599.17582077.2119756.39252814.2119756.61564404zm8.8399677 1.61205204c2.3274161 2.32800955 3.6600323 5.47924358 3.6600323 8.83770168 0 3.3590181-1.3330627 6.5107322-3.6611652 8.8388348-.5857865.5857864-1.5355339.5857864-2.1213204 0-.5857864-.5857865-.5857864-1.5355339 0-2.1213204 1.7710707-1.7710707 2.7824856-4.162324 2.7824856-6.7175144 0-2.5547651-1.0110756-4.9456528-2.781623-6.71665178-.5857118-.58586111-.5855907-1.53560857.0002704-2.12132033.5858611-.58571175 1.5356085-.58559068 2.1213203.00027043zm-4.2437736 4.24150758c1.2101462 1.2101462 1.9038059 2.850142 1.9038059 4.5961941 0 1.7454237-.6931589 3.3848812-1.9025358 4.5949236-.5856253.5859476-1.5353728.5862088-2.1213203.0005835s-.5862087-1.5353727-.0005835-2.1213203c.6526973-.6530564 1.0244396-1.5323002 1.0244396-2.4741868 0-.9422245-.3720119-1.8217594-1.0251263-2.4748737-.5857864-.5857865-.5857864-1.5355339 0-2.1213204.5857865-.58578642 1.5355339-.58578642 2.1213204 0z" />
    </g>
</svg>