<?xml version="1.0" encoding="UTF-8"?>
<svg viewBox="0 0 15 15" xmlns="http://www.w3.org/2000/svg">
    <g fill="currentColor" fill-style="evenodd">
        <path d="m8.51794919 1.73686028c.25641792-.44412887.80207419-.61715287 1.26166468-.41850958l.10436073.05248418 1.7320508 1c.4441289.25641791.6171529.80207419.4187021 1.26133083l-.0524362.10427761-.4592913.79655668.0979602.13470183c.0991113.14395753.1906168.29299728.2741094.44651803l.1191786.2335667.0677518.15121344.918.001c.4733869 0 .8699473.32893365.9735893.77070917l.019683.1126697.0067277.11662113v2c0 .51283584-.3860402.93550716-.8831624.99327221l-.1165673.00672772-.9192703.00000007-.0670171.1527691c-.0753859.15781731-.1589849.31145467-.2503903.4603111l-.1429119.219624-.0976807.1332958.4590508.7971397c.2350498.4071181.1512957.9108139-.1738034 1.2220075l-.094589.079881-.097633.0641369-1.7320508 1c-.44412887.2564179-1.00319307.133433-1.30169576-.268059l-.06408897-.09755-.46118987-.7965561-.24994637.0237102-.30705363.0092898-.15402923-.0023317-.15340046-.006981-.25157031-.0236873-.45894919.7961397c-.23669347.4099651-.71983855.5889296-1.15424837.4577985l-.10741631-.0392889-.10436073-.0524842-1.7320508-1c-.44412887-.2564179-.61715288-.8020742-.41864667-1.261427l.05245004-.1043016.45822203-.7974365-.09668069-.1332958c-.09910999-.1439254-.19061703-.2929321-.27411435-.44641921l-.11918782-.23351589-.06801714-.1527691h-.918c-.47338693 0-.86994729-.32893365-.97358929-.77070917l-.01968298-.1126697-.00672773-.11662113v-2c0-.51283584.38604019-.93550716.88335129-.99327227l.11661426-.00672773.91703445-.001.06875175-.15121344c.07537821-.15785143.15897263-.31152248.25037634-.46041192l.14291167-.21967281.09696024-.13470183-.45805081-.79613972c-.23504976-.40711813-.15129572-.91081386.17380344-1.22200745l.09458897-.07988101.097633-.06413694 1.7320508-1c.44412887-.25641792 1.00319307-.13343297 1.30184718.26832092l.06412667.0976152.45900075.795229.25157031-.02268734.30742969-.00931266.15402923.00233175.15340046.00698091.25057031.02268734zm.86597385.5-.80511512 1.39392572-.34717903-.06411815c-.23945554-.04422343-.48398236-.06666785-.73162889-.06666785-.16509769 0-.32880883.0099753-.4905552.02972873l-.24107369.03693912-.34717903.06411815-.80516668-1.39392572-1.7320508 1 .80437817 1.39632597-.22961213.26846492c-.26595367.31095582-.48274994.66037595-.64238055 1.03627442l-.08885442.22862059-.11782752.33334291-1.60967815.00011091v2.00000001l1.60989386.00087028.11779788.33310982c.13647667.38592985.33169898.74777952.57766097 1.07356857l.1536019.19105032.22972161.2685484-.80470162 1.3959923 1.7320508 1 .80516668-1.3939257.34717903.0641182c.23945554.0442234.48398236.0666678.73162889.0666678.16489508 0 .32840713-.0099508.48996009-.0296561l.24078812-.0368492.34683226-.0639734.80639413 1.3936184 1.7320508-1-.8047016-1.3959923.2297216-.2685484c.2659376-.31088559.4827367-.66022788.6423914-1.03604645l.0888715-.22857244.1177978-.33310982 1.6098939-.00087029v-2l-1.6096782-.00011091-.1178275-.33334291c-.136444-.38601036-.3316553-.74793958-.5776257-1.07380169l-.1536092-.19109332-.2296122-.26846492.8043782-1.39632597zm-1.88392304 2.76313972c1.38071187 0 2.5 1.11928813 2.5 2.5s-1.11928813 2.5-2.5 2.5-2.5-1.11928813-2.5-2.5 1.11928813-2.5 2.5-2.5zm0 1c-.82842712 0-1.5.67157288-1.5 1.5s.67157288 1.5 1.5 1.5 1.5-.67157288 1.5-1.5-.67157288-1.5-1.5-1.5z" />
    </g>
</svg>