<?xml version="1.0" encoding="UTF-8"?>
<svg viewBox="0 0 15 15" xmlns="http://www.w3.org/2000/svg">
    <g fill="currentColor" fill-style="evenodd">
        <path d="m9.20474411 8.87977727 4.42908809 1.77163523c.1281958.0512783.1905498.1967709.1392715.3249668-.0125802.0314505-.0314205.0600164-.0553771.0839637l-.7987088.7983958 1.0610325 1.0607058c.0813945.081324.0949771.2048025.040753.3002111l-.0407257.0533151-.7071068.7071068c-.0976477.0975932-.2559179.0976054-.3535806.0000272l-1.0610325-1.0607058-.7980147.7983275c-.097612.0976502-.2559032.0976812-.3535534.0000693-.0239567-.0239473-.0427969-.0525132-.0553771-.0839637l-1.77163523-4.42908799c-.05127836-.12819588.01107562-.27368849.1392715-.32496684.05960276-.02384111.12609258-.02384111.18569534 0zm.10124282 3.83645853c.06630998.2680627-.0972429.5391253-.36530557.6054352-.59988315.1483916-1.22171975.2032598-1.84799771.160181-.27549141-.0189497-.4834595-.2576415-.46450973-.5331329.01894978-.2754914.25764152-.4834595.53313293-.4645097.522216.0359208 1.03989928-.0097573 1.53924483-.1332792.26806268-.06631.53912527.0972429.60543525.3653056zm-5.29722718-1.6412238c.37051146.3619681.7948669.6645934 1.25871876.8960548.24708817.1232965.34744106.4235527.22414446.6706409-.12329659.2470881-.42355277.347441-.67064093.2241444-.55713057-.2780072-1.06653365-.6412835-1.51103411-1.0755345-.19752617-.1929716-.20121842-.5095325-.00824687-.7070587s.50953251-.2012184.70705869-.0082469zm-1.48157779-3.04977031c.0545071.5168722.18958966 1.01951988.39907124 1.49212262.11190037.25245379-.00204069.54782119-.25449448.65972159-.2524538.1119004-.54782121-.0020407-.65972158-.2544945-.25154402-.56749806-.4138492-1.17144223-.47934068-1.79247557-.0289602-.27461959.17018609-.52071963.44480568-.54967982s.52071963.17018609.54967982.44480568zm10.42971884-1.39080416c.275564-.01786405.5134343.19104299.5312984.46660693.0215192.33194726.0154059.66675936-.0193349 1.00722004-.0384154.34070022-.089373.62167888-.1626594.9036246-.0694694.2672613-.3424436.42760329-.6097049.35813384s-.4276033-.34244367-.3581339-.60970497c.0610276-.23478389.1035471-.46923538.1362188-.75879205.0285442-.2799101.0336428-.55915.015709-.83579-.0178641-.27556395.191043-.51343434.4666069-.53129839zm-9.69827685-2.67659708c.22706654.15714768.28374698.46861486.12659929.6956814-.29391178.42468035-.52049416.89299125-.67083122 1.39113831-.07978357.26436564-.35877163.41399897-.62313728.3342154-.26436564-.07978358-.41399897-.35877164-.3342154-.62313728.18060994-.59845729.45289458-1.16122772.8059032-1.67129854.15714873-.22709029.46861486-.28374698.69568141-.12659929zm8.58421685-.60269524c.4286007.44996217.785611.96405538 1.0571558 1.52301348.1206659.24838345.0171304.54755711-.231253.66822307-.2483834.12066597-.5475571.01713049-.6682231-.23125295-.2264185-.46606849-.5242374-.89492637-.8817651-1.27027336-.1904583-.19995069-.1827631-.51643964.0171876-.70689786.1999507-.19045823.5164396-.18276307.7068978.01718762zm-5.37154605-1.28717927c.07588145.26551199-.07784448.54226605-.34335647.6181475-.49829166.14240823-.97129066.36200518-1.40224645.64979644-.2296444.15335599-.54012756.09151202-.69348355-.13813238s-.09151202-.54012757.13813238-.69348356c.51687765-.34516967 1.08447609-.60868585 1.68280659-.77968447.26551199-.07588145.54226605.07784448.6181475.34335647zm1.70816257-.53379167c.62458328.07116228 1.22581649.23715073 1.78809573.49058838.25175105.11347246.36384805.40954464.25037565.66129573-.1134725.2517511-.40954467.36384808-.66129576.25037563-.46815886-.21101452-.96898481-.34928254-1.49037884-.40868789-.27436729-.0312602-.47144452-.27902024-.44018432-.55338753.03126021-.27436729.27902024-.47144453.55338754-.44018432z" />
    </g>
</svg>