<?xml version="1.0" encoding="UTF-8"?>
<svg viewBox="0 0 15 15" xmlns="http://www.w3.org/2000/svg">
    <g fill="currentColor" fill-style="evenodd">
        <path d="m4.71036654 1.33119812c.25078157-.11559938.54779201-.00601256.66339139.24476901s.00601256.54779201-.24476901.66339139c-2.56980158 1.18456658-3.81193199 4.137985-2.84875846 5.36392769l.07476954.08671379.04506377-.15745837c.6103858-2.03575073 2.16911799-3.83843634 3.9792078-3.94582064l.17041105-.00505595c.91498403 0 1.46905691.52616908 1.46455161 1.34528715-.00353171.61541545-.32638921 1.36116055-.86093895 2.07065711-1.03422494 1.37270491-2.5181815 2.25770921-3.9032431 2.13363774l-.12205218-.01524704-.00409407.12640975c-.01456626.70211084.13467634 1.36939855.4948374 1.90542285l.09446166.1312156c.49643659.6442931 1.12919556 1.0519166 1.97009507 1.2942522.38441689.1107836.83076662.1490149 1.33989739.1117039l.39192421-.0419581c.2735126-.0380194.52605913.1528856.56407847.4263982s-.15288567.5260592-.42639827.5640785l-.15256997.0196213c-.74354863.087774-1.40861364.0497067-1.99384815-.1189498-1.03782769-.2990875-1.853093-.8242817-2.48531138-1.6447972-.63972591-.830259-.86427172-1.90425229-.77813896-3.00274257l.0080666-.09265463-.06534341-.03589819c-2.34332639-1.39005161-.8644165-5.67675974 2.4289074-7.33257871zm1.83931608 3.25046692c-1.44213211 0-2.76829955 1.64084198-3.24241522 3.41564514l-.0322674.12668982.06334137.00879718c.93967407.0785573 2.04737465-.54368975 2.88010159-1.56336199l.13616581-.17357322c.41672675-.55311261.65751112-1.10928293.65958837-1.47451221.0013775-.25141328-.09157515-.33968472-.46451452-.33968472zm4.55412978-3.45890371.1143886.02368528 1.9318516.51763809c.4953614.13273168.803716.61501326.7307921 1.11035625l-.0236853.11438862-1.9411428 7.24444373-.0761894.16134-1.7088329 2.3907452c-.32115302.4493097-.94573645.5532011-1.3950461.2320481-.20139633-.143952-.34101633-.3565129-.39440675-.5953282l-.0193962-.1213995-.28452005-2.9248626.01468807-.17781921 1.94114284-7.2444437c.12252159-.45725666.54288439-.75517026.99643139-.74094082zm-2.03038159 8.47657324.08691549.88690733c.18758019.0134601.37659901.0448373.56499957.0953191.18820817.0504302.36741783.1176802.53644523.1996995l.5188702-.7251547c-.2523157-.22043184-.5169928-.36557785-.79567852-.44025148-.27910129-.07478496-.58168318-.08141413-.91155197-.01651975zm1.36819439-5.55621033-1.21196266 4.5246298c.35025126-.03187267.68886448-.00498266 1.01413926.08217446.3245422.0869608.6304298.23247809.91693.43441026l1.2118934-4.52321452z" />
    </g>
</svg>