<?xml version="1.0" encoding="UTF-8"?>
<svg viewBox="0 0 15 15" xmlns="http://www.w3.org/2000/svg">
    <g fill="currentColor" fill-style="evenodd">
        <path d="m14 2.25c.2454599 0 .4496084.17687516.4919443.41012437l.0080557.08987563v9.5c0 .2454599-.1768752.4496084-.4101244.4919443l-.0898756.0080557h-13c-.24545989 0-.44960837-.1768752-.49194433-.4101244l-.00805567-.0898756v-9.5c0-.24545989.17687516-.44960837.41012437-.49194433l.08987563-.00805567zm-.5 1.406-.7096847.60500019-.9976912.84105952-.9606656.80105663-.92364845.76105894-.88663977.72106644-.84963949.68107916-.81264761.64109707c-.1705914.13341943-.40413157.1400627-.58023923.02562177l-.07160747-.05644284-1.24053648-1.17559688-.19893841.07261491c-.15590933.05521267-.30613733.10602677-.45069058.15244389-.18371541.05899238-.38497968.0070092-.51714888-.13357086l-.20563432-.22142155-.42882362-.47771848c-.14684577-.16699231-.29759839-.34173924-.45226476-.52424626l-.47574729-.57080673-.49927123-.61739991-.52283657-.66402581-.21564434-.2808692v7.514h12zm-1.453-.406h-10.044l.29844751.39005129.56527539.72401633.53713718.66912201c.34870035.42777399.67860681.81892405.98964918 1.17339473l.41749074.46641564.13484811-.04609238c.15056345-.05341776.30695179-.11124155.46915844-.17346979l.50406829-.19989643.53893863-.22631353.57376948-.25272107.60856084-.27911906.97798865-.4681539.69536644-.34507222 1.10801192-.56703885.7819252-.41096566z" />
    </g>
</svg>