<?xml version="1.0" encoding="UTF-8"?>
<svg viewBox="0 0 15 15" xmlns="http://www.w3.org/2000/svg">
    <g fill="currentColor" fill-style="evenodd">
        <path d="m12.5 1c.2454599 0 .4496084.17687516.4919443.41012437l.0080557.08987563v12c0 .2454599-.1768752.4496084-.4101244.4919443l-.0898756.0080557h-10c-.24545989 0-.44960837-.1768752-.49194433-.4101244l-.00805567-.0898756v-12c0-.24545989.17687516-.44960837.41012437-.49194433l.08987563-.00805567zm-.5 1h-9v11h9zm-1.5 9c.2761424 0 .5.2238576.5.5 0 .2454599-.1768752.4496084-.4101244.4919443l-.0898756.0080557h-6c-.27614237 0-.5-.2238576-.5-.5 0-.2454599.17687516-.4496084.41012437-.4919443l.08987563-.0080557zm0-2c.2761424 0 .5.22385763.5.5 0 .24545989-.1768752.44960837-.4101244.49194433l-.0898756.00805567h-6c-.27614237 0-.5-.22385763-.5-.5 0-.24545989.17687516-.44960837.41012437-.49194433l.08987563-.00805567zm0-2c.2761424 0 .5.22385763.5.5 0 .24545989-.1768752.44960837-.4101244.49194433l-.0898756.00805567h-6c-.27614237 0-.5-.22385763-.5-.5 0-.24545989.17687516-.44960837.41012437-.49194433l.08987563-.00805567zm0-4c.2454599 0 .4496084.17687516.4919443.41012437l.0080557.08987563v2c0 .24545989-.1768752.44960837-.4101244.49194433l-.0898756.00805567h-1c-.24545989 0-.44960837-.17687516-.49194433-.41012437l-.00805567-.08987563v-2c0-.24545989.17687516-.44960837.41012437-.49194433l.08987563-.00805567zm-3 2c.27614237 0 .5.22385763.5.5 0 .24545989-.17687516.44960837-.41012437.49194433l-.08987563.00805567h-3c-.27614237 0-.5-.22385763-.5-.5 0-.24545989.17687516-.44960837.41012437-.49194433l.08987563-.00805567zm0-2c.27614237 0 .5.22385763.5.5 0 .24545989-.17687516.44960837-.41012437.49194433l-.08987563.00805567h-3c-.27614237 0-.5-.22385763-.5-.5 0-.24545989.17687516-.44960837.41012437-.49194433l.08987563-.00805567z" />
    </g>
</svg>