<?xml version="1.0" encoding="UTF-8"?>
<svg viewBox="0 0 15 15" xmlns="http://www.w3.org/2000/svg">
    <g fill="currentColor" fill-style="evenodd">
        <path d="m14 2c.2454599 0 .4496084.17687516.4919443.41012437l.0080557.08987563v8c0 .2454599-.1768752.4496084-.4101244.4919443l-.0898756.0080557h-1.5v1.5c0 .2454599-.1768752.4496084-.4101244.4919443l-.0898756.0080557h-11c-.27614237 0-.5-.2238576-.5-.5v-8c0-.27614237.22385763-.5.5-.5h1.5v-1.5c0-.24545989.17687516-.44960837.41012437-.49194433l.08987563-.00805567zm-10.75 5.227-1.75 1.84v2.933h9.86l-3.109-3.273-1.42541371 1.4992836c-.17520465.1845188-.45605636.2050558-.65477704.0615859l-.07030361-.0614891zm8.25-2.227h-10v2.615l1.38753086-1.45940691c.17522629-.18441594.45600515-.20489703.65467689-.06145015l.07028661.0614767 1.67510345 1.76470805c.22328576-1.37256949 1.41423546-2.42032769 2.84990219-2.42032769 1.59472222 0 2.8875 1.29277778 2.8875 2.8875 0 .50421081-.1299675.98940017-.3706524 1.41627738l.8456524.89122262zm2-2h-10v1h8.5c.2454599 0 .4496084.17687516.4919443.41012437l.0080557.08987563v5.5h1zm-5.3625 3.5c-1.04243747 0-1.8875.84506253-1.8875 1.8875 0 .21116487.0345077.41689996.10110727.61149833l.02689273.06900167.085.088 1.42441371-1.50028358c.17520089-.18451487.45604531-.20505547.65476599-.06159382l.07030397.06148577 1.3022087 1.36968592c.07232604-.20163761.11030763-.41664235.11030763-.63779429 0-1.04243747-.84506253-1.8875-1.8875-1.8875z" />
    </g>
</svg>