<?xml version="1.0" encoding="UTF-8"?>
<svg viewBox="0 0 15 15" xmlns="http://www.w3.org/2000/svg">
    <g fill="currentColor" fill-style="evenodd">
        <path d="m14.4487427 5.58781044c-.3687221 2.64874851-2.7267426 5.47592756-5.93949706 7.74840586-.51759923.3661136-.72346378.4137837-1.00924564.4137837s-.49164641-.0476701-1.00924564-.4137837c-3.21275448-2.2724783-5.57077497-5.09965735-5.93949703-7.74840586-.5829112-4.18739561 3.94829442-5.82341542 6.3613807-2.74474817l.15543659.1993654c.15083559.18980075.28960379.33887003.43192538.33887003.11860132 0 .23473502-.10352033.35744088-.24786551l.22992109-.29036992c2.41308633-3.07866725 6.94429193-1.44264744 6.36138073 2.74474817zm-5.57433435-2.12785434-.2265304.28724457c-.02114224.02543952-.04162747.04947101-.06214127.07284528-.17836332.20323456-.34998955.3508369-.58652195.45482441-.15463583.06798305-.32222733.10642734-.49921473.10642734s-.3445789-.03844429-.49921473-.10642734c-.2365324-.10398751-.40815863-.25158985-.58652195-.45482441l-.2023636-.24838532c-.02651265-.03407491-.05505348-.07105948-.08630807-.11170453-1.84686047-2.35626421-5.01172132-1.08342407-4.58388491 1.9899777.29771079 2.13863257 2.22082528 4.650396 5.20297664 6.8368821l.41801236.2994899.13574004.0920773c.07092225.0454705.10813281.0621434.14421479.0682064l.05734943.0034105.05734943-.0034105c.02706149-.0045473.0547578-.0150626.09683494-.0392189l.10740159-.0687741.17018781-.1187908c3.16625563-2.2395883 5.21817613-4.8548596 5.52651953-7.0698719.4278364-3.07340177-2.7370245-4.34624191-4.58388495-1.9899777zm3.85557475 1.1168984c.07245.26646877-.0848332.54121674-.351302.61366677-.2664687.07245003-.5412167-.08483323-.6136668-.351302-.1614681-.59387456-.7433481-.78000308-1.1726709-.53386482l-.0894538.05936918c-.2197192.16726653-.53343313.12474525-.70069966-.09497394-.16726653-.21971918-.12474525-.53343309.09497394-.70069961.96851792-.73730767 2.46256892-.35396384 2.83281922 1.00780442z" />
    </g>
</svg>