<?xml version="1.0" encoding="UTF-8"?>
<svg viewBox="0 0 15 15" xmlns="http://www.w3.org/2000/svg">
    <g fill="currentColor" fill-style="evenodd">
        <path d="m7.76178384 1.0739254.07607847.05749753 5.99999999 5.5c.2035595.1865962.217311.50287989.0307148.70643938-.1658633.18094178-.4341957.21191177-.6347438.08550767l-.0716956-.05479291-.6621406-.60757707v6.239c0 .2454599-.1768723.4496084-.4101215.4919443l-.0898785.0080557h-9.00000005c-.24545694 0-.44960542-.1768752-.49194138-.4101244l-.00805862-.0898756v-6.24l-.66213474.60857707c-.18094177.16586329-.45094957.17342719-.63976993.03009402l-.06666945-.06080878c-.16586329-.18094177-.17342719-.45094957-.03009402-.63976993l.06080878-.06666945 1.33785936-1.22642293v-3.405c0-.24545989.17687811-.44960837.41012732-.49194433l.08987268-.00805567h2c.24546284 0 .44961132.17687516.49194728.41012437l.00805272.08987563v.655l1.66214064-1.52357707c.16726554-.15332675.4128107-.1724926.59964615-.05749753zm-.26178679 1.1030746-4 3.667v6.656h4.25l.00000295-5c0-.24545989.17687516-.44960837.41012437-.49194433l.08987563-.00805567h2c.2454599 0 .4496084.17687516.4919443.41012437l.0080557.08987563-.0000029 5h.75v-6.656zm2.25 5.822h-1v4.501h1zm-2.99999705-.999c.24545989 0 .44960837.17687516.49194433.41012437l.00805567.08987563v2.5c0 .2454599-.17687516.4496084-.41012437.4919443l-.08987563.0080557h-2c-.24545989 0-.44960837-.1768752-.49194433-.4101244l-.00805567-.0898756v-2.5c0-.24545989.17687516-.44960837.41012437-.49194433l.08987563-.00805567zm-.5.999h-1v1.5h1zm-1.75000295-5.5h-1v1.989l1-.917z" />
    </g>
</svg>