<?xml version="1.0" encoding="UTF-8"?>
<svg viewBox="0 0 15 15" xmlns="http://www.w3.org/2000/svg">
    <g fill="currentColor" fill-style="evenodd">
        <path d="m13.8745226 2.00025046c.3898481.67523665.1950362 1.52758868-.4273653 1.97086147l-.1216728.07817664-1.8186678 1.04899669c.6114191.18942479 1.0555281.75937584 1.0555281 1.43305412 0 .53169009-.2766315.99876944-.6938182 1.26516167.1237403.21599077.1938182.46723076.1938182.73483833 0 .53169009-.2766315.99876944-.6938182 1.26516167.1237403.21599075.1938182.46723075.1938182.73483835 0 .7796961-.5948881 1.4204487-1.35554 1.4931334l-.14446.0068666-.5623448-.0003394-1.46874411.8484156c-.70801679.4087737-1.53287118.431865-2.23128286.1344609l-1.29980605.7495137c-.47829263.2761424-1.08988303.1122672-1.36602541-.3660254l-2-3.46410164c-.27614237-.47829262-.11226722-1.08988302.36602541-1.3660254l1.04622824-.60355974c-.03522998-.31363485-.01017938-.62913922.07063536-.92965765l-.00408746-.0019383.02262076-.06344505c.02797939-.09385705.06144872-.18610848.10026724-.27622899l.01307467.00498975c.77102561-1.81482096 1.82288414-2.94193932 3.09762393-3.44497928.54166692-.21375351 1.36254542-.01834254 2.17158261.39597831l3.80737217-2.19718445c.717439-.41421357 1.6348246-.16840083 2.0490381.5490381zm-7.66091903 2.18235984c-1.01205018.39937695-1.88029275 1.33223424-2.55201191 2.92379066l-.0845926.20924839c-.07925152.31339722-.05789005.65251808.07814601.964884l.07707271.15272981 1.75 3.03108894c.38984806.6752366 1.22541253.9327006 1.92049878.6153215l.12853933-.0662834.08661699-.0489967c-.61141904-.1894248-1.05552808-.7593758-1.05552808-1.4330541 0-.3842253.1444629-.73470941.38203584-1.00009956-.23722037-.26433629-.38203584-.61520665-.38203584-.99990046l.00917866-.16186534c-.32640711.41311154-.74487629.8006069-1.25291715 1.16233708l-.23927254.16409225-.55139045-.83424731c1.02417578-.67692247 1.62129177-1.41713713 1.82097921-2.22241676l.03671787-.17355646.1245607-.70923318 1.01982857.59512386.34749312.19288207.30177522.15754048.13549594.06626115.24371362.10899214c.18910847.07825049.34519865.12588691.48287507.14910934.31027323.05233502.43816772-.02674449.57520905-.40991004.26111396-.73007082-2.59377431-2.75317168-3.40298812-2.43383836zm3.84874123 5.8487291h-2c-.27614237 0-.5.2238576-.5.5 0 .2454599.17687516.4496083.41012437.4919443l.08987563.0080557h2c.2761424 0 .5-.2238576.5-.5 0-.2454599-.1768752-.4496084-.4101244-.4919444zm-1.04010022-1.99949405-.96695357-.00052221-.08282184.00807191c-.23324921.04233596-.41012437.24648444-.41012437.49194433 0 .24545988.17687516.44960837.41012437.49194433l.08987563.00805567h2.5c.2761424 0 .5-.22385763.5-.5 0-.24545989-.1768752-.44960837-.4101244-.49194433l-.0798756-.00805567-1.23555265.00155034c-.10037989.00953768-.20530528.00921917-.31454757-.00104437zm2.04010022-2.00050597-.5573252.00063935c.1254612.32310462.15459.63764029.053161.92123452l-.0311806.07778675.5353448.00033938c.2761424 0 .5-.22385763.5-.5 0-.24545989-.1768752-.44960837-.4101244-.49194433zm1.3450021-3.75206302-.0818624.0379614-3.34692245 1.93160286c.28867348.21543332.55815129.45177106.79192999.69822531l3.05499246-1.76380277c.2125745-.12272994.3009347-.37798256.2209741-.60115028l-.0379614-.08186242c-.1227299-.2125745-.3779825-.30093469-.6011503-.2209741z" />
    </g>
</svg>