<?xml version="1.0" encoding="UTF-8"?>
<svg viewBox="0 0 15 15" xmlns="http://www.w3.org/2000/svg">
    <g fill="currentColor" fill-style="evenodd">
        <path d="m12 1.75c.5128358 0 .9355072.38604019.9932723.88337887l.0067277.11662113v.5h.5c.5128358 0 .9355072.38604019.9932723.88337887l.0067277.11662113v8c0 .5128358-.3860402.9355072-.8833789.9932723l-.1166211.0067277h-10.5c-.51283584 0-.93550716-.3860402-.99327227-.8833789l-.00672773-.1166211v-.5h-.5c-.51283584 0-.93550716-.3860402-.99327227-.8833789l-.00672773-.1166211v-8c0-.51283584.38604019-.93550716.88337887-.99327227l.11662113-.00672773zm0 1h-10.5v8h10.5zm-6.75 1.38309519c.09062197 0 .17954018.02462892.25724788.07125354l3.52817468 2.11690481c.23679013.14207408.31357267.4492042.17149859.68599434-.04222488.0703748-.10112379.1292737-.17149859.17149858l-3.52817468 2.11690481c-.23679014.14207408-.54392026.06529155-.68599434-.17149858-.04662462-.0777077-.07125354-.16662591-.07125354-.25724788v-4.23380962c0-.27614238.22385763-.5.5-.5zm.5 1.38290481v2.467l2.056-1.233z" />
    </g>
</svg>