<?xml version="1.0" encoding="UTF-8"?>
<svg viewBox="0 0 15 15" xmlns="http://www.w3.org/2000/svg">
    <g fill="currentColor" fill-style="evenodd">
        <path d="m5.69763668 11.6573633c.15019205-.231726.45979784-.2978223.69152388-.1476303.23172604.1501921.29782239.4597979.14763033.6915239-.19856616.3063607-.39515551.6135616-.58976815.9216026-.14749083.2334546-.45630814.3031421-.68976278.1556512-.20751523-.1311029-.28563416-.3896737-.19684448-.609478l.04119323-.0802848zm-1.57047904-1.6112114c.22215493-.10439222.48214441-.0311331.61965995.1619653l.04551427.0779165.31396559.6794558.14838916.329927c.11237252.252244-.00101572.5478241-.2532597.6601966-.25224399.1123725-.54782407-.0010157-.66019658-.2532597l-.14559825-.3237191-.3083562-.6673082c-.11744127-.2499243-.01004255-.5477329.23988176-.6651742zm3.19328489-.81116521c.15713899-.22707256.46860399-.28376493.69567655-.12662594.22707257.15713899.28376493.468604.12662594.69567656-.20779125.30026729-.41362732.60136499-.61750828.90329319-.15453551.2288523-.46533276.289098-.69418509.1345625-.22885232-.1545355-.28909801-.4653327-.1345625-.6941851.20601258-.30508492.41399706-.60932535.62395338-.91272121zm5.41630667-7.05117904c1.8314593 1.23533485 2.3147136 3.72146267 1.0793787 5.5529219-.8400732 1.24545979-2.2904018 1.90098917-3.7567734 1.73960052-.27448489-.03020978-.47250904-.27721364-.44229926-.55169858.03020977-.27448494.27721364-.47250908.55169856-.44229931 1.1006082.12113279 2.1880687-.37038497 2.8183366-1.30479553.9265011-1.37359443.5640604-3.23819029-.8095341-4.16469143-1.3735944-.92650114-3.23819024-.56406042-4.16469138.80953401-.6304638.93470101-.67864462 2.1275423-.15355339 3.10276419.13091359.24313832.03993747.5463673-.20320085.6772809-.24313832.13091359-.54636731.03993747-.6772809-.20320085-.69959526-1.29931824-.63533735-2.89018941.20499756-4.13603715 1.23533486-1.83145923 3.72146266-2.31471352 5.55292186-1.07937867zm-9.91463392 5.27124752c.24521915-.12697314.54694062-.03111581.67391377.21410334.17383735.3357265.34137882.66424586.5026253.9855621.12385604.24680821.02418361.54729095-.2226246.67114699-.24680822.12385604-.54729096.02418361-.671147-.2226246-.15932754-.31749236-.32495143-.64225171-.4968708-.97427406-.12697315-.24521915-.03111582-.54694062.21410333-.67391377zm6.19260684-.59200533c.16381767-.22230246.47682988-.26971375.69913234-.10589608.19760218.14561571.25701875.40911352.15272851.62200098l-.04683244.07713136-.6443046.88465032c-.16131667.22412395-.47377802.27503931-.69790197.11372264-.22412395-.16131666-.27503931-.47377802-.11372264-.69790197.21502026-.29873657.43198722-.596639.6509008-.89370725zm-7.57400569-1.96049285c.21495507-.11851107.47913028-.0621827.62882049.12163886l.05044761.07481686.52903867.96950191c.13117667.24299648.0405288.54632376-.20246769.67750043-.21599688.11660148-.47966252.0579342-.62771783-.1272067l-.0497826-.07526099-.52479437-.96172227c-.13332496-.24182446-.04536873-.54594315.19645572-.6792681z" />
    </g>
</svg>