<?xml version="1.0" encoding="UTF-8"?>
<svg viewBox="0 0 15 15" xmlns="http://www.w3.org/2000/svg">
    <g fill="currentColor" fill-style="evenodd">
        <path d="m10.5878173 1.501215c2.0738285 0 2.9660687.96758826 3.7663842 3.50786144.4668587 1.48185181-.1867651 2.49039024-1.7588518 2.90849245l.6968932 2.29935841c.4988765 2.1526-.4881577 3.1608926-2.7755052 3.2735892l-.2182426.0079491-.2330067.0027494h-5.13097745c-2.53061724 0-3.68839057-.9373765-3.26127777-3.1153126l.04320042-.2014201.68722538-2.26717716c-1.57137014-.4182625-2.22462108-1.4266884-1.75786043-2.9082287.77363825-2.45559741 1.63317511-3.44160813 3.56289956-3.50461373l.20348458-.00324771zm-.1591898 2.54830638c-.1942211.00579612-.3642873.15667665-.44039925.39492021l-.05034762.19312005c-.06169778.16473943-.20634841.2853698-.37949069.31647359l-.0886933.00788108h-3.93939394c-.21131446 0-.39620325-.13215867-.468184-.32435467l-.05034762-.19312005c-.08698506-.27227835-.29668591-.43044989-.52491226-.38835326-.24267748.04476217-.36490999.21597115-.45305317.83898686l-.0197749.15194118-.03448828.32960491-.07866603 1.0163593-.02013612.10726768-1.1988036 3.94245044c-.34888142 1.505387.17709865 2.0228172 2.04705737 2.0567121l.20551686.0018043h5.13097745c1.9665555 0 2.5723783-.4655204 2.2943954-1.8717794l-.033144-.154292-1.2074808-3.97489544-.0201361-.10726768-.0955816-1.1888965-.0359942-.29938835c-.0808923-.57830385-.1903476-.77164437-.3959104-.83450687l-.0584962-.01410053zm-2.92862783 1.65205662c1.64534831 0 2.97916663 1.27439143 2.97916663 2.84643293 0 1.57204147-1.33381832 2.84643297-2.97916663 2.84643297-1.64534832 0-2.97916667-1.2743915-2.97916667-2.84643297 0-1.5720415 1.33381835-2.84643293 2.97916667-2.84643293zm0 1c-1.10300162 0-1.97916667.83712841-1.97916667 1.84643293 0 1.00930451.87616505 1.84643297 1.97916667 1.84643297 1.10300161 0 1.97916666-.83712846 1.97916666-1.84643297 0-1.00930452-.87616505-1.84643293-1.97916666-1.84643293zm3.08781763-4.200363h-6.17563461c-1.37598586 0-1.991697.50782981-2.59475376 2.16216064l-.14487344.41937922-.07297222.22681235c-.2782643.88323592.02164184 1.39771647 1.09240247 1.65515201l.21601426-.70471922.05934661-.7856533.03909952-.40705723c.14794502-1.3421307.42706166-1.83377807 1.29902131-1.99461212.62095638-.11453618 1.16081213.17818278 1.47031085.66451256l.06726567.11556959.05195604.1082405h3.209l.05295537-.1082405c.29418955-.55445589.86885423-.90342881 1.53757653-.78008215.826067.1523691 1.1200534.60164544 1.2745042 1.78968871l.0245171.20492341.0390995.40705723.0583473.7856533.2150025.70520237c1.0723967-.25727473 1.3728527-.77184635 1.0944142-1.65563516l-.0729722-.22681235-.1448734-.41937922c-.5789345-1.5881576-1.1695313-2.11969985-2.433237-2.15968218z" />
    </g>
</svg>