<?xml version="1.0" encoding="UTF-8"?>
<svg viewBox="0 0 15 15" xmlns="http://www.w3.org/2000/svg">
    <g fill="currentColor" fill-style="evenodd">
        <path d="m13.7878179 1.7748034.0244207.1425464.6702813 5.45900384c.0950211.77388438-.4173447 1.48235949-1.163609 1.6472198l-.1425744.02442407-.6763365.08200249 1.2153431 3.2393511c.2738843.7300092-.0580164 1.5388958-.7446629 1.8741433l-.1328421.0571736c-.1744224.0654396-.3591172.0976723-.5445934.0955893l-.1391053-.0082175-5.73235656-.6024949c-.82388891-.0865942-1.42158436-.8246866-1.33499015-1.6485755.00598616-.0569545.0152132-.1133739.02758932-.1689958-.11960183.0125476-.24165062.0177647-.36438201.0177647-2.34721019 0-4.25-1.9027898-4.25-4.24999998s1.90278981-4.25 4.25-4.25c.23795252 0 .47148414.019606.69903081.05731197l-.07343454-.58981107c-.09502106-.77388438.41734473-1.48235949 1.16346881-1.6472026l.1425464-.02442064 5.45900382-.67028139c.7738844-.09502105 1.4823595.41734473 1.6472026 1.16346881zm-3.4714407 4.66645909c-.2068689-.13212046-.4741256-.09293777-.63535351.08085258l-.05516533.07140945-3.46867326 5.43110908c-.04178086.0654188-.06775674.1396669-.07587051.2168642-.02565754.2441152.12890935.4656339.35645548.5321191l.08854124.0174061 5.73235659.602495c.0771973.0081137.1552236-.0018575.2278995-.029124.2298178-.0862229.3588256-.3235378.3165301-.5567944l-.0240284-.0869779-2.2636833-6.03360408c-.0380023-.1012909-.1078323-.18752376-.1990086-.24575513zm-5.5663772-1.95552417c-1.79492544 0-3.25 1.45507457-3.25 3.25 0 1.79492544 1.45507456 3.24999998 3.25 3.24999998.33548629 0 .66340929-.0506908.97584679-.1489055l.00415321-.0028328 2.24423152-3.50995249c-.20258827-1.60576281-1.57459262-2.83830919-3.22423152-2.83830919zm7.6026721-2.88481504-.0901874.00295746-5.45900388.67028139c-.24363026.02991404-.42470139.23035024-.43831865.46683511l.0029478.09010896.12703914 1.02859117c1.00485792.45313785 1.80383413 1.28579318 2.21059729 2.31854896l.07733108-.12297862c.44590654-.69818254 1.37337402-.90269264 2.07155652-.4567861.2279409.14557843.4114102.34949329.532211.58927332l.0648148.14799207.6863402 1.831253.9166354-.11156927c.2436303-.02991404.4247014-.23035024.4382959-.4670203l-.0029575-.09018745-.6702814-5.45900383c-.029914-.24363027-.2303502-.4247014-.4670203-.43829587z" />
    </g>
</svg>