<?xml version="1.0" encoding="UTF-8"?>
<svg viewBox="0 0 15 15" xmlns="http://www.w3.org/2000/svg">
    <g fill="currentColor" fill-style="evenodd">
        <path d="m7.72128286 1.18140769c.0986063.04866512.17842006.12847888.22708518.22708519l1.63949137 3.32197236c.07283101.14757174.2136138.24985643.37646888.27352066l3.66601421.53270304c.2732724.0397088.4626131.29343023.4229043.56670266-.0158122.10881852-.0670558.20938972-.1457977.28614402l-2.6527527 2.58579488c-.1178431.11486858-.1716173.28036867-.1437983.44256571l.6262299 3.65120099c.0466805.2721682-.1361134.5306461-.4082816.5773267-.1083788.0185884-.2198628.000931-.3171931-.0502385l-3.27898274-1.7238632c-.14566201-.0765791-.31967911-.0765791-.46534112 0l-3.27898276 1.7238632c-.24442229.1285004-.54673587.0345271-.67523627-.2098951-.05116954-.0973303-.06882687-.2088143-.05023845-.3171931l.62622998-3.65120099c.02781897-.16219704-.02595527-.32769713-.14379832-.44256571l-2.65275277-2.58579488c-.19774179-.1927506-.20178794-.50930723-.00903733-.70704902.0767543-.07874182.1773255-.12998541.28614402-.14579766l3.66601417-.53270304c.16285508-.02366423.30363787-.12594892.37646888-.27352066l1.63949137-3.32197236c.12221115-.24762683.42202407-.34929633.6696509-.22708519zm-.22128286 1.57759231-1.19112334 2.41403095c-.19664371.39844369-.55841027.68683985-.98496121.79228831l-.14444543.02827365-2.66347002.38640709 1.92731531 1.87924413c.31424812.30631621.47662945.73264788.45022013 1.16535505l-.01882518.16234209-.45571026 2.65305873 2.38298831-1.2528093c.38843203-.2042108.84407613-.2269009 1.24744418-.0680702l.1485792.0680702 2.38198831 1.2528093-.4547103-2.65305873c-.0741839-.43252543.0450383-.87288034.3207428-1.20742479l.1106522-.12027235 1.9263153-1.87924413-2.66247002-.38640709c-.43970872-.06389342-.82578178-.31883455-1.05788071-.69192323l-.07152593-.12863873z" />
    </g>
</svg>