<?xml version="1.0" encoding="UTF-8"?>
<svg viewBox="0 0 15 15" xmlns="http://www.w3.org/2000/svg">
    <g fill="currentColor" fill-style="evenodd">
        <path d="m4.17585473 1.8194955c1.67402418-.96649831 3.8145906-.39293527 4.78108891 1.28108891.51521602.89238034.59279453 1.91733746.29932761 2.82634628l1.12198895 2.53376875c.5180519-.10953166.966657-.1438112 1.3883663-.09322014 3.1731186.38070281 3.8421961 4.494003 1.1856494 5.1740622-1.29583.3317243-2.3665695-.0144726-3.12605772-1.002725l-1.06815992.6153358-1.9129634-2.6173837-.08379851.0182007c-2.60405255.5099574-4.60733932-.3454898-6.29422556-3.26726247-.13807119-.23914631-.05613361-.54494151.1830127-.6830127s.54494151-.05613361.6830127.1830127c1.3785633 2.38774169 2.85476201 3.13121685 4.85576092 2.85027088l-.99606743-1.36499484c-.93395819-.20035461-1.78280784-.78001812-2.29802387-1.67239846-.96649831-1.67402418-.39293527-3.8145906 1.28108892-4.78108891zm6.61841407 7.57966649.9065839 2.05596721-.9991964.5772829c.5026173.5892439 1.1465101.759528 2.0026229.5403685 1.505861-.3854909 1.0878815-2.95511121-1.0567706-3.21242119-.2483143-.02978944-.5273502-.01665323-.8532398.03880258zm-.6741777.95805281-1.52507078.8805.44064806.6012249 1.38650662-.8005zm-1.23857769-2.80327937-2.09404942 1.209 1.21402559 1.66275397 1.71213222-.98849997zm-4.20565868-4.86841453c-1.19573156.69035594-1.60541945 2.21933195-.91506351 3.41506351.69035593 1.19573156 2.21933195 1.60541945 3.41506351.91506351 1.19573155-.69035593 1.60541944-2.21933195.91506351-3.41506351-.69035594-1.19573156-2.21933196-1.60541944-3.41506351-.91506351z" />
    </g>
</svg>