<?xml version="1.0" encoding="UTF-8"?>
<svg viewBox="0 0 15 15" xmlns="http://www.w3.org/2000/svg">
    <g fill="currentColor" fill-style="evenodd">
        <path d="m7.5 1c3.5898509 0 6.5 2.91014913 6.5 6.5 0 3.5898509-2.9101491 6.5-6.5 6.5-3.58985087 0-6.5-2.9101491-6.5-6.5 0-3.58985087 2.91014913-6.5 6.5-6.5zm-2.18579124 9.2347647-.1768835.0359555c.40742579 1.3532231 1.09517923 2.3299915 1.8628455 2.6314501l-.00007336-2.8559953c-.56163789.0233977-1.1235597.0862329-1.68588864.1885897zm2.68669379-.188548-.00006746 2.8555582c.76726115-.3019165 1.45459182-1.2784227 1.86183965-2.6310547-.62109147-.1246426-1.24160496-.1986159-1.86177219-.2245035zm-3.83883231.4560244-.16120471.0432497c-.29204415.0850173-.58422363.1806853-.87655564.2870156l.01119052.0147614c.49995078.6509093 1.14223838 1.1867835 1.88031553 1.5610754-.30064477-.4577636-.55643949-.9983194-.75770302-1.600169zm6.67605346-.0025471-.0582652.1921724c-.2066774.6486243-.4758087 1.2294182-.79591447 1.7165127.73831717-.3743278 1.38060477-.910202 1.88055557-1.5611113-.3564784-.1406758-.6986037-.2565337-1.0263759-.3475738zm-8.26944518-5.43803598c-.36404853.7348458-.56867852 1.56269695-.56867852 2.43834198 0 .88746742.21019285 1.72584168.58351102 2.46805524.53900442-.19591944.98833411-.34330999 1.34798907-.44217165-.11850339-.63804718-.18150009-1.31999985-.18150009-2.02588359 0-.69345492.0607978-1.36381409.17467293-1.99367929-.39270095-.10644828-.78602437-.23268663-1.17910719-.37678473zm9.86264298 0c-.5462289.19905257-.9985035.34790922-1.3568237.44656995.1147044.62795794.1755022 1.29831711.1755022 1.99177203 0 .70588374-.0629967 1.38783641-.180847 2.02750745.3948785.10709954.7902014.23388804 1.1852813.37871822l.1620547.06182957c.3733182-.74221356.583511-1.58058782.583511-2.46805524 0-.87564503-.20463-1.70349618-.5686785-2.43834198zm-7.53175413.67815744-.03336039.20299858c-.07528797.49235574-.11620698 1.01467349-.11620698 1.55718596 0 .63069865.0553031 1.23410363.15561775 1.79486835.69766213-.1394716 1.39593264-.22263998 2.09457587-.24949943v-3.05497618c-.56051747-.02154919-1.12079503-.07934309-1.68073556-.17331552zm5.20079713-.00088733c-.70264415.14129078-1.40091498.22451296-2.09955863.25142614v3.05505311c.69830971.02690032 1.39624697.11005582 2.09362403.24933853.100267-.56064228.1555701-1.16404726.1555701-1.79474591 0-.61804747-.0531067-1.20988525-.1496355-1.76107187zm-3.10019374-3.64109844c-.77416543.30401081-1.46705921 1.29481437-1.87313306 2.66590056.62505798.12522499 1.24923397.19986802 1.8730597.22585644zm1.00066433.0003954.00006746 2.8913199c.62349278-.0260265 1.24733555-.10065569 1.87169688-.22400245-.38018916-1.28653561-1.01256676-2.23753506-1.72768722-2.60226309zm-2.98477912.49339583-.17182303.09090271c-.68188774.37671165-1.27527727.893991-1.7410851 1.51275456.37359903.13464465.72317521.24731392 1.04872854.33800781.18398503-.63518593.42566573-1.20962518.71537017-1.70226138zm4.96812809.00003591.09624894.15214058c.3130014.51157264.5726939 1.11623089.7672122 1.78723636.2285396-.0620771.4569475-.1316601.6853735-.20808729l.3638335-.12766829c-.5044669-.67011688-1.1585711-1.22120549-1.91266814-1.60362136z" />
    </g>
</svg>